<svg width="150" height="157" viewBox="0 0 150 157" fill="none" xmlns="http://www.w3.org/2000/svg">
<path fill-rule="evenodd" clip-rule="evenodd" d="M120.86 124.152C114.877 133.642 103.194 146.386 97.2211 151.035C92.7389 154.524 84.186 156.61 76.6707 156.617C69.1554 156.61 60.6025 154.524 56.1237 151.035C50.1509 146.386 38.4681 133.642 32.4814 124.152C25.0595 112.375 25.7374 105.984 25.7374 87.17C25.7374 49.2233 46.0111 28.96 76.6707 28.96C107.33 28.96 127.604 42.5972 127.604 87.17C127.604 105.984 128.285 112.375 120.86 124.152Z" fill="url(#paint0_radial_1356_114360)"/>
<path d="M25.8237 95.9856C25.9403 98.3889 26.3999 107.073 27.7861 114.931C25.9818 116.195 21.9668 116.556 21.9668 116.556C11.3098 117.552 10.2923 108.532 10.2923 108.532C6.7826 108.408 5.66827 106.502 5.91417 102.577C6.0781 99.9449 6.99875 97.894 6.99875 97.894C3.22034 96.5106 3.79376 90.3268 8.40463 90.6139C3.64643 87.1554 6.84139 83.6934 6.84139 83.6934C6.52355 83.3233 2.25992 86.3841 0.506803 81.7221C-0.626893 78.7028 1.26387 78.0803 1.35552 76.6899C1.4278 75.6662 0.339757 74.1618 0.346328 72.9686C0.349787 71.4227 1.29361 70.4992 1.37523 69.4444C1.39806 69.1608 -1.10555 68.0195 0.588769 64.2774C1.82726 61.5417 5.51402 62.3199 6.31708 61.3204C6.99529 60.4765 4.42286 55.9874 5.56313 54.144C6.41184 52.771 10.1543 50.3639 10.2494 49.8001C10.302 49.4923 8.98462 46.4661 9.46293 43.7477C9.99381 40.7319 12.3269 39.3451 12.3829 38.9888C12.504 38.2072 10.7509 36.599 12.5763 33.5763C14.0409 31.1519 19.2418 30.8337 19.4874 30.5121C19.8741 30.0106 19.8184 27.6588 20.877 25.9849C22.6599 23.1628 25.3042 24.1519 26.7952 22.6371C28.2142 21.1914 28.7482 17.681 30.8458 15.9345C32.6712 14.4162 34.8013 14.9142 36.1055 14.2364C37.8752 13.3199 38.0554 8.98637 42.1385 8.61286C45.1927 8.33272 45.5171 10.2453 46.8147 10.4493C47.1523 10.5012 47.5223 9.1178 48.2009 8.59556C48.7906 8.14596 49.3968 7.60297 51.2388 7.73786C51.7403 7.7759 52.2677 7.99033 52.707 8.23242C53.9226 4.22402 57.4783 1.32234 61.6828 1.32234C64.4555 1.32234 66.9491 2.58815 68.6697 4.59754C69.774 4.11335 70.9865 3.84704 72.2582 3.84704C73.5067 3.84704 74.6964 4.10297 75.7876 4.57333C77.5082 2.57743 79.9921 1.32234 82.7548 1.32234C84.0752 1.32234 85.3272 1.6094 86.4678 2.12471C89.0437 -1.73497 96.8201 0.132617 98.6881 3.98538C99.0975 4.82926 99.5105 5.9844 100.481 6.41671C101.26 6.76948 101.959 5.62471 104.203 5.7838C107.346 6.00515 108.834 6.351 111.2 8.7754C112.629 10.2383 112.806 11.8154 113.438 15.1287C113.707 16.5328 120.507 13.6934 123.479 17.771C124.062 18.5733 124.381 20.313 124.754 20.6381C125.134 20.9701 126.376 20.5032 127.195 20.8352C133.153 23.2423 133.576 27.3994 132.164 33.9706C138.996 33.7838 144.269 39.5872 142.44 47.431C147.622 48.4389 147.69 55.2732 144.095 57.2117C148.057 58.8579 151.97 62.4997 148.896 67.6391C147.569 69.8629 142.529 68.7648 145.028 72.3198C146.478 74.3811 146.195 78.0547 143.534 78.9342C142.023 79.4332 141.673 80.4147 141.673 80.4147C141.588 82.5106 145.574 83.4807 145.189 86.4917C144.671 90.5495 142.211 88.9572 141.909 90.6557C141.641 92.1532 143.586 91.6006 143.554 93.8673C143.525 95.9334 141.774 95.8127 142.592 97.4084C143.104 98.4083 142.712 99.9864 142.712 99.9864C143.167 101.581 143.308 103.072 142.345 104.517C141.913 105.165 140.268 106.807 140.268 106.807C141.287 113.52 137.629 118.195 132.868 115.432C133.786 125.925 124.988 115.931 124.988 115.931C124.988 115.931 127.143 108.515 128.72 88.7843C128.954 85.856 124.381 55.995 120.072 54.1921C117.784 53.2351 115.776 64.0038 113.019 63.6652C110.557 63.363 111.839 57.5167 110.582 56.2896C109.042 54.7855 107.772 60.5201 107.651 62.1777C107.481 64.5077 107.975 70.2513 103.188 70.2513C99.0066 70.2513 98.603 65.5602 97.9739 61.4307C97.5578 58.6743 93.3499 56.9831 94.2117 52.992C93.104 53.0023 93.3959 55.2327 92.6322 56.236C89.7385 60.0542 82.6811 50.2995 83.0401 43.6004C80.9425 49.4197 75.4099 47.2426 75.0001 44.2095C74.5906 41.1556 73.9051 41.7736 71.6654 40.8838C73.661 44.695 69.3942 46.2617 65.5079 45.7533C66.7595 49.8447 66.3895 52.66 63.4826 53.4589C62.8504 53.6318 61.605 53.6387 60.7002 53.1856C59.5534 52.6081 58.603 52.1619 57.9573 50.9653C56.4923 48.2435 56.2599 47.0122 57.0692 43.7336L55.1639 42.3277C54.587 47.2675 52.2978 48.1086 52.2093 49.4712C52.0813 51.4184 53.8576 52.9989 52.809 56.9312C52.2124 59.1654 50.0003 60.0819 49.9578 60.3793C49.9056 60.7598 49.345 65.7296 44.4228 67.6525C42.329 68.4722 38.1474 64.4534 36.9117 62.5236C36.148 61.3235 33.9892 57.4541 32.9465 57.5053C29.2746 57.6862 27.3133 70.5719 27.3133 70.5719C27.3133 70.5719 24.967 78.3231 25.8237 95.9853V95.9856Z" fill="url(#paint1_radial_1356_114360)"/>
<path d="M130.151 70.3983C128.584 70.1413 127.216 70.1472 126.027 70.5726C126.498 74.4087 126.945 78.1446 127.105 82.1942C127.45 90.8895 127.343 97.1771 126.98 103.666C130.524 101.406 133.963 96.88 135.109 89.8852C136.684 80.2723 135.143 71.2166 130.15 70.3983H130.151Z" fill="url(#paint2_radial_1356_114360)"/>
<path d="M23.1903 70.3983C24.7573 70.1413 26.1252 70.1472 27.3135 70.5726C26.8428 74.4087 26.3963 78.1446 26.2358 82.1942C25.891 90.8895 25.9982 97.1771 26.361 103.666C22.8171 101.406 19.378 96.88 18.2318 89.8852C16.6568 80.2723 18.1979 71.2166 23.1903 70.3983Z" fill="url(#paint3_radial_1356_114360)"/>
<path d="M85.5477 112.768C82.0477 113.536 80.3946 115.262 76.6698 115.262C72.945 115.262 71.2883 113.536 67.7918 112.768C62.649 111.644 62.1959 106.083 67.3249 103.534C70.7281 101.839 70.1332 101.957 70.6624 97.4887C71.0393 94.3138 71.112 94.1409 71.6515 90.0218C71.8417 88.5727 72.7375 87.2066 74.2938 86.425C74.9682 86.0895 75.7602 85.8543 76.6698 85.8543C77.5793 85.8543 78.3713 86.0895 79.0458 86.425C80.5986 87.2066 81.4944 88.5727 81.6846 90.0218C82.2276 94.1409 82.3002 94.3138 82.6737 97.4887C83.2063 101.957 82.608 101.839 86.0146 103.534C91.1401 106.083 90.6905 111.644 85.5477 112.768Z" fill="url(#paint4_linear_1356_114360)"/>
<path d="M76.67 115.262C80.862 115.262 84.2603 112.666 84.2603 109.463C84.2603 106.261 80.862 103.665 76.67 103.665C72.4779 103.665 69.0796 106.261 69.0796 109.463C69.0796 112.666 72.4779 115.262 76.67 115.262Z" fill="url(#paint5_radial_1356_114360)"/>
<path d="M52.4946 123.826C52.4946 123.826 64.6132 124.923 76.6754 124.923C88.7376 124.923 100.867 124.196 100.867 124.196C100.867 124.196 89.5569 134.198 76.681 134.198C63.805 134.198 52.4946 123.826 52.4946 123.826Z" fill="url(#paint6_linear_1356_114360)"/>
<path d="M101.318 124.195C101.318 124.195 93.8424 136.87 76.6741 136.87C59.5058 136.87 52.0337 123.795 52.0337 123.795C52.0337 123.795 52.1444 123.644 52.5832 123.867C55.9757 125.316 62.2715 132.746 76.6741 132.658C91.0763 132.746 97.3763 125.716 100.765 124.266C101.204 124.043 101.318 124.195 101.318 124.195Z" fill="#D97C80"/>
<path d="M101.318 124.195C101.318 124.195 86.2846 127.312 76.6741 127.428C67.0674 127.313 52.0337 123.795 52.0337 123.795C54.0026 121.927 63.4208 120.937 72.6951 121.855C75.1479 122.095 76.6741 122.917 76.6741 122.917C76.6741 122.917 78.2042 122.095 80.6569 121.855C89.9312 120.937 99.3449 122.326 101.318 124.195V124.195Z" fill="#EA979F"/>
<path d="M26.1688 99.607C26.1573 99.607 26.1466 99.6053 26.1352 99.6053C23.8931 99.6053 22.168 101.423 22.168 103.665C22.168 105.907 23.9858 107.725 26.2279 107.725C26.4067 107.725 26.5814 107.71 26.7543 107.687C26.5859 105.711 26.2677 102.607 26.1684 99.6067L26.1688 99.607Z" fill="url(#paint7_radial_1356_114360)"/>
<path d="M127.171 99.6074C127.183 99.6074 127.194 99.6057 127.205 99.6057C129.447 99.6057 131.183 101.424 131.183 103.667C131.183 105.909 129.365 107.727 127.123 107.727C126.944 107.727 126.77 107.711 126.597 107.689C126.765 105.712 127.073 102.607 127.172 99.6074H127.171Z" fill="url(#paint8_radial_1356_114360)"/>
<path d="M56.576 91.4989C59.2203 91.4989 61.364 89.3553 61.364 86.711C61.364 84.0667 59.2203 81.923 56.576 81.923C53.9317 81.923 51.7881 84.0667 51.7881 86.711C51.7881 89.3553 53.9317 91.4989 56.576 91.4989Z" fill="#231F20"/>
<path d="M96.5609 91.4989C99.2052 91.4989 101.349 89.3553 101.349 86.711C101.349 84.0667 99.2052 81.923 96.5609 81.923C93.9166 81.923 91.7729 84.0667 91.7729 86.711C91.7729 89.3553 93.9166 91.4989 96.5609 91.4989Z" fill="#231F20"/>
<path d="M35.918 82.8644C35.918 82.8644 39.0662 78.5175 40.9235 77.2859C42.8941 75.9789 44.3861 74.5647 49.3819 74.3956C56.0243 74.1705 64.3423 75.7801 64.3423 75.7801C64.3423 75.7801 68.8367 76.6264 70.061 78.9671C71.2853 81.3078 69.3406 81.6298 68.5448 81.6823C67.0956 81.7781 64.3244 80.7866 62.5405 80.5542C60.1548 80.2433 57.0539 79.5526 54.7032 79.3731C52.239 79.1853 48.9413 78.8305 45.0308 79.2472C42.5842 79.508 35.918 82.8648 35.918 82.8648V82.8644Z" fill="black"/>
<path d="M117.218 82.8644C117.218 82.8644 114.069 78.5175 112.212 77.2859C110.241 75.9789 108.749 74.5647 103.754 74.3956C97.1112 74.1705 88.7932 75.7801 88.7932 75.7801C88.7932 75.7801 84.2989 76.6264 83.0746 78.9671C81.8503 81.3078 83.795 81.6298 84.5908 81.6823C86.0399 81.7781 88.8112 80.7866 90.5951 80.5542C92.9808 80.2433 96.0816 79.5526 98.4324 79.3731C100.897 79.1853 104.194 78.8305 108.105 79.2472C110.551 79.508 117.218 82.8648 117.218 82.8648V82.8644Z" fill="black"/>
<path d="M54.1885 100.287C63.974 100.287 71.9067 94.2238 71.9067 86.7445C71.9067 79.2652 63.974 73.2021 54.1885 73.2021C44.4029 73.2021 36.4702 79.2652 36.4702 86.7445C36.4702 94.2238 44.4029 100.287 54.1885 100.287Z" fill="url(#paint9_linear_1356_114360)"/>
<path d="M99.1518 100.286C108.937 100.286 116.87 94.2231 116.87 86.7439C116.87 79.2646 108.937 73.2014 99.1518 73.2014C89.3663 73.2014 81.4336 79.2646 81.4336 86.7439C81.4336 94.2231 89.3663 100.286 99.1518 100.286Z" fill="url(#paint10_linear_1356_114360)"/>
<path d="M99.1518 72.646C89.4081 72.646 81.4204 78.5638 80.9065 85.9823C80.0934 85.7309 78.6073 85.376 76.6705 85.3833C74.7337 85.376 73.2476 85.7309 72.4345 85.9823C71.9171 78.5638 63.9329 72.646 54.1892 72.646C44.283 72.646 35.918 79.1037 35.918 86.7439C35.918 94.5172 44.1129 100.842 54.1892 100.842C64.0916 100.842 72.172 94.7316 72.4453 87.1433C73.0737 86.9289 74.5705 86.489 76.6702 86.5001C78.7698 86.489 80.2667 86.9289 80.8913 87.1433C81.1686 94.732 89.2487 100.842 99.1511 100.842C109.227 100.842 117.422 94.5172 117.422 86.7439C117.422 79.1037 109.058 72.646 99.1511 72.646H99.1518ZM54.1896 99.7326C44.6863 99.7326 36.9572 93.9071 36.9572 86.7439C36.9572 79.7062 44.8489 73.7548 54.1896 73.7548C63.689 73.7548 71.4219 79.5841 71.4219 86.7439C71.4219 93.9037 63.689 99.7326 54.1896 99.7326ZM99.1518 99.7326C89.6523 99.7326 81.9195 93.9071 81.9195 86.7439C81.9195 79.5806 89.6523 73.7548 99.1518 73.7548C108.492 73.7548 116.384 79.7058 116.384 86.7439C116.384 93.9075 108.655 99.7326 99.1518 99.7326Z" fill="#D1D3D4"/>
<defs>
<radialGradient id="paint0_radial_1356_114360" cx="0" cy="0" r="1" gradientUnits="userSpaceOnUse" gradientTransform="translate(78.3066 64.7651) scale(142.957 142.957)">
<stop stop-color="#D09072"/>
<stop offset="1" stop-color="#805848"/>
</radialGradient>
<radialGradient id="paint1_radial_1356_114360" cx="0" cy="0" r="1" gradientUnits="userSpaceOnUse" gradientTransform="translate(74.9998 75.0205) scale(97.4449 97.4449)">
<stop stop-color="#231F20"/>
<stop offset="1" stop-color="#414042"/>
</radialGradient>
<radialGradient id="paint2_radial_1356_114360" cx="0" cy="0" r="1" gradientUnits="userSpaceOnUse" gradientTransform="translate(130.964 86.6922) rotate(-3.551) scale(12.5668 18.0962)">
<stop stop-color="#D09072"/>
<stop offset="1" stop-color="#805848"/>
</radialGradient>
<radialGradient id="paint3_radial_1356_114360" cx="0" cy="0" r="1" gradientUnits="userSpaceOnUse" gradientTransform="translate(22.3773 86.6914) rotate(-176.449) scale(12.5668 18.0962)">
<stop stop-color="#D09072"/>
<stop offset="1" stop-color="#805848"/>
</radialGradient>
<linearGradient id="paint4_linear_1356_114360" x1="76.6691" y1="88.719" x2="76.6691" y2="110.476" gradientUnits="userSpaceOnUse">
<stop stop-color="#D19878"/>
<stop offset="1" stop-color="#996955"/>
</linearGradient>
<radialGradient id="paint5_radial_1356_114360" cx="0" cy="0" r="1" gradientUnits="userSpaceOnUse" gradientTransform="translate(77.7533 108.424) scale(8.74197 9.54797)">
<stop stop-color="#D19878"/>
<stop offset="1" stop-color="#996955" stop-opacity="0.5"/>
</radialGradient>
<linearGradient id="paint6_linear_1356_114360" x1="97.2237" y1="129.012" x2="54.2481" y2="129.012" gradientUnits="userSpaceOnUse">
<stop stop-color="white"/>
<stop offset="1" stop-color="#D1D3D4"/>
</linearGradient>
<radialGradient id="paint7_radial_1356_114360" cx="0" cy="0" r="1" gradientUnits="userSpaceOnUse" gradientTransform="translate(27.7728 101.941) scale(6.66107 6.66107)">
<stop stop-color="#F1F2F2"/>
<stop offset="1" stop-color="#00AEEF"/>
</radialGradient>
<radialGradient id="paint8_radial_1356_114360" cx="0" cy="0" r="1" gradientUnits="userSpaceOnUse" gradientTransform="translate(128.233 101.636) rotate(-180) scale(5.7553 5.75529)">
<stop stop-color="#F1F2F2"/>
<stop offset="1" stop-color="#00AEEF"/>
</radialGradient>
<linearGradient id="paint9_linear_1356_114360" x1="44.3027" y1="109.168" x2="56.1632" y2="82.2647" gradientUnits="userSpaceOnUse">
<stop stop-color="#FCFCFC" stop-opacity="0.3"/>
<stop offset="1" stop-color="#F1F2F2" stop-opacity="0.1"/>
</linearGradient>
<linearGradient id="paint10_linear_1356_114360" x1="89.2664" y1="109.167" x2="101.127" y2="82.2641" gradientUnits="userSpaceOnUse">
<stop stop-color="#FCFCFC" stop-opacity="0.3"/>
<stop offset="1" stop-color="#F1F2F2" stop-opacity="0.1"/>
</linearGradient>
</defs>
</svg>
