<svg width="150" height="158" viewBox="0 0 150 158" fill="none" xmlns="http://www.w3.org/2000/svg">
<path fill-rule="evenodd" clip-rule="evenodd" d="M120.861 124.955C114.878 134.469 103.195 147.245 97.2223 151.904C92.74 155.402 84.187 157.493 76.6717 157.5C69.1563 157.493 60.6033 155.402 56.1245 151.904C50.1516 147.245 38.4687 134.469 32.482 124.955C25.06 113.15 25.7379 106.743 25.7379 87.8825C25.7379 49.8424 46.0118 29.5292 76.6717 29.5292C107.332 29.5292 127.605 43.1996 127.605 87.8825C127.605 106.743 128.287 113.15 120.861 124.955Z" fill="url(#paint0_radial_1356_114383)"/>
<path d="M25.8244 96.7233C25.942 99.1329 26.402 107.839 27.7854 115.716C25.9801 116.985 21.9647 117.345 21.9647 117.345C11.309 118.344 10.2887 109.302 10.2887 109.302C6.77829 109.177 5.66464 107.267 5.9102 103.331C6.07275 100.693 6.99618 98.6371 6.99618 98.6371C3.216 97.2503 3.79012 91.0513 8.40034 91.3391C3.6414 87.8721 6.83709 84.4016 6.83709 84.4016C6.5189 84.0306 2.25453 87.0989 0.501056 82.4254C-0.633343 79.3987 1.25847 78.7746 1.3484 77.3809C1.42103 76.3547 0.331588 74.8465 0.338505 73.6504C0.338505 72.1006 1.28614 71.1749 1.36915 70.1175C1.39336 69.8332 -1.11062 68.6891 0.584061 64.9378C1.82222 62.1954 5.50901 62.9755 6.31139 61.9735C6.98926 61.1276 4.41611 56.6274 5.55743 54.7795C6.40477 53.4031 10.1504 50.99 10.2437 50.4249C10.2956 50.1163 8.97792 47.0827 9.45865 44.3576C9.99127 41.3344 12.3223 39.9441 12.3777 39.587C12.4987 38.8035 10.7452 37.1913 12.5713 34.1612C14.0378 31.7308 19.2359 31.4118 19.4815 31.0894C19.8688 30.5867 19.8135 28.2291 20.8718 26.5511C22.653 23.722 25.2987 24.7136 26.7894 23.195C28.2074 21.7458 28.7434 18.2268 30.8393 16.476C32.6654 14.9539 34.7959 15.4532 36.0997 14.7737C37.8705 13.8549 38.0503 9.51074 42.1314 9.13631C45.1853 8.85548 45.5104 10.7727 46.8073 10.9773C47.1463 11.0293 47.5163 9.64249 48.1942 9.11897C48.7856 8.66826 49.3909 8.12394 51.2308 8.25915C51.7323 8.29729 52.2615 8.51224 52.6972 8.75493C53.9146 4.73667 57.47 1.82785 61.6721 1.82785C64.4459 1.82785 66.9395 3.09678 68.6584 5.11111C69.7616 4.62573 70.9756 4.35877 72.2483 4.35877C73.521 4.35877 74.6866 4.61533 75.776 5.08684C77.4949 3.08638 79.9816 1.82785 82.7415 1.82785C84.0627 1.82785 85.3146 2.11561 86.456 2.6322C89.0326 -1.23698 96.8074 0.635201 98.675 4.49745C99.0831 5.3434 99.4981 6.50138 100.466 6.93476C101.248 7.28839 101.943 6.14081 104.188 6.30029C107.332 6.52218 108.819 6.86888 111.184 9.29925C112.613 10.7658 112.789 12.3468 113.422 15.6681C113.692 17.0758 120.491 14.2293 123.462 18.3169C124.047 19.1213 124.365 20.8652 124.738 21.1911C125.119 21.5239 126.361 21.0559 127.18 21.3887C133.139 23.8018 133.561 27.9691 132.147 34.5564C138.981 34.3692 144.251 40.1868 142.422 48.05C147.603 49.0589 147.672 55.9132 144.079 57.8547C148.042 59.505 151.954 63.1558 148.879 68.3077C147.551 70.537 142.512 69.4345 145.012 72.9986C146.462 75.0649 146.181 78.7469 143.518 79.6275C142.007 80.1268 141.658 81.1114 141.658 81.1114C141.571 83.2124 145.559 84.1866 145.175 87.2029C144.656 91.2697 142.197 89.6749 141.896 91.3772C141.626 92.8784 143.574 92.3237 143.542 94.5981C143.515 96.6679 141.765 96.5465 142.581 98.1483C143.093 99.1502 142.702 100.731 142.702 100.731C143.159 102.329 143.297 103.824 142.335 105.273C141.903 105.921 140.257 107.568 140.257 107.568C141.277 114.298 137.618 118.985 132.856 116.215C133.772 126.734 124.974 116.714 124.974 116.714C124.974 116.714 127.128 109.281 128.705 89.5015C128.941 86.565 124.365 56.6309 120.059 54.8245C117.773 53.8642 115.764 64.6604 113.007 64.3207C110.545 64.019 111.828 58.1563 110.572 56.9255C109.033 55.4174 107.761 61.1657 107.639 62.8299C107.47 65.1666 107.965 70.9219 103.175 70.9219C98.9931 70.9219 98.5885 66.2206 97.9625 62.081C97.5475 59.3178 93.3384 57.6224 94.1996 53.6215C93.0929 53.6319 93.3834 55.8681 92.6191 56.8735C89.7243 60.7011 82.6689 50.9207 83.0286 44.2086C80.9292 50.0435 75.399 47.8593 74.9875 44.8188C74.5794 41.7574 73.8911 42.378 71.6534 41.4835C73.649 45.3041 69.3812 46.8747 65.4973 46.365C66.7492 50.4665 66.3792 53.2887 63.4706 54.0895C62.8376 54.2629 61.5926 54.2698 60.6899 53.8156C59.5417 53.2366 58.594 52.7894 57.9473 51.5898C56.4809 48.8613 56.2491 47.627 57.0584 44.3403L55.1528 42.9327C54.5752 47.8836 52.2857 48.7295 52.1992 50.0955C52.0712 52.0475 53.8489 53.6319 52.7975 57.5739C52.2027 59.8136 49.9892 60.7323 49.9477 61.0305C49.8958 61.4119 49.3355 66.3939 44.414 68.3216C42.3216 69.1433 38.1368 65.1146 36.9021 63.18C36.1378 61.977 33.9796 58.0974 32.9386 58.1494C29.2657 58.3297 27.3047 71.2478 27.3047 71.2478C27.3047 71.2478 24.9598 79.0173 25.8141 96.7233H25.8244Z" fill="url(#paint1_radial_1356_114383)"/>
<path d="M130.151 71.0709C128.584 70.8144 127.215 70.8179 126.028 71.2443C126.499 75.0892 126.945 78.8336 127.107 82.8934C127.453 91.6095 127.346 97.9125 126.983 104.417C130.528 102.153 133.966 97.6144 135.114 90.6041C136.688 80.9658 135.148 71.8892 130.154 71.0709H130.151Z" fill="url(#paint2_radial_1356_114383)"/>
<path d="M23.189 71.0709C24.7557 70.8144 26.1253 70.8179 27.3116 71.2443C26.8412 75.0892 26.3951 78.8336 26.2325 82.8934C25.8867 91.6095 25.9939 97.9125 26.357 104.417C22.812 102.153 19.3742 97.6144 18.226 90.6041C16.6524 80.9658 18.1914 71.8892 23.1856 71.0709H23.189Z" fill="url(#paint3_radial_1356_114383)"/>
<path d="M85.5494 113.545C82.0494 114.315 80.3962 116.045 76.6714 116.045C72.9465 116.045 71.2899 114.315 67.7933 113.545C62.6505 112.418 62.1974 106.844 67.3264 104.288C70.7296 102.59 70.1347 102.707 70.6639 98.228C71.0409 95.0453 71.1135 94.872 71.653 90.7427C71.8432 89.2901 72.739 87.9206 74.2953 87.1371C74.9698 86.8008 75.7618 86.565 76.6714 86.565C77.5809 86.565 78.373 86.8008 79.0474 87.1371C80.6002 87.9206 81.496 89.2901 81.6862 90.7427C82.2292 94.872 82.3018 95.0453 82.6754 98.228C83.208 102.707 82.6097 102.59 86.0163 104.288C91.1419 106.844 90.6922 112.418 85.5494 113.545Z" fill="url(#paint4_linear_1356_114383)"/>
<path d="M76.6716 116.048C80.8642 116.048 84.263 113.445 84.263 110.234C84.263 107.023 80.8642 104.42 76.6716 104.42C72.4789 104.42 69.0801 107.023 69.0801 110.234C69.0801 113.445 72.4789 116.048 76.6716 116.048Z" fill="url(#paint5_radial_1356_114383)"/>
<path d="M26.1705 100.353C26.1705 100.353 26.1497 100.353 26.1359 100.353C23.8948 100.353 22.1689 102.177 22.1689 104.424C22.1689 106.67 23.9881 108.494 26.2293 108.494C26.4091 108.494 26.582 108.48 26.755 108.456C26.5855 106.476 26.2673 103.363 26.1705 100.357V100.353Z" fill="url(#paint6_radial_1356_114383)"/>
<path d="M127.174 100.353C127.174 100.353 127.194 100.353 127.208 100.353C129.449 100.353 131.186 102.177 131.186 104.424C131.186 106.67 129.366 108.494 127.125 108.494C126.945 108.494 126.773 108.48 126.6 108.456C126.769 106.476 127.077 103.363 127.174 100.353Z" fill="url(#paint7_radial_1356_114383)"/>
<path d="M56.5776 92.2231C59.2212 92.2231 61.3642 90.0749 61.3642 87.4248C61.3642 84.7748 59.2212 82.6265 56.5776 82.6265C53.9341 82.6265 51.791 84.7748 51.791 87.4248C51.791 90.0749 53.9341 92.2231 56.5776 92.2231Z" fill="#231F20"/>
<path d="M96.562 92.2231C99.2056 92.2231 101.349 90.0749 101.349 87.4248C101.349 84.7748 99.2056 82.6265 96.562 82.6265C93.9184 82.6265 91.7754 84.7748 91.7754 87.4248C91.7754 90.0749 93.9184 92.2231 96.562 92.2231Z" fill="#231F20"/>
<path d="M35.8057 81.8568C35.8057 81.8568 39.7934 78.2546 41.8685 77.4364C44.0681 76.5696 45.825 75.4948 50.7431 76.3755C57.2866 77.5473 65.0821 80.8687 65.0821 80.8687C65.0821 80.8687 69.3016 82.6403 70.0071 85.1921C70.7161 87.7438 68.7447 87.6502 67.9562 87.5358C66.5209 87.3243 64.0169 85.7711 62.3222 85.1713C60.0534 84.3669 57.1656 83.0391 54.9037 82.3699C52.5346 81.6696 49.3839 80.6295 45.4723 80.2169C43.0236 79.9603 35.8057 81.8533 35.8057 81.8533V81.8568Z" fill="black"/>
<path d="M119.326 81.3264C119.326 81.3264 115.339 77.7241 113.263 76.9059C111.064 76.0392 109.307 74.9644 104.389 75.845C97.8453 77.0169 90.0498 80.3383 90.0498 80.3383C90.0498 80.3383 85.8304 82.1099 85.1248 84.6616C84.4158 87.2133 86.3872 87.1197 87.1757 87.0053C88.611 86.7938 91.115 85.2406 92.8097 84.6408C95.0785 83.8365 97.9663 82.5086 100.228 81.8395C102.597 81.1391 105.748 80.099 109.66 79.6865C112.108 79.4299 119.326 81.3229 119.326 81.3229V81.3264Z" fill="black"/>
<path d="M54.1878 101.033C63.9732 101.033 71.9059 94.9543 71.9059 87.456C71.9059 79.9578 63.9732 73.8792 54.1878 73.8792C44.4024 73.8792 36.4697 79.9578 36.4697 87.456C36.4697 94.9543 44.4024 101.033 54.1878 101.033Z" fill="url(#paint8_linear_1356_114383)"/>
<path d="M99.1526 101.033C108.938 101.033 116.871 94.9543 116.871 87.456C116.871 79.9578 108.938 73.8792 99.1526 73.8792C89.3672 73.8792 81.4346 79.9578 81.4346 87.456C81.4346 94.9543 89.3672 101.033 99.1526 101.033Z" fill="url(#paint9_linear_1356_114383)"/>
<path d="M99.1523 73.3245C89.4096 73.3245 81.4204 79.2565 80.9085 86.6932C80.0958 86.4402 78.6086 86.0865 76.6718 86.0935C74.735 86.0865 73.2479 86.4402 72.4351 86.6932C71.9163 79.2565 63.934 73.3245 54.1913 73.3245C44.4487 73.3245 35.9199 79.7974 35.9199 87.456C35.9199 95.1146 44.1132 101.588 54.1913 101.588C64.2695 101.588 72.1757 95.4613 72.4489 87.8547C73.0784 87.6397 74.5759 87.1994 76.6753 87.2098C78.7746 87.1994 80.2721 87.6397 80.8981 87.8547C81.1748 95.4613 89.2539 101.588 99.1592 101.588C109.064 101.588 117.431 95.2464 117.431 87.456C117.431 79.6656 109.064 73.3245 99.1592 73.3245H99.1523ZM54.1879 100.478C44.6838 100.478 36.954 94.6396 36.954 87.456C36.954 80.2723 44.8464 74.4339 54.1879 74.4339C63.5294 74.4339 71.4218 80.2758 71.4218 87.456C71.4218 94.6362 63.6885 100.478 54.1879 100.478ZM99.1523 100.478C89.6517 100.478 81.9184 94.6396 81.9184 87.456C81.9184 80.2723 89.6517 74.4339 99.1523 74.4339C108.653 74.4339 116.386 80.4006 116.386 87.456C116.386 94.5113 108.656 100.478 99.1523 100.478Z" fill="#D1D3D4"/>
<path d="M69.1982 76.0184C69.4092 76.1397 69.6167 76.2715 69.8138 76.4136C69.8657 76.4518 69.9176 76.4899 69.9694 76.528C70.0559 76.5905 69.8484 76.4275 69.9694 76.5315C70.0697 76.6147 70.17 76.6979 70.2669 76.7846C70.4536 76.951 70.6335 77.1278 70.803 77.3151C70.886 77.4052 70.9655 77.4953 71.0416 77.589C71.0831 77.641 71.1246 77.693 71.1696 77.7415C71.3114 77.9148 71.0623 77.5959 71.1972 77.7762C71.505 78.1922 71.7783 78.6291 72.01 79.0902C72.0653 79.2011 72.1207 79.3155 72.1691 79.4265C72.1933 79.4785 72.2175 79.5305 72.2382 79.5825C72.1622 79.3883 72.2382 79.5825 72.2555 79.6276C72.3558 79.8841 72.4423 80.1441 72.5184 80.4076C72.6429 80.8445 73.134 81.16 73.5836 81.0144C74.0332 80.8687 74.3237 80.4146 74.1889 79.9465C73.5456 77.7172 72.0964 75.6856 70.0732 74.5207C69.6824 74.2953 69.1083 74.4166 68.8904 74.8327C68.6725 75.2487 68.7832 75.7757 69.2017 76.0184H69.1982Z" fill="#414042"/>
<path d="M83.291 74.5206C81.2678 75.6855 79.8187 77.7172 79.1754 79.9465C79.0509 80.3833 79.3276 80.9103 79.7806 81.0143C80.2337 81.1183 80.711 80.8756 80.8459 80.4076C80.9185 80.1545 81.0015 79.9049 81.0949 79.6587C81.1053 79.6344 81.1848 79.4264 81.1398 79.5408C81.0949 79.6552 81.1675 79.4784 81.1779 79.4576C81.2332 79.3328 81.292 79.2114 81.3508 79.0901C81.5825 78.629 81.8558 78.1921 82.1636 77.7761C82.2708 77.6305 82.0667 77.894 82.1912 77.7414C82.2258 77.6998 82.2604 77.6548 82.295 77.6132C82.3711 77.5195 82.4506 77.4294 82.5336 77.3393C82.71 77.1451 82.8968 76.9614 83.0904 76.7845C83.1804 76.7048 83.2703 76.6285 83.3602 76.5523C83.4398 76.4898 83.4467 76.4794 83.3602 76.5488C83.4086 76.5072 83.464 76.4725 83.5158 76.4344C83.7234 76.2853 83.9378 76.1466 84.1591 76.0183C84.5499 75.793 84.7194 75.2244 84.4704 74.8326C84.2214 74.4408 83.7061 74.2814 83.2876 74.5206H83.291Z" fill="#414042"/>
<path d="M51.8218 126.446C51.8218 126.446 57.2967 121.516 67.8936 120.902C78.494 120.289 71.283 123.343 76.9965 124.321C82.71 125.298 81.1294 123.336 86.7461 124.421C92.3627 125.506 98.308 129.157 98.308 129.157C98.308 129.157 86.4417 131.893 73.8458 130.575C61.2498 129.258 60.4509 128.852 60.4509 128.852L51.8184 126.446H51.8218Z" fill="url(#paint10_linear_1356_114383)"/>
<path d="M51.8223 126.446C57.8954 131.657 66.5418 133.609 75.8106 134.389C83.3537 135.023 96.7209 133.359 98.3153 129.161C96.1918 129.071 87.5558 129.476 80.2583 129.556C77.7474 129.584 75.3956 129.573 73.5211 129.49C66.1925 129.168 61.7552 128.131 51.8292 126.446" fill="#D97C80"/>
<path d="M98.3114 129.157C98.3806 128.089 90.2254 122.743 83.8859 122.206C80.953 121.956 77.204 122.854 77.204 122.854C77.204 122.854 75.2257 120.285 72.0473 119.488C59.7764 116.423 52.3337 125.427 51.8184 126.446C51.8184 126.446 64.0789 120.393 71.0132 122.476C72.4416 122.906 74.0636 124.085 75.1635 124.99C76.0246 125.697 77.1383 126.13 78.3349 126.196C81.5375 126.377 83.6611 123.932 98.3114 129.157Z" fill="#EA979F"/>
<defs>
<radialGradient id="paint0_radial_1356_114383" cx="0" cy="0" r="1" gradientUnits="userSpaceOnUse" gradientTransform="translate(78.3075 65.4232) scale(142.958 143.309)">
<stop stop-color="#D09072"/>
<stop offset="1" stop-color="#805848"/>
</radialGradient>
<radialGradient id="paint1_radial_1356_114383" cx="0" cy="0" r="1" gradientUnits="userSpaceOnUse" gradientTransform="translate(75.0013 75.7063) scale(97.4441 97.683)">
<stop stop-color="#231F20"/>
<stop offset="1" stop-color="#414042"/>
</radialGradient>
<radialGradient id="paint2_radial_1356_114383" cx="0" cy="0" r="1" gradientUnits="userSpaceOnUse" gradientTransform="translate(130.963 87.3996) rotate(-3.55868) scale(12.5684 18.1425)">
<stop stop-color="#D09072"/>
<stop offset="1" stop-color="#805848"/>
</radialGradient>
<radialGradient id="paint3_radial_1356_114383" cx="0" cy="0" r="1" gradientUnits="userSpaceOnUse" gradientTransform="translate(22.3801 87.3982) rotate(-176.441) scale(12.5684 18.1425)">
<stop stop-color="#D09072"/>
<stop offset="1" stop-color="#805848"/>
</radialGradient>
<linearGradient id="paint4_linear_1356_114383" x1="76.6679" y1="89.4357" x2="76.6679" y2="111.247" gradientUnits="userSpaceOnUse">
<stop stop-color="#D19878"/>
<stop offset="1" stop-color="#996955"/>
</linearGradient>
<radialGradient id="paint5_radial_1356_114383" cx="0" cy="0" r="1" gradientUnits="userSpaceOnUse" gradientTransform="translate(78.2836 108.758) scale(8.78398 9.53067)">
<stop stop-color="#D19878"/>
<stop offset="1" stop-color="#996955" stop-opacity="0.5"/>
</radialGradient>
<radialGradient id="paint6_radial_1356_114383" cx="0" cy="0" r="1" gradientUnits="userSpaceOnUse" gradientTransform="translate(27.7718 102.69) scale(6.66113 6.67745)">
<stop stop-color="#F1F2F2"/>
<stop offset="1" stop-color="#00AEEF"/>
</radialGradient>
<radialGradient id="paint7_radial_1356_114383" cx="0" cy="0" r="1" gradientUnits="userSpaceOnUse" gradientTransform="translate(128.232 102.385) rotate(180) scale(5.755 5.7691)">
<stop stop-color="#F1F2F2"/>
<stop offset="1" stop-color="#00AEEF"/>
</radialGradient>
<linearGradient id="paint8_linear_1356_114383" x1="44.3033" y1="109.936" x2="56.2113" y2="82.9878" gradientUnits="userSpaceOnUse">
<stop stop-color="#FCFCFC" stop-opacity="0.3"/>
<stop offset="1" stop-color="#F1F2F2" stop-opacity="0.1"/>
</linearGradient>
<linearGradient id="paint9_linear_1356_114383" x1="89.2681" y1="109.936" x2="101.176" y2="82.9878" gradientUnits="userSpaceOnUse">
<stop stop-color="#FCFCFC" stop-opacity="0.3"/>
<stop offset="1" stop-color="#F1F2F2" stop-opacity="0.1"/>
</linearGradient>
<linearGradient id="paint10_linear_1356_114383" x1="95.3945" y1="127.317" x2="52.7769" y2="124.353" gradientUnits="userSpaceOnUse">
<stop stop-color="white"/>
<stop offset="1" stop-color="#D1D3D4"/>
</linearGradient>
</defs>
</svg>
