<svg width="120" height="150" viewBox="0 0 120 150" fill="none" xmlns="http://www.w3.org/2000/svg">
<path d="M116.614 95.0077C113.808 113.536 101.012 150 60.0003 150C18.9891 150 6.19259 113.536 3.38588 95.0077C1.20689 80.6331 -4.19369 59.9035 6.01582 30.2836C14.6311 5.2776 43.8743 0 60 0C76.1256 0 105.369 5.2776 113.984 30.2836C124.194 59.9035 118.793 80.6331 116.614 95.0077H116.614Z" fill="url(#paint0_linear_1356_114407)"/>
<path d="M80.4195 139.321C74.3988 145.628 67.2626 147.13 60.0005 147.13C52.7384 147.13 45.599 145.628 39.5782 139.321C31.1761 130.521 14.6508 116.84 14.6508 70.1388C13.3488 32.3033 32.3858 24.4359 60.0005 24.4359C87.6152 24.4359 106.649 32.3033 105.347 70.1388C105.347 116.84 88.8249 130.521 80.4192 139.321H80.4195Z" fill="url(#paint1_radial_1356_114407)"/>
<path d="M104.626 88.0689C104.742 87.2092 104.423 85.1272 104.05 82.755C100.537 60.4548 99.4625 52.2392 85.9098 39.6092C78.3985 32.6051 68.9386 30.5013 60.0004 30.5013C51.0622 30.5013 41.6027 32.6051 34.091 39.6092C20.5351 52.2392 19.464 60.4548 15.9505 82.755C15.5779 85.1272 15.2561 87.2092 15.3744 88.0689C13.2704 72.6387 13.6193 60.7741 16.1197 48.7825C20.6801 26.8777 38.7527 14.3529 60 14.3529C81.2474 14.3529 99.32 26.8777 103.88 48.7825C106.378 60.7741 106.73 72.6387 104.626 88.0689H104.626Z" fill="#414042"/>
<path d="M39.3447 63.2108C33.978 62.843 29.234 65.056 24.0391 66.6687C23.7267 66.2591 26.0932 64.3338 26.4627 64.0357C35.0105 57.1298 41.5926 57.3326 52.024 59.7882C54.0731 60.2706 54.1528 61.596 53.7776 63.1684C53.5666 64.0538 53.0676 64.6632 52.2036 64.7386C51.3396 64.8141 50.792 64.6646 48.7522 64.4604C46.7125 64.2562 44.7113 63.5786 39.3447 63.2108Z" fill="#1B1B1B"/>
<path d="M42.7532 78.7661C45.5115 78.7661 47.7475 76.5179 47.7475 73.7446C47.7475 70.9713 45.5115 68.7231 42.7532 68.7231C39.9948 68.7231 37.7588 70.9713 37.7588 73.7446C37.7588 76.5179 39.9948 78.7661 42.7532 78.7661Z" fill="#231F20"/>
<path d="M77.2473 78.7661C80.0056 78.7661 82.2417 76.5179 82.2417 73.7446C82.2417 70.9713 80.0056 68.7231 77.2473 68.7231C74.489 68.7231 72.2529 70.9713 72.2529 73.7446C72.2529 76.5179 74.489 78.7661 77.2473 78.7661Z" fill="#231F20"/>
<path d="M80.6547 63.2108C86.0214 62.843 90.7654 65.056 95.9603 66.6687C96.2728 66.2591 93.9062 64.3338 93.5368 64.0357C84.9889 57.1298 78.4068 57.3326 67.9755 59.7882C65.9263 60.2706 65.8466 61.596 66.2218 63.1684C66.4328 64.0538 66.9318 64.6632 67.7958 64.7386C68.6584 64.8141 69.2074 64.6646 71.2472 64.4604C73.2869 64.2566 75.2877 63.5786 80.6544 63.2108H80.6547Z" fill="#1B1B1B"/>
<path d="M66.8976 102.712C64.1796 103.591 62.8939 104.379 59.9992 104.379C57.1044 104.379 55.8187 103.591 53.1007 102.712C49.1071 101.425 48.7535 96.2468 52.7403 93.3283C55.3832 91.3881 54.9853 90.3468 55.3356 85.2197C55.6008 81.3077 55.7847 79.3795 56.1011 74.6917C56.2133 73.0286 56.9446 71.4689 58.1557 70.5741C58.6762 70.1899 59.2953 69.9208 59.9995 69.9208C60.7037 69.9208 61.3228 70.1899 61.8466 70.5741C63.0541 71.4689 63.7857 73.029 63.8979 74.6917C64.2143 79.3795 64.4011 81.3077 64.6667 85.2197C65.0137 90.3471 64.6158 91.3885 67.262 93.3283C71.2451 96.2464 70.8948 101.425 66.898 102.712H66.8976Z" fill="url(#paint2_linear_1356_114407)"/>
<path d="M38.7324 113.567C38.7324 113.567 49.3907 114.564 59.9992 114.564C70.6077 114.564 81.2758 113.903 81.2758 113.903C81.2758 113.903 71.3285 122.991 60.0043 122.991C48.68 122.991 38.7328 113.567 38.7328 113.567L38.7324 113.567Z" fill="url(#paint3_linear_1356_114407)"/>
<path d="M81.6715 113.902C81.6715 113.902 75.0966 125.418 59.997 125.418C44.8974 125.418 38.3262 113.539 38.3262 113.539C38.3262 113.539 38.4236 113.401 38.8096 113.604C41.7934 114.921 47.3304 121.671 59.997 121.592C72.6637 121.671 78.2046 115.284 81.1845 113.967C81.5705 113.764 81.6715 113.902 81.6715 113.902Z" fill="#971C1F"/>
<path d="M81.6715 113.902C81.6715 113.902 68.4496 116.735 59.997 116.84C51.548 116.735 38.3262 113.539 38.3262 113.539C40.0578 111.842 48.3409 110.942 56.4977 111.776C58.655 111.994 59.997 112.741 59.997 112.741C59.997 112.741 61.3427 111.994 63.5 111.776C71.6568 110.942 79.9362 112.204 81.6715 113.902Z" fill="#7F1717"/>
<defs>
<linearGradient id="paint0_linear_1356_114407" x1="92.2184" y1="6.83259" x2="23.7046" y2="138.53" gradientUnits="userSpaceOnUse">
<stop stop-color="#1C75BC"/>
<stop offset="1" stop-color="#2E3192"/>
</linearGradient>
<radialGradient id="paint1_radial_1356_114407" cx="0" cy="0" r="1" gradientUnits="userSpaceOnUse" gradientTransform="translate(60.9912 20.587) scale(161.916 174.113)">
<stop stop-color="#D29571"/>
<stop offset="1" stop-color="#C19776"/>
</radialGradient>
<linearGradient id="paint2_linear_1356_114407" x1="59.9999" y1="68.4046" x2="59.9999" y2="151.492" gradientUnits="userSpaceOnUse">
<stop stop-color="#D19878"/>
<stop offset="0.886" stop-color="#996955"/>
</linearGradient>
<linearGradient id="paint3_linear_1356_114407" x1="78.0711" y1="118.279" x2="40.2743" y2="118.279" gradientUnits="userSpaceOnUse">
<stop stop-color="white"/>
<stop offset="1" stop-color="#D1D3D4"/>
</linearGradient>
</defs>
</svg>
