<svg width="294" height="178" viewBox="0 0 294 178" fill="none" xmlns="http://www.w3.org/2000/svg">
<path fill-rule="evenodd" clip-rule="evenodd" d="M82.0585 112.417C78.9197 117.265 72.791 123.775 69.6577 126.149C67.3064 127.931 62.8196 128.997 58.8771 129C54.9347 128.997 50.4479 127.931 48.0984 126.149C44.9651 123.775 38.8363 117.265 35.6958 112.417C31.8023 106.402 32.1579 103.137 32.1579 93.5267C32.1579 74.1435 42.7933 63.793 58.8771 63.793C74.9609 63.793 85.5964 70.7589 85.5964 93.5267C85.5964 103.137 85.9538 106.402 82.0585 112.417Z" fill="url(#paint0_radial_913_26633)"/>
<path d="M32.2022 98.0296C32.2633 99.2572 32.5045 103.693 33.2316 107.707C32.2851 108.353 30.1789 108.537 30.1789 108.537C24.5883 109.046 24.0545 104.439 24.0545 104.439C22.2134 104.375 21.6288 103.402 21.7578 101.396C21.8438 100.052 22.3268 99.0044 22.3268 99.0044C20.3446 98.2978 20.6455 95.1391 23.0643 95.2857C20.5682 93.5191 22.2442 91.7507 22.2442 91.7507C22.0775 91.5617 19.8408 93.1252 18.9211 90.7438C18.3264 89.2015 19.3183 88.8835 19.3664 88.1734C19.4043 87.6504 18.8335 86.882 18.837 86.2725C18.8388 85.4828 19.3339 85.0111 19.3767 84.4723C19.3887 84.3275 18.0753 83.7445 18.9641 81.833C19.6138 80.4356 21.5479 80.8331 21.9692 80.3226C22.325 79.8915 20.9755 77.5984 21.5736 76.6568C22.0189 75.9555 23.9821 74.7259 24.032 74.438C24.0596 74.2808 23.3685 72.735 23.6195 71.3464C23.898 69.8059 25.1219 69.0975 25.1513 68.9156C25.2148 68.5163 24.2951 67.6948 25.2527 66.1508C26.021 64.9124 28.7494 64.7499 28.8782 64.5856C29.081 64.3295 29.0518 63.1282 29.6072 62.2731C30.5425 60.8316 31.9297 61.3368 32.7118 60.5631C33.4562 59.8246 33.7364 58.0315 34.8367 57.1394C35.7943 56.3638 36.9118 56.6182 37.5959 56.272C38.5243 55.8038 38.6188 53.5903 40.7608 53.3995C42.363 53.2564 42.5332 54.2333 43.2139 54.3375C43.391 54.364 43.5851 53.6574 43.9411 53.3906C44.2504 53.161 44.5685 52.8836 45.5348 52.9525C45.7978 52.9719 46.0745 53.0815 46.3049 53.2051C46.9427 51.1576 48.808 49.6755 51.0136 49.6755C52.4681 49.6755 53.7762 50.322 54.6789 51.3484C55.2582 51.1011 55.8943 50.9651 56.5614 50.9651C57.2163 50.9651 57.8405 51.0958 58.4129 51.3361C59.3155 50.3166 60.6185 49.6755 62.0678 49.6755C62.7605 49.6755 63.4173 49.8221 64.0156 50.0853C65.3669 48.1138 69.4464 49.0677 70.4263 51.0357C70.6411 51.4668 70.8577 52.0568 71.3666 52.2777C71.7758 52.4579 72.1421 51.8731 73.3195 51.9544C74.9682 52.0674 75.7487 52.2441 76.9899 53.4825C77.7396 54.2298 77.8323 55.0353 78.1641 56.7277C78.3051 57.445 81.8722 55.9946 83.4316 58.0774C83.7375 58.4873 83.9044 59.3759 84.1003 59.542C84.2997 59.7115 84.9512 59.4731 85.381 59.6427C88.5063 60.8722 88.7282 62.9957 87.9873 66.3522C91.5716 66.2568 94.3377 69.2212 93.3785 73.2279C96.0968 73.7427 96.1322 77.2336 94.2466 78.2238C96.3251 79.0647 98.3776 80.925 96.7651 83.5501C96.0687 84.6861 93.4247 84.1252 94.7359 85.9411C95.4963 86.994 95.3483 88.8705 93.952 89.3197C93.1597 89.5746 92.9761 90.076 92.9761 90.076C92.9313 91.1466 95.0222 91.6421 94.8203 93.1801C94.5483 95.2529 93.258 94.4395 93.0998 95.3071C92.9588 96.072 93.9794 95.7897 93.9625 96.9476C93.9473 98.0029 93.029 97.9413 93.4579 98.7564C93.7266 99.2671 93.5209 100.073 93.5209 100.073C93.7598 100.888 93.8337 101.65 93.3284 102.387C93.1016 102.719 92.2385 103.557 92.2385 103.557C92.7732 106.986 90.8546 109.374 88.3568 107.963C88.8382 113.323 84.223 108.218 84.223 108.218C84.223 108.218 85.3535 104.43 86.1806 94.3512C86.3034 92.8554 83.9044 77.6023 81.6439 76.6814C80.444 76.1926 79.3904 81.6933 77.944 81.5203C76.6524 81.3659 77.3252 78.3796 76.6658 77.7528C75.8578 76.9846 75.1917 79.9138 75.1282 80.7605C75.039 81.9507 75.298 84.8845 72.7867 84.8845C70.5934 84.8845 70.3816 82.4882 70.0516 80.3789C69.8334 78.9709 67.6259 78.1071 68.078 76.0684C67.4969 76.0737 67.65 77.213 67.2494 77.7255C65.7314 79.6758 62.0291 74.6931 62.2175 71.2712C61.1171 74.2437 58.2148 73.1316 57.9998 71.5823C57.7849 70.0224 57.4254 70.338 56.2504 69.8835C57.2973 71.8303 55.059 72.6306 53.0202 72.3709C53.6768 74.4608 53.4827 75.8988 51.9578 76.3069C51.6261 76.3952 50.9728 76.3987 50.4982 76.1673C49.8965 75.8723 49.398 75.6444 49.0592 75.0332C48.2907 73.6428 48.1688 73.0139 48.5933 71.3392L47.5938 70.6211C47.2912 73.1443 46.0903 73.5739 46.0439 74.27C45.9767 75.2646 46.9086 76.0719 46.3585 78.0806C46.0455 79.2218 44.8851 79.6899 44.8628 79.8419C44.8354 80.0362 44.5413 82.5748 41.9592 83.557C40.8608 83.9757 38.6671 81.9229 38.0188 80.9372C37.6182 80.3241 36.4858 78.3477 35.9387 78.3738C34.0125 78.4662 32.9836 85.0482 32.9836 85.0482C32.9836 85.0482 31.7528 89.0075 32.2022 98.0294V98.0296Z" fill="url(#paint1_radial_913_26633)"/>
<path d="M86.9316 84.9596C86.1095 84.8283 85.3919 84.8313 84.7686 85.0486C85.0155 87.0081 85.2497 88.9164 85.3339 90.985C85.5148 95.4266 85.4585 98.6382 85.2682 101.953C87.1273 100.798 88.9315 98.4865 89.5327 94.9135C90.359 90.0032 89.5503 85.3776 86.9314 84.9596H86.9316Z" fill="url(#paint2_radial_913_26633)"/>
<path d="M30.8198 84.9596C31.6418 84.8283 32.3594 84.8313 32.9828 85.0486C32.7359 87.0081 32.5016 88.9164 32.4174 90.985C32.2366 95.4266 32.2928 98.6382 32.4831 101.953C30.624 100.798 28.8199 98.4865 28.2186 94.9135C27.3924 90.0032 28.2008 85.3776 30.8198 84.9596Z" fill="url(#paint3_radial_913_26633)"/>
<path d="M63.5321 106.603C61.6961 106.995 60.8288 107.876 58.8748 107.876C56.9208 107.876 56.0518 106.995 54.2175 106.603C51.5196 106.029 51.282 103.188 53.9726 101.886C55.7578 101.02 55.4458 101.08 55.7234 98.7979C55.9211 97.1761 55.9592 97.0878 56.2423 94.9837C56.3421 94.2435 56.812 93.5457 57.6284 93.1465C57.9822 92.9751 58.3977 92.855 58.8748 92.855C59.352 92.855 59.7675 92.9751 60.1212 93.1465C60.9359 93.5457 61.4058 94.2435 61.5056 94.9837C61.7904 97.0878 61.8285 97.1761 62.0244 98.7979C62.3039 101.08 61.99 101.02 63.7771 101.886C66.4659 103.188 66.23 106.029 63.5321 106.603Z" fill="url(#paint4_linear_913_26633)"/>
<path d="M58.8764 107.875C61.0755 107.875 62.8582 106.549 62.8582 104.913C62.8582 103.278 61.0755 101.952 58.8764 101.952C56.6773 101.952 54.8945 103.278 54.8945 104.913C54.8945 106.549 56.6773 107.875 58.8764 107.875Z" fill="url(#paint5_radial_913_26633)"/>
<path d="M46.1943 112.25C46.1943 112.25 52.5517 112.811 58.8794 112.811C65.2071 112.811 71.5703 112.44 71.5703 112.44C71.5703 112.44 65.6369 117.549 58.8823 117.549C52.1276 117.549 46.1943 112.25 46.1943 112.25Z" fill="url(#paint6_linear_913_26633)"/>
<path d="M71.8055 112.439C71.8055 112.439 67.8837 118.914 58.8774 118.914C49.871 118.914 45.9512 112.235 45.9512 112.235C45.9512 112.235 46.0092 112.158 46.2395 112.272C48.0191 113.012 51.3219 116.807 58.8774 116.762C66.4326 116.807 69.7376 113.216 71.5151 112.476C71.7453 112.362 71.8055 112.439 71.8055 112.439Z" fill="#D97C80"/>
<path d="M71.8055 112.439C71.8055 112.439 63.9189 114.031 58.8774 114.091C53.8378 114.032 45.9512 112.235 45.9512 112.235C46.9841 111.281 51.9248 110.775 56.79 111.244C58.0767 111.366 58.8774 111.786 58.8774 111.786C58.8774 111.786 59.68 111.366 60.9667 111.244C65.8319 110.775 70.7703 111.484 71.8055 112.439V112.439Z" fill="#EA979F"/>
<path d="M32.382 99.8803C32.376 99.8803 32.3704 99.8794 32.3644 99.8794C31.1882 99.8794 30.2832 100.808 30.2832 101.953C30.2832 103.099 31.2368 104.027 32.413 104.027C32.5068 104.027 32.5984 104.019 32.6891 104.008C32.6008 102.998 32.4339 101.412 32.3818 99.8801L32.382 99.8803Z" fill="url(#paint7_radial_913_26633)"/>
<path d="M85.3689 99.8803C85.3749 99.8803 85.3805 99.8794 85.3865 99.8794C86.5627 99.8794 87.4733 100.808 87.4733 101.954C87.4733 103.099 86.5197 104.028 85.3435 104.028C85.2497 104.028 85.1581 104.02 85.0674 104.008C85.1557 102.999 85.3172 101.413 85.3691 99.8803H85.3689Z" fill="url(#paint8_radial_913_26633)"/>
<path d="M48.335 95.7381C49.7221 95.7381 50.8467 94.6431 50.8467 93.2924C50.8467 91.9417 49.7221 90.8467 48.335 90.8467C46.9478 90.8467 45.8232 91.9417 45.8232 93.2924C45.8232 94.6431 46.9478 95.7381 48.335 95.7381Z" fill="#231F20"/>
<path d="M69.3105 95.7381C70.6977 95.7381 71.8223 94.6431 71.8223 93.2924C71.8223 91.9417 70.6977 90.8467 69.3105 90.8467C67.9234 90.8467 66.7988 91.9417 66.7988 93.2924C66.7988 94.6431 67.9234 95.7381 69.3105 95.7381Z" fill="#231F20"/>
<path d="M37.4971 91.3272C37.4971 91.3272 39.1486 89.1067 40.1229 88.4776C41.1567 87.81 41.9394 87.0877 44.5602 87.0013C48.0447 86.8863 52.4083 87.7084 52.4083 87.7084C52.4083 87.7084 54.766 88.1407 55.4082 89.3364C56.0505 90.532 55.0303 90.6965 54.6128 90.7233C53.8526 90.7723 52.3988 90.2658 51.463 90.1471C50.2115 89.9882 48.5848 89.6355 47.3516 89.5438C46.0589 89.4478 44.329 89.2666 42.2776 89.4795C40.9941 89.6127 37.4971 91.3273 37.4971 91.3273V91.3272Z" fill="black"/>
<path d="M80.1473 91.3272C80.1473 91.3272 78.4958 89.1067 77.5215 88.4776C76.4877 87.81 75.705 87.0877 73.0843 87.0013C69.5997 86.8863 65.2361 87.7084 65.2361 87.7084C65.2361 87.7084 62.8785 88.1407 62.2362 89.3364C61.5939 90.532 62.6141 90.6965 63.0316 90.7233C63.7918 90.7723 65.2456 90.2658 66.1814 90.1471C67.4329 89.9882 69.0596 89.6355 70.2928 89.5438C71.5855 89.4478 73.3154 89.2666 75.3668 89.4795C76.6503 89.6127 80.1473 91.3273 80.1473 91.3273V91.3272Z" fill="black"/>
<path d="M47.081 100.227C52.2144 100.227 56.3758 97.13 56.3758 93.3096C56.3758 89.4892 52.2144 86.3921 47.081 86.3921C41.9476 86.3921 37.7861 89.4892 37.7861 93.3096C37.7861 97.13 41.9476 100.227 47.081 100.227Z" fill="url(#paint9_linear_913_26633)"/>
<path d="M70.6699 100.227C75.8033 100.227 79.9647 97.13 79.9647 93.3096C79.9647 89.4892 75.8033 86.3921 70.6699 86.3921C65.5364 86.3921 61.375 89.4892 61.375 93.3096C61.375 97.13 65.5364 100.227 70.6699 100.227Z" fill="url(#paint10_linear_913_26633)"/>
<path d="M70.67 86.1074C65.5586 86.1074 61.3683 89.1303 61.0987 92.9196C60.6721 92.7912 59.8925 92.6099 58.8765 92.6137C57.8605 92.6099 57.0809 92.7912 56.6544 92.9196C56.3829 89.1303 52.1944 86.1074 47.083 86.1074C41.8863 86.1074 37.498 89.406 37.498 93.3086C37.498 97.2793 41.797 100.51 47.083 100.51C52.2777 100.51 56.5167 97.3888 56.66 93.5127C56.9896 93.4032 57.7749 93.1784 58.8763 93.1841C59.9778 93.1784 60.763 93.4032 61.0907 93.5127C61.2362 97.389 65.4749 100.51 70.6697 100.51C75.9556 100.51 80.2546 97.2793 80.2546 93.3086C80.2546 89.406 75.8665 86.1074 70.6697 86.1074H70.67ZM47.0832 99.9433C42.0978 99.9433 38.0432 96.9676 38.0432 93.3086C38.0432 89.7138 42.1831 86.6738 47.0832 86.6738C52.0665 86.6738 56.1231 89.6514 56.1231 93.3086C56.1231 96.9659 52.0665 99.9433 47.0832 99.9433ZM70.67 99.9433C65.6867 99.9433 61.6301 96.9676 61.6301 93.3086C61.6301 89.6496 65.6867 86.6738 70.67 86.6738C75.5701 86.6738 79.71 89.7136 79.71 93.3086C79.71 96.9678 75.6554 99.9433 70.67 99.9433Z" fill="#D1D3D4"/>
<g clip-path="url(#clip0_913_26633)">
<path d="M189.414 92.0696C190.526 87.0731 188.645 82.3859 185.212 81.6004C181.779 80.8149 178.094 84.2286 176.981 89.225C175.869 94.2215 177.75 98.9087 181.183 99.6943C184.616 100.48 188.301 97.0661 189.414 92.0696Z" fill="url(#paint11_radial_913_26633)"/>
<path d="M125.896 99.694C129.329 98.9085 131.211 94.2213 130.098 89.2248C128.986 84.2283 125.301 80.8147 121.868 81.6002C118.434 82.3857 116.553 87.0729 117.666 92.0694C118.778 97.0659 122.463 100.48 125.896 99.694Z" fill="url(#paint12_radial_913_26633)"/>
<path d="M185.112 88.6157C185.112 110.495 170.243 128.569 153.536 128.569C136.829 128.569 121.959 110.495 121.959 88.6157C121.959 66.7364 136.096 49 153.535 49C170.975 49 185.112 66.7366 185.112 88.6157Z" fill="url(#paint13_radial_913_26633)"/>
<path d="M185.112 88.6157C185.112 110.495 170.243 128.569 153.536 128.569C136.829 128.569 121.959 110.495 121.959 88.6157C121.959 66.7364 136.096 49 153.535 49C170.975 49 185.112 66.7366 185.112 88.6157Z" fill="url(#paint14_radial_913_26633)"/>
<path d="M144.132 89.2827C145.636 89.2827 146.855 88.0467 146.855 86.522C146.855 84.9973 145.636 83.7612 144.132 83.7612C142.628 83.7612 141.408 84.9973 141.408 86.522C141.408 88.0467 142.628 89.2827 144.132 89.2827Z" fill="#231F20"/>
<path d="M162.94 89.2827C164.444 89.2827 165.664 88.0467 165.664 86.522C165.664 84.9973 164.444 83.7612 162.94 83.7612C161.436 83.7612 160.217 84.9973 160.217 86.522C160.217 88.0467 161.436 89.2827 162.94 89.2827Z" fill="#231F20"/>
<path d="M137.599 80.6356C140.926 79.541 144.399 79.3967 147.792 80.2735C149.975 80.8376 150.906 77.4174 148.722 76.8529C144.75 75.8265 140.572 75.931 136.669 77.215C134.536 77.9168 135.448 81.3432 137.599 80.6356Z" fill="url(#paint15_linear_913_26633)"/>
<path d="M153.536 115.494C155.29 115.494 158.218 115.184 160.081 114.262C161.923 113.368 163.547 112.154 164.932 110.775C165.53 110.182 165.633 109.22 165.135 108.504C164.578 107.701 163.477 107.518 162.694 108.095C160.008 110.05 156.881 110.955 153.535 110.955C150.189 110.955 147.063 110.05 144.376 108.095C143.594 107.518 142.492 107.701 141.935 108.504C141.437 109.22 141.54 110.182 142.138 110.775C143.524 112.154 145.147 113.368 146.99 114.262C148.852 115.184 151.78 115.494 153.534 115.494" fill="url(#paint16_linear_913_26633)"/>
<path d="M169.472 80.6356C166.145 79.541 162.672 79.3967 159.279 80.2735C157.096 80.8376 156.164 77.4174 158.348 76.8529C162.32 75.8265 166.499 75.931 170.402 77.215C172.535 77.9168 171.623 81.3432 169.472 80.6356Z" fill="url(#paint17_linear_913_26633)"/>
<path d="M153.535 97.1519C145.617 97.1519 139.5 100.523 138.981 106.801C138.948 107.207 139.388 107.509 139.807 107.361L143.069 106.211C143.362 106.108 143.694 106.224 143.833 106.479L145.432 109.4C145.618 109.74 146.122 109.811 146.413 109.537L149.041 107.072C149.281 106.847 149.68 106.848 149.919 107.075L153.095 110.099C153.334 110.327 153.736 110.327 153.975 110.099L157.151 107.075C157.39 106.848 157.789 106.847 158.029 107.072L160.657 109.537C160.948 109.811 161.452 109.74 161.638 109.4L163.237 106.479C163.376 106.224 163.708 106.108 164.001 106.211L167.263 107.361C167.683 107.509 168.123 107.207 168.089 106.801C167.57 100.523 161.454 97.1519 153.535 97.1519Z" fill="url(#paint18_linear_913_26633)"/>
<path d="M158.585 100.509C156.596 100.952 155.655 101.947 153.536 101.947C151.417 101.947 150.476 100.952 148.486 100.509C145.563 99.8608 145.304 97.2524 148.222 95.7827C150.157 94.8056 149.866 94.2811 150.122 91.6987C150.316 89.7284 150.451 88.7572 150.682 86.3961C150.764 85.5586 151.3 84.7729 152.186 84.3222C152.567 84.1288 153.02 83.9932 153.536 83.9932C154.051 83.9932 154.504 84.1288 154.888 84.3222C155.771 84.7729 156.307 85.5586 156.389 86.3961C156.62 88.7572 156.757 89.7284 156.952 91.6987C157.206 94.2811 156.914 94.8056 158.852 95.7827C161.767 97.2524 161.511 99.8608 158.585 100.509H158.585Z" fill="url(#paint19_linear_913_26633)"/>
<path d="M127.975 82.6902C127.388 86.3914 127.492 90.1257 126.103 91.8321C124.715 93.5385 121.12 93.0294 120.529 89.999C120.163 88.1183 120.064 85.2954 120.211 83.015C120.436 79.5402 121.036 75.644 122.76 70.4306C124.305 65.7576 130.873 66.5575 130.087 70.9658C129.186 76.0129 128.8 77.482 127.975 82.6902Z" fill="url(#paint20_linear_913_26633)"/>
<path d="M179.093 82.6902C179.68 86.3914 179.576 90.1257 180.965 91.8321C182.353 93.5385 185.948 93.0294 186.539 89.999C186.905 88.1183 187.004 85.2954 186.857 83.015C186.632 79.5402 186.032 75.644 184.308 70.4306C182.763 65.7576 176.195 66.5575 176.981 70.9658C177.882 76.0129 178.268 77.482 179.093 82.6902Z" fill="url(#paint21_linear_913_26633)"/>
</g>
<g clip-path="url(#clip1_913_26633)">
<path d="M273.481 99.6042C271.936 109.473 264.889 128.895 242.303 128.895C219.717 128.895 212.67 109.473 211.124 99.6042C209.924 91.9477 206.95 80.9064 212.573 65.1297C217.317 51.8106 233.422 48.9995 242.303 48.9995C251.183 48.9995 267.288 51.8106 272.033 65.1297C277.655 80.9064 274.681 91.9477 273.481 99.6042H273.481Z" fill="url(#paint22_linear_913_26633)"/>
<path d="M253.549 123.207C250.233 126.566 246.303 127.366 242.303 127.366C238.304 127.366 234.372 126.566 231.057 123.207C226.429 118.52 217.329 111.232 217.329 86.3578C216.612 66.2051 227.096 62.0146 242.303 62.0146C257.511 62.0146 267.993 66.2051 267.276 86.3578C267.276 111.232 258.178 118.52 253.548 123.207H253.549Z" fill="url(#paint23_radial_913_26633)"/>
<path d="M266.879 95.9084C266.943 95.4505 266.767 94.3416 266.562 93.0781C264.627 81.2002 264.036 76.8242 256.572 70.097C252.435 66.3663 247.226 65.2458 242.303 65.2458C237.381 65.2458 232.171 66.3663 228.034 70.097C220.569 76.8242 219.979 81.2002 218.044 93.0781C217.839 94.3416 217.662 95.4505 217.727 95.9084C216.568 87.6897 216.76 81.3702 218.137 74.983C220.649 63.3157 230.602 56.6445 242.303 56.6445C254.004 56.6445 263.957 63.3157 266.469 74.983C267.844 81.3702 268.038 87.6897 266.879 95.9084H266.879Z" fill="#414042"/>
<path d="M230.928 82.6682C227.973 82.4723 225.36 83.651 222.499 84.5099C222.327 84.2918 223.63 83.2663 223.834 83.1075C228.541 79.4292 232.166 79.5372 237.911 80.8451C239.039 81.1021 239.083 81.808 238.877 82.6456C238.76 83.1172 238.486 83.4417 238.01 83.4819C237.534 83.5221 237.232 83.4425 236.109 83.3337C234.986 83.225 233.884 82.8641 230.928 82.6682Z" fill="#1B1B1B"/>
<path d="M232.804 90.9538C234.323 90.9538 235.555 89.7563 235.555 88.2791C235.555 86.802 234.323 85.6045 232.804 85.6045C231.285 85.6045 230.054 86.802 230.054 88.2791C230.054 89.7563 231.285 90.9538 232.804 90.9538Z" fill="#231F20"/>
<path d="M251.801 90.9538C253.32 90.9538 254.552 89.7563 254.552 88.2791C254.552 86.802 253.32 85.6045 251.801 85.6045C250.282 85.6045 249.051 86.802 249.051 88.2791C249.051 89.7563 250.282 90.9538 251.801 90.9538Z" fill="#231F20"/>
<path d="M253.679 82.6682C256.634 82.4723 259.247 83.651 262.108 84.5099C262.28 84.2918 260.976 83.2663 260.773 83.1075C256.065 79.4292 252.441 79.5372 246.696 80.8451C245.567 81.1021 245.523 81.808 245.73 82.6456C245.846 83.1172 246.121 83.4417 246.597 83.4819C247.072 83.5221 247.374 83.4425 248.498 83.3337C249.621 83.2252 250.723 82.8641 253.678 82.6682H253.679Z" fill="#1B1B1B"/>
<path d="M246.102 103.708C244.605 104.176 243.897 104.595 242.303 104.595C240.708 104.595 240 104.176 238.504 103.708C236.304 103.022 236.11 100.264 238.305 98.7094C239.761 97.676 239.541 97.1213 239.734 94.3905C239.88 92.3068 239.982 91.2798 240.156 88.7828C240.218 87.897 240.62 87.0663 241.287 86.5897C241.574 86.3851 241.915 86.2417 242.303 86.2417C242.691 86.2417 243.032 86.3851 243.32 86.5897C243.985 87.0663 244.388 87.8972 244.45 88.7828C244.624 91.2798 244.727 92.3068 244.873 94.3905C245.064 97.1215 244.845 97.6762 246.302 98.7094C248.496 100.264 248.303 103.022 246.102 103.708H246.102Z" fill="url(#paint24_linear_913_26633)"/>
<path d="M230.59 109.49C230.59 109.49 236.46 110.021 242.302 110.021C248.144 110.021 254.019 109.669 254.019 109.669C254.019 109.669 248.541 114.509 242.305 114.509C236.068 114.509 230.59 109.49 230.59 109.49L230.59 109.49Z" fill="url(#paint25_linear_913_26633)"/>
<path d="M254.238 109.668C254.238 109.668 250.617 115.802 242.302 115.802C233.986 115.802 230.367 109.475 230.367 109.475C230.367 109.475 230.421 109.401 230.633 109.509C232.277 110.211 235.326 113.806 242.302 113.764C249.277 113.806 252.329 110.404 253.97 109.703C254.183 109.594 254.238 109.668 254.238 109.668Z" fill="#971C1F"/>
<path d="M254.238 109.668C254.238 109.668 246.957 111.177 242.302 111.233C237.649 111.177 230.367 109.475 230.367 109.475C231.321 108.571 235.882 108.091 240.375 108.536C241.563 108.652 242.302 109.05 242.302 109.05C242.302 109.05 243.043 108.652 244.231 108.536C248.723 108.091 253.283 108.764 254.238 109.668Z" fill="#7F1717"/>
</g>
<defs>
<radialGradient id="paint0_radial_913_26633" cx="0" cy="0" r="1" gradientUnits="userSpaceOnUse" gradientTransform="translate(59.7353 82.0823) scale(74.994 73.0225)">
<stop stop-color="#D09072"/>
<stop offset="1" stop-color="#805848"/>
</radialGradient>
<radialGradient id="paint1_radial_913_26633" cx="0" cy="0" r="1" gradientUnits="userSpaceOnUse" gradientTransform="translate(57.9996 87.3206) scale(51.1189 49.775)">
<stop stop-color="#231F20"/>
<stop offset="1" stop-color="#414042"/>
</radialGradient>
<radialGradient id="paint2_radial_913_26633" cx="0" cy="0" r="1" gradientUnits="userSpaceOnUse" gradientTransform="translate(87.3582 93.2826) rotate(-3.45788) scale(6.59179 9.24449)">
<stop stop-color="#D09072"/>
<stop offset="1" stop-color="#805848"/>
</radialGradient>
<radialGradient id="paint3_radial_913_26633" cx="0" cy="0" r="1" gradientUnits="userSpaceOnUse" gradientTransform="translate(30.3933 93.2822) rotate(-176.542) scale(6.59179 9.24449)">
<stop stop-color="#D09072"/>
<stop offset="1" stop-color="#805848"/>
</radialGradient>
<linearGradient id="paint4_linear_913_26633" x1="58.8745" y1="94.3183" x2="58.8745" y2="105.432" gradientUnits="userSpaceOnUse">
<stop stop-color="#D19878"/>
<stop offset="1" stop-color="#996955"/>
</linearGradient>
<radialGradient id="paint5_radial_913_26633" cx="0" cy="0" r="1" gradientUnits="userSpaceOnUse" gradientTransform="translate(59.4447 104.383) scale(4.58597 4.87712)">
<stop stop-color="#D19878"/>
<stop offset="1" stop-color="#996955" stop-opacity="0.5"/>
</radialGradient>
<linearGradient id="paint6_linear_913_26633" x1="69.6589" y1="114.9" x2="47.1142" y2="114.9" gradientUnits="userSpaceOnUse">
<stop stop-color="white"/>
<stop offset="1" stop-color="#D1D3D4"/>
</linearGradient>
<radialGradient id="paint7_radial_913_26633" cx="0" cy="0" r="1" gradientUnits="userSpaceOnUse" gradientTransform="translate(33.2235 101.072) scale(3.49435 3.40249)">
<stop stop-color="#F1F2F2"/>
<stop offset="1" stop-color="#00AEEF"/>
</radialGradient>
<radialGradient id="paint8_radial_913_26633" cx="0" cy="0" r="1" gradientUnits="userSpaceOnUse" gradientTransform="translate(85.9259 100.916) rotate(180) scale(3.01918 2.93981)">
<stop stop-color="#F1F2F2"/>
<stop offset="1" stop-color="#00AEEF"/>
</radialGradient>
<linearGradient id="paint9_linear_913_26633" x1="41.895" y1="104.763" x2="47.8444" y2="90.9043" gradientUnits="userSpaceOnUse">
<stop stop-color="#FCFCFC" stop-opacity="0.3"/>
<stop offset="1" stop-color="#F1F2F2" stop-opacity="0.1"/>
</linearGradient>
<linearGradient id="paint10_linear_913_26633" x1="65.484" y1="104.763" x2="71.4332" y2="90.9043" gradientUnits="userSpaceOnUse">
<stop stop-color="#FCFCFC" stop-opacity="0.3"/>
<stop offset="1" stop-color="#F1F2F2" stop-opacity="0.1"/>
</linearGradient>
<radialGradient id="paint11_radial_913_26633" cx="0" cy="0" r="1" gradientUnits="userSpaceOnUse" gradientTransform="translate(185.852 78.8548) scale(22.8944 23.2082)">
<stop stop-color="#DEAD87"/>
<stop offset="1" stop-color="#FAB085"/>
</radialGradient>
<radialGradient id="paint12_radial_913_26633" cx="0" cy="0" r="1" gradientUnits="userSpaceOnUse" gradientTransform="translate(120.877 78.2108) scale(24.5199 24.856)">
<stop stop-color="#DEAD87"/>
<stop offset="1" stop-color="#FAB085"/>
</radialGradient>
<radialGradient id="paint13_radial_913_26633" cx="0" cy="0" r="1" gradientUnits="userSpaceOnUse" gradientTransform="translate(154.199 77.6555) scale(52.3539 53.0716)">
<stop offset="0.071" stop-color="#FCC397"/>
<stop offset="0.372" stop-color="#FCC397"/>
<stop offset="1" stop-color="#FAB085"/>
</radialGradient>
<radialGradient id="paint14_radial_913_26633" cx="0" cy="0" r="1" gradientUnits="userSpaceOnUse" gradientTransform="translate(156.813 70.43) scale(28.3961 28.7853)">
<stop stop-color="white" stop-opacity="0.9"/>
<stop offset="0.72" stop-color="white" stop-opacity="0"/>
</radialGradient>
<linearGradient id="paint15_linear_913_26633" x1="143.683" y1="75.4033" x2="139.402" y2="89.4598" gradientUnits="userSpaceOnUse">
<stop stop-color="#725341"/>
<stop offset="0.523" stop-color="#583B29"/>
<stop offset="1" stop-color="#462A19"/>
</linearGradient>
<linearGradient id="paint16_linear_913_26633" x1="162.332" y1="112.882" x2="138.069" y2="106.755" gradientUnits="userSpaceOnUse">
<stop stop-color="white"/>
<stop offset="1" stop-color="#D1D3D4"/>
</linearGradient>
<linearGradient id="paint17_linear_913_26633" x1="163.387" y1="75.4033" x2="167.669" y2="89.4598" gradientUnits="userSpaceOnUse">
<stop stop-color="#725341"/>
<stop offset="0.523" stop-color="#583B29"/>
<stop offset="1" stop-color="#462A19"/>
</linearGradient>
<linearGradient id="paint18_linear_913_26633" x1="155.899" y1="96.5554" x2="151.932" y2="112.993" gradientUnits="userSpaceOnUse">
<stop stop-color="#725341"/>
<stop offset="0.523" stop-color="#583B29"/>
<stop offset="1" stop-color="#462A19"/>
</linearGradient>
<linearGradient id="paint19_linear_913_26633" x1="152.664" y1="101.917" x2="156.947" y2="84.7549" gradientUnits="userSpaceOnUse">
<stop stop-color="#DEAD87"/>
<stop offset="1" stop-color="#FAB085"/>
</linearGradient>
<linearGradient id="paint20_linear_913_26633" x1="129.697" y1="80.0052" x2="119.85" y2="80.0922" gradientUnits="userSpaceOnUse">
<stop stop-color="#725341"/>
<stop offset="0.523" stop-color="#583B29"/>
<stop offset="1" stop-color="#462A19"/>
</linearGradient>
<linearGradient id="paint21_linear_913_26633" x1="177.371" y1="80.0052" x2="187.219" y2="80.0922" gradientUnits="userSpaceOnUse">
<stop stop-color="#725341"/>
<stop offset="0.523" stop-color="#583B29"/>
<stop offset="1" stop-color="#462A19"/>
</linearGradient>
<linearGradient id="paint22_linear_913_26633" x1="260.046" y1="52.6388" x2="224.259" y2="123.764" gradientUnits="userSpaceOnUse">
<stop stop-color="#1C75BC"/>
<stop offset="1" stop-color="#2E3192"/>
</linearGradient>
<radialGradient id="paint23_radial_913_26633" cx="0" cy="0" r="1" gradientUnits="userSpaceOnUse" gradientTransform="translate(242.849 59.9646) scale(89.1697 92.7393)">
<stop stop-color="#D29571"/>
<stop offset="1" stop-color="#C19776"/>
</radialGradient>
<linearGradient id="paint24_linear_913_26633" x1="242.303" y1="85.4341" x2="242.303" y2="129.69" gradientUnits="userSpaceOnUse">
<stop stop-color="#D19878"/>
<stop offset="0.886" stop-color="#996955"/>
</linearGradient>
<linearGradient id="paint25_linear_913_26633" x1="252.254" y1="112" x2="231.439" y2="112" gradientUnits="userSpaceOnUse">
<stop stop-color="white"/>
<stop offset="1" stop-color="#D1D3D4"/>
</linearGradient>
<clipPath id="clip0_913_26633">
<rect width="72" height="80" fill="white" transform="translate(117.345 49)"/>
</clipPath>
<clipPath id="clip1_913_26633">
<rect width="66" height="80" fill="white" transform="translate(209.345 49)"/>
</clipPath>
</defs>
</svg>
