<svg width="206" height="128" viewBox="0 0 206 128" fill="none" xmlns="http://www.w3.org/2000/svg">
<path d="M183.182 128C195.784 128 206 117.781 206 105.174C206 92.5683 195.784 82.349 183.182 82.349C170.58 82.349 160.364 92.5683 160.364 105.174C160.364 117.781 170.58 128 183.182 128Z" fill="url(#paint0_radial_1356_15870)"/>
<path d="M138.343 23.9181H80.4094C55.6454 23.9181 35.5703 43.9998 35.5703 68.7719C35.5703 93.544 55.6454 113.626 80.4094 113.626H138.343C163.107 113.626 183.182 93.544 183.182 68.7719C183.182 43.9998 163.107 23.9181 138.343 23.9181Z" fill="url(#paint1_radial_1356_15870)"/>
<path d="M149.206 39.002H102.082C87.2895 39.002 75.2979 50.9976 75.2979 65.7949C75.2979 80.5923 87.2895 92.5879 102.082 92.5879H149.206C163.998 92.5879 175.99 80.5923 175.99 65.7949C175.99 50.9976 163.998 39.002 149.206 39.002Z" fill="url(#paint2_radial_1356_15870)"/>
<path d="M95.705 65.4648L95.7397 65.193L95.5573 66.5501C95.6503 65.9172 95.7798 65.2915 95.9622 64.6768C96.057 64.3594 96.1391 63.9197 96.3196 63.6406L96.0169 64.3557C96.0916 64.1879 96.1682 64.0237 96.2503 63.8595C96.5366 63.2813 96.8812 62.7523 97.2241 62.2069C97.7346 61.3951 96.4053 63.1755 97.1748 62.2616C97.3809 62.0172 97.5942 61.78 97.8185 61.5502C98.01 61.355 98.2088 61.1653 98.4112 60.981C98.5479 60.8588 98.6847 60.7403 98.827 60.6235C98.1486 61.1343 98.0209 61.2346 98.4458 60.9208C98.9874 60.5487 99.5418 60.2021 100.133 59.9121C100.26 59.8483 100.388 59.7881 100.517 59.7315C100.877 59.571 100.689 59.6512 99.9521 59.9741C100.293 59.9376 100.692 59.7114 101.028 59.6166C101.666 59.4342 102.315 59.3101 102.974 59.2189L101.617 59.4013C102.753 59.27 103.882 59.27 105.018 59.4068L103.661 59.2244C104.272 59.3101 104.874 59.4269 105.468 59.591C105.787 59.6804 106.097 59.7935 106.413 59.8939C107.301 60.1766 105.346 59.3667 106.24 59.8172C106.739 60.069 107.228 60.3317 107.697 60.6381C107.925 60.7877 108.138 60.9792 108.373 61.1142C107.133 60.3991 107.945 60.7913 108.293 61.1106C108.738 61.5173 109.132 61.9588 109.529 62.4112C110.135 63.0952 108.878 61.428 109.4 62.2561C109.548 62.4896 109.708 62.714 109.852 62.9511C110.137 63.4217 110.326 63.9617 110.62 64.4177C109.881 63.2685 110.355 63.7756 110.509 64.2244C110.629 64.5728 110.729 64.9267 110.82 65.2842C111.49 67.8708 114.506 69.6913 117.101 68.8522C119.767 67.9894 121.384 65.3407 120.667 62.5699C119.066 56.3733 114.028 51.1599 107.77 49.6331C101.484 48.099 94.3337 49.945 90.0411 54.9322C88.8905 56.2693 87.8565 57.7067 87.1435 59.3247C86.2372 61.386 85.7704 63.2284 85.4932 65.463C85.3437 66.6687 86.1716 68.2575 86.9885 69.0748C87.8748 69.9613 89.3263 70.6271 90.5991 70.5706C91.872 70.514 93.2889 70.078 94.2097 69.0748C95.1872 68.0095 95.5282 66.8876 95.705 65.463V65.4648Z" fill="#00A79D"/>
<path d="M141.663 65.4118C141.806 64.8299 141.99 64.2754 142.19 63.7117C142.334 63.3433 142.252 63.5403 141.94 64.3009C142.015 64.1349 142.095 63.9708 142.178 63.8066C142.302 63.5622 142.433 63.3214 142.573 63.086C142.714 62.8507 142.86 62.6172 143.013 62.3911C143.317 61.9423 143.749 61.7581 142.867 62.5443C143.301 62.1576 143.649 61.6413 144.078 61.2382C144.278 61.0503 144.49 60.877 144.694 60.6946C144.995 60.4465 144.831 60.5724 144.2 61.0704C144.346 60.9609 144.495 60.8551 144.647 60.753C145.101 60.4465 145.575 60.1674 146.065 59.9248C146.193 59.861 146.321 59.8008 146.45 59.7424C146.809 59.5801 146.622 59.6603 145.885 59.9832C146.142 59.9576 146.436 59.7844 146.689 59.7077C147.324 59.5144 147.971 59.3794 148.626 59.2809L147.269 59.4633C148.498 59.3046 149.72 59.3046 150.951 59.4633L149.594 59.2809C150.25 59.3794 150.9 59.5126 151.536 59.7004C151.871 59.7989 152.309 59.8865 152.608 60.0707L151.912 59.7752C152.085 59.8518 152.254 59.9339 152.424 60.0178C152.995 60.3061 153.535 60.8022 154.113 61.0467C153.449 60.5213 153.323 60.4264 153.731 60.7584C153.837 60.846 153.941 60.9372 154.045 61.0302C154.286 61.2455 154.517 61.468 154.742 61.6997C154.933 61.8985 155.11 62.112 155.296 62.3144C155.63 62.723 155.535 62.5935 155.013 61.9295C155.123 62.0773 155.23 62.2269 155.334 62.3801C155.699 62.9164 155.991 63.4855 156.301 64.0528C156.784 64.9376 155.894 62.8927 156.226 63.8467C156.346 64.1951 156.476 64.5381 156.578 64.8938C156.757 65.514 156.881 66.1451 156.97 66.7854C157.132 67.9583 158.349 69.2717 159.317 69.8372C160.411 70.4775 162.025 70.7493 163.252 70.3516C164.479 69.9539 165.679 69.186 166.303 68.0039C166.99 66.7033 167.018 65.5103 166.817 64.0674C165.922 57.599 161.048 52.3309 155.061 50.1182C149.074 47.9055 141.851 49.5053 137.061 53.8304C134.51 56.1342 132.629 59.363 131.818 62.6975C131.187 65.2896 132.64 68.356 135.385 68.9798C138.129 69.6037 140.99 68.19 141.665 65.4118H141.663Z" fill="#00A79D"/>
<path opacity="0.04" d="M24.3063 90.109C36.9083 90.109 47.1242 79.8897 47.1242 67.2835C47.1242 54.6773 36.9083 44.458 24.3063 44.458C11.7042 44.458 1.48828 54.6773 1.48828 67.2835C1.48828 79.8897 11.7042 90.109 24.3063 90.109Z" fill="url(#paint3_radial_1356_15870)"/>
<path opacity="0.22" d="M22.818 74.2298C35.42 74.2298 45.6359 64.0105 45.6359 51.4043C45.6359 38.7982 35.42 28.5789 22.818 28.5789C10.216 28.5789 0 38.7982 0 51.4043C0 64.0105 10.216 74.2298 22.818 74.2298Z" fill="url(#paint4_radial_1356_15870)"/>
<path opacity="0.35" d="M26.399 57.4751C39.001 57.4751 49.217 47.2557 49.217 34.6496C49.217 22.0434 39.001 11.8241 26.399 11.8241C13.797 11.8241 3.58105 22.0434 3.58105 34.6496C3.58105 47.2557 13.797 57.4751 26.399 57.4751Z" fill="url(#paint5_radial_1356_15870)"/>
<path d="M34.0289 45.651C46.6309 45.651 56.8469 35.4316 56.8469 22.8255C56.8469 10.2193 46.6309 0 34.0289 0C21.4269 0 11.2109 10.2193 11.2109 22.8255C11.2109 35.4316 21.4269 45.651 34.0289 45.651Z" fill="url(#paint6_radial_1356_15870)"/>
<defs>
<radialGradient id="paint0_radial_1356_15870" cx="0" cy="0" r="1" gradientUnits="userSpaceOnUse" gradientTransform="translate(194.49 92.8706) scale(56.7778 56.7965)">
<stop offset="0.31" stop-color="#414042"/>
<stop offset="1"/>
</radialGradient>
<radialGradient id="paint1_radial_1356_15870" cx="0" cy="0" r="1" gradientUnits="userSpaceOnUse" gradientTransform="translate(124.374 46.9634) scale(140.549 142.863)">
<stop stop-color="#4F4F50"/>
<stop offset="0.69" stop-color="#1D1D1E"/>
</radialGradient>
<radialGradient id="paint2_radial_1356_15870" cx="0" cy="0" r="1" gradientUnits="userSpaceOnUse" gradientTransform="translate(134.991 53.1664) scale(150.14 129.474)">
<stop offset="0.31" stop-color="#2B3990"/>
<stop offset="1"/>
</radialGradient>
<radialGradient id="paint3_radial_1356_15870" cx="0" cy="0" r="1" gradientUnits="userSpaceOnUse" gradientTransform="translate(35.614 54.9778) scale(56.7778 56.7965)">
<stop offset="0.31" stop-color="#414042"/>
<stop offset="1"/>
</radialGradient>
<radialGradient id="paint4_radial_1356_15870" cx="0" cy="0" r="1" gradientUnits="userSpaceOnUse" gradientTransform="translate(34.1258 39.1005) scale(56.7778 56.7965)">
<stop offset="0.31" stop-color="#414042"/>
<stop offset="1"/>
</radialGradient>
<radialGradient id="paint5_radial_1356_15870" cx="0" cy="0" r="1" gradientUnits="userSpaceOnUse" gradientTransform="translate(37.7068 22.3439) scale(56.7778 56.7965)">
<stop offset="0.31" stop-color="#414042"/>
<stop offset="1"/>
</radialGradient>
<radialGradient id="paint6_radial_1356_15870" cx="0" cy="0" r="1" gradientUnits="userSpaceOnUse" gradientTransform="translate(45.3367 10.5198) scale(56.7778 56.7965)">
<stop offset="0.31" stop-color="#414042"/>
<stop offset="1"/>
</radialGradient>
</defs>
</svg>
