<svg width="138" height="161" viewBox="0 0 138 161" fill="none" xmlns="http://www.w3.org/2000/svg">
<g clip-path="url(#clip0_1356_114349)">
<path d="M41.9193 50.5216H96.0807C119.232 50.5216 138 69.1926 138 92.2244C138 115.256 119.232 133.927 96.0807 133.927H41.9193C18.7679 133.927 0 115.256 0 92.2244C0 69.1926 18.7679 50.5216 41.9193 50.5216Z" fill="url(#paint0_radial_1356_114349)"/>
<path d="M59.1243 60.4755H103.18C117.009 60.4755 128.22 71.6284 128.22 85.3862C128.22 99.144 117.009 110.297 103.18 110.297H59.1243C45.295 110.297 34.0842 99.144 34.0842 85.3862C34.0842 71.6284 45.295 60.4755 59.1243 60.4755Z" fill="url(#paint1_radial_1356_114349)"/>
<path d="M100.404 81.4768C95.9867 81.4768 92.4055 77.9141 92.4055 73.5192C92.4055 69.1244 95.9867 65.5616 100.404 65.5616C104.822 65.5616 108.403 69.1244 108.403 73.5192C108.403 77.9141 104.822 81.4768 100.404 81.4768Z" fill="#00A79D"/>
<path d="M64.3155 81.4955C59.8979 81.4955 56.3166 77.9328 56.3166 73.5379C56.3166 69.1431 59.8979 65.5803 64.3155 65.5803C68.7332 65.5803 72.3145 69.1431 72.3145 73.5379C72.3145 77.9328 68.7332 81.4955 64.3155 81.4955Z" fill="#00A79D"/>
<path d="M23.4101 160.5C11.6286 160.5 2.07792 150.999 2.07792 139.278C2.07792 127.557 11.6286 118.056 23.4101 118.056C35.1915 118.056 44.7422 127.557 44.7422 139.278C44.7422 150.999 35.1915 160.5 23.4101 160.5Z" fill="url(#paint2_radial_1356_114349)"/>
<path d="M111.04 42.9439C99.2585 42.9439 89.7078 33.4425 89.7078 21.722C89.7078 10.0014 99.2585 0.5 111.04 0.5C122.821 0.5 132.372 10.0014 132.372 21.722C132.372 33.4425 122.821 42.9439 111.04 42.9439Z" fill="url(#paint3_radial_1356_114349)"/>
</g>
<defs>
<radialGradient id="paint0_radial_1356_114349" cx="0" cy="0" r="1" gradientUnits="userSpaceOnUse" gradientTransform="translate(53.6356 72.2773) rotate(180) scale(131.397 132.826)">
<stop stop-color="#4F4F50"/>
<stop offset="0.69" stop-color="#1D1D1E"/>
</radialGradient>
<radialGradient id="paint1_radial_1356_114349" cx="0" cy="0" r="1" gradientUnits="userSpaceOnUse" gradientTransform="translate(71.5554 73.6465) rotate(180) scale(140.364 120.378)">
<stop offset="0.31" stop-color="#2B3990"/>
<stop offset="1"/>
</radialGradient>
<radialGradient id="paint2_radial_1356_114349" cx="0" cy="0" r="1" gradientUnits="userSpaceOnUse" gradientTransform="translate(12.8386 127.839) rotate(180) scale(53.0806 52.8064)">
<stop offset="0.31" stop-color="#414042"/>
<stop offset="1"/>
</radialGradient>
<radialGradient id="paint3_radial_1356_114349" cx="0" cy="0" r="1" gradientUnits="userSpaceOnUse" gradientTransform="translate(100.468 10.2808) rotate(180) scale(53.0806 52.8064)">
<stop offset="0.31" stop-color="#414042"/>
<stop offset="1"/>
</radialGradient>
<clipPath id="clip0_1356_114349">
<rect width="138" height="160" fill="white" transform="matrix(-1 0 0 1 138 0.5)"/>
</clipPath>
</defs>
</svg>
