<svg width="140" height="152" viewBox="0 0 140 152" fill="none" xmlns="http://www.w3.org/2000/svg">
<path d="M139.381 82.2727C141.533 72.7276 137.896 63.7735 131.257 62.273C124.618 60.7725 117.492 67.294 115.34 76.839C113.188 86.384 116.825 95.3382 123.464 96.8387C130.103 98.3391 137.229 91.8177 139.381 82.2727Z" fill="url(#paint0_radial_1356_114453)"/>
<path d="M16.5381 96.8381C23.177 95.3376 26.8145 86.3835 24.6626 76.8384C22.5107 67.2934 15.3844 60.772 8.74546 62.2724C2.10653 63.7729 -1.53096 72.727 0.620915 82.2721C2.77279 91.8171 9.89914 98.3385 16.5381 96.8381Z" fill="url(#paint1_radial_1356_114453)"/>
<path d="M131.063 75.6781C131.063 117.475 102.303 152 69.9942 152C37.6851 152 8.92188 117.471 8.92188 75.6781C8.92188 33.8849 36.266 0 69.9942 0C103.723 0 131.063 33.8811 131.063 75.6781Z" fill="url(#paint2_radial_1356_114453)"/>
<path d="M131.063 75.6781C131.063 117.475 102.303 152 69.9942 152C37.6851 152 8.92188 117.471 8.92188 75.6781C8.92188 33.8849 36.266 0 69.9942 0C103.723 0 131.063 33.8811 131.063 75.6781Z" fill="url(#paint3_radial_1356_114453)"/>
<path d="M51.8047 76.9504C54.7128 76.9504 57.0704 74.59 57.0704 71.6782C57.0704 68.7664 54.7128 66.4059 51.8047 66.4059C48.8966 66.4059 46.5391 68.7664 46.5391 71.6782C46.5391 74.59 48.8966 76.9504 51.8047 76.9504Z" fill="#231F20"/>
<path d="M88.1797 76.9504C91.0878 76.9504 93.4454 74.59 93.4454 71.6782C93.4454 68.7664 91.0878 66.4059 88.1797 66.4059C85.2716 66.4059 82.9141 68.7664 82.9141 71.6782C82.9141 74.59 85.2716 76.9504 88.1797 76.9504Z" fill="#231F20"/>
<path d="M38.7316 66.1317C45.4887 65.7812 52.0479 67.2516 57.9528 70.5735C61.7536 72.7067 65.1816 66.8631 61.3808 64.7298C54.4677 60.8442 46.6073 58.9433 38.6822 59.3585C34.3525 59.5833 34.3639 66.364 38.7316 66.1355V66.1317Z" fill="url(#paint4_linear_1356_114453)"/>
<path d="M100.816 66.6688C94.0588 66.3184 87.4996 67.7888 81.5948 71.1106C77.7939 73.2439 74.3659 67.4002 78.1668 65.267C85.0798 61.3814 92.9402 59.4804 100.865 59.8957C105.195 60.1204 105.184 66.9012 100.816 66.6726V66.6688Z" fill="url(#paint5_linear_1356_114453)"/>
<path d="M69.9941 91.9825C54.6803 91.9825 42.8516 98.4204 41.8472 110.416C41.7825 111.193 42.6348 111.769 43.4452 111.487L49.7533 109.289C50.3202 109.091 50.9632 109.312 51.2333 109.799L54.3265 115.376C54.6879 116.028 55.6619 116.161 56.225 115.639L61.308 110.931C61.7722 110.5 62.5446 110.504 63.0049 110.934L69.1494 116.713C69.6136 117.148 70.3898 117.148 70.8539 116.713L76.9985 110.934C77.4588 110.5 78.2312 110.5 78.6953 110.931L83.7784 115.639C84.3414 116.161 85.3154 116.028 85.6769 115.376L88.7701 109.799C89.0402 109.312 89.6832 109.091 90.2501 109.289L96.5582 111.487C97.3686 111.769 98.2208 111.193 98.1562 110.416C97.1517 98.4204 85.323 91.9825 70.0093 91.9825H69.9941Z" fill="url(#paint6_linear_1356_114453)"/>
<path d="M79.7566 98.3975C75.9101 99.2432 74.0877 101.144 69.9901 101.144C65.8924 101.144 64.07 99.2432 60.2235 98.3975C54.5698 97.1595 54.0676 92.1767 59.7137 89.3692C63.4536 87.5026 62.8906 86.5007 63.389 81.5675C63.7656 77.8038 64.0244 75.9486 64.4733 71.4382C64.6331 69.8382 65.668 68.3373 67.3801 67.4764C68.1182 67.1069 68.9932 66.8478 69.9901 66.8478C70.9869 66.8478 71.8619 67.1069 72.6039 67.4764C74.3121 68.3373 75.347 69.8382 75.5068 71.4382C75.9558 75.9486 76.2183 77.8038 76.5949 81.5675C77.0857 86.5007 76.5226 87.5026 80.2702 89.3692C85.9087 92.1767 85.4141 97.1595 79.7566 98.3975Z" fill="url(#paint7_linear_1356_114453)"/>
<path d="M20.5596 64.3565C19.4258 71.4268 19.6275 78.5618 16.9414 81.8189C14.2553 85.076 7.30417 84.1046 6.16278 78.318C5.45511 74.7257 5.26107 69.3316 5.54642 64.9774C5.98015 58.3414 7.14057 50.8978 10.4773 40.9361C13.4639 32.0106 26.1677 33.5382 24.6496 41.957C22.9071 51.5987 22.1614 54.4063 20.5634 64.3527L20.5596 64.3565Z" fill="url(#paint8_linear_1356_114453)"/>
<path d="M119.424 64.3565C120.558 71.4268 120.357 78.5618 123.043 81.8189C125.729 85.0798 132.68 84.1046 133.821 78.318C134.529 74.7257 134.723 69.3316 134.438 64.9774C134.004 58.3414 132.843 50.8978 129.507 40.9361C126.52 32.0106 113.816 33.5382 115.334 41.957C117.077 51.5987 117.823 54.4063 119.421 64.3527L119.424 64.3565Z" fill="url(#paint9_linear_1356_114453)"/>
<path d="M75.838 56.5319C73.8443 58.6538 73.0111 61.808 73.2736 64.6689C73.3193 65.1641 73.6769 65.6441 74.2248 65.6212C74.7004 65.5984 75.2254 65.1984 75.176 64.6689C75.1151 63.9908 75.1151 63.3089 75.1836 62.6308C75.1912 62.5547 75.2026 62.4747 75.2102 62.3985C75.2254 62.288 75.2216 62.2956 75.2102 62.4175C75.214 62.3794 75.2216 62.3413 75.2292 62.3032C75.2559 62.1356 75.2825 61.9718 75.3167 61.8042C75.3814 61.4766 75.4651 61.1528 75.5602 60.8328C75.6553 60.5128 75.7505 60.2004 75.8874 59.9071C75.7847 60.1204 75.895 59.8957 75.9103 59.8614C75.9407 59.7928 75.9711 59.7281 76.0016 59.6595C76.0739 59.5071 76.1537 59.3547 76.2336 59.2062C76.382 58.9357 76.5456 58.6766 76.7245 58.4252C76.7663 58.3681 76.8005 58.3071 76.85 58.2576C76.6864 58.4405 76.8462 58.269 76.8728 58.2348C76.9718 58.1129 77.0783 57.9948 77.1886 57.8805C77.531 57.5186 77.5767 56.89 77.1886 56.5319C76.8005 56.1739 76.207 56.1434 75.8418 56.5319H75.838Z" fill="#414042"/>
<path d="M62.8141 57.8766C62.9244 57.9909 63.0271 58.109 63.1298 58.2309L63.1717 58.2842C63.2364 58.3642 63.2288 58.3566 63.1489 58.2538C63.1489 58.2614 63.2668 58.41 63.2744 58.4214C63.4532 58.6728 63.6168 58.9357 63.7652 59.2023C63.8413 59.3395 63.9136 59.4804 63.9821 59.6213C64.0201 59.6975 64.0544 59.7775 64.0924 59.8537C64.1153 59.8994 64.2142 60.1051 64.1153 59.8994C64.2522 60.1928 64.3511 60.5128 64.4425 60.8251C64.5338 61.1375 64.6213 61.4689 64.6859 61.7965C64.7164 61.9489 64.743 62.1013 64.7697 62.2575C64.7773 62.307 64.7849 62.3603 64.7925 62.4137C64.7773 62.3032 64.7735 62.2841 64.7849 62.3527C64.7963 62.4441 64.8077 62.5356 64.8153 62.6232C64.8838 63.3013 64.8838 63.9831 64.8229 64.6612C64.7773 65.1603 65.2947 65.6364 65.7741 65.6136C66.3296 65.5869 66.6758 65.1945 66.7252 64.6612C66.9878 61.8003 66.1545 58.6461 64.1609 56.5243C63.8185 56.1624 63.1565 56.1548 62.8141 56.5243C62.4564 56.9128 62.4488 57.4843 62.8141 57.8728V57.8766Z" fill="#414042"/>
<path d="M89.2006 120.401C77.954 112.371 61.1184 112.1 50.2104 120.847C48.9967 121.818 49.2174 123.871 50.2104 124.888C51.3861 126.092 53.0487 125.848 54.2472 124.888C63.2148 117.696 77.3567 118.93 86.3204 125.334C89.3147 127.475 92.1682 122.519 89.2006 120.401Z" fill="#414042"/>
<defs>
<radialGradient id="paint0_radial_1356_114453" cx="0" cy="0" r="1" gradientUnits="userSpaceOnUse" gradientTransform="translate(132.496 57.0303) scale(44.2786 44.3341)">
<stop stop-color="#DEAD87"/>
<stop offset="1" stop-color="#FAB085"/>
</radialGradient>
<radialGradient id="paint1_radial_1356_114453" cx="0" cy="0" r="1" gradientUnits="userSpaceOnUse" gradientTransform="translate(18.4532 55.8078) rotate(180) scale(47.4213 47.4807)">
<stop stop-color="#DEAD87"/>
<stop offset="1" stop-color="#FAB085"/>
</radialGradient>
<radialGradient id="paint2_radial_1356_114453" cx="0" cy="0" r="1" gradientUnits="userSpaceOnUse" gradientTransform="translate(71.2764 54.7415) scale(101.253 101.38)">
<stop offset="0.07" stop-color="#FCC397"/>
<stop offset="0.37" stop-color="#FCC397"/>
<stop offset="1" stop-color="#FAB085"/>
</radialGradient>
<radialGradient id="paint3_radial_1356_114453" cx="0" cy="0" r="1" gradientUnits="userSpaceOnUse" gradientTransform="translate(76.3328 40.9361) scale(54.9202 54.9891)">
<stop stop-color="white" stop-opacity="0.9"/>
<stop offset="0.72" stop-color="white" stop-opacity="0"/>
</radialGradient>
<linearGradient id="paint4_linear_1356_114453" x1="52.6824" y1="59.53" x2="37.8976" y2="83.4131" gradientUnits="userSpaceOnUse">
<stop stop-color="#725341"/>
<stop offset="0.52" stop-color="#583B29"/>
<stop offset="1" stop-color="#462A19"/>
</linearGradient>
<linearGradient id="paint5_linear_1356_114453" x1="86.8662" y1="60.0676" x2="101.651" y2="83.9507" gradientUnits="userSpaceOnUse">
<stop stop-color="#725341"/>
<stop offset="0.52" stop-color="#583B29"/>
<stop offset="1" stop-color="#462A19"/>
</linearGradient>
<linearGradient id="paint6_linear_1356_114453" x1="74.5635" y1="90.8435" x2="67.0696" y2="122.286" gradientUnits="userSpaceOnUse">
<stop stop-color="#725341"/>
<stop offset="0.52" stop-color="#583B29"/>
<stop offset="1" stop-color="#462A19"/>
</linearGradient>
<linearGradient id="paint7_linear_1356_114453" x1="68.3046" y1="101.087" x2="76.3972" y2="68.2544" gradientUnits="userSpaceOnUse">
<stop stop-color="#DEAD87"/>
<stop offset="1" stop-color="#FAB085"/>
</linearGradient>
<linearGradient id="paint8_linear_1356_114453" x1="22.2525" y1="59.2329" x2="3.25194" y2="59.4018" gradientUnits="userSpaceOnUse">
<stop stop-color="#725341"/>
<stop offset="0.52" stop-color="#583B29"/>
<stop offset="1" stop-color="#462A19"/>
</linearGradient>
<linearGradient id="paint9_linear_1356_114453" x1="115.88" y1="59.1807" x2="134.881" y2="59.3497" gradientUnits="userSpaceOnUse">
<stop stop-color="#725341"/>
<stop offset="0.52" stop-color="#583B29"/>
<stop offset="1" stop-color="#462A19"/>
</linearGradient>
</defs>
</svg>
