<?xml version="1.0" encoding="UTF-8"?>
<svg id="Layer_2" data-name="Layer 2" xmlns="http://www.w3.org/2000/svg" xmlns:xlink="http://www.w3.org/1999/xlink" viewBox="0 0 413.749 529.67">
  <defs>
    <style>
      .cls-1 {
        fill: url(#linear-gradient-2);
      }

      .cls-2 {
        fill: #231f20;
      }

      .cls-3 {
        fill: url(#radial-gradient-5);
      }

      .cls-4 {
        fill: #8b5e3c;
      }

      .cls-5 {
        fill: url(#radial-gradient);
      }

      .cls-6 {
        fill: url(#radial-gradient-3);
      }

      .cls-7 {
        fill: #971c1f;
      }

      .cls-8 {
        fill: url(#linear-gradient-3);
      }

      .cls-9 {
        fill: url(#radial-gradient-2);
      }

      .cls-10 {
        fill: url(#radial-gradient-4);
      }

      .cls-11 {
        fill: #1b1b1b;
      }

      .cls-12 {
        fill: url(#radial-gradient-6);
      }

      .cls-13 {
        fill: url(#radial-gradient-7);
      }

      .cls-14 {
        fill: url(#linear-gradient);
      }

      .cls-15 {
        fill: #414042;
      }

      .cls-16 {
        fill: #7f1717;
      }
    </style>
    <linearGradient id="linear-gradient" x1="255.622" y1="18.837" x2="67.323" y2="382.753" gradientUnits="userSpaceOnUse">
      <stop offset="0" stop-color="#1c75bc"/>
      <stop offset="1" stop-color="#2e3192"/>
    </linearGradient>
    <radialGradient id="radial-gradient" cx="113.935" cy="56.464" fx="113.935" fy="56.464" r="480.019" gradientTransform="translate(62.731) scale(.935 1)" gradientUnits="userSpaceOnUse">
      <stop offset="0" stop-color="#d29571"/>
      <stop offset="1" stop-color="#c19776"/>
    </radialGradient>
    <linearGradient id="linear-gradient-2" x1="166.315" y1="188.587" x2="166.315" y2="417.653" gradientUnits="userSpaceOnUse">
      <stop offset="0" stop-color="#d19878"/>
      <stop offset=".886" stop-color="#996955"/>
    </linearGradient>
    <linearGradient id="linear-gradient-3" x1="210.1" y1="321.992" x2="104.187" y2="308.427" gradientUnits="userSpaceOnUse">
      <stop offset="0" stop-color="#fff"/>
      <stop offset="1" stop-color="#d1d3d4"/>
    </linearGradient>
    <radialGradient id="radial-gradient-2" cx="-2386.147" cy="-864.587" fx="-2386.147" fy="-864.587" r="204.7" gradientTransform="translate(2727.947 -438.526) rotate(-.758) scale(1 -1)" gradientUnits="userSpaceOnUse">
      <stop offset="0" stop-color="#d19470"/>
      <stop offset="1" stop-color="#c19776"/>
    </radialGradient>
    <radialGradient id="radial-gradient-3" cx="-2344.363" cy="-822.381" fx="-2344.363" fy="-822.381" r="67.003" xlink:href="#radial-gradient-2"/>
    <radialGradient id="radial-gradient-4" cx="-2349.201" cy="-787.722" fx="-2349.201" fy="-787.722" r="61.509" xlink:href="#radial-gradient-2"/>
    <radialGradient id="radial-gradient-5" cx="-2308.785" cy="-603.305" fx="-2308.785" fy="-603.305" r="50.888" gradientTransform="translate(2784.022 -370.798) rotate(-.758) scale(1.048 -1.152)" xlink:href="#radial-gradient-2"/>
    <radialGradient id="radial-gradient-6" cx="-2456.778" cy="-925.452" fx="-2456.778" fy="-925.452" r="137.492" gradientTransform="translate(2727.947 -438.526) rotate(-.758) scale(1 -1)" gradientUnits="userSpaceOnUse">
      <stop offset="0" stop-color="#d19470"/>
      <stop offset="1" stop-color="#c19776"/>
    </radialGradient>
    <radialGradient id="radial-gradient-7" cx="-2344.399" cy="-867.881" fx="-2344.399" fy="-867.881" r="83.243" xlink:href="#radial-gradient-2"/>
  </defs>
  <g id="Bitmojis">
    <g id="Ethic_Front_Disapprove">
      <path class="cls-14" d="M323.246,261.93c-7.78,51.08-43.25,151.61-156.93,151.61S17.165,313.01,9.385,261.93c-6.04-39.63-21.01-96.78,7.29-178.44C40.556,14.55,121.616,0,166.315,0s125.76,14.55,149.64,83.49c28.3,81.66,13.33,138.81,7.29,178.44Z"/>
      <path class="cls-5" d="M223.112,383.805c-16.689,17.39-36.47,21.53-56.6,21.53s-39.92-4.14-56.609-21.53c-23.29-24.26-69.097-61.979-69.097-190.73-3.609-104.31,49.16-126,125.706-126s129.305,21.69,125.696,126c0,128.751-45.797,166.47-69.097,190.73Z"/>
      <path class="cls-15" d="M290.015,242.8c.319-2.37-.564-8.11-1.597-14.65-9.739-61.48-12.717-84.13-50.284-118.95-20.821-19.31-47.043-25.11-71.819-25.11s-50.997,5.8-71.819,25.11c-37.576,34.82-40.545,57.47-50.284,118.95-1.033,6.54-1.925,12.28-1.597,14.65-5.832-42.54-4.865-75.25,2.066-108.31,12.641-60.39,62.737-94.92,121.633-94.92s108.992,34.53,121.633,94.92c6.922,33.06,7.899,65.77,2.066,108.31Z"/>
      <circle class="cls-2" cx="118.509" cy="203.309" r="13.844"/>
      <circle class="cls-2" cx="214.122" cy="203.309" r="13.844"/>
      <path class="cls-1" d="M185.435,283.171c-7.534,2.423-11.098,4.595-19.122,4.595s-11.588-2.172-19.122-4.595c-11.07-3.548-12.05-17.825-.999-25.871,7.326-5.349,6.223-8.22,7.194-22.355.735-10.785,1.245-16.101,2.122-29.025.311-4.585,2.338-8.885,5.695-11.352,1.443-1.059,3.159-1.801,5.111-1.801s3.668.742,5.12,1.801c3.347,2.467,5.375,6.768,5.686,11.352.877,12.924,1.395,18.24,2.131,29.025.962,14.136-.141,17.007,7.194,22.355,11.041,8.045,10.07,22.323-1.009,25.871Z"/>
      <path class="cls-11" d="M110.055,188.086c-14.106-4.83-28.387-2.34-43.447-1.773-.545-1.314,7.166-4.744,8.368-5.273,27.815-12.258,45.293-6.996,71.47,7.027,5.143,2.755,4.41,6.341,2.283,10.26-1.197,2.206-2.968,3.471-5.335,3.053-2.363-.418-3.727-1.21-9.043-3.217s-10.189-5.247-24.295-10.077Z"/>
      <path class="cls-11" d="M224.861,188.086c14.106-4.83,28.387-2.34,43.447-1.773.545-1.314-7.166-4.744-8.368-5.273-27.815-12.258-45.293-6.996-71.47,7.027-5.143,2.755-4.41,6.341-2.283,10.26,1.197,2.206,2.968,3.471,5.335,3.053s3.727-1.21,9.043-3.217c5.316-2.006,10.189-5.247,24.295-10.077Z"/>
      <path class="cls-15" d="M153.178,174.71c-.369-.477.037.062.085.128.097.135.192.271.285.407.206.303.405.611.595.924.349.574.67,1.166.963,1.77.089.183.175.367.259.552.028.061.252.584.118.262s.081.207.105.27c.074.191.146.383.216.576.245.681.458,1.373.641,2.073.184.707.337,1.422.458,2.143.029.173.053.346.081.518.051.31-.045-.428.007.065.041.385.081.77.108,1.156.107,1.524.07,3.051-.095,4.569-.142,1.305,1.251,2.556,2.5,2.5,1.476-.066,2.348-1.102,2.5-2.5.732-6.741-1.145-13.591-5.29-18.949-.804-1.04-2.701-.909-3.536,0-1.012,1.102-.858,2.426,0,3.536h0Z"/>
      <path class="cls-15" d="M176.08,171.219c-4.243,5.275-6.218,12.12-5.615,18.86.116,1.299,1.067,2.564,2.5,2.5,1.255-.056,2.625-1.105,2.5-2.5-.133-1.485-.145-2.978-.018-4.464.018-.211.039-.421.062-.631.008-.069.084-.654.034-.295s.036-.224.047-.292c.034-.207.07-.414.108-.62.134-.718.301-1.43.499-2.134.196-.696.422-1.384.68-2.06.061-.16.127-.318.188-.477.108-.284-.171.374.028-.062.155-.34.311-.678.479-1.012.318-.63.665-1.246,1.042-1.842.178-.281.363-.559.555-.831.115-.163.232-.323.35-.483.313-.425-.264.329.097-.119.818-1.017,1.068-2.555,0-3.536-.909-.835-2.66-1.088-3.536,0h0Z"/>
      <path class="cls-8" d="M101.53,313.256s14.334-13.282,40.813-13.282,8.087,7.595,22.174,11.363c14.087,3.768,10.435-2.147,24.261,1.919s28.108,15.57,28.108,15.57c0,0-29.934,5.895-61.108,0s-33.098-7.2-33.098-7.2l-21.15-8.37Z"/>
      <path class="cls-7" d="M101.53,313.256c14.374,16.02,35.616,23.08,58.579,26.873,18.685,3.086,52.206.521,56.776-11.303-5.275-.613-26.831-.887-45.016-1.873-6.255-.339-12.111-.763-16.767-1.314-18.196-2.152-29.099-5.88-53.572-12.383h0"/>
      <path class="cls-16" d="M216.885,328.827c.328-3.062-19.206-19.814-34.914-22.427-7.266-1.209-16.728.75-16.728.75,0,0-4.553-7.732-12.354-10.55-30.114-10.878-49.935,13.806-51.359,16.656,0,0,31.397-15.381,48.355-8.226,3.498,1.476,7.367,5.145,9.97,7.928,2.042,2.183,4.757,3.616,7.72,4.008,7.951,1.051,13.582-5.629,49.311,11.86Z"/>
    </g>
    <g id="Hand5_ThumbsDown">
      <g>
        <polygon class="cls-4" points="320.408 459.677 340.023 464.565 371.272 466.132 380.545 462.445 374.011 429.666 344.484 412.634 326.791 360.203 329.672 331.353 332.173 324.098 302.86 319.338 278.35 322.392 257.478 331.026 236.473 351.102 231.048 368.597 320.408 459.677"/>
        <path class="cls-4" d="M362.022,371.055c13.292.636,26.008,3.88,36.882,13.351,7.214,6.283,11.089,14.709,8.76,25.6-.405,1.893-1.286,3.698-2.165,5.389-1.222,2.351-2.778,2.71-4.952,1.139-13.172-9.52-27.65-13.834-43.023-13.774-4.486.018-9.062,1.013-13.417,2.343-5.263,1.606-8.923-.66-10.887-7.733-2.518-9.07.761-16.593,9.402-21.413,6.109-3.407,12.556-5.099,19.4-4.902Z"/>
        <path class="cls-4" d="M364.725,340.545c10.375.979,20.38,2.637,28.757,10.339,3.203,2.945,6.063,6.691,8.366,10.648,3.132,5.381,2.125,12.902-2.206,17.014-1.31,1.245-4.268,1.526-5.867.668-9.595-5.144-19.623-8.036-30.062-8.513-11.579-.53-22.403,2.394-31.422,11.64-1.747,1.791-3.157,1.488-4.635-.532-3.662-5.005-4.325-12.296-1.369-17.903,5.529-10.489,13.69-16.898,23.627-20.096,4.827-1.554,9.867-2.205,14.81-3.264Z"/>
        <path class="cls-4" d="M357.661,318.065c7.711-.101,14.38,1.952,20.52,6.248,4.873,3.41,7.702,9.587,6.724,14.49-.611,3.064-1.864,4.202-4.855,3.698-5.896-.993-11.886-2.11-17.8-1.908-13.314.454-25.063,5.833-34.341,17.019-2.333,2.813-3.316,2.018-4.729-.752-4.181-8.195-1.587-19.973,6.092-27.204,8.391-7.903,18.233-11.115,28.389-11.592Z"/>
        <path class="cls-4" d="M285.903,390.359c3.991,3.585,7.705,7.467,11.212,11.525,17.16,19.853,23.869,43.26,21.39,69.74-1.266,13.521-3.971,26.607-10.883,38.305-5.213,8.823-11.939,15.829-22.432,17.142-9.426,1.179-15.562-4.243-15.781-14.165-.124-5.603.508-11.219.639-16.834.106-4.543.087-9.098-.078-13.64-.501-13.806-6.449-25.167-14.459-35.74-7.033-9.284-13.968-18.691-20.281-28.512-2.552-3.971-4.024-9.062-4.812-13.854-2.995-18.205-1.591-35.067,6.101-49.784,0,0,12.154,7.654,16.004,10.494,12.202,9.002,27.185,19.757,33.381,25.323Z"/>
        <path class="cls-4" d="M369.107,452.981c1.306.281,3.875-.662,4.164-1.645.844-2.867-1.743-2.468-3.288-2.899-11.479-3.204-22.312-7.848-31.384-16.53-11.044-10.569-4.39-20.009,4.688-24.141,7.384-3.361,15.096-3.2,22.67-2.204,12.738,1.675,24.959,5.461,35.317,14.36,8.897,7.644,9.864,18.079,2.502,27.475-7.695,9.822-18.152,14.026-29.306,16.713"/>
        <path class="cls-4" d="M402.421,379.632c-.008-3.006,2.862-5.88,3.154-9.073,2.356-12.704-7.135-17.501-14.843-25.29-5.876-6.953,2.572-14.974-11.407-23.901-11.143-6.896-23.92-7.876-36.068-3.794-6.803,2.544-9.279,4.593-16.786,1.988-13.959-3.762-28.789-3.849-42.918-1.516-27.805,4.677-50.843,26.867-55.961,55.003-.831,4.73-1.496,8.892-1.668,13.712-.722,14.434,2.459,28.638,10.877,40.419,3.899,5.783,7.803,11.677,12.096,17.127,3.799,4.81,7.597,9.455,10.042,15.31,3.654,9.041,6.032,18.552,6,28.389-.009,7.545-.314,15.015-.268,22.585.035,3.174.439,6.508,1.924,9.319,3.01,5.974,10.723,10.338,17.368,9.7,3.227-.196,6.571-1.263,9.572-2.668,18.883-8.887,26.322-33.079,28.195-52.488.28-2.232.616-4.464.991-6.618.255-1.627.954-3.395,2.315-3.778.907-.325,2.118-.208,3.444.078,3.026.687,6.044,1.422,9.034,2.088,13.666,3.634,27.854,3.745,41.469-.323,11.746-3.096,23.085-8.444,30.057-18.782,2.465-3.612,4.507-7.654,4.693-12.07.154-3.298-.872-6.66-2.231-9.655-1.089-2.495-2.697-5.008-2.368-7.836.201-2.144,1.367-4.23,2.123-6.256,3.058-7.584,1.708-15.837-3.012-22.74-1.66-2.99-5.22-5.474-5.816-8.813l-.009-.116ZM325.777,326.516c.339,1.39-.928,3.057-1.769,4.345-.887,1.294-1.73,2.563-2.502,3.912-4.738,7.994-4.265,15.83.006,23.805,1.454,3.04,1.376,6.381,1.092,9.652-.252,3.647.283,7.082,1.943,10.251,1.121,2.199,2.7,4.247,3.373,6.641.685,2.308.458,4.775.536,7.158.028,4.397,1.754,8.294,4.017,11.945,2.25,3.43.765,6.488-1.176,9.642-4.444,7.368-.682,15.39,4.937,20.784,6.409,6.419,14.43,10.314,22.706,13.559,3.396,1.051,10.344,4.36,13.2,1.402.869-2.018-2.753-2.8-4.324-3.304-11.118-3.248-22.442-8.096-30.269-17.022-8.174-9.39-.613-18.554,10.168-21.555,14.746-4.009,37.368,1.242,49.77,9.904,15.579,10.234,13.058,24.409-.676,34.743-7.167,5.356-15.835,8.077-24.53,9.829-14.365,2.8-28.467,1.197-42.347-3.288-3.103-1.023-6.336-2.418-7.567-5.648-.793-1.905-1.062-4.086-1.332-6.144-.722-6.161-1.954-11.942-3.753-17.482-4.806-14.825-13.343-27.363-24.791-38.117-1.465-1.306-3.48-3.056-5.452-2.891-3.629,1.258,1.662,6.201,3.22,7.741,10.826,10.193,19.498,23.516,23.648,37.24,7.494,24.303,4.64,60.823-12.421,81.064-5.924,7.177-17.812,12.453-26.384,7.213-6.106-4.127-5.8-12.625-5.44-19.235,3.032-41.622-6.267-44.81-28.473-76.516-5.768-7.904-9.209-14.327-10.219-24.189-2.756-26.935,3.658-49.775,23.491-65.472,13.977-11.493,32.223-14.798,49.855-14.342,3.481.181,20.519.857,21.437,4.289l.024.087ZM362.22,373.544c10.436.339,20.892,2.48,29.966,7.655,11.523,6.298,19.579,17.456,13.471,30.473-1.805,3.523-5.019,2.925-7.902,1.12-11.992-7.192-25.329-10.779-39.145-10.781-4.277-.031-8.432.669-12.608,1.642-2.474.535-5.371.977-7.581-.22-3.431-1.868-5.032-6.626-5.324-10.402-.754-13.99,17.455-19.721,28.972-19.489l.15.003ZM364.82,343.882c12.868.04,25.98,4.642,33.393,15.626,1.372,1.954,2.494,4.178,2.8,6.556.756,7.247-4.212,12.897-11.505,9.409-15.279-6.428-34.262-9.436-49.178-.679-2.892,1.361-5.92,5.544-9.365,4.326-1.357-.571-2.437-2.193-3.108-3.893-2.017-4.855-.544-10.303,2.488-14.401,7.767-11.499,21.227-15.844,34.327-16.939l.149-.006ZM357.666,320.342c8.853-.018,18.872,2.741,24.038,10.388,2.801,4.098,3.018,11.798-3.693,11.129-17.7-2.965-33.825-1.511-47.207,11.903-2.512,2.57-5.11,3.937-6.934-.169-3.138-7.286-.292-16.385,5.801-22.24,7.411-7.12,17.749-10.729,27.843-11.008l.151-.003Z"/>
      </g>
      <g>
        <polygon class="cls-9" points="320.408 459.677 340.023 464.565 371.272 466.132 380.545 462.445 374.011 429.666 344.484 412.634 326.791 360.203 329.672 331.353 332.173 324.098 302.86 319.338 278.35 322.392 257.478 331.026 236.473 351.102 231.048 368.597 320.408 459.677"/>
        <path class="cls-6" d="M362.022,371.055c13.292.636,26.008,3.88,36.882,13.351,7.214,6.283,11.089,14.709,8.76,25.6-.405,1.893-1.286,3.698-2.165,5.389-1.222,2.351-2.778,2.71-4.952,1.139-13.172-9.52-27.65-13.834-43.023-13.774-4.486.018-9.062,1.013-13.417,2.343-5.263,1.606-8.923-.66-10.887-7.733-2.518-9.07.761-16.593,9.402-21.413,6.109-3.407,12.556-5.099,19.4-4.902Z"/>
        <path class="cls-10" d="M364.725,340.545c10.375.979,20.38,2.637,28.757,10.339,3.203,2.945,6.063,6.691,8.366,10.648,3.132,5.381,2.125,12.902-2.206,17.014-1.31,1.245-4.268,1.526-5.867.668-9.595-5.144-19.623-8.036-30.062-8.513-11.579-.53-22.403,2.394-31.422,11.64-1.747,1.791-3.157,1.488-4.635-.532-3.662-5.005-4.325-12.296-1.369-17.903,5.529-10.489,13.69-16.898,23.627-20.096,4.827-1.554,9.867-2.205,14.81-3.264Z"/>
        <path class="cls-3" d="M357.661,318.065c7.711-.101,14.38,1.952,20.52,6.248,4.873,3.41,7.702,9.587,6.724,14.49-.611,3.064-1.864,4.202-4.855,3.698-5.896-.993-11.886-2.11-17.8-1.908-13.314.454-25.063,5.833-34.341,17.019-2.333,2.813-3.316,2.018-4.729-.752-4.181-8.195-1.587-19.973,6.092-27.204,8.391-7.903,18.233-11.115,28.389-11.592Z"/>
        <path class="cls-12" d="M285.903,390.359c3.991,3.585,7.705,7.467,11.212,11.525,17.16,19.853,23.869,43.26,21.39,69.74-1.266,13.521-3.971,26.607-10.883,38.305-5.213,8.823-11.939,15.829-22.432,17.142-9.426,1.179-15.562-4.243-15.781-14.165-.124-5.603.508-11.219.639-16.834.106-4.543.087-9.098-.078-13.64-.501-13.806-6.449-25.167-14.459-35.74-7.033-9.284-13.968-18.691-20.281-28.512-2.552-3.971-4.024-9.062-4.812-13.854-2.995-18.205-1.591-35.067,6.101-49.784,0,0,12.154,7.654,16.004,10.494,12.202,9.002,27.185,19.757,33.381,25.323Z"/>
        <path class="cls-13" d="M369.107,452.981c1.306.281,3.875-.662,4.164-1.645.844-2.867-1.743-2.468-3.288-2.899-11.479-3.204-22.312-7.848-31.384-16.53-11.044-10.569-4.39-20.009,4.688-24.141,7.384-3.361,15.096-3.2,22.67-2.204,12.738,1.675,24.959,5.461,35.317,14.36,8.897,7.644,9.864,18.079,2.502,27.475-7.695,9.822-18.152,14.026-29.306,16.713"/>
        <path class="cls-4" d="M402.421,379.632c-.008-3.006,2.862-5.88,3.154-9.073,2.356-12.704-7.135-17.501-14.843-25.29-5.876-6.953,2.572-14.974-11.407-23.901-11.143-6.896-23.92-7.876-36.068-3.794-6.803,2.544-9.279,4.593-16.786,1.988-13.959-3.762-28.789-3.849-42.918-1.516-27.805,4.677-50.843,26.867-55.961,55.003-.831,4.73-1.496,8.892-1.668,13.712-.722,14.434,2.459,28.638,10.877,40.419,3.899,5.783,7.803,11.677,12.096,17.127,3.799,4.81,7.597,9.455,10.042,15.31,3.654,9.041,6.032,18.552,6,28.389-.009,7.545-.314,15.015-.268,22.585.035,3.174.439,6.508,1.924,9.319,3.01,5.974,10.723,10.338,17.368,9.7,3.227-.196,6.571-1.263,9.572-2.668,18.883-8.887,26.322-33.079,28.195-52.488.28-2.232.616-4.464.991-6.618.255-1.627.954-3.395,2.315-3.778.907-.325,2.118-.208,3.444.078,3.026.687,6.044,1.422,9.034,2.088,13.666,3.634,27.854,3.745,41.469-.323,11.746-3.096,23.085-8.444,30.057-18.782,2.465-3.612,4.507-7.654,4.693-12.07.154-3.298-.872-6.66-2.231-9.655-1.089-2.495-2.697-5.008-2.368-7.836.201-2.144,1.367-4.23,2.123-6.256,3.058-7.584,1.708-15.837-3.012-22.74-1.66-2.99-5.22-5.474-5.816-8.813l-.009-.116ZM325.777,326.516c.339,1.39-.928,3.057-1.769,4.345-.887,1.294-1.73,2.563-2.502,3.912-4.738,7.994-4.265,15.83.006,23.805,1.454,3.04,1.376,6.381,1.092,9.652-.252,3.647.283,7.082,1.943,10.251,1.121,2.199,2.7,4.247,3.373,6.641.685,2.308.458,4.775.536,7.158.028,4.397,1.754,8.294,4.017,11.945,2.25,3.43.765,6.488-1.176,9.642-4.444,7.368-.682,15.39,4.937,20.784,6.409,6.419,14.43,10.314,22.706,13.559,3.396,1.051,10.344,4.36,13.2,1.402.869-2.018-2.753-2.8-4.324-3.304-11.118-3.248-22.442-8.096-30.269-17.022-8.174-9.39-.613-18.554,10.168-21.555,14.746-4.009,37.368,1.242,49.77,9.904,15.579,10.234,13.058,24.409-.676,34.743-7.167,5.356-15.835,8.077-24.53,9.829-14.365,2.8-28.467,1.197-42.347-3.288-3.103-1.023-6.336-2.418-7.567-5.648-.793-1.905-1.062-4.086-1.332-6.144-.722-6.161-1.954-11.942-3.753-17.482-4.806-14.825-13.343-27.363-24.791-38.117-1.465-1.306-3.48-3.056-5.452-2.891-3.629,1.258,1.662,6.201,3.22,7.741,10.826,10.193,19.498,23.516,23.648,37.24,7.494,24.303,4.64,60.823-12.421,81.064-5.924,7.177-17.812,12.453-26.384,7.213-6.106-4.127-5.8-12.625-5.44-19.235,3.032-41.622-6.267-44.81-28.473-76.516-5.768-7.904-9.209-14.327-10.219-24.189-2.756-26.935,3.658-49.775,23.491-65.472,13.977-11.493,32.223-14.798,49.855-14.342,3.481.181,20.519.857,21.437,4.289l.024.087ZM362.22,373.544c10.436.339,20.892,2.48,29.966,7.655,11.523,6.298,19.579,17.456,13.471,30.473-1.805,3.523-5.019,2.925-7.902,1.12-11.992-7.192-25.329-10.779-39.145-10.781-4.277-.031-8.432.669-12.608,1.642-2.474.535-5.371.977-7.581-.22-3.431-1.868-5.032-6.626-5.324-10.402-.754-13.99,17.455-19.721,28.972-19.489l.15.003ZM364.82,343.882c12.868.04,25.98,4.642,33.393,15.626,1.372,1.954,2.494,4.178,2.8,6.556.756,7.247-4.212,12.897-11.505,9.409-15.279-6.428-34.262-9.436-49.178-.679-2.892,1.361-5.92,5.544-9.365,4.326-1.357-.571-2.437-2.193-3.108-3.893-2.017-4.855-.544-10.303,2.488-14.401,7.767-11.499,21.227-15.844,34.327-16.939l.149-.006ZM357.666,320.342c8.853-.018,18.872,2.741,24.038,10.388,2.801,4.098,3.018,11.798-3.693,11.129-17.7-2.965-33.825-1.511-47.207,11.903-2.512,2.57-5.11,3.937-6.934-.169-3.138-7.286-.292-16.385,5.801-22.24,7.411-7.12,17.749-10.729,27.843-11.008l.151-.003Z"/>
      </g>
    </g>
  </g>
</svg>