<?xml version="1.0" encoding="UTF-8"?>
<svg id="Layer_2" data-name="Layer 2" xmlns="http://www.w3.org/2000/svg" xmlns:xlink="http://www.w3.org/1999/xlink" viewBox="0 0 332.631 545.108">
  <defs>
    <style>
      .cls-1 {
        fill: url(#linear-gradient-2);
      }

      .cls-2 {
        fill: #231f20;
      }

      .cls-3 {
        fill: url(#radial-gradient);
      }

      .cls-4 {
        fill: #971c1f;
      }

      .cls-5 {
        fill: url(#linear-gradient-3);
      }

      .cls-6 {
        fill: url(#radial-gradient-2);
      }

      .cls-7 {
        fill: #8b5e3c;
        stroke: #8b5e3c;
        stroke-miterlimit: 10;
        stroke-width: 2px;
      }

      .cls-8 {
        fill: #1b1b1b;
      }

      .cls-9 {
        fill: url(#linear-gradient);
      }

      .cls-10 {
        fill: #414042;
      }

      .cls-11 {
        fill: #7f1717;
      }
    </style>
    <linearGradient id="linear-gradient" x1="255.622" y1="18.837" x2="67.323" y2="382.753" gradientUnits="userSpaceOnUse">
      <stop offset="0" stop-color="#1c75bc"/>
      <stop offset="1" stop-color="#2e3192"/>
    </linearGradient>
    <radialGradient id="radial-gradient" cx="81.92" cy="56.757" fx="81.92" fy="56.757" r="480.019" gradientTransform="translate(92.469) scale(.935 1)" gradientUnits="userSpaceOnUse">
      <stop offset="0" stop-color="#d29571"/>
      <stop offset="1" stop-color="#c19776"/>
    </radialGradient>
    <linearGradient id="linear-gradient-2" x1="166.315" y1="188.587" x2="166.315" y2="417.653" gradientUnits="userSpaceOnUse">
      <stop offset="0" stop-color="#d19878"/>
      <stop offset=".886" stop-color="#996955"/>
    </linearGradient>
    <linearGradient id="linear-gradient-3" x1="-189.935" y1="427.377" x2="-309.414" y2="483.725" gradientTransform="translate(198.396 -81.127) rotate(-26.461)" gradientUnits="userSpaceOnUse">
      <stop offset="0" stop-color="#d19470"/>
      <stop offset="1" stop-color="#c19776"/>
    </linearGradient>
    <radialGradient id="radial-gradient-2" cx="-2782.299" cy="386.075" fx="-2782.299" fy="386.075" r="137.738" gradientTransform="translate(2425.893 -1172.413) rotate(-25.088)" gradientUnits="userSpaceOnUse">
      <stop offset="0" stop-color="#d19470"/>
      <stop offset="1" stop-color="#c19776"/>
    </radialGradient>
  </defs>
  <g id="Bitmojis">
    <g id="Ethic_Front_Neutral">
      <path class="cls-9" d="M323.246,261.93c-7.78,51.08-43.25,151.61-156.93,151.61S17.165,313.01,9.385,261.93c-6.04-39.63-21.01-96.78,7.29-178.44C40.556,14.55,121.616,0,166.315,0s125.76,14.55,149.64,83.49c28.3,81.66,13.33,138.81,7.29,178.44Z"/>
      <path class="cls-3" d="M222.916,384.098c-16.689,17.39-36.47,21.53-56.6,21.53s-39.92-4.14-56.609-21.53c-23.29-24.26-69.097-61.979-69.097-190.73-3.609-104.31,49.16-126,125.706-126s129.305,21.69,125.696,126c0,128.751-45.797,166.47-69.097,190.73Z"/>
      <path class="cls-10" d="M290.015,242.8c.319-2.37-.564-8.11-1.597-14.65-9.739-61.48-12.717-84.13-50.284-118.95-20.821-19.31-47.043-25.11-71.819-25.11s-50.997,5.8-71.819,25.11c-37.576,34.82-40.545,57.47-50.284,118.95-1.033,6.54-1.925,12.28-1.597,14.65-5.832-42.54-4.865-75.25,2.066-108.31,12.641-60.39,62.737-94.92,121.633-94.92s108.992,34.53,121.633,94.92c6.922,33.06,7.899,65.77,2.066,108.31Z"/>
      <path class="cls-8" d="M109.058,164.268c-14.876-1.014-28.026,5.087-42.426,9.533-.866-1.129,5.694-6.437,6.718-7.259,23.694-19.039,41.939-18.48,70.854-11.71,5.68,1.33,5.901,4.984,4.861,9.319-.585,2.441-1.968,4.121-4.363,4.329-2.391.208-3.913-.204-9.567-.767-5.654-.562-11.2-2.431-26.076-3.445Z"/>
      <circle class="cls-2" cx="118.509" cy="203.309" r="13.844"/>
      <circle class="cls-2" cx="214.122" cy="203.309" r="13.844"/>
      <path class="cls-8" d="M224.443,185.97c14.757-2.134,28.33,2.956,43.024,6.303.779-1.191-6.164-5.989-7.246-6.731-25.064-17.196-43.215-15.261-71.535-6.328-5.564,1.755-5.507,5.415-4.143,9.659.768,2.39,2.274,3.96,4.678,3.988s3.887-.499,9.482-1.487c5.596-.987,10.984-3.269,25.741-5.404Z"/>
      <path class="cls-1" d="M185.435,283.171c-7.534,2.423-11.098,4.595-19.122,4.595s-11.588-2.172-19.122-4.595c-11.07-3.548-12.05-17.825-.999-25.871,7.326-5.349,6.223-8.22,7.194-22.355.735-10.785,1.245-16.101,2.122-29.025.311-4.585,2.338-8.885,5.695-11.352,1.443-1.059,3.159-1.801,5.111-1.801s3.668.742,5.12,1.801c3.347,2.467,5.375,6.768,5.686,11.352.877,12.924,1.395,18.24,2.131,29.025.962,14.136-.141,17.007,7.194,22.355,11.041,8.045,10.07,22.323-1.009,25.871Z"/>
      <path class="cls-4" d="M93.645,316.974c14.374,16.02,35.616,23.08,58.579,26.873,18.685,3.086,52.206.521,56.776-11.303-7.089-.823-48.531-10.702-55.884-12.436-39.993-9.431-44.056-7.22-58.937-3.32l-.534.185"/>
      <path class="cls-11" d="M209,332.544c.328-3.062-19.159-13.016-34.866-15.629-7.266-1.209-16.983.101-16.983.101,0,0-4.345-3.88-12.147-6.698-30.114-10.878-49.935,3.806-51.359,6.656,0,0,22.074-6.146,38.1,2.905,17.722,10.008,62.764,11.33,77.255,12.666Z"/>
    </g>
    <g id="Hand8_Think">
      <path class="cls-7" d="M137.424,544.108c-10.839,0-21.664-2.355-31.983-7.03-3.167-1.464-7.751-3.878-11.841-7.164-12.84-9.846-20.752-22.254-26.447-41.472-1.849-6.238-1.134-16.876-.703-20.448,1.458-12.072,3.689-23.898,5.883-34.881,2.889-14.456,2.197-25.396-2.241-35.473-1.739-3.949-3.673-8.001-5.748-12.041-.982-1.913-2.025-3.777-3.128-5.751-1.671-2.987-3.399-6.077-4.885-9.326-2.663-5.82-2.965-11.456-.876-16.295,2.03-4.701,6.126-8.21,11.847-10.147,13.451-4.558,24.722,1.367,32.031,6.218,11.917,7.911,18.421,14.681,25.777,26.828,2.186,3.61,4.206,7.384,6.005,11.22.538.856.699,1.075,1.501,1.474,1.947-.598,6.085-2.856,7.747-3.763l.445-.243c3.543-1.93,7.13-3.776,10.6-5.562,5.689-2.929,11.063-5.696,16.239-8.784,6.943-4.385,13.833-8.017,21.125-11.862,1.579-.832,3.168-1.67,4.77-2.522,11.005-5.869,21.898-11.599,34.094-17.136,1.363-.631,2.785-1.297,4.218-1.969,3.485-1.633,7.089-3.321,10.536-4.818,5.842-2.53,14.662-6.346,23.204-3.579,7.492,2.341,12.77,9.282,12.899,16.935.566,7.881-3.301,15.065-10.906,20.25-7.413,4.908-16.002,9.845-24.308,14.618-5.052,2.903-9.822,5.646-14.199,8.3-1.332.821-2.739,1.668-4.165,2.526-2.841,1.71-5.741,3.455-8.485,5.267,6.917,7.135,9.985,15.99,9.004,25.956,6.518,2.772,11.634,9.226,12.473,16.416.666,5.685.534,11.289-.381,16.204-.64,3.437-1.667,6.681-3.118,9.823,4.106,4.713,5.269,12.493,2.696,19.308-3.02,8.002-7.999,14.454-15.223,19.726l-.125.089c-1.026.701-2.09,1.385-3.17,2.035l-.012.014-.891.52c-1.779,1.033-3.597,1.969-5.408,2.783-7.836,4.095-12.545,6.911-16.463,10.865-12.129,11.923-28.09,17.693-39.353,20.442-6.281,1.638-12.66,2.452-19.034,2.452ZM77,352.455c-2.197,0-4.344.368-6.49,1.095-2.068.701-4.766,2.074-5.874,4.641-1.184,2.741-.224,5.957.79,8.172,1.317,2.881,2.872,5.661,4.518,8.604,1.098,1.963,2.233,3.992,3.296,6.063,2.166,4.217,4.186,8.448,6.004,12.579,6.894,15.651,4.954,31.159,2.896,41.462-2.155,10.786-4.344,22.385-5.762,34.121-.546,4.522-.724,12.74.363,16.407,5.121,17.283,11.781,27.832,22.986,36.411l.098.077c3.309,2.667,7.144,4.679,9.778,5.896,14.242,6.451,29.611,7.833,44.408,3.976,10.117-2.471,24.283-7.551,34.743-17.831,4.819-4.865,10.193-8.105,19.024-12.716l.277-.134c1.395-.622,2.8-1.335,4.185-2.121l.099-.107.67-.337c1.037-.613,2.058-1.262,3.038-1.93,5.646-4.136,9.365-8.946,11.701-15.134,1.495-3.963.534-8.038-1.213-9.541-.327-.281-.48-.356-.486-.36l-5.116-2.273,2.84-4.825c1.952-3.323,3.234-6.734,3.921-10.429.734-3.942.831-8.512.281-13.215-.502-4.3-4.324-8.339-8.406-8.938-.074-.004-.146-.009-.219-.016l-5.633-.506,1.237-5.715c1.992-9.415-.458-16.961-7.483-23.081-.467-.406-1.05-.812-1.78-1.24l-6.356-3.719,5.802-4.536c4.533-3.544,9.663-6.631,14.623-9.616,1.395-.84,2.771-1.668,4.105-2.49,4.508-2.733,9.329-5.504,14.432-8.438,8.172-4.696,16.621-9.553,23.714-14.249,3.176-2.165,6.937-5.925,6.502-11.329l-.017-.373c-.019-3.373-2.5-6.587-5.899-7.642l-.069-.021c-4.573-1.493-10.254.678-16.157,3.234-3.312,1.439-6.851,3.097-10.272,4.7-1.447.678-2.884,1.352-4.294,2.004-11.96,5.431-22.698,11.078-33.559,16.871-1.617.86-3.217,1.704-4.808,2.542-7.132,3.761-13.87,7.313-20.5,11.504l-.107.066c-5.462,3.262-11.248,6.241-16.843,9.122-3.418,1.76-6.953,3.579-10.394,5.453l-.438.239c-8.235,4.492-12.239,6.119-15.712,4.536-4.091-1.858-5.186-3.141-6.875-5.834l-.383-.683c-1.681-3.608-3.575-7.157-5.628-10.549-6.651-10.984-11.967-16.516-22.753-23.676-6.265-4.159-11.667-6.174-16.802-6.174Z"/>
      <path class="cls-5" d="M264.076,334.344c-6.398-2.088-13.294.628-19.695,3.4-4.782,2.077-9.885,4.536-14.679,6.754-11.694,5.31-22.269,10.841-33.813,16.997-8.836,4.702-17.319,8.982-25.626,14.232-8.616,5.146-17.918,9.497-27.064,14.477-3.53,1.922-9.853,5.451-11.689,4.616-4.357-1.981-3.323-2.279-6.768-7.012l-.287,2.084c-5.064.399-2.495,8.665-4.508,14.71-.798,2.779-1.592,5.495-2.411,8.353-8.354,28.985-19.139,66.24-27.554,95.46-.541,1.955-.982,3.358-1.063,5.149.448,8.776,11.029,15.465,18.586,18.96,15.112,6.846,31.688,8.467,47.768,4.275,13.321-3.252,26.974-9.262,36.986-19.104,4.327-4.367,9.276-7.381,17.834-11.848,1.79-.799,3.534-1.702,5.231-2.695.022-.011.042-.021.064-.033.008-.004.009-.009.017-.013,1.199-.704,2.376-1.449,3.528-2.237,6.458-4.713,10.831-10.402,13.493-17.453,2.112-5.596.96-12.009-2.631-15.098-.604-.52-1.167-.893-1.711-1.135,2.094-3.566,3.683-7.514,4.526-12.047.865-4.648.909-9.77.331-14.71-.785-6.72-6.564-12.6-13.009-13.352-.043-.005-.091.003-.134,0,.009-.044.022-.085.031-.129,2.175-10.165.05-20.016-9.075-27.964-.778-.677-1.642-1.26-2.539-1.785,5.554-4.342,12.332-8.128,18.272-11.789,11.734-7.117,26.682-15.093,38.283-22.775,5.309-3.619,9.275-9.056,8.725-15.899-.033-5.707-4.135-10.75-9.418-12.388Z"/>
      <path class="cls-6" d="M129.147,471.54c2.029-4.967,3.679-10.079,5.066-15.26,6.788-25.348.394-53.814-13.381-76.565-7.034-11.617-12.945-17.738-24.265-25.253-8.538-5.668-17.645-9.041-27.661-5.648-8.997,3.048-12.155,10.603-8.027,19.628,2.331,5.097,5.348,9.875,7.914,14.871,2.076,4.043,4.044,8.15,5.876,12.309,5.568,12.643,5.167,25.461,2.568,38.468-2.282,11.422-4.423,22.911-5.822,34.501-.566,4.686-.847,13.771.533,18.427,5.241,17.689,12.29,29.756,25.628,39.648,0,0,10.343-13.551,12.57-17.786,7.057-13.421,15.852-29.632,19.002-37.342Z"/>
    </g>
  </g>
</svg>