<?xml version="1.0" encoding="UTF-8"?>
<svg id="Layer_2" data-name="Layer 2" xmlns="http://www.w3.org/2000/svg" xmlns:xlink="http://www.w3.org/1999/xlink" viewBox="0 0 323.76 406.12">
  <defs>
    <style>
      .cls-1 {
        fill: url(#linear-gradient-2);
      }

      .cls-2 {
        fill: #231f20;
      }

      .cls-3 {
        fill: url(#radial-gradient);
      }

      .cls-4 {
        fill: #971c1f;
      }

      .cls-5 {
        fill: url(#linear-gradient-3);
      }

      .cls-6 {
        fill: #1b1b1b;
      }

      .cls-7 {
        fill: url(#linear-gradient);
      }

      .cls-8 {
        fill: #414042;
      }

      .cls-9 {
        fill: #7f1717;
      }
    </style>
    <linearGradient id="linear-gradient" x1="297.65" y1="-88.86" x2="71.09" y2="349.01" gradientUnits="userSpaceOnUse">
      <stop offset="0" stop-color="#1c75bc"/>
      <stop offset="1" stop-color="#2e3192"/>
    </linearGradient>
    <radialGradient id="radial-gradient" cx="221.71" cy="144.5" fx="205.22" fy="131.86" r="313.83" gradientUnits="userSpaceOnUse">
      <stop offset="0" stop-color="#d29571"/>
      <stop offset="1" stop-color="#c19776"/>
    </radialGradient>
    <linearGradient id="linear-gradient-2" x1="255.88" y1="315.69" x2="178.85" y2="315.69" gradientUnits="userSpaceOnUse">
      <stop offset="0" stop-color="#fff"/>
      <stop offset="1" stop-color="#d1d3d4"/>
    </linearGradient>
    <linearGradient id="linear-gradient-3" x1="263.59" y1="204.76" x2="200.98" y2="339.37" gradientUnits="userSpaceOnUse">
      <stop offset="0" stop-color="#d19878"/>
      <stop offset=".89" stop-color="#996955"/>
    </linearGradient>
  </defs>
  <g id="Bitmojis">
    <g id="Ethic_Side_Disapprove">
      <path class="cls-7" d="M308.28,92.1C286.6,17.78,245.02,4.09,212.57.97c-38.87-3.74-143.5,0-182.11,74.08C-8.15,149.13-1.5,211.94,4.93,251.56c8.29,51.08,45.31,126.78,147.77,148.43,41.06,8.68,71.5,5.59,71.5,5.59"/>
      <path class="cls-3" d="M317.95,202.3c20.23,114.42-15.9,150.84-54.64,187.47-14.35,13.57-46.69,26.5-86.17,2.48-49.72-30.26-102.76-81.26-98.71-207.31,2.3-71.75,32.28-103.36,110.71-103.36s141.07-17.44,128.81,120.72Z"/>
      <circle class="cls-2" cx="181.15" cy="202.3" r="13.84"/>
      <circle class="cls-2" cx="272.76" cy="202.3" r="13.84"/>
      <path class="cls-8" d="M249.16,43.59c48.9,7.1,68.53,56.75,71.41,95.53.22,2.97.48,26.69-1.09,29.3-16.74-59.83-71.02-102.13-140.26-72.04-67.98,29.54-86.22,69.8-96.59,131.28-1.1,6.54-2.04,12.28-1.7,14.65-6.21-42.54-5.18-75.25,2.2-108.31C99.36,61.18,168.35,31.85,249.16,43.59Z"/>
      <path class="cls-6" d="M166.93,183.26c-16.23-4.97-32.33-1.97-49.4-1.04-.68-1.42,7.92-5.32,9.26-5.92,31.03-13.94,51.11-8.56,81.45,6.19,5.96,2.9,5.29,6.82,3.05,11.14-1.26,2.43-3.21,3.85-5.92,3.44-2.7-.41-4.29-1.24-10.41-3.32-6.13-2.08-11.8-5.51-28.03-10.48Z"/>
      <path class="cls-6" d="M254.94,181.31c-5.42,1.84-4.67,5.86-2.84,9.89.88,1.94,2.87,3.13,4.91,2.91s3.57-.87,8.57-2.28c5.21-1.47,10.1-4.13,23.88-7.56,8.64-2.15,15.93-1.36,24.39-.17,1.01.14,3.47.53,3.19-.5-.48-1.76-7.79-9.27-18.34-10.69-12.52-1.69-26.34,2.47-43.76,8.4Z"/>
      <path class="cls-1" d="M175.71,308.74s17.55-14.59,33.87-10.71c16.32,3.88,52.83,24.16,52.83,24.16,0,0-1.91,12.55-36.09,11.77s-50.61-25.22-50.61-25.22Z"/>
      <path class="cls-4" d="M175.14,308.99c13.11,18.48,34.25,25.88,57.51,29.27,18.92,2.76,32.38-2.02,30.54-15.61-7.84,1.59-23.39,1.24-36.09-.32-17.87-2.19-26.75-4.12-51.39-13.59l-.57.25"/>
      <path class="cls-9" d="M264.64,323.44c3.38.2-2.53-10.98-7.16-14.06-6.19-4.12-16.93-3.53-16.93-3.53,0,0-3.33-1.43-7.7-4.26-34.35-22.25-49.24-3.02-57.72,7.4,0,0,27.15-11.81,39.86-3.97,15.69,9.68,34.85,17.54,49.64,18.41Z"/>
      <path class="cls-8" d="M244.6,166.44c-5.08,4.04-7.93,10.96-7.15,17.41.16,1.29,1.04,2.57,2.5,2.5,1.22-.05,2.67-1.11,2.5-2.5-.09-.72-.13-1.45-.13-2.18,0-.35.02-.7.04-1.04.01-.19.03-.38.05-.57,0-.08.09-.62.02-.23s.03-.15.04-.23c.03-.19.07-.37.11-.56.08-.37.16-.74.26-1.11.08-.31.18-.61.27-.91.06-.18.22-.97.39-1.07-.16.09-.17.38,0-.01.08-.17.16-.35.24-.52.15-.31.31-.62.48-.93.34-.61.73-1.18,1.13-1.76.37-.52-.33.4.07-.1.12-.15.24-.29.36-.44.21-.24.42-.47.64-.7.53-.55,1.09-1.06,1.69-1.53,1.03-.82.92-2.69,0-3.54-1.09-1-2.44-.87-3.54,0h0Z"/>
      <path class="cls-8" d="M214.56,170.45c-.5-.39,0,.01.08.07.15.12.29.24.43.36.26.23.52.46.77.7.5.49.98,1,1.44,1.53.1.12.21.24.31.37.15.19.37.4.09.1.26.27.47.63.68.94.41.59.78,1.2,1.14,1.83s.68,1.28.98,1.94c.04.08.33.69.06.13.07.15.13.31.19.46.13.34.26.68.38,1.03.5,1.46.86,2.97,1.09,4.5.19,1.3,1.9,2.13,3.08,1.75,1.42-.46,1.95-1.68,1.75-3.08-1-6.69-4.56-12.84-9.92-16.95-1.04-.8-2.84-.19-3.42.9-.7,1.32-.21,2.57.9,3.42h0Z"/>
      <path class="cls-5" d="M213.1,268.41c1.09,6.18,5.35,8.48,13.05,7.94,16.73-1.17,18.12,4.86,36.4,1.26,14.17-2.8,17.6-12.59,6.12-24.33-6.43-6.57-5.5-4.93-12.51-13.3-5.48-6.56-10.64-14.34-16.57-35.74-2.87-10.37-18.11-9.93-17.59,4.89,1.53,44.41-10.73,48.98-8.9,59.28Z"/>
    </g>
  </g>
</svg>