<svg width="140" height="152" viewBox="0 0 140 152" fill="none" xmlns="http://www.w3.org/2000/svg">
<path d="M139.381 82.2333C141.532 72.7514 137.894 63.8564 131.254 62.3657C124.615 60.8751 117.488 67.3532 115.336 76.8352C113.185 86.3171 116.823 95.2121 123.463 96.7028C130.102 98.1934 137.229 91.7153 139.381 82.2333Z" fill="url(#paint0_radial_1356_114436)"/>
<path d="M16.5366 96.7027C23.1763 95.2121 26.8147 86.317 24.6631 76.8351C22.5115 67.3532 15.3847 60.875 8.74497 62.3657C2.10523 63.8563 -1.53313 72.7514 0.618472 82.2333C2.77007 91.7152 9.89686 98.1934 16.5366 96.7027Z" fill="url(#paint1_radial_1356_114436)"/>
<path d="M131.062 75.6795C131.062 117.2 102.304 151.5 69.992 151.5C37.68 151.5 8.92188 117.2 8.92188 75.6795C8.92188 34.1587 36.2635 0.5 69.9916 0.5C103.72 0.5 131.062 34.1591 131.062 75.6795Z" fill="url(#paint2_radial_1356_114436)"/>
<path d="M131.062 75.6795C131.062 117.2 102.304 151.5 69.992 151.5C37.68 151.5 8.92188 117.2 8.92188 75.6795C8.92188 34.1587 36.2635 0.5 69.9916 0.5C103.72 0.5 131.062 34.1591 131.062 75.6795Z" fill="url(#paint3_radial_1356_114436)"/>
<path d="M51.8033 76.9457C54.7122 76.9457 57.0704 74.6001 57.0704 71.7066C57.0704 68.8132 54.7122 66.4675 51.8033 66.4675C48.8943 66.4675 46.5361 68.8132 46.5361 71.7066C46.5361 74.6001 48.8943 76.9457 51.8033 76.9457Z" fill="#231F20"/>
<path d="M88.1802 76.9457C91.0892 76.9457 93.4474 74.6001 93.4474 71.7066C93.4474 68.8132 91.0892 66.4675 88.1802 66.4675C85.2713 66.4675 82.9131 68.8132 82.9131 71.7066C82.9131 74.6001 85.2713 76.9457 88.1802 76.9457Z" fill="#231F20"/>
<path d="M39.1706 60.5363C45.605 58.459 52.3213 58.185 58.8843 59.849C63.1067 60.9196 64.9078 54.429 60.6835 53.3577C53.0016 51.4098 44.9197 51.6081 37.3713 54.0449C33.246 55.3766 35.0109 61.879 39.1706 60.5363Z" fill="url(#paint4_linear_1356_114436)"/>
<path d="M69.9916 126.687C73.3831 126.687 79.0459 126.099 82.6481 124.35C86.2119 122.653 89.3515 120.348 92.0319 117.733C93.1881 116.606 93.3875 114.78 92.4245 113.422C91.3467 111.899 89.2161 111.55 87.7026 112.646C82.507 116.357 76.461 118.073 69.9889 118.073C63.5169 118.073 57.4713 116.357 52.2753 112.646C50.7618 111.55 48.6312 111.899 47.5534 113.422C46.5904 114.78 46.7894 116.606 47.946 117.733C50.6268 120.348 53.7664 122.653 57.3298 124.35C60.932 126.1 66.5952 126.687 69.9863 126.687" fill="url(#paint5_linear_1356_114436)"/>
<path d="M100.814 60.5363C94.3798 58.459 87.6634 58.185 81.1004 59.849C76.8781 60.9196 75.0769 54.429 79.3012 53.3577C86.9832 51.4098 95.065 51.6081 102.613 54.0449C106.739 55.3766 104.974 61.879 100.814 60.5363Z" fill="url(#paint6_linear_1356_114436)"/>
<path d="M69.9918 91.8796C54.6774 91.8796 42.848 98.2764 41.8443 110.192C41.7793 110.962 42.63 111.535 43.4419 111.255L49.7496 109.072C50.3165 108.876 50.9587 109.097 51.2285 109.581L54.3201 115.123C54.6804 115.769 55.6544 115.903 56.2183 115.384L61.3001 110.705C61.7643 110.277 62.5366 110.28 62.9974 110.71L69.1399 116.451C69.603 116.883 70.3802 116.883 70.8433 116.451L76.9859 110.71C77.4466 110.28 78.2189 110.277 78.6831 110.705L83.765 115.384C84.3288 115.903 85.3024 115.769 85.6631 115.123L88.7547 109.581C89.0249 109.097 89.6667 108.876 90.2336 109.072L96.5417 111.255C97.3536 111.535 98.2043 110.962 98.1393 110.192C97.1356 98.2764 85.3062 91.8796 69.9918 91.8796Z" fill="url(#paint7_linear_1356_114436)"/>
<path d="M79.7572 98.2492C75.9096 99.0893 74.0894 100.978 69.9911 100.978C65.8927 100.978 64.0726 99.0893 60.2249 98.2492C54.5712 97.0192 54.0706 92.0693 59.7144 89.2802C63.4562 87.4258 62.8927 86.4305 63.3885 81.5298C63.764 77.7908 64.0242 75.9478 64.4721 71.4671C64.6311 69.8776 65.6663 68.3866 67.3807 67.5313C68.1173 67.1642 68.9939 66.9069 69.9907 66.9069C70.9875 66.9069 71.8641 67.1642 72.6056 67.5313C74.315 68.3866 75.3506 69.8776 75.5093 71.4671C75.9571 75.9478 76.2219 77.7908 76.5978 81.5298C77.089 86.4305 76.5255 87.4258 80.2719 89.2802C85.9108 92.0693 85.4151 97.0192 79.7568 98.2492H79.7572Z" fill="url(#paint8_linear_1356_114436)"/>
<path d="M20.5588 64.4342C19.425 71.458 19.6255 78.5446 16.9398 81.7829C14.2541 85.0212 7.30077 84.0551 6.15938 78.3043C5.45096 74.7353 5.25844 69.3781 5.54379 65.0506C5.97828 58.4564 7.13984 51.0624 10.4735 41.1689C13.4612 32.301 26.1649 33.8189 24.6438 42.1846C22.9024 51.7625 22.1541 54.5505 20.5588 64.4342Z" fill="url(#paint9_linear_1356_114436)"/>
<path d="M119.422 64.4342C120.556 71.458 120.355 78.5446 123.041 81.7829C125.727 85.0212 132.68 84.0551 133.821 78.3043C134.53 74.7353 134.722 69.3781 134.437 65.0506C134.002 58.4564 132.841 51.0624 129.507 41.1689C126.519 32.301 113.816 33.8189 115.337 42.1846C117.078 51.7625 117.827 54.5505 119.422 64.4342Z" fill="url(#paint10_linear_1356_114436)"/>
<defs>
<radialGradient id="paint0_radial_1356_114436" cx="0" cy="0" r="1" gradientUnits="userSpaceOnUse" gradientTransform="translate(132.494 57.1554) scale(44.2784 44.0427)">
<stop stop-color="#DEAD87"/>
<stop offset="1" stop-color="#FAB085"/>
</radialGradient>
<radialGradient id="paint1_radial_1356_114436" cx="0" cy="0" r="1" gradientUnits="userSpaceOnUse" gradientTransform="translate(6.82872 55.9335) scale(47.4221 47.1697)">
<stop stop-color="#DEAD87"/>
<stop offset="1" stop-color="#FAB085"/>
</radialGradient>
<radialGradient id="paint2_radial_1356_114436" cx="0" cy="0" r="1" gradientUnits="userSpaceOnUse" gradientTransform="translate(71.2757 54.8801) scale(101.254 100.715)">
<stop offset="0.071" stop-color="#FCC397"/>
<stop offset="0.372" stop-color="#FCC397"/>
<stop offset="1" stop-color="#FAB085"/>
</radialGradient>
<radialGradient id="paint3_radial_1356_114436" cx="0" cy="0" r="1" gradientUnits="userSpaceOnUse" gradientTransform="translate(76.3313 41.1681) scale(54.9188 54.6265)">
<stop stop-color="white" stop-opacity="0.9"/>
<stop offset="0.72" stop-color="white" stop-opacity="0"/>
</radialGradient>
<linearGradient id="paint4_linear_1356_114436" x1="50.9383" y1="50.6068" x2="42.9405" y2="77.3666" gradientUnits="userSpaceOnUse">
<stop stop-color="#725341"/>
<stop offset="0.523" stop-color="#583B29"/>
<stop offset="1" stop-color="#462A19"/>
</linearGradient>
<linearGradient id="paint5_linear_1356_114436" x1="87.0033" y1="121.731" x2="40.1854" y2="109.682" gradientUnits="userSpaceOnUse">
<stop stop-color="white"/>
<stop offset="1" stop-color="#D1D3D4"/>
</linearGradient>
<linearGradient id="paint6_linear_1356_114436" x1="89.0464" y1="50.6068" x2="97.0442" y2="77.3666" gradientUnits="userSpaceOnUse">
<stop stop-color="#725341"/>
<stop offset="0.523" stop-color="#583B29"/>
<stop offset="1" stop-color="#462A19"/>
</linearGradient>
<linearGradient id="paint7_linear_1356_114436" x1="74.5642" y1="90.7477" x2="67.1614" y2="122.006" gradientUnits="userSpaceOnUse">
<stop stop-color="#725341"/>
<stop offset="0.523" stop-color="#583B29"/>
<stop offset="1" stop-color="#462A19"/>
</linearGradient>
<linearGradient id="paint8_linear_1356_114436" x1="68.3052" y1="100.922" x2="76.2974" y2="68.2813" gradientUnits="userSpaceOnUse">
<stop stop-color="#DEAD87"/>
<stop offset="1" stop-color="#FAB085"/>
</linearGradient>
<linearGradient id="paint9_linear_1356_114436" x1="23.8905" y1="59.3389" x2="4.84485" y2="59.5103" gradientUnits="userSpaceOnUse">
<stop stop-color="#725341"/>
<stop offset="0.523" stop-color="#583B29"/>
<stop offset="1" stop-color="#462A19"/>
</linearGradient>
<linearGradient id="paint10_linear_1356_114436" x1="116.091" y1="59.3388" x2="135.136" y2="59.5102" gradientUnits="userSpaceOnUse">
<stop stop-color="#725341"/>
<stop offset="0.523" stop-color="#583B29"/>
<stop offset="1" stop-color="#462A19"/>
</linearGradient>
</defs>
</svg>
