<svg width="228" height="82" viewBox="0 0 228 82" fill="none" xmlns="http://www.w3.org/2000/svg">
<path d="M77.0897 26.4073L77.0732 26.4456C76.8808 26.8829 76.7037 27.3377 76.532 27.7784C76.3549 28.2321 76.1723 28.7011 75.9712 29.157C74.5695 32.3288 72.4922 35.1649 70.8008 38.118L70.6696 38.3465C70.1131 39.3185 69.5763 40.3233 69.0569 41.2952C68.4315 42.4673 67.7843 43.6787 67.0955 44.8464C66.844 45.2728 66.5904 45.6981 66.3367 46.1234C65.3713 47.7415 64.7022 49.633 63.8439 51.3419C63.5225 51.9826 62.9835 53.0562 61.9962 53.2322C61.9087 53.2476 61.8191 53.2552 61.7305 53.2552C61.2199 53.2552 60.7301 52.9928 60.4502 52.5708C60.0271 51.9323 60.2097 51.1997 60.3431 50.6662C60.9848 48.0848 61.842 45.6172 62.9299 42.7056C63.3596 41.5544 63.8352 40.32 64.3982 39.09C64.4562 38.9621 64.7066 38.5094 65.1089 37.7813C65.5178 37.0411 66.0535 36.0713 66.2022 35.763C66.1924 35.7509 66.1826 35.7378 66.1738 35.7258C65.1625 34.3777 64.4693 32.8099 63.7991 31.2934L63.4919 30.6002C62.7473 28.9253 62.3373 28.0036 61.8038 25.6977C61.6037 24.8351 62.0913 23.9823 62.9135 23.756C63.1004 23.7046 63.8002 23.7046 63.8297 23.7046C63.9237 23.7046 64.0473 23.7057 64.1151 23.7122C64.7896 23.7418 65.3877 24.2338 65.6053 24.9379C65.6742 25.1609 65.7518 25.3982 65.8567 25.6168C66.1847 26.3024 66.4493 27.1366 66.7063 27.9424C66.902 28.5568 67.0867 29.1374 67.2967 29.6578C67.6761 30.597 67.9057 31.1086 68.1451 31.5471C68.2883 31.8084 68.5518 31.9647 68.8514 31.9647C69.1028 31.9647 69.3357 31.8499 69.4899 31.6488C69.6287 31.4673 69.7709 31.2803 69.9119 31.0944C70.3361 30.5357 70.7735 29.9585 71.1222 29.5408C72.3916 28.0189 73.4478 26.368 74.3148 24.9543C74.3607 24.8788 74.4143 24.8067 74.4766 24.7323C74.7543 24.3344 75.2354 24.096 75.7656 24.096C76.0521 24.096 76.3265 24.1682 76.5605 24.3048C77.2854 24.729 77.48 25.4944 77.0929 26.4062L77.0897 26.4073Z" fill="#C83C00"/>
<path d="M60.775 26.1722C60.9937 25.5567 61.1763 24.6744 60.2415 24.1266C60.0184 23.9954 59.7528 23.9265 59.4729 23.9265C58.9295 23.9265 58.4408 24.1835 58.1915 24.6C58.1477 24.6492 58.1095 24.6952 58.0767 24.7411C57.4174 25.6332 56.7472 26.5462 56.0835 27.4547C55.8835 27.7292 55.6899 28.0309 55.4855 28.3502C55.2209 28.7634 54.9476 29.1909 54.6535 29.5616C54.5725 29.6633 54.4687 29.6786 54.4151 29.6786C54.2937 29.6786 54.1538 29.6053 54.1144 29.4424C54.039 29.1264 53.992 28.7875 53.9472 28.4595C53.9187 28.2518 53.8914 28.055 53.8575 27.868C53.7012 27.001 53.5295 26.158 53.1512 25.3807C52.6811 24.4153 51.9802 23.826 51.1766 23.721C51.1001 23.7112 51.0225 23.7057 50.946 23.7057C50.6234 23.7057 50.3118 23.7921 50.044 23.9572C49.2841 24.424 49.2469 25.2014 49.2732 25.8934C49.3661 28.3917 49.9838 30.9053 51.0608 33.1619C51.591 34.2728 52.1279 35.0906 52.7511 35.7345C53.2409 36.2408 53.7274 36.4988 54.1964 36.4988C54.25 36.4988 54.3036 36.4955 54.3561 36.4889C55.3455 36.3643 56.0726 35.096 56.604 34.17C56.7144 33.9776 56.8183 33.7961 56.9101 33.6528C57.6721 32.4567 58.4003 31.1819 59.0749 29.8655C59.5899 28.8608 60.0873 27.8046 60.552 26.7266C60.6318 26.5407 60.7094 26.3592 60.7761 26.1722H60.775Z" fill="#C83C00"/>
<path d="M47.832 24.1266C47.6089 23.9954 47.3422 23.9265 47.0634 23.9265C46.52 23.9265 46.0313 24.1835 45.7809 24.6C45.7361 24.6503 45.6989 24.6952 45.6661 24.7411C45.0013 25.6409 44.3311 26.5538 43.6729 27.4547C43.4729 27.7292 43.2793 28.0309 43.0749 28.3502C42.8103 28.7634 42.537 29.1898 42.2429 29.5605C42.1619 29.6622 42.0581 29.6775 42.0045 29.6775C41.8831 29.6775 41.7432 29.6042 41.7038 29.4413C41.6284 29.1242 41.5814 28.7864 41.5366 28.4584C41.5081 28.2507 41.4808 28.0539 41.4469 27.868C41.2906 27.001 41.1189 26.158 40.7406 25.3807C40.2705 24.4153 39.5697 23.826 38.7661 23.721C38.6895 23.7112 38.6119 23.7057 38.5354 23.7057C38.2128 23.7057 37.9001 23.7921 37.6334 23.9572C36.8724 24.424 36.8363 25.2014 36.8626 25.8934C36.9555 28.3917 37.5732 30.9053 38.6502 33.1619C39.1804 34.2728 39.7173 35.0906 40.3405 35.7345C40.8303 36.2408 41.3168 36.4988 41.7858 36.4988C41.8394 36.4988 41.893 36.4955 41.9466 36.4889C42.936 36.3643 43.6631 35.096 44.1945 34.17C44.3049 33.9776 44.4087 33.7961 44.5006 33.6528C45.2626 32.4567 45.9908 31.183 46.6665 29.8655C47.1814 28.8608 47.6789 27.8046 48.1436 26.7266C48.2234 26.5407 48.301 26.3592 48.3677 26.1722C48.5864 25.5567 48.769 24.6744 47.8342 24.1266H47.832Z" fill="#C83C00"/>
<path d="M35.5475 34.1033C35.4852 33.8157 35.4272 33.5435 35.3824 33.2756C35.2239 32.3376 35.1911 31.4312 35.2796 30.504L35.2938 30.3619C35.4568 28.6749 35.6404 26.7627 34.4476 25.2593C33.4297 23.9757 31.8422 23.7068 30.6898 23.7068C30.2634 23.7068 29.825 23.744 29.3866 23.8161C27.0731 24.1999 25.5151 25.7655 24.4152 27.0852C24.3135 27.2076 24.2326 27.3443 24.1757 27.4908C24.1014 27.657 24.0719 27.8451 24.0894 28.0386L24.0926 28.0637C24.108 28.2266 24.1572 28.3819 24.2348 28.5164C24.4567 28.9373 24.8645 29.1986 25.2997 29.1986C25.4987 29.1986 25.6955 29.145 25.8857 29.0401C26.6346 28.6268 27.3912 28.3305 28.2003 28.1348C28.2659 28.1184 28.3381 28.1009 28.4135 28.0812C28.7601 27.9916 29.1909 27.8811 29.567 27.8811C29.8239 27.8811 30.0185 27.9347 30.1442 28.0408C30.2612 28.1392 30.3301 28.278 30.3356 28.4311C30.3421 28.5907 30.2787 28.7481 30.1628 28.8629C30.0152 29.0073 29.7714 29.0882 29.5353 29.1658C29.4467 29.1953 29.3603 29.2237 29.2794 29.2555C28.8071 29.438 28.3512 29.6337 27.9237 29.8371L27.8384 29.8776C27.0589 30.2493 26.1754 30.6702 25.5391 31.2759C24.8536 31.9287 24.7148 32.9455 24.6699 33.7589C24.6437 34.2465 24.6415 35.4809 25.1991 36.4026C25.7578 37.3243 26.7768 37.4609 27.494 37.4828C27.5476 37.485 27.6012 37.485 27.6558 37.485C28.6584 37.485 29.7004 37.1931 30.5914 36.6628C30.8374 36.5163 31.1173 36.4387 31.3994 36.4387C31.7427 36.4387 32.0685 36.5491 32.3418 36.759C32.648 36.9941 32.9519 37.1843 33.2449 37.3232C33.5565 37.4708 33.9173 37.5517 34.2628 37.5517C35.1769 37.5517 35.7869 37.0094 35.8186 36.1686C35.8438 35.4885 35.6929 34.7823 35.5453 34.1L35.5475 34.1033ZM30.1934 33.4965C30.1038 33.7906 29.8152 34.0563 29.3811 34.2443C29.0706 34.3788 28.736 34.4564 28.4638 34.4564C28.2976 34.4564 28.0713 34.4269 27.9423 34.2837C27.8395 34.1711 27.8001 33.9907 27.8242 33.748C27.8832 33.1423 28.5709 32.3736 29.2586 32.3736C29.3286 32.3736 29.3975 32.3824 29.4631 32.3999C29.6894 32.4589 29.8851 32.5606 30.0327 32.6951C30.2131 32.9848 30.2678 33.2549 30.1934 33.4965Z" fill="#C83C00"/>
<path d="M22.271 30.3466C22.0054 30.2624 21.6621 30.222 21.2214 30.222C20.5731 30.222 19.682 30.3127 18.4958 30.4997C18.7188 30.258 18.9878 29.9967 19.1572 29.8327L19.2206 29.7704C19.6547 29.3484 20.8235 28.3524 21.6774 27.6264L21.6938 27.6133C22.0797 27.2853 22.4121 27.001 22.5826 26.8512C23.4037 26.1263 23.2857 24.9204 22.8396 24.3759C22.575 24.0534 21.9693 23.7079 21.0585 23.7079C21.029 23.7079 20.9984 23.7079 20.9689 23.709C19.8559 23.7363 18.5756 24.2535 17.1608 25.244C14.0918 27.3957 11.025 29.6108 10.1678 30.9818C10.0082 31.2377 9.52169 32.0161 9.94043 32.6557C10.0924 32.8875 10.4171 33.1652 11.0961 33.1652C11.2393 33.1652 11.3946 33.1532 11.5564 33.128C12.1205 33.0439 12.2824 33.0056 13.3352 32.7563L13.9442 32.6131C14.0437 32.5901 14.1366 32.5715 14.2186 32.5595C14.223 32.5595 14.2263 32.5595 14.2307 32.5595C14.2646 32.5595 14.2842 32.5825 14.2908 32.5923C14.3039 32.612 14.3061 32.6339 14.2941 32.6634L14.2788 32.7016C14.1902 32.9181 13.9081 33.2232 11.5258 35.5159C8.75198 38.1847 7.89153 40.4884 8.26764 41.5872C8.41961 42.03 8.7826 42.3241 9.23961 42.3722C9.34238 42.3831 9.44406 42.3886 9.54246 42.3886C10.709 42.3886 11.3825 41.6287 12.2364 40.6677C12.8837 39.9384 13.6906 39.031 14.9971 38.0896C16.8022 36.7896 18.9954 35.3891 20.5961 34.3679C21.4981 33.7917 22.2109 33.3369 22.6537 33.0307C23.3152 32.5726 23.6104 32.0719 23.5306 31.5416C23.4136 30.7686 22.5367 30.4352 22.271 30.351V30.3466Z" fill="#C83C00"/>
<path d="M23.9874 43.8875C23.9874 43.8875 21.2836 51.0095 21.6029 55.209C21.9494 59.754 26.3982 58.3982 26.4944 56.6861C26.571 55.3172 25.4951 53.2716 26.1402 52.41C26.7864 51.5485 26.817 51.2107 29.9854 50.9023C33.1539 50.594 32.8773 49.364 33.0009 47.9186C33.1244 46.4733 29.5853 47.4879 27.9245 47.4573C26.2561 47.4266 26.7208 46.4186 27.1559 45.5494C27.4948 44.8726 31.3401 44.6878 33.8012 44.4725C36.2623 44.2571 37.8432 44.4222 37.8312 41.9807C37.8279 41.2362 37.5546 40.2577 34.139 40.32C30.7234 40.3823 25.1584 40.4053 23.9863 43.8886L23.9874 43.8875Z" fill="#C83C00"/>
<path d="M43.9607 48.3319C43.3145 44.409 40.4062 44.5249 39.8224 44.5479C38.6558 44.5938 34.8849 45.5472 34.593 50.6859C34.3011 55.8234 38.6995 55.1467 39.9306 54.8548C41.1617 54.5628 44.6068 52.2548 43.9607 48.333V48.3319ZM39.4157 50.6082C38.424 50.781 37.9823 49.9555 38.0424 49.247C38.1004 48.5779 38.5454 48.0509 39.1183 47.771C39.1183 47.771 40.7801 47.0243 41.1573 48.544C41.5236 50.0189 40.4073 50.4355 39.4157 50.6093V50.6082Z" fill="#C83C00"/>
<path d="M52.3718 45.9562C52.3718 45.9562 54.1616 42.9211 54.7673 42.3799C55.6288 41.6113 57.8494 42.8052 57.751 43.9947C57.6242 45.5483 54.6164 47.6421 53.6903 49.1104C53.3361 49.6713 53.1185 50.382 53.967 51.2862C54.6295 51.9924 57.0097 54.107 57.2131 55.0549C57.4284 56.0629 56.8905 57.1082 55.7983 57.4547C54.1124 57.9894 52.2297 53.7943 51.1986 53.2859C49.8626 52.6277 49.2449 53.9167 48.614 54.5323C47.8847 55.244 46.5225 57.9314 44.491 56.1165C41.8878 53.7899 48.0444 51.1014 48.0291 49.656C48.0203 48.8469 47.2583 48.0182 46.4634 47.1446C45.5461 46.1366 43.5781 44.8257 45.029 43.2108C47.0746 40.9345 48.3396 43.9455 49.3247 45.1602C50.6924 46.8483 51.3801 47.5929 52.3707 45.9562H52.3718Z" fill="#C83C00"/>
<path d="M100.988 26.6H104.24V35H102.956V31.328H100.232V35H98.96V28.7L100.988 26.6ZM100.232 29.06V30.14H102.956V27.788H101.456L100.232 29.06ZM114.251 26.6H117.803L118.571 27.764L117.707 28.604L117.155 27.788H114.743L114.479 28.076V29.528L114.887 30.104H117.911L118.835 31.496V34.028L117.899 35H113.795L113.147 34.076L113.975 33.212L114.419 33.812H117.359L117.551 33.656V31.7L117.263 31.304H114.239L113.195 29.756V27.704L114.251 26.6ZM122.574 26.6H125.826V35H124.542V31.328H121.818V35H120.546V28.7L122.574 26.6ZM121.818 29.06V30.14H124.542V27.788H123.042L121.818 29.06ZM131.905 26.6H133.189V32.18L130.501 35H129.505L127.573 32.132V26.6H128.857V31.904L130.081 33.728L131.905 31.82V26.6ZM139.101 26.6H140.385V32.18L137.697 35H136.701L134.769 32.132V26.6H136.053V31.904L137.277 33.728L139.101 31.82V26.6ZM146.296 26.6H147.58V28.796L145.408 31.052V35H144.124V31.136L141.952 27.908V26.6H143.236V27.716L144.76 29.984H144.784L146.296 28.412V26.6ZM157.903 26.6H161.947V27.788H158.395L157.915 28.292V30.068H160.531V31.268H157.915V35H156.631V27.896L157.903 26.6ZM164.606 26.6H168.158L169.178 28.148V33.896L168.134 35H164.594L163.538 33.452V27.704L164.606 26.6ZM164.834 33.236L165.218 33.812H167.606L167.882 33.512V28.364L167.498 27.788H165.098L164.834 28.088V33.236ZM174.921 26.6H176.217V29.06L175.053 30.236L176.217 31.94V35H174.921V32.168L174.273 31.256H173.493L172.173 32.624V35H170.889V32.24L172.053 31.052L170.889 29.348V26.6H172.173V29.12L172.797 30.068H173.613L174.921 28.7V26.6ZM99.86 41.6H103.412L104.18 42.764L103.316 43.604L102.764 42.788H100.352L100.088 43.076V44.528L100.496 45.104H103.52L104.444 46.496V49.028L103.508 50H99.404L98.756 49.076L99.584 48.212L100.028 48.812H102.968L103.16 48.656V46.7L102.872 46.304H99.848L98.804 44.756V42.704L99.86 41.6ZM105.663 41.6H111.927V42.788H108.603L109.443 43.46V50H108.159V43.724L107.775 42.788H105.663V41.6ZM117.527 41.6H118.811V50H117.527V49.532L116.759 50H114.215L113.171 48.452V41.6H114.455V48.224L114.839 48.812H117.239L117.527 48.512V41.6ZM120.486 41.6H124.434L126.126 44.12V48.908L125.082 50H120.486V41.6ZM121.77 42.788V48.812H124.554L124.842 48.524V44.348L123.786 42.788H121.77ZM127.561 41.6H133.201V42.8H131.017V48.8H133.201V50H127.561V48.8H129.733V42.8H127.561V41.6ZM135.825 41.6H139.377L140.397 43.148V48.896L139.353 50H135.813L134.757 48.452V42.704L135.825 41.6ZM136.053 48.236L136.437 48.812H138.825L139.101 48.512V43.364L138.717 42.788H136.317L136.053 43.088V48.236ZM143.032 41.6H146.584L147.352 42.764L146.488 43.604L145.936 42.788H143.524L143.26 43.076V44.528L143.668 45.104H146.692L147.616 46.496V49.028L146.68 50H142.576L141.928 49.076L142.756 48.212L143.2 48.812H146.14L146.332 48.656V46.7L146.044 46.304H143.02L141.976 44.756V42.704L143.032 41.6ZM156.343 41.6H160.951L161.983 43.148V45.212L160.939 46.28H157.627V50H156.343V41.6ZM157.639 42.788V45.56L158.407 45.116H160.423L160.699 44.828V43.376L160.303 42.788H157.639ZM163.538 41.6H167.81L169.178 43.592V44.936L168.05 46.1L169.178 47.744V50H167.894V47.948L166.754 46.304H165.566L164.822 45.836V50H163.538V41.6ZM164.822 42.788V45.104H167.378L167.894 44.576V43.832L167.174 42.788H164.822ZM171.801 41.6H175.353L176.373 43.148V48.896L175.329 50H171.789L170.733 48.452V42.704L171.801 41.6ZM172.029 48.236L172.413 48.812H174.801L175.077 48.512V43.364L174.693 42.788H172.293L172.029 43.088V48.236ZM178.048 41.6H181.996L183.688 44.12V48.908L182.644 50H178.048V41.6ZM179.332 42.788V48.812H182.116L182.404 48.524V44.348L181.348 42.788H179.332ZM189.48 41.6H190.764V50H189.48V49.532L188.712 50H186.168L185.124 48.452V41.6H186.408V48.224L186.792 48.812H189.192L189.48 48.512V41.6ZM193.567 41.6H197.083L197.995 42.98L197.155 43.868L196.459 42.8H194.047L193.783 43.088V48.224L194.167 48.812H196.555L197.359 47.996L198.019 48.992L197.059 50H193.531L192.499 48.452V42.68L193.567 41.6ZM199.202 41.6H205.466V42.788H202.142L202.982 43.46V50H201.698V43.724L201.314 42.788H199.202V41.6ZM206.71 41.6H212.35V42.8H210.166V48.8H212.35V50H206.71V48.8H208.882V42.8H206.71V41.6ZM214.973 41.6H218.525L219.545 43.148V48.896L218.501 50H214.961L213.905 48.452V42.704L214.973 41.6ZM215.201 48.236L215.585 48.812H217.973L218.249 48.512V43.364L217.865 42.788H215.465L215.201 43.088V48.236ZM225.456 41.6H226.74V50H225.456V47.168L222.612 42.956H222.396V50H221.112V41.6H223.248L225.456 45.008V41.6Z" fill="#FFC4B1"/>
</svg>
