<svg width="20" height="20" viewBox="0 0 20 20" fill="none" xmlns="http://www.w3.org/2000/svg">
<g clip-path="url(#clip0_175_432)">
<path d="M1.66666 16.6666H3.33333C3.79166 16.6666 4.16666 16.2916 4.16666 15.8333V8.33329C4.16666 7.87496 3.79166 7.49996 3.33333 7.49996H1.66666V16.6666ZM18.1917 10.7333C18.2833 10.525 18.3333 10.3 18.3333 10.0666V9.16663C18.3333 8.24996 17.5833 7.49996 16.6667 7.49996H12.0833L12.85 3.62496C12.8917 3.44163 12.8667 3.24163 12.7833 3.07496C12.5917 2.69996 12.35 2.35829 12.05 2.05829L11.6667 1.66663L6.325 7.00829C6.00833 7.32496 5.83333 7.74996 5.83333 8.19163V14.725C5.83333 15.7916 6.70833 16.6666 7.78333 16.6666H14.5417C15.125 16.6666 15.675 16.3583 15.975 15.8583L18.1917 10.7333Z" fill="#FFFEFD"/>
</g>
<defs>
<clipPath id="clip0_175_432">
<rect width="20" height="20" fill="white"/>
</clipPath>
</defs>
</svg>
