<svg width="56" height="56" viewBox="0 0 56 56" fill="none" xmlns="http://www.w3.org/2000/svg">
<path d="M28 55.4999C43.1878 55.4999 55.4999 43.1878 55.4999 28C55.4999 12.8121 43.1878 0.5 28 0.5C12.8121 0.5 0.5 12.8121 0.5 28C0.5 43.1878 12.8121 55.4999 28 55.4999Z" fill="url(#paint0_linear_1359_5448)"/>
<path d="M35.5431 36.3036H20.29V49.1294H35.5431V36.3036Z" fill="url(#paint1_linear_1359_5448)"/>
<path d="M18.4338 40.4857C18.4338 40.4857 15.648 42.4615 12.0802 44.2176C10.5882 44.952 9.12244 45.9168 8.01855 46.8928C11.8962 50.9924 17.0217 53.8981 22.7873 55.0044L18.4338 40.4856L18.4338 40.4857Z" fill="url(#paint2_radial_1359_5448)"/>
<path d="M36.5662 41.7109C35.7717 40.6338 35.1601 41.097 34.7706 41.7321C34.3686 42.3873 33.9369 42.633 33.2717 42.963C33.2595 43.9576 33.2252 46.0399 31.8284 48.4885C30.9275 47.1183 29.677 45.1929 29.3721 43.3988C28.3438 43.3552 28.1605 43.406 26.7886 42.8863C22.1175 41.1166 19.5342 42.0674 19.5342 42.0674L26.0182 55.4283C26.6729 55.4749 27.3336 55.5 28.0002 55.5C31.5403 55.5 34.924 54.8305 38.0322 53.6121C37.7077 48.0181 37.2287 42.6089 36.5663 41.7109H36.5662Z" fill="url(#paint3_linear_1359_5448)"/>
<path d="M44.1312 44.2942C42.0634 43.3662 36 41.067 36 41.067L37.7729 53.7104C41.5806 52.2622 44.9832 49.993 47.7645 47.1181C46.5835 45.6504 45.1851 44.7672 44.1312 44.2942Z" fill="url(#paint4_radial_1359_5448)"/>
<path fill-rule="evenodd" clip-rule="evenodd" d="M40.6737 45.42C38.0991 41.9286 35.1934 40.0918 35.1934 40.0918C36.3161 43.7943 36.9681 48.8318 37.3398 53.8718C38.5191 53.4459 39.6606 52.9412 40.7589 52.3648L41.0593 47.4801L39.2339 46.7407L40.6738 45.42H40.6737Z" fill="#709685"/>
<path d="M26.6787 49.5467L29.9294 45.1767C29.6002 44.3123 29.5573 44.2105 29.3721 43.3988C29.3147 43.3964 29.2604 43.3942 29.2078 43.3923L26.6787 49.5467Z" fill="#BCBEC0"/>
<path d="M20.6418 41.0712C19.6734 38.0058 21.4054 39.0492 20.9646 37.7363C20.7046 37.5343 16.7506 37.9343 15.6603 44.0154C15.4134 45.3924 15.375 45.5846 15.209 46.4695L17.4859 47.3041L15.608 48.7124C15.608 48.7124 17.3501 51.1408 19.4438 54.1408C21.7832 54.906 24.2604 55.3658 26.829 55.4735C23.6831 48.4773 21.1636 42.7229 20.6418 41.0712H20.6418Z" fill="#709685"/>
<path d="M33.2718 42.963C33.2644 43.5608 33.2487 44.5516 32.9346 45.7784L36.5919 48.3199L33.3484 42.9248C33.323 42.9375 33.2979 42.9502 33.2718 42.963Z" fill="#BCBEC0"/>
<path d="M29.3722 43.3988C26.7641 42.815 23.6737 40.3312 22.2868 38.6776C21.0875 37.2477 20.743 35.0994 20.743 35.0994C20.743 35.0994 18.6896 37.25 19.9353 41.2398C20.6877 43.6498 24.5868 48.143 25.9036 49.615C26.12 49.8569 26.5077 49.8225 26.6788 49.5467L29.3722 43.3988Z" fill="url(#paint5_linear_1359_5448)"/>
<path d="M33.2781 42.9917L36.4467 48.1589C36.6471 48.4806 36.9896 48.7024 36.8847 47.4826C36.566 43.7774 35.1214 39.7754 35.1214 39.7754H34.7169C34.7169 39.7754 35.1497 41.2085 33.2902 42.9226C33.271 42.9402 33.2658 42.9686 33.2781 42.9917Z" fill="url(#paint6_linear_1359_5448)"/>
<path fill-rule="evenodd" clip-rule="evenodd" d="M40.9955 26.0275C40.779 35.7156 37.974 38.1206 36.8157 40.2055C35.1284 43.243 29.3546 43.0266 27.027 41.2139C25.6071 40.1081 20.1265 37.0783 18.7032 34.8209C16.9381 32.0213 17.0996 30.5015 17.0996 26.0275C17.0996 17.005 21.2623 12.1868 28.5525 12.1868C35.8428 12.1868 41.197 17.0072 40.9954 26.0275H40.9955Z" fill="url(#paint7_radial_1359_5448)"/>
<path d="M27.5486 27.662C28.1773 27.662 28.687 27.1523 28.687 26.5236C28.687 25.8948 28.1773 25.3851 27.5486 25.3851C26.9199 25.3851 26.4102 25.8948 26.4102 26.5236C26.4102 27.1523 26.9199 27.662 27.5486 27.662Z" fill="#231F20"/>
<path d="M36.8162 27.662C37.4449 27.662 37.9546 27.1523 37.9546 26.5236C37.9546 25.8948 37.4449 25.3851 36.8162 25.3851C36.1874 25.3851 35.6777 25.8948 35.6777 26.5236C35.6777 27.1523 36.1874 27.662 36.8162 27.662Z" fill="#231F20"/>
<path d="M22.7363 25.2749C22.7363 25.2749 23.4582 24.2421 23.8844 23.9499C24.3366 23.6397 24.679 23.3039 25.8264 23.2651C27.352 23.2136 29.2631 23.5987 29.2631 23.5987C29.2631 23.5987 30.2956 23.8012 30.5776 24.3581C30.8595 24.915 30.413 24.9911 30.2302 25.0033C29.8974 25.0256 29.2605 24.789 28.8507 24.7333C28.3026 24.6586 27.5902 24.4935 27.0501 24.4502C26.484 24.4048 25.7265 24.3194 24.8284 24.4174C24.2665 24.4787 22.7363 25.2749 22.7363 25.2749Z" fill="black"/>
<path d="M40.7158 25.2597C40.7158 25.2597 40.1125 24.2899 39.7551 24.0163C39.3759 23.7259 39.0893 23.4109 38.1244 23.3786C36.8414 23.3356 35.2329 23.7052 35.2329 23.7052C35.2329 23.7052 34.3637 23.8997 34.1246 24.4252C33.8854 24.9506 34.2607 25.0205 34.4144 25.0314C34.6942 25.0512 35.2307 24.8261 35.5756 24.772C36.0367 24.6997 36.6366 24.5417 37.091 24.4989C37.5671 24.4541 38.2046 24.3709 38.9596 24.4599C39.4319 24.5156 40.7159 25.2597 40.7159 25.2597H40.7158Z" fill="black"/>
<path d="M35.3567 30.2477C36.4974 31.3626 35.7202 32.9459 34.8388 33.0519C33.1701 33.2526 33.5359 32.4146 31.8374 32.7598C31.1519 32.8992 30.5487 31.6614 30.6882 31.0352C30.8961 30.1023 31.961 29.6858 31.8212 27.2971C31.7419 25.9411 33.2194 26.2432 33.3743 27.2288C33.5283 28.2083 34.4179 29.3301 35.3566 30.2477H35.3567Z" fill="url(#paint8_linear_1359_5448)"/>
<path d="M27.3213 35.4183L30.811 35.6889L36.5871 35.4183C36.5871 35.4183 35.7287 37.9556 32.3624 37.8831C28.9962 37.8106 27.3213 35.4183 27.3213 35.4183Z" fill="url(#paint9_linear_1359_5448)"/>
<path d="M32.6989 37.1827C34.6442 37.1659 35.977 36.1413 36.5864 35.4184C36.7005 36.7557 35.3013 38.186 33.4203 38.2799C31.1085 38.3955 28.6505 37.2527 27.1953 35.3919C27.1953 35.3919 27.1621 35.3425 27.3207 35.4183C28.0241 35.7545 30.4044 37.2025 32.699 37.1826L32.6989 37.1827Z" fill="#D97C80"/>
<path d="M36.6772 35.3761C36.9737 35.2331 35.8678 34.7995 35.2896 34.6907C34.5713 34.5556 33.5908 34.9104 33.5908 34.9104C33.5908 34.9104 33.2737 34.7222 32.7649 34.6634C30.3566 34.3847 27.2985 35.0427 27.1953 35.3919C27.1953 35.3919 29.6658 35.9312 31.6585 35.9578C33.6917 35.985 35.3281 36.0266 36.6772 35.3761Z" fill="#EA979F"/>
<path d="M38.8678 22.2251C37.6369 22.1474 37.7174 20.3855 37.4142 19.4387C37.2118 18.8064 36.1072 18.5678 36.1781 17.597C35.9039 17.6417 36.056 18.1549 35.9031 18.4195C35.3216 19.4263 32.8791 17.8439 33.4366 16.5161C32.8049 16.9672 31.9803 16.4508 31.7703 15.7534C31.5589 15.051 31.974 14.5137 30.8405 14.6663C31.4721 15.4862 31.1009 16.3356 30.1185 16.3635C30.5755 17.278 30.5841 17.9539 29.8918 18.2515C29.7416 18.3161 29.4327 18.3642 29.1919 18.2917C28.8868 18.2 28.635 18.1309 28.4319 17.8734C27.9712 17.2897 27.8689 17.0085 27.953 16.2074L27.3773 16.3633C28.0982 17.0882 27.2319 17.7855 27.2585 18.1091C27.2965 18.5717 27.7939 18.8756 27.6741 19.8399C27.606 20.3876 27.0904 20.6868 27.0908 20.7584C27.0913 20.85 27.1297 22.0394 25.9777 22.6774C25.4874 22.949 24.3062 22.1621 23.9308 21.7549C23.6982 21.5024 23.0167 20.7965 22.7669 20.7252C22.6106 21.3744 21.449 22.4817 21.4233 23.0353C21.4065 23.3947 21.9798 23.7444 22.0053 24.1363C22.0264 24.4624 21.5818 24.8896 21.5831 25.3869C21.5857 26.4063 21.14 26.0523 20.6661 26.2439C20.5084 26.3076 20.5538 26.5993 20.1676 26.6678C18.9548 26.8828 19.4479 25.9215 19.2254 25.4964C19.1896 25.428 18.9392 25.3821 18.8406 25.2224C18.6021 24.8361 18.3277 24.9426 18.1887 24.3995C17.8732 23.1671 17.7061 22.2788 17.8884 23.1208C17.9683 23.4898 17.9125 26.3068 17.8669 26.5533C17.8367 26.7167 18.0196 26.6245 17.8669 27.0468C17.0901 29.1962 16.0557 28.1757 17.9843 27.374L16.7085 28.6236C17.2448 30.4686 17.161 30.0464 17.4165 31.0049C17.564 31.5582 18.316 33.5771 18.0816 34.0941C17.822 34.6664 17.5881 35.1638 16.4496 35.2525C15.2215 35.3482 15.2068 34.8235 14.6598 34.432C12.0519 35.0684 12.2229 32.9413 12.2229 32.9413C11.3475 33.0446 11.003 32.6391 10.9233 31.7065C10.8699 31.0816 11.0249 30.5651 11.0249 30.5651C10.0381 30.3827 9.95925 28.9074 11.1131 28.8002C9.80871 28.1673 10.4771 27.2328 10.4771 27.2328C10.385 27.1579 9.43745 28.0386 8.83539 27.0088C8.44559 26.3421 8.89243 26.1242 8.86607 25.7936C8.84663 25.5507 8.52333 25.2376 8.48167 24.957C8.42777 24.5938 8.62816 24.3406 8.61142 24.0899C8.60692 24.0222 7.94449 23.8489 8.23107 22.9051C8.44064 22.215 9.38301 22.2587 9.5465 21.9931C9.68436 21.769 8.88524 20.8115 9.10209 20.3348C9.2636 19.9799 10.1059 19.2731 10.1092 19.1365C10.111 19.0622 9.67608 18.4011 9.69758 17.744C9.72152 17.0148 10.2505 16.6003 10.2515 16.5143C10.2537 16.3266 9.76111 16.0146 10.1056 15.2354C10.3821 14.6098 11.6612 14.3382 11.7109 14.2532C11.7881 14.1211 11.6907 13.5702 11.8933 13.1366C12.2345 12.4059 12.9258 12.5391 13.2415 12.1259C13.5418 11.7328 13.5485 10.8873 14.0061 10.3979C14.4047 9.97166 14.9509 10.0087 15.2506 9.79997C15.6564 9.51716 15.5463 8.49183 16.5462 8.2496C17.2934 8.06856 17.443 8.50623 17.7718 8.50488C17.8575 8.50452 17.8996 8.16538 18.0497 8.01673C18.1794 7.88833 18.3106 7.73788 18.7722 7.70027C19.0102 7.68092 19.2939 7.80816 19.3993 7.87366C20.4062 8.49885 20.6992 7.55585 21.7494 8.02987C21.7494 8.02987 21.884 7.79799 21.9675 7.69748C23.1292 6.24564 24.86 6.28055 25.8637 7.87636L26.0763 7.87609C26.1915 6.96728 26.4598 6.93579 26.9463 6.49659C27.235 6.23601 27.0775 5.67363 27.2624 5.16119C27.6687 4.0349 29.7869 4.15961 30.4089 5.02487C30.5408 5.20834 30.6848 5.46379 30.9406 5.5293C31.1473 5.5823 31.2794 5.2868 31.8419 5.2392C32.6294 5.17262 33.0105 5.19763 33.685 5.67822C34.0913 5.96787 34.1916 6.33256 34.4672 7.08678C34.5842 7.40675 36.1692 6.48238 37.0529 7.32901C37.2264 7.4952 37.3676 7.89247 37.4716 7.95473C37.5778 8.01835 37.8692 7.86178 38.0841 7.90857C39.6483 8.24942 39.9024 9.21087 39.7872 10.8087C41.4756 10.5065 42.9915 11.6714 42.819 13.5847C44.2283 13.1058 45.508 13.8987 45.0431 15.5977C46.0847 15.8351 47.186 16.5432 46.6076 17.8676C46.3574 18.4404 45.56 18.1332 45.866 19.1212C47.2184 19.1869 46.8841 21.4452 45.7045 20.9907C45.3373 20.8493 45.273 21.1439 45.273 21.1439C45.3268 21.6397 45.7718 21.7534 45.8442 22.3133C45.9089 22.8145 45.7125 23.132 45.6981 23.542C45.6853 23.904 45.9049 24.2556 45.8277 24.5794C45.6784 25.2053 44.544 25.28 44.5463 25.3912L44.7683 25.9281C44.938 26.2855 44.968 26.6073 44.8394 27.0067L44.4062 27.6242C44.8993 29.1632 44.1594 30.4004 42.8787 29.931C43.4821 32.3633 40.7314 30.3338 40.7314 30.3338C40.7314 30.3338 41.2107 28.5214 40.8956 23.8235C40.7922 22.282 39.8417 19.2484 39.8417 19.2484C39.8417 19.2484 40.0588 22.3 38.8682 22.225L38.8678 22.2251Z" fill="url(#paint10_radial_1359_5448)"/>
<path d="M19.0596 25.0421C19.5829 27.3346 19.9931 30.7785 18.8025 31.0503C17.612 31.322 16.2227 29.6839 15.6995 27.3914C15.1762 25.099 15.4122 22.8942 16.6028 22.6225C17.7933 22.3507 18.5364 22.7497 19.0597 25.0421H19.0596Z" fill="url(#paint11_radial_1359_5448)"/>
<path d="M41.6669 23.8259C41.3726 23.7587 41.1131 23.7438 40.8828 23.8104C40.9269 24.5437 40.9675 25.2575 40.9503 26.0276C40.9134 27.681 40.8191 28.8724 40.6738 30.0989C41.3727 29.7119 42.0782 28.894 42.3781 27.5806C42.79 25.7757 42.6042 24.0399 41.6669 23.8259Z" fill="url(#paint12_radial_1359_5448)"/>
<path d="M27.5152 29.5885C29.6923 29.5885 31.4572 28.2395 31.4572 26.5755C31.4572 24.9116 29.6923 23.5626 27.5152 23.5626C25.3381 23.5626 23.5732 24.9116 23.5732 26.5755C23.5732 28.2395 25.3381 29.5885 27.5152 29.5885Z" fill="url(#paint13_linear_1359_5448)"/>
<path d="M37.0757 29.4651C38.9907 29.4651 40.543 28.1714 40.543 26.5756C40.543 24.9797 38.9907 23.686 37.0757 23.686C35.1608 23.686 33.6084 24.9797 33.6084 26.5756C33.6084 28.1714 35.1608 29.4651 37.0757 29.4651Z" fill="url(#paint14_linear_1359_5448)"/>
<path d="M37.0496 23.5335C35.1515 23.5335 33.5959 24.8113 33.497 26.4136C32.5944 26.1557 31.8763 26.3122 31.5743 26.4064C31.4598 24.7554 29.6832 23.4393 27.5154 23.4393C25.3118 23.4393 23.4502 24.8756 23.4502 26.5756C23.4502 28.305 25.2738 29.7119 27.5154 29.7119C29.7183 29.7119 31.5163 28.3526 31.5775 26.6642C31.8018 26.5875 32.5514 26.3825 33.4947 26.6689C33.5527 28.3032 35.1245 29.6176 37.0496 29.6176C39.0114 29.6176 40.6074 28.2529 40.6074 26.5756C40.6074 24.8983 39.0114 23.5335 37.0496 23.5335ZM27.5154 29.4652C25.4014 29.4652 23.6816 28.1689 23.6816 26.5756C23.6816 25.0093 25.4373 23.6861 27.5154 23.6861C29.6293 23.6861 31.349 24.9823 31.349 26.5756C31.349 28.1689 29.6293 29.4652 27.5154 29.4652ZM37.0496 29.3709C35.2155 29.3709 33.7233 28.1169 33.7233 26.5755C33.7233 25.0342 35.2155 23.7802 37.0496 23.7802C38.8838 23.7802 40.376 25.0342 40.376 26.5755C40.376 28.1168 38.8838 29.3709 37.0496 29.3709Z" fill="#D1D3D4"/>
<path d="M17.9068 32.0451C18.44 32.0451 18.8722 31.6128 18.8722 31.0797C18.8722 30.5465 18.44 30.1143 17.9068 30.1143C17.3736 30.1143 16.9414 30.5465 16.9414 31.0797C16.9414 31.6128 17.3736 32.0451 17.9068 32.0451Z" fill="url(#paint15_radial_1359_5448)"/>
<path d="M40.8293 29.7118C40.7912 29.7118 40.7541 29.7155 40.7175 29.7209C40.6611 30.2349 40.5959 30.7206 40.5234 31.1814C40.6172 31.2222 40.7205 31.2452 40.8293 31.2452C41.2526 31.2452 41.5959 30.9019 41.5959 30.4785C41.5959 30.0552 41.2526 29.7119 40.8293 29.7119V29.7118Z" fill="url(#paint16_radial_1359_5448)"/>
<path d="M35.3568 30.2477C35.3562 30.2471 35.3555 30.2465 35.3548 30.2458C35.1771 30.0721 34.9578 29.942 34.7143 29.8925C34.5542 29.8599 34.3858 29.8504 34.2126 29.8675C33.4106 29.9471 32.7696 30.6068 32.7124 31.4107C32.6704 31.9992 32.9342 32.5271 33.3595 32.8562C33.6856 32.9964 34.0131 33.1514 34.8391 33.0521C35.7203 32.9461 36.4976 31.3628 35.3568 30.2478V30.2477Z" fill="url(#paint17_radial_1359_5448)"/>
<path d="M32.0178 48.1422C31.9575 48.2568 31.895 48.3721 31.8287 48.4885C31.5405 48.0502 31.2167 47.555 30.8994 47.0256C31.1315 47.8477 32.1879 51.5941 33.1377 55.0187C33.4008 54.969 33.6625 54.9155 33.9229 54.8584C33.0909 51.769 32.332 49.1919 32.0179 48.1422H32.0178Z" fill="url(#paint18_linear_1359_5448)"/>
<defs>
<linearGradient id="paint0_linear_1359_5448" x1="28" y1="-6.63998" x2="28" y2="112.679" gradientUnits="userSpaceOnUse">
<stop stop-color="white"/>
<stop offset="1" stop-color="#00AEEF"/>
</linearGradient>
<linearGradient id="paint1_linear_1359_5448" x1="30.6894" y1="31.4242" x2="27.7289" y2="43.4807" gradientUnits="userSpaceOnUse">
<stop stop-color="#D09072"/>
<stop offset="1" stop-color="#6C4A3C"/>
</linearGradient>
<radialGradient id="paint2_radial_1359_5448" cx="0" cy="0" r="1" gradientUnits="userSpaceOnUse" gradientTransform="translate(20.2976 35.6876) scale(17.8616 17.8616)">
<stop stop-color="#C8DFC9"/>
<stop offset="1" stop-color="#7EA287"/>
</radialGradient>
<linearGradient id="paint3_linear_1359_5448" x1="28.6839" y1="46.2939" x2="29.3502" y2="55.6641" gradientUnits="userSpaceOnUse">
<stop stop-color="#F1F2F2"/>
<stop offset="1" stop-color="#D1D3D4"/>
</linearGradient>
<radialGradient id="paint4_radial_1359_5448" cx="0" cy="0" r="1" gradientUnits="userSpaceOnUse" gradientTransform="translate(32.7944 33.0298) scale(22.6239 22.6239)">
<stop stop-color="#C8DFC9"/>
<stop offset="1" stop-color="#7EA287"/>
</radialGradient>
<linearGradient id="paint5_linear_1359_5448" x1="24.6916" y1="41.3516" x2="21.8125" y2="44.2307" gradientUnits="userSpaceOnUse">
<stop stop-color="#F1F2F2"/>
<stop offset="1" stop-color="#D1D3D4"/>
</linearGradient>
<linearGradient id="paint6_linear_1359_5448" x1="33.7789" y1="41.9354" x2="37.3211" y2="45.5554" gradientUnits="userSpaceOnUse">
<stop stop-color="#F1F2F2"/>
<stop offset="1" stop-color="#D1D3D4"/>
</linearGradient>
<radialGradient id="paint7_radial_1359_5448" cx="0" cy="0" r="1" gradientUnits="userSpaceOnUse" gradientTransform="translate(32.4846 24.4213) scale(26.9823 26.9823)">
<stop stop-color="#D09072"/>
<stop offset="1" stop-color="#805848"/>
</radialGradient>
<linearGradient id="paint8_linear_1359_5448" x1="34.2158" y1="27.895" x2="32.1145" y2="31.7259" gradientUnits="userSpaceOnUse">
<stop stop-color="#D19878"/>
<stop offset="0.886" stop-color="#996955"/>
</linearGradient>
<linearGradient id="paint9_linear_1359_5448" x1="35.8083" y1="36.7754" x2="27.5543" y2="36.0514" gradientUnits="userSpaceOnUse">
<stop stop-color="white"/>
<stop offset="1" stop-color="#D1D3D4"/>
</linearGradient>
<radialGradient id="paint10_radial_1359_5448" cx="0" cy="0" r="1" gradientUnits="userSpaceOnUse" gradientTransform="translate(28.6695 20.5446) scale(22.5255)">
<stop stop-color="#231F20"/>
<stop offset="1" stop-color="#414042"/>
</radialGradient>
<radialGradient id="paint11_radial_1359_5448" cx="0" cy="0" r="1" gradientUnits="userSpaceOnUse" gradientTransform="translate(46.4951 10.4748) rotate(-29.7) scale(2.82895 5.26524)">
<stop stop-color="#D09072"/>
<stop offset="1" stop-color="#805848"/>
</radialGradient>
<radialGradient id="paint12_radial_1359_5448" cx="0" cy="0" r="1" gradientUnits="userSpaceOnUse" gradientTransform="translate(41.6294 26.9217) scale(2.38827 3.43911)">
<stop stop-color="#D09072"/>
<stop offset="1" stop-color="#805848"/>
</radialGradient>
<linearGradient id="paint13_linear_1359_5448" x1="25.3158" y1="31.5643" x2="27.9546" y2="25.5789" gradientUnits="userSpaceOnUse">
<stop stop-color="#FCFCFC" stop-opacity="0.3"/>
<stop offset="1" stop-color="#F1F2F2" stop-opacity="0.1"/>
</linearGradient>
<linearGradient id="paint14_linear_1359_5448" x1="35.0087" y1="31.2644" x2="37.4887" y2="25.6389" gradientUnits="userSpaceOnUse">
<stop stop-color="#FCFCFC" stop-opacity="0.3"/>
<stop offset="1" stop-color="#F1F2F2" stop-opacity="0.1"/>
</linearGradient>
<radialGradient id="paint15_radial_1359_5448" cx="0" cy="0" r="1" gradientUnits="userSpaceOnUse" gradientTransform="translate(18.1831 30.5969) scale(1.46345)">
<stop stop-color="#F1F2F2"/>
<stop offset="1" stop-color="#00AEEF"/>
</radialGradient>
<radialGradient id="paint16_radial_1359_5448" cx="0" cy="0" r="1" gradientUnits="userSpaceOnUse" gradientTransform="translate(41.2131 30.0951) scale(1.10605)">
<stop stop-color="#F1F2F2"/>
<stop offset="1" stop-color="#00AEEF"/>
</radialGradient>
<radialGradient id="paint17_radial_1359_5448" cx="0" cy="0" r="1" gradientUnits="userSpaceOnUse" gradientTransform="translate(35.0409 30.842) scale(3.00275 3.00275)">
<stop stop-color="#D19878"/>
<stop offset="1" stop-color="#996955" stop-opacity="0.5"/>
</radialGradient>
<linearGradient id="paint18_linear_1359_5448" x1="31.5899" y1="45.9674" x2="32.8973" y2="53.8867" gradientUnits="userSpaceOnUse">
<stop stop-color="#F1F2F2"/>
<stop offset="1" stop-color="#D1D3D4"/>
</linearGradient>
</defs>
</svg>
