<svg width="56" height="56" viewBox="0 0 56 56" fill="none" xmlns="http://www.w3.org/2000/svg">
<path d="M28 55.4999C43.1878 55.4999 55.4999 43.1878 55.4999 28C55.4999 12.8121 43.1878 0.5 28 0.5C12.8121 0.5 0.5 12.8121 0.5 28C0.5 43.1878 12.8121 55.4999 28 55.4999Z" fill="url(#paint0_radial_1359_5523)"/>
<path d="M37.4425 35.2382H16.8799V44.2519H37.4425V35.2382Z" fill="#D19470"/>
<path d="M4.72949 42.6578C7.95108 47.7615 12.8039 51.7325 18.5572 53.8358L15.3166 37.1606C15.3166 37.1606 9.37296 40.8757 5.37582 42.4024C5.15924 42.4851 4.94374 42.5704 4.72949 42.6577V42.6578Z" fill="url(#paint1_radial_1359_5523)"/>
<path d="M38.8461 53.2767C38.459 47.1925 37.9142 41.674 37.1852 40.6857C36.2271 39.3866 35.4893 39.9454 35.0196 40.7113C34.2793 41.9182 33.0788 42.7648 31.6933 42.9546C30.1555 43.1654 28.016 43.0971 25.3928 42.1033C19.7592 39.9691 16.6436 41.1157 16.6436 41.1157L23.4405 55.1216C24.9237 55.3691 26.4463 55.5 27.9999 55.5C31.8518 55.5 35.5181 54.7067 38.8462 53.2767H38.8461Z" fill="url(#paint2_linear_1359_5523)"/>
<path d="M37.2163 48.6566L34.3703 43.958L32.2969 45.2381L37.2163 48.6566Z" fill="#BCBEC0"/>
<path d="M25.2607 50.1363L29.4189 46.5465L27.8111 44.7156L25.2607 50.1363Z" fill="#BCBEC0"/>
<path d="M28.4766 46.0989L30.2124 48.4874C30.4893 48.8686 30.9417 49.082 31.412 49.0535L32.8872 48.9639C33.4162 48.9318 33.8801 48.5995 34.0807 48.109L34.9214 46.053C35.0836 45.6565 35.0524 45.2071 34.8369 44.8369L33.9646 43.3379C33.6895 42.8651 33.5648 42.3624 33.0102 42.56L29.8866 42.9685C29.4115 43.0221 28.9981 43.3176 28.7937 43.7497L28.3453 44.6981C28.1298 45.154 28.1801 45.6911 28.4765 46.0989H28.4766Z" fill="#231F20"/>
<path d="M30.7158 43.3318C28.9552 43.3318 27.5256 42.5731 27.4326 42.5227L27.6901 42.0482L27.5613 42.2855L27.6899 42.0481C27.7228 42.0659 31.0173 43.8068 33.589 41.8506L33.9159 42.2802C32.8691 43.0766 31.7367 43.3319 30.7159 43.3319L30.7158 43.3318Z" fill="url(#paint3_linear_1359_5523)"/>
<path d="M36.5029 38.1254L38.4968 53.4235C43.1852 51.4855 47.2201 48.2892 50.1816 44.2547C49.3842 43.7097 48.5329 43.354 47.7189 42.961C45.225 41.7569 36.5029 38.1254 36.5029 38.1254Z" fill="url(#paint4_radial_1359_5523)"/>
<path d="M35.5304 38.733C36.7565 42.7765 37.5172 48.1401 37.9828 53.6306C40.4637 52.6636 42.7691 51.3466 44.8395 49.7407C41.598 42.5695 35.5303 38.733 35.5303 38.733H35.5304Z" fill="#231F20"/>
<path d="M36.4728 53.6296L33.4095 48.1134L31.1913 48.4303L29.9941 54.0521L30.189 55.4134C32.391 55.24 34.5194 54.8062 36.5448 54.1445L36.4728 53.6296Z" fill="#231F20"/>
<path d="M24.5036 55.2797C20.7125 47.7626 17.7671 41.7462 17.1156 39.9143C15.8007 36.2173 18.7004 37.0858 18.1019 35.5025C17.6795 35.211 10.0418 36.3665 9.75391 48.5725C13.7875 52.1527 18.8799 54.5661 24.5036 55.2797Z" fill="#231F20"/>
<path d="M29.8263 42.7702C26.6809 42.0661 21.8572 38.9089 19.8384 37.2658C17.8197 35.6226 18.1015 32.7119 18.1015 32.7119C18.1015 32.7119 15.625 35.3057 17.1273 40.1177C18.0347 43.0243 22.7373 48.4434 24.3254 50.2186C24.5864 50.5103 25.0541 50.4688 25.2603 50.1362L29.8264 42.7702L29.8263 42.7702Z" fill="url(#paint5_linear_1359_5523)"/>
<path d="M33.22 42.2304L37.0415 48.4624C37.2832 48.8503 37.6962 49.1179 37.5697 47.6467C37.1853 43.178 35.4431 38.3513 35.4431 38.3513H34.9553C34.9553 38.3513 35.4773 40.0798 33.2345 42.147C33.2114 42.1683 33.2051 42.2027 33.2199 42.2305L33.22 42.2304Z" fill="url(#paint6_linear_1359_5523)"/>
<path d="M44.0497 24.7328C44.52 22.6495 43.7248 20.6951 42.2737 20.3676C40.8226 20.0401 39.265 21.4634 38.7948 23.5468C38.3246 25.6301 39.1197 27.5845 40.5708 27.912C42.022 28.2395 43.5795 26.8162 44.0497 24.7328Z" fill="url(#paint7_radial_1359_5523)"/>
<path d="M42.2986 23.2233C42.2986 33.0956 40.1075 44.1244 28.525 41.2511C18.2768 38.7088 13.4121 33.0956 13.4121 23.2233C13.4121 13.3511 19.8786 5.3479 27.8554 5.3479C35.8322 5.3479 42.2986 13.351 42.2986 23.2232V23.2233Z" fill="url(#paint8_radial_1359_5523)"/>
<path d="M42.2986 23.2233C42.2986 33.0956 40.1075 44.1244 28.525 41.2511C18.2768 38.7088 13.4121 33.0956 13.4121 23.2233C13.4121 13.3511 19.8786 5.3479 27.8554 5.3479C35.8322 5.3479 42.2986 13.351 42.2986 23.2232V23.2233Z" fill="url(#paint9_radial_1359_5523)"/>
<path d="M27.5377 23.5243C28.2257 23.5243 28.7834 22.9666 28.7834 22.2787C28.7834 21.5907 28.2257 21.033 27.5377 21.033C26.8497 21.033 26.292 21.5907 26.292 22.2787C26.292 22.9666 26.8497 23.5243 27.5377 23.5243Z" fill="#231F20"/>
<path d="M35.7818 23.5243C36.4698 23.5243 37.0275 22.9666 37.0275 22.2787C37.0275 21.5907 36.4698 21.033 35.7818 21.033C35.0938 21.033 34.5361 21.5907 34.5361 22.2787C34.5361 22.9666 35.0938 23.5243 35.7818 23.5243Z" fill="#231F20"/>
<path d="M17.3883 15.2535C16.2602 14.4093 15.721 14.2585 14.6009 14.5209C14.0163 14.6579 13.5894 15.2043 13.3146 15.8949C12.1439 18.8361 12.2419 21.5681 12.5372 25.2306C12.6004 26.0157 12.9494 26.6918 13.5201 26.7807L13.7236 26.8124C15.3071 27.059 16.8238 25.8576 17.4561 23.8492C18.4764 20.6083 18.6372 16.1881 17.3883 15.2535Z" fill="url(#paint10_linear_1359_5523)"/>
<path d="M24.5655 19.6226C26.0873 19.1287 27.6757 19.0636 29.2279 19.4592C30.2265 19.7138 30.6525 18.1705 29.6534 17.9158C27.8366 17.4526 25.9252 17.4998 24.14 18.0792C23.1644 18.3958 23.5818 19.9419 24.5655 19.6226Z" fill="url(#paint11_linear_1359_5523)"/>
<path d="M34.5661 19.633C36.0804 19.1124 37.6715 19.0559 39.227 19.4238C40.2316 19.6614 40.4948 18.0817 39.4968 17.8457C37.6688 17.4134 35.7627 17.5299 33.9892 18.1397C33.0155 18.4744 33.5913 19.9683 34.5662 19.6331L34.5661 19.633Z" fill="url(#paint12_linear_1359_5523)"/>
<path d="M41.34 21.6619C41.5019 22.9743 41.6666 24.6353 41.8652 24.9021C42.2733 25.4502 42.9421 25.2792 42.9964 24.5571C43.0279 24.1375 43.0539 23.7186 43.0749 23.3015C43.1767 21.2841 42.9016 19.041 42.3838 17.2017C42.1627 16.4166 40.719 16.7293 40.7515 17.5054C40.8229 19.2094 41.1122 19.8152 41.34 21.6619Z" fill="url(#paint13_linear_1359_5523)"/>
<path d="M15.8746 21.3047C16.4472 23.813 16.8197 27.5987 15.2626 27.9541C13.7056 28.3095 11.9793 26.5642 11.4068 24.0559C10.8342 21.5476 11.2426 19.1008 12.7996 18.7454C14.3566 18.39 15.3021 18.7964 15.8746 21.3047Z" fill="url(#paint14_radial_1359_5523)"/>
<path d="M27.9077 32.0466C28.9097 32.8493 30.0821 33.445 31.354 33.6309C32.8297 33.8419 34.3149 33.403 35.5439 32.5206C35.9018 32.26 36.4057 32.3428 36.6606 32.7051C36.8884 33.028 36.8413 33.4622 36.5678 33.73C35.9338 34.3519 35.1912 34.8999 34.3485 35.3033C33.2457 35.8417 31.9563 36.0863 30.7131 36.0415C29.1169 35.9701 27.5536 35.4543 26.1737 34.6756C25.3957 34.2582 25.1092 33.2803 25.5416 32.5098C26.0054 31.6626 27.1592 31.439 27.9077 32.0466Z" fill="url(#paint15_linear_1359_5523)"/>
<path d="M31.067 27.0751C27.4451 27.0751 24.6474 28.596 24.41 31.4291C24.3946 31.6124 24.5958 31.7486 24.7878 31.6818L26.2796 31.1629C26.4137 31.1163 26.5656 31.1688 26.6294 31.2838L27.3606 32.6016C27.4458 32.7552 27.6761 32.7871 27.8095 32.6636L29.0114 31.5511C29.1211 31.4495 29.3038 31.45 29.4128 31.5524L30.8655 32.9173C30.975 33.0201 31.1588 33.0201 31.2684 32.9173L32.7211 31.5524C32.8301 31.4501 33.0127 31.4495 33.1225 31.5511L34.3244 32.6636C34.4577 32.7871 34.688 32.7553 34.7733 32.6016L35.5045 31.2838C35.5684 31.1688 35.7202 31.1163 35.8542 31.1629L37.3461 31.6818C37.5381 31.7486 37.7393 31.6124 37.7239 31.4291C37.4866 28.596 34.6889 27.0751 31.067 27.0751Z" fill="url(#paint16_linear_1359_5523)"/>
<path d="M29.3858 27.1933C29.8883 27.6306 32.5362 29.6929 34.4114 28.9291C35.5592 28.4891 35.8108 27.4382 35.1017 26.4562C34.6431 25.7679 34.0405 25.1724 33.5582 24.497C32.9686 23.7061 32.4798 22.7446 32.0126 21.7566C32.0126 21.7566 29.4892 24.8021 29.3857 27.1932L29.3858 27.1933Z" fill="url(#paint17_linear_1359_5523)"/>
<defs>
<radialGradient id="paint0_radial_1359_5523" cx="0" cy="0" r="1" gradientUnits="userSpaceOnUse" gradientTransform="translate(27.7623 28.0792) scale(31.2702)">
<stop offset="0.006" stop-color="#00A651"/>
<stop offset="0.964" stop-color="#006838"/>
</radialGradient>
<radialGradient id="paint1_radial_1359_5523" cx="0" cy="0" r="1" gradientUnits="userSpaceOnUse" gradientTransform="translate(16.3329 37.7526) scale(29.187 29.187)">
<stop stop-color="#414042"/>
<stop offset="1" stop-color="#231F20"/>
</radialGradient>
<linearGradient id="paint2_linear_1359_5523" x1="27.6351" y1="45.6004" x2="28.3568" y2="55.7505" gradientUnits="userSpaceOnUse">
<stop stop-color="#F1F2F2"/>
<stop offset="1" stop-color="#D1D3D4"/>
</linearGradient>
<linearGradient id="paint3_linear_1359_5523" x1="30.2568" y1="41.2489" x2="34.0829" y2="51.8118" gradientUnits="userSpaceOnUse">
<stop stop-color="#F1F2F2"/>
<stop offset="1" stop-color="#D1D3D4"/>
</linearGradient>
<radialGradient id="paint4_radial_1359_5523" cx="0" cy="0" r="1" gradientUnits="userSpaceOnUse" gradientTransform="translate(34.6931 36.7209) scale(22.1699 22.1699)">
<stop stop-color="#414042"/>
<stop offset="1" stop-color="#231F20"/>
</radialGradient>
<linearGradient id="paint5_linear_1359_5523" x1="23.3257" y1="39.7905" x2="19.476" y2="43.6401" gradientUnits="userSpaceOnUse">
<stop stop-color="#F1F2F2"/>
<stop offset="1" stop-color="#D1D3D4"/>
</linearGradient>
<linearGradient id="paint6_linear_1359_5523" x1="33.824" y1="40.9564" x2="38.0961" y2="45.3225" gradientUnits="userSpaceOnUse">
<stop stop-color="#F1F2F2"/>
<stop offset="1" stop-color="#D1D3D4"/>
</linearGradient>
<radialGradient id="paint7_radial_1359_5523" cx="0" cy="0" r="1" gradientUnits="userSpaceOnUse" gradientTransform="translate(42.5446 19.2228) scale(9.67699 9.67699)">
<stop stop-color="#DEAD87"/>
<stop offset="1" stop-color="#FAB085"/>
</radialGradient>
<radialGradient id="paint8_radial_1359_5523" cx="0" cy="0" r="1" gradientUnits="userSpaceOnUse" gradientTransform="translate(28.1591 18.4449) scale(24.1716 24.1716)">
<stop offset="0.071" stop-color="#FCC397"/>
<stop offset="0.372" stop-color="#FCC397"/>
<stop offset="1" stop-color="#FAB085"/>
</radialGradient>
<radialGradient id="paint9_radial_1359_5523" cx="0" cy="0" r="1" gradientUnits="userSpaceOnUse" gradientTransform="translate(29.3547 15.1425) scale(13.1235 13.1235)">
<stop stop-color="white" stop-opacity="0.9"/>
<stop offset="0.72" stop-color="white" stop-opacity="0"/>
</radialGradient>
<linearGradient id="paint10_linear_1359_5523" x1="17.0895" y1="16.952" x2="9.02647" y2="31.2034" gradientUnits="userSpaceOnUse">
<stop stop-color="#725341"/>
<stop offset="0.523" stop-color="#583B29"/>
<stop offset="1" stop-color="#462A19"/>
</linearGradient>
<linearGradient id="paint11_linear_1359_5523" x1="27.3486" y1="17.2617" x2="25.4384" y2="23.6188" gradientUnits="userSpaceOnUse">
<stop stop-color="#725341"/>
<stop offset="0.523" stop-color="#583B29"/>
<stop offset="1" stop-color="#462A19"/>
</linearGradient>
<linearGradient id="paint12_linear_1359_5523" x1="37.4303" y1="16.2141" x2="36.1553" y2="21.39" gradientUnits="userSpaceOnUse">
<stop stop-color="#725341"/>
<stop offset="0.523" stop-color="#583B29"/>
<stop offset="1" stop-color="#462A19"/>
</linearGradient>
<linearGradient id="paint13_linear_1359_5523" x1="40.9623" y1="20.9856" x2="43.3072" y2="20.9856" gradientUnits="userSpaceOnUse">
<stop stop-color="#725341"/>
<stop offset="0.523" stop-color="#583B29"/>
<stop offset="1" stop-color="#462A19"/>
</linearGradient>
<radialGradient id="paint14_radial_1359_5523" cx="0" cy="0" r="1" gradientUnits="userSpaceOnUse" gradientTransform="translate(14.052 23.3275) rotate(-27.07) scale(3.65355 5.83216)">
<stop stop-color="#DEAD87"/>
<stop offset="1" stop-color="#FAB085"/>
</radialGradient>
<linearGradient id="paint15_linear_1359_5523" x1="35.3804" y1="34.6901" x2="23.5328" y2="32.1583" gradientUnits="userSpaceOnUse">
<stop stop-color="white"/>
<stop offset="1" stop-color="#D1D3D4"/>
</linearGradient>
<linearGradient id="paint16_linear_1359_5523" x1="32.1484" y1="26.806" x2="30.3798" y2="34.234" gradientUnits="userSpaceOnUse">
<stop stop-color="#725341"/>
<stop offset="0.523" stop-color="#583B29"/>
<stop offset="1" stop-color="#462A19"/>
</linearGradient>
<linearGradient id="paint17_linear_1359_5523" x1="33.0225" y1="29.6404" x2="31.3397" y2="23.3377" gradientUnits="userSpaceOnUse">
<stop stop-color="#DEAD87"/>
<stop offset="1" stop-color="#FAB085"/>
</linearGradient>
</defs>
</svg>
