<svg width="294" height="160" viewBox="0 0 294 160" fill="none" xmlns="http://www.w3.org/2000/svg">
<path fill-rule="evenodd" clip-rule="evenodd" d="M82.059 103.417C78.9202 108.265 72.7915 114.775 69.6582 117.149C67.3069 118.931 62.8201 119.997 58.8776 120C54.9351 119.997 50.4484 118.931 48.0988 117.149C44.9655 114.775 38.8368 108.265 35.6963 103.417C31.8028 97.4018 32.1584 94.1371 32.1584 84.5267C32.1584 65.1435 42.7938 54.793 58.8776 54.793C74.9614 54.793 85.5969 61.7589 85.5969 84.5267C85.5969 94.1371 85.9543 97.4018 82.059 103.417Z" fill="url(#paint0_radial_1413_24406)"/>
<path d="M32.2027 89.0296C32.2638 90.2572 32.5049 94.693 33.2321 98.7067C32.2856 99.3528 30.1794 99.537 30.1794 99.537C24.5888 100.046 24.055 95.4385 24.055 95.4385C22.2139 95.3749 21.6293 94.4015 21.7583 92.3964C21.8443 91.052 22.3273 90.0044 22.3273 90.0044C20.3451 89.2978 20.6459 86.1391 23.0648 86.2857C20.5687 84.5191 22.2447 82.7507 22.2447 82.7507C22.078 82.5617 19.8413 84.1252 18.9216 81.7438C18.3269 80.2015 19.3188 79.8835 19.3669 79.1734C19.4048 78.6504 18.834 77.882 18.8374 77.2725C18.8393 76.4828 19.3344 76.0111 19.3772 75.4723C19.3892 75.3275 18.0758 74.7445 18.9646 72.833C19.6143 71.4356 21.5484 71.8331 21.9697 71.3226C22.3254 70.8915 20.976 68.5984 21.5741 67.6568C22.0194 66.9555 23.9826 65.7259 24.0325 65.438C24.0601 65.2808 23.369 63.735 23.6199 62.3464C23.8984 60.8059 25.1224 60.0975 25.1518 59.9156C25.2153 59.5163 24.2956 58.6948 25.2532 57.1508C26.0215 55.9124 28.7499 55.7499 28.8787 55.5856C29.0815 55.3295 29.0523 54.1282 29.6077 53.2731C30.543 51.8316 31.9302 52.3368 32.7123 51.5631C33.4567 50.8246 33.7369 49.0315 34.8372 48.1394C35.7948 47.3638 36.9122 47.6182 37.5964 47.272C38.5248 46.8038 38.6193 44.5903 40.7613 44.3995C42.3635 44.2564 42.5337 45.2333 43.2144 45.3375C43.3915 45.364 43.5856 44.6574 43.9416 44.3906C44.2509 44.161 44.569 43.8836 45.5353 43.9525C45.7983 43.9719 46.075 44.0815 46.3054 44.2051C46.9432 42.1576 48.8084 40.6755 51.0141 40.6755C52.4686 40.6755 53.7767 41.322 54.6793 42.3484C55.2587 42.1011 55.8947 41.9651 56.5619 41.9651C57.2168 41.9651 57.841 42.0958 58.4134 42.3361C59.316 41.3166 60.619 40.6755 62.0683 40.6755C62.761 40.6755 63.4178 40.8221 64.0161 41.0853C65.3674 39.1138 69.4469 40.0677 70.4268 42.0357C70.6416 42.4668 70.8582 43.0568 71.3671 43.2777C71.7762 43.4579 72.1426 42.8731 73.32 42.9544C74.9687 43.0674 75.7492 43.2441 76.9904 44.4825C77.74 45.2298 77.8327 46.0353 78.1646 47.7277C78.3056 48.445 81.8727 46.9946 83.4321 49.0774C83.7379 49.4873 83.9049 50.3759 84.1008 50.542C84.3002 50.7115 84.9517 50.4731 85.3815 50.6427C88.5068 51.8722 88.7287 53.9957 87.9878 57.3522C91.5721 57.2568 94.3382 60.2212 93.379 64.2279C96.0973 64.7427 96.1327 68.2336 94.2471 69.2238C96.3256 70.0647 98.3781 71.925 96.7655 74.5501C96.0692 75.6861 93.4252 75.1252 94.7364 76.9411C95.4968 77.994 95.3488 79.8705 93.9525 80.3197C93.1602 80.5746 92.9766 81.076 92.9766 81.076C92.9317 82.1466 95.0227 82.6421 94.8208 84.1801C94.5488 86.2529 93.2585 85.4395 93.1003 86.3071C92.9593 87.072 93.9799 86.7897 93.963 87.9476C93.9478 89.0029 93.0295 88.9413 93.4584 89.7564C93.7271 90.2671 93.5214 91.0732 93.5214 91.0732C93.7603 91.8876 93.8342 92.6496 93.3289 93.3875C93.1021 93.7185 92.239 94.557 92.239 94.557C92.7737 97.986 90.8551 100.374 88.3573 98.9629C88.8387 104.323 84.2234 99.218 84.2234 99.218C84.2234 99.218 85.3539 95.4297 86.1811 85.3512C86.3039 83.8554 83.9049 68.6023 81.6444 67.6814C80.4444 67.1926 79.3909 72.6933 77.9445 72.5203C76.6529 72.3659 77.3257 69.3796 76.6663 68.7528C75.8582 67.9846 75.1922 70.9138 75.1287 71.7605C75.0395 72.9507 75.2985 75.8845 72.7872 75.8845C70.5939 75.8845 70.3821 73.4882 70.0521 71.3789C69.8339 69.9709 67.6264 69.1071 68.0785 67.0684C67.4974 67.0737 67.6505 68.213 67.2499 68.7255C65.7319 70.6758 62.0296 65.6931 62.218 62.2712C61.1176 65.2437 58.2152 64.1316 58.0002 62.5823C57.7854 61.0224 57.4258 61.338 56.2509 60.8835C57.2977 62.8303 55.0594 63.6306 53.0207 63.3709C53.6773 65.4608 53.4832 66.8988 51.9583 67.3069C51.6266 67.3952 50.9733 67.3987 50.4987 67.1673C49.897 66.8723 49.3985 66.6444 49.0597 66.0332C48.2912 64.6428 48.1693 64.0139 48.5938 62.3392L47.5943 61.6211C47.2917 64.1443 46.0908 64.5739 46.0444 65.27C45.9772 66.2646 46.9091 67.0719 46.359 69.0806C46.046 70.2218 44.8856 70.6899 44.8632 70.8419C44.8359 71.0362 44.5418 73.5748 41.9596 74.557C40.8613 74.9757 38.6676 72.9229 38.0193 71.9372C37.6187 71.3241 36.4862 69.3477 35.9392 69.3738C34.013 69.4662 32.9841 76.0482 32.9841 76.0482C32.9841 76.0482 31.7533 80.0075 32.2027 89.0294V89.0296Z" fill="url(#paint1_radial_1413_24406)"/>
<path d="M86.9321 75.9596C86.11 75.8283 85.3924 75.8313 84.769 76.0486C85.016 78.0081 85.2502 79.9164 85.3344 81.985C85.5153 86.4266 85.459 89.6382 85.2687 92.9526C87.1278 91.7983 88.932 89.4865 89.5332 85.9135C90.3595 81.0032 89.5508 76.3776 86.9319 75.9596H86.9321Z" fill="url(#paint2_radial_1413_24406)"/>
<path d="M30.8203 75.9596C31.6423 75.8283 32.3599 75.8313 32.9833 76.0486C32.7363 78.0081 32.5021 79.9164 32.4179 81.985C32.237 86.4266 32.2933 89.6382 32.4836 92.9526C30.6245 91.7983 28.8203 89.4865 28.2191 85.9135C27.3929 81.0032 28.2013 76.3776 30.8203 75.9596Z" fill="url(#paint3_radial_1413_24406)"/>
<path d="M63.5326 97.6032C61.6965 97.9954 60.8293 98.8769 58.8753 98.8769C56.9213 98.8769 56.0523 97.9954 54.218 97.6032C51.5201 97.0291 51.2825 94.1884 53.9731 92.8864C55.7583 92.0207 55.4463 92.0808 55.7239 89.7983C55.9216 88.1766 55.9597 88.0883 56.2428 85.9842C56.3425 85.244 56.8124 84.5462 57.6289 84.147C57.9827 83.9756 58.3981 83.8555 58.8753 83.8555C59.3525 83.8555 59.7679 83.9756 60.1217 84.147C60.9364 84.5462 61.4063 85.244 61.506 85.9842C61.7909 88.0883 61.829 88.1766 62.0249 89.7983C62.3043 92.0808 61.9905 92.0207 63.7776 92.8864C66.4663 94.1884 66.2305 97.0291 63.5326 97.6032Z" fill="url(#paint4_linear_1413_24406)"/>
<path d="M58.8769 98.8746C61.076 98.8746 62.8587 97.5486 62.8587 95.9129C62.8587 94.2772 61.076 92.9512 58.8769 92.9512C56.6778 92.9512 54.895 94.2772 54.895 95.9129C54.895 97.5486 56.6778 98.8746 58.8769 98.8746Z" fill="url(#paint5_radial_1413_24406)"/>
<path d="M46.1948 103.25C46.1948 103.25 52.5521 103.81 58.8799 103.81C65.2076 103.81 71.5707 103.439 71.5707 103.439C71.5707 103.439 65.6374 108.548 58.8828 108.548C52.1281 108.548 46.1948 103.25 46.1948 103.25Z" fill="url(#paint6_linear_1413_24406)"/>
<path d="M71.806 103.439C71.806 103.439 67.8842 109.913 58.8778 109.913C49.8715 109.913 45.9517 103.235 45.9517 103.235C45.9517 103.235 46.0097 103.157 46.24 103.271C48.0196 104.012 51.3224 107.807 58.8778 107.762C66.4331 107.807 69.7381 104.216 71.5155 103.475C71.7458 103.361 71.806 103.439 71.806 103.439Z" fill="#D97C80"/>
<path d="M71.806 103.439C71.806 103.439 63.9194 105.031 58.8778 105.091C53.8383 105.032 45.9517 103.235 45.9517 103.235C46.9845 102.281 51.9253 101.775 56.7905 102.244C58.0772 102.366 58.8778 102.786 58.8778 102.786C58.8778 102.786 59.6805 102.366 60.9672 102.244C65.8324 101.775 70.7708 102.484 71.806 103.439V103.439Z" fill="#EA979F"/>
<path d="M32.3825 90.8798C32.3765 90.8798 32.3709 90.8789 32.3649 90.8789C31.1887 90.8789 30.2837 91.8074 30.2837 92.9527C30.2837 94.098 31.2373 95.0265 32.4135 95.0265C32.5073 95.0265 32.5989 95.0186 32.6896 95.0071C32.6013 93.9977 32.4344 92.412 32.3823 90.8796L32.3825 90.8798Z" fill="url(#paint7_radial_1413_24406)"/>
<path d="M85.3694 90.8798C85.3754 90.8798 85.381 90.8789 85.387 90.8789C86.5632 90.8789 87.4738 91.8078 87.4738 92.9533C87.4738 94.0985 86.5202 95.0271 85.344 95.0271C85.2502 95.0271 85.1586 95.0191 85.0679 95.0076C85.1562 93.9982 85.3177 92.4121 85.3696 90.8798H85.3694Z" fill="url(#paint8_radial_1413_24406)"/>
<path d="M48.3355 86.739C49.7226 86.739 50.8472 85.6441 50.8472 84.2933C50.8472 82.9426 49.7226 81.8477 48.3355 81.8477C46.9483 81.8477 45.8237 82.9426 45.8237 84.2933C45.8237 85.6441 46.9483 86.739 48.3355 86.739Z" fill="#231F20"/>
<path d="M69.311 86.739C70.6982 86.739 71.8228 85.6441 71.8228 84.2933C71.8228 82.9426 70.6982 81.8477 69.311 81.8477C67.9239 81.8477 66.7993 82.9426 66.7993 84.2933C66.7993 85.6441 67.9239 86.739 69.311 86.739Z" fill="#231F20"/>
<path d="M37.4976 82.3272C37.4976 82.3272 39.1491 80.1067 40.1234 79.4776C41.1572 78.81 41.9399 78.0877 44.5606 78.0013C48.0452 77.8863 52.4088 78.7084 52.4088 78.7084C52.4088 78.7084 54.7665 79.1407 55.4087 80.3364C56.051 81.532 55.0308 81.6965 54.6133 81.7233C53.8531 81.7723 52.3993 81.2658 51.4635 81.1471C50.212 80.9882 48.5853 80.6355 47.3521 80.5438C46.0594 80.4478 44.3295 80.2666 42.2781 80.4795C40.9946 80.6127 37.4976 82.3273 37.4976 82.3273V82.3272Z" fill="black"/>
<path d="M80.1478 82.3272C80.1478 82.3272 78.4963 80.1067 77.522 79.4776C76.4882 78.81 75.7055 78.0877 73.0848 78.0013C69.6002 77.8863 65.2366 78.7084 65.2366 78.7084C65.2366 78.7084 62.8789 79.1407 62.2367 80.3364C61.5944 81.532 62.6146 81.6965 63.0321 81.7233C63.7923 81.7723 65.2461 81.2658 66.1819 81.1471C67.4334 80.9882 69.0601 80.6355 70.2933 80.5438C71.586 80.4478 73.3159 80.2666 75.3673 80.4795C76.6508 80.6127 80.1478 82.3273 80.1478 82.3273V82.3272Z" fill="black"/>
<path d="M47.0815 91.2276C52.2149 91.2276 56.3763 88.1305 56.3763 84.3101C56.3763 80.4896 52.2149 77.3926 47.0815 77.3926C41.9481 77.3926 37.7866 80.4896 37.7866 84.3101C37.7866 88.1305 41.9481 91.2276 47.0815 91.2276Z" fill="url(#paint9_linear_1413_24406)"/>
<path d="M70.6703 91.2276C75.8037 91.2276 79.9652 88.1305 79.9652 84.3101C79.9652 80.4896 75.8037 77.3926 70.6703 77.3926C65.5369 77.3926 61.3755 80.4896 61.3755 84.3101C61.3755 88.1305 65.5369 91.2276 70.6703 91.2276Z" fill="url(#paint10_linear_1413_24406)"/>
<path d="M70.6705 77.1074C65.5591 77.1074 61.3688 80.1303 61.0992 83.9196C60.6726 83.7912 59.893 83.6099 58.877 83.6137C57.861 83.6099 57.0814 83.7912 56.6548 83.9196C56.3834 80.1303 52.1949 77.1074 47.0835 77.1074C41.8868 77.1074 37.4985 80.406 37.4985 84.3086C37.4985 88.2793 41.7975 91.5099 47.0835 91.5099C52.2782 91.5099 56.5171 88.3888 56.6605 84.5127C56.9901 84.4032 57.7754 84.1784 58.8768 84.1841C59.9783 84.1784 60.7635 84.4032 61.0912 84.5127C61.2367 88.389 65.4754 91.5099 70.6701 91.5099C75.9561 91.5099 80.2551 88.2793 80.2551 84.3086C80.2551 80.406 75.867 77.1074 70.6701 77.1074H70.6705ZM47.0837 90.9433C42.0983 90.9433 38.0437 87.9676 38.0437 84.3086C38.0437 80.7138 42.1836 77.6738 47.0837 77.6738C52.067 77.6738 56.1236 80.6514 56.1236 84.3086C56.1236 87.9659 52.067 90.9433 47.0837 90.9433ZM70.6705 90.9433C65.6872 90.9433 61.6306 87.9676 61.6306 84.3086C61.6306 80.6496 65.6872 77.6738 70.6705 77.6738C75.5706 77.6738 79.7105 80.7136 79.7105 84.3086C79.7105 87.9678 75.6559 90.9433 70.6705 90.9433Z" fill="#D1D3D4"/>
<g clip-path="url(#clip0_1413_24406)">
<path d="M189.413 83.0691C190.525 78.0726 188.644 73.3854 185.211 72.5999C181.778 71.8144 178.093 75.2281 176.98 80.2246C175.868 85.221 177.749 89.9083 181.182 90.6938C184.615 91.4793 188.3 88.0656 189.413 83.0691Z" fill="url(#paint11_radial_1413_24406)"/>
<path d="M125.895 90.695C129.328 89.9095 131.21 85.2223 130.097 80.2258C128.985 75.2293 125.3 71.8157 121.867 72.6012C118.433 73.3867 116.552 78.0739 117.665 83.0704C118.777 88.0668 122.462 91.4805 125.895 90.695Z" fill="url(#paint12_radial_1413_24406)"/>
<path d="M185.112 79.6157C185.112 101.495 170.242 119.569 153.535 119.569C136.828 119.569 121.958 101.495 121.958 79.6157C121.958 57.7364 136.096 40 153.535 40C170.974 40 185.112 57.7366 185.112 79.6157Z" fill="url(#paint13_radial_1413_24406)"/>
<path d="M185.112 79.6157C185.112 101.495 170.242 119.569 153.535 119.569C136.828 119.569 121.958 101.495 121.958 79.6157C121.958 57.7364 136.096 40 153.535 40C170.974 40 185.112 57.7366 185.112 79.6157Z" fill="url(#paint14_radial_1413_24406)"/>
<path d="M144.13 80.2832C145.634 80.2832 146.854 79.0472 146.854 77.5225C146.854 75.9977 145.634 74.7617 144.13 74.7617C142.626 74.7617 141.407 75.9977 141.407 77.5225C141.407 79.0472 142.626 80.2832 144.13 80.2832Z" fill="#231F20"/>
<path d="M162.939 80.2832C164.443 80.2832 165.663 79.0472 165.663 77.5225C165.663 75.9977 164.443 74.7617 162.939 74.7617C161.435 74.7617 160.216 75.9977 160.216 77.5225C160.216 79.0472 161.435 80.2832 162.939 80.2832Z" fill="#231F20"/>
<path d="M137.598 71.6351C140.925 70.5405 144.398 70.3962 147.791 71.273C149.974 71.8372 150.905 68.4169 148.721 67.8524C144.749 66.826 140.571 66.9305 136.668 68.2145C134.535 68.9163 135.447 72.3427 137.598 71.6351Z" fill="url(#paint15_linear_1413_24406)"/>
<path d="M153.535 106.493C155.289 106.493 158.217 106.184 160.079 105.262C161.922 104.368 163.545 103.153 164.931 101.775C165.529 101.181 165.632 100.219 165.134 99.5036C164.577 98.7007 163.475 98.5171 162.693 99.0948C160.006 101.05 156.88 101.954 153.534 101.954C150.187 101.954 147.061 101.05 144.375 99.0948C143.592 98.5171 142.49 98.7007 141.933 99.5036C141.435 100.219 141.538 101.181 142.136 101.775C143.522 103.153 145.146 104.368 146.988 105.262C148.851 106.184 151.779 106.493 153.532 106.493" fill="url(#paint16_linear_1413_24406)"/>
<path d="M169.47 71.6351C166.143 70.5405 162.671 70.3962 159.277 71.273C157.094 71.8372 156.163 68.4169 158.347 67.8524C162.319 66.826 166.498 66.9305 170.401 68.2145C172.534 68.9163 171.621 72.3427 169.47 71.6351Z" fill="url(#paint17_linear_1413_24406)"/>
<path d="M153.534 88.1523C145.616 88.1523 139.499 91.5231 138.98 97.8018C138.947 98.208 139.387 98.5099 139.806 98.3619L143.068 97.2119C143.361 97.1086 143.693 97.2248 143.832 97.4799L145.431 100.4C145.617 100.741 146.121 100.811 146.412 100.538L149.04 98.0722C149.28 97.847 149.679 97.8482 149.918 98.0752L153.094 101.1C153.333 101.328 153.735 101.328 153.974 101.1L157.15 98.0752C157.389 97.8484 157.788 97.847 158.028 98.0722L160.656 100.538C160.947 100.811 161.451 100.741 161.637 100.4L163.236 97.4799C163.375 97.2248 163.707 97.1086 164 97.2119L167.262 98.3619C167.682 98.5099 168.122 98.208 168.088 97.8018C167.569 91.5231 161.453 88.1523 153.534 88.1523Z" fill="url(#paint18_linear_1413_24406)"/>
<path d="M158.584 91.5079C156.595 91.9507 155.654 92.9458 153.535 92.9458C151.416 92.9458 150.475 91.9507 148.485 91.5079C145.562 90.8598 145.303 88.2515 148.221 86.7818C150.156 85.8046 149.865 85.2801 150.121 82.6977C150.315 80.7274 150.45 79.7563 150.681 77.3952C150.763 76.5576 151.299 75.7719 152.185 75.3212C152.566 75.1278 153.019 74.9922 153.535 74.9922C154.05 74.9922 154.503 75.1278 154.887 75.3212C155.77 75.7719 156.306 76.5576 156.388 77.3952C156.62 79.7563 156.756 80.7274 156.951 82.6977C157.205 85.2801 156.913 85.8046 158.851 86.7818C161.766 88.2515 161.51 90.8598 158.584 91.5079H158.584Z" fill="url(#paint19_linear_1413_24406)"/>
<path d="M127.974 73.6892C127.387 77.3904 127.491 81.1247 126.102 82.8311C124.714 84.5375 121.119 84.0284 120.528 80.9981C120.162 79.1173 120.063 76.2944 120.21 74.014C120.435 70.5392 121.035 66.643 122.759 61.4296C124.304 56.7567 130.872 57.5565 130.086 61.9648C129.185 67.0119 128.799 68.481 127.974 73.6892Z" fill="url(#paint20_linear_1413_24406)"/>
<path d="M179.092 73.6892C179.679 77.3904 179.575 81.1247 180.964 82.8311C182.352 84.5375 185.947 84.0284 186.538 80.9981C186.904 79.1173 187.003 76.2944 186.856 74.014C186.631 70.5392 186.031 66.643 184.307 61.4296C182.762 56.7567 176.194 57.5565 176.98 61.9648C177.881 67.0119 178.267 68.481 179.092 73.6892Z" fill="url(#paint21_linear_1413_24406)"/>
</g>
<g clip-path="url(#clip1_1413_24406)">
<path d="M273.481 90.6047C271.935 100.473 264.888 119.896 242.303 119.896C219.717 119.896 212.67 100.473 211.124 90.6047C209.924 82.9482 206.95 71.9069 212.572 56.1302C217.317 42.811 233.422 40 242.302 40C251.183 40 267.288 42.811 272.032 56.1302C277.655 71.9069 274.681 82.9482 273.481 90.6047H273.481Z" fill="url(#paint22_linear_1413_24406)"/>
<path d="M253.548 114.208C250.232 117.567 246.302 118.367 242.302 118.367C238.303 118.367 234.371 117.567 231.056 114.208C226.428 109.521 217.328 102.233 217.328 77.3587C216.611 57.2061 227.095 53.0156 242.302 53.0156C257.51 53.0156 267.992 57.2061 267.275 77.3587C267.275 102.233 258.177 109.521 253.547 114.208H253.548Z" fill="url(#paint23_radial_1413_24406)"/>
<path d="M266.879 86.9084C266.943 86.4505 266.767 85.3416 266.562 84.0781C264.627 72.2002 264.036 67.8242 256.572 61.097C252.435 57.3663 247.226 56.2458 242.303 56.2458C237.381 56.2458 232.171 57.3663 228.034 61.097C220.569 67.8242 219.979 72.2002 218.044 84.0781C217.839 85.3416 217.662 86.4505 217.727 86.9084C216.568 78.6897 216.76 72.3702 218.137 65.983C220.649 54.3157 230.602 47.6445 242.303 47.6445C254.004 47.6445 263.957 54.3157 266.469 65.983C267.844 72.3702 268.038 78.6897 266.879 86.9084H266.879Z" fill="#414042"/>
<path d="M230.928 73.6682C227.972 73.4723 225.359 74.651 222.499 75.5099C222.326 75.2918 223.63 74.2663 223.833 74.1075C228.541 70.4292 232.166 70.5372 237.91 71.8451C239.039 72.1021 239.083 72.808 238.876 73.6456C238.76 74.1172 238.485 74.4417 238.009 74.4819C237.533 74.5221 237.232 74.4425 236.108 74.3337C234.985 74.225 233.883 73.8641 230.928 73.6682Z" fill="#1B1B1B"/>
<path d="M232.804 81.9548C234.323 81.9548 235.554 80.7573 235.554 79.2801C235.554 77.803 234.323 76.6055 232.804 76.6055C231.285 76.6055 230.053 77.803 230.053 79.2801C230.053 80.7573 231.285 81.9548 232.804 81.9548Z" fill="#231F20"/>
<path d="M251.801 81.9548C253.32 81.9548 254.552 80.7573 254.552 79.2801C254.552 77.803 253.32 76.6055 251.801 76.6055C250.282 76.6055 249.051 77.803 249.051 79.2801C249.051 80.7573 250.282 81.9548 251.801 81.9548Z" fill="#231F20"/>
<path d="M253.678 73.6682C256.633 73.4723 259.246 74.651 262.107 75.5099C262.279 75.2918 260.975 74.2663 260.772 74.1075C256.065 70.4292 252.44 70.5372 246.695 71.8451C245.566 72.1021 245.523 72.808 245.729 73.6456C245.845 74.1172 246.12 74.4417 246.596 74.4819C247.071 74.5221 247.373 74.4425 248.497 74.3337C249.62 74.2252 250.722 73.8641 253.677 73.6682H253.678Z" fill="#1B1B1B"/>
<path d="M246.101 94.7082C244.604 95.1763 243.896 95.5959 242.302 95.5959C240.708 95.5959 239.999 95.1763 238.503 94.7082C236.303 94.0227 236.109 91.2644 238.304 89.7099C239.76 88.6765 239.54 88.1218 239.733 85.391C239.879 83.3073 239.981 82.2802 240.155 79.7833C240.217 78.8975 240.619 78.0668 241.286 77.5901C241.573 77.3855 241.914 77.2422 242.302 77.2422C242.69 77.2422 243.031 77.3855 243.319 77.5901C243.984 78.0668 244.387 78.8977 244.449 79.7833C244.623 82.2802 244.726 83.3073 244.872 85.391C245.063 88.122 244.844 88.6767 246.301 89.7099C248.495 91.2642 248.302 94.0227 246.101 94.7082H246.101Z" fill="url(#paint24_linear_1413_24406)"/>
<path d="M230.59 100.49C230.59 100.49 236.46 101.021 242.302 101.021C248.144 101.021 254.019 100.67 254.019 100.67C254.019 100.67 248.541 105.51 242.305 105.51C236.068 105.51 230.59 100.49 230.59 100.49L230.59 100.49Z" fill="url(#paint25_linear_1413_24406)"/>
<path d="M254.238 100.669C254.238 100.669 250.617 106.803 242.301 106.803C233.986 106.803 230.367 100.476 230.367 100.476C230.367 100.476 230.42 100.402 230.633 100.51C232.276 101.212 235.325 104.807 242.301 104.765C249.277 104.807 252.328 101.405 253.97 100.703C254.182 100.595 254.238 100.669 254.238 100.669Z" fill="#971C1F"/>
<path d="M254.238 100.667C254.238 100.667 246.956 102.176 242.301 102.232C237.648 102.176 230.367 100.474 230.367 100.474C231.32 99.57 235.882 99.0909 240.374 99.5353C241.562 99.6512 242.301 100.049 242.301 100.049C242.301 100.049 243.042 99.6512 244.23 99.5353C248.722 99.0909 253.282 99.7632 254.238 100.667Z" fill="#7F1717"/>
</g>
<defs>
<radialGradient id="paint0_radial_1413_24406" cx="0" cy="0" r="1" gradientUnits="userSpaceOnUse" gradientTransform="translate(59.7358 73.0823) scale(74.994 73.0225)">
<stop stop-color="#D09072"/>
<stop offset="1" stop-color="#805848"/>
</radialGradient>
<radialGradient id="paint1_radial_1413_24406" cx="0" cy="0" r="1" gradientUnits="userSpaceOnUse" gradientTransform="translate(58.0001 78.3206) scale(51.1189 49.775)">
<stop stop-color="#231F20"/>
<stop offset="1" stop-color="#414042"/>
</radialGradient>
<radialGradient id="paint2_radial_1413_24406" cx="0" cy="0" r="1" gradientUnits="userSpaceOnUse" gradientTransform="translate(87.3587 84.2826) rotate(-3.45788) scale(6.59179 9.24449)">
<stop stop-color="#D09072"/>
<stop offset="1" stop-color="#805848"/>
</radialGradient>
<radialGradient id="paint3_radial_1413_24406" cx="0" cy="0" r="1" gradientUnits="userSpaceOnUse" gradientTransform="translate(30.3938 84.2822) rotate(-176.542) scale(6.59179 9.24449)">
<stop stop-color="#D09072"/>
<stop offset="1" stop-color="#805848"/>
</radialGradient>
<linearGradient id="paint4_linear_1413_24406" x1="58.8749" y1="85.3187" x2="58.8749" y2="96.4323" gradientUnits="userSpaceOnUse">
<stop stop-color="#D19878"/>
<stop offset="1" stop-color="#996955"/>
</linearGradient>
<radialGradient id="paint5_radial_1413_24406" cx="0" cy="0" r="1" gradientUnits="userSpaceOnUse" gradientTransform="translate(59.4452 95.382) scale(4.58597 4.87712)">
<stop stop-color="#D19878"/>
<stop offset="1" stop-color="#996955" stop-opacity="0.5"/>
</radialGradient>
<linearGradient id="paint6_linear_1413_24406" x1="69.6594" y1="105.899" x2="47.1147" y2="105.899" gradientUnits="userSpaceOnUse">
<stop stop-color="white"/>
<stop offset="1" stop-color="#D1D3D4"/>
</linearGradient>
<radialGradient id="paint7_radial_1413_24406" cx="0" cy="0" r="1" gradientUnits="userSpaceOnUse" gradientTransform="translate(33.2239 92.0719) scale(3.49435 3.40249)">
<stop stop-color="#F1F2F2"/>
<stop offset="1" stop-color="#00AEEF"/>
</radialGradient>
<radialGradient id="paint8_radial_1413_24406" cx="0" cy="0" r="1" gradientUnits="userSpaceOnUse" gradientTransform="translate(85.9264 91.9159) rotate(180) scale(3.01918 2.93981)">
<stop stop-color="#F1F2F2"/>
<stop offset="1" stop-color="#00AEEF"/>
</radialGradient>
<linearGradient id="paint9_linear_1413_24406" x1="41.8955" y1="95.7639" x2="47.8448" y2="81.9048" gradientUnits="userSpaceOnUse">
<stop stop-color="#FCFCFC" stop-opacity="0.3"/>
<stop offset="1" stop-color="#F1F2F2" stop-opacity="0.1"/>
</linearGradient>
<linearGradient id="paint10_linear_1413_24406" x1="65.4845" y1="95.7639" x2="71.4337" y2="81.9048" gradientUnits="userSpaceOnUse">
<stop stop-color="#FCFCFC" stop-opacity="0.3"/>
<stop offset="1" stop-color="#F1F2F2" stop-opacity="0.1"/>
</linearGradient>
<radialGradient id="paint11_radial_1413_24406" cx="0" cy="0" r="1" gradientUnits="userSpaceOnUse" gradientTransform="translate(185.851 69.8544) scale(22.8944 23.2082)">
<stop stop-color="#DEAD87"/>
<stop offset="1" stop-color="#FAB085"/>
</radialGradient>
<radialGradient id="paint12_radial_1413_24406" cx="0" cy="0" r="1" gradientUnits="userSpaceOnUse" gradientTransform="translate(120.876 69.2118) scale(24.5199 24.856)">
<stop stop-color="#DEAD87"/>
<stop offset="1" stop-color="#FAB085"/>
</radialGradient>
<radialGradient id="paint13_radial_1413_24406" cx="0" cy="0" r="1" gradientUnits="userSpaceOnUse" gradientTransform="translate(154.199 68.6555) scale(52.3539 53.0716)">
<stop offset="0.071" stop-color="#FCC397"/>
<stop offset="0.372" stop-color="#FCC397"/>
<stop offset="1" stop-color="#FAB085"/>
</radialGradient>
<radialGradient id="paint14_radial_1413_24406" cx="0" cy="0" r="1" gradientUnits="userSpaceOnUse" gradientTransform="translate(156.813 61.43) scale(28.3961 28.7853)">
<stop stop-color="white" stop-opacity="0.9"/>
<stop offset="0.72" stop-color="white" stop-opacity="0"/>
</radialGradient>
<linearGradient id="paint15_linear_1413_24406" x1="143.682" y1="66.4028" x2="139.401" y2="80.4593" gradientUnits="userSpaceOnUse">
<stop stop-color="#725341"/>
<stop offset="0.523" stop-color="#583B29"/>
<stop offset="1" stop-color="#462A19"/>
</linearGradient>
<linearGradient id="paint16_linear_1413_24406" x1="162.331" y1="103.882" x2="138.067" y2="97.7545" gradientUnits="userSpaceOnUse">
<stop stop-color="white"/>
<stop offset="1" stop-color="#D1D3D4"/>
</linearGradient>
<linearGradient id="paint17_linear_1413_24406" x1="163.386" y1="66.4028" x2="167.667" y2="80.4593" gradientUnits="userSpaceOnUse">
<stop stop-color="#725341"/>
<stop offset="0.523" stop-color="#583B29"/>
<stop offset="1" stop-color="#462A19"/>
</linearGradient>
<linearGradient id="paint18_linear_1413_24406" x1="155.898" y1="87.5559" x2="151.931" y2="103.994" gradientUnits="userSpaceOnUse">
<stop stop-color="#725341"/>
<stop offset="0.523" stop-color="#583B29"/>
<stop offset="1" stop-color="#462A19"/>
</linearGradient>
<linearGradient id="paint19_linear_1413_24406" x1="152.663" y1="92.9162" x2="156.946" y2="75.7539" gradientUnits="userSpaceOnUse">
<stop stop-color="#DEAD87"/>
<stop offset="1" stop-color="#FAB085"/>
</linearGradient>
<linearGradient id="paint20_linear_1413_24406" x1="129.696" y1="71.0042" x2="119.849" y2="71.0912" gradientUnits="userSpaceOnUse">
<stop stop-color="#725341"/>
<stop offset="0.523" stop-color="#583B29"/>
<stop offset="1" stop-color="#462A19"/>
</linearGradient>
<linearGradient id="paint21_linear_1413_24406" x1="177.37" y1="71.0042" x2="187.218" y2="71.0912" gradientUnits="userSpaceOnUse">
<stop stop-color="#725341"/>
<stop offset="0.523" stop-color="#583B29"/>
<stop offset="1" stop-color="#462A19"/>
</linearGradient>
<linearGradient id="paint22_linear_1413_24406" x1="260.046" y1="43.6393" x2="224.258" y2="114.764" gradientUnits="userSpaceOnUse">
<stop stop-color="#1C75BC"/>
<stop offset="1" stop-color="#2E3192"/>
</linearGradient>
<radialGradient id="paint23_radial_1413_24406" cx="0" cy="0" r="1" gradientUnits="userSpaceOnUse" gradientTransform="translate(242.848 50.9656) scale(89.1697 92.7393)">
<stop stop-color="#D29571"/>
<stop offset="1" stop-color="#C19776"/>
</radialGradient>
<linearGradient id="paint24_linear_1413_24406" x1="242.302" y1="76.4346" x2="242.302" y2="120.69" gradientUnits="userSpaceOnUse">
<stop stop-color="#D19878"/>
<stop offset="0.886" stop-color="#996955"/>
</linearGradient>
<linearGradient id="paint25_linear_1413_24406" x1="252.254" y1="103" x2="231.439" y2="103" gradientUnits="userSpaceOnUse">
<stop stop-color="white"/>
<stop offset="1" stop-color="#D1D3D4"/>
</linearGradient>
<clipPath id="clip0_1413_24406">
<rect width="72" height="80" fill="white" transform="translate(117.344 40)"/>
</clipPath>
<clipPath id="clip1_1413_24406">
<rect width="66" height="80" fill="white" transform="translate(209.344 40)"/>
</clipPath>
</defs>
</svg>
