<svg width="294" height="178" viewBox="0 0 294 178" fill="none" xmlns="http://www.w3.org/2000/svg">
<g clip-path="url(#clip0_913_44548)">
<path fill-rule="evenodd" clip-rule="evenodd" d="M65.2533 103.367C62.2704 108.097 56.4459 114.447 53.4682 116.764C51.2336 118.503 46.9696 119.542 43.2229 119.545C39.4762 119.542 35.2122 118.503 32.9793 116.764C30.0016 114.447 24.1772 108.097 21.1926 103.367C17.4924 97.4991 17.8303 94.3142 17.8303 84.9388C17.8303 66.0292 27.9377 55.9316 43.2229 55.9316C58.5081 55.9316 68.6155 62.7273 68.6155 84.9388C68.6155 94.3142 68.9552 97.4991 65.2533 103.367Z" fill="url(#paint0_radial_913_44548)"/>
<path d="M17.8743 89.3314C17.9324 90.529 18.1616 94.8564 18.8526 98.772C17.9531 99.4023 15.9514 99.5821 15.9514 99.5821C10.6384 100.078 10.1312 95.5837 10.1312 95.5837C8.38143 95.5216 7.82589 94.572 7.94848 92.6159C8.03021 91.3044 8.4892 90.2824 8.4892 90.2824C6.60549 89.593 6.89136 86.5115 9.19009 86.6546C6.81791 84.9311 8.41075 83.206 8.41075 83.206C8.25229 83.0216 6.12667 84.5468 5.25266 82.2236C4.68746 80.7191 5.6301 80.4088 5.67579 79.716C5.71182 79.2059 5.16938 78.4562 5.17266 77.8616C5.17438 77.0912 5.64492 76.6311 5.68562 76.1054C5.697 75.9641 4.44883 75.3954 5.29353 73.5306C5.91097 72.1674 7.74899 72.5552 8.14935 72.0571C8.48747 71.6366 7.205 69.3995 7.77347 68.481C8.1966 67.7968 10.0624 66.5972 10.1098 66.3163C10.136 66.1629 9.47924 64.6549 9.7177 63.3003C9.98237 61.7975 11.1455 61.1064 11.1735 60.9289C11.2338 60.5394 10.3598 59.738 11.2698 58.2317C12.0001 57.0236 14.5929 56.865 14.7154 56.7047C14.9081 56.4548 14.8804 55.2829 15.4081 54.4488C16.297 53.0424 17.6153 53.5353 18.3586 52.7805C19.0661 52.0601 19.3323 50.3108 20.378 49.4405C21.2881 48.6839 22.35 48.932 23.0002 48.5943C23.8825 48.1375 23.9723 45.9781 26.008 45.7919C27.5306 45.6523 27.6923 46.6054 28.3393 46.7071C28.5076 46.7329 28.6921 46.0436 29.0303 45.7833C29.3243 45.5593 29.6266 45.2887 30.5449 45.3559C30.7949 45.3749 31.0579 45.4817 31.2768 45.6024C31.8829 43.6049 33.6556 42.1589 35.7517 42.1589C37.134 42.1589 38.3772 42.7897 39.235 43.791C39.7855 43.5498 40.39 43.4171 41.024 43.4171C41.6465 43.4171 42.2396 43.5446 42.7836 43.779C43.6414 42.7844 44.8797 42.1589 46.257 42.1589C46.9153 42.1589 47.5395 42.302 48.1081 42.5588C49.3923 40.6354 53.2693 41.5661 54.2005 43.486C54.4047 43.9065 54.6105 44.4821 55.0942 44.6976C55.483 44.8734 55.8311 44.3029 56.9501 44.3822C58.5169 44.4925 59.2587 44.6648 60.4382 45.8729C61.1507 46.602 61.2388 47.3878 61.5541 49.0389C61.6881 49.7386 65.0781 48.3237 66.5601 50.3556C66.8508 50.7554 67.0094 51.6223 67.1956 51.7843C67.3851 51.9498 68.0043 51.7171 68.4127 51.8826C71.3829 53.0821 71.5937 55.1536 70.8896 58.4282C74.2959 58.3351 76.9247 61.227 76.0131 65.1358C78.5965 65.638 78.6301 69.0437 76.8381 70.0096C78.8134 70.83 80.764 72.6448 79.2315 75.2058C78.5698 76.314 76.0571 75.7668 77.3032 77.5383C78.0258 78.5655 77.8851 80.3961 76.5581 80.8344C75.8052 81.0831 75.6307 81.5722 75.6307 81.5722C75.5881 82.6166 77.5752 83.1 77.3833 84.6004C77.1249 86.6225 75.8986 85.829 75.7483 86.6754C75.6143 87.4217 76.5842 87.1463 76.5681 88.2758C76.5536 89.3054 75.681 89.2452 76.0886 90.0404C76.344 90.5387 76.1484 91.3251 76.1484 91.3251C76.3755 92.1196 76.4457 92.8629 75.9655 93.5828C75.75 93.9058 74.9298 94.7237 74.9298 94.7237C75.4379 98.0689 73.6145 100.399 71.2408 99.0219C71.6982 104.251 67.3122 99.2708 67.3122 99.2708C67.3122 99.2708 68.3865 95.5751 69.1726 85.7429C69.2893 84.2836 67.0094 69.4033 64.8612 68.5049C63.7208 68.028 62.7195 73.3943 61.345 73.2256C60.1175 73.0749 60.7569 70.1617 60.1303 69.5502C59.3623 68.8007 58.7293 71.6583 58.669 72.4843C58.5842 73.6454 58.8304 76.5075 56.4437 76.5075C54.3593 76.5075 54.1581 74.1698 53.8445 72.1121C53.637 70.7385 51.5392 69.8957 51.9688 67.9069C51.4166 67.9121 51.5621 69.0235 51.1814 69.5235C49.7387 71.4261 46.2203 66.5652 46.3993 63.2269C45.3535 66.1267 42.5953 65.0418 42.391 63.5304C42.1868 62.0086 41.8451 62.3166 40.7285 61.8731C41.7234 63.7724 39.5962 64.5531 37.6587 64.2997C38.2827 66.3386 38.0982 67.7414 36.649 68.1395C36.3338 68.2257 35.7129 68.2292 35.2618 68.0034C34.6901 67.7156 34.2163 67.4933 33.8944 66.8969C33.164 65.5406 33.0481 64.9271 33.4516 63.2932L32.5017 62.5927C32.2141 65.0543 31.0729 65.4734 31.0287 66.1524C30.9649 67.1227 31.8505 67.9103 31.3277 69.8699C31.0303 70.9832 29.9275 71.4399 29.9062 71.5881C29.8802 71.7777 29.6007 74.2543 27.1468 75.2125C26.103 75.621 24.0182 73.6183 23.4021 72.6567C23.0214 72.0586 21.9452 70.1305 21.4253 70.156C19.5947 70.2461 18.6169 76.6673 18.6169 76.6673C18.6169 76.6673 17.4472 80.5298 17.8743 89.3312V89.3314Z" fill="url(#paint1_radial_913_44548)"/>
<path d="M69.8857 76.5805C69.1045 76.4524 68.4225 76.4553 67.8301 76.6673C68.0647 78.579 68.2873 80.4406 68.3673 82.4586C68.5393 86.7916 68.4858 89.9248 68.3049 93.1582C70.0717 92.0321 71.7863 89.7768 72.3577 86.2912C73.1429 81.5009 72.3744 76.9882 69.8855 76.5805H69.8857Z" fill="url(#paint2_radial_913_44548)"/>
<path d="M16.5619 76.5805C17.3432 76.4524 18.0251 76.4553 18.6175 76.6673C18.3829 78.579 18.1603 80.4406 18.0803 82.4586C17.9084 86.7916 17.9618 89.9248 18.1427 93.1582C16.3759 92.0321 14.6613 89.7768 14.0899 86.2912C13.3047 81.5009 14.073 76.9882 16.5619 76.5805Z" fill="url(#paint3_radial_913_44548)"/>
<path d="M47.6486 97.695C45.9037 98.0776 45.0795 98.9376 43.2225 98.9376C41.3655 98.9376 40.5396 98.0776 38.7964 97.695C36.2325 97.1349 36.0067 94.3636 38.5637 93.0934C40.2603 92.2489 39.9637 92.3075 40.2275 90.0808C40.4155 88.4987 40.4517 88.4125 40.7207 86.3599C40.8155 85.6378 41.2621 84.9571 42.038 84.5676C42.3742 84.4004 42.769 84.2832 43.2225 84.2832C43.676 84.2832 44.0708 84.4004 44.407 84.5676C45.1812 84.9571 45.6278 85.6378 45.7226 86.3599C45.9933 88.4125 46.0295 88.4987 46.2158 90.0808C46.4813 92.3075 46.183 92.2489 47.8814 93.0934C50.4366 94.3636 50.2125 97.1349 47.6486 97.695Z" fill="url(#paint4_linear_913_44548)"/>
<path d="M43.2236 98.9369C45.3135 98.9369 47.0077 97.6433 47.0077 96.0475C47.0077 94.4518 45.3135 93.1582 43.2236 93.1582C41.1337 93.1582 39.4395 94.4518 39.4395 96.0475C39.4395 97.6433 41.1337 98.9369 43.2236 98.9369Z" fill="url(#paint5_radial_913_44548)"/>
<path d="M31.1719 103.205C31.1719 103.205 37.2135 103.752 43.2271 103.752C49.2407 103.752 55.2878 103.389 55.2878 103.389C55.2878 103.389 49.6491 108.374 43.2299 108.374C36.8106 108.374 31.1719 103.205 31.1719 103.205Z" fill="url(#paint6_linear_913_44548)"/>
<path d="M55.5121 103.389C55.5121 103.389 51.785 109.705 43.2258 109.705C34.6666 109.705 30.9414 103.19 30.9414 103.19C30.9414 103.19 30.9966 103.114 31.2154 103.226C32.9067 103.948 36.0454 107.65 43.2258 107.606C50.406 107.65 53.5468 104.147 55.236 103.425C55.4548 103.313 55.5121 103.389 55.5121 103.389Z" fill="#D97C80"/>
<path d="M55.5121 103.389C55.5121 103.389 48.017 104.942 43.2258 105C38.4364 104.942 30.9414 103.19 30.9414 103.19C31.923 102.259 36.6184 101.765 41.2421 102.223C42.4649 102.342 43.2258 102.752 43.2258 102.752C43.2258 102.752 43.9886 102.342 45.2114 102.223C49.8351 101.765 54.5282 102.458 55.5121 103.389V103.389Z" fill="#EA979F"/>
<path d="M18.0473 91.1356C18.0416 91.1356 18.0363 91.1348 18.0306 91.1348C16.9128 91.1348 16.0527 92.0406 16.0527 93.1579C16.0527 94.2752 16.959 95.181 18.0768 95.181C18.1659 95.181 18.253 95.1733 18.3392 95.1621C18.2553 94.1773 18.0966 92.6304 18.0471 91.1355L18.0473 91.1356Z" fill="url(#paint7_radial_913_44548)"/>
<path d="M68.4018 91.1366C68.4075 91.1366 68.4128 91.1357 68.4185 91.1357C69.5363 91.1357 70.4017 92.0419 70.4017 93.1594C70.4017 94.2767 69.4955 95.1825 68.3777 95.1825C68.2885 95.1825 68.2014 95.1748 68.1152 95.1636C68.1992 94.1788 68.3527 92.6315 68.402 91.1366H68.4018Z" fill="url(#paint8_radial_913_44548)"/>
<path d="M33.2054 87.0961C34.5237 87.0961 35.5924 86.0279 35.5924 84.7101C35.5924 83.3924 34.5237 82.3242 33.2054 82.3242C31.8871 82.3242 30.8184 83.3924 30.8184 84.7101C30.8184 86.0279 31.8871 87.0961 33.2054 87.0961Z" fill="#231F20"/>
<path d="M53.139 87.0961C54.4573 87.0961 55.526 86.0279 55.526 84.7101C55.526 83.3924 54.4573 82.3242 53.139 82.3242C51.8207 82.3242 50.752 83.3924 50.752 84.7101C50.752 86.0279 51.8207 87.0961 53.139 87.0961Z" fill="#231F20"/>
<path d="M22.9062 82.7925C22.9062 82.7925 24.4758 80.6263 25.4017 80.0126C26.3842 79.3613 27.128 78.6566 29.6186 78.5723C32.9302 78.4601 37.0771 79.2622 37.0771 79.2622C37.0771 79.2622 39.3177 79.6839 39.9281 80.8503C40.5385 82.0167 39.5689 82.1772 39.1722 82.2034C38.4497 82.2511 37.0681 81.757 36.1788 81.6412C34.9894 81.4863 33.4435 81.1421 32.2715 81.0527C31.043 80.9591 29.399 80.7822 27.4494 80.9899C26.2297 81.1199 22.9062 82.7926 22.9062 82.7926V82.7925Z" fill="black"/>
<path d="M63.4392 82.7925C63.4392 82.7925 61.8696 80.6263 60.9437 80.0126C59.9612 79.3613 59.2174 78.6566 56.7268 78.5723C53.4152 78.4601 49.2683 79.2622 49.2683 79.2622C49.2683 79.2622 47.0277 79.6839 46.4173 80.8503C45.807 82.0167 46.7765 82.1772 47.1732 82.2034C47.8957 82.2511 49.2773 81.757 50.1666 81.6412C51.356 81.4863 52.9019 81.1421 54.0739 81.0527C55.3024 80.9591 56.9464 80.7822 58.896 80.9899C60.1157 81.1199 63.4392 82.7926 63.4392 82.7926V82.7925Z" fill="black"/>
<path d="M32.015 91.4754C36.8935 91.4754 40.8483 88.454 40.8483 84.727C40.8483 80.9999 36.8935 77.9785 32.015 77.9785C27.1365 77.9785 23.1816 80.9999 23.1816 84.727C23.1816 88.454 27.1365 91.4754 32.015 91.4754Z" fill="url(#paint9_linear_913_44548)"/>
<path d="M54.431 91.4744C59.3095 91.4744 63.2644 88.4531 63.2644 84.726C63.2644 80.9989 59.3095 77.9775 54.431 77.9775C49.5525 77.9775 45.5977 80.9989 45.5977 84.726C45.5977 88.4531 49.5525 91.4744 54.431 91.4744Z" fill="url(#paint10_linear_913_44548)"/>
<path d="M54.4312 77.7012C49.5735 77.7012 45.5913 80.6501 45.3351 84.3469C44.9297 84.2216 44.1888 84.0448 43.2232 84.0484C42.2577 84.0448 41.5168 84.2216 41.1114 84.3469C40.8535 80.6501 36.8729 77.7012 32.0153 77.7012C27.0766 77.7012 22.9062 80.9192 22.9062 84.7264C22.9062 88.6 26.9918 91.7516 32.0153 91.7516C36.9521 91.7516 40.9806 88.7069 41.1168 84.9255C41.4301 84.8186 42.1763 84.5994 43.2231 84.6049C44.2698 84.5994 45.0161 84.8186 45.3275 84.9255C45.4658 88.707 49.4941 91.7516 54.4308 91.7516C59.4544 91.7516 63.5399 88.6 63.5399 84.7264C63.5399 80.9192 59.3697 77.7012 54.4308 77.7012H54.4312ZM32.0155 91.1989C27.2777 91.1989 23.4244 88.296 23.4244 84.7264C23.4244 81.2194 27.3587 78.2537 32.0155 78.2537C36.7514 78.2537 40.6066 81.1586 40.6066 84.7264C40.6066 88.2943 36.7514 91.1989 32.0155 91.1989ZM54.4312 91.1989C49.6953 91.1989 45.8401 88.296 45.8401 84.7264C45.8401 81.1568 49.6953 78.2537 54.4312 78.2537C59.088 78.2537 63.0223 81.2192 63.0223 84.7264C63.0223 88.2962 59.169 91.1989 54.4312 91.1989Z" fill="#D1D3D4"/>
<path d="M70.2889 110.588L73.7744 110.557L79.0771 111.549L80.4839 112.539L78.0714 117.771L72.4361 119.44L67.3633 127.517L66.6872 132.468L66.8153 133.784L61.7089 133.405L57.7218 131.909L54.5689 129.624L51.8534 125.415L51.6465 122.265L70.2889 110.588Z" fill="url(#paint11_radial_913_44548)"/>
<path d="M73.7068 127.112C75.9612 127.539 78.2236 127.506 80.4274 126.355C81.8894 125.592 82.8777 124.335 82.9246 122.416C82.9327 122.083 82.8576 121.745 82.7781 121.426C82.6676 120.983 82.4212 120.861 81.9936 121.037C79.4024 122.103 76.8016 122.245 74.2263 121.617C73.4749 121.434 72.7476 121.084 72.0707 120.686C71.2527 120.206 70.548 120.438 69.9345 121.545C69.1479 122.964 69.3955 124.357 70.651 125.512C71.5384 126.328 72.5514 126.87 73.707 127.112L73.7068 127.112Z" fill="url(#paint12_radial_913_44548)"/>
<path d="M72.9337 132.334C74.7128 132.587 76.4568 132.711 78.1711 131.756C78.8264 131.391 79.4565 130.878 80.0017 130.307C80.7431 129.531 80.8762 128.231 80.3153 127.367C80.1456 127.106 79.6608 126.94 79.3584 127.02C77.5429 127.497 75.7453 127.579 73.9757 127.239C72.0128 126.863 70.3153 125.939 69.1746 124.027C68.9536 123.657 68.7049 123.651 68.3761 123.93C67.5611 124.622 67.1569 125.817 67.4273 126.876C67.933 128.856 69.0439 130.258 70.5817 131.193C71.3288 131.647 72.1477 131.958 72.9339 132.334L72.9337 132.334Z" fill="url(#paint13_radial_913_44548)"/>
<path d="M70.8457 135.818C72.1348 136.145 73.3353 136.068 74.5375 135.595C75.4915 135.219 76.2139 134.298 76.247 133.436C76.2677 132.898 76.1032 132.657 75.5816 132.622C74.5532 132.551 73.5038 132.498 72.5203 132.227C70.3061 131.616 68.5522 130.243 67.4457 127.995C67.1675 127.43 66.9709 127.524 66.6226 127.931C65.5924 129.137 65.5543 131.215 66.5512 132.736C67.6408 134.397 69.1619 135.331 70.8457 135.818Z" fill="url(#paint14_radial_913_44548)"/>
<path d="M61.7173 120.821C62.5307 120.38 63.3091 119.878 64.0604 119.339C67.7352 116.701 69.8005 113.047 70.4485 108.51C70.7793 106.193 70.8514 103.891 70.1624 101.653C69.6427 99.9647 68.7965 98.5205 67.0897 97.879C65.5565 97.3029 64.3099 97.9654 63.8745 99.6195C63.6286 100.554 63.509 101.52 63.3054 102.466C63.1405 103.232 62.9545 103.995 62.7443 104.749C62.1058 107.043 60.652 108.708 58.8841 110.159C57.3318 111.432 55.791 112.73 54.338 114.123C53.7506 114.686 53.2992 115.48 52.9747 116.252C51.7412 119.182 51.2991 122.065 51.9977 124.84C51.9977 124.84 54.343 124.045 55.1027 123.724C57.5103 122.705 60.4545 121.504 61.7172 120.82L61.7173 120.821Z" fill="url(#paint15_radial_913_44548)"/>
<path d="M78.1855 113.666C78.4157 113.671 78.8087 113.932 78.8178 114.109C78.8442 114.623 78.4264 114.452 78.15 114.462C76.0965 114.539 74.0936 114.882 72.2235 115.973C69.9472 117.301 70.6836 119.15 72.0397 120.207C73.1429 121.067 74.4424 121.349 75.7525 121.487C77.9555 121.717 80.157 121.573 82.2511 120.498C84.05 119.574 84.6314 117.864 83.7744 115.993C82.8787 114.038 81.2941 112.914 79.5318 112.016" fill="url(#paint16_radial_913_44548)"/>
<path d="M80.8308 127.278C81.0649 126.742 81.7615 126.469 82.16 126.034C83.2287 125.067 83.7864 123.738 83.5785 122.344C83.5332 121.974 83.4214 121.577 83.4738 121.21C83.5323 120.723 83.9028 120.366 84.1856 119.992C84.5337 119.544 84.8408 119.022 84.9475 118.463C85.0939 117.716 84.9139 116.956 84.6456 116.252C83.8918 114.239 82.2055 112.888 80.3603 111.897C78.2408 110.668 75.8574 110.117 73.4199 110.178C72.8918 110.169 72.3562 110.171 71.8214 110.165C71.5876 110.16 71.3798 110.131 71.2408 110.04C71.0283 109.921 70.9819 109.597 71.0045 109.314C71.0281 108.938 71.0615 108.55 71.1041 108.165C71.5698 104.837 71.2945 100.483 68.485 98.2356C68.0381 97.8797 67.5203 97.5666 66.9872 97.404C65.8985 97.0302 64.43 97.452 63.6853 98.3323C63.3234 98.7438 63.1217 99.2864 62.9882 99.8169C62.6763 101.084 62.4275 102.348 62.1259 103.613C61.7361 105.263 60.9554 106.761 59.9795 108.13C59.3344 109.013 58.5109 109.639 57.6807 110.293C56.7419 111.034 55.8505 111.865 54.9644 112.677C53.0796 114.314 51.9756 116.567 51.5168 119.015C51.352 119.83 51.2965 120.554 51.2458 121.38C50.9737 126.301 53.9452 130.945 58.4196 132.846C60.6948 133.804 63.185 134.385 65.6768 134.315C67.0401 134.18 67.3731 134.622 68.4114 135.322C70.2844 136.494 72.4661 136.843 74.6115 136.135C77.3141 135.2 76.2199 133.516 77.4844 132.587C79.0898 131.591 80.8739 131.168 80.9892 128.944C81.0686 128.397 80.7029 127.8 80.8249 127.297L80.8311 127.278L80.8308 127.278ZM65.8318 133.135C65.5401 133.673 62.656 133.102 62.0649 132.993C59.0903 132.361 56.1634 131.075 54.2816 128.587C51.5865 125.16 51.4285 121.075 52.9727 116.671C53.5381 115.058 54.3732 114.12 55.6579 113.027C60.655 108.605 62.3422 108.444 63.5058 101.346C63.7112 100.224 64.0012 98.7871 65.1907 98.3407C66.8386 97.8068 68.62 99.1683 69.3251 100.609C71.3726 104.687 70.3841 110.922 68.1512 114.694C66.9039 116.828 64.9149 118.712 62.6899 119.986C62.3668 120.182 61.2812 120.797 61.839 121.154C62.163 121.261 62.5713 121.049 62.8694 120.889C65.2211 119.546 67.1562 117.787 68.5576 115.496C69.0818 114.639 69.5206 113.72 69.8892 112.716C70.0172 112.382 70.1498 112.028 70.3594 111.74C70.6957 111.248 71.2938 111.144 71.8552 111.097C74.3629 110.903 76.7916 111.2 79.0879 112.246C80.4756 112.889 81.8196 113.693 82.8062 114.879C84.6939 117.162 84.5473 119.639 81.5239 120.729C79.0964 121.683 75.0922 121.655 72.7807 120.391C71.0934 119.455 70.1939 117.615 71.9416 116.37C73.6125 115.188 75.7062 114.83 77.7008 114.732C77.9846 114.711 78.6234 114.725 78.5586 114.352C78.1984 113.742 76.9006 114.017 76.2888 114.057C74.7707 114.268 73.2692 114.599 71.9367 115.418C70.7779 116.096 69.8247 117.29 70.2739 118.703C70.4727 119.309 70.5989 119.882 70.0837 120.366C69.5577 120.887 69.1114 121.471 68.9302 122.207C68.8214 122.603 68.7604 123.025 68.5528 123.385C68.3438 123.759 67.9969 124.039 67.7205 124.362C67.3148 124.827 67.0872 125.381 66.9829 126.002C66.8991 126.562 66.7779 127.125 66.412 127.576C65.3754 128.741 64.9812 130.036 65.4547 131.566C65.5299 131.823 65.6202 132.069 65.717 132.322C65.8063 132.571 65.9516 132.901 65.839 133.121L65.8315 133.135L65.8318 133.135ZM73.8139 126.697C71.8735 126.274 69.0506 124.582 69.7389 122.268C69.9396 121.646 70.3991 120.913 71.0495 120.738C71.4681 120.626 71.9361 120.817 72.3294 121.005C72.9904 121.336 73.6591 121.62 74.3774 121.787C76.694 122.341 79.0745 122.276 81.3743 121.552C81.9301 121.365 82.4933 121.394 82.6543 122.057C83.1556 124.484 81.3565 126.03 79.1714 126.623C77.442 127.126 75.6028 127.065 73.8393 126.703L73.8141 126.697H73.8139ZM73.0589 131.772C70.9064 131.062 68.824 129.793 67.9836 127.554C67.6398 126.746 67.6117 125.773 68.145 125.041C68.3259 124.783 68.5723 124.554 68.8226 124.513C69.4492 124.447 69.7889 125.27 70.2191 125.614C72.3683 127.681 75.6721 127.939 78.4922 127.475C79.8552 127.183 80.4613 128.33 80.0435 129.514C79.8966 129.9 79.6192 130.228 79.3107 130.501C77.6263 132.044 75.2429 132.289 73.0837 131.779L73.059 131.772L73.0589 131.772ZM70.9131 135.43C69.2318 134.978 67.6434 133.958 66.6867 132.467C65.9003 131.241 65.7884 129.602 66.6074 128.507C67.0781 127.892 67.4589 128.225 67.7767 128.757C69.4816 131.542 72.1271 132.434 75.214 132.647C76.3661 132.805 76.0204 134.087 75.386 134.661C74.2127 135.735 72.4218 135.795 70.9382 135.437L70.9131 135.43Z" fill="url(#paint17_radial_913_44548)"/>
<path d="M70.2889 110.588L73.7744 110.557L79.0771 111.549L80.4839 112.539L78.0714 117.771L72.4361 119.44L67.3633 127.517L66.6872 132.468L66.8153 133.784L61.7089 133.405L57.7218 131.909L54.5689 129.624L51.8534 125.415L51.6465 122.265L70.2889 110.588Z" fill="url(#paint18_radial_913_44548)"/>
<path d="M73.7068 127.112C75.9612 127.539 78.2236 127.506 80.4274 126.355C81.8894 125.592 82.8777 124.335 82.9246 122.416C82.9327 122.083 82.8576 121.745 82.7781 121.426C82.6676 120.983 82.4212 120.861 81.9936 121.037C79.4024 122.103 76.8016 122.245 74.2263 121.617C73.4749 121.434 72.7476 121.084 72.0707 120.686C71.2527 120.206 70.548 120.438 69.9345 121.545C69.1479 122.964 69.3955 124.357 70.651 125.512C71.5384 126.328 72.5514 126.87 73.707 127.112L73.7068 127.112Z" fill="url(#paint19_radial_913_44548)"/>
<path d="M72.9337 132.334C74.7128 132.587 76.4568 132.711 78.1711 131.756C78.8264 131.391 79.4565 130.878 80.0017 130.307C80.7431 129.531 80.8762 128.231 80.3153 127.367C80.1456 127.106 79.6608 126.94 79.3584 127.02C77.5429 127.497 75.7453 127.579 73.9757 127.239C72.0128 126.863 70.3153 125.939 69.1746 124.027C68.9536 123.657 68.7049 123.651 68.3761 123.93C67.5611 124.622 67.1569 125.817 67.4273 126.876C67.933 128.856 69.0439 130.258 70.5817 131.193C71.3288 131.647 72.1477 131.958 72.9339 132.334L72.9337 132.334Z" fill="url(#paint20_radial_913_44548)"/>
<path d="M70.8457 135.818C72.1348 136.145 73.3353 136.068 74.5375 135.595C75.4915 135.219 76.2139 134.298 76.247 133.436C76.2677 132.898 76.1032 132.657 75.5816 132.622C74.5532 132.551 73.5038 132.498 72.5203 132.227C70.3061 131.616 68.5522 130.243 67.4457 127.995C67.1675 127.43 66.9709 127.524 66.6226 127.931C65.5924 129.137 65.5543 131.215 66.5512 132.736C67.6408 134.397 69.1619 135.331 70.8457 135.818Z" fill="url(#paint21_radial_913_44548)"/>
<path d="M61.7173 120.821C62.5307 120.38 63.3091 119.878 64.0604 119.339C67.7352 116.701 69.8005 113.047 70.4485 108.51C70.7793 106.193 70.8514 103.891 70.1624 101.653C69.6427 99.9647 68.7965 98.5205 67.0897 97.879C65.5565 97.3029 64.3099 97.9654 63.8745 99.6195C63.6286 100.554 63.509 101.52 63.3054 102.466C63.1405 103.232 62.9545 103.995 62.7443 104.749C62.1058 107.043 60.652 108.708 58.8841 110.159C57.3318 111.432 55.791 112.73 54.338 114.123C53.7506 114.686 53.2992 115.48 52.9747 116.252C51.7412 119.182 51.2991 122.065 51.9977 124.84C51.9977 124.84 54.343 124.045 55.1027 123.724C57.5103 122.705 60.4545 121.504 61.7172 120.82L61.7173 120.821Z" fill="url(#paint22_radial_913_44548)"/>
<path d="M78.1855 113.666C78.4157 113.671 78.8087 113.932 78.8178 114.109C78.8442 114.623 78.4264 114.452 78.15 114.462C76.0965 114.539 74.0936 114.882 72.2235 115.973C69.9472 117.301 70.6836 119.15 72.0397 120.207C73.1429 121.067 74.4424 121.349 75.7525 121.487C77.9555 121.717 80.157 121.573 82.2511 120.498C84.05 119.574 84.6314 117.864 83.7744 115.993C82.8787 114.038 81.2941 112.914 79.5318 112.016" fill="url(#paint23_radial_913_44548)"/>
<path d="M80.8308 127.278C81.0649 126.742 81.7615 126.469 82.16 126.034C83.2287 125.067 83.7864 123.738 83.5785 122.344C83.5332 121.974 83.4214 121.577 83.4738 121.21C83.5323 120.723 83.9028 120.366 84.1856 119.992C84.5337 119.544 84.8408 119.022 84.9475 118.463C85.0939 117.716 84.9139 116.956 84.6456 116.252C83.8918 114.239 82.2055 112.888 80.3603 111.897C78.2408 110.668 75.8574 110.117 73.4199 110.178C72.8918 110.169 72.3562 110.171 71.8214 110.165C71.5876 110.16 71.3798 110.131 71.2408 110.04C71.0283 109.921 70.9819 109.597 71.0045 109.314C71.0281 108.938 71.0615 108.55 71.1041 108.165C71.5698 104.837 71.2945 100.483 68.485 98.2356C68.0381 97.8797 67.5203 97.5666 66.9872 97.404C65.8985 97.0302 64.43 97.452 63.6853 98.3323C63.3234 98.7438 63.1217 99.2864 62.9882 99.8169C62.6763 101.084 62.4275 102.348 62.1259 103.613C61.7361 105.263 60.9554 106.761 59.9795 108.13C59.3344 109.013 58.5109 109.639 57.6807 110.293C56.7419 111.034 55.8505 111.865 54.9644 112.677C53.0796 114.314 51.9756 116.567 51.5168 119.015C51.352 119.83 51.2965 120.554 51.2458 121.38C50.9737 126.301 53.9452 130.945 58.4196 132.846C60.6948 133.804 63.185 134.385 65.6768 134.315C67.0401 134.18 67.3731 134.622 68.4114 135.322C70.2844 136.494 72.4661 136.843 74.6115 136.135C77.3141 135.2 76.2199 133.516 77.4844 132.587C79.0898 131.591 80.8739 131.168 80.9892 128.944C81.0686 128.397 80.7029 127.8 80.8249 127.297L80.8311 127.278L80.8308 127.278ZM65.8318 133.135C65.5401 133.673 62.656 133.102 62.0649 132.993C59.0903 132.361 56.1634 131.075 54.2816 128.587C51.5865 125.16 51.4285 121.075 52.9727 116.671C53.5381 115.058 54.3732 114.12 55.6579 113.027C60.655 108.605 62.3422 108.444 63.5058 101.346C63.7112 100.224 64.0012 98.7871 65.1907 98.3407C66.8386 97.8068 68.62 99.1683 69.3251 100.609C71.3726 104.687 70.3841 110.922 68.1512 114.694C66.9039 116.828 64.9149 118.712 62.6899 119.986C62.3668 120.182 61.2812 120.797 61.839 121.154C62.163 121.261 62.5713 121.049 62.8694 120.889C65.2211 119.546 67.1562 117.787 68.5576 115.496C69.0818 114.639 69.5206 113.72 69.8892 112.716C70.0172 112.382 70.1498 112.028 70.3594 111.74C70.6957 111.248 71.2938 111.144 71.8552 111.097C74.3629 110.903 76.7916 111.2 79.0879 112.246C80.4756 112.889 81.8196 113.693 82.8062 114.879C84.6939 117.162 84.5473 119.639 81.5239 120.729C79.0964 121.683 75.0922 121.655 72.7807 120.391C71.0934 119.455 70.1939 117.615 71.9416 116.37C73.6125 115.188 75.7062 114.83 77.7008 114.732C77.9846 114.711 78.6234 114.725 78.5586 114.352C78.1984 113.742 76.9006 114.017 76.2888 114.057C74.7707 114.268 73.2692 114.599 71.9367 115.418C70.7779 116.096 69.8247 117.29 70.2739 118.703C70.4727 119.309 70.5989 119.882 70.0837 120.366C69.5577 120.887 69.1114 121.471 68.9302 122.207C68.8214 122.603 68.7604 123.025 68.5528 123.385C68.3438 123.759 67.9969 124.039 67.7205 124.362C67.3148 124.827 67.0872 125.381 66.9829 126.002C66.8991 126.562 66.7779 127.125 66.412 127.576C65.3754 128.741 64.9812 130.036 65.4547 131.566C65.5299 131.823 65.6202 132.069 65.717 132.322C65.8063 132.571 65.9516 132.901 65.839 133.121L65.8315 133.135L65.8318 133.135ZM73.8139 126.697C71.8735 126.274 69.0506 124.582 69.7389 122.268C69.9396 121.646 70.3991 120.913 71.0495 120.738C71.4681 120.626 71.9361 120.817 72.3294 121.005C72.9904 121.336 73.6591 121.62 74.3774 121.787C76.694 122.341 79.0745 122.276 81.3743 121.552C81.9301 121.365 82.4933 121.394 82.6543 122.057C83.1556 124.484 81.3565 126.03 79.1714 126.623C77.442 127.126 75.6028 127.065 73.8393 126.703L73.8141 126.697H73.8139ZM73.0589 131.772C70.9064 131.062 68.824 129.793 67.9836 127.554C67.6398 126.746 67.6117 125.773 68.145 125.041C68.3259 124.783 68.5723 124.554 68.8226 124.513C69.4492 124.447 69.7889 125.27 70.2191 125.614C72.3683 127.681 75.6721 127.939 78.4922 127.475C79.8552 127.183 80.4613 128.33 80.0435 129.514C79.8966 129.9 79.6192 130.228 79.3107 130.501C77.6263 132.044 75.2429 132.289 73.0837 131.779L73.059 131.772L73.0589 131.772ZM70.9131 135.43C69.2318 134.978 67.6434 133.958 66.6867 132.467C65.9003 131.241 65.7884 129.602 66.6074 128.507C67.0781 127.892 67.4589 128.225 67.7767 128.757C69.4816 131.542 72.1271 132.434 75.214 132.647C76.3661 132.805 76.0204 134.087 75.386 134.661C74.2127 135.735 72.4218 135.795 70.9382 135.437L70.9131 135.43Z" fill="#75584C"/>
</g>
<g clip-path="url(#clip1_913_44548)">
<path d="M174.762 82.8072C175.839 78.0151 174.018 73.5196 170.694 72.7663C167.371 72.0129 163.804 75.2869 162.727 80.079C161.65 84.8711 163.471 89.3666 166.795 90.12C170.118 90.8733 173.685 87.5993 174.762 82.8072Z" fill="url(#paint24_radial_913_44548)"/>
<path d="M113.276 90.1205C116.6 89.3671 118.421 84.8716 117.344 80.0795C116.267 75.2874 112.7 72.0134 109.377 72.7668C106.053 73.5201 104.232 78.0156 105.309 82.8077C106.386 87.5998 109.953 90.8738 113.276 90.1205Z" fill="url(#paint25_radial_913_44548)"/>
<path d="M170.597 79.4951C170.597 100.479 156.204 117.814 140.031 117.814C123.859 117.814 109.465 100.479 109.465 79.4951C109.465 58.5109 123.15 41.5 140.031 41.5C156.912 41.5 170.597 58.511 170.597 79.4951Z" fill="url(#paint26_radial_913_44548)"/>
<path d="M170.597 79.4951C170.597 100.479 156.204 117.814 140.031 117.814C123.859 117.814 109.465 100.479 109.465 79.4951C109.465 58.5109 123.15 41.5 140.031 41.5C156.912 41.5 170.597 58.511 170.597 79.4951Z" fill="url(#paint27_radial_913_44548)"/>
<path d="M130.927 80.1355C132.383 80.1355 133.564 78.95 133.564 77.4876C133.564 76.0253 132.383 74.8398 130.927 74.8398C129.471 74.8398 128.291 76.0253 128.291 77.4876C128.291 78.95 129.471 80.1355 130.927 80.1355Z" fill="#231F20"/>
<path d="M149.134 80.1355C150.59 80.1355 151.771 78.95 151.771 77.4876C151.771 76.0253 150.59 74.8398 149.134 74.8398C147.678 74.8398 146.498 76.0253 146.498 77.4876C146.498 78.95 147.678 80.1355 149.134 80.1355Z" fill="#231F20"/>
<path d="M124.604 71.8417C127.825 70.7918 131.187 70.6534 134.471 71.4943C136.585 72.0354 137.486 68.7551 135.372 68.2136C131.527 67.2292 127.482 67.3294 123.704 68.561C121.639 69.234 122.523 72.5202 124.604 71.8417Z" fill="url(#paint28_linear_913_44548)"/>
<path d="M140.032 105.274C141.729 105.274 144.564 104.977 146.367 104.092C148.15 103.235 149.722 102.07 151.063 100.748C151.642 100.179 151.742 99.2562 151.26 98.5698C150.72 97.7998 149.654 97.6236 148.897 98.1777C146.296 100.053 143.27 100.92 140.031 100.92C136.791 100.92 133.765 100.053 131.165 98.1777C130.407 97.6236 129.341 97.7998 128.801 98.5698C128.319 99.2562 128.419 100.179 128.998 100.748C130.34 102.07 131.911 103.235 133.695 104.092C135.498 104.977 138.332 105.274 140.029 105.274" fill="url(#paint29_linear_913_44548)"/>
<path d="M155.459 71.8417C152.238 70.7918 148.877 70.6534 145.592 71.4943C143.479 72.0354 142.577 68.7551 144.691 68.2136C148.536 67.2292 152.581 67.3294 156.359 68.561C158.424 69.234 157.541 72.5202 155.459 71.8417Z" fill="url(#paint30_linear_913_44548)"/>
<path d="M140.031 87.6826C132.366 87.6826 126.446 90.9155 125.943 96.9373C125.911 97.3269 126.336 97.6165 126.743 97.4746L129.9 96.3716C130.184 96.2725 130.505 96.384 130.64 96.6286L132.187 99.4296C132.368 99.7561 132.855 99.8238 133.137 99.5614L135.681 97.1967C135.913 96.9807 136.3 96.9819 136.53 97.1995L139.605 100.101C139.837 100.319 140.226 100.319 140.457 100.101L143.532 97.1995C143.763 96.9821 144.149 96.9807 144.381 97.1967L146.925 99.5614C147.207 99.8238 147.694 99.7563 147.875 99.4296L149.422 96.6286C149.558 96.384 149.879 96.2725 150.163 96.3716L153.32 97.4746C153.726 97.6165 154.152 97.3269 154.119 96.9373C153.617 90.9155 147.696 87.6826 140.031 87.6826Z" fill="url(#paint31_linear_913_44548)"/>
<path d="M144.919 90.9017C142.993 91.3263 142.082 92.2807 140.031 92.2807C137.98 92.2807 137.069 91.3263 135.143 90.9017C132.313 90.2801 132.063 87.7784 134.888 86.3688C136.76 85.4316 136.478 84.9286 136.726 82.4518C136.914 80.5622 137.045 79.6307 137.269 77.3662C137.348 76.5629 137.867 75.8094 138.725 75.3771C139.093 75.1916 139.532 75.0615 140.031 75.0615C140.53 75.0615 140.969 75.1916 141.34 75.3771C142.195 75.8094 142.714 76.5629 142.793 77.3662C143.017 79.6307 143.15 80.5622 143.338 82.4518C143.584 84.9286 143.302 85.4316 145.177 86.3688C147.999 87.7784 147.751 90.2801 144.919 90.9017H144.919Z" fill="url(#paint32_linear_913_44548)"/>
<path d="M115.29 73.8115C114.722 77.3613 114.822 80.9428 113.478 82.5795C112.134 84.2161 108.654 83.7278 108.083 80.8214C107.728 79.0176 107.632 76.3101 107.774 74.1231C107.992 70.7904 108.573 67.0535 110.242 62.0534C111.737 57.5716 118.096 58.3388 117.334 62.5668C116.463 67.4074 116.088 68.8164 115.29 73.8115Z" fill="url(#paint33_linear_913_44548)"/>
<path d="M164.772 73.8115C165.339 77.3613 165.239 80.9428 166.583 82.5795C167.927 84.2161 171.407 83.7278 171.979 80.8214C172.333 79.0176 172.43 76.3101 172.287 74.1231C172.069 70.7904 171.488 67.0535 169.82 62.0534C168.324 57.5716 161.966 58.3388 162.727 62.5668C163.599 67.4074 163.973 68.8164 164.772 73.8115Z" fill="url(#paint34_linear_913_44548)"/>
<path d="M172.648 107.776L176.497 107.69L182.367 108.714L183.935 109.792L181.347 115.633L175.148 117.567L169.663 126.604L168.989 132.108L169.149 133.566L163.505 133.22L159.08 131.618L155.565 129.129L152.505 124.498L152.23 121.006L172.648 107.776Z" fill="url(#paint35_radial_913_44548)"/>
<path d="M176.662 126.063C179.158 126.504 181.656 126.434 184.073 125.125C185.676 124.257 186.75 122.848 186.773 120.718C186.778 120.347 186.69 119.974 186.597 119.621C186.469 119.131 186.195 118.998 185.725 119.2C182.879 120.422 180.009 120.617 177.156 119.958C176.323 119.766 175.515 119.387 174.762 118.956C173.852 118.435 173.077 118.703 172.415 119.94C171.567 121.526 171.861 123.068 173.264 124.331C174.256 125.224 175.383 125.811 176.662 126.063Z" fill="url(#paint36_linear_913_44548)"/>
<path d="M175.884 131.868C177.852 132.123 179.78 132.235 181.659 131.15C182.378 130.736 183.066 130.157 183.66 129.516C184.467 128.644 184.595 127.199 183.963 126.249C183.772 125.961 183.234 125.785 182.901 125.877C180.903 126.433 178.919 126.55 176.96 126.2C174.787 125.811 172.899 124.809 171.612 122.705C171.362 122.297 171.088 122.294 170.728 122.609C169.838 123.389 169.409 124.721 169.723 125.892C170.311 128.081 171.558 129.621 173.27 130.636C174.101 131.129 175.01 131.463 175.884 131.868V131.868Z" fill="url(#paint37_linear_913_44548)"/>
<path d="M173.63 135.765C175.058 136.109 176.383 136.007 177.704 135.464C178.752 135.033 179.536 133.999 179.56 133.043C179.575 132.446 179.39 132.181 178.814 132.149C177.677 132.086 176.517 132.042 175.427 131.755C172.973 131.11 171.016 129.612 169.761 127.134C169.446 126.511 169.23 126.618 168.852 127.075C167.731 128.428 167.719 130.734 168.843 132.407C170.07 134.235 171.763 135.248 173.63 135.765Z" fill="url(#paint38_linear_913_44548)"/>
<path d="M163.332 119.255C164.224 118.754 165.076 118.187 165.898 117.577C169.918 114.596 172.145 110.512 172.795 105.467C173.127 102.891 173.173 100.336 172.379 97.8622C171.781 95.9966 170.825 94.4063 168.931 93.7195C167.23 93.1025 165.863 93.8559 165.406 95.6977C165.148 96.7378 165.03 97.8123 164.819 98.8652C164.648 99.7172 164.454 100.566 164.232 101.407C163.561 103.961 161.979 105.83 160.048 107.466C158.352 108.902 156.67 110.364 155.086 111.931C154.445 112.564 153.958 113.452 153.611 114.313C152.291 117.583 151.845 120.788 152.657 123.858C152.657 123.858 155.235 122.942 156.07 122.574C158.714 121.408 161.948 120.032 163.332 119.255V119.255Z" fill="url(#paint39_radial_913_44548)"/>
<path d="M181.413 111.076C181.667 111.078 182.105 111.362 182.117 111.558C182.154 112.129 181.69 111.945 181.385 111.961C179.118 112.075 176.911 112.485 174.862 113.723C172.368 115.23 173.208 117.271 174.721 118.424C175.952 119.362 177.391 119.657 178.84 119.79C181.276 120.014 183.705 119.822 186.002 118.598C187.975 117.547 188.592 115.641 187.619 113.578C186.601 111.421 184.835 110.197 182.876 109.226" fill="url(#paint40_linear_913_44548)"/>
<path d="M184.532 126.142C184.783 125.544 185.548 125.231 185.982 124.743C187.148 123.654 187.745 122.171 187.495 120.627C187.44 120.217 187.31 119.779 187.363 119.371C187.42 118.829 187.824 118.428 188.131 118.008C188.509 117.507 188.841 116.923 188.951 116.301C189.101 115.469 188.892 114.629 188.585 113.852C187.723 111.629 185.841 110.154 183.789 109.082C181.431 107.749 178.791 107.173 176.1 107.275C175.516 107.274 174.925 107.284 174.334 107.284C174.076 107.282 173.846 107.253 173.691 107.154C173.454 107.025 173.399 106.666 173.419 106.352C173.44 105.934 173.471 105.503 173.513 105.075C173.979 101.376 173.611 96.5487 170.476 94.0956C169.978 93.7071 169.401 93.3673 168.81 93.1947C167.602 92.796 165.987 93.2852 165.177 94.2731C164.783 94.735 164.568 95.3401 164.429 95.9307C164.103 97.3411 163.846 98.7476 163.532 100.156C163.125 101.992 162.285 103.667 161.227 105.2C160.527 106.189 159.627 106.895 158.72 107.633C157.694 108.469 156.721 109.404 155.755 110.319C153.697 112.162 152.511 114.678 152.04 117.402C151.87 118.308 151.819 119.113 151.775 120.03C151.546 125.495 154.895 130.605 159.864 132.648C162.39 133.679 165.149 134.287 167.899 134.173C169.403 134.003 169.777 134.489 170.934 135.251C173.019 136.524 175.434 136.879 177.793 136.061C180.764 134.985 179.531 133.133 180.914 132.083C182.672 130.954 184.636 130.459 184.731 127.989C184.811 127.381 184.398 126.724 184.526 126.164L184.532 126.142L184.532 126.142ZM168.054 132.861C167.739 133.462 164.546 132.871 163.892 132.758C160.597 132.101 157.347 130.716 155.232 127.983C152.206 124.22 151.972 119.688 153.613 114.779C154.214 112.982 155.123 111.928 156.526 110.696C161.98 105.716 163.841 105.513 165.023 97.6199C165.233 96.3714 165.533 94.7732 166.84 94.2604C168.652 93.6438 170.639 95.1288 171.439 96.7172C173.759 101.212 172.758 108.146 170.347 112.364C169.001 114.75 166.831 116.87 164.393 118.316C164.039 118.538 162.849 119.237 163.47 119.625C163.83 119.739 164.278 119.497 164.604 119.315C167.182 117.791 169.293 115.811 170.807 113.247C171.374 112.29 171.845 111.263 172.238 110.144C172.374 109.771 172.515 109.376 172.743 109.054C173.107 108.503 173.766 108.379 174.385 108.319C177.152 108.066 179.838 108.361 182.389 109.488C183.931 110.181 185.427 111.054 186.533 112.355C188.651 114.861 188.526 117.612 185.202 118.866C182.535 119.959 178.113 119.987 175.542 118.618C173.665 117.604 172.645 115.576 174.557 114.168C176.385 112.832 178.692 112.405 180.893 112.267C181.206 112.239 181.912 112.246 181.835 111.832C181.429 111.16 179.999 111.485 179.324 111.538C177.651 111.795 175.998 112.184 174.538 113.112C173.268 113.881 172.233 115.219 172.75 116.781C172.978 117.451 173.126 118.085 172.564 118.63C171.99 119.215 171.506 119.87 171.317 120.689C171.202 121.131 171.141 121.6 170.917 122.002C170.692 122.42 170.313 122.736 170.012 123.099C169.571 123.62 169.327 124.238 169.221 124.929C169.137 125.552 169.011 126.178 168.614 126.684C167.486 127.992 167.07 129.434 167.615 131.125C167.701 131.409 167.805 131.681 167.915 131.96C168.018 132.236 168.183 132.6 168.062 132.845L168.054 132.861V132.861ZM176.775 125.601C174.626 125.159 171.484 123.323 172.21 120.745C172.423 120.052 172.92 119.232 173.635 119.028C174.096 118.898 174.616 119.102 175.053 119.306C175.788 119.664 176.53 119.969 177.326 120.143C179.892 120.725 182.52 120.617 185.049 119.78C185.661 119.565 186.283 119.589 186.47 120.322C187.059 123.008 185.095 124.75 182.69 125.44C180.788 126.023 178.756 125.983 176.803 125.606L176.775 125.6L176.775 125.601ZM176.015 131.242C173.627 130.487 171.309 129.109 170.349 126.637C169.957 125.745 169.912 124.666 170.49 123.845C170.686 123.556 170.955 123.299 171.231 123.25C171.922 123.168 172.309 124.076 172.789 124.451C175.193 126.713 178.845 126.951 181.953 126.395C183.454 126.052 184.139 127.315 183.695 128.635C183.539 129.066 183.237 129.434 182.9 129.741C181.063 131.478 178.434 131.784 176.042 131.25L176.015 131.242ZM173.699 135.334C171.835 134.857 170.066 133.748 168.988 132.107C168.102 130.759 167.954 128.941 168.843 127.714C169.354 127.025 169.779 127.389 170.138 127.974C172.061 131.041 174.996 131.991 178.408 132.183C179.682 132.341 179.319 133.768 178.627 134.415C177.347 135.624 175.37 135.717 173.727 135.34L173.699 135.334Z" fill="#CE936E"/>
</g>
<g clip-path="url(#clip2_913_44548)">
<path d="M269.083 90.1117C267.636 99.5916 261.044 118.249 239.914 118.249C218.784 118.249 212.191 99.5916 210.744 90.1117C209.622 82.7567 206.839 72.1502 212.099 56.9949C216.538 44.2003 231.605 41.5 239.913 41.5C248.222 41.5 263.289 44.2003 267.727 56.9949C272.988 72.1502 270.205 82.7567 269.082 90.1117H269.083Z" fill="url(#paint41_linear_913_44548)"/>
<path d="M250.434 112.785C247.332 116.012 243.655 116.781 239.913 116.781C236.172 116.781 232.493 116.012 229.391 112.785C225.062 108.283 216.548 101.282 216.548 77.3873C215.877 58.0284 225.686 54.0029 239.913 54.0029C254.141 54.0029 263.948 58.0284 263.277 77.3873C263.277 101.282 254.764 108.283 250.433 112.785H250.434Z" fill="url(#paint42_radial_913_44548)"/>
<path d="M262.906 86.5613C262.965 86.1214 262.801 85.0561 262.609 83.8424C260.799 72.4323 260.245 68.2287 253.263 61.7664C249.393 58.1827 244.519 57.1062 239.913 57.1062C235.308 57.1062 230.435 58.1827 226.564 61.7664C219.58 68.2287 219.028 72.4323 217.218 83.8424C217.026 85.0561 216.86 86.1214 216.921 86.5613C215.837 78.6663 216.017 72.5956 217.305 66.46C219.655 55.2522 228.966 48.8438 239.913 48.8438C250.86 48.8438 260.172 55.2522 262.521 66.46C263.808 72.5956 263.99 78.6663 262.906 86.5613H262.906Z" fill="#414042"/>
<path d="M229.272 73.842C226.506 73.6538 224.062 74.7861 221.386 75.6112C221.225 75.4017 222.444 74.4166 222.634 74.264C227.038 70.7306 230.43 70.8343 235.804 72.0908C236.86 72.3376 236.901 73.0158 236.708 73.8203C236.599 74.2733 236.342 74.5851 235.897 74.6237C235.452 74.6623 235.169 74.5859 234.118 74.4814C233.068 74.3769 232.037 74.0302 229.272 73.842Z" fill="#1B1B1B"/>
<path d="M231.028 81.8017C232.449 81.8017 233.602 80.6514 233.602 79.2324C233.602 77.8134 232.449 76.6631 231.028 76.6631C229.607 76.6631 228.455 77.8134 228.455 79.2324C228.455 80.6514 229.607 81.8017 231.028 81.8017Z" fill="#231F20"/>
<path d="M248.8 81.8017C250.221 81.8017 251.373 80.6514 251.373 79.2324C251.373 77.8134 250.221 76.6631 248.8 76.6631C247.379 76.6631 246.227 77.8134 246.227 79.2324C246.227 80.6514 247.379 81.8017 248.8 81.8017Z" fill="#231F20"/>
<path d="M250.556 73.842C253.321 73.6538 255.765 74.7861 258.441 75.6112C258.602 75.4017 257.383 74.4166 257.193 74.264C252.789 70.7306 249.397 70.8343 244.023 72.0908C242.967 72.3376 242.926 73.0158 243.119 73.8203C243.228 74.2733 243.485 74.5851 243.93 74.6237C244.375 74.6623 244.658 74.5859 245.709 74.4814C246.76 74.3771 247.79 74.0302 250.555 73.842H250.556Z" fill="#1B1B1B"/>
<path d="M243.467 94.0535C242.067 94.5032 241.404 94.9063 239.913 94.9063C238.421 94.9063 237.759 94.5032 236.359 94.0535C234.301 93.395 234.119 90.7454 236.173 89.2521C237.535 88.2594 237.33 87.7265 237.51 85.1032C237.647 83.1016 237.741 82.115 237.904 79.7165C237.962 78.8655 238.339 78.0675 238.963 77.6096C239.231 77.4131 239.55 77.2754 239.913 77.2754C240.276 77.2754 240.595 77.4131 240.865 77.6096C241.487 78.0675 241.864 78.8657 241.921 79.7165C242.084 82.115 242.181 83.1016 242.318 85.1032C242.496 87.7267 242.291 88.2596 243.655 89.2521C245.707 90.7452 245.526 93.395 243.467 94.0535H243.467Z" fill="url(#paint43_linear_913_44548)"/>
<path d="M228.955 99.6076C228.955 99.6076 234.446 100.117 239.912 100.117C245.378 100.117 250.874 99.7796 250.874 99.7796C250.874 99.7796 245.749 104.429 239.915 104.429C234.08 104.429 228.955 99.6074 228.955 99.6074L228.955 99.6076Z" fill="url(#paint44_linear_913_44548)"/>
<path d="M251.079 99.7793C251.079 99.7793 247.691 105.672 239.911 105.672C232.132 105.672 228.746 99.5937 228.746 99.5937C228.746 99.5937 228.796 99.5232 228.995 99.6271C230.533 100.301 233.385 103.755 239.911 103.714C246.438 103.755 249.292 100.486 250.828 99.8127C251.027 99.7088 251.079 99.7793 251.079 99.7793Z" fill="#971C1F"/>
<path d="M251.079 99.7793C251.079 99.7793 244.266 101.229 239.911 101.283C235.558 101.229 228.746 99.5937 228.746 99.5937C229.638 98.7251 233.906 98.2649 238.108 98.6917C239.22 98.8031 239.911 99.1854 239.911 99.1854C239.911 99.1854 240.605 98.8031 241.716 98.6917C245.919 98.2649 250.185 98.9107 251.079 99.7793Z" fill="#7F1717"/>
<path d="M273.038 108.627L276.795 108.544L282.525 109.537L284.055 110.584L281.529 116.251L275.479 118.128L270.125 126.897L269.467 132.237L269.623 133.653L264.114 133.317L259.795 131.762L256.364 129.347L253.377 124.854L253.109 121.465L273.038 108.627Z" fill="#8B5E3C"/>
<path d="M276.957 126.372C279.394 126.8 281.832 126.732 284.191 125.462C285.756 124.619 286.804 123.252 286.827 121.185C286.831 120.826 286.745 120.463 286.655 120.121C286.53 119.646 286.262 119.517 285.804 119.713C283.026 120.898 280.224 121.087 277.439 120.448C276.627 120.262 275.838 119.894 275.103 119.476C274.214 118.97 273.458 119.231 272.812 120.431C271.985 121.97 272.271 123.466 273.641 124.692C274.609 125.558 275.709 126.128 276.958 126.372H276.957Z" fill="#8B5E3C"/>
<path d="M276.199 132.006C278.12 132.253 280.002 132.362 281.836 131.309C282.537 130.907 283.209 130.346 283.789 129.724C284.577 128.877 284.702 127.475 284.085 126.553C283.898 126.274 283.374 126.103 283.049 126.192C281.098 126.732 279.162 126.845 277.25 126.505C275.128 126.128 273.286 125.157 272.029 123.114C271.785 122.719 271.517 122.716 271.167 123.021C270.298 123.778 269.879 125.071 270.186 126.207C270.759 128.331 271.977 129.825 273.647 130.81C274.459 131.289 275.346 131.612 276.199 132.006Z" fill="#8B5E3C"/>
<path d="M273.997 135.787C275.391 136.121 276.685 136.022 277.974 135.495C278.997 135.077 279.762 134.074 279.786 133.146C279.8 132.566 279.62 132.309 279.057 132.278C277.947 132.217 276.816 132.175 275.751 131.896C273.356 131.27 271.446 129.816 270.221 127.412C269.913 126.808 269.703 126.911 269.333 127.355C268.24 128.668 268.228 130.906 269.325 132.529C270.523 134.302 272.175 135.286 273.997 135.787Z" fill="#8B5E3C"/>
<path d="M263.946 119.767C264.816 119.281 265.648 118.73 266.45 118.139C270.374 115.246 272.548 111.283 273.182 106.388C273.506 103.888 273.551 101.409 272.777 99.0085C272.193 97.1983 271.26 95.6551 269.411 94.9886C267.75 94.3899 266.416 95.1209 265.97 96.9082C265.718 97.9174 265.603 98.9601 265.397 99.9817C265.23 100.809 265.041 101.632 264.825 102.448C264.169 104.927 262.626 106.74 260.741 108.327C259.085 109.721 257.443 111.14 255.897 112.66C255.271 113.275 254.796 114.136 254.457 114.972C253.169 118.145 252.734 121.255 253.526 124.233C253.526 124.233 256.043 123.344 256.857 122.988C259.438 121.857 262.595 120.522 263.946 119.767V119.767Z" fill="#8B5E3C"/>
<path d="M281.595 111.831C281.843 111.833 282.271 112.109 282.283 112.299C282.319 112.852 281.866 112.674 281.568 112.689C279.356 112.8 277.202 113.198 275.201 114.399C272.766 115.861 273.586 117.842 275.063 118.961C276.265 119.871 277.669 120.157 279.083 120.287C281.462 120.504 283.832 120.318 286.074 119.13C288.001 118.11 288.603 116.26 287.653 114.258C286.659 112.166 284.935 110.977 283.023 110.035" fill="#8B5E3C"/>
<path d="M284.639 126.449C284.884 125.869 285.631 125.565 286.054 125.092C287.193 124.035 287.775 122.596 287.531 121.098C287.477 120.7 287.351 120.275 287.402 119.879C287.458 119.353 287.853 118.964 288.152 118.557C288.521 118.07 288.845 117.503 288.952 116.9C289.099 116.093 288.894 115.278 288.595 114.523C287.754 112.367 285.917 110.935 283.914 109.895C281.612 108.602 279.035 108.042 276.408 108.142C275.839 108.14 275.262 108.15 274.685 108.151C274.433 108.148 274.208 108.12 274.057 108.024C273.826 107.899 273.772 107.551 273.792 107.246C273.812 106.84 273.843 106.422 273.883 106.007C274.338 102.417 273.979 97.7332 270.919 95.3528C270.433 94.9759 269.87 94.6461 269.293 94.4787C268.114 94.0917 266.537 94.5665 265.747 95.5251C265.362 95.9733 265.153 96.5605 265.016 97.1336C264.698 98.5021 264.448 99.867 264.141 101.233C263.744 103.015 262.924 104.64 261.891 106.128C261.208 107.088 260.33 107.773 259.444 108.489C258.443 109.3 257.493 110.207 256.55 111.095C254.542 112.884 253.383 115.326 252.924 117.968C252.758 118.848 252.708 119.628 252.665 120.519C252.442 125.821 255.711 130.78 260.561 132.763C263.027 133.763 265.719 134.353 268.404 134.242C269.872 134.077 270.237 134.549 271.366 135.288C273.402 136.523 275.758 136.868 278.061 136.075C280.961 135.03 279.757 133.233 281.107 132.214C282.823 131.119 284.741 130.638 284.833 128.242C284.911 127.652 284.508 127.014 284.633 126.47L284.639 126.45L284.639 126.449ZM268.555 132.969C268.248 133.553 265.131 132.979 264.492 132.87C261.277 132.232 258.104 130.888 256.04 128.236C253.086 124.584 252.858 120.187 254.46 115.423C255.047 113.679 255.933 112.657 257.303 111.462C262.627 106.629 264.443 106.432 265.597 98.7727C265.802 97.5612 266.094 96.0104 267.37 95.5128C269.139 94.9145 271.079 96.3554 271.859 97.8967C274.124 102.258 273.147 108.986 270.793 113.08C269.479 115.395 267.362 117.452 264.982 118.855C264.636 119.071 263.475 119.749 264.081 120.125C264.432 120.236 264.869 120.001 265.188 119.825C267.704 118.345 269.765 116.424 271.243 113.937C271.796 113.007 272.256 112.011 272.639 110.925C272.772 110.564 272.91 110.18 273.132 109.867C273.487 109.333 274.13 109.213 274.735 109.154C277.435 108.909 280.057 109.195 282.547 110.289C284.052 110.962 285.512 111.809 286.593 113.071C288.66 115.503 288.537 118.172 285.293 119.389C282.69 120.45 278.374 120.476 275.864 119.148C274.032 118.164 273.036 116.196 274.903 114.83C276.687 113.534 278.939 113.119 281.088 112.985C281.393 112.958 282.082 112.965 282.007 112.564C281.61 111.912 280.215 112.227 279.556 112.278C277.923 112.528 276.309 112.905 274.884 113.805C273.645 114.552 272.634 115.851 273.139 117.366C273.361 118.016 273.506 118.631 272.957 119.16C272.397 119.728 271.925 120.363 271.74 121.158C271.628 121.586 271.568 122.042 271.35 122.432C271.13 122.838 270.76 123.144 270.466 123.496C270.036 124.002 269.798 124.602 269.695 125.273C269.612 125.877 269.49 126.485 269.102 126.975C268.001 128.245 267.594 129.644 268.126 131.285C268.211 131.56 268.312 131.824 268.42 132.095C268.52 132.363 268.681 132.716 268.563 132.954L268.555 132.969V132.969ZM277.068 125.924C274.97 125.496 271.903 123.714 272.612 121.212C272.82 120.54 273.305 119.744 274.003 119.546C274.453 119.42 274.96 119.618 275.387 119.816C276.104 120.163 276.829 120.459 277.605 120.629C280.11 121.193 282.675 121.088 285.144 120.276C285.741 120.068 286.348 120.09 286.531 120.802C287.106 123.408 285.188 125.099 282.841 125.768C280.984 126.334 279.001 126.295 277.095 125.929L277.068 125.924L277.068 125.924ZM276.326 131.399C273.995 130.665 271.733 129.328 270.795 126.929C270.413 126.064 270.369 125.017 270.933 124.22C271.124 123.94 271.387 123.691 271.656 123.643C272.331 123.563 272.708 124.444 273.177 124.809C275.523 127.003 279.088 127.234 282.121 126.695C283.586 126.362 284.256 127.587 283.822 128.869C283.669 129.287 283.375 129.643 283.046 129.941C281.253 131.627 278.687 131.924 276.352 131.405L276.326 131.398V131.399ZM274.065 135.368C272.246 134.905 270.519 133.829 269.467 132.238C268.602 130.929 268.458 129.165 269.325 127.975C269.824 127.306 270.239 127.659 270.589 128.227C272.466 131.203 275.331 132.125 278.661 132.311C279.905 132.464 279.551 133.849 278.875 134.477C277.626 135.65 275.696 135.74 274.092 135.375L274.065 135.368Z" fill="#8B5E3C"/>
<path d="M273.038 108.627L276.795 108.544L282.525 109.537L284.055 110.584L281.529 116.251L275.479 118.128L270.125 126.897L269.467 132.237L269.623 133.653L264.114 133.317L259.795 131.762L256.364 129.347L253.377 124.854L253.109 121.465L273.038 108.627Z" fill="url(#paint45_radial_913_44548)"/>
<path d="M276.957 126.372C279.394 126.8 281.832 126.732 284.191 125.462C285.756 124.619 286.804 123.252 286.827 121.185C286.831 120.826 286.745 120.463 286.655 120.121C286.53 119.646 286.262 119.517 285.804 119.713C283.026 120.898 280.224 121.087 277.439 120.448C276.627 120.262 275.838 119.894 275.103 119.476C274.214 118.97 273.458 119.231 272.812 120.431C271.985 121.97 272.271 123.466 273.641 124.692C274.609 125.558 275.709 126.128 276.958 126.372H276.957Z" fill="url(#paint46_radial_913_44548)"/>
<path d="M276.199 132.006C278.12 132.253 280.002 132.362 281.836 131.309C282.537 130.907 283.209 130.346 283.789 129.724C284.577 128.877 284.702 127.475 284.085 126.553C283.898 126.274 283.374 126.103 283.049 126.192C281.098 126.732 279.162 126.845 277.25 126.505C275.128 126.128 273.286 125.157 272.029 123.114C271.785 122.719 271.517 122.716 271.167 123.021C270.298 123.778 269.879 125.071 270.186 126.207C270.759 128.331 271.977 129.825 273.647 130.81C274.459 131.289 275.346 131.612 276.199 132.006Z" fill="url(#paint47_radial_913_44548)"/>
<path d="M273.997 135.787C275.391 136.121 276.685 136.022 277.974 135.495C278.997 135.077 279.762 134.074 279.786 133.146C279.8 132.566 279.62 132.309 279.057 132.278C277.947 132.217 276.816 132.175 275.751 131.896C273.356 131.27 271.446 129.816 270.221 127.412C269.913 126.808 269.703 126.911 269.333 127.355C268.24 128.668 268.228 130.906 269.325 132.529C270.523 134.302 272.175 135.286 273.997 135.787Z" fill="url(#paint48_radial_913_44548)"/>
<path d="M263.946 119.767C264.816 119.281 265.648 118.73 266.45 118.139C270.374 115.246 272.548 111.283 273.182 106.388C273.506 103.888 273.551 101.409 272.777 99.0085C272.193 97.1983 271.26 95.6551 269.411 94.9886C267.75 94.3899 266.416 95.1209 265.97 96.9082C265.718 97.9174 265.603 98.9601 265.397 99.9817C265.23 100.809 265.041 101.632 264.825 102.448C264.169 104.927 262.626 106.74 260.741 108.327C259.085 109.721 257.443 111.14 255.897 112.66C255.271 113.275 254.796 114.136 254.457 114.972C253.169 118.145 252.734 121.255 253.526 124.233C253.526 124.233 256.043 123.344 256.857 122.988C259.438 121.857 262.595 120.522 263.946 119.767V119.767Z" fill="url(#paint49_radial_913_44548)"/>
<path d="M281.595 111.831C281.843 111.833 282.271 112.109 282.283 112.299C282.319 112.852 281.866 112.674 281.568 112.689C279.356 112.8 277.202 113.198 275.201 114.399C272.766 115.861 273.586 117.842 275.063 118.961C276.265 119.871 277.669 120.157 279.083 120.287C281.462 120.504 283.832 120.318 286.074 119.13C288.001 118.11 288.603 116.26 287.653 114.258C286.659 112.166 284.935 110.977 283.023 110.035" fill="url(#paint50_radial_913_44548)"/>
<path d="M284.639 126.449C284.884 125.869 285.631 125.565 286.054 125.092C287.193 124.035 287.775 122.596 287.531 121.098C287.477 120.7 287.351 120.275 287.402 119.879C287.458 119.353 287.853 118.964 288.152 118.557C288.521 118.07 288.845 117.503 288.952 116.9C289.099 116.093 288.894 115.278 288.595 114.523C287.754 112.367 285.917 110.935 283.914 109.895C281.612 108.602 279.035 108.042 276.408 108.142C275.839 108.14 275.262 108.15 274.685 108.151C274.433 108.148 274.208 108.12 274.057 108.024C273.826 107.899 273.772 107.551 273.792 107.246C273.812 106.84 273.843 106.422 273.883 106.007C274.338 102.417 273.979 97.7332 270.919 95.3528C270.433 94.9759 269.87 94.6461 269.293 94.4787C268.114 94.0917 266.537 94.5665 265.747 95.5251C265.362 95.9733 265.153 96.5605 265.016 97.1336C264.698 98.5021 264.448 99.867 264.141 101.233C263.744 103.015 262.924 104.64 261.891 106.128C261.208 107.088 260.33 107.773 259.444 108.489C258.443 109.3 257.493 110.207 256.55 111.095C254.542 112.884 253.383 115.326 252.924 117.968C252.758 118.848 252.708 119.628 252.665 120.519C252.442 125.821 255.711 130.78 260.561 132.763C263.027 133.763 265.719 134.353 268.404 134.242C269.872 134.077 270.237 134.549 271.366 135.288C273.402 136.523 275.758 136.868 278.061 136.075C280.961 135.03 279.757 133.233 281.107 132.214C282.823 131.119 284.741 130.638 284.833 128.242C284.911 127.652 284.508 127.014 284.633 126.47L284.639 126.45L284.639 126.449ZM268.555 132.969C268.248 133.553 265.131 132.979 264.492 132.87C261.277 132.232 258.104 130.888 256.04 128.236C253.086 124.584 252.858 120.187 254.46 115.423C255.047 113.679 255.933 112.657 257.303 111.462C262.627 106.629 264.443 106.432 265.597 98.7727C265.802 97.5612 266.094 96.0104 267.37 95.5128C269.139 94.9145 271.079 96.3554 271.859 97.8967C274.124 102.258 273.147 108.986 270.793 113.08C269.479 115.395 267.362 117.452 264.982 118.855C264.636 119.071 263.475 119.749 264.081 120.125C264.432 120.236 264.869 120.001 265.188 119.825C267.704 118.345 269.765 116.424 271.243 113.937C271.796 113.007 272.256 112.011 272.639 110.925C272.772 110.564 272.91 110.18 273.132 109.867C273.487 109.333 274.13 109.213 274.735 109.154C277.435 108.909 280.057 109.195 282.547 110.289C284.052 110.962 285.512 111.809 286.593 113.071C288.66 115.503 288.537 118.172 285.293 119.389C282.69 120.45 278.374 120.476 275.864 119.148C274.032 118.164 273.036 116.196 274.903 114.83C276.687 113.534 278.939 113.119 281.088 112.985C281.393 112.958 282.082 112.965 282.007 112.564C281.61 111.912 280.215 112.227 279.556 112.278C277.923 112.528 276.309 112.905 274.884 113.805C273.645 114.552 272.634 115.851 273.139 117.366C273.361 118.016 273.506 118.631 272.957 119.16C272.397 119.728 271.925 120.363 271.74 121.158C271.628 121.586 271.568 122.042 271.35 122.432C271.13 122.838 270.76 123.144 270.466 123.496C270.036 124.002 269.798 124.602 269.695 125.273C269.612 125.877 269.49 126.485 269.102 126.975C268.001 128.245 267.594 129.644 268.126 131.285C268.211 131.56 268.312 131.824 268.42 132.095C268.52 132.363 268.681 132.716 268.563 132.954L268.555 132.969V132.969ZM277.068 125.924C274.97 125.496 271.903 123.714 272.612 121.212C272.82 120.54 273.305 119.744 274.003 119.546C274.453 119.42 274.96 119.618 275.387 119.816C276.104 120.163 276.829 120.459 277.605 120.629C280.11 121.193 282.675 121.088 285.144 120.276C285.741 120.068 286.348 120.09 286.531 120.802C287.106 123.408 285.188 125.099 282.841 125.768C280.984 126.334 279.001 126.295 277.095 125.929L277.068 125.924L277.068 125.924ZM276.326 131.399C273.995 130.665 271.733 129.328 270.795 126.929C270.413 126.064 270.369 125.017 270.933 124.22C271.124 123.94 271.387 123.691 271.656 123.643C272.331 123.563 272.708 124.444 273.177 124.809C275.523 127.003 279.088 127.234 282.121 126.695C283.586 126.362 284.256 127.587 283.822 128.869C283.669 129.287 283.375 129.643 283.046 129.941C281.253 131.627 278.687 131.924 276.352 131.405L276.326 131.398V131.399ZM274.065 135.368C272.246 134.905 270.519 133.829 269.467 132.238C268.602 130.929 268.458 129.165 269.325 127.975C269.824 127.306 270.239 127.659 270.589 128.227C272.466 131.203 275.331 132.125 278.661 132.311C279.905 132.464 279.551 133.849 278.875 134.477C277.626 135.65 275.696 135.74 274.092 135.375L274.065 135.368Z" fill="#8B5E3C"/>
</g>
<defs>
<radialGradient id="paint0_radial_913_44548" cx="0" cy="0" r="1" gradientUnits="userSpaceOnUse" gradientTransform="translate(44.0385 73.774) scale(71.2704 71.238)">
<stop stop-color="#D09072"/>
<stop offset="1" stop-color="#805848"/>
</radialGradient>
<radialGradient id="paint1_radial_913_44548" cx="0" cy="0" r="1" gradientUnits="userSpaceOnUse" gradientTransform="translate(42.3908 78.8841) scale(48.5808 48.5586)">
<stop stop-color="#231F20"/>
<stop offset="1" stop-color="#414042"/>
</radialGradient>
<radialGradient id="paint2_radial_913_44548" cx="0" cy="0" r="1" gradientUnits="userSpaceOnUse" gradientTransform="translate(70.2911 84.7) rotate(-3.54939) scale(6.26511 9.01769)">
<stop stop-color="#D09072"/>
<stop offset="1" stop-color="#805848"/>
</radialGradient>
<radialGradient id="paint3_radial_913_44548" cx="0" cy="0" r="1" gradientUnits="userSpaceOnUse" gradientTransform="translate(16.1566 84.6996) rotate(-176.451) scale(6.26511 9.01769)">
<stop stop-color="#D09072"/>
<stop offset="1" stop-color="#805848"/>
</radialGradient>
<linearGradient id="paint4_linear_913_44548" x1="43.2222" y1="85.7107" x2="43.2222" y2="96.5527" gradientUnits="userSpaceOnUse">
<stop stop-color="#D19878"/>
<stop offset="1" stop-color="#996955"/>
</linearGradient>
<radialGradient id="paint5_radial_913_44548" cx="0" cy="0" r="1" gradientUnits="userSpaceOnUse" gradientTransform="translate(43.7637 95.5297) scale(4.35827 4.75793)">
<stop stop-color="#D19878"/>
<stop offset="1" stop-color="#996955" stop-opacity="0.5"/>
</radialGradient>
<linearGradient id="paint6_linear_913_44548" x1="53.4714" y1="105.789" x2="32.0461" y2="105.789" gradientUnits="userSpaceOnUse">
<stop stop-color="white"/>
<stop offset="1" stop-color="#D1D3D4"/>
</linearGradient>
<radialGradient id="paint7_radial_913_44548" cx="0" cy="0" r="1" gradientUnits="userSpaceOnUse" gradientTransform="translate(18.847 92.2986) scale(3.32085 3.31933)">
<stop stop-color="#F1F2F2"/>
<stop offset="1" stop-color="#00AEEF"/>
</radialGradient>
<radialGradient id="paint8_radial_913_44548" cx="0" cy="0" r="1" gradientUnits="userSpaceOnUse" gradientTransform="translate(68.9311 92.1474) rotate(180) scale(2.86928 2.86797)">
<stop stop-color="#F1F2F2"/>
<stop offset="1" stop-color="#00AEEF"/>
</radialGradient>
<linearGradient id="paint9_linear_913_44548" x1="27.0865" y1="95.9008" x2="32.995" y2="82.4926" gradientUnits="userSpaceOnUse">
<stop stop-color="#FCFCFC" stop-opacity="0.3"/>
<stop offset="1" stop-color="#F1F2F2" stop-opacity="0.1"/>
</linearGradient>
<linearGradient id="paint10_linear_913_44548" x1="49.5027" y1="95.8999" x2="55.411" y2="82.4916" gradientUnits="userSpaceOnUse">
<stop stop-color="#FCFCFC" stop-opacity="0.3"/>
<stop offset="1" stop-color="#F1F2F2" stop-opacity="0.1"/>
</linearGradient>
<radialGradient id="paint11_radial_913_44548" cx="0" cy="0" r="1" gradientUnits="userSpaceOnUse" gradientTransform="translate(84.2217 105.149) rotate(13.4671) scale(63.0888 63.0632)">
<stop stop-color="#D09072"/>
<stop offset="1" stop-color="#805848"/>
</radialGradient>
<radialGradient id="paint12_radial_913_44548" cx="0" cy="0" r="1" gradientUnits="userSpaceOnUse" gradientTransform="translate(84.222 105.149) rotate(13.4671) scale(63.0888 63.0632)">
<stop stop-color="#D09072"/>
<stop offset="1" stop-color="#805848"/>
</radialGradient>
<radialGradient id="paint13_radial_913_44548" cx="0" cy="0" r="1" gradientUnits="userSpaceOnUse" gradientTransform="translate(84.2213 105.149) rotate(13.4671) scale(63.0888 63.0632)">
<stop stop-color="#D09072"/>
<stop offset="1" stop-color="#805848"/>
</radialGradient>
<radialGradient id="paint14_radial_913_44548" cx="0" cy="0" r="1" gradientUnits="userSpaceOnUse" gradientTransform="translate(84.2208 105.149) rotate(13.4671) scale(63.0888 63.0632)">
<stop stop-color="#D09072"/>
<stop offset="1" stop-color="#805848"/>
</radialGradient>
<radialGradient id="paint15_radial_913_44548" cx="0" cy="0" r="1" gradientUnits="userSpaceOnUse" gradientTransform="translate(84.2204 105.149) rotate(13.4671) scale(63.0889 63.0632)">
<stop stop-color="#D09072"/>
<stop offset="1" stop-color="#805848"/>
</radialGradient>
<radialGradient id="paint16_radial_913_44548" cx="0" cy="0" r="1" gradientUnits="userSpaceOnUse" gradientTransform="translate(84.2216 105.149) rotate(13.4671) scale(63.0888 63.0632)">
<stop stop-color="#D09072"/>
<stop offset="1" stop-color="#805848"/>
</radialGradient>
<radialGradient id="paint17_radial_913_44548" cx="0" cy="0" r="1" gradientUnits="userSpaceOnUse" gradientTransform="translate(84.2212 105.149) rotate(13.4671) scale(63.0888 63.0632)">
<stop stop-color="#D09072"/>
<stop offset="1" stop-color="#805848"/>
</radialGradient>
<radialGradient id="paint18_radial_913_44548" cx="0" cy="0" r="1" gradientUnits="userSpaceOnUse" gradientTransform="translate(79.9396 109.009) rotate(13.4671) scale(32.5611 32.5479)">
<stop stop-color="#D09072"/>
<stop offset="1" stop-color="#805848"/>
</radialGradient>
<radialGradient id="paint19_radial_913_44548" cx="0" cy="0" r="1" gradientUnits="userSpaceOnUse" gradientTransform="translate(82.3589 122.291) rotate(14.2248) scale(16.5414 16.5347)">
<stop stop-color="#D09072"/>
<stop offset="1" stop-color="#805848"/>
</radialGradient>
<radialGradient id="paint20_radial_913_44548" cx="0" cy="0" r="1" gradientUnits="userSpaceOnUse" gradientTransform="translate(80.1744 127.82) rotate(14.2248) scale(14.9887 14.9827)">
<stop stop-color="#D09072"/>
<stop offset="1" stop-color="#805848"/>
</radialGradient>
<radialGradient id="paint21_radial_913_44548" cx="0" cy="0" r="1" gradientUnits="userSpaceOnUse" gradientTransform="translate(76.3007 131.04) rotate(14.2248) scale(13.0936 14.3872)">
<stop stop-color="#D09072"/>
<stop offset="1" stop-color="#805848"/>
</radialGradient>
<radialGradient id="paint22_radial_913_44548" cx="0" cy="0" r="1" gradientUnits="userSpaceOnUse" gradientTransform="translate(67.7347 103.107) rotate(14.2248) scale(27.2538 27.2429)">
<stop stop-color="#D09072"/>
<stop offset="1" stop-color="#805848"/>
</radialGradient>
<radialGradient id="paint23_radial_913_44548" cx="0" cy="0" r="1" gradientUnits="userSpaceOnUse" gradientTransform="translate(82.3899 111.907) rotate(13.4671) scale(34.6184 34.6043)">
<stop stop-color="#D09072"/>
<stop offset="1" stop-color="#805848"/>
</radialGradient>
<radialGradient id="paint24_radial_913_44548" cx="0" cy="0" r="1" gradientUnits="userSpaceOnUse" gradientTransform="translate(171.315 70.133) scale(22.1618 22.2588)">
<stop stop-color="#DEAD87"/>
<stop offset="1" stop-color="#FAB085"/>
</radialGradient>
<radialGradient id="paint25_radial_913_44548" cx="0" cy="0" r="1" gradientUnits="userSpaceOnUse" gradientTransform="translate(108.418 69.516) scale(23.7353 23.8392)">
<stop stop-color="#DEAD87"/>
<stop offset="1" stop-color="#FAB085"/>
</radialGradient>
<radialGradient id="paint26_radial_913_44548" cx="0" cy="0" r="1" gradientUnits="userSpaceOnUse" gradientTransform="translate(140.674 68.9833) scale(50.6788 50.9006)">
<stop offset="0.071" stop-color="#FCC397"/>
<stop offset="0.372" stop-color="#FCC397"/>
<stop offset="1" stop-color="#FAB085"/>
</radialGradient>
<radialGradient id="paint27_radial_913_44548" cx="0" cy="0" r="1" gradientUnits="userSpaceOnUse" gradientTransform="translate(143.204 62.0534) scale(27.4875 27.6078)">
<stop stop-color="white" stop-opacity="0.9"/>
<stop offset="0.72" stop-color="white" stop-opacity="0"/>
</radialGradient>
<linearGradient id="paint28_linear_913_44548" x1="130.494" y1="66.8234" x2="126.42" y2="80.3259" gradientUnits="userSpaceOnUse">
<stop stop-color="#725341"/>
<stop offset="0.523" stop-color="#583B29"/>
<stop offset="1" stop-color="#462A19"/>
</linearGradient>
<linearGradient id="paint29_linear_913_44548" x1="148.547" y1="102.769" x2="125.086" y2="96.7892" gradientUnits="userSpaceOnUse">
<stop stop-color="white"/>
<stop offset="1" stop-color="#D1D3D4"/>
</linearGradient>
<linearGradient id="paint30_linear_913_44548" x1="149.569" y1="66.8234" x2="153.644" y2="80.3259" gradientUnits="userSpaceOnUse">
<stop stop-color="#725341"/>
<stop offset="0.523" stop-color="#583B29"/>
<stop offset="1" stop-color="#462A19"/>
</linearGradient>
<linearGradient id="paint31_linear_913_44548" x1="142.32" y1="87.1106" x2="138.546" y2="102.892" gradientUnits="userSpaceOnUse">
<stop stop-color="#725341"/>
<stop offset="0.523" stop-color="#583B29"/>
<stop offset="1" stop-color="#462A19"/>
</linearGradient>
<linearGradient id="paint32_linear_913_44548" x1="139.187" y1="92.2524" x2="143.261" y2="75.7744" gradientUnits="userSpaceOnUse">
<stop stop-color="#DEAD87"/>
<stop offset="1" stop-color="#FAB085"/>
</linearGradient>
<linearGradient id="paint33_linear_913_44548" x1="116.957" y1="71.2364" x2="107.425" y2="71.3214" gradientUnits="userSpaceOnUse">
<stop stop-color="#725341"/>
<stop offset="0.523" stop-color="#583B29"/>
<stop offset="1" stop-color="#462A19"/>
</linearGradient>
<linearGradient id="paint34_linear_913_44548" x1="163.104" y1="71.2364" x2="172.637" y2="71.3213" gradientUnits="userSpaceOnUse">
<stop stop-color="#725341"/>
<stop offset="0.523" stop-color="#583B29"/>
<stop offset="1" stop-color="#462A19"/>
</linearGradient>
<radialGradient id="paint35_radial_913_44548" cx="0" cy="0" r="1" gradientUnits="userSpaceOnUse" gradientTransform="translate(180.359 109.519) rotate(13.5338) scale(16.6267 16.6915)">
<stop stop-color="#FDD7BB"/>
<stop offset="1" stop-color="#FAB184"/>
</radialGradient>
<linearGradient id="paint36_linear_913_44548" x1="181.078" y1="118.78" x2="176.945" y2="125.095" gradientUnits="userSpaceOnUse">
<stop stop-color="#FEDABE"/>
<stop offset="1" stop-color="#FAB387"/>
</linearGradient>
<linearGradient id="paint37_linear_913_44548" x1="177.877" y1="124.374" x2="174.915" y2="130.841" gradientUnits="userSpaceOnUse">
<stop stop-color="#FEDABE"/>
<stop offset="1" stop-color="#FAB387"/>
</linearGradient>
<linearGradient id="paint38_linear_913_44548" x1="174.589" y1="129.514" x2="170.226" y2="136.732" gradientUnits="userSpaceOnUse">
<stop stop-color="#FEDABE"/>
<stop offset="1" stop-color="#FAB387"/>
</linearGradient>
<radialGradient id="paint39_radial_913_44548" cx="0" cy="0" r="1" gradientUnits="userSpaceOnUse" gradientTransform="translate(168.316 95.0952) rotate(13.5338) scale(26.1884 26.2905)">
<stop stop-color="#FEDABE"/>
<stop offset="1" stop-color="#FAB387"/>
</radialGradient>
<linearGradient id="paint40_linear_913_44548" x1="184.3" y1="110.102" x2="176.444" y2="122.559" gradientUnits="userSpaceOnUse">
<stop stop-color="#FEDABE"/>
<stop offset="1" stop-color="#FAB387"/>
</linearGradient>
<linearGradient id="paint41_linear_913_44548" x1="256.513" y1="44.996" x2="221.597" y2="112.579" gradientUnits="userSpaceOnUse">
<stop stop-color="#1C75BC"/>
<stop offset="1" stop-color="#2E3192"/>
</linearGradient>
<radialGradient id="paint42_radial_913_44548" cx="0" cy="0" r="1" gradientUnits="userSpaceOnUse" gradientTransform="translate(240.424 52.0336) scale(83.4228 89.0869)">
<stop stop-color="#D29571"/>
<stop offset="1" stop-color="#C19776"/>
</radialGradient>
<linearGradient id="paint43_linear_913_44548" x1="239.913" y1="76.4996" x2="239.913" y2="119.012" gradientUnits="userSpaceOnUse">
<stop stop-color="#D19878"/>
<stop offset="0.886" stop-color="#996955"/>
</linearGradient>
<linearGradient id="paint44_linear_913_44548" x1="249.223" y1="102.018" x2="229.749" y2="102.018" gradientUnits="userSpaceOnUse">
<stop stop-color="white"/>
<stop offset="1" stop-color="#D1D3D4"/>
</linearGradient>
<radialGradient id="paint45_radial_913_44548" cx="0" cy="0" r="1" gradientUnits="userSpaceOnUse" gradientTransform="translate(278.941 110.363) rotate(13.4573) scale(38.0449 37.9935)">
<stop stop-color="#D19470"/>
<stop offset="1" stop-color="#C19776"/>
</radialGradient>
<radialGradient id="paint46_radial_913_44548" cx="0" cy="0" r="1" gradientUnits="userSpaceOnUse" gradientTransform="translate(284.666 119.787) rotate(13.4573) scale(12.453 12.4361)">
<stop stop-color="#D19470"/>
<stop offset="1" stop-color="#C19776"/>
</radialGradient>
<radialGradient id="paint47_radial_913_44548" cx="0" cy="0" r="1" gradientUnits="userSpaceOnUse" gradientTransform="translate(282.29 125.834) rotate(13.4573) scale(11.4319 11.4164)">
<stop stop-color="#D19470"/>
<stop offset="1" stop-color="#C19776"/>
</radialGradient>
<radialGradient id="paint48_radial_913_44548" cx="0" cy="0" r="1" gradientUnits="userSpaceOnUse" gradientTransform="translate(278.504 129.471) rotate(13.4573) scale(9.91187 10.8808)">
<stop stop-color="#D19470"/>
<stop offset="1" stop-color="#C19776"/>
</radialGradient>
<radialGradient id="paint49_radial_913_44548" cx="0" cy="0" r="1" gradientUnits="userSpaceOnUse" gradientTransform="translate(268.811 96.3234) rotate(13.4573) scale(25.5538 25.5193)">
<stop stop-color="#D19470"/>
<stop offset="1" stop-color="#C19776"/>
</radialGradient>
<radialGradient id="paint50_radial_913_44548" cx="0" cy="0" r="1" gradientUnits="userSpaceOnUse" gradientTransform="translate(286.631 111.575) rotate(13.4573) scale(15.4713 15.4504)">
<stop stop-color="#D19470"/>
<stop offset="1" stop-color="#C19776"/>
</radialGradient>
<clipPath id="clip0_913_44548">
<rect width="80" height="95" fill="white" transform="translate(5 41.5)"/>
</clipPath>
<clipPath id="clip1_913_44548">
<rect width="84" height="95" fill="white" transform="translate(105 41.5)"/>
</clipPath>
<clipPath id="clip2_913_44548">
<rect width="80" height="95" fill="white" transform="translate(209 41.5)"/>
</clipPath>
</defs>
</svg>
