<svg width="294" height="178" viewBox="0 0 294 178" fill="none" xmlns="http://www.w3.org/2000/svg">
<g clip-path="url(#clip0_913_44582)">
<path fill-rule="evenodd" clip-rule="evenodd" d="M62.8897 100.32C59.9496 105.008 54.2087 111.302 51.2736 113.598C49.0711 115.322 44.8682 116.352 41.1752 116.355C37.4822 116.352 33.2793 115.322 31.0784 113.598C28.1434 111.302 22.4025 105.008 19.4606 100.32C15.8135 94.5038 16.1466 91.3471 16.1466 82.0545C16.1466 63.3121 26.1091 53.3037 41.1752 53.3037C56.2413 53.3037 66.2038 60.0393 66.2038 82.0545C66.2038 91.3471 66.5386 94.5038 62.8897 100.32Z" fill="url(#paint0_radial_913_44582)"/>
<path d="M16.1897 86.4087C16.247 87.5957 16.4729 91.8848 17.154 95.7658C16.2674 96.3905 14.2945 96.5687 14.2945 96.5687C9.05761 97.0607 8.55761 92.6057 8.55761 92.6057C6.83296 92.5442 6.28538 91.6029 6.40621 89.6641C6.48677 88.3642 6.93918 87.3512 6.93918 87.3512C5.08247 86.668 5.36425 83.6137 7.63003 83.7555C5.29185 82.0473 6.86185 80.3374 6.86185 80.3374C6.70567 80.1546 4.61052 81.6663 3.74904 79.3637C3.19195 77.8724 4.12106 77.5649 4.1661 76.8783C4.20162 76.3726 3.66696 75.6296 3.67019 75.0402C3.67188 74.2767 4.13568 73.8206 4.17579 73.2996C4.187 73.1595 2.95673 72.5958 3.78932 70.7475C4.39791 69.3963 6.20958 69.7807 6.60421 69.287C6.93748 68.8702 5.67339 66.653 6.23371 65.7425C6.65077 65.0643 8.4898 63.8754 8.53654 63.597C8.56237 63.445 7.91503 61.9503 8.15007 60.6076C8.41095 59.1181 9.55743 58.4331 9.58496 58.2571C9.64445 57.8711 8.78297 57.0768 9.67997 55.5838C10.3997 54.3864 12.9554 54.2292 13.0761 54.0703C13.2661 53.8227 13.2387 52.6611 13.7589 51.8343C14.635 50.4404 15.9345 50.929 16.6671 50.1808C17.3644 49.4667 17.6268 47.7329 18.6576 46.8703C19.5546 46.1204 20.6013 46.3664 21.2422 46.0315C22.1118 45.5789 22.2004 43.4385 24.2068 43.254C25.7076 43.1156 25.867 44.0603 26.5047 44.1611C26.6706 44.1867 26.8524 43.5034 27.1859 43.2455C27.4756 43.0234 27.7735 42.7552 28.6787 42.8218C28.9251 42.8406 29.1843 42.9465 29.4001 43.0661C29.9975 41.0863 31.7448 39.6531 33.8109 39.6531C35.1734 39.6531 36.3987 40.2783 37.2442 41.2708C37.7868 41.0316 38.3827 40.9001 39.0076 40.9001C39.6211 40.9001 40.2057 41.0265 40.7419 41.2588C41.5874 40.273 42.808 39.6531 44.1656 39.6531C44.8145 39.6531 45.4297 39.7949 45.9902 40.0494C47.256 38.1431 51.0773 39.0655 51.9952 40.9684C52.1964 41.3852 52.3993 41.9558 52.8761 42.1693C53.2593 42.3435 53.6024 41.7781 54.7054 41.8567C56.2497 41.966 56.9809 42.1368 58.1435 43.3343C58.8457 44.0569 58.9326 44.8358 59.2434 46.4723C59.3755 47.1658 62.7169 45.7634 64.1776 47.7773C64.4641 48.1736 64.6205 49.0329 64.804 49.1934C64.9908 49.3574 65.6011 49.1268 66.0037 49.2908C68.9313 50.4797 69.1391 52.533 68.445 55.7785C71.8026 55.6863 74.3936 58.5527 73.4951 62.4269C76.0415 62.9246 76.0746 66.3002 74.3083 67.2577C76.2553 68.0708 78.1779 69.8695 76.6674 72.4079C76.0151 73.5063 73.5384 72.9639 74.7667 74.7198C75.4789 75.7379 75.3402 77.5523 74.0323 77.9867C73.2901 78.2332 73.1181 78.718 73.1181 78.718C73.0762 79.7532 75.0348 80.2323 74.8457 81.7195C74.5909 83.7237 73.3822 82.9372 73.2341 83.7761C73.102 84.5158 74.058 84.2428 74.0422 85.3624C74.0279 86.3829 73.1678 86.3232 73.5695 87.1114C73.8212 87.6052 73.6285 88.3847 73.6285 88.3847C73.8523 89.1722 73.9215 89.9089 73.4482 90.6224C73.2357 90.9426 72.4273 91.7533 72.4273 91.7533C72.9281 95.0689 71.1309 97.3784 68.7912 96.0135C69.2421 101.196 64.9189 96.2602 64.9189 96.2602C64.9189 96.2602 65.9779 92.5971 66.7527 82.8518C66.8677 81.4055 64.6205 66.6567 62.5031 65.7662C61.379 65.2936 60.3921 70.6124 59.0373 70.4452C57.8274 70.2959 58.4576 67.4083 57.84 66.8023C57.083 66.0594 56.4591 68.8917 56.3996 69.7105C56.316 70.8613 56.5587 73.6981 54.2063 73.6981C52.1517 73.6981 51.9534 71.3811 51.6443 69.3415C51.4398 67.9801 49.372 67.1448 49.7955 65.1735C49.2512 65.1786 49.3946 66.2802 49.0194 66.7758C47.5974 68.6616 44.1294 63.8436 44.3058 60.5349C43.2751 63.4091 40.5564 62.3338 40.355 60.8357C40.1537 59.3273 39.8169 59.6326 38.7163 59.1931C39.6969 61.0755 37.6002 61.8493 35.6905 61.5982C36.3056 63.619 36.1237 65.0095 34.6953 65.4041C34.3846 65.4895 33.7726 65.4929 33.328 65.2691C32.7645 64.9839 32.2975 64.7635 31.9802 64.1725C31.2602 62.8281 31.146 62.22 31.5437 60.6006L30.6075 59.9062C30.324 62.3461 29.1991 62.7615 29.1556 63.4345C29.0927 64.3963 29.9656 65.1769 29.4503 67.1191C29.1571 68.2226 28.0701 68.6753 28.0492 68.8222C28.0235 69.0101 27.7481 71.4648 25.3293 72.4146C24.3004 72.8194 22.2456 70.8345 21.6383 69.8813C21.2631 69.2885 20.2023 67.3774 19.6899 67.4027C17.8855 67.492 16.9217 73.8564 16.9217 73.8564C16.9217 73.8564 15.7688 77.6849 16.1897 86.4085V86.4087Z" fill="url(#paint1_radial_913_44582)"/>
<path d="M67.4558 73.7711C66.6858 73.6442 66.0136 73.6471 65.4297 73.8572C65.661 75.7519 65.8804 77.5971 65.9593 79.5973C66.1287 83.892 66.076 86.9975 65.8977 90.2023C67.6392 89.0862 69.3292 86.8508 69.8924 83.396C70.6664 78.648 69.9089 74.1753 67.4557 73.7711H67.4558Z" fill="url(#paint2_radial_913_44582)"/>
<path d="M14.8953 73.7711C15.6653 73.6442 16.3375 73.6471 16.9214 73.8572C16.6901 75.7519 16.4707 77.5971 16.3919 79.5973C16.2224 83.892 16.2751 86.9975 16.4534 90.2023C14.7119 89.0862 13.0219 86.8508 12.4587 83.396C11.6848 78.648 12.4421 74.1753 14.8953 73.7711Z" fill="url(#paint3_radial_913_44582)"/>
<path d="M45.5374 94.6975C43.8175 95.0767 43.0051 95.9291 41.1747 95.9291C39.3444 95.9291 38.5303 95.0767 36.8121 94.6975C34.2849 94.1424 34.0623 91.3956 36.5827 90.1366C38.255 89.2996 37.9627 89.3577 38.2227 87.1507C38.4079 85.5826 38.4436 85.4971 38.7088 83.4627C38.8022 82.7469 39.2424 82.0722 40.0072 81.6862C40.3386 81.5205 40.7278 81.4043 41.1747 81.4043C41.6217 81.4043 42.0109 81.5205 42.3423 81.6862C43.1054 82.0722 43.5455 82.7469 43.639 83.4627C43.9058 85.4971 43.9415 85.5826 44.1251 87.1507C44.3868 89.3577 44.0928 89.2996 45.7668 90.1366C48.2855 91.3956 48.0645 94.1424 45.5374 94.6975Z" fill="url(#paint4_linear_913_44582)"/>
<path d="M41.1752 95.9297C43.2352 95.9297 44.9051 94.6476 44.9051 93.066C44.9051 91.4843 43.2352 90.2021 41.1752 90.2021C39.1152 90.2021 37.4453 91.4843 37.4453 93.066C37.4453 94.6476 39.1152 95.9297 41.1752 95.9297Z" fill="url(#paint5_radial_913_44582)"/>
<path d="M16.3586 88.1971C16.353 88.1971 16.3477 88.1963 16.3421 88.1963C15.2403 88.1963 14.3926 89.0941 14.3926 90.2015C14.3926 91.309 15.2858 92.2068 16.3876 92.2068C16.4755 92.2068 16.5613 92.1991 16.6463 92.188C16.5635 91.2119 16.4072 89.6787 16.3584 88.197L16.3586 88.1971Z" fill="url(#paint6_radial_913_44582)"/>
<path d="M65.9914 88.1971C65.9971 88.1971 66.0023 88.1963 66.0079 88.1963C67.1097 88.1963 67.9627 89.0945 67.9627 90.2021C67.9627 91.3095 67.0694 92.2073 65.9676 92.2073C65.8798 92.2073 65.794 92.1996 65.709 92.1885C65.7918 91.2125 65.943 89.6788 65.9916 88.1971H65.9914Z" fill="url(#paint7_radial_913_44582)"/>
<path d="M31.302 84.1926C32.6014 84.1926 33.6548 83.1338 33.6548 81.8277C33.6548 80.5217 32.6014 79.4629 31.302 79.4629C30.0026 79.4629 28.9492 80.5217 28.9492 81.8277C28.9492 83.1338 30.0026 84.1926 31.302 84.1926Z" fill="#231F20"/>
<path d="M50.9504 84.1926C52.2499 84.1926 53.3032 83.1338 53.3032 81.8277C53.3032 80.5217 52.2499 79.4629 50.9504 79.4629C49.651 79.4629 48.5977 80.5217 48.5977 81.8277C48.5977 83.1338 49.651 84.1926 50.9504 84.1926Z" fill="#231F20"/>
<path d="M21.0938 79.084C21.0938 79.084 23.0534 77.3097 24.0725 76.9069C25.1537 76.4793 26.0162 75.9505 28.4341 76.3849C31.649 76.9624 35.4807 78.5992 35.4807 78.5992C35.4807 78.5992 37.5533 79.4723 37.9011 80.7293C38.2489 81.9864 37.2813 81.941 36.8935 81.8841C36.1874 81.7806 34.9574 81.0155 34.1242 80.7188C33.0098 80.3219 31.5907 79.668 30.4794 79.3385C29.3148 78.9931 27.7665 78.481 25.8445 78.2784C24.642 78.1517 21.0938 79.084 21.0938 79.084Z" fill="black"/>
<path d="M62.1374 78.8242C62.1374 78.8242 60.1777 77.0499 59.1586 76.6471C58.0774 76.2196 57.2149 75.6907 54.797 76.1251C51.5821 76.7027 47.7504 78.3395 47.7504 78.3395C47.7504 78.3395 45.6779 79.2125 45.33 80.4696C44.9822 81.7266 45.9498 81.6812 46.3376 81.6243C47.0437 81.5208 48.2737 80.7557 49.1069 80.459C50.2213 80.0622 51.6404 79.4083 52.7517 79.0788C53.9164 78.7334 55.4646 78.2212 57.3866 78.0187C58.5891 77.8919 62.1374 78.8242 62.1374 78.8242Z" fill="black"/>
<path d="M30.1286 88.5329C34.9372 88.5329 38.8353 85.5382 38.8353 81.8441C38.8353 78.15 34.9372 75.1553 30.1286 75.1553C25.32 75.1553 21.4219 78.15 21.4219 81.8441C21.4219 85.5382 25.32 88.5329 30.1286 88.5329Z" fill="url(#paint8_linear_913_44582)"/>
<path d="M52.2243 88.5329C57.0329 88.5329 60.931 85.5382 60.931 81.8441C60.931 78.15 57.0329 75.1553 52.2243 75.1553C47.4157 75.1553 43.5176 78.15 43.5176 81.8441C43.5176 85.5382 47.4157 88.5329 52.2243 88.5329Z" fill="url(#paint9_linear_913_44582)"/>
<path d="M52.2234 74.8809C47.4354 74.8809 43.5102 77.8038 43.2577 81.4679C42.8581 81.3437 42.1279 81.1684 41.1761 81.172C40.2244 81.1684 39.4941 81.3437 39.0946 81.4679C38.8403 77.8038 34.9169 74.8809 30.1289 74.8809C25.261 74.8809 21.1504 78.0704 21.1504 81.844C21.1504 85.6834 25.1774 88.8071 30.1289 88.8071C34.9949 88.8071 38.9656 85.7893 39.0999 82.0413C39.4087 81.9354 40.1442 81.7181 41.176 81.7236C42.2077 81.7181 42.9433 81.9354 43.2502 82.0413C43.3865 85.7894 47.3571 88.8071 52.2231 88.8071C57.1746 88.8071 61.2015 85.6834 61.2015 81.844C61.2015 78.0704 57.0911 74.8809 52.2231 74.8809H52.2234ZM30.129 88.2593C25.4591 88.2593 21.6611 85.382 21.6611 81.844C21.6611 78.368 25.539 75.4285 30.129 75.4285C34.7971 75.4285 38.597 78.3077 38.597 81.844C38.597 85.3803 34.7971 88.2593 30.129 88.2593ZM52.2234 88.2593C47.5554 88.2593 43.7555 85.382 43.7555 81.844C43.7555 78.306 47.5554 75.4285 52.2234 75.4285C56.8134 75.4285 60.6914 78.3678 60.6914 81.844C60.6914 85.3822 56.8933 88.2593 52.2234 88.2593Z" fill="#D1D3D4"/>
<path d="M37.5032 76.2076C37.6074 76.2678 37.7085 76.3327 37.8062 76.403C37.8319 76.4215 37.8571 76.4406 37.8824 76.4596C37.924 76.4905 37.8226 76.4095 37.8837 76.4615C37.9325 76.5028 37.9816 76.5431 38.0292 76.5858C38.121 76.6683 38.2087 76.7554 38.2921 76.8465C38.3324 76.8904 38.3718 76.9351 38.4101 76.9808C38.4311 77.0057 38.4515 77.0311 38.4721 77.0564C38.5421 77.142 38.4201 76.9845 38.4859 77.0735C38.637 77.278 38.7717 77.4934 38.8858 77.7209C38.9133 77.7758 38.9395 77.8313 38.9646 77.8873C38.976 77.9128 38.9879 77.9382 38.9983 77.9642C38.9605 77.8687 38.9978 77.9652 39.0061 77.9867C39.055 78.1126 39.0975 78.2407 39.1349 78.3707C39.1966 78.5851 39.4372 78.7407 39.6575 78.669C39.8742 78.5984 40.0203 78.3735 39.9542 78.1437C39.638 77.045 38.9262 76.045 37.9318 75.4704C37.7391 75.359 37.4582 75.4186 37.3506 75.6236C37.2437 75.827 37.2972 76.0889 37.503 76.2078L37.5032 76.2076Z" fill="#414042"/>
<path d="M44.4298 75.47C43.4355 76.0447 42.7239 77.0445 42.4074 78.1434C42.3457 78.3579 42.4824 78.6179 42.7042 78.6686C42.9312 78.7206 43.1606 78.6001 43.2268 78.3704C43.2626 78.2459 43.3031 78.123 43.3496 78.0021C43.3541 77.9906 43.3945 77.8878 43.3721 77.9438C43.3493 78.0009 43.3855 77.9133 43.3903 77.9023C43.4174 77.8412 43.446 77.7805 43.4761 77.7208C43.5901 77.4932 43.7249 77.2778 43.876 77.0733C43.929 77.0016 43.8275 77.1307 43.8897 77.0563C43.9072 77.0354 43.9239 77.0139 43.9414 76.9931C43.9796 76.9473 44.0187 76.9022 44.0588 76.8581C44.1457 76.7628 44.2369 76.6717 44.3328 76.5855C44.3763 76.5464 44.4207 76.5083 44.4659 76.4712C44.5044 76.4398 44.5084 76.4348 44.4669 76.4688C44.4914 76.4488 44.5174 76.4305 44.5429 76.4119C44.6445 76.3381 44.75 76.2701 44.8586 76.2073C45.0513 76.0959 45.1348 75.8159 45.0111 75.6231C44.8856 75.4275 44.636 75.3506 44.4298 75.4699V75.47Z" fill="#414042"/>
<path d="M28.9648 101.054C28.9648 101.054 31.6543 98.6249 36.8631 98.3221C42.0719 98.0194 38.5285 99.5248 41.3365 100.006C44.1446 100.488 43.3681 99.5207 46.1279 100.056C48.8878 100.591 51.8101 102.39 51.8101 102.39C51.8101 102.39 45.9794 103.738 39.7891 103.089C33.5989 102.44 33.2075 102.239 33.2075 102.239L28.9648 101.054Z" fill="url(#paint10_linear_913_44582)"/>
<path d="M28.9648 101.054C31.9497 103.621 36.1976 104.583 40.7521 104.967C44.458 105.279 51.0271 104.459 51.8101 102.39C50.7664 102.346 46.5231 102.545 42.9363 102.585C41.7024 102.599 40.5464 102.593 39.625 102.553C36.0244 102.394 33.8429 101.883 28.9648 101.054Z" fill="#D97C80"/>
<path d="M51.8099 102.39C51.8442 101.865 47.8373 99.2312 44.7218 98.9652C43.2806 98.8422 41.4383 99.2845 41.4383 99.2845C41.4383 99.2845 40.4669 98.018 38.9046 97.6267C32.8739 96.1159 29.2169 100.552 28.9648 101.054C28.9648 101.054 34.9903 98.0723 38.3964 99.0986C39.099 99.3103 39.8962 99.8917 40.4355 100.337C40.8585 100.686 41.4067 100.899 41.9934 100.932C43.5678 101.02 44.61 99.8166 51.8101 102.391L51.8099 102.39Z" fill="#EA979F"/>
<path d="M67.636 127.044L70.9695 127.879L76.2803 128.147L77.8563 127.517L76.7458 121.918L71.7277 119.008L68.7208 110.052L69.2104 105.124L69.6354 103.884L64.6537 103.071L60.4882 103.593L56.941 105.068L53.3712 108.497L52.4492 111.486L67.636 127.044Z" fill="url(#paint11_radial_913_44582)"/>
<path d="M74.7089 111.906C76.9679 112.015 79.129 112.569 80.977 114.187C82.203 115.26 82.8616 116.699 82.4658 118.56C82.397 118.883 82.2472 119.191 82.0978 119.48C81.8902 119.882 81.6257 119.943 81.2562 119.675C79.0177 118.048 76.5571 117.312 73.9445 117.322C73.1821 117.325 72.4044 117.495 71.6643 117.722C70.7698 117.996 70.1478 117.609 69.814 116.401C69.3861 114.852 69.9433 113.567 71.4119 112.743C72.4501 112.161 73.5458 111.872 74.7089 111.906Z" fill="url(#paint12_radial_913_44582)"/>
<path d="M75.1682 106.694C76.9314 106.862 78.6318 107.145 80.0555 108.46C80.5998 108.964 81.0859 109.603 81.4773 110.279C82.0095 111.199 81.8384 112.483 81.1023 113.186C80.8797 113.398 80.377 113.446 80.1053 113.3C78.4746 112.421 76.7703 111.927 74.9962 111.846C73.0284 111.755 71.1888 112.255 69.656 113.834C69.3591 114.14 69.1195 114.088 68.8683 113.743C68.246 112.888 68.1333 111.643 68.6356 110.685C69.5753 108.893 70.9623 107.798 72.6511 107.252C73.4714 106.987 74.328 106.875 75.168 106.695L75.1682 106.694Z" fill="url(#paint13_radial_913_44582)"/>
<path d="M73.9674 102.854C75.2779 102.837 76.4113 103.188 77.4548 103.921C78.283 104.504 78.7638 105.559 78.5976 106.397C78.4937 106.92 78.2808 107.114 77.7724 107.028C76.7704 106.859 75.7524 106.668 74.7473 106.702C72.4846 106.78 70.4879 107.699 68.9111 109.61C68.5146 110.09 68.3475 109.954 68.1074 109.481C67.3968 108.081 67.8377 106.069 69.1427 104.834C70.5688 103.484 72.2414 102.935 73.9674 102.854V102.854Z" fill="url(#paint14_radial_913_44582)"/>
<path d="M61.7719 115.203C62.4502 115.816 63.0814 116.479 63.6774 117.172C66.5937 120.563 67.7339 124.562 67.3126 129.085C67.0975 131.395 66.6377 133.63 65.463 135.628C64.5771 137.135 63.434 138.332 61.6507 138.556C60.0488 138.758 59.006 137.832 58.9687 136.137C58.9477 135.18 59.0551 134.22 59.0773 133.261C59.0954 132.485 59.0921 131.707 59.0641 130.931C58.9789 128.573 57.9681 126.632 56.6068 124.826C55.4115 123.24 54.2329 121.633 53.16 119.956C52.7263 119.277 52.4761 118.408 52.3422 117.589C51.8332 114.479 52.0718 111.599 53.3791 109.085C53.3791 109.085 55.4447 110.392 56.099 110.878C58.1727 112.415 60.7191 114.252 61.7721 115.203H61.7719Z" fill="url(#paint15_radial_913_44582)"/>
<path d="M75.9125 125.901C76.1344 125.949 76.571 125.787 76.6202 125.62C76.7636 125.13 76.3239 125.198 76.0614 125.124C74.1105 124.577 72.2694 123.784 70.7276 122.301C68.8507 120.495 69.9816 118.883 71.5244 118.177C72.7793 117.603 74.0899 117.63 75.3771 117.8C77.542 118.087 79.6189 118.733 81.3793 120.253C82.8913 121.559 83.0557 123.342 81.8045 124.947C80.4967 126.624 78.7196 127.343 76.8239 127.802" fill="url(#paint16_radial_913_44582)"/>
<path d="M81.5751 113.371C81.5737 112.857 82.0615 112.366 82.1111 111.821C82.5115 109.651 80.8985 108.831 79.5885 107.501C78.5899 106.313 80.0256 104.943 77.6499 103.418C75.7561 102.24 73.5847 102.073 71.5201 102.77C70.364 103.205 69.9432 103.555 68.6673 103.11C66.295 102.467 63.7746 102.452 61.3734 102.851C56.6479 103.65 52.7326 107.44 51.8628 112.246C51.7216 113.054 51.6086 113.765 51.5793 114.589C51.4566 117.054 51.9973 119.481 53.4279 121.493C54.0905 122.481 54.754 123.488 55.4836 124.419C56.1293 125.24 56.7747 126.034 57.1903 127.034C57.8113 128.578 58.2154 130.203 58.21 131.883C58.2084 133.172 58.1566 134.448 58.1644 135.741C58.1704 136.283 58.239 136.853 58.4914 137.333C59.0029 138.354 60.3138 139.099 61.4431 138.99C61.9915 138.957 62.5598 138.774 63.0699 138.534C66.279 137.016 67.5433 132.884 67.8616 129.568C67.9092 129.187 67.9663 128.806 68.03 128.438C68.0734 128.16 68.1922 127.858 68.4235 127.792C68.5776 127.737 68.7834 127.757 69.0088 127.806C69.523 127.923 70.0359 128.049 70.5441 128.162C72.8666 128.783 75.2779 128.802 77.5918 128.107C79.588 127.578 81.5151 126.665 82.7 124.899C83.1189 124.282 83.4659 123.591 83.4975 122.837C83.5237 122.274 83.3493 121.699 83.1184 121.188C82.9333 120.762 82.66 120.332 82.7159 119.849C82.7501 119.483 82.9483 119.127 83.0767 118.781C83.5964 117.485 83.367 116.075 82.5648 114.896C82.2827 114.385 81.6777 113.961 81.5764 113.391L81.5749 113.371L81.5751 113.371ZM68.5492 104.298C68.6068 104.535 68.3915 104.82 68.2486 105.04C68.0978 105.261 67.9546 105.478 67.8234 105.708C67.0181 107.074 67.0985 108.412 67.8244 109.774C68.0715 110.294 68.0582 110.864 68.01 111.423C67.9671 112.046 68.0581 112.633 68.3402 113.174C68.5307 113.55 68.799 113.9 68.9134 114.309C69.0298 114.703 68.9913 115.124 69.0045 115.531C69.0093 116.282 69.3026 116.948 69.6872 117.572C70.0696 118.158 69.8172 118.68 69.4873 119.219C68.7321 120.477 69.3714 121.848 70.3264 122.769C71.4156 123.866 72.7788 124.531 74.1853 125.085C74.7624 125.265 75.9432 125.83 76.4286 125.325C76.5763 124.98 75.9607 124.846 75.6938 124.76C73.8043 124.206 71.8797 123.377 70.5495 121.853C69.1604 120.249 70.4454 118.683 72.2776 118.171C74.7837 117.486 78.6283 118.383 80.736 119.862C83.3837 121.611 82.9552 124.032 80.6211 125.797C79.4031 126.712 77.93 127.177 76.4522 127.476C74.0109 127.955 71.6143 127.681 69.2554 126.915C68.728 126.74 68.1786 126.502 67.9694 125.95C67.8346 125.624 67.7889 125.252 67.743 124.9C67.6203 123.848 67.4109 122.86 67.1052 121.914C66.2884 119.382 64.8375 117.24 62.8919 115.403C62.6429 115.18 62.3005 114.881 61.9653 114.909C61.3486 115.124 62.2478 115.968 62.5126 116.231C64.3525 117.973 65.8263 120.248 66.5316 122.593C67.8052 126.744 67.3201 132.982 64.4206 136.44C63.4138 137.666 61.3935 138.567 59.9366 137.672C58.8989 136.967 58.9509 135.516 59.0121 134.386C59.5274 127.277 57.947 126.732 54.1731 121.316C53.1929 119.966 52.6081 118.869 52.4364 117.184C51.968 112.583 53.0581 108.681 56.4287 106C58.8041 104.037 61.905 103.472 64.9016 103.55C65.4932 103.581 68.3888 103.697 68.5448 104.283L68.5489 104.298L68.5492 104.298ZM74.7429 112.331C76.5165 112.389 78.2935 112.754 79.8356 113.638C81.794 114.714 83.1631 116.62 82.125 118.844C81.8183 119.446 81.272 119.344 80.7821 119.035C78.744 117.807 76.4774 117.194 74.1294 117.194C73.4025 117.188 72.6963 117.308 71.9866 117.474C71.5662 117.565 71.0738 117.641 70.6982 117.436C70.1151 117.117 69.8431 116.305 69.7934 115.66C69.6653 113.27 72.7599 112.291 74.7172 112.331L74.7427 112.331L74.7429 112.331ZM75.1848 107.264C77.3717 107.271 79.6001 108.057 80.8599 109.933C81.0931 110.267 81.2838 110.647 81.3358 111.053C81.4642 112.291 80.6199 113.256 79.3805 112.661C76.7838 111.562 73.5577 111.049 71.0227 112.545C70.5312 112.777 70.0166 113.492 69.4311 113.284C69.2005 113.186 69.0169 112.909 68.9029 112.619C68.5601 111.789 68.8104 110.859 69.3257 110.159C70.6457 108.194 72.9333 107.452 75.1596 107.265L75.1849 107.264L75.1848 107.264ZM73.9689 103.243C75.4735 103.24 77.1762 103.711 78.0542 105.017C78.5302 105.717 78.5671 107.033 77.4266 106.918C74.4185 106.412 71.678 106.66 69.4037 108.952C68.9768 109.391 68.5353 109.624 68.2253 108.923C67.692 107.678 68.1757 106.124 69.2112 105.124C70.4707 103.908 72.2276 103.291 73.9431 103.243L73.9688 103.243H73.9689Z" fill="url(#paint17_radial_913_44582)"/>
<path d="M67.636 127.044L70.9695 127.879L76.2803 128.147L77.8563 127.517L76.7458 121.918L71.7277 119.008L68.7208 110.052L69.2104 105.124L69.6354 103.884L64.6537 103.071L60.4882 103.593L56.941 105.068L53.3712 108.497L52.4492 111.486L67.636 127.044Z" fill="url(#paint18_radial_913_44582)"/>
<path d="M74.7089 111.906C76.9679 112.015 79.129 112.569 80.977 114.187C82.203 115.26 82.8616 116.699 82.4658 118.56C82.397 118.883 82.2472 119.191 82.0978 119.48C81.8902 119.882 81.6257 119.943 81.2562 119.675C79.0177 118.048 76.5571 117.312 73.9445 117.322C73.1821 117.325 72.4044 117.495 71.6643 117.722C70.7698 117.996 70.1478 117.609 69.814 116.401C69.3861 114.852 69.9433 113.567 71.4119 112.743C72.4501 112.161 73.5458 111.872 74.7089 111.906Z" fill="url(#paint19_radial_913_44582)"/>
<path d="M75.1682 106.694C76.9314 106.862 78.6318 107.145 80.0555 108.46C80.5998 108.964 81.0859 109.603 81.4773 110.279C82.0095 111.199 81.8384 112.483 81.1023 113.186C80.8797 113.398 80.377 113.446 80.1053 113.3C78.4746 112.421 76.7703 111.927 74.9962 111.846C73.0284 111.755 71.1888 112.255 69.656 113.834C69.3591 114.14 69.1195 114.088 68.8683 113.743C68.246 112.888 68.1333 111.643 68.6356 110.685C69.5753 108.893 70.9623 107.798 72.6511 107.252C73.4714 106.987 74.328 106.875 75.168 106.695L75.1682 106.694Z" fill="url(#paint20_radial_913_44582)"/>
<path d="M73.9674 102.854C75.2779 102.837 76.4113 103.188 77.4548 103.921C78.283 104.504 78.7638 105.559 78.5976 106.397C78.4937 106.92 78.2808 107.114 77.7724 107.028C76.7704 106.859 75.7524 106.668 74.7473 106.702C72.4846 106.78 70.4879 107.699 68.9111 109.61C68.5146 110.09 68.3475 109.954 68.1074 109.481C67.3968 108.081 67.8377 106.069 69.1427 104.834C70.5688 103.484 72.2414 102.935 73.9674 102.854V102.854Z" fill="url(#paint21_radial_913_44582)"/>
<path d="M61.7719 115.203C62.4502 115.816 63.0814 116.479 63.6774 117.172C66.5937 120.563 67.7339 124.562 67.3126 129.085C67.0975 131.395 66.6377 133.63 65.463 135.628C64.5771 137.135 63.434 138.332 61.6507 138.556C60.0488 138.758 59.006 137.832 58.9687 136.137C58.9477 135.18 59.0551 134.22 59.0773 133.261C59.0954 132.485 59.0921 131.707 59.0641 130.931C58.9789 128.573 57.9681 126.632 56.6068 124.826C55.4115 123.24 54.2329 121.633 53.16 119.956C52.7263 119.277 52.4761 118.408 52.3422 117.589C51.8332 114.479 52.0718 111.599 53.3791 109.085C53.3791 109.085 55.4447 110.392 56.099 110.878C58.1727 112.415 60.7191 114.252 61.7721 115.203H61.7719Z" fill="url(#paint22_radial_913_44582)"/>
<path d="M75.9125 125.901C76.1344 125.949 76.571 125.787 76.6202 125.62C76.7636 125.13 76.3239 125.198 76.0614 125.124C74.1105 124.577 72.2694 123.784 70.7276 122.301C68.8507 120.495 69.9816 118.883 71.5244 118.177C72.7793 117.603 74.0899 117.63 75.3771 117.8C77.542 118.087 79.6189 118.733 81.3793 120.253C82.8913 121.559 83.0557 123.342 81.8045 124.947C80.4967 126.624 78.7196 127.343 76.8239 127.802" fill="url(#paint23_radial_913_44582)"/>
<path d="M81.5751 113.371C81.5737 112.857 82.0615 112.366 82.1111 111.821C82.5115 109.651 80.8985 108.831 79.5885 107.501C78.5899 106.313 80.0256 104.943 77.6499 103.418C75.7561 102.24 73.5847 102.073 71.5201 102.77C70.364 103.205 69.9432 103.555 68.6673 103.11C66.295 102.467 63.7746 102.452 61.3734 102.851C56.6479 103.65 52.7326 107.44 51.8628 112.246C51.7216 113.054 51.6086 113.765 51.5793 114.589C51.4566 117.054 51.9973 119.481 53.4279 121.493C54.0905 122.481 54.754 123.488 55.4836 124.419C56.1293 125.24 56.7747 126.034 57.1903 127.034C57.8113 128.578 58.2154 130.203 58.21 131.883C58.2084 133.172 58.1566 134.448 58.1644 135.741C58.1704 136.283 58.239 136.853 58.4914 137.333C59.0029 138.354 60.3138 139.099 61.4431 138.99C61.9915 138.957 62.5598 138.774 63.0699 138.534C66.279 137.016 67.5433 132.884 67.8616 129.568C67.9092 129.187 67.9663 128.806 68.03 128.438C68.0734 128.16 68.1922 127.858 68.4235 127.792C68.5776 127.737 68.7834 127.757 69.0088 127.806C69.523 127.923 70.0359 128.049 70.5441 128.162C72.8666 128.783 75.2779 128.802 77.5918 128.107C79.588 127.578 81.5151 126.665 82.7 124.899C83.1189 124.282 83.4659 123.591 83.4975 122.837C83.5237 122.274 83.3493 121.699 83.1184 121.188C82.9333 120.762 82.66 120.332 82.7159 119.849C82.7501 119.483 82.9483 119.127 83.0767 118.781C83.5964 117.485 83.367 116.075 82.5648 114.896C82.2827 114.385 81.6777 113.961 81.5764 113.391L81.5749 113.371L81.5751 113.371ZM68.5492 104.298C68.6068 104.535 68.3915 104.82 68.2486 105.04C68.0978 105.261 67.9546 105.478 67.8234 105.708C67.0181 107.074 67.0985 108.412 67.8244 109.774C68.0715 110.294 68.0582 110.864 68.01 111.423C67.9671 112.046 68.0581 112.633 68.3402 113.174C68.5307 113.55 68.799 113.9 68.9134 114.309C69.0298 114.703 68.9913 115.124 69.0045 115.531C69.0093 116.282 69.3026 116.948 69.6872 117.572C70.0696 118.158 69.8172 118.68 69.4873 119.219C68.7321 120.477 69.3714 121.848 70.3264 122.769C71.4156 123.866 72.7788 124.531 74.1853 125.085C74.7624 125.265 75.9432 125.83 76.4286 125.325C76.5763 124.98 75.9607 124.846 75.6938 124.76C73.8043 124.206 71.8797 123.377 70.5495 121.853C69.1604 120.249 70.4454 118.683 72.2776 118.171C74.7837 117.486 78.6283 118.383 80.736 119.862C83.3837 121.611 82.9552 124.032 80.6211 125.797C79.4031 126.712 77.93 127.177 76.4522 127.476C74.0109 127.955 71.6143 127.681 69.2554 126.915C68.728 126.74 68.1786 126.502 67.9694 125.95C67.8346 125.624 67.7889 125.252 67.743 124.9C67.6203 123.848 67.4109 122.86 67.1052 121.914C66.2884 119.382 64.8375 117.24 62.8919 115.403C62.6429 115.18 62.3005 114.881 61.9653 114.909C61.3486 115.124 62.2478 115.968 62.5126 116.231C64.3525 117.973 65.8263 120.248 66.5316 122.593C67.8052 126.744 67.3201 132.982 64.4206 136.44C63.4138 137.666 61.3935 138.567 59.9366 137.672C58.8989 136.967 58.9509 135.516 59.0121 134.386C59.5274 127.277 57.947 126.732 54.1731 121.316C53.1929 119.966 52.6081 118.869 52.4364 117.184C51.968 112.583 53.0581 108.681 56.4287 106C58.8041 104.037 61.905 103.472 64.9016 103.55C65.4932 103.581 68.3888 103.697 68.5448 104.283L68.5489 104.298L68.5492 104.298ZM74.7429 112.331C76.5165 112.389 78.2935 112.754 79.8356 113.638C81.794 114.714 83.1631 116.62 82.125 118.844C81.8183 119.446 81.272 119.344 80.7821 119.035C78.744 117.807 76.4774 117.194 74.1294 117.194C73.4025 117.188 72.6963 117.308 71.9866 117.474C71.5662 117.565 71.0738 117.641 70.6982 117.436C70.1151 117.117 69.8431 116.305 69.7934 115.66C69.6653 113.27 72.7599 112.291 74.7172 112.331L74.7427 112.331L74.7429 112.331ZM75.1848 107.264C77.3717 107.271 79.6001 108.057 80.8599 109.933C81.0931 110.267 81.2838 110.647 81.3358 111.053C81.4642 112.291 80.6199 113.256 79.3805 112.661C76.7838 111.562 73.5577 111.049 71.0227 112.545C70.5312 112.777 70.0166 113.492 69.4311 113.284C69.2005 113.186 69.0169 112.909 68.9029 112.619C68.5601 111.789 68.8104 110.859 69.3257 110.159C70.6457 108.194 72.9333 107.452 75.1596 107.265L75.1849 107.264L75.1848 107.264ZM73.9689 103.243C75.4735 103.24 77.1762 103.711 78.0542 105.017C78.5302 105.717 78.5671 107.033 77.4266 106.918C74.4185 106.412 71.678 106.66 69.4037 108.952C68.9768 109.391 68.5353 109.624 68.2253 108.923C67.692 107.678 68.1757 106.124 69.2112 105.124C70.4707 103.908 72.2276 103.291 73.9431 103.243L73.9688 103.243H73.9689Z" fill="#75584C"/>
</g>
<g clip-path="url(#clip1_913_44582)">
<path d="M174.144 83.3399C175.234 78.4861 173.39 73.9327 170.025 73.1696C166.66 72.4066 163.047 75.7228 161.957 80.5766C160.866 85.4304 162.71 89.9838 166.076 90.7469C169.441 91.51 173.053 88.1938 174.144 83.3399Z" fill="url(#paint24_radial_913_44582)"/>
<path d="M111.882 90.7464C115.247 89.9833 117.092 85.4299 116.001 80.5761C114.911 75.7222 111.298 72.406 107.933 73.1691C104.568 73.9322 102.724 78.4856 103.814 83.3394C104.905 88.1932 108.517 91.5095 111.882 90.7464Z" fill="url(#paint25_radial_913_44582)"/>
<path d="M169.928 79.9847C169.928 101.239 155.353 118.797 138.976 118.797C122.599 118.797 108.023 101.239 108.023 79.9847C108.023 58.73 121.881 41.5 138.976 41.5C156.07 41.5 169.928 58.7302 169.928 79.9847Z" fill="url(#paint26_radial_913_44582)"/>
<path d="M169.928 79.9847C169.928 101.239 155.353 118.797 138.976 118.797C122.599 118.797 108.023 101.239 108.023 79.9847C108.023 58.73 121.881 41.5 138.976 41.5C156.07 41.5 169.928 58.7302 169.928 79.9847Z" fill="url(#paint27_radial_913_44582)"/>
<path d="M129.757 80.6324C131.232 80.6324 132.427 79.4317 132.427 77.9505C132.427 76.4693 131.232 75.2686 129.757 75.2686C128.283 75.2686 127.088 76.4693 127.088 77.9505C127.088 79.4317 128.283 80.6324 129.757 80.6324Z" fill="#231F20"/>
<path d="M148.193 80.6324C149.667 80.6324 150.863 79.4317 150.863 77.9505C150.863 76.4693 149.667 75.2686 148.193 75.2686C146.719 75.2686 145.523 76.4693 145.523 77.9505C145.523 79.4317 146.719 80.6324 148.193 80.6324Z" fill="#231F20"/>
<path d="M123.13 75.1302C126.555 74.9512 129.879 75.7006 132.872 77.3885C134.798 78.4743 136.536 75.5022 134.609 74.416C131.105 72.4404 127.122 71.4735 123.106 71.6835C120.911 71.7984 120.917 75.2461 123.13 75.1302Z" fill="url(#paint28_linear_913_44582)"/>
<path d="M154.597 75.4047C151.173 75.2257 147.849 75.975 144.855 77.6629C142.929 78.7487 141.192 75.7766 143.118 74.6904C146.622 72.7148 150.605 71.7479 154.622 71.9579C156.817 72.0728 156.81 75.5205 154.597 75.4047Z" fill="url(#paint29_linear_913_44582)"/>
<path d="M138.975 88.2773C131.213 88.2773 125.218 91.5519 124.709 97.6513C124.676 98.0459 125.107 98.3392 125.519 98.1954L128.715 97.0782C129.003 96.9779 129.328 97.0908 129.465 97.3386L131.032 100.176C131.215 100.506 131.708 100.575 131.994 100.309L134.57 97.914C134.805 97.6952 135.196 97.6964 135.43 97.9169L138.543 100.855C138.778 101.077 139.172 101.077 139.406 100.855L142.52 97.9169C142.753 97.6966 143.145 97.6952 143.38 97.914L145.956 100.309C146.241 100.575 146.735 100.507 146.918 100.176L148.485 97.3386C148.622 97.0908 148.947 96.9779 149.234 97.0782L152.431 98.1954C152.843 98.3392 153.274 98.0459 153.241 97.6513C152.732 91.5519 146.737 88.2773 138.975 88.2773Z" fill="url(#paint30_linear_913_44582)"/>
<path d="M143.925 91.5384C141.975 91.9684 141.052 92.9351 138.975 92.9351C136.898 92.9351 135.975 91.9684 134.025 91.5384C131.16 90.9088 130.906 88.3749 133.766 86.9471C135.663 85.9979 135.377 85.4884 135.628 82.9796C135.819 81.0656 135.951 80.1222 136.178 77.8285C136.258 77.0149 136.783 76.2516 137.652 75.8138C138.025 75.6259 138.469 75.4941 138.975 75.4941C139.48 75.4941 139.924 75.6259 140.3 75.8138C141.166 76.2516 141.691 77.0149 141.772 77.8285C141.999 80.1222 142.133 81.0656 142.323 82.9796C142.572 85.4884 142.287 85.9979 144.186 86.9471C147.044 88.3749 146.792 90.9088 143.924 91.5384H143.925Z" fill="url(#paint31_linear_913_44582)"/>
<path d="M113.92 74.2286C113.346 77.8241 113.447 81.4518 112.086 83.1095C110.725 84.7672 107.201 84.2726 106.622 81.3288C106.263 79.5017 106.166 76.7594 106.31 74.5441C106.531 71.1685 107.119 67.3835 108.809 62.319C110.323 57.7795 116.762 58.5565 115.991 62.8389C115.108 67.7419 114.729 69.1691 113.92 74.2286Z" fill="url(#paint32_linear_913_44582)"/>
<path d="M164.029 74.2286C164.603 77.8241 164.502 81.4518 165.863 83.1095C167.224 84.7672 170.748 84.2726 171.327 81.3288C171.686 79.5017 171.784 76.7594 171.639 74.5441C171.419 71.1685 170.83 67.3835 169.14 62.319C167.626 57.7795 161.187 58.5565 161.958 62.8389C162.841 67.7419 163.22 69.1691 164.029 74.2286Z" fill="url(#paint33_linear_913_44582)"/>
<path d="M141.939 70.2474C140.928 71.3256 140.507 72.9303 140.639 74.3843C140.662 74.636 140.844 74.8811 141.121 74.8687C141.363 74.8578 141.627 74.6546 141.603 74.3843C141.572 74.0391 141.573 73.6922 141.606 73.3471C141.61 73.3074 141.615 73.2679 141.62 73.2284C141.627 73.1722 141.626 73.1757 141.618 73.2389C141.621 73.2193 141.624 73.1995 141.627 73.18C141.639 73.0953 141.654 73.0108 141.671 72.927C141.705 72.7607 141.746 72.5961 141.795 72.4337C141.842 72.2766 141.891 72.1125 141.962 71.964C141.91 72.0734 141.965 71.9572 141.973 71.9409C141.988 71.9068 142.004 71.8727 142.02 71.839C142.057 71.7609 142.097 71.684 142.138 71.6085C142.214 71.4713 142.297 71.3382 142.387 71.2108C142.407 71.1823 142.427 71.1513 142.45 71.1253C142.367 71.2179 142.447 71.1302 142.461 71.1133C142.512 71.0511 142.565 70.9911 142.621 70.9324C142.794 70.748 142.816 70.4279 142.621 70.2474C142.433 70.0742 142.123 70.0504 141.939 70.2474H141.939Z" fill="#414042"/>
<path d="M135.339 70.9324C135.394 70.9911 135.447 71.0511 135.498 71.1133L135.52 71.1404C135.553 71.1819 135.549 71.1769 135.509 71.1253C135.508 71.1296 135.568 71.2055 135.572 71.2108C135.663 71.3382 135.745 71.4713 135.821 71.6085C135.86 71.6788 135.896 71.7501 135.931 71.8223C135.95 71.8617 135.969 71.9012 135.987 71.9411C135.997 71.9653 136.047 72.0697 135.998 71.9642C136.068 72.1127 136.117 72.2768 136.164 72.4339C136.213 72.5963 136.254 72.7609 136.288 72.9272C136.303 73.0046 136.317 73.0825 136.33 73.1606C136.334 73.1867 136.338 73.2129 136.341 73.2391C136.334 73.1825 136.333 73.1724 136.337 73.2088C136.343 73.2549 136.348 73.301 136.353 73.3473C136.387 73.6924 136.388 74.0395 136.356 74.3845C136.333 74.6375 136.594 74.8799 136.838 74.8689C137.119 74.8563 137.296 74.6556 137.32 74.3845C137.453 72.9304 137.032 71.3256 136.02 70.2476C135.847 70.0627 135.511 70.0587 135.338 70.2476C135.157 70.4455 135.153 70.7354 135.338 70.9326L135.339 70.9324Z" fill="#414042"/>
<path d="M148.709 102.729C143.01 98.6457 134.477 98.5086 128.948 102.957C128.333 103.451 128.444 104.494 128.948 105.012C129.543 105.623 130.387 105.499 130.993 105.012C135.539 101.354 142.705 101.982 147.25 105.239C148.768 106.327 150.214 103.808 148.709 102.73L148.709 102.729Z" fill="#414042"/>
<path d="M174.503 122.941L178.285 123.888L184.311 124.191L186.099 123.477L184.839 117.127L179.145 113.827L175.734 103.67L176.289 98.0815L176.772 96.676L171.119 95.7539L166.393 96.3455L162.368 98.018L158.317 101.907L157.271 105.297L174.503 122.941Z" fill="url(#paint34_radial_913_44582)"/>
<path d="M182.527 105.773C185.091 105.896 187.543 106.524 189.64 108.359C191.031 109.576 191.778 111.208 191.329 113.318C191.251 113.685 191.081 114.035 190.911 114.362C190.676 114.818 190.376 114.887 189.956 114.583C187.416 112.739 184.625 111.903 181.66 111.915C180.795 111.918 179.913 112.111 179.073 112.368C178.058 112.68 177.352 112.241 176.974 110.87C176.488 109.113 177.12 107.656 178.787 106.722C179.965 106.062 181.208 105.734 182.527 105.773Z" fill="url(#paint35_linear_913_44582)"/>
<path d="M183.047 99.8623C185.048 100.052 186.977 100.373 188.593 101.865C189.21 102.436 189.762 103.161 190.206 103.928C190.81 104.97 190.616 106.427 189.78 107.224C189.528 107.465 188.957 107.52 188.649 107.353C186.799 106.357 184.865 105.797 182.852 105.704C180.619 105.602 178.532 106.168 176.793 107.959C176.456 108.306 176.184 108.247 175.899 107.856C175.193 106.887 175.065 105.474 175.635 104.388C176.701 102.356 178.275 101.114 180.191 100.495C181.122 100.194 182.094 100.068 183.047 99.8625L183.047 99.8623Z" fill="url(#paint36_linear_913_44582)"/>
<path d="M181.687 95.5075C183.174 95.488 184.46 95.8857 185.644 96.7179C186.583 97.3785 187.129 98.5751 186.94 99.525C186.822 100.119 186.581 100.339 186.004 100.241C184.867 100.049 183.712 99.8326 182.572 99.8717C180.004 99.9597 177.739 101.002 175.95 103.169C175.5 103.714 175.31 103.56 175.038 103.023C174.231 101.435 174.732 99.1538 176.212 97.753C177.83 96.222 179.728 95.5999 181.687 95.5075Z" fill="url(#paint37_linear_913_44582)"/>
<path d="M167.848 109.513C168.618 110.207 169.334 110.959 170.01 111.746C173.319 115.592 174.613 120.126 174.135 125.256C173.891 127.875 173.369 130.41 172.037 132.676C171.031 134.386 169.734 135.743 167.711 135.997C165.893 136.226 164.71 135.175 164.668 133.253C164.644 132.168 164.766 131.08 164.791 129.992C164.811 129.112 164.808 128.229 164.776 127.35C164.679 124.675 163.532 122.474 161.988 120.426C160.632 118.627 159.294 116.805 158.077 114.902C157.585 114.133 157.301 113.147 157.149 112.219C156.572 108.692 156.842 105.425 158.326 102.574C158.326 102.574 160.669 104.057 161.412 104.607C163.765 106.351 166.654 108.435 167.849 109.513H167.848Z" fill="url(#paint38_radial_913_44582)"/>
<path d="M183.893 121.644C184.145 121.698 184.64 121.515 184.696 121.325C184.859 120.769 184.36 120.847 184.062 120.763C181.848 120.143 179.759 119.243 178.01 117.561C175.88 115.514 177.163 113.685 178.914 112.884C180.338 112.233 181.825 112.264 183.285 112.457C185.742 112.782 188.098 113.515 190.096 115.239C191.811 116.72 191.998 118.742 190.578 120.562C189.094 122.465 187.078 123.279 184.927 123.799" fill="url(#paint39_linear_913_44582)"/>
<path d="M190.317 107.434C190.316 106.852 190.869 106.295 190.925 105.677C191.38 103.216 189.549 102.286 188.063 100.777C186.93 99.4305 188.559 97.8766 185.863 96.1473C183.715 94.8113 181.251 94.6215 178.908 95.4123C177.597 95.9051 177.119 96.3021 175.671 95.7974C172.98 95.0686 170.12 95.0518 167.396 95.5037C162.034 96.4098 157.591 100.709 156.604 106.159C156.444 107.075 156.316 107.882 156.283 108.815C156.144 111.612 156.757 114.363 158.38 116.646C159.132 117.766 159.885 118.908 160.713 119.964C161.445 120.895 162.178 121.795 162.649 122.929C163.354 124.681 163.812 126.523 163.806 128.429C163.804 129.891 163.746 131.338 163.754 132.804C163.761 133.419 163.839 134.065 164.125 134.61C164.706 135.767 166.193 136.612 167.475 136.489C168.097 136.451 168.742 136.244 169.32 135.972C172.962 134.25 174.396 129.564 174.757 125.804C174.811 125.371 174.876 124.939 174.948 124.522C174.998 124.206 175.132 123.864 175.395 123.79C175.57 123.727 175.803 123.749 176.059 123.805C176.642 123.938 177.224 124.08 177.801 124.209C180.436 124.913 183.172 124.935 185.798 124.147C188.063 123.547 190.249 122.511 191.593 120.508C192.069 119.809 192.463 119.026 192.498 118.17C192.528 117.531 192.33 116.88 192.068 116.3C191.858 115.816 191.548 115.329 191.612 114.782C191.65 114.366 191.875 113.962 192.021 113.57C192.611 112.1 192.35 110.502 191.44 109.164C191.12 108.585 190.434 108.104 190.319 107.457L190.317 107.435L190.317 107.434ZM175.537 97.1446C175.603 97.4138 175.359 97.7368 175.196 97.9863C175.025 98.237 174.863 98.4828 174.714 98.7441C173.8 100.293 173.891 101.811 174.715 103.356C174.995 103.945 174.98 104.592 174.926 105.226C174.877 105.932 174.98 106.598 175.3 107.211C175.516 107.637 175.821 108.034 175.951 108.498C176.083 108.945 176.039 109.423 176.054 109.885C176.059 110.736 176.392 111.491 176.829 112.199C177.263 112.863 176.976 113.456 176.602 114.067C175.745 115.494 176.47 117.048 177.554 118.093C178.79 119.336 180.336 120.091 181.932 120.72C182.587 120.923 183.927 121.564 184.478 120.991C184.645 120.6 183.947 120.449 183.644 120.351C181.5 119.722 179.316 118.783 177.807 117.054C176.231 115.235 177.689 113.459 179.768 112.878C182.611 112.101 186.974 113.118 189.365 114.797C192.369 116.779 191.883 119.525 189.235 121.527C187.853 122.565 186.181 123.092 184.505 123.431C181.735 123.974 179.015 123.663 176.339 122.794C175.74 122.596 175.117 122.326 174.88 121.7C174.727 121.331 174.675 120.909 174.623 120.51C174.483 119.316 174.246 118.196 173.899 117.123C172.972 114.251 171.326 111.822 169.118 109.739C168.836 109.486 168.447 109.147 168.067 109.179C167.367 109.423 168.388 110.38 168.688 110.679C170.776 112.653 172.448 115.234 173.248 117.893C174.693 122.601 174.143 129.676 170.853 133.597C169.711 134.987 167.418 136.009 165.765 134.994C164.588 134.195 164.647 132.548 164.716 131.268C165.301 123.205 163.508 122.587 159.226 116.445C158.114 114.914 157.45 113.669 157.255 111.759C156.724 106.541 157.961 102.116 161.785 99.0754C164.48 96.8489 167.999 96.2087 171.399 96.297C172.07 96.3321 175.355 96.463 175.532 97.1279L175.537 97.1447L175.537 97.1446ZM182.565 106.255C184.577 106.32 186.594 106.735 188.343 107.738C190.565 108.958 192.119 111.119 190.941 113.641C190.593 114.324 189.973 114.208 189.417 113.858C187.105 112.465 184.533 111.77 181.869 111.77C181.044 111.764 180.243 111.899 179.438 112.088C178.96 112.191 178.402 112.277 177.976 112.045C177.314 111.683 177.005 110.761 176.949 110.03C176.804 107.32 180.315 106.209 182.536 106.254L182.565 106.255L182.565 106.255ZM183.066 100.509C185.548 100.517 188.076 101.408 189.505 103.536C189.77 103.914 189.986 104.345 190.045 104.806C190.191 106.21 189.233 107.304 187.827 106.629C184.881 105.383 181.22 104.801 178.344 106.497C177.786 106.761 177.202 107.571 176.538 107.335C176.276 107.225 176.068 106.91 175.939 106.581C175.55 105.641 175.834 104.585 176.418 103.791C177.916 101.564 180.512 100.722 183.038 100.51L183.066 100.509L183.066 100.509ZM181.687 95.9485C183.394 95.945 185.326 96.4795 186.322 97.9609C186.862 98.7548 186.904 100.246 185.61 100.117C182.197 99.5425 179.088 99.8242 176.507 102.423C176.023 102.921 175.522 103.185 175.17 102.39C174.565 100.979 175.114 99.2159 176.289 98.0816C177.718 96.7023 179.711 96.0031 181.658 95.9491L181.687 95.9485H181.687Z" fill="#CE936E"/>
</g>
<g clip-path="url(#clip2_913_44582)">
<path d="M273.438 88.4515C271.972 98.0953 265.285 117.075 243.854 117.075C222.423 117.075 215.736 98.0953 214.269 88.4515C213.131 80.9695 210.309 70.1798 215.644 54.7626C220.146 41.747 235.427 39 243.854 39C252.28 39 267.562 41.747 272.064 54.7626C277.399 70.1798 274.577 80.9695 273.438 88.4515H273.438Z" fill="url(#paint40_linear_913_44582)"/>
<path d="M254.561 111.461C251.415 114.744 247.686 115.526 243.891 115.526C240.096 115.526 236.365 114.744 233.219 111.461C228.829 106.88 220.193 99.7593 220.193 75.4515C219.513 55.7581 229.461 51.6631 243.891 51.6631C258.322 51.6631 268.268 55.7581 267.587 75.4515C267.587 99.7593 258.954 106.88 254.561 111.461H254.561Z" fill="url(#paint41_radial_913_44582)"/>
<path d="M267.175 84.8399C267.235 84.3924 267.068 83.3087 266.874 82.074C265.038 70.4668 264.476 66.1905 257.394 59.6166C253.469 55.971 248.525 54.8759 243.855 54.8759C239.184 54.8759 234.241 55.971 230.315 59.6166C223.231 66.1905 222.672 70.4668 220.836 82.074C220.641 83.3087 220.473 84.3924 220.535 84.8399C219.435 76.8085 219.618 70.6329 220.924 64.3913C223.307 52.9899 232.751 46.4707 243.854 46.4707C254.958 46.4707 264.402 52.9899 266.785 64.3913C268.09 70.6329 268.274 76.8085 267.174 84.8399H267.175Z" fill="#414042"/>
<path d="M234.842 79.9979C236.284 79.9979 237.452 78.8277 237.452 77.3842C237.452 75.9407 236.284 74.7705 234.842 74.7705C233.401 74.7705 232.232 75.9407 232.232 77.3842C232.232 78.8277 233.401 79.9979 234.842 79.9979Z" fill="#231F20"/>
<path d="M252.866 79.9979C254.307 79.9979 255.476 78.8277 255.476 77.3842C255.476 75.9407 254.307 74.7705 252.866 74.7705C251.424 74.7705 250.256 75.9407 250.256 77.3842C250.256 78.8277 251.424 79.9979 252.866 79.9979Z" fill="#231F20"/>
<path d="M247.459 92.4615C246.038 92.919 245.367 93.3291 243.854 93.3291C242.341 93.3291 241.669 92.919 240.249 92.4615C238.162 91.7917 237.977 89.0962 240.061 87.5772C241.442 86.5673 241.234 86.0253 241.417 83.3566C241.555 81.3205 241.652 80.3168 241.817 77.8768C241.876 77.0112 242.258 76.1993 242.891 75.7336C243.163 75.5336 243.486 75.3936 243.854 75.3936C244.222 75.3936 244.546 75.5336 244.819 75.7336C245.45 76.1993 245.833 77.0114 245.891 77.8768C246.057 80.3168 246.154 81.3205 246.293 83.3566C246.474 86.0255 246.266 86.5675 247.649 87.5772C249.731 89.096 249.548 91.7917 247.459 92.4615H247.459Z" fill="url(#paint42_linear_913_44582)"/>
<path d="M233.249 74.5096C230.589 73.5977 227.897 74.0678 225.058 74.1749C224.955 73.9268 226.409 73.2792 226.635 73.1793C231.879 70.8651 235.174 71.8585 240.109 74.506C241.079 75.0262 240.94 75.7032 240.539 76.4431C240.314 76.8596 239.98 77.0984 239.534 77.0195C239.088 76.9406 238.831 76.791 237.829 76.4121C236.827 76.0332 235.908 75.4215 233.249 74.5096Z" fill="#1B1B1B"/>
<path d="M254.89 74.5096C257.55 73.5977 260.242 74.0678 263.081 74.1749C263.184 73.9268 261.73 73.2792 261.504 73.1793C256.26 70.8651 252.965 71.8585 248.03 74.506C247.06 75.0262 247.199 75.7032 247.6 76.4431C247.825 76.8596 248.159 77.0984 248.605 77.0195C249.052 76.9406 249.308 76.791 250.31 76.4121C251.312 76.0334 252.231 75.4215 254.89 74.5096Z" fill="#1B1B1B"/>
<path d="M241.377 71.9844C241.307 71.8944 241.384 71.9961 241.393 72.0086C241.411 72.0341 241.429 72.0598 241.446 72.0854C241.485 72.1427 241.523 72.2008 241.558 72.2599C241.624 72.3683 241.685 72.48 241.74 72.5941C241.757 72.6286 241.773 72.6634 241.789 72.6983C241.794 72.7098 241.836 72.8085 241.811 72.7477C241.786 72.687 241.826 72.7868 241.831 72.7987C241.845 72.8348 241.858 72.871 241.872 72.9075C241.918 73.036 241.958 73.1667 241.992 73.2988C242.027 73.4323 242.056 73.5673 242.079 73.7034C242.084 73.7361 242.089 73.7688 242.094 73.8012C242.104 73.8598 242.086 73.7204 242.095 73.8135C242.103 73.8862 242.111 73.9589 242.116 74.0318C242.136 74.3195 242.129 74.6078 242.098 74.8944C242.071 75.1407 242.334 75.3769 242.569 75.3664C242.847 75.3539 243.012 75.1583 243.04 74.8944C243.178 73.6217 242.825 72.3284 242.043 71.3169C241.892 71.1205 241.534 71.1452 241.377 71.3169C241.186 71.5249 241.215 71.7749 241.377 71.9844Z" fill="#414042"/>
<path d="M245.694 71.3258C244.894 72.3217 244.522 73.614 244.635 74.8865C244.657 75.1318 244.836 75.3706 245.107 75.3585C245.343 75.3479 245.601 75.1499 245.578 74.8865C245.553 74.6062 245.551 74.3243 245.574 74.0437C245.578 74.0039 245.582 73.9642 245.586 73.9246C245.588 73.9116 245.602 73.8011 245.593 73.8689C245.583 73.9367 245.599 73.8266 245.601 73.8138C245.608 73.7747 245.615 73.7356 245.622 73.6967C245.647 73.5612 245.679 73.4267 245.716 73.2938C245.753 73.1624 245.795 73.0325 245.844 72.9049C245.856 72.8747 245.868 72.8449 245.88 72.8148C245.9 72.7612 245.847 72.8855 245.885 72.8031C245.914 72.739 245.943 72.6751 245.975 72.6121C246.035 72.4931 246.1 72.3768 246.172 72.2643C246.205 72.2113 246.24 72.1588 246.276 72.1074C246.298 72.0767 246.32 72.0464 246.342 72.0162C246.401 71.936 246.292 72.0784 246.36 71.9938C246.515 71.8018 246.562 71.5114 246.36 71.3262C246.189 71.1685 245.859 71.1208 245.694 71.3262V71.3258Z" fill="#414042"/>
<path d="M231.641 98.1414C231.641 98.1414 234.343 95.6338 239.335 95.6338C244.327 95.6338 240.859 97.0677 243.515 97.7791C246.171 98.4905 245.482 97.3737 248.089 98.1414C250.695 98.909 253.388 101.081 253.388 101.081C253.388 101.081 247.744 102.194 241.867 101.081C235.991 99.968 235.628 99.7216 235.628 99.7216L231.641 98.1414Z" fill="url(#paint43_linear_913_44582)"/>
<path d="M231.641 98.1416C234.35 101.166 238.355 102.499 242.684 103.215C246.206 103.798 252.526 103.313 253.387 101.081C252.393 100.965 248.329 100.914 244.901 100.728C243.722 100.664 242.618 100.583 241.74 100.479C238.31 100.073 236.254 99.3693 231.641 98.1416Z" fill="#971C1F"/>
<path d="M253.387 101.082C253.449 100.503 249.767 97.3407 246.805 96.8474C245.436 96.6191 243.652 96.989 243.652 96.989C243.652 96.989 242.793 95.5292 241.323 94.9972C235.646 92.9434 231.909 97.6037 231.641 98.1418C231.641 98.1418 237.56 95.2379 240.757 96.5887C241.416 96.8674 242.145 97.5601 242.636 98.0855C243.021 98.4977 243.533 98.7682 244.091 98.8422C245.59 99.0406 246.652 97.7795 253.388 101.081L253.387 101.082Z" fill="#7F1717"/>
<path d="M272.903 125.786L276.601 126.708L282.492 127.004L284.24 126.308L283.008 120.12L277.442 116.904L274.106 107.005L274.649 101.558L275.121 100.189L269.595 99.29L264.974 99.8666L261.039 101.497L257.079 105.287L256.057 108.59L272.903 125.786Z" fill="#8B5E3C"/>
<path d="M280.747 109.054C283.253 109.174 285.65 109.786 287.7 111.574C289.06 112.761 289.791 114.351 289.352 116.408C289.275 116.765 289.109 117.106 288.944 117.425C288.713 117.869 288.42 117.937 288.01 117.64C285.527 115.843 282.798 115.028 279.899 115.04C279.054 115.043 278.191 115.231 277.37 115.482C276.378 115.785 275.688 115.357 275.318 114.022C274.843 112.309 275.461 110.889 277.09 109.979C278.242 109.336 279.457 109.017 280.747 109.054Z" fill="#8B5E3C"/>
<path d="M281.258 103.294C283.214 103.479 285.1 103.792 286.68 105.246C287.283 105.802 287.823 106.509 288.257 107.256C288.847 108.272 288.657 109.692 287.841 110.468C287.594 110.703 287.036 110.757 286.735 110.595C284.926 109.623 283.035 109.077 281.067 108.987C278.885 108.887 276.844 109.439 275.144 111.185C274.814 111.523 274.549 111.466 274.27 111.084C273.58 110.14 273.455 108.763 274.012 107.704C275.054 105.724 276.593 104.514 278.466 103.91C279.376 103.617 280.326 103.494 281.258 103.294L281.258 103.294Z" fill="#8B5E3C"/>
<path d="M279.926 99.0495C281.38 99.0304 282.637 99.418 283.794 100.229C284.713 100.873 285.246 102.039 285.062 102.965C284.947 103.543 284.711 103.758 284.147 103.663C283.035 103.475 281.906 103.265 280.791 103.303C278.281 103.388 276.066 104.404 274.317 106.516C273.877 107.047 273.692 106.897 273.426 106.374C272.637 104.827 273.126 102.603 274.574 101.238C276.156 99.7458 278.011 99.1394 279.926 99.0493V99.0495Z" fill="#8B5E3C"/>
<path d="M266.398 112.699C267.15 113.375 267.85 114.108 268.511 114.875C271.746 118.623 273.011 123.042 272.544 128.041C272.305 130.594 271.795 133.065 270.492 135.273C269.509 136.939 268.241 138.262 266.263 138.509C264.486 138.732 263.33 137.708 263.288 135.835C263.265 134.777 263.384 133.717 263.409 132.657C263.429 131.799 263.425 130.939 263.394 130.082C263.3 127.475 262.178 125.33 260.668 123.334C259.342 121.581 258.035 119.805 256.845 117.951C256.364 117.201 256.086 116.24 255.938 115.336C255.373 111.899 255.638 108.715 257.088 105.937C257.088 105.937 259.379 107.382 260.105 107.918C262.405 109.617 265.23 111.648 266.398 112.699Z" fill="#8B5E3C"/>
<path d="M282.084 124.521C282.33 124.574 282.815 124.396 282.869 124.21C283.028 123.669 282.541 123.745 282.249 123.663C280.085 123.058 278.043 122.181 276.333 120.542C274.251 118.547 275.505 116.765 277.217 115.985C278.609 115.35 280.062 115.38 281.49 115.568C283.892 115.885 286.196 116.6 288.148 118.28C289.825 119.723 290.008 121.693 288.62 123.467C287.169 125.321 285.198 126.115 283.095 126.622" fill="#8B5E3C"/>
<path d="M288.364 110.673C288.363 110.106 288.904 109.563 288.959 108.96C289.403 106.562 287.614 105.656 286.161 104.186C285.053 102.873 286.645 101.359 284.01 99.6733C281.909 98.3714 279.501 98.1863 277.211 98.957C275.928 99.4373 275.461 99.8242 274.046 99.3323C271.415 98.6221 268.619 98.6057 265.955 99.0461C260.713 99.9291 256.37 104.119 255.405 109.431C255.249 110.324 255.123 111.109 255.091 112.019C254.955 114.744 255.555 117.426 257.141 119.65C257.877 120.742 258.613 121.855 259.422 122.884C260.138 123.792 260.854 124.669 261.315 125.774C262.004 127.481 262.452 129.277 262.446 131.134C262.444 132.559 262.387 133.969 262.396 135.398C262.402 135.997 262.478 136.627 262.758 137.157C263.326 138.285 264.78 139.109 266.032 138.989C266.641 138.952 267.271 138.75 267.837 138.485C271.397 136.807 272.799 132.24 273.152 128.575C273.205 128.154 273.268 127.733 273.339 127.326C273.387 127.019 273.519 126.685 273.776 126.613C273.947 126.551 274.175 126.573 274.425 126.627C274.995 126.757 275.564 126.896 276.128 127.022C278.704 127.708 281.379 127.729 283.946 126.961C286.16 126.376 288.298 125.366 289.612 123.415C290.077 122.733 290.462 121.97 290.497 121.136C290.526 120.513 290.332 119.879 290.076 119.313C289.871 118.842 289.568 118.368 289.63 117.834C289.668 117.429 289.887 117.035 290.03 116.653C290.606 115.221 290.352 113.663 289.462 112.359C289.149 111.795 288.478 111.326 288.366 110.695L288.364 110.674L288.364 110.673ZM273.915 100.645C273.979 100.908 273.74 101.222 273.582 101.466C273.415 101.71 273.256 101.949 273.11 102.204C272.217 103.713 272.306 105.193 273.111 106.698C273.385 107.272 273.371 107.903 273.317 108.521C273.27 109.209 273.37 109.858 273.683 110.456C273.895 110.871 274.192 111.258 274.319 111.71C274.448 112.146 274.406 112.611 274.42 113.061C274.426 113.891 274.751 114.627 275.178 115.316C275.602 115.964 275.322 116.541 274.956 117.137C274.118 118.528 274.827 120.042 275.887 121.061C277.095 122.273 278.607 123.008 280.167 123.621C280.807 123.819 282.117 124.444 282.656 123.885C282.819 123.504 282.137 123.357 281.84 123.262C279.744 122.648 277.61 121.733 276.134 120.048C274.593 118.275 276.019 116.545 278.051 115.978C280.831 115.221 285.096 116.213 287.434 117.848C290.371 119.78 289.895 122.457 287.306 124.408C285.955 125.419 284.321 125.932 282.682 126.263C279.974 126.792 277.315 126.489 274.699 125.642C274.114 125.449 273.504 125.186 273.272 124.576C273.123 124.217 273.072 123.805 273.021 123.416C272.885 122.253 272.653 121.162 272.313 120.116C271.407 117.317 269.798 114.95 267.64 112.919C267.364 112.673 266.984 112.342 266.612 112.373C265.928 112.611 266.925 113.544 267.219 113.835C269.26 115.759 270.895 118.275 271.677 120.866C273.09 125.454 272.552 132.349 269.336 136.17C268.219 137.525 265.978 138.521 264.362 137.532C263.211 136.753 263.268 135.149 263.336 133.901C263.908 126.043 262.155 125.441 257.968 119.455C256.881 117.962 256.232 116.75 256.042 114.888C255.522 109.803 256.731 105.491 260.47 102.527C263.105 100.357 266.545 99.7332 269.869 99.8192C270.525 99.8534 273.737 99.981 273.91 100.629L273.915 100.645L273.915 100.645ZM280.785 109.524C282.753 109.588 284.724 109.992 286.435 110.969C288.607 112.158 290.126 114.265 288.974 116.722C288.634 117.388 288.028 117.275 287.485 116.934C285.224 115.576 282.71 114.899 280.105 114.898C279.299 114.893 278.515 115.025 277.728 115.208C277.262 115.309 276.716 115.393 276.299 115.167C275.652 114.814 275.35 113.916 275.295 113.203C275.153 110.562 278.586 109.48 280.757 109.524L280.785 109.524L280.785 109.524ZM281.276 103.924C283.702 103.931 286.173 104.8 287.571 106.874C287.83 107.243 288.041 107.663 288.099 108.112C288.241 109.48 287.305 110.547 285.93 109.888C283.049 108.675 279.471 108.107 276.659 109.76C276.114 110.017 275.543 110.807 274.893 110.577C274.637 110.469 274.434 110.163 274.307 109.842C273.927 108.925 274.205 107.897 274.776 107.123C276.241 104.952 278.778 104.132 281.248 103.925L281.276 103.924L281.276 103.924ZM279.927 99.4796C281.596 99.4762 283.485 99.9971 284.459 101.441C284.987 102.215 285.028 103.668 283.762 103.542C280.426 102.982 277.386 103.257 274.863 105.789C274.389 106.274 273.9 106.532 273.556 105.757C272.964 104.382 273.501 102.664 274.649 101.558C276.046 100.214 277.995 99.5328 279.898 99.4802L279.927 99.4796Z" fill="#8B5E3C"/>
<path d="M272.903 125.786L276.601 126.708L282.492 127.004L284.24 126.308L283.008 120.12L277.442 116.904L274.106 107.005L274.649 101.558L275.121 100.189L269.595 99.29L264.974 99.8666L261.039 101.497L257.079 105.287L256.057 108.59L272.903 125.786Z" fill="url(#paint44_radial_913_44582)"/>
<path d="M280.747 109.054C283.253 109.174 285.65 109.786 287.7 111.574C289.06 112.761 289.791 114.351 289.352 116.408C289.275 116.765 289.109 117.106 288.944 117.425C288.713 117.869 288.42 117.937 288.01 117.64C285.527 115.843 282.798 115.028 279.899 115.04C279.054 115.043 278.191 115.231 277.37 115.482C276.378 115.785 275.688 115.357 275.318 114.022C274.843 112.309 275.461 110.889 277.09 109.979C278.242 109.336 279.457 109.017 280.747 109.054Z" fill="url(#paint45_radial_913_44582)"/>
<path d="M281.258 103.294C283.214 103.479 285.1 103.792 286.68 105.246C287.283 105.802 287.823 106.509 288.257 107.256C288.847 108.272 288.657 109.692 287.841 110.468C287.594 110.703 287.036 110.757 286.735 110.595C284.926 109.623 283.035 109.077 281.067 108.987C278.885 108.887 276.844 109.439 275.144 111.185C274.814 111.523 274.549 111.466 274.27 111.084C273.58 110.14 273.455 108.763 274.012 107.704C275.054 105.724 276.593 104.514 278.466 103.91C279.376 103.617 280.326 103.494 281.258 103.294L281.258 103.294Z" fill="url(#paint46_radial_913_44582)"/>
<path d="M279.926 99.0495C281.38 99.0304 282.637 99.418 283.794 100.229C284.713 100.873 285.246 102.039 285.062 102.965C284.947 103.543 284.711 103.758 284.147 103.663C283.035 103.475 281.906 103.265 280.791 103.303C278.281 103.388 276.066 104.404 274.317 106.516C273.877 107.047 273.692 106.897 273.426 106.374C272.637 104.827 273.126 102.603 274.574 101.238C276.156 99.7458 278.011 99.1394 279.926 99.0493V99.0495Z" fill="url(#paint47_radial_913_44582)"/>
<path d="M266.398 112.699C267.15 113.375 267.85 114.108 268.511 114.875C271.746 118.623 273.011 123.042 272.544 128.041C272.305 130.594 271.795 133.065 270.492 135.273C269.509 136.939 268.241 138.262 266.263 138.509C264.486 138.732 263.33 137.708 263.288 135.835C263.265 134.777 263.384 133.717 263.409 132.657C263.429 131.799 263.425 130.939 263.394 130.082C263.3 127.475 262.178 125.33 260.668 123.334C259.342 121.581 258.035 119.805 256.845 117.951C256.364 117.201 256.086 116.24 255.938 115.336C255.373 111.899 255.638 108.715 257.088 105.937C257.088 105.937 259.379 107.382 260.105 107.918C262.405 109.617 265.23 111.648 266.398 112.699Z" fill="url(#paint48_radial_913_44582)"/>
<path d="M282.084 124.521C282.33 124.574 282.815 124.396 282.869 124.21C283.028 123.669 282.541 123.745 282.249 123.663C280.085 123.058 278.043 122.181 276.333 120.542C274.251 118.547 275.505 116.765 277.217 115.985C278.609 115.35 280.062 115.38 281.49 115.568C283.892 115.885 286.196 116.6 288.148 118.28C289.825 119.723 290.008 121.693 288.62 123.467C287.169 125.321 285.198 126.115 283.095 126.622" fill="url(#paint49_radial_913_44582)"/>
<path d="M288.364 110.673C288.363 110.106 288.904 109.563 288.959 108.96C289.403 106.562 287.614 105.656 286.161 104.186C285.053 102.873 286.645 101.359 284.01 99.6733C281.909 98.3714 279.501 98.1863 277.211 98.957C275.928 99.4373 275.461 99.8242 274.046 99.3323C271.415 98.6221 268.619 98.6057 265.955 99.0461C260.713 99.9291 256.37 104.119 255.405 109.431C255.249 110.324 255.123 111.109 255.091 112.019C254.955 114.744 255.555 117.426 257.141 119.65C257.877 120.742 258.613 121.855 259.422 122.884C260.138 123.792 260.854 124.669 261.315 125.774C262.004 127.481 262.452 129.277 262.446 131.134C262.444 132.559 262.387 133.969 262.396 135.398C262.402 135.997 262.478 136.627 262.758 137.157C263.326 138.285 264.78 139.109 266.032 138.989C266.641 138.952 267.271 138.75 267.837 138.485C271.397 136.807 272.799 132.24 273.152 128.575C273.205 128.154 273.268 127.733 273.339 127.326C273.387 127.019 273.519 126.685 273.776 126.613C273.947 126.551 274.175 126.573 274.425 126.627C274.995 126.757 275.564 126.896 276.128 127.022C278.704 127.708 281.379 127.729 283.946 126.961C286.16 126.376 288.298 125.366 289.612 123.415C290.077 122.733 290.462 121.97 290.497 121.136C290.526 120.513 290.332 119.879 290.076 119.313C289.871 118.842 289.568 118.368 289.63 117.834C289.668 117.429 289.887 117.035 290.03 116.653C290.606 115.221 290.352 113.663 289.462 112.359C289.149 111.795 288.478 111.326 288.366 110.695L288.364 110.674L288.364 110.673ZM273.915 100.645C273.979 100.908 273.74 101.222 273.582 101.466C273.415 101.71 273.256 101.949 273.11 102.204C272.217 103.713 272.306 105.193 273.111 106.698C273.385 107.272 273.371 107.903 273.317 108.521C273.27 109.209 273.37 109.858 273.683 110.456C273.895 110.871 274.192 111.258 274.319 111.71C274.448 112.146 274.406 112.611 274.42 113.061C274.426 113.891 274.751 114.627 275.178 115.316C275.602 115.964 275.322 116.541 274.956 117.137C274.118 118.528 274.827 120.042 275.887 121.061C277.095 122.273 278.607 123.008 280.167 123.621C280.807 123.819 282.117 124.444 282.656 123.885C282.819 123.504 282.137 123.357 281.84 123.262C279.744 122.648 277.61 121.733 276.134 120.048C274.593 118.275 276.019 116.545 278.051 115.978C280.831 115.221 285.096 116.213 287.434 117.848C290.371 119.78 289.895 122.457 287.306 124.408C285.955 125.419 284.321 125.932 282.682 126.263C279.974 126.792 277.315 126.489 274.699 125.642C274.114 125.449 273.504 125.186 273.272 124.576C273.123 124.217 273.072 123.805 273.021 123.416C272.885 122.253 272.653 121.162 272.313 120.116C271.407 117.317 269.798 114.95 267.64 112.919C267.364 112.673 266.984 112.342 266.612 112.373C265.928 112.611 266.925 113.544 267.219 113.835C269.26 115.759 270.895 118.275 271.677 120.866C273.09 125.454 272.552 132.349 269.336 136.17C268.219 137.525 265.978 138.521 264.362 137.532C263.211 136.753 263.268 135.149 263.336 133.901C263.908 126.043 262.155 125.441 257.968 119.455C256.881 117.962 256.232 116.75 256.042 114.888C255.522 109.803 256.731 105.491 260.47 102.527C263.105 100.357 266.545 99.7332 269.869 99.8192C270.525 99.8534 273.737 99.981 273.91 100.629L273.915 100.645L273.915 100.645ZM280.785 109.524C282.753 109.588 284.724 109.992 286.435 110.969C288.607 112.158 290.126 114.265 288.974 116.722C288.634 117.388 288.028 117.275 287.485 116.934C285.224 115.576 282.71 114.899 280.105 114.898C279.299 114.893 278.515 115.025 277.728 115.208C277.262 115.309 276.716 115.393 276.299 115.167C275.652 114.814 275.35 113.916 275.295 113.203C275.153 110.562 278.586 109.48 280.757 109.524L280.785 109.524L280.785 109.524ZM281.276 103.924C283.702 103.931 286.173 104.8 287.571 106.874C287.83 107.243 288.041 107.663 288.099 108.112C288.241 109.48 287.305 110.547 285.93 109.888C283.049 108.675 279.471 108.107 276.659 109.76C276.114 110.017 275.543 110.807 274.893 110.577C274.637 110.469 274.434 110.163 274.307 109.842C273.927 108.925 274.205 107.897 274.776 107.123C276.241 104.952 278.778 104.132 281.248 103.925L281.276 103.924L281.276 103.924ZM279.927 99.4796C281.596 99.4762 283.485 99.9971 284.459 101.441C284.987 102.215 285.028 103.668 283.762 103.542C280.426 102.982 277.386 103.257 274.863 105.789C274.389 106.274 273.9 106.532 273.556 105.757C272.964 104.382 273.501 102.664 274.649 101.558C276.046 100.214 277.995 99.5328 279.898 99.4802L279.927 99.4796Z" fill="#8B5E3C"/>
</g>
<defs>
<radialGradient id="paint0_radial_913_44582" cx="0" cy="0" r="1" gradientUnits="userSpaceOnUse" gradientTransform="translate(41.9791 70.9884) scale(70.2488 70.6083)">
<stop stop-color="#D09072"/>
<stop offset="1" stop-color="#805848"/>
</radialGradient>
<radialGradient id="paint1_radial_913_44582" cx="0" cy="0" r="1" gradientUnits="userSpaceOnUse" gradientTransform="translate(40.3548 76.0537) scale(47.8843 48.1294)">
<stop stop-color="#231F20"/>
<stop offset="1" stop-color="#414042"/>
</radialGradient>
<radialGradient id="paint2_radial_913_44582" cx="0" cy="0" r="1" gradientUnits="userSpaceOnUse" gradientTransform="translate(67.8549 81.8145) rotate(-3.56913) scale(6.17543 8.93779)">
<stop stop-color="#D09072"/>
<stop offset="1" stop-color="#805848"/>
</radialGradient>
<radialGradient id="paint3_radial_913_44582" cx="0" cy="0" r="1" gradientUnits="userSpaceOnUse" gradientTransform="translate(14.4955 81.8204) rotate(-176.431) scale(6.17543 8.93779)">
<stop stop-color="#D09072"/>
<stop offset="1" stop-color="#805848"/>
</radialGradient>
<linearGradient id="paint4_linear_913_44582" x1="41.1744" y1="82.8192" x2="41.1744" y2="93.5653" gradientUnits="userSpaceOnUse">
<stop stop-color="#D19878"/>
<stop offset="1" stop-color="#996955"/>
</linearGradient>
<radialGradient id="paint5_radial_913_44582" cx="0" cy="0" r="1" gradientUnits="userSpaceOnUse" gradientTransform="translate(41.6942 92.5527) scale(4.2958 4.71588)">
<stop stop-color="#D19878"/>
<stop offset="1" stop-color="#996955" stop-opacity="0.5"/>
</radialGradient>
<radialGradient id="paint6_radial_913_44582" cx="0" cy="0" r="1" gradientUnits="userSpaceOnUse" gradientTransform="translate(17.1468 89.3498) scale(3.27324 3.29)">
<stop stop-color="#F1F2F2"/>
<stop offset="1" stop-color="#00AEEF"/>
</radialGradient>
<radialGradient id="paint7_radial_913_44582" cx="0" cy="0" r="1" gradientUnits="userSpaceOnUse" gradientTransform="translate(66.5134 89.199) rotate(180) scale(2.82815 2.84262)">
<stop stop-color="#F1F2F2"/>
<stop offset="1" stop-color="#00AEEF"/>
</radialGradient>
<linearGradient id="paint8_linear_913_44582" x1="25.2707" y1="92.9192" x2="31.149" y2="79.6536" gradientUnits="userSpaceOnUse">
<stop stop-color="#FCFCFC" stop-opacity="0.3"/>
<stop offset="1" stop-color="#F1F2F2" stop-opacity="0.1"/>
</linearGradient>
<linearGradient id="paint9_linear_913_44582" x1="47.3666" y1="92.9192" x2="53.2447" y2="79.6536" gradientUnits="userSpaceOnUse">
<stop stop-color="#FCFCFC" stop-opacity="0.3"/>
<stop offset="1" stop-color="#F1F2F2" stop-opacity="0.1"/>
</linearGradient>
<linearGradient id="paint10_linear_913_44582" x1="50.3759" y1="101.484" x2="29.4345" y2="100.031" gradientUnits="userSpaceOnUse">
<stop stop-color="white"/>
<stop offset="1" stop-color="#D1D3D4"/>
</linearGradient>
<radialGradient id="paint11_radial_913_44582" cx="0" cy="0" r="1" gradientUnits="userSpaceOnUse" gradientTransform="translate(79.7415 135.503) scale(62.186 62.5043)">
<stop stop-color="#D09072"/>
<stop offset="1" stop-color="#805848"/>
</radialGradient>
<radialGradient id="paint12_radial_913_44582" cx="0" cy="0" r="1" gradientUnits="userSpaceOnUse" gradientTransform="translate(79.7422 135.503) scale(62.186 62.5043)">
<stop stop-color="#D09072"/>
<stop offset="1" stop-color="#805848"/>
</radialGradient>
<radialGradient id="paint13_radial_913_44582" cx="0" cy="0" r="1" gradientUnits="userSpaceOnUse" gradientTransform="translate(79.7421 135.503) scale(62.186 62.5043)">
<stop stop-color="#D09072"/>
<stop offset="1" stop-color="#805848"/>
</radialGradient>
<radialGradient id="paint14_radial_913_44582" cx="0" cy="0" r="1" gradientUnits="userSpaceOnUse" gradientTransform="translate(79.7418 135.503) scale(62.186 62.5043)">
<stop stop-color="#D09072"/>
<stop offset="1" stop-color="#805848"/>
</radialGradient>
<radialGradient id="paint15_radial_913_44582" cx="0" cy="0" r="1" gradientUnits="userSpaceOnUse" gradientTransform="translate(79.7416 135.503) scale(62.186 62.5043)">
<stop stop-color="#D09072"/>
<stop offset="1" stop-color="#805848"/>
</radialGradient>
<radialGradient id="paint16_radial_913_44582" cx="0" cy="0" r="1" gradientUnits="userSpaceOnUse" gradientTransform="translate(79.7416 135.503) scale(62.186 62.5043)">
<stop stop-color="#D09072"/>
<stop offset="1" stop-color="#805848"/>
</radialGradient>
<radialGradient id="paint17_radial_913_44582" cx="0" cy="0" r="1" gradientUnits="userSpaceOnUse" gradientTransform="translate(79.7425 135.503) scale(62.186 62.5043)">
<stop stop-color="#D09072"/>
<stop offset="1" stop-color="#805848"/>
</radialGradient>
<radialGradient id="paint18_radial_913_44582" cx="0" cy="0" r="1" gradientUnits="userSpaceOnUse" gradientTransform="translate(76.5237 130.794) scale(32.0951 32.2594)">
<stop stop-color="#D09072"/>
<stop offset="1" stop-color="#805848"/>
</radialGradient>
<radialGradient id="paint19_radial_913_44582" cx="0" cy="0" r="1" gradientUnits="userSpaceOnUse" gradientTransform="translate(81.8955 118.55) rotate(-0.761879) scale(16.3047 16.3881)">
<stop stop-color="#D09072"/>
<stop offset="1" stop-color="#805848"/>
</radialGradient>
<radialGradient id="paint20_radial_913_44582" cx="0" cy="0" r="1" gradientUnits="userSpaceOnUse" gradientTransform="translate(81.0725 112.717) rotate(-0.761879) scale(14.7743 14.8499)">
<stop stop-color="#D09072"/>
<stop offset="1" stop-color="#805848"/>
</radialGradient>
<radialGradient id="paint21_radial_913_44582" cx="0" cy="0" r="1" gradientUnits="userSpaceOnUse" gradientTransform="translate(78.0988 108.659) rotate(-0.76188) scale(12.9062 14.2596)">
<stop stop-color="#D09072"/>
<stop offset="1" stop-color="#805848"/>
</radialGradient>
<radialGradient id="paint22_radial_913_44582" cx="0" cy="0" r="1" gradientUnits="userSpaceOnUse" gradientTransform="translate(63.471 133.665) rotate(-0.76188) scale(26.8639 27.0014)">
<stop stop-color="#D09072"/>
<stop offset="1" stop-color="#805848"/>
</radialGradient>
<radialGradient id="paint23_radial_913_44582" cx="0" cy="0" r="1" gradientUnits="userSpaceOnUse" gradientTransform="translate(79.5385 128.566) scale(34.123 34.2976)">
<stop stop-color="#D09072"/>
<stop offset="1" stop-color="#805848"/>
</radialGradient>
<radialGradient id="paint24_radial_913_44582" cx="0" cy="0" r="1" gradientUnits="userSpaceOnUse" gradientTransform="translate(170.653 70.5025) scale(22.4418 22.5456)">
<stop stop-color="#DEAD87"/>
<stop offset="1" stop-color="#FAB085"/>
</radialGradient>
<radialGradient id="paint25_radial_913_44582" cx="0" cy="0" r="1" gradientUnits="userSpaceOnUse" gradientTransform="translate(112.854 69.8763) rotate(180) scale(24.0352 24.1464)">
<stop stop-color="#DEAD87"/>
<stop offset="1" stop-color="#FAB085"/>
</radialGradient>
<radialGradient id="paint26_radial_913_44582" cx="0" cy="0" r="1" gradientUnits="userSpaceOnUse" gradientTransform="translate(139.627 69.3374) scale(51.319 51.5564)">
<stop offset="0.071" stop-color="#FCC397"/>
<stop offset="0.372" stop-color="#FCC397"/>
<stop offset="1" stop-color="#FAB085"/>
</radialGradient>
<radialGradient id="paint27_radial_913_44582" cx="0" cy="0" r="1" gradientUnits="userSpaceOnUse" gradientTransform="translate(142.189 62.3182) scale(27.8348 27.9635)">
<stop stop-color="white" stop-opacity="0.9"/>
<stop offset="0.72" stop-color="white" stop-opacity="0"/>
</radialGradient>
<linearGradient id="paint28_linear_913_44582" x1="130.201" y1="71.7711" x2="122.671" y2="83.8957" gradientUnits="userSpaceOnUse">
<stop stop-color="#725341"/>
<stop offset="0.523" stop-color="#583B29"/>
<stop offset="1" stop-color="#462A19"/>
</linearGradient>
<linearGradient id="paint29_linear_913_44582" x1="147.526" y1="72.0456" x2="155.057" y2="84.1704" gradientUnits="userSpaceOnUse">
<stop stop-color="#725341"/>
<stop offset="0.523" stop-color="#583B29"/>
<stop offset="1" stop-color="#462A19"/>
</linearGradient>
<linearGradient id="paint30_linear_913_44582" x1="141.292" y1="87.6979" x2="137.469" y2="103.682" gradientUnits="userSpaceOnUse">
<stop stop-color="#725341"/>
<stop offset="0.523" stop-color="#583B29"/>
<stop offset="1" stop-color="#462A19"/>
</linearGradient>
<linearGradient id="paint31_linear_913_44582" x1="138.12" y1="92.9065" x2="142.248" y2="76.2167" gradientUnits="userSpaceOnUse">
<stop stop-color="#DEAD87"/>
<stop offset="1" stop-color="#FAB085"/>
</linearGradient>
<linearGradient id="paint32_linear_913_44582" x1="115.543" y1="71.623" x2="105.89" y2="71.709" gradientUnits="userSpaceOnUse">
<stop stop-color="#725341"/>
<stop offset="0.523" stop-color="#583B29"/>
<stop offset="1" stop-color="#462A19"/>
</linearGradient>
<linearGradient id="paint33_linear_913_44582" x1="162.393" y1="71.6205" x2="172.047" y2="71.7065" gradientUnits="userSpaceOnUse">
<stop stop-color="#725341"/>
<stop offset="0.523" stop-color="#583B29"/>
<stop offset="1" stop-color="#462A19"/>
</linearGradient>
<radialGradient id="paint34_radial_913_44582" cx="0" cy="0" r="1" gradientUnits="userSpaceOnUse" gradientTransform="translate(182.508 122.947) rotate(-0.761505) scale(16.8327 16.9106)">
<stop stop-color="#FDD7BB"/>
<stop offset="1" stop-color="#FAB184"/>
</radialGradient>
<linearGradient id="paint35_linear_913_44582" x1="185.274" y1="113.957" x2="182.6" y2="106.79" gradientUnits="userSpaceOnUse">
<stop stop-color="#FEDABE"/>
<stop offset="1" stop-color="#FAB387"/>
</linearGradient>
<linearGradient id="paint36_linear_913_44582" x1="183.354" y1="107.714" x2="181.873" y2="100.659" gradientUnits="userSpaceOnUse">
<stop stop-color="#FEDABE"/>
<stop offset="1" stop-color="#FAB387"/>
</linearGradient>
<linearGradient id="paint37_linear_913_44582" x1="181.247" y1="101.783" x2="178.548" y2="93.6711" gradientUnits="userSpaceOnUse">
<stop stop-color="#FEDABE"/>
<stop offset="1" stop-color="#FAB387"/>
</linearGradient>
<radialGradient id="paint38_radial_913_44582" cx="0" cy="0" r="1" gradientUnits="userSpaceOnUse" gradientTransform="translate(167.41 134.501) rotate(-0.761505) scale(26.5129 26.6355)">
<stop stop-color="#FEDABE"/>
<stop offset="1" stop-color="#FAB387"/>
</radialGradient>
<linearGradient id="paint39_linear_913_44582" x1="186.529" y1="123.253" x2="181.55" y2="109.18" gradientUnits="userSpaceOnUse">
<stop stop-color="#FEDABE"/>
<stop offset="1" stop-color="#FAB387"/>
</linearGradient>
<linearGradient id="paint40_linear_913_44582" x1="260.69" y1="42.5564" x2="225.11" y2="111.22" gradientUnits="userSpaceOnUse">
<stop stop-color="#1C75BC"/>
<stop offset="1" stop-color="#2E3192"/>
</linearGradient>
<radialGradient id="paint41_radial_913_44582" cx="0" cy="0" r="1" gradientUnits="userSpaceOnUse" gradientTransform="translate(244.409 49.6598) scale(84.6112 90.6261)">
<stop stop-color="#D29571"/>
<stop offset="1" stop-color="#C19776"/>
</radialGradient>
<linearGradient id="paint42_linear_913_44582" x1="243.854" y1="74.6044" x2="243.854" y2="117.851" gradientUnits="userSpaceOnUse">
<stop stop-color="#D19878"/>
<stop offset="0.886" stop-color="#996955"/>
</linearGradient>
<linearGradient id="paint43_linear_913_44582" x1="252.108" y1="99.7907" x2="232.141" y2="97.2371" gradientUnits="userSpaceOnUse">
<stop stop-color="white"/>
<stop offset="1" stop-color="#D1D3D4"/>
</linearGradient>
<radialGradient id="paint44_radial_913_44582" cx="0" cy="0" r="1" gradientUnits="userSpaceOnUse" gradientTransform="translate(279.131 125.384) rotate(-0.759112) scale(38.5901 38.6467)">
<stop stop-color="#D19470"/>
<stop offset="1" stop-color="#C19776"/>
</radialGradient>
<radialGradient id="paint45_radial_913_44582" cx="0" cy="0" r="1" gradientUnits="userSpaceOnUse" gradientTransform="translate(286.902 117.312) rotate(-0.759112) scale(12.6314 12.65)">
<stop stop-color="#D19470"/>
<stop offset="1" stop-color="#C19776"/>
</radialGradient>
<radialGradient id="paint46_radial_913_44582" cx="0" cy="0" r="1" gradientUnits="userSpaceOnUse" gradientTransform="translate(285.905 110.782) rotate(-0.759112) scale(11.5957 11.6127)">
<stop stop-color="#D19470"/>
<stop offset="1" stop-color="#C19776"/>
</radialGradient>
<radialGradient id="paint47_radial_913_44582" cx="0" cy="0" r="1" gradientUnits="userSpaceOnUse" gradientTransform="translate(282.972 106.241) rotate(-0.759112) scale(10.0539 11.0678)">
<stop stop-color="#D19470"/>
<stop offset="1" stop-color="#C19776"/>
</radialGradient>
<radialGradient id="paint48_radial_913_44582" cx="0" cy="0" r="1" gradientUnits="userSpaceOnUse" gradientTransform="translate(265.969 137.051) rotate(-0.759112) scale(25.92 25.958)">
<stop stop-color="#D19470"/>
<stop offset="1" stop-color="#C19776"/>
</radialGradient>
<radialGradient id="paint49_radial_913_44582" cx="0" cy="0" r="1" gradientUnits="userSpaceOnUse" gradientTransform="translate(287.01 125.902) rotate(-0.759112) scale(15.693 15.716)">
<stop stop-color="#D19470"/>
<stop offset="1" stop-color="#C19776"/>
</radialGradient>
<clipPath id="clip0_913_44582">
<rect width="80" height="100" fill="white" transform="translate(3.5 39)"/>
</clipPath>
<clipPath id="clip1_913_44582">
<rect width="89" height="95" fill="white" transform="translate(103.5 41.5)"/>
</clipPath>
<clipPath id="clip2_913_44582">
<rect width="78" height="100" fill="white" transform="translate(212.5 39)"/>
</clipPath>
</defs>
</svg>
