<?xml version="1.0" encoding="UTF-8"?>
<svg id="Layer_2" data-name="Layer 2" xmlns="http://www.w3.org/2000/svg" xmlns:xlink="http://www.w3.org/1999/xlink" viewBox="0 0 634.696 645.359">
  <defs>
    <style>
      .cls-1 {
        fill: url(#linear-gradient-2);
      }

      .cls-2 {
        fill: url(#linear-gradient-10);
      }

      .cls-3 {
        fill: #231f20;
      }

      .cls-4 {
        fill: #d19470;
      }

      .cls-5 {
        fill: url(#linear-gradient-4);
      }

      .cls-6 {
        fill: url(#radial-gradient-5);
      }

      .cls-7 {
        fill: url(#radial-gradient);
      }

      .cls-8 {
        fill: url(#radial-gradient-3);
      }

      .cls-9 {
        fill: url(#linear-gradient-3);
      }

      .cls-10 {
        fill: url(#linear-gradient-5);
      }

      .cls-11 {
        fill: url(#linear-gradient-8);
      }

      .cls-12 {
        fill: url(#radial-gradient-2);
      }

      .cls-13 {
        fill: url(#radial-gradient-4);
      }

      .cls-14 {
        fill: url(#linear-gradient-7);
      }

      .cls-15 {
        fill: url(#linear-gradient-9);
      }

      .cls-16 {
        fill: url(#linear-gradient-11);
      }

      .cls-17 {
        fill: url(#linear-gradient-6);
      }

      .cls-18 {
        fill: url(#radial-gradient-6);
      }

      .cls-19 {
        fill: url(#linear-gradient);
      }

      .cls-20 {
        fill: #bcbec0;
      }
    </style>
    <radialGradient id="radial-gradient" cx="-120.85" cy="371.542" fx="-120.85" fy="371.542" r="499.287" gradientTransform="translate(314.919 -19.316) scale(.805 1.031)" gradientUnits="userSpaceOnUse">
      <stop offset="0" stop-color="#414042"/>
      <stop offset="1" stop-color="#231f20"/>
    </radialGradient>
    <linearGradient id="linear-gradient" x1="341.924" y1="481.038" x2="354.446" y2="657.125" gradientUnits="userSpaceOnUse">
      <stop offset="0" stop-color="#f1f2f2"/>
      <stop offset="1" stop-color="#d1d3d4"/>
    </linearGradient>
    <linearGradient id="linear-gradient-2" x1="368.662" y1="398.984" x2="411.184" y2="516.376" xlink:href="#linear-gradient"/>
    <radialGradient id="radial-gradient-2" cx="310.622" cy="356.189" fx="310.622" fy="356.189" r="363.555" gradientTransform="translate(122.569 -42.179) scale(.932 1.069)" xlink:href="#radial-gradient"/>
    <linearGradient id="linear-gradient-3" x1="291.635" y1="382.776" x2="248.852" y2="425.559" xlink:href="#linear-gradient"/>
    <linearGradient id="linear-gradient-4" x1="408.307" y1="395.735" x2="455.785" y2="444.257" xlink:href="#linear-gradient"/>
    <radialGradient id="radial-gradient-3" cx="492.757" cy="208.843" fx="508.549" fy="175.337" r="37.041" gradientTransform="translate(587.984 -317.803) rotate(77.281)" gradientUnits="userSpaceOnUse">
      <stop offset="0" stop-color="#dead87"/>
      <stop offset="1" stop-color="#fab085"/>
    </radialGradient>
    <radialGradient id="radial-gradient-4" cx="345.351" cy="145.552" fx="421.156" fy="-29.783" r="268.63" gradientUnits="userSpaceOnUse">
      <stop offset=".071" stop-color="#fcc397"/>
      <stop offset=".372" stop-color="#fcc397"/>
      <stop offset="1" stop-color="#fab085"/>
    </radialGradient>
    <radialGradient id="radial-gradient-5" cx="358.639" cy="108.851" fx="408.967" fy="-28.039" r="145.848" gradientUnits="userSpaceOnUse">
      <stop offset="0" stop-color="#fff" stop-opacity=".9"/>
      <stop offset=".72" stop-color="#fff" stop-opacity="0"/>
    </radialGradient>
    <linearGradient id="linear-gradient-5" x1="222.333" y1="128.961" x2="132.724" y2="287.344" gradientUnits="userSpaceOnUse">
      <stop offset="0" stop-color="#725341"/>
      <stop offset=".523" stop-color="#583b29"/>
      <stop offset="1" stop-color="#462a19"/>
    </linearGradient>
    <linearGradient id="linear-gradient-6" x1="336.343" y1="132.404" x2="315.115" y2="203.053" xlink:href="#linear-gradient-5"/>
    <linearGradient id="linear-gradient-7" x1="517.265" y1="381.385" x2="497.439" y2="437.212" gradientTransform="translate(-104.283 -207.23) rotate(-5.714)" xlink:href="#linear-gradient-5"/>
    <linearGradient id="linear-gradient-8" x1="487.642" y1="173.789" x2="513.702" y2="173.789" xlink:href="#linear-gradient-5"/>
    <radialGradient id="radial-gradient-6" cx="84.254" cy="1416.087" fx="97.584" fy="1380.933" r="37.596" gradientTransform="translate(-896.915 -1987.814) rotate(-27.07) scale(1.08 1.724) skewX(-4.527)" xlink:href="#radial-gradient-3"/>
    <linearGradient id="linear-gradient-9" x1="470.64" y1="398.913" x2="340.205" y2="365.522" gradientTransform="translate(-60.643 -53.637) rotate(-2.297)" gradientUnits="userSpaceOnUse">
      <stop offset="0" stop-color="#fff"/>
      <stop offset="1" stop-color="#d1d3d4"/>
    </linearGradient>
    <linearGradient id="linear-gradient-10" x1="389.682" y1="238.474" x2="370.027" y2="321.025" xlink:href="#linear-gradient-5"/>
    <linearGradient id="linear-gradient-11" x1="451.552" y1="723.904" x2="445.752" y2="659.136" gradientTransform="translate(-176.04 -454.917) rotate(-9.242) scale(1 1.116)" gradientUnits="userSpaceOnUse">
      <stop offset="0" stop-color="#dead87"/>
      <stop offset="1" stop-color="#fab085"/>
    </linearGradient>
  </defs>
  <g id="Bitmojis">
    <g id="Wealth_Headshot">
      <g>
        <rect class="cls-4" x="219.995" y="332.185" width="228.522" height="100.174"/>
        <path class="cls-7" d="M202.628,353.55s-66.055,41.287-110.477,58.254c-31.732,12.121-61.749,28.656-74.981,48.971-9.812,15.065-13.423,44.27-13.967,76.417-1.022,60.367-3.203,108.167-3.203,108.167h259.337l-56.709-291.809Z"/>
        <path class="cls-19" d="M469.79,645.359c-3.781-94.932-11.446-235.443-24.126-252.633-10.649-14.437-18.847-8.227-24.068.285-8.227,13.412-21.569,22.821-36.967,24.931-17.089,2.342-40.868,1.583-70.02-9.461-62.608-23.719-97.235-10.976-97.235-10.976l120.283,247.855h132.133Z"/>
        <polygon class="cls-20" points="446.006 481.31 414.377 429.092 391.334 443.318 446.006 481.31"/>
        <polygon class="cls-20" points="313.136 497.753 359.348 457.859 341.478 437.511 313.136 497.753"/>
        <path class="cls-3" d="M348.876,452.885l19.291,26.544c3.078,4.236,8.105,6.608,13.332,6.291l16.395-.995c5.879-.357,11.034-4.05,13.264-9.501l9.343-22.85c1.802-4.406,1.455-9.4-.94-13.515l-9.694-16.659c-3.057-5.254-4.443-10.841-10.606-8.645l-34.715,4.54c-5.279.595-9.874,3.88-12.145,8.682l-4.984,10.54c-2.395,5.066-1.836,11.035,1.458,15.568Z"/>
        <path class="cls-1" d="M373.764,422.133c-19.567,0-35.455-8.432-36.488-8.993l2.861-5.273-1.431,2.637,1.429-2.638c.366.198,36.979,19.545,65.56-2.195l3.633,4.775c-11.634,8.85-24.219,11.688-35.563,11.688Z"/>
        <path class="cls-12" d="M438.082,364.272s96.931,40.359,124.648,53.741,59.323,22.86,65.645,100.919c6.283,77.582,6.321,126.427,6.321,126.427h-159.979l-36.635-281.087Z"/>
        <path class="cls-3" d="M528.269,645.359l28.916-74.804-52.695-32.348,37.435-15.391c-30.522-98.609-114.652-151.79-114.652-151.79,21.824,71.97,30.381,181.57,33.444,274.334h67.553Z"/>
        <polygon class="cls-3" points="452.963 645.359 437.739 536.576 403.695 475.272 379.044 478.794 365.739 541.272 380.641 645.359 452.963 645.359"/>
        <path class="cls-3" d="M190.924,521.37l-16.696,57.913s29.39,28.141,69.498,66.076h106.913c-62.66-122.775-118.305-233.88-128.024-261.206-14.613-41.087,17.613-31.435,10.961-49.031-5.087-3.51-104.348,11.857-91.771,181.944l49.119,4.304Z"/>
        <path class="cls-9" d="M363.88,415.892c-34.957-7.826-88.565-42.913-111-61.174-22.435-18.261-19.304-50.609-19.304-50.609,0,0-27.522,28.826-10.826,82.304,10.084,32.302,62.346,92.527,79.996,112.256,2.9,3.242,8.098,2.781,10.39-.916l50.745-81.862Z"/>
        <path class="cls-5" d="M401.595,409.893l42.47,69.259c2.686,4.311,7.276,7.285,5.87-9.065-4.272-49.663-23.634-103.304-23.634-103.304h-5.421s5.801,19.209-19.124,42.183c-.257.237-.327.619-.162.928Z"/>
      </g>
      <g>
        <ellipse class="cls-8" cx="492.757" cy="208.843" rx="42.977" ry="29.935" transform="translate(180.547 643.527) rotate(-77.281)"/>
        <path class="cls-13" d="M502.491,198.657c0,109.715-24.35,232.284-153.072,200.351-113.893-28.254-167.957-90.636-167.957-200.351S253.327,0,341.976,0s160.514,88.942,160.514,198.657Z"/>
        <path class="cls-6" d="M502.491,198.657c0,109.715-24.35,232.284-153.072,200.351-113.893-28.254-167.957-90.636-167.957-200.351S253.327,0,341.976,0s160.514,88.942,160.514,198.657Z"/>
        <circle class="cls-3" cx="338.448" cy="188.159" r="13.844"/>
        <circle class="cls-3" cx="430.061" cy="188.159" r="13.844"/>
        <path class="cls-10" d="M225.653,110.084c-12.537-9.382-18.529-11.058-30.978-8.141-6.497,1.522-11.241,7.595-14.295,15.27-13.01,32.686-11.921,63.048-8.64,103.751.703,8.726,4.581,16.24,10.924,17.228l2.261.352c17.599,2.74,34.454-10.611,41.481-32.932,11.34-36.017,13.127-85.141-.753-95.528Z"/>
        <path class="cls-17" d="M305.413,158.642c16.912-5.489,34.565-6.213,51.815-1.816,11.098,2.829,15.832-14.322,4.729-17.153-20.191-5.147-41.433-4.623-61.273,1.816-10.843,3.519-6.204,20.701,4.729,17.153h0Z"/>
        <path class="cls-14" d="M416.554,158.757c16.829-5.786,34.512-6.414,51.799-2.325,11.164,2.641,14.089-14.915,2.998-17.538-20.315-4.805-41.499-3.51-61.209,3.267-10.821,3.72-4.421,20.322,6.413,16.597h0Z"/>
        <path class="cls-11" d="M491.839,181.304c1.799,14.585,3.63,33.045,5.837,36.01,4.535,6.091,11.968,4.191,12.571-3.835.35-4.663.639-9.318.873-13.954,1.131-22.42-1.926-47.349-7.681-67.789-2.457-8.726-18.501-5.251-18.14,3.375.793,18.937,4.007,25.669,6.539,46.193Z"/>
        <path class="cls-18" d="M208.827,177.335c6.363,27.876,10.503,69.948-6.801,73.898s-36.489-15.447-42.852-43.323c-6.363-27.876-1.825-55.068,15.479-59.018,17.304-3.95,27.811.567,34.174,28.443Z"/>
        <path class="cls-15" d="M342.559,296.715c11.135,8.921,24.165,15.541,38.3,17.607,16.4,2.345,32.906-2.533,46.564-12.339,3.978-2.897,9.578-1.976,12.411,2.05,2.531,3.589,2.008,8.414-1.032,11.39-7.046,6.912-15.298,13.002-24.664,17.485-12.256,5.984-26.585,8.702-40.402,8.204-17.739-.793-35.113-6.526-50.448-15.18-8.647-4.639-11.831-15.507-7.025-24.069,5.154-9.416,17.977-11.9,26.296-5.147h0Z"/>
        <path class="cls-2" d="M377.665,241.465c-40.252,0-71.344,16.903-73.982,48.388-.171,2.037,2.065,3.551,4.199,2.809l16.579-5.767c1.49-.518,3.178.065,3.887,1.344l8.126,14.645c.947,1.707,3.507,2.061,4.989.689l13.357-12.364c1.22-1.129,3.25-1.123,4.461.015l16.145,15.168c1.217,1.143,3.26,1.143,4.477,0l16.145-15.168c1.211-1.137,3.241-1.144,4.461-.015l13.357,12.364c1.482,1.372,4.041,1.019,4.989-.689l8.126-14.645c.71-1.279,2.397-1.862,3.887-1.344l16.58,5.767c2.134.742,4.37-.772,4.199-2.809-2.638-31.485-33.73-48.388-73.982-48.388Z"/>
        <path class="cls-16" d="M358.982,242.779c5.584,4.86,35.011,27.779,55.851,19.291,12.757-4.89,15.553-16.57,7.672-27.483-5.097-7.649-11.794-14.268-17.154-21.773-6.552-8.79-11.984-19.476-17.176-30.456,0,0-28.044,33.846-29.194,60.42Z"/>
      </g>
    </g>
  </g>
</svg>