<?xml version="1.0" encoding="UTF-8"?>
<svg id="Layer_2" data-name="Layer 2" xmlns="http://www.w3.org/2000/svg" xmlns:xlink="http://www.w3.org/1999/xlink" viewBox="0 0 367.972 399.008">
  <defs>
    <style>
      .cls-1 {
        fill: url(#linear-gradient-2);
      }

      .cls-2 {
        fill: url(#linear-gradient-4);
      }

      .cls-3 {
        fill: url(#radial-gradient-5);
      }

      .cls-4 {
        fill: url(#radial-gradient);
      }

      .cls-5 {
        fill: url(#radial-gradient-3);
      }

      .cls-6 {
        fill: url(#linear-gradient-3);
      }

      .cls-7 {
        fill: url(#linear-gradient-5);
      }

      .cls-8 {
        fill: url(#radial-gradient-2);
      }

      .cls-9 {
        fill: url(#radial-gradient-4);
      }

      .cls-10 {
        fill: url(#linear-gradient-7);
      }

      .cls-11 {
        fill: url(#linear-gradient-6);
      }

      .cls-12 {
        fill: url(#radial-gradient-6);
      }

      .cls-13 {
        fill: url(#linear-gradient);
      }
    </style>
    <radialGradient id="radial-gradient" cx="348.243" cy="149.708" fx="348.243" fy="149.708" r="116.38" gradientTransform="translate(464.763 -163.67) rotate(77.281)" gradientUnits="userSpaceOnUse">
      <stop offset="0" stop-color="#dead87"/>
      <stop offset="1" stop-color="#fab085"/>
    </radialGradient>
    <radialGradient id="radial-gradient-2" cx="-2207.311" cy="146.48" fx="-2207.311" fy="146.48" r="124.643" gradientTransform="translate(-2059.038 -477.497) rotate(-167.281) scale(1 -1)" gradientUnits="userSpaceOnUse">
      <stop offset="0" stop-color="#dead87"/>
      <stop offset="1" stop-color="#fab085"/>
    </radialGradient>
    <radialGradient id="radial-gradient-3" cx="187.341" cy="143.696" fx="262.442" fy="-30.009" r="266.133" gradientUnits="userSpaceOnUse">
      <stop offset=".071" stop-color="#fcc397"/>
      <stop offset=".372" stop-color="#fcc397"/>
      <stop offset="1" stop-color="#fab085"/>
    </radialGradient>
    <radialGradient id="radial-gradient-4" cx="200.629" cy="107.463" fx="250.439" fy="-28.018" r="144.347" gradientUnits="userSpaceOnUse">
      <stop offset="0" stop-color="#fff" stop-opacity=".9"/>
      <stop offset=".72" stop-color="#fff" stop-opacity="0"/>
    </radialGradient>
    <linearGradient id="linear-gradient" x1="133.885" y1="122.404" x2="112.657" y2="193.053" gradientUnits="userSpaceOnUse">
      <stop offset="0" stop-color="#725341"/>
      <stop offset=".523" stop-color="#583b29"/>
      <stop offset="1" stop-color="#462a19"/>
    </linearGradient>
    <linearGradient id="linear-gradient-2" x1="228.679" y1="320.346" x2="105.543" y2="288.823" gradientUnits="userSpaceOnUse">
      <stop offset="0" stop-color="#fff"/>
      <stop offset="1" stop-color="#d1d3d4"/>
    </linearGradient>
    <linearGradient id="linear-gradient-3" x1="-2322.388" y1="122.404" x2="-2343.617" y2="193.053" gradientTransform="translate(-2088.341) rotate(-180) scale(1 -1)" xlink:href="#linear-gradient"/>
    <linearGradient id="linear-gradient-4" x1="195.984" y1="238.474" x2="176.329" y2="321.025" xlink:href="#linear-gradient"/>
    <linearGradient id="linear-gradient-5" x1="179.532" y1="265.358" x2="200.751" y2="179.16" gradientUnits="userSpaceOnUse">
      <stop offset="0" stop-color="#dead87"/>
      <stop offset="1" stop-color="#fab085"/>
    </linearGradient>
    <linearGradient id="linear-gradient-6" x1="-1761.694" y1="110.956" x2="-1729.271" y2="110.956" gradientTransform="translate(-2658.932 38.832) rotate(179.487) scale(1.544 -1.271) skewX(.935)" xlink:href="#linear-gradient"/>
    <linearGradient id="linear-gradient-7" x1="43.106" y1="91.312" x2="75.529" y2="91.312" gradientTransform="translate(240.03 38.832) rotate(.513) scale(1.544 1.271) skewX(.935)" xlink:href="#linear-gradient"/>
    <radialGradient id="radial-gradient-5" cx="105.481" cy="132.801" fx="105.481" fy="132.801" r="107.687" gradientTransform="translate(25.046 30.424) rotate(-6.606)" gradientUnits="userSpaceOnUse">
      <stop offset="0" stop-color="#009444"/>
      <stop offset="1" stop-color="#006838"/>
    </radialGradient>
    <radialGradient id="radial-gradient-6" cx="211.009" cy="145.021" fx="211.009" fy="145.021" r="107.687" xlink:href="#radial-gradient-5"/>
  </defs>
  <g id="Bitmojis">
    <g id="Wealth_Front_Love">
      <ellipse class="cls-4" cx="334.746" cy="208.843" rx="46.508" ry="32.394" transform="translate(57.326 489.394) rotate(-77.281)"/>
      <ellipse class="cls-8" cx="33.226" cy="208.843" rx="32.394" ry="46.508" transform="translate(-45.166 12.44) rotate(-12.719)"/>
      <path class="cls-5" d="M344.481,198.657c0,109.715-75.586,200.35-160.514,200.35S23.452,308.373,23.452,198.657,95.316,0,183.966,0s160.514,88.942,160.514,198.657Z"/>
      <path class="cls-9" d="M344.481,198.657c0,109.715-75.586,200.35-160.514,200.35S23.452,308.373,23.452,198.657,95.316,0,183.966,0s160.514,88.942,160.514,198.657Z"/>
      <path class="cls-13" d="M102.955,148.642c16.912-5.489,34.565-6.213,51.815-1.816,11.098,2.829,15.832-14.322,4.729-17.153-20.191-5.147-41.433-4.623-61.273,1.816-10.843,3.519-6.204,20.701,4.729,17.153h0Z"/>
      <path class="cls-1" d="M183.966,333.441c8.914,0,23.798-1.553,33.266-6.176,9.367-4.483,17.619-10.573,24.664-17.485,3.039-2.976,3.563-7.801,1.032-11.39-2.833-4.026-8.433-4.947-12.411-2.05-13.656,9.804-29.547,14.338-46.558,14.338s-32.901-4.534-46.558-14.338c-3.978-2.897-9.578-1.976-12.411,2.05-2.531,3.589-2.008,8.414,1.032,11.39,7.046,6.912,15.298,13.001,24.664,17.485,9.468,4.624,24.353,6.176,33.266,6.176"/>
      <path class="cls-6" d="M264.977,148.642c-16.912-5.489-34.565-6.213-51.815-1.816-11.098,2.829-15.832-14.322-4.729-17.153,20.191-5.147,41.433-4.623,61.273,1.816,10.843,3.519,6.204,20.701-4.729,17.153h0Z"/>
      <path class="cls-2" d="M183.966,241.465c-40.252,0-71.344,16.903-73.982,48.388-.171,2.037,2.065,3.551,4.199,2.809l16.579-5.767c1.49-.518,3.178.065,3.887,1.344l8.126,14.645c.947,1.707,3.507,2.061,4.989.689l13.357-12.364c1.22-1.129,3.25-1.123,4.461.015l16.145,15.168c1.217,1.143,3.26,1.143,4.477,0l16.145-15.168c1.211-1.137,3.241-1.144,4.461-.015l13.357,12.364c1.482,1.372,4.041,1.019,4.989-.689l8.126-14.645c.71-1.279,2.397-1.862,3.887-1.344l16.58,5.767c2.134.742,4.37-.772,4.199-2.809-2.638-31.485-33.73-48.388-73.982-48.388Z"/>
      <path class="cls-7" d="M209.632,258.296c-10.113,2.22-14.897,7.21-25.669,7.21s-15.556-4.99-25.669-7.21c-14.86-3.25-16.176-16.33-1.342-23.7,9.835-4.9,8.354-7.53,9.657-20.48.987-9.88,1.671-14.75,2.848-26.59.418-4.2,3.139-8.14,7.645-10.4,1.936-.97,4.24-1.65,6.86-1.65s4.924.68,6.873,1.65c4.493,2.26,7.215,6.2,7.632,10.4,1.177,11.84,1.873,16.71,2.861,26.59,1.291,12.95-.19,15.58,9.657,20.48,14.821,7.37,13.518,20.45-1.354,23.7Z"/>
      <path class="cls-11" d="M54.036,168.942c-2.98,18.56-2.453,37.286-9.512,45.843-7.059,8.557-25.335,6.004-28.335-9.192-1.862-9.431-2.368-23.587-1.618-35.022,1.142-17.425,4.195-36.963,12.957-63.106,7.853-23.433,41.243-19.422,37.245,2.684-4.577,25.309-6.543,32.676-10.736,58.793Z"/>
      <path class="cls-10" d="M313.886,168.942c2.98,18.56,2.453,37.286,9.512,45.843,7.059,8.557,25.335,6.004,28.335-9.192,1.862-9.431,2.368-23.587,1.618-35.022-1.142-17.425-4.195-36.963-12.957-63.106-7.853-23.433-41.243-19.422-37.245,2.684,4.577,25.309,6.543,32.676,10.736,58.793Z"/>
      <path class="cls-3" d="M143.616,181.109c-2.329-1.177-4.747-2.186-7.182-3.163.245-6.633.385-13.269.467-19.905.219.083.44.162.655.252,1.944.81,5.513,2.654,5.999,3.817,5.706,13.656,27.103,5.09,21.365-8.64-4.433-10.609-16.221-17.35-28.05-19.259-.075-4.505-.181-9.009-.329-13.512-.051-1.551-.244-2.869-1.292-4.102-.861-1.013-2.348-1.862-3.7-1.928-2.681-.131-6.131,1.898-6.03,4.992.155,4.741.264,9.483.339,14.226-.819.092-1.628.205-2.42.353-16.48,3.079-28.401,17.271-27.579,34.219.805,16.597,15.143,23.551,28.499,29.285-.492,7.81-1.112,15.611-1.835,23.404-4.27-2.076-8.297-4.773-12.186-7.338-5.191-3.422-12.083-3.301-16.184,1.874-3.607,4.552-3.344,12.743,1.874,16.184,7.448,4.911,15.427,9.974,23.944,13.017-.443,3.58-.902,7.157-1.394,10.73-.395,2.869,2.096,5.888,4.992,6.03,3.104.152,5.607-1.92,6.03-4.992.421-3.061.802-6.127,1.187-9.192,3.158.354,6.383.351,9.676-.116,14.556-2.065,28.354-12.522,29.424-28.059,1.208-17.554-11.646-30.789-26.271-38.177ZM123.416,172.213c-1.772-.99-3.635-2.552-4.035-3.284-.057-.104-.315-.807-.496-1.3.169.333-.114-1.186-.114-1.187.005.256-.083,1.327-.005-.093.055-1.015.236-2.222.553-3.175.251-.753,1.912-3.196,2.803-3.964,1.194-1.028,2.398-1.635,3.763-2.003-.067,5.322-.169,10.644-.342,15.965-.002.05-.004.101-.006.151-.715-.356-1.425-.72-2.122-1.109ZM145.185,221.129c-.887.96-3.272,2.353-5.916,3.097-.906.255-4.135.485-5.947.32.65-6.775,1.239-13.555,1.714-20.344.037-.537.063-1.075.099-1.612,3.83,2.023,7.368,4.541,9.729,8.185,2.734,4.221,2.832,7.638.322,10.354Z"/>
      <path class="cls-12" d="M249.849,181.109c-2.329-1.177-4.747-2.186-7.182-3.163.245-6.633.385-13.269.467-19.905.219.083.44.162.655.252,1.944.81,5.513,2.654,5.999,3.817,5.706,13.656,27.103,5.09,21.365-8.64-4.433-10.609-16.221-17.35-28.05-19.259-.075-4.505-.181-9.009-.329-13.512-.051-1.551-.244-2.869-1.292-4.102-.861-1.013-2.348-1.862-3.7-1.928-2.681-.131-6.131,1.898-6.03,4.992.155,4.741.264,9.483.339,14.226-.819.092-1.628.205-2.42.353-16.48,3.079-28.401,17.271-27.579,34.219.805,16.597,15.143,23.551,28.499,29.285-.492,7.81-1.112,15.611-1.835,23.404-4.27-2.076-8.297-4.773-12.186-7.338-5.191-3.422-12.083-3.301-16.184,1.874-3.607,4.552-3.344,12.743,1.874,16.184,7.448,4.911,15.427,9.974,23.944,13.017-.443,3.58-.902,7.157-1.394,10.73-.395,2.869,2.096,5.888,4.992,6.03,3.104.152,5.607-1.92,6.03-4.992.421-3.061.802-6.127,1.187-9.192,3.158.354,6.383.351,9.676-.116,14.556-2.065,28.354-12.522,29.424-28.059,1.208-17.554-11.646-30.789-26.271-38.177ZM229.649,172.213c-1.772-.99-3.635-2.552-4.035-3.284-.057-.104-.315-.807-.496-1.3.169.333-.114-1.186-.114-1.187.005.256-.083,1.327-.005-.093.055-1.015.236-2.222.553-3.175.251-.753,1.912-3.196,2.803-3.964,1.194-1.028,2.398-1.635,3.763-2.003-.067,5.322-.169,10.644-.342,15.965-.002.05-.004.101-.006.151-.715-.356-1.425-.72-2.122-1.109ZM251.418,221.129c-.887.96-3.272,2.353-5.916,3.097-.906.255-4.135.485-5.947.32.65-6.775,1.239-13.555,1.714-20.344.037-.537.063-1.075.099-1.612,3.83,2.023,7.368,4.541,9.729,8.185,2.734,4.221,2.832,7.638.322,10.354Z"/>
    </g>
  </g>
</svg>