<svg width="293" height="43" viewBox="0 0 293 43" fill="none" xmlns="http://www.w3.org/2000/svg">
<path d="M36.2449 16.7162L42.8455 13.6457C43.9616 13.1863 45.2211 12.6358 45.6839 11.4994C45.8508 11.0903 46.1721 10.4021 46.2701 9.92975C46.6312 8.17594 46.9942 1.86929 47.711 0.325636C48.613 -1.61416 48.6584 7.12142 48.8108 9.50013C48.9506 11.6836 49.4006 11.7077 51.4278 11.3376C53.455 10.9675 59.6527 9.30857 59.8305 9.92975C60.0084 10.5509 57.758 11.2223 51.6746 14.1311C51.6746 14.1311 50.0975 14.7318 49.7818 18.4254C49.7818 18.4254 49.2899 30.5942 49.0976 30.3357C48.4007 29.4002 48.2047 29.0915 48.2047 26.9211C48.2047 23.2275 48.7001 22.8574 47.8217 22.3031C46.9434 21.7489 45.8617 22.0725 45.7728 20.1327C45.6839 18.1929 46.8145 14.185 43.9035 15.1224C35.7259 17.754 35.2994 17.3393 36.2449 16.7162Z" fill="#F0F0F0"/>
<path d="M72.3662 10.3292H77.7904L78.4526 11.2872V12.5834L76.7197 14.415H77.2832L78.5935 16.3451V19.5011L77.4664 20.1914H72.3662V10.3292ZM73.4933 11.3436V14.415H75.2967L77.3255 12.3157V11.3436H73.4933ZM73.4933 15.4435V19.177H77.4664V16.4579L76.7479 15.4435H73.4933ZM81.8003 10.3292H86.9004V11.3436H82.2229L81.7862 11.8085V14.415H85.0548V15.4435H81.7862V18.3599L82.3356 19.177H86.9004V20.1914H81.7862L80.6591 18.5007V11.4986L81.8003 10.3292ZM89.1069 10.3292H90.234V15.0771L91.347 14.415H93.08L94.2212 15.0771V10.3292H95.3624V20.1914H94.2212V16.2183L93.6858 15.4435H90.6567L90.234 15.8661V20.1914H89.1069V10.3292ZM97.5688 10.3292H103.796V11.3577H101.246V19.1629H103.796V20.1914H97.5688V19.1629H100.119V11.3577H97.5688V10.3292ZM111.117 10.3292H112.258V20.1914H111.117V16.4297L107.693 11.3436H107.144V20.1914H106.017V10.3292H108.229L111.117 14.5981V10.3292ZM114.605 10.3292H118.945L120.847 13.1611V19.022L119.72 20.1914H114.605V10.3292ZM115.732 11.3436V19.177H119.255L119.706 18.7121V13.3019L118.395 11.3436H115.732ZM128.435 16.4719H123.617V15.4575H128.435V16.4719ZM130.797 10.3292H138.151V11.3436H133.952L135.051 12.0199V20.1914H133.91V12.1607L133.375 11.3436H130.797V10.3292ZM139.794 10.3292H140.921V15.0771L142.034 14.415H143.767L144.908 15.0771V10.3292H146.049V20.1914H144.908V16.2183L144.373 15.4435H141.344L140.921 15.8661V20.1914H139.794V10.3292ZM149.383 10.3292H154.483V11.3436H149.806L149.369 11.8085V14.415H152.637V15.4435H149.369V18.3599L149.918 19.177H154.483V20.1914H149.369L148.242 18.5007V11.4986L149.383 10.3292ZM162.226 16.4719H157.408V15.4575H162.226V16.4719ZM166.673 10.3292H171.534V11.3436H167.096L166.419 12.048V14.415H169.688V15.4435H166.419V20.1914H165.292V11.7381L166.673 10.3292ZM175.896 10.3292H179.812V20.1914H178.685V15.683H174.74V20.1914H173.613V12.682L175.896 10.3292ZM174.74 12.9497V14.6686H178.685V11.3436H176.304L174.74 12.9497ZM183.174 10.3292H187.147L187.894 11.4845L187.175 12.1889L186.598 11.3436H183.597L183.174 11.7944V13.6119L183.738 14.4291H187.274L188.274 15.9225V19.1629L187.288 20.1914H182.667L182.047 19.3179L182.752 18.5712L183.188 19.177H186.809L187.147 18.8811V16.0493L186.725 15.4435H183.174L182.047 13.7669V11.4986L183.174 10.3292ZM190.481 10.3292H191.608V15.0771L192.721 14.415H194.454L195.595 15.0771V10.3292H196.736V20.1914H195.595V16.2183L195.06 15.4435H192.031L191.608 15.8661V20.1914H190.481V10.3292ZM198.943 10.3292H205.17V11.3577H202.62V19.1629H205.17V20.1914H198.943V19.1629H201.493V11.3577H198.943V10.3292ZM208.518 10.3292H212.519L213.632 12.0199V19.022L212.519 20.1914H208.518L207.377 18.5007V11.4986L208.518 10.3292ZM208.504 18.3599L209.053 19.177H212.068L212.491 18.7121V12.1607L211.955 11.3436H208.94L208.504 11.8085V18.3599ZM220.939 10.3292H222.08V20.1914H220.939V16.4297L217.515 11.3436H216.966V20.1914H215.838V10.3292H218.05L220.939 14.5981V10.3292ZM226.414 20.1914V18.219H228.386V20.1914H226.414ZM234.101 10.3292H238.06L238.99 11.7381L238.271 12.4989L237.524 11.3436H234.523L234.087 11.8085V18.3599L234.636 19.177H237.609L238.454 18.3317L239.018 19.177L238.06 20.1914H234.087L232.96 18.5007V11.4986L234.101 10.3292ZM242.309 10.3292H246.31L247.423 12.0199V19.022L246.31 20.1914H242.309L241.168 18.5007V11.4986L242.309 10.3292ZM242.295 18.3599L242.844 19.177H245.859L246.282 18.7121V12.1607L245.747 11.3436H242.732L242.295 11.8085V18.3599ZM249.63 10.3292H250.757V10.7237L252.236 12.9075L254.73 10.3292H255.871V20.1914H254.73V11.8085L253.335 13.2738V14.5559H252.109V14.5277L250.757 12.5271V20.1914H249.63V10.3292Z" fill="#E0E0E0"/>
<path d="M74.4201 39.2227V31.826H77.0195C77.5408 31.826 77.9705 31.9105 78.3087 32.0796C78.6538 32.2416 78.911 32.467 79.08 32.7559C79.2491 33.0376 79.3336 33.3546 79.3336 33.7069C79.3336 34.0873 79.2491 34.4043 79.08 34.6579C78.918 34.9115 78.7031 35.1052 78.4355 35.239C78.1748 35.3729 77.8966 35.4539 77.6007 35.4821L77.7486 35.3764C78.0656 35.3834 78.358 35.468 78.6257 35.63C78.8933 35.792 79.1047 36.0104 79.2597 36.2851C79.4217 36.5599 79.5027 36.8663 79.5027 37.2044C79.5027 37.5778 79.4111 37.9194 79.228 38.2294C79.0448 38.5323 78.7736 38.7753 78.4143 38.9585C78.0621 39.1346 77.6253 39.2227 77.1041 39.2227H74.4201ZM75.3077 38.483H77.009C77.5091 38.483 77.8966 38.3668 78.1713 38.1343C78.4531 37.8948 78.594 37.5637 78.594 37.141C78.594 36.7254 78.4495 36.3943 78.1607 36.1478C77.8789 35.8942 77.488 35.7674 76.9878 35.7674H75.3077V38.483ZM75.3077 35.0594H76.9561C77.4351 35.0594 77.7979 34.9467 78.0445 34.7213C78.2981 34.4958 78.4249 34.1894 78.4249 33.802C78.4249 33.4286 78.2981 33.1292 78.0445 32.9038C77.7979 32.6784 77.4246 32.5657 76.9244 32.5657H75.3077V35.0594ZM82.741 39.3495C82.3325 39.3495 81.9732 39.272 81.6632 39.117C81.3603 38.955 81.1243 38.7119 80.9553 38.3879C80.7933 38.0638 80.7122 37.6553 80.7122 37.1622V33.7386H81.5998V37.0671C81.5998 37.5743 81.7196 37.9547 81.9591 38.2083C82.1986 38.4619 82.5262 38.5887 82.9418 38.5887C83.2236 38.5887 83.4772 38.5217 83.7026 38.3879C83.9351 38.254 84.1182 38.0568 84.2521 37.7962C84.393 37.5355 84.4634 37.2185 84.4634 36.8452V33.7386H85.351V39.2227H84.5479L84.4951 38.3245C84.3472 38.6485 84.1182 38.9021 83.8083 39.0853C83.4983 39.2614 83.1426 39.3495 82.741 39.3495ZM86.9378 39.2227V33.7386H87.8254V39.2227H86.9378ZM87.3816 32.6608C87.2055 32.6608 87.0576 32.6044 86.9378 32.4917C86.8251 32.3719 86.7688 32.224 86.7688 32.0479C86.7688 31.8718 86.8251 31.7309 86.9378 31.6252C87.0576 31.5125 87.2055 31.4562 87.3816 31.4562C87.5507 31.4562 87.6951 31.5125 87.8149 31.6252C87.9346 31.7309 87.9945 31.8718 87.9945 32.0479C87.9945 32.224 87.9346 32.3719 87.8149 32.4917C87.6951 32.6044 87.5507 32.6608 87.3816 32.6608ZM89.4021 39.2227V31.6147H90.2897V39.2227H89.4021ZM94.079 39.3495C93.5788 39.3495 93.1386 39.2262 92.7582 38.9796C92.3778 38.726 92.0819 38.3844 91.8706 37.9547C91.6592 37.5179 91.5536 37.0248 91.5536 36.4753C91.5536 35.9188 91.6592 35.4257 91.8706 34.996C92.0819 34.5663 92.3778 34.2281 92.7582 33.9816C93.1456 33.735 93.5894 33.6118 94.0896 33.6118C94.5263 33.6118 94.9032 33.6998 95.2202 33.8759C95.5442 34.052 95.7943 34.2986 95.9704 34.6156V31.6147H96.858V39.2227H96.055L95.981 38.3351C95.8753 38.5112 95.7344 38.6767 95.5583 38.8317C95.3893 38.9867 95.1815 39.1135 94.9349 39.2121C94.6883 39.3037 94.403 39.3495 94.079 39.3495ZM94.1952 38.5781C94.5475 38.5781 94.8539 38.4936 95.1145 38.3245C95.3822 38.1484 95.5865 37.9053 95.7274 37.5954C95.8683 37.2784 95.9387 36.9086 95.9387 36.4859C95.9387 36.0562 95.8683 35.6863 95.7274 35.3764C95.5865 35.0594 95.3822 34.8164 95.1145 34.6473C94.8539 34.4712 94.5475 34.3831 94.1952 34.3831C93.8571 34.3831 93.5577 34.4712 93.2971 34.6473C93.0364 34.8164 92.8321 35.0594 92.6842 35.3764C92.5363 35.6863 92.4623 36.0562 92.4623 36.4859C92.4623 36.9086 92.5363 37.2784 92.6842 37.5954C92.8321 37.9053 93.0364 38.1484 93.2971 38.3245C93.5577 38.4936 93.8571 38.5781 94.1952 38.5781ZM103.067 39.2227V36.4119L100.658 31.826H101.662L103.553 35.6511H103.469L105.36 31.826H106.353L103.955 36.4119V39.2227H103.067ZM108.785 39.3495C108.278 39.3495 107.827 39.2332 107.433 39.0008C107.038 38.7612 106.732 38.4266 106.513 37.9969C106.295 37.5672 106.186 37.0635 106.186 36.4859C106.186 35.9012 106.295 35.394 106.513 34.9643C106.739 34.5346 107.049 34.2035 107.443 33.971C107.845 33.7315 108.299 33.6118 108.806 33.6118C109.328 33.6118 109.782 33.7315 110.17 33.971C110.564 34.2035 110.87 34.5346 111.089 34.9643C111.314 35.394 111.427 35.9012 111.427 36.4859C111.427 37.0635 111.314 37.5672 111.089 37.9969C110.863 38.4266 110.553 38.7612 110.159 39.0008C109.764 39.2332 109.307 39.3495 108.785 39.3495ZM108.796 38.5887C109.113 38.5887 109.402 38.5112 109.662 38.3562C109.923 38.2012 110.131 37.9652 110.286 37.6482C110.441 37.3312 110.518 36.9403 110.518 36.4753C110.518 36.0104 110.441 35.6229 110.286 35.313C110.138 34.996 109.934 34.76 109.673 34.605C109.419 34.45 109.13 34.3726 108.806 34.3726C108.496 34.3726 108.211 34.45 107.951 34.605C107.69 34.76 107.482 34.996 107.327 35.313C107.172 35.6229 107.095 36.0139 107.095 36.4859C107.095 36.9438 107.169 37.3312 107.317 37.6482C107.472 37.9652 107.676 38.2012 107.929 38.3562C108.19 38.5112 108.479 38.5887 108.796 38.5887ZM114.678 39.3495C114.27 39.3495 113.911 39.272 113.601 39.117C113.298 38.955 113.062 38.7119 112.893 38.3879C112.731 38.0638 112.65 37.6553 112.65 37.1622V33.7386H113.537V37.0671C113.537 37.5743 113.657 37.9547 113.896 38.2083C114.136 38.4619 114.464 38.5887 114.879 38.5887C115.161 38.5887 115.415 38.5217 115.64 38.3879C115.872 38.254 116.056 38.0568 116.189 37.7962C116.33 37.5355 116.401 37.2185 116.401 36.8452V33.7386H117.288V39.2227H116.485L116.432 38.3245C116.285 38.6485 116.056 38.9021 115.746 39.0853C115.436 39.2614 115.08 39.3495 114.678 39.3495ZM118.791 39.2227V33.7386H119.594L119.657 34.753C119.777 34.5064 119.935 34.2986 120.133 34.1295C120.337 33.9605 120.58 33.8337 120.862 33.7491C121.143 33.6575 121.464 33.6118 121.823 33.6118V34.5416H121.348C121.129 34.5416 120.918 34.5698 120.714 34.6262C120.517 34.6825 120.337 34.7776 120.175 34.9115C120.02 35.0383 119.897 35.2144 119.805 35.4398C119.72 35.6582 119.678 35.9329 119.678 36.264V39.2227H118.791ZM128.907 39.3495C128.224 39.3495 127.621 39.191 127.1 38.874C126.579 38.5499 126.17 38.1026 125.874 37.532C125.585 36.9543 125.441 36.2851 125.441 35.5243C125.441 34.7706 125.585 34.1084 125.874 33.5378C126.17 32.9601 126.579 32.5093 127.1 32.1853C127.621 31.8612 128.224 31.6992 128.907 31.6992C129.611 31.6992 130.224 31.8612 130.745 32.1853C131.267 32.5093 131.668 32.9601 131.95 33.5378C132.239 34.1084 132.383 34.7706 132.383 35.5243C132.383 36.2851 132.239 36.9543 131.95 37.532C131.668 38.1026 131.267 38.5499 130.745 38.874C130.224 39.191 129.611 39.3495 128.907 39.3495ZM128.907 38.5675C129.428 38.5675 129.879 38.4478 130.259 38.2083C130.647 37.9617 130.946 37.613 131.158 37.1622C131.369 36.7043 131.475 36.1583 131.475 35.5243C131.475 34.8903 131.369 34.3479 131.158 33.8971C130.946 33.4392 130.647 33.0905 130.259 32.851C129.879 32.6114 129.428 32.4917 128.907 32.4917C128.4 32.4917 127.952 32.6114 127.565 32.851C127.184 33.0905 126.885 33.4392 126.667 33.8971C126.455 34.3479 126.35 34.8903 126.35 35.5243C126.35 36.1583 126.455 36.7043 126.667 37.1622C126.885 37.613 127.184 37.9617 127.565 38.2083C127.952 38.4478 128.4 38.5675 128.907 38.5675ZM134.77 39.2227L133.164 33.7386H134.052L135.267 38.1871H135.214L136.514 33.7386H137.517L138.828 38.1766H138.775L139.979 33.7386H140.878L139.271 39.2227H138.363L136.989 34.5733H137.052L135.679 39.2227H134.77ZM141.895 39.2227V33.7386H142.698L142.74 34.6262C142.902 34.3092 143.138 34.0626 143.448 33.8865C143.758 33.7033 144.114 33.6118 144.515 33.6118C144.924 33.6118 145.28 33.6928 145.583 33.8548C145.886 34.0098 146.122 34.2493 146.291 34.5733C146.46 34.8903 146.544 35.2989 146.544 35.7991V39.2227H145.657V35.8942C145.657 35.387 145.537 35.0066 145.297 34.753C145.058 34.4994 144.73 34.3726 144.315 34.3726C144.033 34.3726 143.776 34.4395 143.543 34.5733C143.311 34.7072 143.124 34.9044 142.983 35.1651C142.849 35.4257 142.782 35.7427 142.782 36.1161V39.2227H141.895ZM150.874 39.2227V31.826H155.375V32.5551H151.761V35.1545H154.836V35.873H151.761V39.2227H150.874ZM157.878 39.3495C157.449 39.3495 157.093 39.272 156.811 39.117C156.529 38.962 156.318 38.7542 156.177 38.4936C156.036 38.2329 155.966 37.9511 155.966 37.6482C155.966 37.289 156.057 36.9825 156.241 36.7289C156.431 36.4683 156.695 36.2746 157.033 36.1478C157.371 36.0139 157.769 35.947 158.227 35.947H159.611C159.611 35.5948 159.566 35.3024 159.474 35.07C159.389 34.8304 159.249 34.6543 159.051 34.5416C158.861 34.4219 158.615 34.362 158.312 34.362C157.988 34.362 157.709 34.443 157.477 34.605C157.244 34.767 157.1 35.0066 157.044 35.3236H156.135C156.177 34.9502 156.3 34.6402 156.505 34.3937C156.716 34.1401 156.98 33.9464 157.297 33.8125C157.614 33.6787 157.952 33.6118 158.312 33.6118C158.805 33.6118 159.213 33.7033 159.537 33.8865C159.868 34.0626 160.111 34.3127 160.266 34.6367C160.421 34.9537 160.499 35.3306 160.499 35.7674V39.2227H159.706L159.654 38.2717C159.583 38.4196 159.492 38.5605 159.379 38.6943C159.273 38.8211 159.146 38.9338 158.998 39.0325C158.851 39.1311 158.681 39.2086 158.491 39.2649C158.308 39.3213 158.104 39.3495 157.878 39.3495ZM158.005 38.5992C158.245 38.5992 158.463 38.5464 158.66 38.4407C158.858 38.3351 159.027 38.1942 159.168 38.0181C159.315 37.8349 159.425 37.6341 159.495 37.4158C159.573 37.1903 159.611 36.9543 159.611 36.7078V36.6338H158.301C157.963 36.6338 157.688 36.6761 157.477 36.7606C157.273 36.8381 157.125 36.9543 157.033 37.1093C156.941 37.2573 156.896 37.4228 156.896 37.606C156.896 37.8102 156.938 37.9864 157.022 38.1343C157.107 38.2822 157.234 38.3985 157.403 38.483C157.572 38.5605 157.773 38.5992 158.005 38.5992ZM163.952 39.3495C163.466 39.3495 163.058 39.2755 162.727 39.1276C162.403 38.9726 162.153 38.7612 161.976 38.4936C161.8 38.2259 161.695 37.9124 161.659 37.5531H162.568C162.596 37.7433 162.663 37.9159 162.769 38.0709C162.875 38.2259 163.026 38.3527 163.223 38.4513C163.421 38.5499 163.667 38.5992 163.963 38.5992C164.202 38.5992 164.403 38.564 164.565 38.4936C164.734 38.4161 164.861 38.3139 164.946 38.1871C165.037 38.0533 165.083 37.9018 165.083 37.7328C165.083 37.5073 165.03 37.3312 164.925 37.2044C164.826 37.0776 164.678 36.9825 164.481 36.9191C164.283 36.8487 164.044 36.7958 163.762 36.7606C163.473 36.7184 163.213 36.6585 162.98 36.581C162.748 36.5035 162.547 36.4049 162.378 36.2851C162.209 36.1583 162.079 36.0033 161.987 35.8202C161.895 35.637 161.85 35.4187 161.85 35.1651C161.85 34.8621 161.927 34.5945 162.082 34.362C162.244 34.1225 162.473 33.9393 162.769 33.8125C163.072 33.6787 163.424 33.6118 163.826 33.6118C164.41 33.6118 164.879 33.7491 165.231 34.0239C165.583 34.2986 165.791 34.6931 165.854 35.2073H164.977C164.942 34.9396 164.822 34.7318 164.618 34.5839C164.421 34.436 164.153 34.362 163.815 34.362C163.463 34.362 163.195 34.4289 163.012 34.5628C162.836 34.6966 162.748 34.8727 162.748 35.0911C162.748 35.2461 162.79 35.387 162.875 35.5138C162.959 35.6335 163.096 35.7357 163.287 35.8202C163.484 35.9047 163.741 35.9716 164.058 36.021C164.453 36.0703 164.794 36.1513 165.083 36.264C165.372 36.3697 165.594 36.5317 165.749 36.7501C165.911 36.9684 165.992 37.2713 165.992 37.6588C165.992 38.011 165.904 38.3139 165.728 38.5675C165.559 38.8211 165.323 39.0148 165.02 39.1487C164.717 39.2825 164.361 39.3495 163.952 39.3495ZM167.3 39.2227V31.6147H168.188V34.6367C168.364 34.3197 168.611 34.0696 168.928 33.8865C169.252 33.7033 169.597 33.6118 169.963 33.6118C170.386 33.6118 170.749 33.6928 171.051 33.8548C171.354 34.0168 171.583 34.2634 171.738 34.5945C171.9 34.9185 171.981 35.3306 171.981 35.8308V39.2227H171.104V35.9259C171.104 35.4116 170.985 35.0242 170.745 34.7635C170.513 34.5029 170.189 34.3726 169.773 34.3726C169.484 34.3726 169.216 34.443 168.97 34.5839C168.73 34.7248 168.54 34.9291 168.399 35.1968C168.258 35.4644 168.188 35.792 168.188 36.1795V39.2227H167.3ZM173.514 39.2227V33.7386H174.402V39.2227H173.514ZM173.958 32.6608C173.782 32.6608 173.634 32.6044 173.514 32.4917C173.402 32.3719 173.345 32.224 173.345 32.0479C173.345 31.8718 173.402 31.7309 173.514 31.6252C173.634 31.5125 173.782 31.4562 173.958 31.4562C174.127 31.4562 174.272 31.5125 174.391 31.6252C174.511 31.7309 174.571 31.8718 174.571 32.0479C174.571 32.224 174.511 32.3719 174.391 32.4917C174.272 32.6044 174.127 32.6608 173.958 32.6608ZM178.356 39.3495C177.849 39.3495 177.398 39.2332 177.004 39.0008C176.609 38.7612 176.303 38.4266 176.084 37.9969C175.866 37.5672 175.757 37.0635 175.757 36.4859C175.757 35.9012 175.866 35.394 176.084 34.9643C176.31 34.5346 176.62 34.2035 177.014 33.971C177.416 33.7315 177.87 33.6118 178.377 33.6118C178.899 33.6118 179.353 33.7315 179.74 33.971C180.135 34.2035 180.441 34.5346 180.66 34.9643C180.885 35.394 180.998 35.9012 180.998 36.4859C180.998 37.0635 180.885 37.5672 180.66 37.9969C180.434 38.4266 180.124 38.7612 179.73 39.0008C179.335 39.2332 178.877 39.3495 178.356 39.3495ZM178.367 38.5887C178.684 38.5887 178.972 38.5112 179.233 38.3562C179.494 38.2012 179.702 37.9652 179.857 37.6482C180.012 37.3312 180.089 36.9403 180.089 36.4753C180.089 36.0104 180.012 35.6229 179.857 35.313C179.709 34.996 179.504 34.76 179.244 34.605C178.99 34.45 178.701 34.3726 178.377 34.3726C178.067 34.3726 177.782 34.45 177.521 34.605C177.261 34.76 177.053 34.996 176.898 35.313C176.743 35.6229 176.665 36.0139 176.665 36.4859C176.665 36.9438 176.739 37.3312 176.887 37.6482C177.042 37.9652 177.247 38.2012 177.5 38.3562C177.761 38.5112 178.05 38.5887 178.367 38.5887ZM182.273 39.2227V33.7386H183.076L183.119 34.6262C183.281 34.3092 183.517 34.0626 183.826 33.8865C184.136 33.7033 184.492 33.6118 184.894 33.6118C185.302 33.6118 185.658 33.6928 185.961 33.8548C186.264 34.0098 186.5 34.2493 186.669 34.5733C186.838 34.8903 186.923 35.2989 186.923 35.7991V39.2227H186.035V35.8942C186.035 35.387 185.915 35.0066 185.676 34.753C185.436 34.4994 185.109 34.3726 184.693 34.3726C184.411 34.3726 184.154 34.4395 183.922 34.5733C183.689 34.7072 183.502 34.9044 183.362 35.1651C183.228 35.4257 183.161 35.7427 183.161 36.1161V39.2227H182.273ZM191.252 39.2227V31.826H193.851C194.373 31.826 194.802 31.9105 195.14 32.0796C195.486 32.2416 195.743 32.467 195.912 32.7559C196.081 33.0376 196.165 33.3546 196.165 33.7069C196.165 34.0873 196.081 34.4043 195.912 34.6579C195.75 34.9115 195.535 35.1052 195.267 35.239C195.007 35.3729 194.728 35.4539 194.433 35.4821L194.58 35.3764C194.897 35.3834 195.19 35.468 195.457 35.63C195.725 35.792 195.937 36.0104 196.091 36.2851C196.254 36.5599 196.335 36.8663 196.335 37.2044C196.335 37.5778 196.243 37.9194 196.06 38.2294C195.877 38.5323 195.605 38.7753 195.246 38.9585C194.894 39.1346 194.457 39.2227 193.936 39.2227H191.252ZM192.14 38.483H193.841C194.341 38.483 194.728 38.3668 195.003 38.1343C195.285 37.8948 195.426 37.5637 195.426 37.141C195.426 36.7254 195.281 36.3943 194.993 36.1478C194.711 35.8942 194.32 35.7674 193.82 35.7674H192.14V38.483ZM192.14 35.0594H193.788C194.267 35.0594 194.63 34.9467 194.876 34.7213C195.13 34.4958 195.257 34.1894 195.257 33.802C195.257 33.4286 195.13 33.1292 194.876 32.9038C194.63 32.6784 194.256 32.5657 193.756 32.5657H192.14V35.0594ZM197.597 39.2227V33.7386H198.4L198.463 34.753C198.583 34.5064 198.742 34.2986 198.939 34.1295C199.143 33.9605 199.386 33.8337 199.668 33.7491C199.95 33.6575 200.27 33.6118 200.63 33.6118V34.5416H200.154C199.936 34.5416 199.724 34.5698 199.52 34.6262C199.323 34.6825 199.143 34.7776 198.981 34.9115C198.826 35.0383 198.703 35.2144 198.611 35.4398C198.527 35.6582 198.485 35.9329 198.485 36.264V39.2227H197.597ZM203.385 39.3495C202.956 39.3495 202.6 39.272 202.318 39.117C202.036 38.962 201.825 38.7542 201.684 38.4936C201.543 38.2329 201.473 37.9511 201.473 37.6482C201.473 37.289 201.564 36.9825 201.747 36.7289C201.938 36.4683 202.202 36.2746 202.54 36.1478C202.878 36.0139 203.276 35.947 203.734 35.947H205.118C205.118 35.5948 205.072 35.3024 204.981 35.07C204.896 34.8304 204.755 34.6543 204.558 34.5416C204.368 34.4219 204.121 34.362 203.818 34.362C203.494 34.362 203.216 34.443 202.984 34.605C202.751 34.767 202.607 35.0066 202.55 35.3236H201.642C201.684 34.9502 201.807 34.6402 202.012 34.3937C202.223 34.1401 202.487 33.9464 202.804 33.8125C203.121 33.6787 203.459 33.6118 203.818 33.6118C204.312 33.6118 204.72 33.7033 205.044 33.8865C205.375 34.0626 205.618 34.3127 205.773 34.6367C205.928 34.9537 206.006 35.3306 206.006 35.7674V39.2227H205.213L205.16 38.2717C205.09 38.4196 204.998 38.5605 204.886 38.6943C204.78 38.8211 204.653 38.9338 204.505 39.0325C204.357 39.1311 204.188 39.2086 203.998 39.2649C203.815 39.3213 203.611 39.3495 203.385 39.3495ZM203.512 38.5992C203.752 38.5992 203.97 38.5464 204.167 38.4407C204.364 38.3351 204.533 38.1942 204.674 38.0181C204.822 37.8349 204.931 37.6341 205.002 37.4158C205.079 37.1903 205.118 36.9543 205.118 36.7078V36.6338H203.808C203.47 36.6338 203.195 36.6761 202.984 36.7606C202.779 36.8381 202.631 36.9543 202.54 37.1093C202.448 37.2573 202.403 37.4228 202.403 37.606C202.403 37.8102 202.445 37.9864 202.529 38.1343C202.614 38.2822 202.741 38.3985 202.91 38.483C203.079 38.5605 203.28 38.5992 203.512 38.5992ZM207.452 39.2227V33.7386H208.255L208.297 34.6262C208.459 34.3092 208.695 34.0626 209.005 33.8865C209.315 33.7033 209.671 33.6118 210.072 33.6118C210.481 33.6118 210.836 33.6928 211.139 33.8548C211.442 34.0098 211.678 34.2493 211.847 34.5733C212.016 34.8903 212.101 35.2989 212.101 35.7991V39.2227H211.213V35.8942C211.213 35.387 211.094 35.0066 210.854 34.753C210.615 34.4994 210.287 34.3726 209.871 34.3726C209.59 34.3726 209.332 34.4395 209.1 34.5733C208.867 34.7072 208.681 34.9044 208.54 35.1651C208.406 35.4257 208.339 35.7427 208.339 36.1161V39.2227H207.452ZM215.854 39.3495C215.353 39.3495 214.913 39.2262 214.533 38.9796C214.152 38.726 213.857 38.3844 213.645 37.9547C213.434 37.5179 213.328 37.0248 213.328 36.4753C213.328 35.9188 213.434 35.4257 213.645 34.996C213.857 34.5663 214.152 34.2281 214.533 33.9816C214.92 33.735 215.364 33.6118 215.864 33.6118C216.301 33.6118 216.678 33.6998 216.995 33.8759C217.319 34.052 217.569 34.2986 217.745 34.6156V31.6147H218.633V39.2227H217.83L217.756 38.3351C217.65 38.5112 217.509 38.6767 217.333 38.8317C217.164 38.9867 216.956 39.1135 216.71 39.2121C216.463 39.3037 216.178 39.3495 215.854 39.3495ZM215.97 38.5781C216.322 38.5781 216.629 38.4936 216.889 38.3245C217.157 38.1484 217.361 37.9053 217.502 37.5954C217.643 37.2784 217.713 36.9086 217.713 36.4859C217.713 36.0562 217.643 35.6863 217.502 35.3764C217.361 35.0594 217.157 34.8164 216.889 34.6473C216.629 34.4712 216.322 34.3831 215.97 34.3831C215.632 34.3831 215.332 34.4712 215.072 34.6473C214.811 34.8164 214.607 35.0594 214.459 35.3764C214.311 35.6863 214.237 36.0562 214.237 36.4859C214.237 36.9086 214.311 37.2784 214.459 37.5954C214.607 37.9053 214.811 38.1484 215.072 38.3245C215.332 38.4936 215.632 38.5781 215.97 38.5781Z" fill="#9B9B9B"/>
</svg>
