<svg width="1080" height="1920" viewBox="0 0 1080 1920" fill="none" xmlns="http://www.w3.org/2000/svg">
<g clip-path="url(#clip0_1888_29341)">
<rect width="1080" height="1920" fill="url(#paint0_linear_1888_29341)"/>
<path d="M1479.37 -863.559L1213.46 -391.465C1172.85 -311.26 1124.69 -220.954 1039.01 -193.641C1008.16 -183.781 956.006 -164.19 920.992 -159.862C791.02 -143.993 329.654 -156.591 212.692 -112.921C65.7074 -57.9587 701.241 0.296311 873.397 26.5885C1031.42 50.7081 1030.29 84.3665 990.326 232.956C950.362 381.545 789.792 832.513 833.862 849.656C877.932 866.798 941.259 703.484 1192.06 268.879C1192.06 268.879 1245.92 155.245 1516.79 154.94C1516.79 154.94 2405.66 194.771 2388.08 178.826C2324.47 121.068 2303.26 104.537 2145.29 90.9022C1876.44 67.6988 1846.32 102.258 1811.63 33.3846C1776.93 -35.4888 1807.44 -113.98 1666.82 -132.786C1526.2 -151.592 1227.22 -92.5983 1314.15 -303.421C1558.24 -895.68 1530.79 -930.036 1479.37 -863.559Z" fill="white" fill-opacity="0.04"/>
<path d="M1565.52 -201.728L1037.19 -81.5642C950.497 -57.766 851.248 -32.7783 773.456 -77.9014C745.426 -94.1336 695.881 -119.604 669.154 -142.633C570.088 -228.253 269.491 -578.479 158.571 -635.784C19.1182 -707.744 402.893 -197.829 499.065 -52.6394C587.353 80.6223 561.66 102.394 424.744 172.608C287.828 242.821 -154.099 426.82 -137.193 470.981C-120.286 515.143 43.2323 452.345 533.653 346.179C533.653 346.179 654.009 309.74 836.196 510.186C836.196 510.186 1403.8 1195.39 1403.81 1171.66C1403.86 1085.73 1401.85 1058.92 1305.83 932.735C1142.42 718 1096.59 718.902 1124.3 646.934C1152.01 574.966 1230.65 544.835 1150.12 428.037C1069.58 311.239 825.038 129.393 1039.6 52.1638C1642.3 -164.881 1649.31 -208.291 1565.52 -201.728Z" fill="white" fill-opacity="0.04"/>
<path d="M1130.85 -93.7853L765.195 120.851C706.162 159.113 638.044 201.234 569.342 185.982C544.594 180.507 501.611 173.231 476.227 162.377C382.076 121.952 74.9942 -68.1612 -21.3 -84.6616C-142.344 -105.342 264.562 184.204 370.65 269.747C468.034 348.258 454.021 370.577 368.507 455.344C282.993 540.111 -3.10723 781.918 19.9518 810.858C43.0108 839.799 150.122 754.268 490.81 559.044C490.81 559.044 571.963 503.387 755.283 609.795C755.283 609.795 1340.79 986.595 1335.17 968.891C1314.88 904.789 1307.04 885.26 1205.56 813.86C1032.87 692.35 998.894 703.868 1002.54 643.63C1006.18 583.392 1057.7 542.312 970 474.246C882.297 406.18 656.863 328.4 798.637 220.027C1196.84 -84.4667 1191.8 -118.506 1130.85 -93.7853Z" fill="white" fill-opacity="0.04"/>
<path d="M1172.57 804.945L921.902 683.481C879.461 665.189 831.597 643.341 814.865 600.243C808.827 584.724 797.121 558.587 793.79 540.759C781.525 474.573 773.356 237.444 747.239 178.815C714.376 105.14 704.642 433.083 696.611 522.251C689.247 604.099 671.941 604.586 594.432 588.793C516.922 573 280.435 504.914 273.037 528.07C265.639 551.227 351.445 578.54 582.398 693.445C582.398 693.445 642.412 717.475 651.16 856.45C651.16 856.45 658.914 1313.8 666.538 1304.27C694.156 1269.8 701.966 1258.39 703.951 1176.9C707.33 1038.22 688.643 1023.86 722.881 1003.88C757.12 983.89 798.362 997.053 803.551 924.304C808.741 851.556 768.988 700.018 879.92 737.935C1191.55 844.395 1208.31 829.222 1172.57 804.945Z" fill="white" fill-opacity="0.04"/>
<path d="M510.572 332.945L259.904 211.481C217.463 193.189 169.599 171.341 152.867 128.243C146.829 112.724 135.123 86.5871 131.792 68.7589C119.527 2.57252 111.358 -234.556 85.2409 -293.185C52.3777 -366.86 42.6436 -38.9172 34.6131 50.251C27.2492 132.099 9.94302 132.586 -67.5664 116.793C-145.076 101 -381.563 32.9138 -388.961 56.0702C-396.359 79.2265 -310.553 106.54 -79.6004 221.445C-79.6004 221.445 -19.586 245.475 -10.8384 384.45C-10.8384 384.45 -3.08402 841.8 4.54003 832.274C32.1583 797.802 39.9677 786.394 41.9533 704.904C45.3324 566.224 26.6445 551.864 60.8834 531.877C95.1223 511.89 136.364 525.053 141.553 452.304C146.743 379.556 106.99 228.018 217.922 265.935C529.555 372.395 546.312 357.222 510.572 332.945Z" fill="white" fill-opacity="0.04"/>
</g>
<defs>
<linearGradient id="paint0_linear_1888_29341" x1="595.5" y1="1134.5" x2="1080" y2="211" gradientUnits="userSpaceOnUse">
<stop/>
<stop offset="0.5" stop-color="#1C1962"/>
<stop offset="1" stop-color="#C53134"/>
</linearGradient>
<clipPath id="clip0_1888_29341">
<rect width="1080" height="1920" fill="white"/>
</clipPath>
</defs>
</svg>
