<svg width="1080" height="1920" viewBox="0 0 1080 1920" fill="none" xmlns="http://www.w3.org/2000/svg">
<g clip-path="url(#clip0_1912_29392)">
<rect width="1080" height="1920" fill="url(#paint0_linear_1912_29392)"/>
<path d="M1566.37 -990.557L1300.46 -518.463C1259.85 -438.258 1211.69 -347.952 1126.01 -320.639C1095.16 -310.779 1043.01 -291.188 1007.99 -286.86C878.02 -270.992 416.654 -283.589 299.692 -239.919C152.707 -184.957 788.241 -126.702 960.397 -100.41C1118.42 -76.2899 1117.29 -42.6316 1077.33 105.958C1037.36 254.547 876.792 705.515 920.862 722.658C964.932 739.8 1028.26 576.486 1279.06 141.881C1279.06 141.881 1332.92 28.2468 1603.79 27.9417C1603.79 27.9417 2492.67 67.7729 2475.08 51.8276C2411.47 -5.9302 2390.26 -22.4612 2232.29 -36.0958C1963.44 -59.2993 1933.32 -24.7401 1898.63 -93.6135C1863.93 -162.487 1894.44 -240.978 1753.82 -259.784C1613.2 -278.59 1314.22 -219.596 1401.15 -430.419C1645.24 -1022.68 1617.79 -1057.03 1566.37 -990.557Z" fill="white" fill-opacity="0.04"/>
<path d="M1652.52 -328.728L1124.19 -208.564C1037.5 -184.766 938.248 -159.778 860.456 -204.901C832.426 -221.134 782.881 -246.604 756.154 -269.633C657.088 -355.252 356.491 -705.479 245.571 -762.784C106.118 -834.744 489.893 -324.829 586.065 -179.639C674.353 -46.3776 648.66 -24.6057 511.744 45.6076C374.828 115.821 -67.0987 299.82 -50.1927 343.981C-33.2867 388.143 130.232 325.345 620.653 219.179C620.653 219.179 741.009 182.74 923.196 383.186C923.196 383.186 1490.8 1068.39 1490.81 1044.66C1490.86 958.735 1488.85 931.917 1392.83 805.736C1229.42 591 1183.59 591.902 1211.3 519.934C1239.01 447.966 1317.65 417.835 1237.12 301.037C1156.58 184.239 912.038 2.39249 1126.6 -74.8362C1729.3 -291.881 1736.31 -335.291 1652.52 -328.728Z" fill="white" fill-opacity="0.04"/>
<path d="M1217.85 -220.785L852.195 -6.14936C793.162 32.1132 725.044 74.2342 656.342 58.9824C631.594 53.5067 588.611 46.2306 563.227 35.3767C469.076 -5.04786 161.994 -195.161 65.7 -211.662C-55.3445 -232.342 351.562 57.2039 457.65 142.747C555.034 221.258 541.021 243.577 455.507 328.344C369.994 413.111 83.8928 654.918 106.952 683.858C130.011 712.799 237.122 627.268 577.81 432.044C577.81 432.044 658.963 376.387 842.283 482.795C842.283 482.795 1427.79 859.595 1422.17 841.891C1401.88 777.789 1394.04 758.26 1292.56 686.86C1119.87 565.35 1085.89 576.868 1089.54 516.63C1093.18 456.392 1144.7 415.312 1057 347.246C969.297 279.18 743.863 201.4 885.637 93.0274C1283.84 -211.467 1278.8 -245.506 1217.85 -220.785Z" fill="white" fill-opacity="0.04"/>
<path d="M1259.57 677.946L1008.9 556.483C966.461 538.191 918.597 516.343 901.865 473.245C895.827 457.726 884.121 431.589 880.79 413.761C868.525 347.574 860.356 110.446 834.239 51.8171C801.376 -21.8582 791.642 306.085 783.611 395.253C776.247 477.101 758.941 477.588 681.432 461.795C603.922 446.002 367.435 377.916 360.037 401.072C352.639 424.228 438.445 451.542 669.398 566.447C669.398 566.447 729.412 590.477 738.16 729.452C738.16 729.452 745.914 1186.8 753.538 1177.28C781.156 1142.8 788.966 1131.4 790.951 1049.91C794.33 911.226 775.643 896.866 809.881 876.879C844.12 856.892 885.362 870.055 890.551 797.306C895.741 724.558 855.988 573.019 966.92 610.937C1278.55 717.397 1295.31 702.224 1259.57 677.946Z" fill="white" fill-opacity="0.04"/>
<path d="M597.572 205.946L346.904 84.483C304.463 66.191 256.599 44.3431 239.867 1.24477C233.829 -14.2738 222.123 -40.4109 218.791 -58.2391C206.527 -124.426 198.358 -361.554 172.241 -420.183C139.378 -493.858 129.644 -165.915 121.613 -76.747C114.249 5.10112 96.9429 5.58775 19.4335 -10.205C-58.076 -25.9978 -294.563 -94.0843 -301.961 -70.9279C-309.359 -47.7715 -223.553 -20.4577 7.39957 94.4467C7.39957 94.4467 67.4139 118.477 76.1615 257.452C76.1615 257.452 83.9159 714.802 91.54 705.276C119.158 670.804 126.968 659.396 128.953 577.906C132.332 439.226 113.644 424.866 147.883 404.879C182.122 384.892 223.364 398.055 228.553 325.306C233.743 252.558 193.99 101.019 304.922 138.937C616.555 245.397 633.312 230.224 597.572 205.946Z" fill="white" fill-opacity="0.04"/>
</g>
<defs>
<linearGradient id="paint0_linear_1912_29392" x1="595.5" y1="1134.5" x2="946" y2="219" gradientUnits="userSpaceOnUse">
<stop/>
<stop offset="1" stop-color="#7A807A"/>
</linearGradient>
<clipPath id="clip0_1912_29392">
<rect width="1080" height="1920" fill="white"/>
</clipPath>
</defs>
</svg>
