<?xml version="1.0" encoding="UTF-8"?>
<svg id="Layer_2" data-name="Layer 2" xmlns="http://www.w3.org/2000/svg" xmlns:xlink="http://www.w3.org/1999/xlink" viewBox="0 0 433.712 603.046">
  <defs>
    <style>
      .cls-1 {
        fill: url(#linear-gradient-2);
      }

      .cls-2 {
        fill: #231f20;
      }

      .cls-3 {
        fill: #d97c80;
      }

      .cls-4 {
        fill: url(#linear-gradient-4);
      }

      .cls-5 {
        fill: url(#radial-gradient-5);
      }

      .cls-6 {
        fill: #ea979f;
      }

      .cls-7 {
        fill: url(#radial-gradient-3);
      }

      .cls-8 {
        fill: url(#linear-gradient-3);
      }

      .cls-9 {
        fill: url(#radial-gradient-8);
      }

      .cls-10 {
        fill: url(#radial-gradient-2);
      }

      .cls-11 {
        fill: #d1d3d4;
      }

      .cls-12 {
        fill: url(#radial-gradient-4);
      }

      .cls-13 {
        fill: #75584c;
        stroke: #75584c;
        stroke-miterlimit: 10;
        stroke-width: 2px;
      }

      .cls-14 {
        fill: url(#radial-gradient-6);
      }

      .cls-15 {
        fill: url(#radial-gradient);
        fill-rule: evenodd;
      }

      .cls-16 {
        fill: url(#radial-gradient-7);
      }

      .cls-17 {
        fill: url(#linear-gradient);
      }
    </style>
    <radialGradient id="radial-gradient" cx="226.417" cy="187.263" fx="226.417" fy="187.263" r="413.349" gradientUnits="userSpaceOnUse">
      <stop offset="0" stop-color="#d09072"/>
      <stop offset="1" stop-color="#805848"/>
    </radialGradient>
    <radialGradient id="radial-gradient-2" cx="216.856" cy="216.916" fx="216.856" fy="216.916" r="281.755" gradientUnits="userSpaceOnUse">
      <stop offset="0" stop-color="#231f20"/>
      <stop offset="1" stop-color="#414042"/>
    </radialGradient>
    <radialGradient id="radial-gradient-3" cx="374.456" cy="281.46" fx="387.339" fy="247.485" r="36.336" gradientTransform="translate(-20.169 -130.682) rotate(-3.551) scale(1 1.44)" xlink:href="#radial-gradient"/>
    <radialGradient id="radial-gradient-4" cx="-536.389" cy="224.929" fx="-523.506" fy="190.954" r="36.336" gradientTransform="translate(-450.596 -105.832) rotate(-176.449) scale(1 -1.44)" xlink:href="#radial-gradient"/>
    <linearGradient id="linear-gradient" x1="221.683" y1="256.524" x2="221.683" y2="319.433" gradientUnits="userSpaceOnUse">
      <stop offset="0" stop-color="#d19878"/>
      <stop offset="1" stop-color="#996955"/>
    </linearGradient>
    <radialGradient id="radial-gradient-5" cx="315.809" cy="311.853" fx="315.809" fy="311.853" r="29.878" gradientTransform="translate(-42.395 25.347) scale(.846 .924)" gradientUnits="userSpaceOnUse">
      <stop offset="0" stop-color="#d19878"/>
      <stop offset="1" stop-color="#996955" stop-opacity=".5"/>
    </radialGradient>
    <radialGradient id="radial-gradient-6" cx="80.304" cy="294.754" fx="80.304" fy="294.754" r="19.26" gradientUnits="userSpaceOnUse">
      <stop offset="0" stop-color="#f1f2f2"/>
      <stop offset="1" stop-color="#00aeef"/>
    </radialGradient>
    <radialGradient id="radial-gradient-7" cx="-1227.846" cy="293.872" fx="-1227.846" fy="293.872" r="16.641" gradientTransform="translate(-857.067) rotate(-180) scale(1 -1)" xlink:href="#radial-gradient-6"/>
    <linearGradient id="linear-gradient-2" x1="128.098" y1="315.65" x2="162.392" y2="237.862" gradientUnits="userSpaceOnUse">
      <stop offset="0" stop-color="#fcfcfc" stop-opacity=".3"/>
      <stop offset="1" stop-color="#f1f2f2" stop-opacity=".1"/>
    </linearGradient>
    <linearGradient id="linear-gradient-3" x1="258.107" y1="315.648" x2="292.4" y2="237.86" xlink:href="#linear-gradient-2"/>
    <linearGradient id="linear-gradient-4" x1="303.682" y1="420.213" x2="158.639" y2="567.344" gradientUnits="userSpaceOnUse">
      <stop offset="0" stop-color="#b88065"/>
      <stop offset="1" stop-color="#9b6a56"/>
    </linearGradient>
    <radialGradient id="radial-gradient-8" cx="-2925.954" cy="1311.989" fx="-2925.954" fy="1311.989" r="137.738" gradientTransform="translate(2213.936 -2013.947) rotate(-25.088)" gradientUnits="userSpaceOnUse">
      <stop offset="0" stop-color="#b88065"/>
      <stop offset="1" stop-color="#9b6a56"/>
    </radialGradient>
  </defs>
  <g id="Bitmojis">
    <g id="Eco_Front_Neutral">
      <path class="cls-15" d="M349.457,358.975c-17.3,27.44-51.08,64.29-68.35,77.73-12.96,10.09-37.69,16.12-59.42,16.14-21.73-.02-46.46-6.05-59.41-16.14-17.27-13.44-51.05-50.29-68.36-77.73-21.46-34.05-19.5-52.53-19.5-106.93,0-109.72,58.62-168.31,147.27-168.31s147.27,39.431,147.27,168.31c0,54.4,1.97,72.88-19.5,106.93Z"/>
      <path d="M339.908,208.184s-10.173-11.72-15.835-14.795c-6.008-3.263-10.665-6.957-25.097-6.174-19.189,1.041-42.737,7.791-42.737,7.791,0,0-12.729,3.58-15.661,10.633-2.932,7.053,2.752,7.486,5.057,7.435,4.198-.093,11.928-3.653,17.007-4.777,6.792-1.503,15.548-4.28,22.273-5.394,7.049-1.168,16.458-3.028,27.826-2.822,7.113.129,27.166,8.102,27.166,8.102Z"/>
      <path class="cls-10" d="M74.667,277.535c.337,6.949,1.666,32.058,5.674,54.778-5.217,3.657-16.826,4.7-16.826,4.7-30.814,2.88-33.756-23.2-33.756-23.2-10.148-.36-13.37-5.87-12.659-17.22.474-7.61,3.136-13.54,3.136-13.54-10.925-4-9.267-21.88,4.065-21.05-13.758-10-4.52-20.01-4.52-20.01-.919-1.07-13.247,7.78-18.316-5.7-3.278-8.73,2.189-10.53,2.454-14.55.209-2.96-2.937-7.31-2.918-10.76.01-4.47,2.739-7.14,2.975-10.19.066-.82-7.173-4.12-2.274-14.94,3.581-7.91,14.241-5.66,16.563-8.55,1.961-2.44-5.477-15.42-2.18-20.75,2.454-3.97,13.275-10.93,13.55-12.56.152-.89-3.657-9.64-2.274-17.5,1.535-8.72,8.281-12.73,8.443-13.76.35-2.26-4.719-6.91.559-15.65,4.235-7.01,19.273-7.93,19.983-8.86,1.118-1.45.957-8.25,4.018-13.09,5.155-8.16,12.801-5.3,17.112-9.68,4.103-4.18,5.647-14.33,11.712-19.38,5.278-4.39,11.437-2.95,15.208-4.91,5.117-2.65,5.638-15.18,17.444-16.26,8.831-.81,9.769,4.72,13.521,5.31.976.15,2.046-3.85,4.008-5.36,1.705-1.3,3.458-2.87,8.784-2.48,1.45.11,2.975.73,4.245,1.43,3.515-11.59,13.796-19.98,25.953-19.98,8.017,0,15.227,3.66,20.202,9.47,3.193-1.4,6.699-2.17,10.376-2.17,3.61,0,7.05.74,10.205,2.1,4.975-5.771,12.157-9.4,20.145-9.4,3.818,0,7.438.83,10.736,2.32,7.448-11.16,29.933-5.76,35.334,5.38,1.184,2.44,2.378,5.78,5.183,7.03,2.255,1.02,4.274-2.29,10.764-1.83,9.087.64,13.389,1.64,20.23,8.65,4.132,4.23,4.643,8.79,6.472,18.37.777,4.06,20.438-4.15,29.033,7.64,1.686,2.32,2.606,7.35,3.686,8.29,1.099.96,4.69-.39,7.059.57,17.226,6.96,18.449,18.98,14.365,37.98,19.756-.54,35.002,16.24,29.715,38.92,14.983,2.914,15.178,22.675,4.785,28.28,11.456,4.76,22.769,15.29,13.881,30.15-3.838,6.43-18.411,3.255-11.184,13.534,4.191,5.96,3.375,16.582-4.321,19.125-4.367,1.443-5.379,4.281-5.379,4.281-.247,6.06,11.278,8.865,10.165,17.571-1.499,11.733-8.611,7.129-9.483,12.04-.777,4.33,4.848,2.732,4.755,9.286-.084,5.974-5.145,5.625-2.781,10.239,1.481,2.891.347,7.454.347,7.454,1.317,4.61,1.724,8.923-1.061,13.1-1.25,1.874-6.007,6.62-6.007,6.62,2.947,19.41-7.628,32.93-21.395,24.94,2.653,30.34-22.785,1.444-22.785,1.444,0,0,6.231-21.444,10.79-78.494.677-8.467-12.546-94.808-25.005-100.021-6.614-2.767-12.421,28.37-20.393,27.391-7.119-.874-3.411-17.778-7.045-21.326-4.454-4.349-8.125,12.232-8.475,17.025-.492,6.737.936,23.344-12.906,23.344-12.089,0-13.256-13.564-15.075-25.504-1.203-7.97-13.37-12.86-10.878-24.4-3.203.03-2.359,6.479-4.567,9.38-8.367,11.04-28.773-17.165-27.735-36.535-6.065,16.826-22.062,10.531-23.247,1.761-1.184-8.83-3.166-7.043-9.642-9.616,5.77,11.02-6.567,15.55-17.804,14.08,3.619,11.83,2.549,19.97-5.856,22.28-1.828.5-5.429.52-8.045-.79-3.316-1.67-6.064-2.96-7.931-6.42-4.236-7.87-4.908-11.43-2.568-20.91l-5.509-4.065c-1.668,14.283-8.287,16.715-8.543,20.655-.37,5.63,4.766,10.2,1.734,21.57-1.725,6.46-8.121,9.11-8.244,9.97-.151,1.1-1.772,15.47-16.004,21.03-6.054,2.37-18.145-9.25-21.718-14.83-2.208-3.47-8.45-14.658-11.465-14.51-10.617.523-16.288,37.781-16.288,37.781,0,0-6.784,22.412-4.307,73.481Z"/>
      <path class="cls-7" d="M376.321,203.551c-4.531-.743-8.486-.726-11.922.504,1.361,11.092,2.652,21.894,3.116,33.603.997,25.142.687,43.322-.362,62.083,10.247-6.534,20.191-19.62,23.505-39.845,4.554-27.795.097-53.979-14.338-56.345Z"/>
      <path class="cls-12" d="M67.053,203.551c4.531-.743,8.486-.726,11.922.504-1.361,11.092-2.652,21.894-3.116,33.603-.997,25.142-.687,43.322.362,62.083-10.247-6.534-20.191-19.62-23.505-39.845-4.554-27.795-.097-53.979,14.338-56.345Z"/>
      <path class="cls-17" d="M247.355,326.061c-10.12,2.22-14.9,7.21-25.67,7.21s-15.56-4.99-25.67-7.21c-14.87-3.25-16.18-19.33-1.35-26.7,9.84-4.9,8.12-4.56,9.65-17.48,1.09-9.18,1.3-9.68,2.86-21.59.55-4.19,3.14-8.14,7.64-10.4,1.95-.97,4.24-1.65,6.87-1.65s4.92.68,6.87,1.65c4.49,2.26,7.08,6.21,7.63,10.4,1.57,11.91,1.78,12.41,2.86,21.59,1.54,12.92-.19,12.58,9.66,17.48,14.82,7.37,13.52,23.45-1.35,26.7Z"/>
      <ellipse class="cls-5" cx="221.687" cy="316.505" rx="21.947" ry="16.765"/>
      <path class="cls-14" d="M75.666,288.006c-.033,0-.064-.005-.097-.005-6.483,0-11.471,5.256-11.471,11.739s5.256,11.739,11.739,11.739c.517,0,1.022-.045,1.522-.11-.487-5.714-1.407-14.69-1.694-23.364Z"/>
      <path class="cls-16" d="M367.708,288.007c.033,0,.064-.005.097-.005,6.483,0,11.502,5.258,11.502,11.742s-5.256,11.739-11.739,11.739c-.517,0-1.022-.045-1.522-.11.487-5.714,1.377-14.692,1.663-23.366Z"/>
      <circle class="cls-2" cx="163.585" cy="250.718" r="13.844"/>
      <circle class="cls-2" cx="279.198" cy="250.718" r="13.844"/>
      <path d="M103.405,239.792s9.552-12.231,15.047-15.595c5.831-3.57,10.291-7.5,24.743-7.466,19.217.045,43.084,5.567,43.084,5.567,0,0,12.898,2.916,16.191,9.808,3.293,6.892-2.36,7.619-4.665,7.687-4.197.125-12.102-3.03-17.232-3.889-6.86-1.149-15.749-3.469-22.523-4.233-7.1-.801-16.593-2.172-27.935-1.376-7.097.498-26.71,9.498-26.71,9.498Z"/>
      <g>
        <ellipse class="cls-1" cx="156.682" cy="250.815" rx="51.231" ry="39.157"/>
        <ellipse class="cls-8" cx="286.69" cy="250.813" rx="51.231" ry="39.157"/>
        <path class="cls-11" d="M286.69,210.05c-28.173,0-51.269,17.111-52.755,38.561-2.351-.727-6.648-1.753-12.248-1.732-5.6-.021-9.897,1.005-12.248,1.732-1.496-21.45-24.582-38.561-52.755-38.561-28.643,0-52.83,18.672-52.83,40.763,0,22.476,23.695,40.763,52.83,40.763,28.632,0,51.996-17.667,52.786-39.608,1.817-.62,6.145-1.892,12.216-1.86,6.071-.032,10.399,1.24,12.205,1.86.802,21.942,24.165,39.608,52.797,39.608,29.135,0,52.83-18.287,52.83-40.763,0-22.091-24.186-40.763-52.83-40.763ZM156.685,288.369c-27.478,0-49.826-16.844-49.826-37.556,0-20.349,22.818-37.557,49.826-37.557,27.467,0,49.826,16.855,49.826,37.557s-22.359,37.556-49.826,37.556ZM286.69,288.369c-27.467,0-49.826-16.844-49.826-37.556s22.359-37.557,49.826-37.557c27.008,0,49.826,17.207,49.826,37.557,0,20.713-22.348,37.556-49.826,37.556Z"/>
      </g>
      <path class="cls-3" d="M143.294,361.114c17.682,18.483,43.182,26.063,70.603,29.696,22.312,2.956,62.032-1.365,67.012-15.582-8.452-.709-58.053-10.869-66.854-12.649-47.863-9.683-52.606-6.903-70.133-1.705l-.627.24"/>
      <path class="cls-6" d="M280.798,377.678c.273-3.65-23.252-14.733-42.009-17.24-8.676-1.16-20.17.765-20.17.765,0,0-5.308-4.444-14.683-7.495-36.183-11.778-59.17,6.417-60.753,9.857,0,0,25.987-8.139,45.367,2.003,21.431,11.215,74.983,11.075,92.247,12.111Z"/>
    </g>
    <g id="Hand12_Think">
      <path class="cls-13" d="M187.965,602.046c-10.839,0-21.664-2.355-31.983-7.03-3.167-1.464-7.751-3.878-11.841-7.164-12.84-9.846-20.752-22.254-26.447-41.472-1.849-6.238-1.134-16.876-.703-20.448,1.458-12.072,3.689-23.898,5.883-34.881,2.889-14.456,2.197-25.396-2.241-35.473-1.739-3.949-3.673-8.001-5.748-12.041-.982-1.913-2.025-3.777-3.128-5.751-1.671-2.987-3.399-6.077-4.885-9.326-2.663-5.82-2.965-11.456-.876-16.295,2.03-4.701,6.126-8.21,11.847-10.147,13.451-4.558,24.722,1.367,32.031,6.218,11.917,7.911,18.421,14.681,25.777,26.828,2.186,3.61,4.206,7.384,6.005,11.22.538.856.699,1.075,1.501,1.474,1.947-.598,6.085-2.856,7.747-3.763l.445-.243c3.543-1.93,7.13-3.776,10.6-5.562,5.689-2.929,11.063-5.696,16.239-8.784,6.943-4.385,13.833-8.017,21.125-11.862,1.579-.832,3.168-1.67,4.77-2.522,11.005-5.869,21.898-11.599,34.094-17.136,1.363-.631,2.785-1.297,4.218-1.969,3.485-1.633,7.089-3.321,10.536-4.818,5.842-2.53,14.662-6.346,23.204-3.579,7.492,2.341,12.77,9.282,12.899,16.935.566,7.881-3.301,15.065-10.906,20.25-7.413,4.908-16.002,9.845-24.308,14.618-5.052,2.903-9.822,5.646-14.199,8.3-1.332.821-2.739,1.668-4.165,2.526-2.841,1.71-5.741,3.455-8.485,5.267,6.917,7.135,9.985,15.99,9.004,25.956,6.518,2.772,11.634,9.226,12.473,16.416.666,5.685.534,11.289-.381,16.204-.64,3.437-1.667,6.681-3.118,9.823,4.106,4.713,5.269,12.493,2.696,19.308-3.02,8.002-7.999,14.454-15.223,19.726l-.125.089c-1.026.701-2.09,1.385-3.17,2.035l-.012.014-.891.52c-1.779,1.033-3.597,1.969-5.408,2.783-7.836,4.095-12.545,6.911-16.463,10.865-12.129,11.923-28.09,17.693-39.353,20.442-6.281,1.638-12.66,2.452-19.034,2.452ZM127.541,410.394c-2.197,0-4.344.368-6.49,1.095-2.068.701-4.766,2.074-5.874,4.641-1.184,2.741-.224,5.957.79,8.172,1.317,2.881,2.872,5.661,4.518,8.604,1.098,1.963,2.233,3.992,3.296,6.063,2.166,4.217,4.186,8.448,6.004,12.579,6.894,15.651,4.954,31.159,2.896,41.462-2.155,10.786-4.344,22.385-5.762,34.121-.546,4.522-.724,12.74.363,16.407,5.121,17.283,11.781,27.832,22.986,36.411l.098.077c3.309,2.667,7.144,4.679,9.778,5.896,14.242,6.451,29.611,7.833,44.408,3.976,10.117-2.471,24.283-7.551,34.743-17.831,4.819-4.865,10.193-8.105,19.024-12.716l.277-.134c1.395-.622,2.8-1.335,4.185-2.121l.099-.107.67-.337c1.037-.613,2.058-1.262,3.038-1.93,5.646-4.136,9.365-8.946,11.701-15.134,1.495-3.963.534-8.038-1.213-9.541-.327-.281-.48-.356-.486-.36l-5.116-2.273,2.84-4.825c1.952-3.323,3.234-6.734,3.921-10.429.734-3.942.831-8.512.281-13.215-.502-4.3-4.324-8.339-8.406-8.938-.074-.004-.146-.009-.219-.016l-5.633-.506,1.237-5.715c1.992-9.415-.458-16.961-7.483-23.081-.467-.406-1.05-.812-1.78-1.24l-6.356-3.719,5.802-4.536c4.533-3.544,9.663-6.631,14.623-9.616,1.395-.84,2.771-1.668,4.105-2.49,4.508-2.733,9.329-5.504,14.432-8.438,8.172-4.696,16.621-9.553,23.714-14.249,3.176-2.165,6.937-5.925,6.502-11.329l-.017-.373c-.019-3.373-2.5-6.587-5.899-7.642l-.069-.021c-4.573-1.493-10.254.678-16.157,3.234-3.312,1.439-6.851,3.097-10.272,4.7-1.447.678-2.884,1.352-4.294,2.004-11.96,5.431-22.698,11.078-33.559,16.871-1.617.86-3.217,1.704-4.808,2.542-7.132,3.761-13.87,7.313-20.5,11.504l-.107.066c-5.462,3.262-11.248,6.241-16.843,9.122-3.418,1.76-6.953,3.579-10.394,5.453l-.438.239c-8.235,4.492-12.239,6.119-15.712,4.536-4.091-1.858-5.186-3.141-6.875-5.834l-.383-.683c-1.681-3.608-3.575-7.157-5.628-10.549-6.651-10.984-11.967-16.516-22.753-23.676-6.265-4.159-11.667-6.174-16.802-6.174Z"/>
      <path class="cls-4" d="M314.617,392.283c-6.398-2.088-13.294.628-19.695,3.4-4.782,2.077-9.885,4.536-14.679,6.754-11.694,5.31-22.269,10.841-33.813,16.997-8.836,4.702-17.319,8.982-25.626,14.232-8.616,5.146-17.918,9.497-27.064,14.477-3.53,1.922-9.853,5.451-11.689,4.616-4.357-1.981-3.323-2.279-6.768-7.012l-.287,2.084c-5.064.399-2.495,8.665-4.508,14.71-.798,2.779-1.592,5.495-2.411,8.353-8.354,28.985-19.139,66.24-27.554,95.46-.541,1.955-.982,3.358-1.063,5.149.448,8.776,11.029,15.465,18.586,18.96,15.112,6.846,31.688,8.467,47.768,4.275,13.321-3.252,26.974-9.262,36.986-19.104,4.327-4.367,9.276-7.381,17.834-11.848,1.79-.799,3.534-1.702,5.231-2.695.022-.011.042-.021.064-.033.008-.004.009-.009.017-.013,1.199-.704,2.376-1.449,3.528-2.237,6.458-4.713,10.831-10.402,13.493-17.453,2.112-5.596.96-12.009-2.631-15.098-.604-.52-1.167-.893-1.711-1.135,2.094-3.566,3.683-7.514,4.526-12.047.865-4.648.909-9.77.331-14.71-.785-6.72-6.564-12.6-13.009-13.352-.043-.005-.091.003-.134,0,.009-.044.022-.085.031-.129,2.175-10.165.05-20.016-9.075-27.964-.778-.677-1.642-1.26-2.539-1.785,5.554-4.342,12.332-8.128,18.272-11.789,11.734-7.117,26.682-15.093,38.283-22.775,5.309-3.619,9.275-9.056,8.725-15.899-.033-5.707-4.135-10.75-9.418-12.388Z"/>
      <path class="cls-9" d="M179.688,529.478c2.029-4.967,3.679-10.079,5.066-15.26,6.788-25.348.394-53.814-13.381-76.565-7.034-11.617-12.945-17.738-24.265-25.253-8.538-5.668-17.645-9.041-27.661-5.648-8.997,3.048-12.155,10.603-8.027,19.628,2.331,5.097,5.348,9.875,7.914,14.871,2.076,4.043,4.044,8.15,5.876,12.309,5.568,12.643,5.167,25.461,2.568,38.468-2.282,11.422-4.423,22.911-5.822,34.501-.566,4.686-.847,13.771.533,18.427,5.241,17.689,12.29,29.756,25.628,39.648,0,0,10.343-13.551,12.57-17.786,7.057-13.421,15.852-29.632,19.002-37.342Z"/>
    </g>
  </g>
</svg>