<?xml version="1.0" encoding="UTF-8"?>
<svg id="Layer_2" data-name="Layer 2" xmlns="http://www.w3.org/2000/svg" xmlns:xlink="http://www.w3.org/1999/xlink" viewBox="0 0 323.76 406.19">
  <defs>
    <style>
      .cls-1 {
        fill: url(#linear-gradient-2);
      }

      .cls-2 {
        fill: #231f20;
      }

      .cls-3 {
        fill: url(#radial-gradient);
      }

      .cls-4 {
        fill: #971c1f;
      }

      .cls-5 {
        fill: url(#linear-gradient-3);
      }

      .cls-6 {
        fill: #1b1b1b;
      }

      .cls-7 {
        fill: url(#linear-gradient);
      }

      .cls-8 {
        fill: #414042;
      }

      .cls-9 {
        fill: #7f1717;
      }
    </style>
    <linearGradient id="linear-gradient" x1="297.45" y1="-88.9" x2="70.88" y2="348.97" gradientUnits="userSpaceOnUse">
      <stop offset="0" stop-color="#1c75bc"/>
      <stop offset="1" stop-color="#2e3192"/>
    </linearGradient>
    <radialGradient id="radial-gradient" cx="221.71" cy="144.57" fx="205.22" fy="131.92" r="313.83" gradientUnits="userSpaceOnUse">
      <stop offset="0" stop-color="#d29571"/>
      <stop offset="1" stop-color="#c19776"/>
    </radialGradient>
    <linearGradient id="linear-gradient-2" x1="263.59" y1="204.83" x2="200.98" y2="339.44" gradientUnits="userSpaceOnUse">
      <stop offset="0" stop-color="#d19878"/>
      <stop offset=".89" stop-color="#996955"/>
    </linearGradient>
    <linearGradient id="linear-gradient-3" x1="264.88" y1="323.69" x2="181.31" y2="323.69" gradientUnits="userSpaceOnUse">
      <stop offset="0" stop-color="#fff"/>
      <stop offset="1" stop-color="#d1d3d4"/>
    </linearGradient>
  </defs>
  <g id="Bitmojis">
    <g id="Ethic_Side_Happy">
      <path class="cls-7" d="M308.28,92.16C286.6,17.85,245.02,4.15,212.57,1.03,173.7-2.71,69.07.02,30.46,74.11-8.15,148.2-1.5,212,4.93,251.63c8.29,51.08,45.31,126.78,147.77,148.43,41.06,8.68,71.5,5.59,71.5,5.59"/>
      <path class="cls-3" d="M317.95,202.37c20.23,114.42-15.9,150.84-54.64,187.47-14.35,13.57-46.69,26.5-86.17,2.48-49.72-30.26-102.76-81.26-98.71-207.31,2.3-71.75,32.28-103.36,110.71-103.36s141.07-17.44,128.81,120.72Z"/>
      <path class="cls-1" d="M213.1,268.48c1.09,6.18,5.35,8.48,13.05,7.94,16.73-1.17,18.12,4.86,36.4,1.26,14.17-2.8,17.6-12.59,6.12-24.33-6.43-6.57-5.5-4.93-12.51-13.3-5.48-6.56-10.64-14.34-16.57-35.74-2.87-10.37-18.11-9.93-17.59,4.89,1.53,44.41-10.73,48.98-8.9,59.28Z"/>
      <circle class="cls-2" cx="181.15" cy="202.37" r="13.84"/>
      <circle class="cls-2" cx="272.76" cy="202.37" r="13.84"/>
      <path class="cls-8" d="M249.16,43.65c48.9,7.1,68.53,56.75,71.41,95.53.22,2.97.48,26.69-1.09,29.3-16.74-59.83-71.02-102.13-140.26-72.04-67.98,29.54-86.22,69.8-96.59,131.28-1.1,6.54-2.04,12.28-1.7,14.65-6.21-42.54-5.18-75.25,2.2-108.31C99.36,61.25,168.35,31.91,249.16,43.65Z"/>
      <path class="cls-6" d="M168.76,168.64c-16.94-1.1-31.92,5.53-48.32,10.37-.99-1.23,6.48-7,7.65-7.89,26.98-20.71,47.76-20.1,80.69-12.74,6.47,1.45,6.72,5.42,5.54,10.14-.67,2.65-2.24,4.48-4.97,4.71-2.72.23-4.46-.22-10.9-.83-6.44-.61-12.75-2.64-29.7-3.75Z"/>
      <path class="cls-6" d="M255.45,160.13c-5.66.87-5.63,4.95-4.53,9.24.53,2.07,2.28,3.58,4.33,3.72,2.13.14,3.67-.24,8.84-.75,5.38-.53,10.67-2.3,24.83-3.27,8.89-.6,15.92,1.45,24.04,4.1.97.32,3.32,1.13,3.23.07-.17-1.82-6.05-10.49-16.19-13.73-12.03-3.85-26.37-2.17-44.56.62Z"/>
      <path class="cls-5" d="M177.9,310.38l35.43,2.92,58.64-2.92s-8.72,27.38-42.89,26.59c-34.17-.78-51.18-26.59-51.18-26.59Z"/>
      <path class="cls-4" d="M232.5,329.42c19.75-.18,33.28-11.24,39.47-19.04,1.16,14.43-13.05,29.86-32.14,30.87-23.47,1.25-48.42-11.08-63.2-31.16,0,0-.34-.53,1.27.28,7.14,3.63,31.31,19.25,54.6,19.04Z"/>
      <path class="cls-9" d="M272.89,309.93c3.01-1.54-8.22-6.22-14.09-7.39-7.29-1.46-17.25,2.37-17.25,2.37,0,0-3.22-2.03-8.38-2.67-24.45-3.01-55.5,4.09-56.54,7.86,0,0,25.08,5.82,45.31,6.11,20.64.29,37.26.74,50.95-6.28Z"/>
    </g>
  </g>
</svg>