<?xml version="1.0" encoding="UTF-8"?>
<svg id="Layer_2" data-name="Layer 2" xmlns="http://www.w3.org/2000/svg" xmlns:xlink="http://www.w3.org/1999/xlink" viewBox="0 0 503.868 624.721">
  <defs>
    <style>
      .cls-1 {
        fill: url(#linear-gradient-2);
      }

      .cls-2 {
        fill: url(#radial-gradient-9);
      }

      .cls-3 {
        fill: #231f20;
      }

      .cls-4 {
        fill: #d97c80;
      }

      .cls-5, .cls-6 {
        fill-rule: evenodd;
      }

      .cls-5, .cls-7 {
        fill: #709685;
      }

      .cls-8 {
        fill: url(#linear-gradient-4);
      }

      .cls-9 {
        fill: url(#radial-gradient-5);
      }

      .cls-10 {
        fill: #ea979f;
      }

      .cls-11 {
        fill: url(#radial-gradient);
      }

      .cls-12 {
        fill: url(#linear-gradient-3);
      }

      .cls-13 {
        fill: url(#linear-gradient-5);
      }

      .cls-14 {
        fill: url(#linear-gradient-8);
      }

      .cls-6 {
        fill: url(#radial-gradient-3);
      }

      .cls-15 {
        fill: url(#radial-gradient-8);
      }

      .cls-16 {
        fill: url(#radial-gradient-2);
      }

      .cls-17 {
        fill: #d1d3d4;
      }

      .cls-18 {
        fill: url(#radial-gradient-4);
      }

      .cls-19 {
        fill: url(#linear-gradient-7);
      }

      .cls-20 {
        fill: url(#linear-gradient-9);
      }

      .cls-21 {
        fill: url(#linear-gradient-6);
      }

      .cls-22 {
        fill: url(#radial-gradient-6);
      }

      .cls-23 {
        fill: url(#radial-gradient-7);
      }

      .cls-24 {
        fill: url(#linear-gradient);
      }

      .cls-25 {
        fill: #bcbec0;
      }
    </style>
    <linearGradient id="linear-gradient" x1="281.818" y1="300.931" x2="248.917" y2="434.921" gradientUnits="userSpaceOnUse">
      <stop offset="0" stop-color="#d09072"/>
      <stop offset="1" stop-color="#6c4a3c"/>
    </linearGradient>
    <radialGradient id="radial-gradient" cx="176.687" cy="327.913" fx="176.687" fy="327.913" r="274.173" gradientUnits="userSpaceOnUse">
      <stop offset="0" stop-color="#c8dfc9"/>
      <stop offset="1" stop-color="#7ea287"/>
    </radialGradient>
    <linearGradient id="linear-gradient-2" x1="261.118" y1="488.475" x2="271.5" y2="634.477" gradientUnits="userSpaceOnUse">
      <stop offset="0" stop-color="#f1f2f2"/>
      <stop offset="1" stop-color="#d1d3d4"/>
    </linearGradient>
    <radialGradient id="radial-gradient-2" cx="296.427" cy="270.391" fx="296.427" fy="270.391" r="363.847" xlink:href="#radial-gradient"/>
    <linearGradient id="linear-gradient-3" x1="215.164" y1="411.259" x2="183.167" y2="443.256" xlink:href="#linear-gradient-2"/>
    <linearGradient id="linear-gradient-4" x1="316.159" y1="417.746" x2="355.525" y2="457.978" xlink:href="#linear-gradient-2"/>
    <radialGradient id="radial-gradient-3" cx="301.773" cy="223.104" fx="301.773" fy="223.104" r="299.867" gradientUnits="userSpaceOnUse">
      <stop offset="0" stop-color="#d09072"/>
      <stop offset="1" stop-color="#805848"/>
    </radialGradient>
    <linearGradient id="linear-gradient-5" x1="207.917" y1="484.495" x2="186.903" y2="523.18" gradientTransform="translate(92.813 -274.823) rotate(.234) scale(1.103) skewX(.469)" gradientUnits="userSpaceOnUse">
      <stop offset="0" stop-color="#d19878"/>
      <stop offset=".886" stop-color="#996955"/>
    </linearGradient>
    <linearGradient id="linear-gradient-6" x1="338.707" y1="360.402" x2="246.976" y2="352.355" gradientUnits="userSpaceOnUse">
      <stop offset="0" stop-color="#fff"/>
      <stop offset="1" stop-color="#d1d3d4"/>
    </linearGradient>
    <radialGradient id="radial-gradient-4" cx="259.374" cy="180.021" fx="259.374" fy="180.021" r="250.337" gradientUnits="userSpaceOnUse">
      <stop offset="0" stop-color="#231f20"/>
      <stop offset="1" stop-color="#414042"/>
    </radialGradient>
    <radialGradient id="radial-gradient-5" cx="80.219" cy="2135.365" fx="92.401" fy="2103.237" r="34.36" gradientTransform="translate(-1324.216 -3101.918) rotate(-29.7) scale(.915 1.703) skewX(-13.383)" xlink:href="#radial-gradient-3"/>
    <radialGradient id="radial-gradient-6" cx="403.406" cy="251.019" fx="412.816" fy="226.201" r="26.542" gradientTransform="translate(0 -110.556) scale(1 1.44)" xlink:href="#radial-gradient-3"/>
    <linearGradient id="linear-gradient-7" x1="222.099" y1="302.487" x2="251.424" y2="235.969" gradientUnits="userSpaceOnUse">
      <stop offset="0" stop-color="#fcfcfc" stop-opacity=".3"/>
      <stop offset="1" stop-color="#f1f2f2" stop-opacity=".1"/>
    </linearGradient>
    <linearGradient id="linear-gradient-8" x1="329.815" y1="299.155" x2="357.378" y2="236.635" xlink:href="#linear-gradient-7"/>
    <radialGradient id="radial-gradient-7" cx="142.833" cy="291.737" fx="142.833" fy="291.737" r="16.264" gradientUnits="userSpaceOnUse">
      <stop offset="0" stop-color="#f1f2f2"/>
      <stop offset="1" stop-color="#00aeef"/>
    </radialGradient>
    <radialGradient id="radial-gradient-8" cx="398.778" cy="286.161" fx="398.778" fy="286.161" r="12.292" xlink:href="#radial-gradient-7"/>
    <radialGradient id="radial-gradient-9" cx="330.183" cy="294.461" fx="330.183" fy="294.461" r="33.371" gradientUnits="userSpaceOnUse">
      <stop offset="0" stop-color="#d19878"/>
      <stop offset="1" stop-color="#996955" stop-opacity=".5"/>
    </radialGradient>
    <linearGradient id="linear-gradient-9" x1="293.389" y1="454.883" x2="318.184" y2="605.086" xlink:href="#linear-gradient-2"/>
  </defs>
  <g id="Bitmojis">
    <g id="Eco_Headshot">
      <rect class="cls-24" x="166.245" y="355.158" width="169.514" height="142.539"/>
      <path class="cls-11" d="M145.621,401.636s-30.961,21.958-70.611,41.474c-24.846,12.23-49.052,30.21-60.023,45.741-8.136,11.517-11.881,28.602-12.332,53.178-.847,46.15-2.656,82.693-2.656,82.693h212.514l-66.893-223.085Z"/>
      <path class="cls-1" d="M367.137,624.721c-3.135-78.713-9.491-195.216-20.004-209.47-8.83-11.97-15.627-6.821-19.956.236-4.467,7.282-9.265,10.012-16.657,13.68-.136,11.054-.517,34.195-16.04,61.407-10.013-15.228-23.91-36.624-27.299-56.564-11.428-.485-13.465.08-28.712-5.696-51.911-19.666-80.622-9.101-80.622-9.101l99.732,205.508h109.557Z"/>
      <path class="cls-16" d="M340.846,408.096s67.384,25.552,90.365,35.865c22.981,10.313,60.724,38.119,65.966,98.277,5.209,59.79,6.691,82.483,6.691,82.483h-132.646l-30.376-216.625Z"/>
      <path class="cls-5" d="M376.786,471.151l20.287,8.217-8.939,145.353h-28.521c-2.539-76.915-9.634-167.789-27.73-227.463,0,0,32.293,20.413,60.906,59.215l-16.003,14.677Z"/>
      <path class="cls-25" d="M237.248,502.334l36.126-48.565c-3.658-9.607-4.135-10.738-6.193-19.759-.638-.027-1.242-.051-1.826-.072l-28.107,68.396Z"/>
      <path class="cls-7" d="M135.091,477.412l-20.87,15.651s55.304,77.088,91.304,131.658h58.928c-46.149-101.799-87.131-193.92-94.289-216.578-10.763-34.067,8.486-22.472,3.587-37.062-2.89-2.245-46.832,2.2-58.949,69.782-2.744,15.304-3.171,17.439-5.016,27.274l25.304,9.275Z"/>
      <path class="cls-25" d="M310.52,429.168c-.082,6.643-.257,17.654-3.748,31.288l40.646,28.245-36.047-59.958c-.282.141-.561.282-.851.425Z"/>
      <path class="cls-12" d="M267.181,434.011c-28.984-6.489-63.33-34.092-78.743-52.469-13.328-15.891-17.157-39.767-17.157-39.767,0,0-22.82,23.901-8.976,68.242,8.362,26.783,51.694,76.718,66.328,93.077,2.405,2.688,6.714,2.306,8.615-.759l29.933-68.324Z"/>
      <path class="cls-8" d="M310.594,429.485l35.214,57.426c2.227,3.575,6.033,6.04,4.867-7.516-3.542-41.178-19.596-85.654-19.596-85.654h-4.495s4.81,15.927-15.856,34.976c-.213.196-.271.513-.134.769Z"/>
      <g id="Eco_Side_Happy">
        <path class="cls-6" d="M396.359,240.955c-2.406,107.668-33.58,134.396-46.452,157.567-18.752,33.757-82.919,31.352-108.787,11.206-15.78-12.289-76.688-45.961-92.506-71.048-19.617-31.113-17.822-48.004-17.822-97.725,0-100.272,46.262-153.819,127.282-153.819s140.524,53.572,138.284,153.819Z"/>
        <circle class="cls-3" cx="246.919" cy="246.468" r="12.652"/>
        <circle class="cls-3" cx="349.907" cy="246.468" r="12.652"/>
        <path d="M193.432,232.59s8.023-11.477,12.759-14.725c5.026-3.447,8.831-7.179,21.582-7.61,16.955-.573,38.194,3.707,38.194,3.707,0,0,11.475,2.251,14.609,8.44,3.133,6.189-1.83,7.034-3.861,7.17-3.699.248-10.777-2.381-15.331-3.001-6.091-.83-14.009-2.665-20.011-3.146-6.291-.504-14.71-1.453-24.691-.364-6.245.681-23.25,9.529-23.25,9.529Z"/>
        <path d="M393.249,232.422s-6.705-10.777-10.677-13.818c-4.214-3.227-7.4-6.728-18.123-7.087-14.258-.478-32.135,3.63-32.135,3.63,0,0-9.659,2.161-12.317,8.001-2.658,5.839,1.513,6.616,3.221,6.737,3.11.22,9.072-2.281,12.905-2.882,5.125-.804,11.791-2.56,16.841-3.036,5.292-.498,12.377-1.422,20.767-.433,5.249.619,19.519,8.888,19.519,8.888Z"/>
        <path class="cls-13" d="M333.694,287.856c12.677,12.391,4.04,29.987-5.755,31.165-18.545,2.23-14.48-7.083-33.356-3.246-7.619,1.549-14.322-12.208-12.772-19.167,2.31-10.368,14.145-14.996,12.592-41.543-.882-15.07,15.539-11.712,17.26-.759,1.711,10.886,11.598,23.353,22.03,33.55Z"/>
        <path class="cls-21" d="M244.387,345.319l38.783,3.007,64.192-3.007s-9.54,28.198-46.951,27.392c-37.41-.806-56.024-27.392-56.024-27.392Z"/>
        <path class="cls-4" d="M304.158,364.927c21.619-.187,36.431-11.574,43.204-19.608,1.268,14.862-14.282,30.758-35.186,31.802-25.692,1.284-53.009-11.416-69.182-32.096,0,0-.369-.549,1.394.293,7.817,3.737,34.271,19.829,59.771,19.608Z"/>
        <path class="cls-10" d="M348.37,344.85c3.295-1.589-8.996-6.408-15.421-7.617-7.983-1.502-18.88,2.441-18.88,2.441,0,0-3.524-2.091-9.178-2.745-26.765-3.097-60.751,4.216-61.898,8.097,0,0,27.456,5.993,49.601,6.289,22.596.302,40.783.764,55.776-6.465Z"/>
        <path class="cls-18" d="M372.712,198.697c-13.679-.863-12.784-20.444-16.154-30.966-2.25-7.027-14.525-9.679-13.738-20.468-3.047.497-1.357,6.2-3.056,9.141-6.462,11.189-33.607-6.397-27.411-21.154-7.02,5.014-16.185-.725-18.518-8.476-2.35-7.806,2.263-13.777-10.334-12.081,7.02,9.112,2.894,18.552-8.024,18.862,5.079,10.163,5.175,17.674-2.519,20.982-1.669.718-5.102,1.252-7.778.447-3.391-1.019-6.189-1.788-8.447-4.649-5.12-6.487-6.257-9.612-5.322-18.515l-6.398,1.732c8.012,8.056-1.616,15.806-1.32,19.402.422,5.141,5.95,8.519,4.618,19.236-.756,6.086-6.486,9.412-6.482,10.207.006,1.018.432,14.236-12.37,21.327-5.449,3.018-18.577-5.727-22.748-10.252-2.586-2.806-10.159-10.651-12.935-11.444-1.737,7.215-14.647,19.521-14.933,25.674-.186,3.994,6.185,7.88,6.468,12.235.235,3.625-4.706,8.372-4.692,13.899.029,11.329-4.924,7.395-10.191,9.524-1.752.708-1.248,3.95-5.54,4.711-13.478,2.39-7.998-8.294-10.471-13.018-.398-.76-3.181-1.271-4.276-3.045-2.651-4.293-5.7-3.11-7.245-9.146-3.506-13.696-5.364-23.568-3.338-14.21.888,4.101.268,35.407-.238,38.147-.336,1.816,1.696.791,0,5.484-8.633,23.887-20.129,12.546,1.304,3.636l-14.178,13.888c5.96,20.504,5.028,15.812,7.868,26.464,1.639,6.149,9.997,28.587,7.391,34.332-2.885,6.36-5.484,11.888-18.137,12.874-13.648,1.064-13.811-4.768-19.89-9.119-28.983,7.073-27.083-16.567-27.083-16.567-9.729,1.149-13.557-3.358-14.443-13.722-.594-6.945,1.129-12.685,1.129-12.685-10.967-2.027-11.843-18.423.98-19.615-14.496-7.033-7.068-17.419-7.068-17.419-1.023-.832-11.554,8.955-18.245-2.489-4.332-7.409.634-9.831.341-13.505-.216-2.7-3.809-6.179-4.272-9.298-.599-4.036,1.628-6.85,1.442-9.636-.05-.753-7.412-2.679-4.227-13.168,2.329-7.669,12.802-7.183,14.619-10.135,1.532-2.49-7.349-13.132-4.939-18.429,1.795-3.945,11.156-11.8,11.192-13.318.02-.826-4.813-8.173-4.574-15.475.266-8.104,6.145-12.711,6.156-13.666.024-2.087-5.45-5.554-1.622-14.214,3.073-6.952,17.289-9.971,17.841-10.915.858-1.468-.224-7.591,2.027-12.41,3.792-8.12,11.475-6.64,14.983-11.232,3.338-4.369,3.412-13.765,8.498-19.204,4.429-4.737,10.5-4.325,13.83-6.645,4.51-3.143,3.287-14.538,14.399-17.23,8.304-2.012,9.966,2.852,13.621,2.837.952-.004,1.42-3.773,3.088-5.425,1.441-1.427,2.899-3.099,8.029-3.517,2.645-.215,5.798,1.199,6.97,1.927,11.19,6.948,14.446-3.532,26.118,1.736,0,0,1.495-2.577,2.423-3.694,12.911-16.135,32.146-15.747,43.301,1.988l2.362-.003c1.281-10.1,4.262-10.45,9.669-15.331,3.209-2.896,1.458-9.146,3.513-14.841,4.516-12.517,28.056-11.131,34.969-1.515,1.466,2.039,3.066,4.878,5.909,5.606,2.297.589,3.765-2.695,10.016-3.224,8.752-.74,12.988-.462,20.483,4.879,4.516,3.219,5.631,7.272,8.694,15.654,1.3,3.556,18.915-6.717,28.736,2.692,1.928,1.847,3.497,6.262,4.653,6.954,1.18.707,4.419-1.033,6.807-.513,17.384,3.788,20.207,14.473,18.927,32.23,18.764-3.358,35.611,9.588,33.694,30.852,15.662-5.323,29.884,3.489,24.717,22.371,11.576,2.638,23.816,10.508,17.387,25.226-2.78,6.366-11.642,2.952-8.241,13.932,15.03.73,11.314,25.828-1.795,20.777-4.081-1.572-4.796,1.702-4.796,1.702.598,5.511,5.544,6.774,6.348,12.997.72,5.57-1.463,9.098-1.623,13.655-.142,4.023,2.298,7.93,1.44,11.529-1.659,6.956-14.266,7.786-14.241,9.022l2.467,5.967c1.886,3.971,2.22,7.548.791,11.987l-4.815,6.862c5.48,17.104-2.743,30.853-16.976,25.637,6.706,27.031-23.863,4.476-23.863,4.476,0,0,5.326-20.142,1.824-72.352-1.149-17.131-11.712-50.845-11.712-50.845,0,0,2.413,33.914-10.819,33.08Z"/>
        <path class="cls-9" d="M152.579,230.003c5.815,25.477,10.374,63.751-2.857,66.771s-28.671-15.185-34.486-40.662-3.192-49.98,10.039-53c13.231-3.02,21.489,1.414,27.305,26.891Z"/>
        <path class="cls-22" d="M403.822,216.487c-3.27-.747-6.154-.913-8.714-.172.491,8.149.942,16.082.751,24.64-.411,18.375-1.459,31.616-3.073,45.246,7.767-4.3,15.608-13.39,18.94-27.986,4.578-20.059,2.513-39.35-7.904-41.728Z"/>
        <g>
          <ellipse class="cls-19" cx="246.541" cy="247.045" rx="43.809" ry="33.484"/>
          <ellipse class="cls-14" cx="352.788" cy="247.046" rx="38.534" ry="32.113"/>
          <path class="cls-17" d="M352.5,213.237c-21.095,0-38.383,14.2-39.482,32.008-10.031-2.867-18.012-1.128-21.368-.081-1.272-18.348-21.017-32.974-45.109-32.974-24.489,0-45.178,15.962-45.178,34.855,0,19.219,20.267,34.855,45.178,34.855,24.482,0,44.465-15.106,45.145-33.871,2.492-.852,10.823-3.13,21.306.053.645,18.163,18.113,32.77,39.508,32.77,21.802,0,39.539-15.166,39.539-33.807s-17.737-33.808-39.539-33.808ZM246.542,279.159c-23.493,0-42.606-14.406-42.606-32.113,0-17.407,19.512-32.113,42.606-32.113,23.493,0,42.605,14.406,42.605,32.113s-19.112,32.113-42.605,32.113ZM352.5,278.111c-20.384,0-36.967-13.936-36.967-31.066s16.583-31.066,36.967-31.066,36.967,13.937,36.967,31.066-16.583,31.066-36.967,31.066Z"/>
        </g>
        <circle class="cls-23" cx="139.763" cy="297.102" r="10.729"/>
        <path class="cls-15" d="M394.513,281.901c-.423,0-.835.041-1.242.101-.627,5.712-1.352,11.11-2.157,16.231,1.042.454,2.19.709,3.399.709,4.705,0,8.52-3.815,8.52-8.52s-3.815-8.52-8.52-8.52Z"/>
        <path class="cls-2" d="M333.694,287.856c-.007-.007-.015-.014-.022-.021-1.975-1.931-4.412-3.377-7.119-3.927-1.779-.362-3.65-.468-5.575-.277-8.913.884-16.037,8.216-16.673,17.15-.466,6.54,2.465,12.407,7.192,16.064,3.624,1.558,7.264,3.281,16.443,2.177,9.794-1.178,18.432-18.774,5.754-31.165Z"/>
      </g>
      <path class="cls-20" d="M294.48,490.575c-3.203-4.87-6.802-10.374-10.328-16.256,4.344,15.392,34.697,123.036,41.565,150.403h8.155c-13.907-58.716-31.772-119.553-37.29-137.994-.671,1.274-1.364,2.555-2.101,3.848Z"/>
    </g>
  </g>
</svg>