<?xml version="1.0" encoding="UTF-8"?>
<svg id="Layer_2" data-name="Layer 2" xmlns="http://www.w3.org/2000/svg" xmlns:xlink="http://www.w3.org/1999/xlink" viewBox="0 0 433.712 452.844">
  <defs>
    <style>
      .cls-1 {
        fill: url(#linear-gradient-2);
      }

      .cls-2 {
        fill: #231f20;
      }

      .cls-3 {
        fill: #d97c80;
      }

      .cls-4 {
        fill: url(#linear-gradient-4);
      }

      .cls-5 {
        fill: url(#radial-gradient-5);
      }

      .cls-6 {
        fill: #ea979f;
      }

      .cls-7 {
        fill: url(#radial-gradient-3);
      }

      .cls-8 {
        fill: url(#linear-gradient-3);
      }

      .cls-9 {
        fill: url(#radial-gradient-2);
      }

      .cls-10 {
        fill: #d1d3d4;
      }

      .cls-11 {
        fill: url(#radial-gradient-4);
      }

      .cls-12 {
        fill: url(#radial-gradient-6);
      }

      .cls-13 {
        fill: url(#radial-gradient);
        fill-rule: evenodd;
      }

      .cls-14 {
        fill: url(#radial-gradient-7);
      }

      .cls-15 {
        fill: url(#linear-gradient);
      }
    </style>
    <radialGradient id="radial-gradient" cx="226.417" cy="187.263" fx="226.417" fy="187.263" r="413.349" gradientUnits="userSpaceOnUse">
      <stop offset="0" stop-color="#d09072"/>
      <stop offset="1" stop-color="#805848"/>
    </radialGradient>
    <radialGradient id="radial-gradient-2" cx="216.856" cy="216.916" fx="216.856" fy="216.916" r="281.755" gradientUnits="userSpaceOnUse">
      <stop offset="0" stop-color="#231f20"/>
      <stop offset="1" stop-color="#414042"/>
    </radialGradient>
    <radialGradient id="radial-gradient-3" cx="375.332" cy="250.624" fx="388.215" fy="216.649" r="36.336" gradientTransform="translate(-18.292 -86.295) rotate(-3.551) scale(1 1.44)" xlink:href="#radial-gradient"/>
    <radialGradient id="radial-gradient-4" cx="458.099" cy="255.761" fx="470.982" fy="221.786" r="36.336" gradientTransform="translate(544.733 -88.554) rotate(-176.449) scale(1 -1.44)" xlink:href="#radial-gradient"/>
    <linearGradient id="linear-gradient" x1="221.683" y1="256.524" x2="221.683" y2="319.433" gradientUnits="userSpaceOnUse">
      <stop offset="0" stop-color="#d19878"/>
      <stop offset="1" stop-color="#996955"/>
    </linearGradient>
    <radialGradient id="radial-gradient-5" cx="225.504" cy="311.959" fx="225.504" fy="311.959" r="29.878" gradientTransform="translate(34.043 25.25) scale(.846 .924)" gradientUnits="userSpaceOnUse">
      <stop offset="0" stop-color="#d19878"/>
      <stop offset="1" stop-color="#996955" stop-opacity=".5"/>
    </radialGradient>
    <linearGradient id="linear-gradient-2" x1="281.117" y1="373.029" x2="156.856" y2="373.029" gradientUnits="userSpaceOnUse">
      <stop offset="0" stop-color="#fff"/>
      <stop offset="1" stop-color="#d1d3d4"/>
    </linearGradient>
    <radialGradient id="radial-gradient-6" cx="80.304" cy="294.754" fx="80.304" fy="294.754" r="19.26" gradientUnits="userSpaceOnUse">
      <stop offset="0" stop-color="#f1f2f2"/>
      <stop offset="1" stop-color="#00aeef"/>
    </radialGradient>
    <radialGradient id="radial-gradient-7" cx="-232.321" cy="293.872" fx="-232.321" fy="293.872" r="16.641" gradientTransform="translate(138.457) rotate(-180) scale(1 -1)" xlink:href="#radial-gradient-6"/>
    <linearGradient id="linear-gradient-3" x1="128.098" y1="315.65" x2="162.392" y2="237.862" gradientUnits="userSpaceOnUse">
      <stop offset="0" stop-color="#fcfcfc" stop-opacity=".3"/>
      <stop offset="1" stop-color="#f1f2f2" stop-opacity=".1"/>
    </linearGradient>
    <linearGradient id="linear-gradient-4" x1="258.107" y1="315.648" x2="292.4" y2="237.86" xlink:href="#linear-gradient-3"/>
  </defs>
  <g id="Bitmojis">
    <g id="Eco_Front_Happy">
      <path class="cls-13" d="M349.457,358.975c-17.3,27.44-51.08,64.29-68.35,77.73-12.96,10.09-37.69,16.12-59.42,16.14-21.73-.02-46.46-6.05-59.41-16.14-17.27-13.44-51.05-50.29-68.36-77.73-21.46-34.05-19.5-52.53-19.5-106.93,0-109.72,58.62-168.31,147.27-168.31s147.27,39.431,147.27,168.31c0,54.4,1.97,72.88-19.5,106.93Z"/>
      <path class="cls-9" d="M74.667,277.535c.337,6.949,1.666,32.058,5.674,54.778-5.217,3.657-16.826,4.7-16.826,4.7-30.814,2.88-33.756-23.2-33.756-23.2-10.148-.36-13.37-5.87-12.659-17.22.474-7.61,3.136-13.54,3.136-13.54-10.925-4-9.267-21.88,4.065-21.05-13.758-10-4.52-20.01-4.52-20.01-.919-1.07-13.247,7.78-18.316-5.7-3.278-8.73,2.189-10.53,2.454-14.55.209-2.96-2.937-7.31-2.918-10.76.01-4.47,2.739-7.14,2.975-10.19.066-.82-7.173-4.12-2.274-14.94,3.581-7.91,14.241-5.66,16.563-8.55,1.961-2.44-5.477-15.42-2.18-20.75,2.454-3.97,13.275-10.93,13.55-12.56.152-.89-3.657-9.64-2.274-17.5,1.535-8.72,8.281-12.73,8.443-13.76.35-2.26-4.719-6.91.559-15.65,4.235-7.01,19.273-7.93,19.983-8.86,1.118-1.45.957-8.25,4.018-13.09,5.155-8.16,12.801-5.3,17.112-9.68,4.103-4.18,5.647-14.33,11.712-19.38,5.278-4.39,11.437-2.95,15.208-4.91,5.117-2.65,5.638-15.18,17.444-16.26,8.831-.81,9.769,4.72,13.521,5.31.976.15,2.046-3.85,4.008-5.36,1.705-1.3,3.458-2.87,8.784-2.48,1.45.11,2.975.73,4.245,1.43,3.515-11.59,13.796-19.98,25.953-19.98,8.017,0,15.227,3.66,20.202,9.47,3.193-1.4,6.699-2.17,10.376-2.17,3.61,0,7.05.74,10.205,2.1,4.975-5.771,12.157-9.4,20.145-9.4,3.818,0,7.438.83,10.736,2.32,7.448-11.16,29.933-5.76,35.334,5.38,1.184,2.44,2.378,5.78,5.183,7.03,2.255,1.02,4.274-2.29,10.764-1.83,9.087.64,13.389,1.64,20.23,8.65,4.132,4.23,4.643,8.79,6.472,18.37.777,4.06,20.438-4.15,29.033,7.64,1.686,2.32,2.606,7.35,3.686,8.29,1.099.96,4.69-.39,7.059.57,17.226,6.96,18.449,18.98,14.365,37.98,19.756-.54,35.002,16.24,29.715,38.92,14.983,2.914,15.178,22.675,4.785,28.28,11.456,4.76,22.769,15.29,13.881,30.15-3.838,6.43-18.411,3.255-11.184,13.534,4.191,5.96,3.375,16.582-4.321,19.125-4.367,1.443-5.379,4.281-5.379,4.281-.247,6.06,11.278,8.865,10.165,17.571-1.499,11.733-8.611,7.129-9.483,12.04-.777,4.33,4.848,2.732,4.755,9.286-.084,5.974-5.145,5.625-2.781,10.239,1.481,2.891.347,7.454.347,7.454,1.317,4.61,1.724,8.923-1.061,13.1-1.25,1.874-6.007,6.62-6.007,6.62,2.947,19.41-7.628,32.93-21.395,24.94,2.653,30.34-22.785,1.444-22.785,1.444,0,0,6.231-21.444,10.79-78.494.677-8.467-12.546-94.808-25.005-100.021-6.614-2.767-12.421,28.37-20.393,27.391-7.119-.874-3.411-17.778-7.045-21.326-4.454-4.349-8.125,12.232-8.475,17.025-.492,6.737.936,23.344-12.906,23.344-12.089,0-13.256-13.564-15.075-25.504-1.203-7.97-13.37-12.86-10.878-24.4-3.203.03-2.359,6.479-4.567,9.38-8.367,11.04-28.773-17.165-27.735-36.535-6.065,16.826-22.062,10.531-23.247,1.761-1.184-8.83-3.166-7.043-9.642-9.616,5.77,11.02-6.567,15.55-17.804,14.08,3.619,11.83,2.549,19.97-5.856,22.28-1.828.5-5.429.52-8.045-.79-3.316-1.67-6.064-2.96-7.931-6.42-4.236-7.87-4.908-11.43-2.568-20.91l-5.509-4.065c-1.668,14.283-8.287,16.715-8.543,20.655-.37,5.63,4.766,10.2,1.734,21.57-1.725,6.46-8.121,9.11-8.244,9.97-.151,1.1-1.772,15.47-16.004,21.03-6.054,2.37-18.145-9.25-21.718-14.83-2.208-3.47-8.45-14.658-11.465-14.51-10.617.523-16.288,37.781-16.288,37.781,0,0-6.784,22.412-4.307,73.481Z"/>
      <path class="cls-7" d="M376.321,203.551c-4.531-.743-8.486-.726-11.922.504,1.361,11.092,2.652,21.894,3.116,33.603.997,25.142.687,43.322-.362,62.083,10.247-6.534,20.191-19.62,23.505-39.845,4.554-27.795.097-53.979-14.338-56.345Z"/>
      <path class="cls-11" d="M67.053,203.551c4.531-.743,8.486-.726,11.922.504-1.361,11.092-2.652,21.894-3.116,33.603-.997,25.142-.687,43.322.362,62.083-10.247-6.534-20.191-19.62-23.505-39.845-4.554-27.795-.097-53.979,14.338-56.345Z"/>
      <path class="cls-15" d="M247.355,326.061c-10.12,2.22-14.9,7.21-25.67,7.21s-15.56-4.99-25.67-7.21c-14.87-3.25-16.18-19.33-1.35-26.7,9.84-4.9,8.12-4.56,9.65-17.48,1.09-9.18,1.3-9.68,2.86-21.59.55-4.19,3.14-8.14,7.64-10.4,1.95-.97,4.24-1.65,6.87-1.65s4.92.68,6.87,1.65c4.49,2.26,7.08,6.21,7.63,10.4,1.57,11.91,1.78,12.41,2.86,21.59,1.54,12.92-.19,12.58,9.66,17.48,14.82,7.37,13.52,23.45-1.35,26.7Z"/>
      <ellipse class="cls-5" cx="221.687" cy="316.505" rx="21.947" ry="16.765"/>
      <g>
        <path class="cls-1" d="M151.786,358.034s35.04,3.171,69.917,3.171,69.949-2.101,69.949-2.101c0,0-32.703,28.92-69.933,28.92s-69.933-29.99-69.933-29.99Z"/>
        <path class="cls-3" d="M292.955,359.099s-21.616,36.65-71.257,36.65-71.246-37.804-71.246-37.804c0,0,.32-.439,1.589.207,9.809,4.191,28.013,25.672,69.657,25.418,41.643.254,59.859-20.073,69.656-24.264,1.269-.646,1.601-.207,1.601-.207Z"/>
        <path class="cls-6" d="M292.955,359.099s-43.469,9.015-71.257,9.35c-27.777-.334-71.246-10.504-71.246-10.504,5.693-5.402,32.925-8.265,59.741-5.61,7.092.693,11.505,3.071,11.505,3.071,0,0,4.424-2.378,11.516-3.071,26.816-2.655,54.035,1.362,59.741,6.765Z"/>
      </g>
      <path class="cls-12" d="M75.666,288.006c-.033,0-.064-.005-.097-.005-6.483,0-11.471,5.256-11.471,11.739s5.256,11.739,11.739,11.739c.517,0,1.022-.045,1.522-.11-.487-5.714-1.407-14.69-1.694-23.364Z"/>
      <path class="cls-14" d="M367.708,288.007c.033,0,.064-.005.097-.005,6.483,0,11.502,5.258,11.502,11.742,0,6.483-5.256,11.739-11.739,11.739-.517,0-1.022-.045-1.522-.11.487-5.714,1.377-14.692,1.663-23.366Z"/>
      <circle class="cls-2" cx="163.585" cy="250.718" r="13.844"/>
      <circle class="cls-2" cx="279.198" cy="250.718" r="13.844"/>
      <path d="M103.855,239.596s9.103-12.569,14.473-16.13c5.698-3.779,10.012-7.868,24.457-8.357,19.206-.651,43.257,4.003,43.257,4.003,0,0,12.995,2.447,16.535,9.215,3.54,6.768-2.083,7.699-4.384,7.851-4.19.277-12.203-2.59-17.361-3.262-6.898-.899-15.864-2.896-22.661-3.415-7.125-.543-16.66-1.569-27.967-.364-7.074.754-26.349,10.46-26.349,10.46Z"/>
      <path d="M338.927,239.596s-9.103-12.569-14.473-16.13c-5.698-3.779-10.012-7.868-24.457-8.357-19.206-.651-43.257,4.003-43.257,4.003,0,0-12.995,2.447-16.535,9.215-3.54,6.768,2.083,7.699,4.384,7.851,4.19.277,12.203-2.59,17.361-3.262,6.898-.899,15.864-2.896,22.661-3.415,7.125-.543,16.66-1.569,27.967-.364,7.074.754,26.349,10.46,26.349,10.46Z"/>
      <g>
        <ellipse class="cls-8" cx="156.682" cy="250.815" rx="51.231" ry="39.157"/>
        <ellipse class="cls-4" cx="286.69" cy="250.813" rx="51.231" ry="39.157"/>
        <path class="cls-10" d="M286.69,210.05c-28.173,0-51.269,17.111-52.755,38.561-2.351-.727-6.648-1.753-12.248-1.732-5.6-.021-9.897,1.005-12.248,1.732-1.496-21.45-24.582-38.561-52.755-38.561-28.643,0-52.83,18.672-52.83,40.763,0,22.476,23.695,40.763,52.83,40.763,28.632,0,51.996-17.667,52.786-39.608,1.817-.62,6.145-1.892,12.216-1.86,6.071-.032,10.399,1.24,12.205,1.86.802,21.942,24.165,39.608,52.797,39.608,29.135,0,52.83-18.287,52.83-40.763,0-22.091-24.186-40.763-52.83-40.763ZM156.685,288.369c-27.478,0-49.826-16.844-49.826-37.556,0-20.349,22.818-37.557,49.826-37.557,27.467,0,49.826,16.855,49.826,37.557s-22.359,37.556-49.826,37.556ZM286.69,288.369c-27.467,0-49.826-16.844-49.826-37.556s22.359-37.557,49.826-37.557c27.008,0,49.826,17.207,49.826,37.557,0,20.713-22.348,37.556-49.826,37.556Z"/>
      </g>
    </g>
  </g>
</svg>