<?xml version="1.0" encoding="UTF-8"?>
<svg id="Layer_2" data-name="Layer 2" xmlns="http://www.w3.org/2000/svg" xmlns:xlink="http://www.w3.org/1999/xlink" viewBox="0 0 470.726 585.411">
  <defs>
    <style>
      .cls-1 {
        fill: url(#radial-gradient-10);
      }

      .cls-2 {
        fill: url(#linear-gradient-2);
      }

      .cls-3 {
        fill: url(#radial-gradient-9);
      }

      .cls-4 {
        fill: #231f20;
      }

      .cls-5 {
        fill: #d97c80;
      }

      .cls-6 {
        fill: url(#radial-gradient-14);
      }

      .cls-7 {
        fill: url(#linear-gradient-4);
      }

      .cls-8 {
        fill: url(#radial-gradient-5);
      }

      .cls-9 {
        fill: #ea979f;
      }

      .cls-10 {
        fill: url(#radial-gradient-3);
      }

      .cls-11 {
        fill: #75584c;
      }

      .cls-12 {
        fill: url(#linear-gradient-3);
      }

      .cls-13 {
        fill: url(#radial-gradient-11);
      }

      .cls-14 {
        fill: url(#radial-gradient-8);
      }

      .cls-15 {
        fill: url(#radial-gradient-2);
      }

      .cls-16 {
        fill: #d1d3d4;
      }

      .cls-17 {
        fill: url(#radial-gradient-4);
      }

      .cls-18 {
        fill: url(#radial-gradient-12);
      }

      .cls-19 {
        fill: url(#radial-gradient-6);
      }

      .cls-20 {
        fill: url(#radial-gradient);
        fill-rule: evenodd;
      }

      .cls-21 {
        fill: url(#radial-gradient-7);
      }

      .cls-22 {
        fill: url(#radial-gradient-13);
      }

      .cls-23 {
        fill: url(#linear-gradient);
      }

      .cls-24 {
        fill: #414042;
      }
    </style>
    <radialGradient id="radial-gradient" cx="226.417" cy="187.263" fx="226.417" fy="187.263" r="413.349" gradientUnits="userSpaceOnUse">
      <stop offset="0" stop-color="#d09072"/>
      <stop offset="1" stop-color="#805848"/>
    </radialGradient>
    <radialGradient id="radial-gradient-2" cx="216.856" cy="216.916" fx="216.856" fy="216.916" r="281.755" gradientUnits="userSpaceOnUse">
      <stop offset="0" stop-color="#231f20"/>
      <stop offset="1" stop-color="#414042"/>
    </radialGradient>
    <radialGradient id="radial-gradient-3" cx="373.448" cy="311.386" fx="386.331" fy="277.411" r="36.336" gradientTransform="translate(-21.834 -173.767) rotate(-3.551) scale(1 1.44)" xlink:href="#radial-gradient"/>
    <radialGradient id="radial-gradient-4" cx="-1501.82" cy="194.999" fx="-1488.937" fy="161.024" r="36.336" gradientTransform="translate(-1416.844 -122.605) rotate(-176.449) scale(1 -1.44)" xlink:href="#radial-gradient"/>
    <linearGradient id="linear-gradient" x1="221.683" y1="256.524" x2="221.683" y2="319.433" gradientUnits="userSpaceOnUse">
      <stop offset="0" stop-color="#d19878"/>
      <stop offset="1" stop-color="#996955"/>
    </linearGradient>
    <radialGradient id="radial-gradient-5" cx="403.461" cy="311.959" fx="403.461" fy="311.959" r="29.878" gradientTransform="translate(-116.587 25.25) scale(.846 .924)" gradientUnits="userSpaceOnUse">
      <stop offset="0" stop-color="#d19878"/>
      <stop offset="1" stop-color="#996955" stop-opacity=".5"/>
    </radialGradient>
    <radialGradient id="radial-gradient-6" cx="80.304" cy="294.754" fx="80.304" fy="294.754" r="19.26" gradientUnits="userSpaceOnUse">
      <stop offset="0" stop-color="#f1f2f2"/>
      <stop offset="1" stop-color="#00aeef"/>
    </radialGradient>
    <radialGradient id="radial-gradient-7" cx="-2194.125" cy="293.872" fx="-2194.125" fy="293.872" r="16.641" gradientTransform="translate(-1823.346) rotate(-180) scale(1 -1)" xlink:href="#radial-gradient-6"/>
    <linearGradient id="linear-gradient-2" x1="128.098" y1="315.65" x2="162.392" y2="237.862" gradientUnits="userSpaceOnUse">
      <stop offset="0" stop-color="#fcfcfc" stop-opacity=".3"/>
      <stop offset="1" stop-color="#f1f2f2" stop-opacity=".1"/>
    </linearGradient>
    <linearGradient id="linear-gradient-3" x1="258.107" y1="315.648" x2="292.4" y2="237.86" xlink:href="#linear-gradient-2"/>
    <linearGradient id="linear-gradient-4" x1="275.558" y1="370.911" x2="153.045" y2="355.22" gradientTransform="translate(-20.688 11.404) rotate(-3.31)" gradientUnits="userSpaceOnUse">
      <stop offset="0" stop-color="#fff"/>
      <stop offset="1" stop-color="#d1d3d4"/>
    </linearGradient>
    <radialGradient id="radial-gradient-8" cx="448.615" cy="-1862.122" fx="448.615" fy="-1862.122" r="365.907" gradientTransform="translate(0 -1297.186) scale(1 -1)" gradientUnits="userSpaceOnUse">
      <stop offset="0" stop-color="#d09072"/>
      <stop offset="1" stop-color="#805848"/>
    </radialGradient>
    <radialGradient id="radial-gradient-9" cx="429.681" cy="-1834.553" fx="429.681" fy="-1834.553" r="188.85" xlink:href="#radial-gradient-8"/>
    <radialGradient id="radial-gradient-10" cx="-2271.552" cy="-313.831" fx="-2271.552" fy="-313.831" r="95.938" gradientTransform="translate(2728.487 121.835) rotate(-.758) scale(1 -1)" xlink:href="#radial-gradient-8"/>
    <radialGradient id="radial-gradient-11" cx="-2275.942" cy="-279.622" fx="-2275.942" fy="-279.622" r="86.933" gradientTransform="translate(2728.487 121.835) rotate(-.758) scale(1 -1)" xlink:href="#radial-gradient-8"/>
    <radialGradient id="radial-gradient-12" cx="-2333.518" cy="-155.309" fx="-2333.518" fy="-155.309" r="72.463" gradientTransform="translate(2881.893 196.535) rotate(-.758) scale(1.048 -1.152)" xlink:href="#radial-gradient-8"/>
    <radialGradient id="radial-gradient-13" cx="-2381.121" cy="-400.878" fx="-2381.121" fy="-400.878" r="158.069" gradientTransform="translate(2728.487 121.835) rotate(-.758) scale(1 -1)" gradientUnits="userSpaceOnUse">
      <stop offset="0" stop-color="#d09072"/>
      <stop offset="1" stop-color="#805848"/>
    </radialGradient>
    <radialGradient id="radial-gradient-14" cx="447.42" cy="-1821.51" fx="447.42" fy="-1821.51" r="200.782" xlink:href="#radial-gradient-8"/>
  </defs>
  <g id="Bitmojis">
    <g id="Eco_Front_Disapprove">
      <path class="cls-20" d="M349.457,358.975c-17.3,27.44-51.08,64.29-68.35,77.73-12.96,10.09-37.69,16.12-59.42,16.14-21.73-.02-46.46-6.05-59.41-16.14-17.27-13.44-51.05-50.29-68.36-77.73-21.46-34.05-19.5-52.53-19.5-106.93,0-109.72,58.62-168.31,147.27-168.31s147.27,39.431,147.27,168.31c0,54.4,1.97,72.88-19.5,106.93Z"/>
      <path class="cls-15" d="M74.667,277.535c.337,6.949,1.666,32.058,5.674,54.778-5.217,3.657-16.826,4.7-16.826,4.7-30.814,2.88-33.756-23.2-33.756-23.2-10.148-.36-13.37-5.87-12.659-17.22.474-7.61,3.136-13.54,3.136-13.54-10.925-4-9.267-21.88,4.065-21.05-13.758-10-4.52-20.01-4.52-20.01-.919-1.07-13.247,7.78-18.316-5.7-3.278-8.73,2.189-10.53,2.454-14.55.209-2.96-2.937-7.31-2.918-10.76.01-4.47,2.739-7.14,2.975-10.19.066-.82-7.173-4.12-2.274-14.94,3.581-7.91,14.241-5.66,16.563-8.55,1.961-2.44-5.477-15.42-2.18-20.75,2.454-3.97,13.275-10.93,13.55-12.56.152-.89-3.657-9.64-2.274-17.5,1.535-8.72,8.281-12.73,8.443-13.76.35-2.26-4.719-6.91.559-15.65,4.235-7.01,19.273-7.93,19.983-8.86,1.118-1.45.957-8.25,4.018-13.09,5.155-8.16,12.801-5.3,17.112-9.68,4.103-4.18,5.647-14.33,11.712-19.38,5.278-4.39,11.437-2.95,15.208-4.91,5.117-2.65,5.638-15.18,17.444-16.26,8.831-.81,9.769,4.72,13.521,5.31.976.15,2.046-3.85,4.008-5.36,1.705-1.3,3.458-2.87,8.784-2.48,1.45.11,2.975.73,4.245,1.43,3.515-11.59,13.796-19.98,25.953-19.98,8.017,0,15.227,3.66,20.202,9.47,3.193-1.4,6.699-2.17,10.376-2.17,3.61,0,7.05.74,10.205,2.1,4.975-5.771,12.157-9.4,20.145-9.4,3.818,0,7.438.83,10.736,2.32,7.448-11.16,29.933-5.76,35.334,5.38,1.184,2.44,2.378,5.78,5.183,7.03,2.255,1.02,4.274-2.29,10.764-1.83,9.087.64,13.389,1.64,20.23,8.65,4.132,4.23,4.643,8.79,6.472,18.37.777,4.06,20.438-4.15,29.033,7.64,1.686,2.32,2.606,7.35,3.686,8.29,1.099.96,4.69-.39,7.059.57,17.226,6.96,18.449,18.98,14.365,37.98,19.756-.54,35.002,16.24,29.715,38.92,14.983,2.914,15.178,22.675,4.785,28.28,11.456,4.76,22.769,15.29,13.881,30.15-3.838,6.43-18.411,3.255-11.184,13.534,4.191,5.96,3.375,16.582-4.321,19.125-4.367,1.443-5.379,4.281-5.379,4.281-.247,6.06,11.278,8.865,10.165,17.571-1.499,11.733-8.611,7.129-9.483,12.04-.777,4.33,4.848,2.732,4.755,9.286-.084,5.974-5.145,5.625-2.781,10.239,1.481,2.891.347,7.454.347,7.454,1.317,4.61,1.724,8.923-1.061,13.1-1.25,1.874-6.007,6.62-6.007,6.62,2.947,19.41-7.628,32.93-21.395,24.94,2.653,30.34-22.785,1.444-22.785,1.444,0,0,6.231-21.444,10.79-78.494.677-8.467-12.546-94.808-25.005-100.021-6.614-2.767-12.421,28.37-20.393,27.391-7.119-.874-3.411-17.778-7.045-21.326-4.454-4.349-8.125,12.232-8.475,17.025-.492,6.737.936,23.344-12.906,23.344-12.089,0-13.256-13.564-15.075-25.504-1.203-7.97-13.37-12.86-10.878-24.4-3.203.03-2.359,6.479-4.567,9.38-8.367,11.04-28.773-17.165-27.735-36.535-6.065,16.826-22.062,10.531-23.247,1.761-1.184-8.83-3.166-7.043-9.642-9.616,5.77,11.02-6.567,15.55-17.804,14.08,3.619,11.83,2.549,19.97-5.856,22.28-1.828.5-5.429.52-8.045-.79-3.316-1.67-6.064-2.96-7.931-6.42-4.236-7.87-4.908-11.43-2.568-20.91l-5.509-4.065c-1.668,14.283-8.287,16.715-8.543,20.655-.37,5.63,4.766,10.2,1.734,21.57-1.725,6.46-8.121,9.11-8.244,9.97-.151,1.1-1.772,15.47-16.004,21.03-6.054,2.37-18.145-9.25-21.718-14.83-2.208-3.47-8.45-14.658-11.465-14.51-10.617.523-16.288,37.781-16.288,37.781,0,0-6.784,22.412-4.307,73.481Z"/>
      <path class="cls-10" d="M376.321,203.551c-4.531-.743-8.486-.726-11.922.504,1.361,11.092,2.652,21.894,3.116,33.603.997,25.142.687,43.322-.362,62.083,10.247-6.534,20.191-19.62,23.505-39.845,4.554-27.795.097-53.979-14.338-56.345Z"/>
      <path class="cls-17" d="M67.053,203.551c4.531-.743,8.486-.726,11.922.504-1.361,11.092-2.652,21.894-3.116,33.603-.997,25.142-.687,43.322.362,62.083-10.247-6.534-20.191-19.62-23.505-39.845-4.554-27.795-.097-53.979,14.338-56.345Z"/>
      <path class="cls-23" d="M247.355,326.061c-10.12,2.22-14.9,7.21-25.67,7.21s-15.56-4.99-25.67-7.21c-14.87-3.25-16.18-19.33-1.35-26.7,9.84-4.9,8.12-4.56,9.65-17.48,1.09-9.18,1.3-9.68,2.86-21.59.55-4.19,3.14-8.14,7.64-10.4,1.95-.97,4.24-1.65,6.87-1.65s4.92.68,6.87,1.65c4.49,2.26,7.08,6.21,7.63,10.4,1.57,11.91,1.78,12.41,2.86,21.59,1.54,12.92-.19,12.58,9.66,17.48,14.82,7.37,13.52,23.45-1.35,26.7Z"/>
      <ellipse class="cls-8" cx="221.687" cy="316.505" rx="21.947" ry="16.765"/>
      <path class="cls-19" d="M75.666,288.006c-.033,0-.064-.005-.097-.005-6.483,0-11.471,5.256-11.471,11.739s5.256,11.739,11.739,11.739c.517,0,1.022-.045,1.522-.11-.487-5.714-1.407-14.69-1.694-23.364Z"/>
      <path class="cls-21" d="M367.708,288.007c.033,0,.064-.005.097-.005,6.483,0,11.502,5.258,11.502,11.742,0,6.483-5.256,11.739-11.739,11.739-.517,0-1.022-.045-1.522-.11.487-5.714,1.377-14.692,1.663-23.366Z"/>
      <circle class="cls-4" cx="163.585" cy="250.718" r="13.844"/>
      <circle class="cls-4" cx="279.198" cy="250.718" r="13.844"/>
      <path d="M103.526,234.657s11.531-10.387,17.527-12.745c6.362-2.503,11.437-5.599,25.664-3.056,18.917,3.381,41.463,12.963,41.463,12.963,0,0,12.195,5.111,14.242,12.47,2.046,7.359-3.647,7.093-5.929,6.76-4.155-.606-11.392-5.085-16.295-6.822-6.557-2.323-14.907-6.151-21.446-8.08-6.853-2.022-15.963-5.02-27.272-6.206-7.076-.742-27.954,4.716-27.954,4.716Z"/>
      <path d="M345.023,233.133s-11.531-10.387-17.527-12.745c-6.362-2.503-11.437-5.599-25.664-3.056-18.917,3.381-41.463,12.963-41.463,12.963,0,0-12.195,5.111-14.242,12.47-2.046,7.359,3.647,7.093,5.929,6.76,4.155-.606,11.392-5.085,16.295-6.822,6.557-2.323,14.907-6.151,21.446-8.08,6.853-2.022,15.963-5.02,27.272-6.206,7.076-.742,27.954,4.716,27.954,4.716Z"/>
      <g>
        <ellipse class="cls-2" cx="156.682" cy="250.815" rx="51.231" ry="39.157"/>
        <ellipse class="cls-12" cx="286.69" cy="250.813" rx="51.231" ry="39.157"/>
        <path class="cls-16" d="M286.69,210.05c-28.173,0-51.269,17.111-52.755,38.561-2.351-.727-6.648-1.753-12.248-1.732-5.6-.021-9.897,1.005-12.248,1.732-1.496-21.45-24.582-38.561-52.755-38.561-28.643,0-52.83,18.672-52.83,40.763,0,22.476,23.695,40.763,52.83,40.763,28.632,0,51.996-17.667,52.786-39.608,1.817-.62,6.145-1.892,12.216-1.86,6.071-.032,10.399,1.24,12.205,1.86.802,21.942,24.165,39.608,52.797,39.608,29.135,0,52.83-18.287,52.83-40.763,0-22.091-24.186-40.763-52.83-40.763ZM156.685,288.369c-27.478,0-49.826-16.844-49.826-37.556,0-20.349,22.818-37.557,49.826-37.557,27.467,0,49.826,16.855,49.826,37.557s-22.359,37.556-49.826,37.556ZM286.69,288.369c-27.467,0-49.826-16.844-49.826-37.556s22.359-37.557,49.826-37.557c27.008,0,49.826,17.207,49.826,37.557,0,20.713-22.348,37.556-49.826,37.556Z"/>
      </g>
      <path class="cls-24" d="M200.082,217.819c.613.352,1.208.732,1.783,1.144.151.108.299.22.448.331.245.181-.352-.293.008.011.287.242.576.478.856.728.54.483,1.056.993,1.547,1.526.237.257.469.519.694.786.124.146.244.295.365.443.412.501-.306-.421.081.1.889,1.197,1.682,2.458,2.353,3.79.162.321.316.646.464.974.067.149.137.298.198.45-.222-.559-.003.006.046.132.288.737.538,1.487.758,2.248.363,1.255,1.779,2.166,3.075,1.746,1.275-.413,2.135-1.73,1.746-3.075-1.861-6.432-6.049-12.286-11.9-15.65-1.134-.652-2.787-.303-3.42.897-.629,1.191-.314,2.724.897,3.42h0Z"/>
      <path class="cls-24" d="M240.833,213.501c-5.851,3.364-10.038,9.217-11.9,15.65-.363,1.256.441,2.778,1.746,3.075,1.336.304,2.686-.401,3.075-1.746.211-.729.449-1.448.723-2.156.026-.067.264-.669.132-.341-.134.334.079-.179.107-.243.16-.358.328-.713.505-1.063.671-1.332,1.464-2.593,2.353-3.79.312-.42-.285.336.081-.1.103-.122.201-.248.304-.37.225-.268.455-.532.691-.79.511-.558,1.048-1.091,1.612-1.596.256-.229.517-.452.783-.669.227-.184.25-.213.006-.014.144-.117.297-.224.447-.333.598-.432,1.219-.83,1.858-1.198,1.134-.652,1.625-2.291.897-3.42-.738-1.145-2.207-1.595-3.42-.897h0Z"/>
      <g>
        <path class="cls-7" d="M149.842,363.27s15.825-14.219,46.474-15.992c30.649-1.772,9.799,7.041,26.322,9.859,16.523,2.819,11.954-2.842,28.193.292,16.239,3.134,33.434,13.663,33.434,13.663,0,0-34.308,7.889-70.732,4.091-36.424-3.799-38.727-4.972-38.727-4.972l-24.964-6.941Z"/>
        <path class="cls-5" d="M149.842,363.27c17.563,15.031,42.558,20.658,69.357,22.907,21.806,1.83,60.459-2.975,65.066-15.085-6.141-.259-31.109.911-52.214,1.143-7.26.08-14.062.049-19.484-.189-21.186-.931-34.022-3.922-62.725-8.776h0"/>
        <path class="cls-9" d="M284.264,371.093c.202-3.079-23.375-18.495-41.707-20.052-8.48-.72-19.32,1.869-19.32,1.869,0,0-5.716-7.414-14.909-9.705-35.485-8.844-57.003,17.125-58.486,20.066,0,0,35.454-17.457,55.496-11.449,4.134,1.239,8.825,4.643,11.998,7.248,2.489,2.043,5.715,3.291,9.167,3.484,9.264.517,15.396-6.529,57.762,8.54Z"/>
      </g>
    </g>
    <g id="Hand9_ThumbsUp">
      <g>
        <polygon class="cls-14" points="377.385 515.417 397 520.306 428.249 521.872 437.522 518.186 430.988 485.406 401.461 468.374 383.768 415.943 386.649 387.093 389.15 379.838 359.837 375.078 335.327 378.132 314.455 386.766 293.45 406.843 288.025 424.337 377.385 515.417"/>
        <path class="cls-14" d="M418.999,426.795c13.292.636,26.008,3.88,36.882,13.351,7.214,6.283,11.089,14.709,8.76,25.6-.405,1.893-1.286,3.698-2.165,5.389-1.222,2.351-2.778,2.71-4.952,1.139-13.172-9.52-27.65-13.834-43.023-13.774-4.486.018-9.062,1.013-13.417,2.343-5.263,1.606-8.923-.66-10.887-7.733-2.518-9.07.761-16.593,9.402-21.413,6.109-3.407,12.556-5.099,19.4-4.902Z"/>
        <path class="cls-14" d="M421.702,396.285c10.375.979,20.38,2.637,28.757,10.339,3.203,2.945,6.063,6.691,8.366,10.648,3.132,5.381,2.125,12.902-2.206,17.014-1.31,1.245-4.268,1.526-5.867.668-9.595-5.144-19.623-8.036-30.062-8.513-11.579-.53-22.403,2.394-31.422,11.64-1.747,1.791-3.157,1.488-4.635-.532-3.662-5.005-4.325-12.296-1.369-17.903,5.529-10.489,13.69-16.898,23.627-20.096,4.827-1.554,9.867-2.205,14.81-3.264Z"/>
        <path class="cls-14" d="M414.638,373.805c7.711-.101,14.38,1.952,20.52,6.248,4.873,3.41,7.702,9.587,6.724,14.49-.611,3.064-1.864,4.202-4.855,3.698-5.896-.993-11.886-2.11-17.8-1.908-13.314.454-25.063,5.833-34.341,17.019-2.333,2.813-3.316,2.018-4.729-.752-4.181-8.195-1.587-19.973,6.092-27.204,8.391-7.903,18.233-11.115,28.389-11.592Z"/>
        <path class="cls-14" d="M342.88,446.1c3.991,3.585,7.705,7.467,11.212,11.525,17.16,19.853,23.869,43.26,21.39,69.74-1.266,13.521-3.971,26.607-10.883,38.305-5.213,8.823-11.939,15.829-22.432,17.142-9.426,1.179-15.562-4.243-15.781-14.165-.124-5.603.508-11.219.639-16.834.106-4.543.087-9.098-.078-13.64-.501-13.806-6.449-25.167-14.459-35.74-7.033-9.284-13.968-18.691-20.281-28.512-2.552-3.971-4.024-9.062-4.812-13.854-2.995-18.205-1.591-35.067,6.101-49.784,0,0,12.154,7.654,16.004,10.494,12.202,9.002,27.185,19.757,33.381,25.323Z"/>
        <path class="cls-14" d="M426.084,508.721c1.306.281,3.875-.662,4.164-1.645.844-2.867-1.743-2.468-3.288-2.899-11.479-3.204-22.312-7.848-31.384-16.53-11.044-10.569-4.39-20.009,4.688-24.141,7.384-3.361,15.096-3.2,22.67-2.204,12.738,1.675,24.959,5.461,35.317,14.36,8.897,7.644,9.864,18.079,2.502,27.475-7.695,9.822-18.152,14.026-29.306,16.713"/>
        <path class="cls-14" d="M459.398,435.372c-.008-3.006,2.862-5.88,3.154-9.073,2.356-12.704-7.135-17.501-14.843-25.29-5.876-6.953,2.572-14.974-11.407-23.901-11.143-6.896-23.92-7.876-36.068-3.794-6.803,2.544-9.279,4.593-16.786,1.988-13.959-3.762-28.789-3.849-42.918-1.516-27.805,4.677-50.843,26.867-55.961,55.003-.831,4.73-1.496,8.892-1.668,13.712-.722,14.434,2.459,28.638,10.877,40.419,3.899,5.783,7.803,11.677,12.096,17.127,3.799,4.81,7.597,9.455,10.042,15.31,3.654,9.041,6.032,18.552,6,28.389-.009,7.545-.314,15.015-.268,22.585.035,3.174.439,6.508,1.924,9.319,3.01,5.974,10.723,10.338,17.368,9.7,3.227-.196,6.571-1.263,9.572-2.668,18.883-8.887,26.322-33.079,28.195-52.488.28-2.232.616-4.464.991-6.618.255-1.627.954-3.395,2.315-3.778.907-.325,2.118-.208,3.444.078,3.026.687,6.044,1.422,9.034,2.088,13.666,3.634,27.854,3.745,41.469-.323,11.746-3.096,23.085-8.444,30.057-18.782,2.465-3.612,4.507-7.654,4.693-12.07.154-3.298-.872-6.66-2.231-9.655-1.089-2.495-2.697-5.008-2.368-7.836.201-2.144,1.367-4.23,2.123-6.256,3.058-7.584,1.708-15.837-3.012-22.74-1.66-2.99-5.22-5.474-5.816-8.813l-.009-.116ZM382.753,382.256c.339,1.39-.928,3.057-1.769,4.345-.887,1.294-1.73,2.563-2.502,3.912-4.738,7.994-4.265,15.83.006,23.805,1.454,3.04,1.376,6.381,1.092,9.652-.252,3.647.283,7.082,1.943,10.251,1.121,2.199,2.7,4.247,3.373,6.641.685,2.308.458,4.775.536,7.158.028,4.397,1.754,8.294,4.017,11.945,2.25,3.43.765,6.488-1.176,9.642-4.444,7.368-.682,15.39,4.937,20.784,6.409,6.419,14.43,10.314,22.706,13.559,3.396,1.051,10.344,4.36,13.2,1.402.869-2.018-2.753-2.8-4.324-3.304-11.118-3.248-22.442-8.096-30.269-17.022-8.174-9.39-.613-18.554,10.168-21.555,14.746-4.009,37.368,1.242,49.77,9.904,15.579,10.234,13.058,24.409-.676,34.743-7.167,5.356-15.835,8.077-24.53,9.829-14.365,2.8-28.467,1.197-42.347-3.288-3.103-1.023-6.336-2.418-7.567-5.648-.793-1.905-1.062-4.086-1.332-6.144-.722-6.161-1.954-11.942-3.753-17.482-4.806-14.825-13.343-27.363-24.791-38.117-1.465-1.306-3.48-3.056-5.452-2.891-3.629,1.258,1.662,6.201,3.22,7.741,10.826,10.193,19.498,23.516,23.648,37.24,7.494,24.303,4.64,60.823-12.421,81.064-5.924,7.177-17.812,12.453-26.384,7.213-6.106-4.127-5.8-12.625-5.44-19.235,3.032-41.622-6.267-44.81-28.473-76.516-5.768-7.904-9.209-14.327-10.219-24.189-2.756-26.935,3.658-49.775,23.491-65.472,13.977-11.493,32.223-14.798,49.855-14.342,3.481.181,20.519.857,21.437,4.289l.024.087ZM419.197,429.284c10.436.339,20.892,2.48,29.966,7.655,11.523,6.298,19.579,17.456,13.471,30.473-1.805,3.523-5.019,2.925-7.902,1.12-11.992-7.192-25.329-10.779-39.145-10.781-4.277-.031-8.432.669-12.608,1.642-2.474.535-5.371.977-7.581-.22-3.431-1.868-5.032-6.626-5.324-10.402-.754-13.99,17.455-19.721,28.972-19.489l.15.003ZM421.797,399.623c12.868.04,25.98,4.642,33.393,15.626,1.372,1.954,2.494,4.178,2.8,6.556.756,7.247-4.212,12.897-11.505,9.409-15.279-6.428-34.262-9.436-49.178-.679-2.892,1.361-5.92,5.544-9.365,4.326-1.357-.571-2.437-2.193-3.108-3.893-2.017-4.855-.544-10.303,2.488-14.401,7.767-11.499,21.227-15.844,34.327-16.939l.149-.006ZM414.643,376.082c8.853-.018,18.872,2.741,24.038,10.388,2.801,4.098,3.018,11.798-3.693,11.129-17.7-2.965-33.825-1.511-47.207,11.903-2.512,2.57-5.11,3.937-6.934-.169-3.138-7.286-.292-16.385,5.801-22.24,7.411-7.12,17.749-10.729,27.843-11.008l.151-.003Z"/>
      </g>
      <g>
        <polygon class="cls-3" points="377.385 515.417 397 520.306 428.249 521.872 437.522 518.186 430.988 485.406 401.461 468.374 383.768 415.943 386.649 387.093 389.15 379.838 359.837 375.078 335.327 378.132 314.455 386.766 293.45 406.843 288.025 424.337 377.385 515.417"/>
        <path class="cls-1" d="M418.999,426.795c13.292.636,26.008,3.88,36.882,13.351,7.214,6.283,11.089,14.709,8.76,25.6-.405,1.893-1.286,3.698-2.165,5.389-1.222,2.351-2.778,2.71-4.952,1.139-13.172-9.52-27.65-13.834-43.023-13.774-4.486.018-9.062,1.013-13.417,2.343-5.263,1.606-8.923-.66-10.887-7.733-2.518-9.07.761-16.593,9.402-21.413,6.109-3.407,12.556-5.099,19.4-4.902Z"/>
        <path class="cls-13" d="M421.702,396.285c10.375.979,20.38,2.637,28.757,10.339,3.203,2.945,6.063,6.691,8.366,10.648,3.132,5.381,2.125,12.902-2.206,17.014-1.31,1.245-4.268,1.526-5.867.668-9.595-5.144-19.623-8.036-30.062-8.513-11.579-.53-22.403,2.394-31.422,11.64-1.747,1.791-3.157,1.488-4.635-.532-3.662-5.005-4.325-12.296-1.369-17.903,5.529-10.489,13.69-16.898,23.627-20.096,4.827-1.554,9.867-2.205,14.81-3.264Z"/>
        <path class="cls-18" d="M414.638,373.805c7.711-.101,14.38,1.952,20.52,6.248,4.873,3.41,7.702,9.587,6.724,14.49-.611,3.064-1.864,4.202-4.855,3.698-5.896-.993-11.886-2.11-17.8-1.908-13.314.454-25.063,5.833-34.341,17.019-2.333,2.813-3.316,2.018-4.729-.752-4.181-8.195-1.587-19.973,6.092-27.204,8.391-7.903,18.233-11.115,28.389-11.592Z"/>
        <path class="cls-22" d="M342.88,446.1c3.991,3.585,7.705,7.467,11.212,11.525,17.16,19.853,23.869,43.26,21.39,69.74-1.266,13.521-3.971,26.607-10.883,38.305-5.213,8.823-11.939,15.829-22.432,17.142-9.426,1.179-15.562-4.243-15.781-14.165-.124-5.603.508-11.219.639-16.834.106-4.543.087-9.098-.078-13.64-.501-13.806-6.449-25.167-14.459-35.74-7.033-9.284-13.968-18.691-20.281-28.512-2.552-3.971-4.024-9.062-4.812-13.854-2.995-18.205-1.591-35.067,6.101-49.784,0,0,12.154,7.654,16.004,10.494,12.202,9.002,27.185,19.757,33.381,25.323Z"/>
        <path class="cls-6" d="M426.084,508.721c1.306.281,3.875-.662,4.164-1.645.844-2.867-1.743-2.468-3.288-2.899-11.479-3.204-22.312-7.848-31.384-16.53-11.044-10.569-4.39-20.009,4.688-24.141,7.384-3.361,15.096-3.2,22.67-2.204,12.738,1.675,24.959,5.461,35.317,14.36,8.897,7.644,9.864,18.079,2.502,27.475-7.695,9.822-18.152,14.026-29.306,16.713"/>
        <path class="cls-11" d="M459.398,435.372c-.008-3.006,2.862-5.88,3.154-9.073,2.356-12.704-7.135-17.501-14.843-25.29-5.876-6.953,2.572-14.974-11.407-23.901-11.143-6.896-23.92-7.876-36.068-3.794-6.803,2.544-9.279,4.593-16.786,1.988-13.959-3.762-28.789-3.849-42.918-1.516-27.805,4.677-50.843,26.867-55.961,55.003-.831,4.73-1.496,8.892-1.668,13.712-.722,14.434,2.459,28.638,10.877,40.419,3.899,5.783,7.803,11.677,12.096,17.127,3.799,4.81,7.597,9.455,10.042,15.31,3.654,9.041,6.032,18.552,6,28.389-.009,7.545-.314,15.015-.268,22.585.035,3.174.439,6.508,1.924,9.319,3.01,5.974,10.723,10.338,17.368,9.7,3.227-.196,6.571-1.263,9.572-2.668,18.883-8.887,26.322-33.079,28.195-52.488.28-2.232.616-4.464.991-6.618.255-1.627.954-3.395,2.315-3.778.907-.325,2.118-.208,3.444.078,3.026.687,6.044,1.422,9.034,2.088,13.666,3.634,27.854,3.745,41.469-.323,11.746-3.096,23.085-8.444,30.057-18.782,2.465-3.612,4.507-7.654,4.693-12.07.154-3.298-.872-6.66-2.231-9.655-1.089-2.495-2.697-5.008-2.368-7.836.201-2.144,1.367-4.23,2.123-6.256,3.058-7.584,1.708-15.837-3.012-22.74-1.66-2.99-5.22-5.474-5.816-8.813l-.009-.116ZM382.753,382.256c.339,1.39-.928,3.057-1.769,4.345-.887,1.294-1.73,2.563-2.502,3.912-4.738,7.994-4.265,15.83.006,23.805,1.454,3.04,1.376,6.381,1.092,9.652-.252,3.647.283,7.082,1.943,10.251,1.121,2.199,2.7,4.247,3.373,6.641.685,2.308.458,4.775.536,7.158.028,4.397,1.754,8.294,4.017,11.945,2.25,3.43.765,6.488-1.176,9.642-4.444,7.368-.682,15.39,4.937,20.784,6.409,6.419,14.43,10.314,22.706,13.559,3.396,1.051,10.344,4.36,13.2,1.402.869-2.018-2.753-2.8-4.324-3.304-11.118-3.248-22.442-8.096-30.269-17.022-8.174-9.39-.613-18.554,10.168-21.555,14.746-4.009,37.368,1.242,49.77,9.904,15.579,10.234,13.058,24.409-.676,34.743-7.167,5.356-15.835,8.077-24.53,9.829-14.365,2.8-28.467,1.197-42.347-3.288-3.103-1.023-6.336-2.418-7.567-5.648-.793-1.905-1.062-4.086-1.332-6.144-.722-6.161-1.954-11.942-3.753-17.482-4.806-14.825-13.343-27.363-24.791-38.117-1.465-1.306-3.48-3.056-5.452-2.891-3.629,1.258,1.662,6.201,3.22,7.741,10.826,10.193,19.498,23.516,23.648,37.24,7.494,24.303,4.64,60.823-12.421,81.064-5.924,7.177-17.812,12.453-26.384,7.213-6.106-4.127-5.8-12.625-5.44-19.235,3.032-41.622-6.267-44.81-28.473-76.516-5.768-7.904-9.209-14.327-10.219-24.189-2.756-26.935,3.658-49.775,23.491-65.472,13.977-11.493,32.223-14.798,49.855-14.342,3.481.181,20.519.857,21.437,4.289l.024.087ZM419.197,429.284c10.436.339,20.892,2.48,29.966,7.655,11.523,6.298,19.579,17.456,13.471,30.473-1.805,3.523-5.019,2.925-7.902,1.12-11.992-7.192-25.329-10.779-39.145-10.781-4.277-.031-8.432.669-12.608,1.642-2.474.535-5.371.977-7.581-.22-3.431-1.868-5.032-6.626-5.324-10.402-.754-13.99,17.455-19.721,28.972-19.489l.15.003ZM421.797,399.623c12.868.04,25.98,4.642,33.393,15.626,1.372,1.954,2.494,4.178,2.8,6.556.756,7.247-4.212,12.897-11.505,9.409-15.279-6.428-34.262-9.436-49.178-.679-2.892,1.361-5.92,5.544-9.365,4.326-1.357-.571-2.437-2.193-3.108-3.893-2.017-4.855-.544-10.303,2.488-14.401,7.767-11.499,21.227-15.844,34.327-16.939l.149-.006ZM414.643,376.082c8.853-.018,18.872,2.741,24.038,10.388,2.801,4.098,3.018,11.798-3.693,11.129-17.7-2.965-33.825-1.511-47.207,11.903-2.512,2.57-5.11,3.937-6.934-.169-3.138-7.286-.292-16.385,5.801-22.24,7.411-7.12,17.749-10.729,27.843-11.008l.151-.003Z"/>
      </g>
    </g>
  </g>
</svg>