<?xml version="1.0" encoding="UTF-8"?>
<svg id="Layer_2" data-name="Layer 2" xmlns="http://www.w3.org/2000/svg" xmlns:xlink="http://www.w3.org/1999/xlink" viewBox="0 0 469.478 464.45">
  <defs>
    <style>
      .cls-1 {
        fill: url(#linear-gradient-2);
      }

      .cls-2 {
        fill: #231f20;
      }

      .cls-3 {
        fill: #d97c80;
      }

      .cls-4 {
        fill: url(#linear-gradient-4);
      }

      .cls-5 {
        fill: url(#radial-gradient-5);
      }

      .cls-6 {
        fill: #ea979f;
      }

      .cls-7 {
        fill: url(#radial-gradient-3);
      }

      .cls-8 {
        fill: url(#linear-gradient-3);
      }

      .cls-9 {
        fill: url(#radial-gradient-2);
      }

      .cls-10 {
        fill: #d1d3d4;
      }

      .cls-11 {
        fill: url(#radial-gradient-4);
      }

      .cls-12 {
        fill: url(#radial-gradient-6);
      }

      .cls-13 {
        fill: url(#radial-gradient);
        fill-rule: evenodd;
      }

      .cls-14 {
        fill: url(#radial-gradient-7);
      }

      .cls-15 {
        fill: url(#linear-gradient);
      }
    </style>
    <radialGradient id="radial-gradient" cx="295.773" cy="244.115" fx="295.773" fy="244.115" r="328.098" gradientUnits="userSpaceOnUse">
      <stop offset="0" stop-color="#d09072"/>
      <stop offset="1" stop-color="#805848"/>
    </radialGradient>
    <linearGradient id="linear-gradient" x1="329.02" y1="284.924" x2="306.027" y2="327.252" gradientTransform="translate(-43.751 -28.245) rotate(.234) scale(1.103) skewX(.469)" gradientUnits="userSpaceOnUse">
      <stop offset="0" stop-color="#d19878"/>
      <stop offset=".886" stop-color="#996955"/>
    </linearGradient>
    <linearGradient id="linear-gradient-2" x1="336.216" y1="394.343" x2="235.846" y2="385.539" gradientUnits="userSpaceOnUse">
      <stop offset="0" stop-color="#fff"/>
      <stop offset="1" stop-color="#d1d3d4"/>
    </linearGradient>
    <radialGradient id="radial-gradient-2" cx="249.411" cy="196.975" fx="249.411" fy="196.975" r="273.913" gradientUnits="userSpaceOnUse">
      <stop offset="0" stop-color="#231f20"/>
      <stop offset="1" stop-color="#414042"/>
    </radialGradient>
    <radialGradient id="radial-gradient-3" cx="-916.825" cy="955.859" fx="-903.495" fy="920.705" r="37.596" gradientTransform="translate(218.953 -1658.898) rotate(-29.7) scale(.915 1.703) skewX(-13.383)" xlink:href="#radial-gradient"/>
    <radialGradient id="radial-gradient-4" cx="407.007" cy="274.659" fx="417.304" fy="247.504" r="29.042" gradientTransform="translate(0 -120.968) scale(1 1.44)" xlink:href="#radial-gradient"/>
    <linearGradient id="linear-gradient-3" x1="208.626" y1="330.974" x2="240.713" y2="258.192" gradientUnits="userSpaceOnUse">
      <stop offset="0" stop-color="#fcfcfc" stop-opacity=".3"/>
      <stop offset="1" stop-color="#f1f2f2" stop-opacity=".1"/>
    </linearGradient>
    <linearGradient id="linear-gradient-4" x1="326.486" y1="327.328" x2="356.644" y2="258.921" xlink:href="#linear-gradient-3"/>
    <radialGradient id="radial-gradient-5" cx="121.894" cy="319.212" fx="121.894" fy="319.212" r="17.796" gradientUnits="userSpaceOnUse">
      <stop offset="0" stop-color="#f1f2f2"/>
      <stop offset="1" stop-color="#00aeef"/>
    </radialGradient>
    <radialGradient id="radial-gradient-6" cx="401.944" cy="313.111" fx="401.944" fy="313.111" r="13.449" xlink:href="#radial-gradient-5"/>
    <radialGradient id="radial-gradient-7" cx="326.889" cy="322.192" fx="326.889" fy="322.192" r="36.514" gradientUnits="userSpaceOnUse">
      <stop offset="0" stop-color="#d19878"/>
      <stop offset="1" stop-color="#996955" stop-opacity=".5"/>
    </radialGradient>
  </defs>
  <g id="Bitmojis">
    <g id="Eco_Side_Happy">
      <path class="cls-13" d="M399.249,263.647c-2.632,117.808-36.696,147.053-50.78,172.406-20.518,36.936-90.728,34.304-119.032,12.261-17.266-13.447-83.911-50.29-101.217-77.739-21.464-34.043-19.5-52.525-19.5-106.928,0-109.715,50.619-168.306,139.269-168.306s153.711,58.617,151.26,168.306Z"/>
      <circle class="cls-2" cx="235.783" cy="269.679" r="13.844"/>
      <circle class="cls-2" cx="348.47" cy="269.679" r="13.844"/>
      <path d="M177.259,254.495s8.778-12.557,13.961-16.111c5.499-3.771,9.662-7.855,23.615-8.327,18.552-.627,41.791,4.056,41.791,4.056,0,0,12.556,2.463,15.984,9.235,3.428,6.772-2.002,7.696-4.225,7.845-4.047.271-11.792-2.605-16.775-3.284-6.664-.908-15.328-2.916-21.895-3.442-6.883-.552-16.096-1.59-27.016-.398-6.833.745-25.44,10.427-25.44,10.427Z"/>
      <path d="M395.894,254.311s-7.337-11.792-11.682-15.12c-4.611-3.531-8.097-7.361-19.83-7.755-15.6-.523-35.161,3.972-35.161,3.972,0,0-10.569,2.365-13.477,8.754-2.908,6.389,1.656,7.24,3.525,7.372,3.402.241,9.926-2.496,14.12-3.153,5.608-.879,12.902-2.802,18.427-3.321,5.791-.545,13.542-1.556,22.722-.474,5.744.677,21.357,9.725,21.357,9.725Z"/>
      <path class="cls-15" d="M330.73,314.965c13.871,13.558,4.42,32.812-6.297,34.1-20.291,2.44-15.844-7.75-36.497-3.551-8.336,1.695-15.671-13.358-13.974-20.972,2.527-11.344,15.477-16.409,13.778-45.456-.965-16.49,17.002-12.815,18.886-.83,1.872,11.912,12.691,25.553,24.105,36.709Z"/>
      <path class="cls-1" d="M233.013,377.84l42.435,3.29,70.237-3.29s-10.439,30.854-51.372,29.972c-40.933-.882-61.301-29.972-61.301-29.972Z"/>
      <path class="cls-3" d="M298.413,399.295c23.655-.205,39.862-12.664,47.273-21.455,1.387,16.262-15.627,33.654-38.5,34.797-28.111,1.405-58.001-12.491-75.698-35.118,0,0-.403-.601,1.525.321,8.553,4.089,37.499,21.696,65.4,21.455Z"/>
      <path class="cls-6" d="M346.789,377.327c3.605-1.738-9.843-7.011-16.873-8.334-8.735-1.644-20.658,2.671-20.658,2.671,0,0-3.856-2.288-10.042-3.004-29.285-3.388-66.472,4.613-67.727,8.859,0,0,30.042,6.558,54.272,6.882,24.724.331,44.624.836,61.029-7.074Z"/>
      <path class="cls-9" d="M373.423,217.41c-14.967-.944-13.988-22.369-17.675-33.883-2.462-7.689-15.893-10.59-15.032-22.396-3.333.544-1.484,6.784-3.343,10.002-7.07,12.242-36.773-7-29.993-23.147-7.681,5.486-17.709-.793-20.262-9.274-2.571-8.541,2.477-15.075-11.307-13.218,7.681,9.971,3.167,20.299-8.78,20.638,5.557,11.12,5.662,19.339-2.757,22.958-1.826.785-5.582,1.37-8.51.489-3.71-1.115-6.772-1.957-9.242-5.087-5.602-7.098-6.846-10.517-5.823-20.259l-7.001,1.895c8.767,8.815-1.768,17.295-1.445,21.23.462,5.626,6.51,9.322,5.053,21.047-.827,6.659-7.097,10.299-7.092,11.169.006,1.114.473,15.576-13.535,23.335-5.962,3.302-20.327-6.267-24.891-11.217-2.83-3.07-11.116-11.654-14.153-12.522-1.901,7.894-16.026,21.36-16.34,28.091-.203,4.37,6.767,8.622,7.077,13.387.258,3.966-5.149,9.161-5.133,15.208.032,12.396-5.388,8.091-11.15,10.421-1.917.775-1.365,4.322-6.062,5.154-14.748,2.615-8.751-9.076-11.457-14.244-.435-.831-3.48-1.391-4.679-3.332-2.901-4.697-6.237-3.403-7.928-10.008-3.836-14.986-5.87-25.788-3.652-15.549.972,4.488.294,38.741-.261,41.739-.368,1.987,1.856.865,0,6-9.446,26.136-22.025,13.727,1.426,3.978l-15.513,15.196c6.522,22.435,5.502,17.301,8.609,28.957,1.793,6.728,10.939,31.279,8.087,37.565-3.157,6.958-6,13.007-19.845,14.087-14.933,1.165-15.112-5.217-21.763-9.978-31.713,7.739-29.633-18.128-29.633-18.128-10.645,1.257-14.834-3.674-15.804-15.015-.65-7.599,1.235-13.879,1.235-13.879-12-2.217-12.959-20.158,1.073-21.462-15.862-7.696-7.734-19.059-7.734-19.059-1.119-.911-12.642,9.799-19.963-2.723-4.74-8.107.694-10.757.373-14.777-.236-2.955-4.168-6.761-4.675-10.174-.655-4.416,1.782-7.496,1.578-10.544-.055-.824-8.11-2.931-4.625-14.408,2.548-8.391,14.008-7.86,15.996-11.09,1.676-2.724-8.041-14.369-5.404-20.164,1.964-4.317,12.207-12.911,12.246-14.572.022-.904-5.267-8.942-5.005-16.932.291-8.867,6.723-13.908,6.736-14.953.027-2.284-5.963-6.077-1.774-15.553,3.363-7.607,18.917-10.91,19.521-11.943.939-1.607-.245-8.306,2.217-13.578,4.149-8.885,12.556-7.265,16.394-12.289,3.652-4.781,3.733-15.061,9.298-21.013,4.846-5.183,11.489-4.732,15.132-7.271,4.935-3.439,3.597-15.907,15.755-18.853,9.086-2.201,10.904,3.12,14.904,3.104,1.042-.004,1.554-4.128,3.379-5.936,1.576-1.561,3.172-3.391,8.785-3.848,2.894-.235,6.344,1.312,7.627,2.109,12.244,7.602,15.807-3.865,28.578,1.899,0,0,1.636-2.819,2.651-4.042,14.127-17.655,35.173-17.23,47.379,2.175l2.584-.003c1.402-11.051,4.663-11.435,10.58-16.774,3.512-3.169,1.595-10.007,3.843-16.239,4.942-13.696,30.698-12.179,38.263-1.658,1.604,2.231,3.355,5.337,6.465,6.134,2.513.644,4.119-2.949,10.96-3.527,9.577-.809,14.211-.506,22.412,5.339,4.942,3.522,6.162,7.957,9.513,17.128,1.422,3.891,20.696-7.35,31.442,2.946,2.109,2.021,3.826,6.851,5.091,7.609,1.291.773,4.835-1.13,7.448-.561,19.021,4.145,22.11,15.836,20.709,35.265,20.531-3.674,38.965,10.491,36.867,33.758,17.137-5.824,32.699,3.818,27.045,24.478,12.667,2.887,26.059,11.497,19.024,27.602-3.042,6.965-12.738,3.23-9.017,15.244,16.445.799,12.379,28.26-1.964,22.734-4.466-1.721-5.248,1.862-5.248,1.862.654,6.031,6.067,7.412,6.946,14.221.787,6.095-1.601,9.955-1.776,14.941-.155,4.402,2.515,8.677,1.576,12.614-1.816,7.612-15.609,8.519-15.583,9.871l2.699,6.529c2.064,4.345,2.429,8.259.866,13.116l-5.268,7.508c5.996,18.715-3.001,33.759-18.575,28.052,7.338,29.577-26.111,4.898-26.111,4.898,0,0,5.827-22.038,1.996-79.166-1.257-18.745-12.815-55.634-12.815-55.634,0,0,2.64,37.108-11.838,36.195Z"/>
      <path class="cls-7" d="M132.558,251.664c6.363,27.876,11.351,69.755-3.126,73.059-14.477,3.304-31.371-16.615-37.734-44.491-6.363-27.876-3.493-54.687,10.984-57.992,14.477-3.304,23.513,1.548,29.876,29.424Z"/>
      <path class="cls-11" d="M407.462,236.876c-3.578-.817-6.734-1-9.535-.188.537,8.916,1.031,17.597.822,26.96-.449,20.106-1.597,34.594-3.363,49.508,8.498-4.705,17.078-14.652,20.724-30.622,5.009-21.948,2.75-43.056-8.648-45.658Z"/>
      <g>
        <ellipse class="cls-8" cx="235.37" cy="270.311" rx="47.935" ry="36.638"/>
        <ellipse class="cls-4" cx="351.623" cy="270.312" rx="42.163" ry="35.138"/>
        <path class="cls-10" d="M351.308,233.319c-23.082,0-41.998,15.537-43.2,35.022-10.976-3.137-19.709-1.235-23.38-.088-1.391-20.076-22.997-36.079-49.357-36.079-26.795,0-49.432,17.465-49.432,38.138,0,21.029,22.175,38.138,49.432,38.138,26.788,0,48.652-16.529,49.396-37.061,2.726-.933,11.842-3.425,23.313.058.705,19.873,19.819,35.856,43.229,35.856,23.855,0,43.263-16.594,43.263-36.991s-19.407-36.992-43.263-36.992ZM235.37,305.449c-25.705,0-46.619-15.763-46.619-35.138,0-19.047,21.349-35.138,46.619-35.138,25.705,0,46.618,15.763,46.618,35.138s-20.912,35.138-46.618,35.138ZM351.308,304.303c-22.304,0-40.449-15.248-40.449-33.991s18.145-33.992,40.449-33.992,40.449,15.249,40.449,33.992-18.145,33.991-40.449,33.991Z"/>
      </g>
      <circle class="cls-5" cx="118.536" cy="325.082" r="11.739"/>
      <path class="cls-12" d="M397.277,308.449c-.463,0-.914.045-1.359.11-.687,6.25-1.479,12.156-2.36,17.759,1.14.497,2.396.776,3.719.776,5.148,0,9.322-4.174,9.322-9.323s-4.174-9.323-9.322-9.323Z"/>
      <path class="cls-14" d="M330.73,314.965c-.008-.008-.016-.016-.024-.023-2.161-2.113-4.828-3.695-7.789-4.297-1.946-.396-3.993-.513-6.101-.304-9.753.967-17.547,8.989-18.244,18.765-.51,7.156,2.697,13.575,7.87,17.577,3.965,1.704,7.948,3.59,17.991,2.383,10.717-1.289,20.167-20.542,6.296-34.1Z"/>
    </g>
  </g>
</svg>