<?xml version="1.0" encoding="UTF-8"?>
<svg id="Layer_2" xmlns="http://www.w3.org/2000/svg" xmlns:xlink="http://www.w3.org/1999/xlink" viewBox="0 0 433.71 452.84">
  <defs>
    <style>
      .cls-1 {
        fill: url(#linear-gradient-2);
      }

      .cls-2 {
        fill: #231f20;
      }

      .cls-3 {
        fill: #d97c80;
      }

      .cls-4 {
        fill: url(#linear-gradient-4);
      }

      .cls-5 {
        fill: url(#radial-gradient-5);
      }

      .cls-6 {
        fill: #ea979f;
      }

      .cls-7 {
        fill: url(#radial-gradient-3);
      }

      .cls-8 {
        fill: url(#linear-gradient-3);
      }

      .cls-9 {
        fill: url(#radial-gradient-2);
      }

      .cls-10 {
        fill: #d1d3d4;
      }

      .cls-11 {
        fill: url(#radial-gradient-4);
      }

      .cls-12 {
        fill: url(#radial-gradient-6);
      }

      .cls-13 {
        fill: url(#radial-gradient);
        fill-rule: evenodd;
      }

      .cls-14 {
        fill: url(#radial-gradient-7);
      }

      .cls-15 {
        fill: url(#linear-gradient);
      }

      .cls-16 {
        fill: #414042;
      }
    </style>
    <radialGradient id="radial-gradient" cx="226.42" cy="187.26" fx="226.42" fy="187.26" r="413.35" gradientUnits="userSpaceOnUse">
      <stop offset="0" stop-color="#d09072"/>
      <stop offset="1" stop-color="#805848"/>
    </radialGradient>
    <radialGradient id="radial-gradient-2" cx="216.86" cy="216.92" fx="216.86" fy="216.92" r="281.75" gradientUnits="userSpaceOnUse">
      <stop offset="0" stop-color="#231f20"/>
      <stop offset="1" stop-color="#414042"/>
    </radialGradient>
    <radialGradient id="radial-gradient-3" cx="373.45" cy="311.39" fx="386.33" fy="277.41" r="36.34" gradientTransform="translate(-21.83 -173.77) rotate(-3.55) scale(1 1.44)" xlink:href="#radial-gradient"/>
    <radialGradient id="radial-gradient-4" cx="-1501.82" cy="195" fx="-1488.94" fy="161.02" r="36.34" gradientTransform="translate(-1416.84 -122.61) rotate(-176.45) scale(1 -1.44)" xlink:href="#radial-gradient"/>
    <linearGradient id="linear-gradient" x1="221.68" y1="256.52" x2="221.68" y2="319.43" gradientUnits="userSpaceOnUse">
      <stop offset="0" stop-color="#d19878"/>
      <stop offset="1" stop-color="#996955"/>
    </linearGradient>
    <radialGradient id="radial-gradient-5" cx="403.46" cy="311.96" fx="403.46" fy="311.96" r="29.88" gradientTransform="translate(-116.59 25.25) scale(.85 .92)" gradientUnits="userSpaceOnUse">
      <stop offset="0" stop-color="#d19878"/>
      <stop offset="1" stop-color="#996955" stop-opacity=".5"/>
    </radialGradient>
    <radialGradient id="radial-gradient-6" cx="80.3" cy="294.75" fx="80.3" fy="294.75" r="19.26" gradientUnits="userSpaceOnUse">
      <stop offset="0" stop-color="#f1f2f2"/>
      <stop offset="1" stop-color="#00aeef"/>
    </radialGradient>
    <radialGradient id="radial-gradient-7" cx="-2194.12" cy="293.87" fx="-2194.12" fy="293.87" r="16.64" gradientTransform="translate(-1823.35) rotate(-180) scale(1 -1)" xlink:href="#radial-gradient-6"/>
    <linearGradient id="linear-gradient-2" x1="128.1" y1="315.65" x2="162.39" y2="237.86" gradientUnits="userSpaceOnUse">
      <stop offset="0" stop-color="#fcfcfc" stop-opacity=".3"/>
      <stop offset="1" stop-color="#f1f2f2" stop-opacity=".1"/>
    </linearGradient>
    <linearGradient id="linear-gradient-3" x1="258.11" y1="315.65" x2="292.4" y2="237.86" xlink:href="#linear-gradient-2"/>
    <linearGradient id="linear-gradient-4" x1="275.56" y1="370.91" x2="153.04" y2="355.22" gradientTransform="translate(-20.69 11.4) rotate(-3.31)" gradientUnits="userSpaceOnUse">
      <stop offset="0" stop-color="#fff"/>
      <stop offset="1" stop-color="#d1d3d4"/>
    </linearGradient>
  </defs>
  <g id="Bitmojis">
    <g id="Eco_x5F_Front_x5F_Disapprove">
      <path class="cls-13" d="M349.46,358.97c-17.3,27.44-51.08,64.29-68.35,77.73-12.96,10.09-37.69,16.12-59.42,16.14-21.73-.02-46.46-6.05-59.41-16.14-17.27-13.44-51.05-50.29-68.36-77.73-21.46-34.05-19.5-52.53-19.5-106.93,0-109.72,58.62-168.31,147.27-168.31s147.27,39.43,147.27,168.31c0,54.4,1.97,72.88-19.5,106.93Z"/>
      <path class="cls-9" d="M74.67,277.54c.34,6.95,1.67,32.06,5.67,54.78-5.22,3.66-16.83,4.7-16.83,4.7-30.81,2.88-33.76-23.2-33.76-23.2-10.15-.36-13.37-5.87-12.66-17.22.47-7.61,3.14-13.54,3.14-13.54-10.93-4-9.27-21.88,4.06-21.05-13.76-10-4.52-20.01-4.52-20.01-.92-1.07-13.25,7.78-18.32-5.7-3.28-8.73,2.19-10.53,2.45-14.55.21-2.96-2.94-7.31-2.92-10.76,0-4.47,2.74-7.14,2.98-10.19.07-.82-7.17-4.12-2.27-14.94,3.58-7.91,14.24-5.66,16.56-8.55,1.96-2.44-5.48-15.42-2.18-20.75,2.45-3.97,13.28-10.93,13.55-12.56.15-.89-3.66-9.64-2.27-17.5,1.54-8.72,8.28-12.73,8.44-13.76.35-2.26-4.72-6.91.56-15.65,4.24-7.01,19.27-7.93,19.98-8.86,1.12-1.45.96-8.25,4.02-13.09,5.15-8.16,12.8-5.3,17.11-9.68,4.1-4.18,5.65-14.33,11.71-19.38,5.28-4.39,11.44-2.95,15.21-4.91,5.12-2.65,5.64-15.18,17.44-16.26,8.83-.81,9.77,4.72,13.52,5.31.98.15,2.05-3.85,4.01-5.36,1.71-1.3,3.46-2.87,8.78-2.48,1.45.11,2.98.73,4.24,1.43,3.52-11.59,13.8-19.98,25.95-19.98,8.02,0,15.23,3.66,20.2,9.47,3.19-1.4,6.7-2.17,10.38-2.17s7.05.74,10.2,2.1c4.97-5.77,12.16-9.4,20.14-9.4,3.82,0,7.44.83,10.74,2.32,7.45-11.16,29.93-5.76,35.33,5.38,1.18,2.44,2.38,5.78,5.18,7.03,2.26,1.02,4.27-2.29,10.76-1.83,9.09.64,13.39,1.64,20.23,8.65,4.13,4.23,4.64,8.79,6.47,18.37.78,4.06,20.44-4.15,29.03,7.64,1.69,2.32,2.61,7.35,3.69,8.29,1.1.96,4.69-.39,7.06.57,17.23,6.96,18.45,18.98,14.36,37.98,19.76-.54,35,16.24,29.71,38.92,14.98,2.91,15.18,22.68,4.79,28.28,11.46,4.76,22.77,15.29,13.88,30.15-3.84,6.43-18.41,3.25-11.18,13.53,4.19,5.96,3.38,16.58-4.32,19.12-4.37,1.44-5.38,4.28-5.38,4.28-.25,6.06,11.28,8.87,10.17,17.57-1.5,11.73-8.61,7.13-9.48,12.04-.78,4.33,4.85,2.73,4.76,9.29-.08,5.97-5.14,5.62-2.78,10.24,1.48,2.89.35,7.45.35,7.45,1.32,4.61,1.72,8.92-1.06,13.1-1.25,1.87-6.01,6.62-6.01,6.62,2.95,19.41-7.63,32.93-21.4,24.94,2.65,30.34-22.79,1.44-22.79,1.44,0,0,6.23-21.44,10.79-78.49.68-8.47-12.55-94.81-25-100.02-6.61-2.77-12.42,28.37-20.39,27.39-7.12-.87-3.41-17.78-7.04-21.33-4.45-4.35-8.13,12.23-8.48,17.03-.49,6.74.94,23.34-12.91,23.34-12.09,0-13.26-13.56-15.07-25.5-1.2-7.97-13.37-12.86-10.88-24.4-3.2.03-2.36,6.48-4.57,9.38-8.37,11.04-28.77-17.17-27.73-36.53-6.07,16.83-22.06,10.53-23.25,1.76-1.18-8.83-3.17-7.04-9.64-9.62,5.77,11.02-6.57,15.55-17.8,14.08,3.62,11.83,2.55,19.97-5.86,22.28-1.83.5-5.43.52-8.04-.79-3.32-1.67-6.06-2.96-7.93-6.42-4.24-7.87-4.91-11.43-2.57-20.91l-5.51-4.06c-1.67,14.28-8.29,16.72-8.54,20.66-.37,5.63,4.77,10.2,1.73,21.57-1.72,6.46-8.12,9.11-8.24,9.97-.15,1.1-1.77,15.47-16,21.03-6.05,2.37-18.15-9.25-21.72-14.83-2.21-3.47-8.45-14.66-11.46-14.51-10.62.52-16.29,37.78-16.29,37.78,0,0-6.78,22.41-4.31,73.48Z"/>
      <path class="cls-7" d="M376.32,203.55c-4.53-.74-8.49-.73-11.92.5,1.36,11.09,2.65,21.89,3.12,33.6,1,25.14.69,43.32-.36,62.08,10.25-6.53,20.19-19.62,23.51-39.84,4.55-27.8.1-53.98-14.34-56.34Z"/>
      <path class="cls-11" d="M67.05,203.55c4.53-.74,8.49-.73,11.92.5-1.36,11.09-2.65,21.89-3.12,33.6-1,25.14-.69,43.32.36,62.08-10.25-6.53-20.19-19.62-23.51-39.84-4.55-27.8-.1-53.98,14.34-56.34Z"/>
      <path class="cls-15" d="M247.36,326.06c-10.12,2.22-14.9,7.21-25.67,7.21s-15.56-4.99-25.67-7.21c-14.87-3.25-16.18-19.33-1.35-26.7,9.84-4.9,8.12-4.56,9.65-17.48,1.09-9.18,1.3-9.68,2.86-21.59.55-4.19,3.14-8.14,7.64-10.4,1.95-.97,4.24-1.65,6.87-1.65s4.92.68,6.87,1.65c4.49,2.26,7.08,6.21,7.63,10.4,1.57,11.91,1.78,12.41,2.86,21.59,1.54,12.92-.19,12.58,9.66,17.48,14.82,7.37,13.52,23.45-1.35,26.7Z"/>
      <ellipse class="cls-5" cx="221.69" cy="316.51" rx="21.95" ry="16.77"/>
      <path class="cls-12" d="M75.67,288.01s-.06,0-.1,0c-6.48,0-11.47,5.26-11.47,11.74s5.26,11.74,11.74,11.74c.52,0,1.02-.04,1.52-.11-.49-5.71-1.41-14.69-1.69-23.36Z"/>
      <path class="cls-14" d="M367.71,288.01s.06,0,.1,0c6.48,0,11.5,5.26,11.5,11.74,0,6.48-5.26,11.74-11.74,11.74-.52,0-1.02-.04-1.52-.11.49-5.71,1.38-14.69,1.66-23.37Z"/>
      <circle class="cls-2" cx="163.59" cy="250.72" r="13.84"/>
      <circle class="cls-2" cx="279.2" cy="250.72" r="13.84"/>
      <path d="M103.53,234.66s11.53-10.39,17.53-12.75c6.36-2.5,11.44-5.6,25.66-3.06,18.92,3.38,41.46,12.96,41.46,12.96,0,0,12.2,5.11,14.24,12.47,2.05,7.36-3.65,7.09-5.93,6.76-4.15-.61-11.39-5.09-16.29-6.82-6.56-2.32-14.91-6.15-21.45-8.08-6.85-2.02-15.96-5.02-27.27-6.21-7.08-.74-27.95,4.72-27.95,4.72Z"/>
      <path d="M345.02,233.13s-11.53-10.39-17.53-12.75c-6.36-2.5-11.44-5.6-25.66-3.06-18.92,3.38-41.46,12.96-41.46,12.96,0,0-12.2,5.11-14.24,12.47-2.05,7.36,3.65,7.09,5.93,6.76,4.15-.61,11.39-5.09,16.29-6.82,6.56-2.32,14.91-6.15,21.45-8.08,6.85-2.02,15.96-5.02,27.27-6.21,7.08-.74,27.95,4.72,27.95,4.72Z"/>
      <g>
        <ellipse class="cls-1" cx="156.68" cy="250.81" rx="51.23" ry="39.16"/>
        <ellipse class="cls-8" cx="286.69" cy="250.81" rx="51.23" ry="39.16"/>
        <path class="cls-10" d="M286.69,210.05c-28.17,0-51.27,17.11-52.75,38.56-2.35-.73-6.65-1.75-12.25-1.73-5.6-.02-9.9,1-12.25,1.73-1.5-21.45-24.58-38.56-52.75-38.56s-52.83,18.67-52.83,40.76,23.69,40.76,52.83,40.76,52-17.67,52.79-39.61c1.82-.62,6.15-1.89,12.22-1.86,6.07-.03,10.4,1.24,12.21,1.86.8,21.94,24.16,39.61,52.8,39.61s52.83-18.29,52.83-40.76-24.19-40.76-52.83-40.76ZM156.68,288.37c-27.48,0-49.83-16.84-49.83-37.56s22.82-37.56,49.83-37.56,49.83,16.85,49.83,37.56-22.36,37.56-49.83,37.56ZM286.69,288.37c-27.47,0-49.83-16.84-49.83-37.56s22.36-37.56,49.83-37.56,49.83,17.21,49.83,37.56-22.35,37.56-49.83,37.56Z"/>
      </g>
      <path class="cls-16" d="M200.08,217.82c.61.35,1.21.73,1.78,1.14.15.11.3.22.45.33.25.18-.35-.29,0,.01.29.24.58.48.86.73.54.48,1.06.99,1.55,1.53.24.26.47.52.69.79.12.15.24.3.37.44.41.5-.31-.42.08.1.89,1.2,1.68,2.46,2.35,3.79.16.32.32.65.46.97.07.15.14.3.2.45-.22-.56,0,0,.05.13.29.74.54,1.49.76,2.25.36,1.26,1.78,2.17,3.08,1.75s2.14-1.73,1.75-3.08c-1.86-6.43-6.05-12.29-11.9-15.65-1.13-.65-2.79-.3-3.42.9s-.31,2.72.9,3.42h0Z"/>
      <path class="cls-16" d="M240.83,213.5c-5.85,3.36-10.04,9.22-11.9,15.65-.36,1.26.44,2.78,1.75,3.08s2.69-.4,3.08-1.75c.21-.73.45-1.45.72-2.16.03-.07.26-.67.13-.34s.08-.18.11-.24c.16-.36.33-.71.5-1.06.67-1.33,1.46-2.59,2.35-3.79.31-.42-.28.34.08-.1.1-.12.2-.25.3-.37.22-.27.45-.53.69-.79.51-.56,1.05-1.09,1.61-1.6.26-.23.52-.45.78-.67.23-.18.25-.21,0-.01.14-.12.3-.22.45-.33.6-.43,1.22-.83,1.86-1.2,1.13-.65,1.62-2.29.9-3.42s-2.21-1.59-3.42-.9h0Z"/>
      <g>
        <path class="cls-4" d="M149.84,363.27s15.83-14.22,46.47-15.99c30.65-1.77,9.8,7.04,26.32,9.86,16.52,2.82,11.95-2.84,28.19.29,16.24,3.13,33.43,13.66,33.43,13.66,0,0-34.31,7.89-70.73,4.09-36.42-3.8-38.73-4.97-38.73-4.97l-24.96-6.94Z"/>
        <path class="cls-3" d="M149.84,363.27c17.56,15.03,42.56,20.66,69.36,22.91,21.81,1.83,60.46-2.97,65.07-15.08-6.14-.26-31.11.91-52.21,1.14-7.26.08-14.06.05-19.48-.19-21.19-.93-34.02-3.92-62.72-8.78h0"/>
        <path class="cls-6" d="M284.26,371.09c.2-3.08-23.38-18.5-41.71-20.05-8.48-.72-19.32,1.87-19.32,1.87,0,0-5.72-7.41-14.91-9.71-35.48-8.84-57,17.13-58.49,20.07,0,0,35.45-17.46,55.5-11.45,4.13,1.24,8.82,4.64,12,7.25,2.49,2.04,5.71,3.29,9.17,3.48,9.26.52,15.4-6.53,57.76,8.54Z"/>
      </g>
    </g>
  </g>
</svg>