<?xml version="1.0" encoding="UTF-8"?>
<svg id="Layer_2" data-name="Layer 2" xmlns="http://www.w3.org/2000/svg" xmlns:xlink="http://www.w3.org/1999/xlink" viewBox="0 0 457.817 517.539">
  <defs>
    <style>
      .cls-1 {
        fill: url(#radial-gradient-10);
      }

      .cls-2 {
        fill: url(#linear-gradient-2);
      }

      .cls-3 {
        fill: url(#radial-gradient-9);
      }

      .cls-4 {
        fill: #231f20;
      }

      .cls-5 {
        fill: #d97c80;
      }

      .cls-6 {
        fill: url(#radial-gradient-5);
      }

      .cls-7 {
        fill: #ea979f;
      }

      .cls-8 {
        fill: #8b5e3c;
      }

      .cls-9 {
        fill: url(#radial-gradient-3);
      }

      .cls-10 {
        fill: #75584c;
      }

      .cls-11 {
        fill: url(#linear-gradient-3);
      }

      .cls-12 {
        fill: url(#radial-gradient-11);
      }

      .cls-13 {
        fill: url(#radial-gradient-8);
      }

      .cls-14 {
        fill: url(#radial-gradient-2);
      }

      .cls-15 {
        fill: #d1d3d4;
      }

      .cls-16 {
        fill: url(#radial-gradient-4);
      }

      .cls-17 {
        fill: url(#radial-gradient-12);
      }

      .cls-18 {
        fill: url(#radial-gradient-6);
      }

      .cls-19 {
        fill: url(#radial-gradient);
        fill-rule: evenodd;
      }

      .cls-20 {
        fill: url(#radial-gradient-7);
      }

      .cls-21 {
        fill: url(#linear-gradient);
      }
    </style>
    <radialGradient id="radial-gradient" cx="226.417" cy="187.263" fx="226.417" fy="187.263" r="413.349" gradientUnits="userSpaceOnUse">
      <stop offset="0" stop-color="#d09072"/>
      <stop offset="1" stop-color="#805848"/>
    </radialGradient>
    <radialGradient id="radial-gradient-2" cx="216.856" cy="216.916" fx="216.856" fy="216.916" r="281.755" gradientUnits="userSpaceOnUse">
      <stop offset="0" stop-color="#231f20"/>
      <stop offset="1" stop-color="#414042"/>
    </radialGradient>
    <radialGradient id="radial-gradient-3" cx="443.381" cy="292.477" fx="456.264" fy="258.502" r="36.336" gradientTransform="translate(-89.945 -142.25) rotate(-3.551) scale(1 1.44)" xlink:href="#radial-gradient"/>
    <radialGradient id="radial-gradient-4" cx="-753.331" cy="218.204" fx="-740.448" fy="184.229" r="36.336" gradientTransform="translate(-667.722 -109.601) rotate(-176.449) scale(1 -1.44)" xlink:href="#radial-gradient"/>
    <linearGradient id="linear-gradient" x1="221.683" y1="256.524" x2="221.683" y2="319.433" gradientUnits="userSpaceOnUse">
      <stop offset="0" stop-color="#d19878"/>
      <stop offset="1" stop-color="#996955"/>
    </linearGradient>
    <radialGradient id="radial-gradient-5" cx="341.79" cy="220.277" fx="341.79" fy="220.277" r="29.878" gradientTransform="translate(-64.386 109.985) scale(.846 .924)" gradientUnits="userSpaceOnUse">
      <stop offset="0" stop-color="#d19878"/>
      <stop offset="1" stop-color="#996955" stop-opacity=".5"/>
    </radialGradient>
    <radialGradient id="radial-gradient-6" cx="80.304" cy="294.754" fx="80.304" fy="294.754" r="19.26" gradientUnits="userSpaceOnUse">
      <stop offset="0" stop-color="#f1f2f2"/>
      <stop offset="1" stop-color="#00aeef"/>
    </radialGradient>
    <radialGradient id="radial-gradient-7" cx="-1514.262" cy="293.872" fx="-1514.262" fy="293.872" r="16.641" gradientTransform="translate(-1143.483) rotate(-180) scale(1 -1)" xlink:href="#radial-gradient-6"/>
    <linearGradient id="linear-gradient-2" x1="128.098" y1="315.65" x2="162.392" y2="237.862" gradientUnits="userSpaceOnUse">
      <stop offset="0" stop-color="#fcfcfc" stop-opacity=".3"/>
      <stop offset="1" stop-color="#f1f2f2" stop-opacity=".1"/>
    </linearGradient>
    <linearGradient id="linear-gradient-3" x1="258.107" y1="315.648" x2="292.4" y2="237.86" xlink:href="#linear-gradient-2"/>
    <radialGradient id="radial-gradient-8" cx="263.259" cy="1139.074" fx="263.259" fy="1139.074" r="239.803" gradientTransform="translate(-820.82 306.808) rotate(-77.638)" gradientUnits="userSpaceOnUse">
      <stop offset="0" stop-color="#d09072"/>
      <stop offset="1" stop-color="#805848"/>
    </radialGradient>
    <radialGradient id="radial-gradient-9" cx="226.346" cy="1174.243" fx="226.346" fy="1174.243" r="93.913" xlink:href="#radial-gradient-8"/>
    <radialGradient id="radial-gradient-10" cx="-2258.584" cy="1195.778" fx="-2258.584" fy="1195.778" r="86.933" gradientTransform="translate(-218.26 -2128.545) rotate(-76.265)" xlink:href="#radial-gradient-8"/>
    <radialGradient id="radial-gradient-11" cx="-2300.76" cy="1098.353" fx="-2300.76" fy="1098.353" r="72.463" gradientTransform="translate(-208.996 -2242.521) rotate(-76.265) scale(1.038 1.127)" xlink:href="#radial-gradient-8"/>
    <radialGradient id="radial-gradient-12" cx="117.694" cy="1084.292" fx="117.694" fy="1084.292" r="157.172" gradientTransform="translate(-820.82 306.808) rotate(-77.638)" gradientUnits="userSpaceOnUse">
      <stop offset="0" stop-color="#d09072"/>
      <stop offset="1" stop-color="#805848"/>
    </radialGradient>
  </defs>
  <g id="Bitmojis">
    <g id="Eco_Front_Neutral">
      <path class="cls-19" d="M349.457,358.975c-17.3,27.44-51.08,64.29-68.35,77.73-12.96,10.09-37.69,16.12-59.42,16.14-21.73-.02-46.46-6.05-59.41-16.14-17.27-13.44-51.05-50.29-68.36-77.73-21.46-34.05-19.5-52.53-19.5-106.93,0-109.72,58.62-168.31,147.27-168.31s147.27,39.431,147.27,168.31c0,54.4,1.97,72.88-19.5,106.93Z"/>
      <path d="M339.908,208.184s-10.173-11.72-15.835-14.795c-6.008-3.263-10.665-6.957-25.097-6.174-19.189,1.041-42.737,7.791-42.737,7.791,0,0-12.729,3.58-15.661,10.633-2.932,7.053,2.752,7.486,5.057,7.435,4.198-.093,11.928-3.653,17.007-4.777,6.792-1.503,15.548-4.28,22.273-5.394,7.049-1.168,16.458-3.028,27.826-2.822,7.113.129,27.166,8.102,27.166,8.102Z"/>
      <path class="cls-14" d="M74.667,277.535c.337,6.949,1.666,32.058,5.674,54.778-5.217,3.657-16.826,4.7-16.826,4.7-30.814,2.88-33.756-23.2-33.756-23.2-10.148-.36-13.37-5.87-12.659-17.22.474-7.61,3.136-13.54,3.136-13.54-10.925-4-9.267-21.88,4.065-21.05-13.758-10-4.52-20.01-4.52-20.01-.919-1.07-13.247,7.78-18.316-5.7-3.278-8.73,2.189-10.53,2.454-14.55.209-2.96-2.937-7.31-2.918-10.76.01-4.47,2.739-7.14,2.975-10.19.066-.82-7.173-4.12-2.274-14.94,3.581-7.91,14.241-5.66,16.563-8.55,1.961-2.44-5.477-15.42-2.18-20.75,2.454-3.97,13.275-10.93,13.55-12.56.152-.89-3.657-9.64-2.274-17.5,1.535-8.72,8.281-12.73,8.443-13.76.35-2.26-4.719-6.91.559-15.65,4.235-7.01,19.273-7.93,19.983-8.86,1.118-1.45.957-8.25,4.018-13.09,5.155-8.16,12.801-5.3,17.112-9.68,4.103-4.18,5.647-14.33,11.712-19.38,5.278-4.39,11.437-2.95,15.208-4.91,5.117-2.65,5.638-15.18,17.444-16.26,8.831-.81,9.769,4.72,13.521,5.31.976.15,2.046-3.85,4.008-5.36,1.705-1.3,3.458-2.87,8.784-2.48,1.45.11,2.975.73,4.245,1.43,3.515-11.59,13.796-19.98,25.953-19.98,8.017,0,15.227,3.66,20.202,9.47,3.193-1.4,6.699-2.17,10.376-2.17,3.61,0,7.05.74,10.205,2.1,4.975-5.771,12.157-9.4,20.145-9.4,3.818,0,7.438.83,10.736,2.32,7.448-11.16,29.933-5.76,35.334,5.38,1.184,2.44,2.378,5.78,5.183,7.03,2.255,1.02,4.274-2.29,10.764-1.83,9.087.64,13.389,1.64,20.23,8.65,4.132,4.23,4.643,8.79,6.472,18.37.777,4.06,20.438-4.15,29.033,7.64,1.686,2.32,2.606,7.35,3.686,8.29,1.099.96,4.69-.39,7.059.57,17.226,6.96,18.449,18.98,14.365,37.98,19.756-.54,35.002,16.24,29.715,38.92,14.983,2.914,15.178,22.675,4.785,28.28,11.456,4.76,22.769,15.29,13.881,30.15-3.838,6.43-18.411,3.255-11.184,13.534,4.191,5.96,3.375,16.582-4.321,19.125-4.367,1.443-5.379,4.281-5.379,4.281-.247,6.06,11.278,8.865,10.165,17.571-1.499,11.733-8.611,7.129-9.483,12.04-.777,4.33,4.848,2.732,4.755,9.286-.084,5.974-5.145,5.625-2.781,10.239,1.481,2.891.347,7.454.347,7.454,1.317,4.61,1.724,8.923-1.061,13.1-1.25,1.874-6.007,6.62-6.007,6.62,2.947,19.41-7.628,32.93-21.395,24.94,2.653,30.34-22.785,1.444-22.785,1.444,0,0,6.231-21.444,10.79-78.494.677-8.467-12.546-94.808-25.005-100.021-6.614-2.767-12.421,28.37-20.393,27.391-7.119-.874-3.411-17.778-7.045-21.326-4.454-4.349-8.125,12.232-8.475,17.025-.492,6.737.936,23.344-12.906,23.344-12.089,0-13.256-13.564-15.075-25.504-1.203-7.97-13.37-12.86-10.878-24.4-3.203.03-2.359,6.479-4.567,9.38-8.367,11.04-28.773-17.165-27.735-36.535-6.065,16.826-22.062,10.531-23.247,1.761-1.184-8.83-3.166-7.043-9.642-9.616,5.77,11.02-6.567,15.55-17.804,14.08,3.619,11.83,2.549,19.97-5.856,22.28-1.828.5-5.429.52-8.045-.79-3.316-1.67-6.064-2.96-7.931-6.42-4.236-7.87-4.908-11.43-2.568-20.91l-5.509-4.065c-1.668,14.283-8.287,16.715-8.543,20.655-.37,5.63,4.766,10.2,1.734,21.57-1.725,6.46-8.121,9.11-8.244,9.97-.151,1.1-1.772,15.47-16.004,21.03-6.054,2.37-18.145-9.25-21.718-14.83-2.208-3.47-8.45-14.658-11.465-14.51-10.617.523-16.288,37.781-16.288,37.781,0,0-6.784,22.412-4.307,73.481Z"/>
      <path class="cls-9" d="M376.321,203.551c-4.531-.743-8.486-.726-11.922.504,1.361,11.092,2.652,21.894,3.116,33.603.997,25.142.687,43.322-.362,62.083,10.247-6.534,20.191-19.62,23.505-39.845,4.554-27.795.097-53.979-14.338-56.345Z"/>
      <path class="cls-16" d="M67.053,203.551c4.531-.743,8.486-.726,11.922.504-1.361,11.092-2.652,21.894-3.116,33.603-.997,25.142-.687,43.322.362,62.083-10.247-6.534-20.191-19.62-23.505-39.845-4.554-27.795-.097-53.979,14.338-56.345Z"/>
      <path class="cls-21" d="M247.355,326.061c-10.12,2.22-14.9,7.21-25.67,7.21s-15.56-4.99-25.67-7.21c-14.87-3.25-16.18-19.33-1.35-26.7,9.84-4.9,8.12-4.56,9.65-17.48,1.09-9.18,1.3-9.68,2.86-21.59.55-4.19,3.14-8.14,7.64-10.4,1.95-.97,4.24-1.65,6.87-1.65s4.92.68,6.87,1.65c4.49,2.26,7.08,6.21,7.63,10.4,1.57,11.91,1.78,12.41,2.86,21.59,1.54,12.92-.19,12.58,9.66,17.48,14.82,7.37,13.52,23.45-1.35,26.7Z"/>
      <ellipse class="cls-6" cx="221.687" cy="316.505" rx="21.947" ry="16.765"/>
      <path class="cls-18" d="M75.666,288.006c-.033,0-.064-.005-.097-.005-6.483,0-11.471,5.256-11.471,11.739s5.256,11.739,11.739,11.739c.517,0,1.022-.045,1.522-.11-.487-5.714-1.407-14.69-1.694-23.364Z"/>
      <path class="cls-20" d="M367.708,288.007c.033,0,.064-.005.097-.005,6.483,0,11.502,5.258,11.502,11.742s-5.256,11.739-11.739,11.739c-.517,0-1.022-.045-1.522-.11.487-5.714,1.377-14.692,1.663-23.366Z"/>
      <circle class="cls-4" cx="163.585" cy="250.718" r="13.844"/>
      <circle class="cls-4" cx="279.198" cy="250.718" r="13.844"/>
      <path d="M103.405,239.792s9.552-12.231,15.047-15.595c5.831-3.57,10.291-7.5,24.743-7.466,19.217.045,43.084,5.567,43.084,5.567,0,0,12.898,2.916,16.191,9.808,3.293,6.892-2.36,7.619-4.665,7.687-4.197.125-12.102-3.03-17.232-3.889-6.86-1.149-15.749-3.469-22.523-4.233-7.1-.801-16.593-2.172-27.935-1.376-7.097.498-26.71,9.498-26.71,9.498Z"/>
      <g>
        <ellipse class="cls-2" cx="156.682" cy="250.815" rx="51.231" ry="39.157"/>
        <ellipse class="cls-11" cx="286.69" cy="250.813" rx="51.231" ry="39.157"/>
        <path class="cls-15" d="M286.69,210.05c-28.173,0-51.269,17.111-52.755,38.561-2.351-.727-6.648-1.753-12.248-1.732-5.6-.021-9.897,1.005-12.248,1.732-1.496-21.45-24.582-38.561-52.755-38.561-28.643,0-52.83,18.672-52.83,40.763,0,22.476,23.695,40.763,52.83,40.763,28.632,0,51.996-17.667,52.786-39.608,1.817-.62,6.145-1.892,12.216-1.86,6.071-.032,10.399,1.24,12.205,1.86.802,21.942,24.165,39.608,52.797,39.608,29.135,0,52.83-18.287,52.83-40.763,0-22.091-24.186-40.763-52.83-40.763ZM156.685,288.369c-27.478,0-49.826-16.844-49.826-37.556,0-20.349,22.818-37.557,49.826-37.557,27.467,0,49.826,16.855,49.826,37.557s-22.359,37.556-49.826,37.556ZM286.69,288.369c-27.467,0-49.826-16.844-49.826-37.556s22.359-37.557,49.826-37.557c27.008,0,49.826,17.207,49.826,37.557,0,20.713-22.348,37.556-49.826,37.556Z"/>
      </g>
      <path class="cls-5" d="M143.294,361.114c17.682,18.483,43.182,26.063,70.603,29.696,22.312,2.956,62.032-1.365,67.012-15.582-8.452-.709-58.053-10.869-66.854-12.649-47.863-9.683-52.606-6.903-70.133-1.705l-.627.24"/>
      <path class="cls-7" d="M280.798,377.678c.273-3.65-23.252-14.733-42.009-17.24-8.676-1.16-20.17.765-20.17.765,0,0-5.308-4.444-14.683-7.495-36.183-11.778-59.17,6.417-60.753,9.857,0,0,25.987-8.139,45.367,2.003,21.431,11.215,74.983,11.075,92.247,12.111Z"/>
    </g>
    <g id="Hand11_Point">
      <g>
        <polygon class="cls-8" points="315.679 408.297 316.986 389.499 320.523 358.268 338.758 275.064 350.06 267.416 362.916 268.007 370.087 274.711 360.111 337.506 369.529 346.437 405.943 423.688 434.703 427.36 442.335 426.551 440.39 456.184 431.911 479.383 418.81 497.783 394.529 513.743 376.264 515.101 315.679 408.297"/>
        <path class="cls-8" d="M403.28,386.92c2.365-13.096,2.059-26.215-4.728-38.938-4.502-8.441-11.843-14.109-22.979-14.284-1.936-.03-3.892.422-5.738.899-2.565.663-3.265,2.098-2.222,4.57,6.319,14.974,7.272,30.051,3.761,45.017-1.024,4.367-3.022,8.603-5.296,12.549-2.747,4.768-1.361,8.843,5.091,12.345,8.272,4.49,16.34,2.985,22.978-4.354,4.692-5.187,7.789-11.09,9.133-17.804Z"/>
        <path class="cls-8" d="M433.618,391.137c1.376-10.33,2.007-20.451-3.617-30.345-2.15-3.782-5.159-7.411-8.497-10.543-4.54-4.261-12.095-4.968-17.075-1.671-1.507.998-2.445,3.817-1.969,5.567,2.858,10.505,3.424,20.926,1.545,31.206-2.084,11.403-7.364,21.293-18.399,28.005-2.138,1.3-2.159,2.743-.522,4.636,4.055,4.692,11.01,6.976,17.139,5.355,11.463-3.032,19.541-9.546,24.889-18.511,2.598-4.355,4.364-9.12,6.507-13.699Z"/>
        <path class="cls-8" d="M453.496,403.007c1.813-7.422,1.341-14.311-1.388-21.182-2.166-5.453-7.425-9.54-12.317-9.673-3.057-.083-4.421.877-4.607,3.875-.366,5.91-.635,11.938-2.144,17.604-3.398,12.754-11.141,22.916-23.871,29.418-3.201,1.635-2.662,2.758-.336,4.73,6.882,5.835,18.688,5.916,27.292.091,9.402-6.366,14.656-15.162,17.372-24.863Z"/>
        <path class="cls-8" d="M367.375,456.76c-2.598-4.694-5.546-9.185-8.712-13.514-15.492-21.18-36.795-32.974-63.155-36.504-13.46-1.803-26.819-2.105-39.77,2.003-9.768,3.098-18.106,8.079-21.741,18.01-3.266,8.92.64,16.117,10.26,18.559,5.432,1.379,11.047,2.024,16.547,3.158,4.451.917,8.885,1.958,13.274,3.139,13.341,3.588,23.076,11.936,31.58,22.115,7.468,8.938,15.077,17.809,23.23,26.166,3.296,3.379,7.927,5.956,12.419,7.8,17.067,7.006,33.814,9.425,49.882,5.235,0,0-4.729-13.562-6.632-17.952-6.032-13.911-13.147-30.927-17.18-38.215Z"/>
        <path class="cls-8" d="M336.746,274.601c-5.793,15.407-13.8,52.731-16.553,64.562-4.586,19.706-5.858,38.275-5.386,52.409-.022,3.063.016,6.169.006,9.271-.019,1.356-.177,2.563-.697,3.374-.679,1.239-2.558,1.524-4.201,1.407-2.183-.119-14.202-2.433-16.44-2.661-19.333-2.534-44.578-.717-57.478,15.688-2.043,2.61-3.833,5.629-4.749,8.729-2.114,6.332.406,14.828,5.552,19.103,2.406,2.079,5.564,3.221,8.649,3.968,7.366,1.745,14.714,3.125,22.068,4.811,9.593,2.177,18.327,6.631,26.317,12.222,5.156,3.697,8.83,8.44,12.664,13.223,4.347,5.408,9.213,10.536,13.973,15.634,9.59,10.848,22.717,17.138,36.944,19.675,4.736.915,8.941,1.201,13.737,1.454,28.566,1.331,55.363-16.136,66.165-42.18,5.446-13.244,8.691-27.714,8.16-42.162-.854-7.9,1.699-9.853,5.706-15.911,6.706-10.921,8.619-23.592,4.402-35.999-5.56-15.627-15.273-9.196-20.729-16.483-5.859-9.261-8.402-19.586-21.311-20.143-3.178-.433-6.622,1.718-9.55,1.036l-.111-.035c-3.12-1.331-4.741-5.357-7.282-7.646-5.667-6.149-13.531-9.639-21.483-8.041-2.578.518-7.851,1.379-9.307,6.194-.664,2.196-4.849,6.626-1.715-10.414,2.331-12.675,6.785-37.308,7.08-38.663,2.598-11.919-.909-16.46-4.145-19.005-2.584-2.033-5.973-3.327-9.201-4.019-7.174-1.539-17.19.247-21.085,10.605ZM446.995,376.797c6.291,6.751,6.73,17.134,4.724,25.757l-.037.147c-2.538,9.773-8.378,19.037-16.98,24.66-7.073,4.623-16.579,5.353-22.974.659-3.592-2.7-1.676-4.924,1.393-6.795,16.076-10.027,21.114-25.414,22.199-43.328.856-6.69,8.31-4.749,11.674-1.099ZM416.898,350.046c2.249.832,4.164,2.425,5.76,4.2,9.039,9.691,10.579,23.501,7.728,36.049l-.039.144c-4.009,12.52-11.266,24.659-24.215,29.646-4.675,2.034-10.314,2.247-14.592-.809-1.505-1.036-2.844-2.453-3.095-3.904-.413-3.63,4.343-5.641,6.319-8.154,11.883-12.568,13.214-31.741,10.382-48.074-1.761-7.89,4.86-11.462,11.752-9.098ZM373.5,335.278c14.055-3.029,23.12,7.327,26.669,19.97,3.005,10.005,2.744,20.674.73,30.92l-.031.147c-2.359,11.275-12.034,27.732-25.497,23.856-3.614-1.133-7.891-3.761-8.941-7.524-.671-2.422.411-5.146,1.488-7.436,1.886-3.85,3.5-7.743,4.431-11.917,3.1-13.463,2.6-27.266-1.716-40.566-1.111-3.215-.972-6.481,2.866-7.449ZM367.866,279.007c.106,4.696-3.1,19.55-4.56,28.044-.8,4.652-2.005,11.105-2.349,13.176s-1.502,8.919-1.689,10.087-1.087,6.787-1.853,11.67c-.766,4.883-2.404,15.325-2.404,15.325-1.64,9.36-2.356,18.852-1.89,28.395.265,2.978,4.625,2.678,4.507-.284-.412-6.791-.282-13.819.474-20.622.342-2.848,1.815-12.795,3.102-21.45,1.754.999,3.936,1.625,5.227,5.949,4.33,14.495,5.115,29.858-2.104,43.327l-2.965,7.372c.294,3.691.122,5.306,2.959,8.269,3.049,3.025,6.459,5.583,10.738,6.597,2.305.611,4.76.944,6.855,2.13,2.182,1.193,3.823,3.191,5.714,4.778,2.715,2.329,5.942,3.622,9.553,4.195,3.252.458,6.525,1.132,9.16,3.232,6.812,5.953,14.342,8.173,23.196,5.352,1.488-.449,2.913-.985,4.374-1.559,1.444-.531,3.352-1.39,4.632-.748l.08.043c3.138,1.665-.03,18.42-.635,21.853-3.515,17.283-10.833,34.322-25.171,45.361-19.75,15.803-43.448,16.923-69.075,8.189-9.384-3.198-14.87-7.994-21.277-15.389-25.91-28.759-26.928-38.536-68.168-44.928-6.522-1.135-14.872-2.745-17.522-9.621-3.181-9.53,4.63-19.93,12.954-24.09,23.556-12.079,59.783-6.66,81.783,6.1,12.441,7.126,23.477,18.568,30.978,31.407,1.151,1.864,4.779,8.129,6.82,4.876.603-1.885-.65-4.242-1.593-5.962-7.908-13.571-18.21-24.705-31.577-32.718-4.995-2.997-7.61-5.313-13.452-7.4-1.945-.725-2.655-1.017-2.63-3.08.032-2.629-.006-6.741.065-11.145.238-14.585.516-20.608,2.181-38.001.94-9.823,3.235-20.069,7.879-39.885,2.729-11.647,4.374-20.874,6.495-28.721,2.091-7.74,3.045-17.192,12.659-20.393,7.389-2.46,18.346,2.093,18.53,10.27Z"/>
      </g>
      <g>
        <polygon class="cls-13" points="315.679 408.297 316.986 389.499 320.523 358.268 338.758 275.064 350.06 267.416 362.916 268.007 370.087 274.711 360.111 337.506 369.529 346.437 405.943 423.688 434.703 427.36 442.335 426.551 440.39 456.184 431.911 479.383 418.81 497.783 394.529 513.743 376.264 515.101 315.679 408.297"/>
        <path class="cls-3" d="M403.28,386.92c2.365-13.096,2.059-26.215-4.728-38.938-4.502-8.441-11.843-14.109-22.979-14.284-1.936-.03-3.892.422-5.738.899-2.565.663-3.265,2.098-2.222,4.57,6.319,14.974,7.272,30.051,3.761,45.017-1.024,4.367-3.022,8.603-5.296,12.549-2.747,4.768-1.361,8.843,5.091,12.345,8.272,4.49,16.34,2.985,22.978-4.354,4.692-5.187,7.789-11.09,9.133-17.804Z"/>
        <path class="cls-1" d="M433.618,391.137c1.376-10.33,2.007-20.451-3.617-30.345-2.15-3.782-5.159-7.411-8.497-10.543-4.54-4.261-12.095-4.968-17.075-1.671-1.507.998-2.445,3.817-1.969,5.567,2.858,10.505,3.424,20.926,1.545,31.206-2.084,11.403-7.364,21.293-18.399,28.005-2.138,1.3-2.159,2.743-.522,4.636,4.055,4.692,11.01,6.976,17.139,5.355,11.463-3.032,19.541-9.546,24.889-18.511,2.598-4.355,4.364-9.12,6.507-13.699Z"/>
        <path class="cls-12" d="M453.496,403.007c1.813-7.422,1.341-14.311-1.388-21.182-2.166-5.453-7.425-9.54-12.317-9.673-3.057-.083-4.421.877-4.607,3.875-.366,5.91-.635,11.938-2.144,17.604-3.398,12.754-11.141,22.916-23.871,29.418-3.201,1.635-2.662,2.758-.336,4.73,6.882,5.835,18.688,5.916,27.292.091,9.402-6.366,14.656-15.162,17.372-24.863Z"/>
        <path class="cls-17" d="M367.375,456.76c-2.598-4.694-5.546-9.185-8.712-13.514-15.492-21.18-36.795-32.974-63.155-36.504-13.46-1.803-26.819-2.105-39.77,2.003-9.768,3.098-18.106,8.079-21.741,18.01-3.266,8.92.64,16.117,10.26,18.559,5.432,1.379,11.047,2.024,16.547,3.158,4.451.917,8.885,1.958,13.274,3.139,13.341,3.588,23.076,11.936,31.58,22.115,7.468,8.938,15.077,17.809,23.23,26.166,3.296,3.379,7.927,5.956,12.419,7.8,17.067,7.006,33.814,9.425,49.882,5.235,0,0-4.729-13.562-6.632-17.952-6.032-13.911-13.147-30.927-17.18-38.215Z"/>
        <path class="cls-10" d="M336.746,274.601c-5.793,15.407-13.8,52.731-16.553,64.562-4.586,19.706-5.858,38.275-5.386,52.409-.022,3.063.016,6.169.006,9.271-.019,1.356-.177,2.563-.697,3.374-.679,1.239-2.558,1.524-4.201,1.407-2.183-.119-14.202-2.433-16.44-2.661-19.333-2.534-44.578-.717-57.478,15.688-2.043,2.61-3.833,5.629-4.749,8.729-2.114,6.332.406,14.828,5.552,19.103,2.406,2.079,5.564,3.221,8.649,3.968,7.366,1.745,14.714,3.125,22.068,4.811,9.593,2.177,18.327,6.631,26.317,12.222,5.156,3.697,8.83,8.44,12.664,13.223,4.347,5.408,9.213,10.536,13.973,15.634,9.59,10.848,22.717,17.138,36.944,19.675,4.736.915,8.941,1.201,13.737,1.454,28.566,1.331,55.363-16.136,66.165-42.18,5.446-13.244,8.691-27.714,8.16-42.162-.854-7.9,1.699-9.853,5.706-15.911,6.706-10.921,8.619-23.592,4.402-35.999-5.56-15.627-15.273-9.196-20.729-16.483-5.859-9.261-8.402-19.586-21.311-20.143-3.178-.433-6.622,1.718-9.55,1.036l-.111-.035c-3.12-1.331-4.741-5.357-7.282-7.646-5.667-6.149-13.531-9.639-21.483-8.041-2.578.518-7.851,1.379-9.307,6.194-.664,2.196-4.849,6.626-1.715-10.414,2.331-12.675,6.785-37.308,7.08-38.663,2.598-11.919-.909-16.46-4.145-19.005-2.584-2.033-5.973-3.327-9.201-4.019-7.174-1.539-17.19.247-21.085,10.605ZM446.995,376.797c6.291,6.751,6.73,17.134,4.724,25.757l-.037.147c-2.538,9.773-8.378,19.037-16.98,24.66-7.073,4.623-16.579,5.353-22.974.659-3.592-2.7-1.676-4.924,1.393-6.795,16.076-10.027,21.114-25.414,22.199-43.328.856-6.69,8.31-4.749,11.674-1.099ZM416.898,350.046c2.249.832,4.164,2.425,5.76,4.2,9.039,9.691,10.579,23.501,7.728,36.049l-.039.144c-4.009,12.52-11.266,24.659-24.215,29.646-4.675,2.034-10.314,2.247-14.592-.809-1.505-1.036-2.844-2.453-3.095-3.904-.413-3.63,4.343-5.641,6.319-8.154,11.883-12.568,13.214-31.741,10.382-48.074-1.761-7.89,4.86-11.462,11.752-9.098ZM373.5,335.278c14.055-3.029,23.12,7.327,26.669,19.97,3.005,10.005,2.744,20.674.73,30.92l-.031.147c-2.359,11.275-12.034,27.732-25.497,23.856-3.614-1.133-7.891-3.761-8.941-7.524-.671-2.422.411-5.146,1.488-7.436,1.886-3.85,3.5-7.743,4.431-11.917,3.1-13.463,2.6-27.266-1.716-40.566-1.111-3.215-.972-6.481,2.866-7.449ZM367.866,279.007c.106,4.696-3.1,19.55-4.56,28.044-.8,4.652-2.005,11.105-2.349,13.176s-1.502,8.919-1.689,10.087-1.087,6.787-1.853,11.67c-.766,4.883-2.404,15.325-2.404,15.325-1.64,9.36-2.356,18.852-1.89,28.395.265,2.978,4.625,2.678,4.507-.284-.412-6.791-.282-13.819.474-20.622.342-2.848,1.815-12.795,3.102-21.45,1.754.999,3.936,1.625,5.227,5.949,4.33,14.495,5.115,29.858-2.104,43.327l-2.965,7.372c.294,3.691.122,5.306,2.959,8.269,3.049,3.025,6.459,5.583,10.738,6.597,2.305.611,4.76.944,6.855,2.13,2.182,1.193,3.823,3.191,5.714,4.778,2.715,2.329,5.942,3.622,9.553,4.195,3.252.458,6.525,1.132,9.16,3.232,6.812,5.953,14.342,8.173,23.196,5.352,1.488-.449,2.913-.985,4.374-1.559,1.444-.531,3.352-1.39,4.632-.748l.08.043c3.138,1.665-.03,18.42-.635,21.853-3.515,17.283-10.833,34.322-25.171,45.361-19.75,15.803-43.448,16.923-69.075,8.189-9.384-3.198-14.87-7.994-21.277-15.389-25.91-28.759-26.928-38.536-68.168-44.928-6.522-1.135-14.872-2.745-17.522-9.621-3.181-9.53,4.63-19.93,12.954-24.09,23.556-12.079,59.783-6.66,81.783,6.1,12.441,7.126,23.477,18.568,30.978,31.407,1.151,1.864,4.779,8.129,6.82,4.876.603-1.885-.65-4.242-1.593-5.962-7.908-13.571-18.21-24.705-31.577-32.718-4.995-2.997-7.61-5.313-13.452-7.4-1.945-.725-2.655-1.017-2.63-3.08.032-2.629-.006-6.741.065-11.145.238-14.585.516-20.608,2.181-38.001.94-9.823,3.235-20.069,7.879-39.885,2.729-11.647,4.374-20.874,6.495-28.721,2.091-7.74,3.045-17.192,12.659-20.393,7.389-2.46,18.346,2.093,18.53,10.27Z"/>
      </g>
    </g>
  </g>
</svg>