<?xml version="1.0" encoding="UTF-8"?>
<svg id="Layer_2" data-name="Layer 2" xmlns="http://www.w3.org/2000/svg" xmlns:xlink="http://www.w3.org/1999/xlink" viewBox="0 0 463.978 551.225">
  <defs>
    <style>
      .cls-1 {
        fill: url(#radial-gradient-10);
      }

      .cls-2 {
        fill: url(#linear-gradient-2);
      }

      .cls-3 {
        fill: url(#radial-gradient-9);
      }

      .cls-4 {
        fill: #231f20;
      }

      .cls-5 {
        fill: #d97c80;
      }

      .cls-6 {
        fill: url(#radial-gradient-14);
      }

      .cls-7 {
        fill: url(#linear-gradient-4);
      }

      .cls-8 {
        fill: url(#radial-gradient-5);
      }

      .cls-9 {
        fill: #ea979f;
      }

      .cls-10 {
        fill: url(#radial-gradient-3);
      }

      .cls-11 {
        fill: #75584c;
      }

      .cls-12 {
        fill: url(#linear-gradient-3);
      }

      .cls-13 {
        fill: url(#radial-gradient-11);
      }

      .cls-14 {
        fill: url(#radial-gradient-8);
      }

      .cls-15 {
        fill: url(#radial-gradient-2);
      }

      .cls-16 {
        fill: #d1d3d4;
      }

      .cls-17 {
        fill: url(#radial-gradient-4);
      }

      .cls-18 {
        fill: url(#radial-gradient-12);
      }

      .cls-19 {
        fill: url(#radial-gradient-6);
      }

      .cls-20 {
        fill: url(#radial-gradient);
        fill-rule: evenodd;
      }

      .cls-21 {
        fill: url(#radial-gradient-7);
      }

      .cls-22 {
        fill: url(#radial-gradient-13);
      }

      .cls-23 {
        fill: url(#linear-gradient);
      }
    </style>
    <radialGradient id="radial-gradient" cx="226.417" cy="187.263" fx="226.417" fy="187.263" r="413.349" gradientUnits="userSpaceOnUse">
      <stop offset="0" stop-color="#d09072"/>
      <stop offset="1" stop-color="#805848"/>
    </radialGradient>
    <radialGradient id="radial-gradient-2" cx="216.856" cy="216.916" fx="216.856" fy="216.916" r="281.755" gradientUnits="userSpaceOnUse">
      <stop offset="0" stop-color="#231f20"/>
      <stop offset="1" stop-color="#414042"/>
    </radialGradient>
    <radialGradient id="radial-gradient-3" cx="375.332" cy="250.624" fx="388.215" fy="216.649" r="36.336" gradientTransform="translate(-18.292 -86.295) rotate(-3.551) scale(1 1.44)" xlink:href="#radial-gradient"/>
    <radialGradient id="radial-gradient-4" cx="458.099" cy="255.761" fx="470.982" fy="221.786" r="36.336" gradientTransform="translate(544.733 -88.554) rotate(-176.449) scale(1 -1.44)" xlink:href="#radial-gradient"/>
    <linearGradient id="linear-gradient" x1="221.683" y1="256.524" x2="221.683" y2="319.433" gradientUnits="userSpaceOnUse">
      <stop offset="0" stop-color="#d19878"/>
      <stop offset="1" stop-color="#996955"/>
    </linearGradient>
    <radialGradient id="radial-gradient-5" cx="225.504" cy="311.959" fx="225.504" fy="311.959" r="29.878" gradientTransform="translate(34.043 25.25) scale(.846 .924)" gradientUnits="userSpaceOnUse">
      <stop offset="0" stop-color="#d19878"/>
      <stop offset="1" stop-color="#996955" stop-opacity=".5"/>
    </radialGradient>
    <linearGradient id="linear-gradient-2" x1="281.117" y1="373.029" x2="156.856" y2="373.029" gradientUnits="userSpaceOnUse">
      <stop offset="0" stop-color="#fff"/>
      <stop offset="1" stop-color="#d1d3d4"/>
    </linearGradient>
    <radialGradient id="radial-gradient-6" cx="80.304" cy="294.754" fx="80.304" fy="294.754" r="19.26" gradientUnits="userSpaceOnUse">
      <stop offset="0" stop-color="#f1f2f2"/>
      <stop offset="1" stop-color="#00aeef"/>
    </radialGradient>
    <radialGradient id="radial-gradient-7" cx="-232.321" cy="293.872" fx="-232.321" fy="293.872" r="16.641" gradientTransform="translate(138.457) rotate(-180) scale(1 -1)" xlink:href="#radial-gradient-6"/>
    <linearGradient id="linear-gradient-3" x1="128.098" y1="315.65" x2="162.392" y2="237.862" gradientUnits="userSpaceOnUse">
      <stop offset="0" stop-color="#fcfcfc" stop-opacity=".3"/>
      <stop offset="1" stop-color="#f1f2f2" stop-opacity=".1"/>
    </linearGradient>
    <linearGradient id="linear-gradient-4" x1="258.107" y1="315.648" x2="292.4" y2="237.86" xlink:href="#linear-gradient-3"/>
    <radialGradient id="radial-gradient-8" cx="382.079" cy="-116.772" fx="382.079" fy="-116.772" r="365.907" gradientTransform="translate(60.692 393.855) rotate(13.473)" gradientUnits="userSpaceOnUse">
      <stop offset="0" stop-color="#d09072"/>
      <stop offset="1" stop-color="#805848"/>
    </radialGradient>
    <radialGradient id="radial-gradient-9" cx="363.146" cy="-89.204" fx="363.146" fy="-89.204" r="188.85" xlink:href="#radial-gradient-8"/>
    <radialGradient id="radial-gradient-10" cx="-2314.911" cy="1445.219" fx="-2314.911" fy="1445.219" r="95.938" gradientTransform="translate(3047.81 -363.011) rotate(14.231)" xlink:href="#radial-gradient-8"/>
    <radialGradient id="radial-gradient-11" cx="-2319.301" cy="1479.428" fx="-2319.301" fy="1479.428" r="86.933" gradientTransform="translate(3047.81 -363.011) rotate(14.231)" xlink:href="#radial-gradient-8"/>
    <radialGradient id="radial-gradient-12" cx="-2329.905" cy="1371.343" fx="-2329.905" fy="1371.343" r="72.463" gradientTransform="translate(3168.7 -411.504) rotate(14.231) scale(1.048 1.152)" xlink:href="#radial-gradient-8"/>
    <radialGradient id="radial-gradient-13" cx="-2424.479" cy="1358.172" fx="-2424.479" fy="1358.172" r="158.069" gradientTransform="translate(3047.81 -363.011) rotate(14.231)" gradientUnits="userSpaceOnUse">
      <stop offset="0" stop-color="#d09072"/>
      <stop offset="1" stop-color="#805848"/>
    </radialGradient>
    <radialGradient id="radial-gradient-14" cx="380.885" cy="-76.16" fx="380.885" fy="-76.16" r="200.782" xlink:href="#radial-gradient-8"/>
  </defs>
  <g id="Bitmojis">
    <g id="Eco_Front_Happy">
      <path class="cls-20" d="M349.457,358.975c-17.3,27.44-51.08,64.29-68.35,77.73-12.96,10.09-37.69,16.12-59.42,16.14-21.73-.02-46.46-6.05-59.41-16.14-17.27-13.44-51.05-50.29-68.36-77.73-21.46-34.05-19.5-52.53-19.5-106.93,0-109.72,58.62-168.31,147.27-168.31s147.27,39.431,147.27,168.31c0,54.4,1.97,72.88-19.5,106.93Z"/>
      <path class="cls-15" d="M74.667,277.535c.337,6.949,1.666,32.058,5.674,54.778-5.217,3.657-16.826,4.7-16.826,4.7-30.814,2.88-33.756-23.2-33.756-23.2-10.148-.36-13.37-5.87-12.659-17.22.474-7.61,3.136-13.54,3.136-13.54-10.925-4-9.267-21.88,4.065-21.05-13.758-10-4.52-20.01-4.52-20.01-.919-1.07-13.247,7.78-18.316-5.7-3.278-8.73,2.189-10.53,2.454-14.55.209-2.96-2.937-7.31-2.918-10.76.01-4.47,2.739-7.14,2.975-10.19.066-.82-7.173-4.12-2.274-14.94,3.581-7.91,14.241-5.66,16.563-8.55,1.961-2.44-5.477-15.42-2.18-20.75,2.454-3.97,13.275-10.93,13.55-12.56.152-.89-3.657-9.64-2.274-17.5,1.535-8.72,8.281-12.73,8.443-13.76.35-2.26-4.719-6.91.559-15.65,4.235-7.01,19.273-7.93,19.983-8.86,1.118-1.45.957-8.25,4.018-13.09,5.155-8.16,12.801-5.3,17.112-9.68,4.103-4.18,5.647-14.33,11.712-19.38,5.278-4.39,11.437-2.95,15.208-4.91,5.117-2.65,5.638-15.18,17.444-16.26,8.831-.81,9.769,4.72,13.521,5.31.976.15,2.046-3.85,4.008-5.36,1.705-1.3,3.458-2.87,8.784-2.48,1.45.11,2.975.73,4.245,1.43,3.515-11.59,13.796-19.98,25.953-19.98,8.017,0,15.227,3.66,20.202,9.47,3.193-1.4,6.699-2.17,10.376-2.17,3.61,0,7.05.74,10.205,2.1,4.975-5.771,12.157-9.4,20.145-9.4,3.818,0,7.438.83,10.736,2.32,7.448-11.16,29.933-5.76,35.334,5.38,1.184,2.44,2.378,5.78,5.183,7.03,2.255,1.02,4.274-2.29,10.764-1.83,9.087.64,13.389,1.64,20.23,8.65,4.132,4.23,4.643,8.79,6.472,18.37.777,4.06,20.438-4.15,29.033,7.64,1.686,2.32,2.606,7.35,3.686,8.29,1.099.96,4.69-.39,7.059.57,17.226,6.96,18.449,18.98,14.365,37.98,19.756-.54,35.002,16.24,29.715,38.92,14.983,2.914,15.178,22.675,4.785,28.28,11.456,4.76,22.769,15.29,13.881,30.15-3.838,6.43-18.411,3.255-11.184,13.534,4.191,5.96,3.375,16.582-4.321,19.125-4.367,1.443-5.379,4.281-5.379,4.281-.247,6.06,11.278,8.865,10.165,17.571-1.499,11.733-8.611,7.129-9.483,12.04-.777,4.33,4.848,2.732,4.755,9.286-.084,5.974-5.145,5.625-2.781,10.239,1.481,2.891.347,7.454.347,7.454,1.317,4.61,1.724,8.923-1.061,13.1-1.25,1.874-6.007,6.62-6.007,6.62,2.947,19.41-7.628,32.93-21.395,24.94,2.653,30.34-22.785,1.444-22.785,1.444,0,0,6.231-21.444,10.79-78.494.677-8.467-12.546-94.808-25.005-100.021-6.614-2.767-12.421,28.37-20.393,27.391-7.119-.874-3.411-17.778-7.045-21.326-4.454-4.349-8.125,12.232-8.475,17.025-.492,6.737.936,23.344-12.906,23.344-12.089,0-13.256-13.564-15.075-25.504-1.203-7.97-13.37-12.86-10.878-24.4-3.203.03-2.359,6.479-4.567,9.38-8.367,11.04-28.773-17.165-27.735-36.535-6.065,16.826-22.062,10.531-23.247,1.761-1.184-8.83-3.166-7.043-9.642-9.616,5.77,11.02-6.567,15.55-17.804,14.08,3.619,11.83,2.549,19.97-5.856,22.28-1.828.5-5.429.52-8.045-.79-3.316-1.67-6.064-2.96-7.931-6.42-4.236-7.87-4.908-11.43-2.568-20.91l-5.509-4.065c-1.668,14.283-8.287,16.715-8.543,20.655-.37,5.63,4.766,10.2,1.734,21.57-1.725,6.46-8.121,9.11-8.244,9.97-.151,1.1-1.772,15.47-16.004,21.03-6.054,2.37-18.145-9.25-21.718-14.83-2.208-3.47-8.45-14.658-11.465-14.51-10.617.523-16.288,37.781-16.288,37.781,0,0-6.784,22.412-4.307,73.481Z"/>
      <path class="cls-10" d="M376.321,203.551c-4.531-.743-8.486-.726-11.922.504,1.361,11.092,2.652,21.894,3.116,33.603.997,25.142.687,43.322-.362,62.083,10.247-6.534,20.191-19.62,23.505-39.845,4.554-27.795.097-53.979-14.338-56.345Z"/>
      <path class="cls-17" d="M67.053,203.551c4.531-.743,8.486-.726,11.922.504-1.361,11.092-2.652,21.894-3.116,33.603-.997,25.142-.687,43.322.362,62.083-10.247-6.534-20.191-19.62-23.505-39.845-4.554-27.795-.097-53.979,14.338-56.345Z"/>
      <path class="cls-23" d="M247.355,326.061c-10.12,2.22-14.9,7.21-25.67,7.21s-15.56-4.99-25.67-7.21c-14.87-3.25-16.18-19.33-1.35-26.7,9.84-4.9,8.12-4.56,9.65-17.48,1.09-9.18,1.3-9.68,2.86-21.59.55-4.19,3.14-8.14,7.64-10.4,1.95-.97,4.24-1.65,6.87-1.65s4.92.68,6.87,1.65c4.49,2.26,7.08,6.21,7.63,10.4,1.57,11.91,1.78,12.41,2.86,21.59,1.54,12.92-.19,12.58,9.66,17.48,14.82,7.37,13.52,23.45-1.35,26.7Z"/>
      <ellipse class="cls-8" cx="221.687" cy="316.505" rx="21.947" ry="16.765"/>
      <g>
        <path class="cls-2" d="M151.786,358.034s35.04,3.171,69.917,3.171,69.949-2.101,69.949-2.101c0,0-32.703,28.92-69.933,28.92s-69.933-29.99-69.933-29.99Z"/>
        <path class="cls-5" d="M292.955,359.099s-21.616,36.65-71.257,36.65-71.246-37.804-71.246-37.804c0,0,.32-.439,1.589.207,9.809,4.191,28.013,25.672,69.657,25.418,41.643.254,59.859-20.073,69.656-24.264,1.269-.646,1.601-.207,1.601-.207Z"/>
        <path class="cls-9" d="M292.955,359.099s-43.469,9.015-71.257,9.35c-27.777-.334-71.246-10.504-71.246-10.504,5.693-5.402,32.925-8.265,59.741-5.61,7.092.693,11.505,3.071,11.505,3.071,0,0,4.424-2.378,11.516-3.071,26.816-2.655,54.035,1.362,59.741,6.765Z"/>
      </g>
      <path class="cls-19" d="M75.666,288.006c-.033,0-.064-.005-.097-.005-6.483,0-11.471,5.256-11.471,11.739s5.256,11.739,11.739,11.739c.517,0,1.022-.045,1.522-.11-.487-5.714-1.407-14.69-1.694-23.364Z"/>
      <path class="cls-21" d="M367.708,288.007c.033,0,.064-.005.097-.005,6.483,0,11.502,5.258,11.502,11.742,0,6.483-5.256,11.739-11.739,11.739-.517,0-1.022-.045-1.522-.11.487-5.714,1.377-14.692,1.663-23.366Z"/>
      <circle class="cls-4" cx="163.585" cy="250.718" r="13.844"/>
      <circle class="cls-4" cx="279.198" cy="250.718" r="13.844"/>
      <path d="M103.855,239.596s9.103-12.569,14.473-16.13c5.698-3.779,10.012-7.868,24.457-8.357,19.206-.651,43.257,4.003,43.257,4.003,0,0,12.995,2.447,16.535,9.215,3.54,6.768-2.083,7.699-4.384,7.851-4.19.277-12.203-2.59-17.361-3.262-6.898-.899-15.864-2.896-22.661-3.415-7.125-.543-16.66-1.569-27.967-.364-7.074.754-26.349,10.46-26.349,10.46Z"/>
      <path d="M338.927,239.596s-9.103-12.569-14.473-16.13c-5.698-3.779-10.012-7.868-24.457-8.357-19.206-.651-43.257,4.003-43.257,4.003,0,0-12.995,2.447-16.535,9.215-3.54,6.768,2.083,7.699,4.384,7.851,4.19.277,12.203-2.59,17.361-3.262,6.898-.899,15.864-2.896,22.661-3.415,7.125-.543,16.66-1.569,27.967-.364,7.074.754,26.349,10.46,26.349,10.46Z"/>
      <g>
        <ellipse class="cls-12" cx="156.682" cy="250.815" rx="51.231" ry="39.157"/>
        <ellipse class="cls-7" cx="286.69" cy="250.813" rx="51.231" ry="39.157"/>
        <path class="cls-16" d="M286.69,210.05c-28.173,0-51.269,17.111-52.755,38.561-2.351-.727-6.648-1.753-12.248-1.732-5.6-.021-9.897,1.005-12.248,1.732-1.496-21.45-24.582-38.561-52.755-38.561-28.643,0-52.83,18.672-52.83,40.763,0,22.476,23.695,40.763,52.83,40.763,28.632,0,51.996-17.667,52.786-39.608,1.817-.62,6.145-1.892,12.216-1.86,6.071-.032,10.399,1.24,12.205,1.86.802,21.942,24.165,39.608,52.797,39.608,29.135,0,52.83-18.287,52.83-40.763,0-22.091-24.186-40.763-52.83-40.763ZM156.685,288.369c-27.478,0-49.826-16.844-49.826-37.556,0-20.349,22.818-37.557,49.826-37.557,27.467,0,49.826,16.855,49.826,37.557s-22.359,37.556-49.826,37.556ZM286.69,288.369c-27.467,0-49.826-16.844-49.826-37.556s22.359-37.557,49.826-37.557c27.008,0,49.826,17.207,49.826,37.557,0,20.713-22.348,37.556-49.826,37.556Z"/>
      </g>
    </g>
    <g id="Hand10_ThumbsUp">
      <g>
        <polygon class="cls-14" points="378.656 400.876 398.871 400.692 429.625 406.449 437.784 412.195 423.792 442.55 391.109 452.234 361.688 499.1 357.767 527.827 358.51 535.465 328.894 533.264 305.77 524.584 287.484 511.325 271.735 486.907 270.535 468.63 378.656 400.876"/>
        <path class="cls-14" d="M398.477,496.754c13.075,2.478,26.196,2.286,38.978-4.391,8.479-4.429,14.211-11.721,14.483-22.854.047-1.936-.389-3.896-.85-5.745-.641-2.571-2.07-3.283-4.55-2.262-15.028,6.189-30.112,7.012-45.048,3.371-4.358-1.062-8.576-3.097-12.502-5.404-4.744-2.788-8.831-1.437-12.389,4.984-4.562,8.233-3.126,16.314,4.155,23.015,5.147,4.737,11.022,7.884,17.724,9.287Z"/>
        <path class="cls-14" d="M393.998,527.055c10.318,1.466,20.433,2.184,30.375-3.355,3.801-2.117,7.455-5.094,10.617-8.405,4.3-4.503,5.072-12.051,1.819-17.06-.984-1.516-3.796-2.478-5.55-2.017-10.529,2.767-20.955,3.243-31.218,1.275-11.384-2.183-21.229-7.548-27.845-18.64-1.282-2.149-2.724-2.182-4.631-.562-4.727,4.014-7.071,10.95-5.503,17.092,2.933,11.488,9.376,19.623,18.295,25.048,4.333,2.636,9.082,4.443,13.642,6.625Z"/>
        <path class="cls-14" d="M381.891,547.27c7.476,1.894,14.439,1.452,21.411-1.295,5.533-2.181,9.723-7.528,9.915-12.525.12-3.122-.834-4.521-3.859-4.728-5.965-.408-12.051-.718-17.755-2.292-12.842-3.544-23.014-11.512-29.431-24.551-1.614-3.279-2.754-2.735-4.774-.371-5.975,6.995-6.196,19.054-.414,27.875,6.319,9.64,15.141,15.057,24.907,17.887Z"/>
        <path class="cls-14" d="M328.951,460.247c4.717-2.557,9.232-5.466,13.589-8.595,21.313-15.308,33.291-36.508,37.049-62.837,1.919-13.444,2.337-26.8-1.659-39.786-3.014-9.795-7.922-18.175-17.821-21.897-8.892-3.343-16.122.501-18.647,10.099-1.426,5.42-2.12,11.029-3.301,16.519-.956,4.443-2.035,8.868-3.254,13.246-3.703,13.31-12.135,22.971-22.388,31.387-9.003,7.39-17.939,14.922-26.366,23.002-3.407,3.267-6.025,7.875-7.907,12.351-7.154,17.006-9.718,33.731-5.666,49.835,0,0,13.602-4.612,18.008-6.477,13.963-5.911,31.039-12.879,38.362-16.849Z"/>
        <path class="cls-14" d="M424.455,418.734c1.335.031,3.614,1.546,3.667,2.57.153,2.985-2.27,1.994-3.873,2.053-11.91.442-23.526,2.434-34.372,8.763-13.202,7.705-8.931,18.435-1.066,24.569,6.398,4.989,13.935,6.629,21.533,7.425,12.777,1.339,25.545.504,37.69-5.737,10.433-5.361,13.805-15.283,8.835-26.136-5.195-11.345-14.385-17.869-24.606-23.081"/>
        <path class="cls-14" d="M439.799,497.715c1.358-3.108,5.398-4.694,7.709-7.215,6.198-5.614,9.433-13.325,8.227-21.413-.263-2.146-.911-4.446-.607-6.578.339-2.827,2.488-4.896,4.128-7.069,2.019-2.595,3.8-5.626,4.419-8.869.849-4.338-.195-8.745-1.751-12.831-4.372-11.678-14.152-19.52-24.854-25.268-12.292-7.129-26.115-10.326-40.252-9.976-3.063-.049-6.169-.037-9.271-.074-1.356-.031-2.561-.199-3.367-.727-1.233-.69-1.502-2.571-1.371-4.213.137-2.182.331-4.432.578-6.667,2.701-19.311,1.104-44.57-15.19-57.612-2.592-2.065-5.595-3.882-8.687-4.825-6.314-2.169-14.831.278-19.15,5.386-2.099,2.388-3.269,5.536-4.043,8.614-1.809,7.35-3.252,14.687-5.001,22.026-2.261,9.574-6.789,18.269-12.449,26.21-3.741,5.124-8.517,8.756-13.332,12.549-5.445,4.3-10.615,9.121-15.754,13.837-10.931,9.495-17.334,22.568-19.995,36.773-.956,4.728-1.278,8.93-1.572,13.724-1.578,28.554,15.656,55.5,41.606,66.527,13.196,5.561,27.638,8.931,42.09,8.525,7.907-.785,9.838,1.784,15.86,5.844,10.863,6.8,23.516,8.823,35.959,4.714,15.674-5.424,9.328-15.193,16.662-20.585,9.311-5.779,19.658-8.232,20.327-21.136.46-3.173-1.661-6.637-.953-9.558l.036-.111ZM352.809,531.702c-1.692,3.123-18.419-.189-21.847-.824-17.252-3.665-34.227-11.129-45.141-25.563-15.631-19.886-16.547-43.592-7.591-69.144,3.279-9.356,8.122-14.801,15.573-21.143,28.982-25.66,38.767-26.594,45.516-67.777,1.191-6.512,2.873-14.848,9.772-17.438,9.557-3.098,19.889,4.802,23.978,13.162,11.875,23.66,6.142,59.839-6.808,81.727-7.234,12.379-18.77,23.315-31.674,30.705-1.874,1.135-8.17,4.708-4.935,6.778,1.879.619,4.247-.613,5.976-1.541,13.639-7.791,24.862-17.995,32.99-31.292,3.04-4.969,5.585-10.303,7.723-16.126.742-1.939,1.511-3.997,2.727-5.665,1.95-2.854,5.419-3.458,8.675-3.73,14.544-1.129,28.63.598,41.948,6.668,8.048,3.73,15.843,8.395,21.565,15.274,10.948,13.25,10.098,27.622-7.437,33.945-14.079,5.535-37.302,5.371-50.708-1.964-9.786-5.431-15.003-16.103-4.867-23.331,9.691-6.857,21.834-8.933,33.402-9.501,1.646-.124,5.351-.041,4.975-2.206-2.089-3.542-9.616-1.944-13.164-1.712-8.805,1.227-17.513,3.147-25.241,7.896-6.721,3.936-12.249,10.861-9.644,19.062,1.153,3.519,1.885,6.839-1.103,9.65-3.051,3.023-5.639,6.411-6.69,10.68-.631,2.3-.985,4.751-2.189,6.836-1.212,2.171-3.224,3.795-4.827,5.672-2.353,2.695-3.673,5.91-4.278,9.516-.486,3.248-1.189,6.515-3.311,9.132-6.012,6.76-8.298,14.271-5.552,23.148.436,1.492.96,2.922,1.521,4.387.518,1.448,1.361,3.364.708,4.638l-.044.079ZM399.103,494.348c-11.254-2.457-27.626-12.273-23.634-25.702,1.164-3.605,3.829-7.858,7.601-8.876,2.428-.65,5.142.456,7.423,1.552,3.834,1.919,7.712,3.567,11.878,4.534,13.436,3.216,27.242,2.836,40.58-1.364,3.224-1.083,6.49-.916,7.424,2.93,2.907,14.081-7.527,23.055-20.2,26.495-10.03,2.918-20.697,2.565-30.925.463l-.146-.032ZM394.724,523.791c-12.484-4.117-24.561-11.479-29.435-24.47-1.994-4.692-2.157-10.333.936-14.585,1.049-1.496,2.478-2.823,3.93-3.061,3.634-.381,5.604,4.392,8.099,6.389,12.465,11.991,31.626,13.488,47.982,10.797,7.905-1.693,11.42,4.959,8.997,11.831-.852,2.242-2.461,4.143-4.25,5.724-9.769,8.954-23.592,10.375-36.115,7.416l-.143-.04ZM382.279,545.019c-9.751-2.623-18.963-8.542-24.512-17.192-4.561-7.113-5.21-16.625-.46-22.979,2.73-3.568,4.939-1.634,6.782,1.451,9.888,16.162,25.231,21.334,43.134,22.574,6.682.914,4.677,8.351.998,11.683-6.805,6.233-17.192,6.582-25.796,4.501l-.146-.038Z"/>
      </g>
      <g>
        <polygon class="cls-3" points="378.656 400.876 398.871 400.692 429.625 406.449 437.784 412.195 423.792 442.55 391.109 452.234 361.688 499.1 357.767 527.827 358.51 535.465 328.894 533.264 305.77 524.584 287.484 511.325 271.735 486.907 270.535 468.63 378.656 400.876"/>
        <path class="cls-1" d="M398.477,496.754c13.075,2.478,26.196,2.286,38.978-4.391,8.479-4.429,14.211-11.721,14.483-22.854.047-1.936-.389-3.896-.85-5.745-.641-2.571-2.07-3.283-4.55-2.262-15.028,6.189-30.112,7.012-45.048,3.371-4.358-1.062-8.576-3.097-12.502-5.404-4.744-2.788-8.831-1.437-12.389,4.984-4.562,8.233-3.126,16.314,4.155,23.015,5.147,4.737,11.022,7.884,17.724,9.287Z"/>
        <path class="cls-13" d="M393.998,527.055c10.318,1.466,20.433,2.184,30.375-3.355,3.801-2.117,7.455-5.094,10.617-8.405,4.3-4.503,5.072-12.051,1.819-17.06-.984-1.516-3.796-2.478-5.55-2.017-10.529,2.767-20.955,3.243-31.218,1.275-11.384-2.183-21.229-7.548-27.845-18.64-1.282-2.149-2.724-2.182-4.631-.562-4.727,4.014-7.071,10.95-5.503,17.092,2.933,11.488,9.376,19.623,18.295,25.048,4.333,2.636,9.082,4.443,13.642,6.625Z"/>
        <path class="cls-18" d="M381.891,547.27c7.476,1.894,14.439,1.452,21.411-1.295,5.533-2.181,9.723-7.528,9.915-12.525.12-3.122-.834-4.521-3.859-4.728-5.965-.408-12.051-.718-17.755-2.292-12.842-3.544-23.014-11.512-29.431-24.551-1.614-3.279-2.754-2.735-4.774-.371-5.975,6.995-6.196,19.054-.414,27.875,6.319,9.64,15.141,15.057,24.907,17.887Z"/>
        <path class="cls-22" d="M328.951,460.247c4.717-2.557,9.232-5.466,13.589-8.595,21.313-15.308,33.291-36.508,37.049-62.837,1.919-13.444,2.337-26.8-1.659-39.786-3.014-9.795-7.922-18.175-17.821-21.897-8.892-3.343-16.122.501-18.647,10.099-1.426,5.42-2.12,11.029-3.301,16.519-.956,4.443-2.035,8.868-3.254,13.246-3.703,13.31-12.135,22.971-22.388,31.387-9.003,7.39-17.939,14.922-26.366,23.002-3.407,3.267-6.025,7.875-7.907,12.351-7.154,17.006-9.718,33.731-5.666,49.835,0,0,13.602-4.612,18.008-6.477,13.963-5.911,31.039-12.879,38.362-16.849Z"/>
        <path class="cls-6" d="M424.455,418.734c1.335.031,3.614,1.546,3.667,2.57.153,2.985-2.27,1.994-3.873,2.053-11.91.442-23.526,2.434-34.372,8.763-13.202,7.705-8.931,18.435-1.066,24.569,6.398,4.989,13.935,6.629,21.533,7.425,12.777,1.339,25.545.504,37.69-5.737,10.433-5.361,13.805-15.283,8.835-26.136-5.195-11.345-14.385-17.869-24.606-23.081"/>
        <path class="cls-11" d="M439.799,497.715c1.358-3.108,5.398-4.694,7.709-7.215,6.198-5.614,9.433-13.325,8.227-21.413-.263-2.146-.911-4.446-.607-6.578.339-2.827,2.488-4.896,4.128-7.069,2.019-2.595,3.8-5.626,4.419-8.869.849-4.338-.195-8.745-1.751-12.831-4.372-11.678-14.152-19.52-24.854-25.268-12.292-7.129-26.115-10.326-40.252-9.976-3.063-.049-6.169-.037-9.271-.074-1.356-.031-2.561-.199-3.367-.727-1.233-.69-1.502-2.571-1.371-4.213.137-2.182.331-4.432.578-6.667,2.701-19.311,1.104-44.57-15.19-57.612-2.592-2.065-5.595-3.882-8.687-4.825-6.314-2.169-14.831.278-19.15,5.386-2.099,2.388-3.269,5.536-4.043,8.614-1.809,7.35-3.252,14.687-5.001,22.026-2.261,9.574-6.789,18.269-12.449,26.21-3.741,5.124-8.517,8.756-13.332,12.549-5.445,4.3-10.615,9.121-15.754,13.837-10.931,9.495-17.334,22.568-19.995,36.773-.956,4.728-1.278,8.93-1.572,13.724-1.578,28.554,15.656,55.5,41.606,66.527,13.196,5.561,27.638,8.931,42.09,8.525,7.907-.785,9.838,1.784,15.86,5.844,10.863,6.8,23.516,8.823,35.959,4.714,15.674-5.424,9.328-15.193,16.662-20.585,9.311-5.779,19.658-8.232,20.327-21.136.46-3.173-1.661-6.637-.953-9.558l.036-.111ZM352.809,531.702c-1.692,3.123-18.419-.189-21.847-.824-17.252-3.665-34.227-11.129-45.141-25.563-15.631-19.886-16.547-43.592-7.591-69.144,3.279-9.356,8.122-14.801,15.573-21.143,28.982-25.66,38.767-26.594,45.516-67.777,1.191-6.512,2.873-14.848,9.772-17.438,9.557-3.098,19.889,4.802,23.978,13.162,11.875,23.66,6.142,59.839-6.808,81.727-7.234,12.379-18.77,23.315-31.674,30.705-1.874,1.135-8.17,4.708-4.935,6.778,1.879.619,4.247-.613,5.976-1.541,13.639-7.791,24.862-17.995,32.99-31.292,3.04-4.969,5.585-10.303,7.723-16.126.742-1.939,1.511-3.997,2.727-5.665,1.95-2.854,5.419-3.458,8.675-3.73,14.544-1.129,28.63.598,41.948,6.668,8.048,3.73,15.843,8.395,21.565,15.274,10.948,13.25,10.098,27.622-7.437,33.945-14.079,5.535-37.302,5.371-50.708-1.964-9.786-5.431-15.003-16.103-4.867-23.331,9.691-6.857,21.834-8.933,33.402-9.501,1.646-.124,5.351-.041,4.975-2.206-2.089-3.542-9.616-1.944-13.164-1.712-8.805,1.227-17.513,3.147-25.241,7.896-6.721,3.936-12.249,10.861-9.644,19.062,1.153,3.519,1.885,6.839-1.103,9.65-3.051,3.023-5.639,6.411-6.69,10.68-.631,2.3-.985,4.751-2.189,6.836-1.212,2.171-3.224,3.795-4.827,5.672-2.353,2.695-3.673,5.91-4.278,9.516-.486,3.248-1.189,6.515-3.311,9.132-6.012,6.76-8.298,14.271-5.552,23.148.436,1.492.96,2.922,1.521,4.387.518,1.448,1.361,3.364.708,4.638l-.044.079ZM399.103,494.348c-11.254-2.457-27.626-12.273-23.634-25.702,1.164-3.605,3.829-7.858,7.601-8.876,2.428-.65,5.142.456,7.423,1.552,3.834,1.919,7.712,3.567,11.878,4.534,13.436,3.216,27.242,2.836,40.58-1.364,3.224-1.083,6.49-.916,7.424,2.93,2.907,14.081-7.527,23.055-20.2,26.495-10.03,2.918-20.697,2.565-30.925.463l-.146-.032ZM394.724,523.791c-12.484-4.117-24.561-11.479-29.435-24.47-1.994-4.692-2.157-10.333.936-14.585,1.049-1.496,2.478-2.823,3.93-3.061,3.634-.381,5.604,4.392,8.099,6.389,12.465,11.991,31.626,13.488,47.982,10.797,7.905-1.693,11.42,4.959,8.997,11.831-.852,2.242-2.461,4.143-4.25,5.724-9.769,8.954-23.592,10.375-36.115,7.416l-.143-.04ZM382.279,545.019c-9.751-2.623-18.963-8.542-24.512-17.192-4.561-7.113-5.21-16.625-.46-22.979,2.73-3.568,4.939-1.634,6.782,1.451,9.888,16.162,25.231,21.334,43.134,22.574,6.682.914,4.677,8.351.998,11.683-6.805,6.233-17.192,6.582-25.796,4.501l-.146-.038Z"/>
      </g>
    </g>
  </g>
</svg>