<?xml version="1.0" encoding="UTF-8"?>
<svg id="Layer_2" data-name="Layer 2" xmlns="http://www.w3.org/2000/svg" xmlns:xlink="http://www.w3.org/1999/xlink" viewBox="0 0 611.241 611.241">
  <defs>
    <style>
      .cls-1 {
        fill: url(#linear-gradient-2);
      }

      .cls-2 {
        fill: url(#radial-gradient-9);
      }

      .cls-3 {
        fill: url(#linear-gradient-10);
      }

      .cls-4 {
        fill: #231f20;
      }

      .cls-5 {
        fill: #d97c80;
      }

      .cls-6, .cls-7 {
        fill-rule: evenodd;
      }

      .cls-6, .cls-8 {
        fill: #709685;
      }

      .cls-9 {
        fill: #2bb673;
      }

      .cls-10 {
        fill: none;
      }

      .cls-11 {
        fill: url(#linear-gradient-4);
      }

      .cls-12 {
        fill: url(#radial-gradient-5);
      }

      .cls-13 {
        fill: #ea979f;
      }

      .cls-14 {
        fill: url(#radial-gradient);
      }

      .cls-15 {
        fill: url(#linear-gradient-3);
      }

      .cls-16 {
        fill: url(#linear-gradient-5);
      }

      .cls-17 {
        fill: url(#linear-gradient-8);
      }

      .cls-7 {
        fill: url(#radial-gradient-3);
      }

      .cls-18 {
        fill: url(#radial-gradient-8);
      }

      .cls-19 {
        fill: url(#New_Pattern_3);
        opacity: .24;
      }

      .cls-20 {
        fill: url(#radial-gradient-2);
      }

      .cls-21 {
        fill: #d1d3d4;
      }

      .cls-22 {
        fill: url(#radial-gradient-4);
      }

      .cls-23 {
        fill: url(#linear-gradient-7);
      }

      .cls-24 {
        fill: url(#linear-gradient-9);
      }

      .cls-25 {
        fill: url(#linear-gradient-6);
      }

      .cls-26 {
        fill: url(#radial-gradient-6);
      }

      .cls-27 {
        fill: url(#radial-gradient-7);
      }

      .cls-28 {
        fill: url(#linear-gradient);
      }

      .cls-29 {
        fill: #bcbec0;
      }
    </style>
    <linearGradient id="linear-gradient" x1="305.62" y1="-79.35" x2="305.62" y2="1246.7" gradientUnits="userSpaceOnUse">
      <stop offset="0" stop-color="#fff"/>
      <stop offset="1" stop-color="#00aeef"/>
    </linearGradient>
    <pattern id="New_Pattern_3" data-name="New Pattern 3" x="0" y="0" width="118.395" height="122.288" patternTransform="translate(-4933.282 -2840.878) scale(1.111)" patternUnits="userSpaceOnUse" viewBox="0 0 118.395 122.288">
      <g>
        <rect class="cls-10" width="118.395" height="122.288"/>
        <path class="cls-9" d="M118.395.025c-3.721,6.105-7.538,11.867-10.853,17.904-9.19,16.736-15.218,34.687-20.406,53.01-7.642,26.989-24.884,44.287-52.788,49.83-6.249,1.241-12.783,1.051-19.186,1.519l-.651-1.116c18.84-26.397,37.681-52.794,56.521-79.192-.172-.182-.343-.364-.515-.546C47.292,60.567,24.067,79.701.843,98.835c-.281-.144-.562-.289-.843-.433.958-3.873,1.751-7.795,2.899-11.611,7.706-25.619,23.416-45.235,45.387-60.079C69.186,12.591,92.603,4.912,117.095.034c.355-.071.735-.009,1.3-.009Z"/>
      </g>
    </pattern>
    <linearGradient id="linear-gradient-2" x1="335.504" y1="343.675" x2="302.603" y2="477.665" gradientUnits="userSpaceOnUse">
      <stop offset="0" stop-color="#d09072"/>
      <stop offset="1" stop-color="#6c4a3c"/>
    </linearGradient>
    <radialGradient id="radial-gradient" cx="220.02" cy="391.057" fx="220.02" fy="391.057" r="198.504" gradientUnits="userSpaceOnUse">
      <stop offset="0" stop-color="#c8dfc9"/>
      <stop offset="1" stop-color="#7ea287"/>
    </radialGradient>
    <linearGradient id="linear-gradient-3" x1="313.219" y1="508.93" x2="320.624" y2="613.065" gradientUnits="userSpaceOnUse">
      <stop offset="0" stop-color="#f1f2f2"/>
      <stop offset="1" stop-color="#d1d3d4"/>
    </linearGradient>
    <radialGradient id="radial-gradient-2" cx="358.907" cy="361.519" fx="358.907" fy="361.519" r="251.43" xlink:href="#radial-gradient"/>
    <linearGradient id="linear-gradient-4" x1="268.85" y1="454.003" x2="236.853" y2="486" xlink:href="#linear-gradient-3"/>
    <linearGradient id="linear-gradient-5" x1="369.845" y1="460.491" x2="409.211" y2="500.722" xlink:href="#linear-gradient-3"/>
    <radialGradient id="radial-gradient-3" cx="355.459" cy="265.848" fx="355.459" fy="265.848" r="299.867" gradientUnits="userSpaceOnUse">
      <stop offset="0" stop-color="#d09072"/>
      <stop offset="1" stop-color="#805848"/>
    </radialGradient>
    <linearGradient id="linear-gradient-6" x1="269.373" y1="364.832" x2="248.359" y2="403.517" gradientTransform="translate(79.228 -99.166) rotate(.234) scale(1.103) skewX(.469)" gradientUnits="userSpaceOnUse">
      <stop offset="0" stop-color="#d19878"/>
      <stop offset=".886" stop-color="#996955"/>
    </linearGradient>
    <linearGradient id="linear-gradient-7" x1="392.393" y1="403.146" x2="300.663" y2="395.1" gradientUnits="userSpaceOnUse">
      <stop offset="0" stop-color="#fff"/>
      <stop offset="1" stop-color="#d1d3d4"/>
    </linearGradient>
    <radialGradient id="radial-gradient-4" cx="313.06" cy="222.765" fx="313.06" fy="222.765" r="250.337" gradientUnits="userSpaceOnUse">
      <stop offset="0" stop-color="#231f20"/>
      <stop offset="1" stop-color="#414042"/>
    </radialGradient>
    <radialGradient id="radial-gradient-5" cx="-542.462" cy="1691.619" fx="-530.28" fy="1659.491" r="34.36" gradientTransform="translate(-485.015 -2637.445) rotate(-29.7) scale(.915 1.703) skewX(-13.383)" xlink:href="#radial-gradient-3"/>
    <radialGradient id="radial-gradient-6" cx="457.092" cy="293.763" fx="466.503" fy="268.945" r="26.542" gradientTransform="translate(0 -129.382) scale(1 1.44)" xlink:href="#radial-gradient-3"/>
    <linearGradient id="linear-gradient-8" x1="275.785" y1="345.231" x2="305.111" y2="278.713" gradientUnits="userSpaceOnUse">
      <stop offset="0" stop-color="#fcfcfc" stop-opacity=".3"/>
      <stop offset="1" stop-color="#f1f2f2" stop-opacity=".1"/>
    </linearGradient>
    <linearGradient id="linear-gradient-9" x1="383.502" y1="341.899" x2="411.064" y2="279.38" xlink:href="#linear-gradient-8"/>
    <radialGradient id="radial-gradient-7" cx="196.519" cy="334.481" fx="196.519" fy="334.481" r="16.264" gradientUnits="userSpaceOnUse">
      <stop offset="0" stop-color="#f1f2f2"/>
      <stop offset="1" stop-color="#00aeef"/>
    </radialGradient>
    <radialGradient id="radial-gradient-8" cx="452.465" cy="328.905" fx="452.465" fy="328.905" r="12.292" xlink:href="#radial-gradient-7"/>
    <radialGradient id="radial-gradient-9" cx="383.869" cy="337.205" fx="383.869" fy="337.205" r="33.371" gradientUnits="userSpaceOnUse">
      <stop offset="0" stop-color="#d19878"/>
      <stop offset="1" stop-color="#996955" stop-opacity=".5"/>
    </radialGradient>
    <linearGradient id="linear-gradient-10" x1="345.512" y1="505.301" x2="360.041" y2="593.312" xlink:href="#linear-gradient-3"/>
  </defs>
  <g id="Bitmojis">
    <g id="Eco_PFP">
      <circle class="cls-28" cx="305.62" cy="305.62" r="305.62"/>
      <circle class="cls-19" cx="305.62" cy="305.62" r="305.62"/>
      <rect class="cls-1" x="219.931" y="397.902" width="169.514" height="142.539"/>
      <path class="cls-14" d="M199.307,444.38s-30.96,21.958-70.611,41.475c-16.581,8.161-32.871,18.884-45.139,29.73,43.094,45.561,100.056,77.853,164.132,90.148l-48.383-161.354Z"/>
      <path class="cls-15" d="M400.819,457.996c-8.83-11.97-15.627-6.822-19.956.236-4.467,7.282-9.265,10.012-16.657,13.68-.136,11.053-.517,34.195-16.04,61.407-10.013-15.228-23.91-36.625-27.299-56.564-11.427-.485-13.465.08-28.711-5.696-51.912-19.667-80.622-9.101-80.622-9.101l72.06,148.486c7.276.518,14.619.797,22.027.797,39.343,0,76.947-7.44,111.49-20.981-3.606-62.169-8.929-122.284-16.291-132.264Z"/>
      <path class="cls-20" d="M484.898,486.705c-22.981-10.313-90.366-35.865-90.366-35.865l19.703,140.512c42.317-16.095,80.132-41.313,111.042-73.263-13.125-16.312-28.667-26.128-40.379-31.385Z"/>
      <path class="cls-6" d="M446.475,499.218c-28.613-38.802-60.906-59.215-60.906-59.215,12.478,41.148,19.724,97.132,23.854,153.144,13.107-4.733,25.793-10.343,37.998-16.748l3.339-54.286-20.287-8.218,16.003-14.677Z"/>
      <path class="cls-29" d="M290.934,545.079l36.126-48.565c-3.658-9.607-4.135-10.738-6.193-19.759-.638-.027-1.242-.051-1.826-.072l-28.107,68.396Z"/>
      <path class="cls-8" d="M223.85,450.887c-10.763-34.067,8.486-22.472,3.587-37.062-2.89-2.245-46.832,2.2-58.949,69.782-2.744,15.304-3.171,17.439-5.016,27.274l25.304,9.275-20.87,15.651s19.361,26.988,42.629,60.329c25.999,8.504,53.53,13.614,82.076,14.81-34.962-77.751-62.963-141.703-68.762-160.059Z"/>
      <path class="cls-29" d="M364.206,471.912c-.082,6.643-.257,17.654-3.748,31.288l40.646,28.245-36.047-59.958c-.282.141-.561.282-.851.425Z"/>
      <path class="cls-11" d="M320.867,476.755c-28.984-6.489-63.33-34.092-78.743-52.469-13.328-15.891-17.157-39.767-17.157-39.767,0,0-22.82,23.901-8.976,68.242,8.362,26.783,51.694,76.718,66.328,93.077,2.405,2.688,6.714,2.306,8.615-.759l29.933-68.324Z"/>
      <path class="cls-16" d="M364.28,472.23l35.214,57.426c2.227,3.575,6.033,6.04,4.867-7.516-3.542-41.178-19.596-85.654-19.596-85.654h-4.495s4.81,15.927-15.856,34.976c-.213.196-.271.513-.134.769Z"/>
      <g id="Eco_Side_Happy">
        <path class="cls-7" d="M450.045,283.699c-2.406,107.668-33.58,134.396-46.452,157.567-18.752,33.757-82.919,31.352-108.787,11.206-15.78-12.289-76.688-45.961-92.506-71.048-19.617-31.113-17.822-48.004-17.822-97.725,0-100.272,46.262-153.819,127.282-153.819s140.524,53.572,138.284,153.819Z"/>
        <circle class="cls-4" cx="300.605" cy="289.212" r="12.652"/>
        <circle class="cls-4" cx="403.593" cy="289.212" r="12.652"/>
        <path d="M247.118,275.334s8.023-11.477,12.759-14.725c5.026-3.447,8.831-7.179,21.582-7.61,16.955-.573,38.194,3.707,38.194,3.707,0,0,11.475,2.251,14.609,8.44,3.133,6.189-1.83,7.034-3.861,7.17-3.699.248-10.777-2.381-15.331-3.001-6.091-.83-14.009-2.665-20.011-3.146-6.291-.504-14.71-1.453-24.691-.364-6.245.681-23.25,9.529-23.25,9.529Z"/>
        <path d="M446.935,275.166s-6.705-10.777-10.677-13.818c-4.214-3.227-7.4-6.728-18.123-7.087-14.258-.478-32.135,3.63-32.135,3.63,0,0-9.659,2.161-12.317,8.001-2.658,5.839,1.513,6.616,3.221,6.737,3.11.22,9.072-2.281,12.905-2.882,5.125-.804,11.791-2.56,16.841-3.036,5.292-.498,12.377-1.422,20.767-.433,5.249.619,19.519,8.888,19.519,8.888Z"/>
        <path class="cls-25" d="M387.38,330.6c12.677,12.391,4.04,29.987-5.755,31.165-18.545,2.23-14.48-7.083-33.356-3.246-7.619,1.549-14.322-12.208-12.772-19.167,2.31-10.368,14.145-14.996,12.592-41.543-.882-15.07,15.539-11.712,17.26-.759,1.711,10.886,11.598,23.353,22.03,33.55Z"/>
        <path class="cls-23" d="M298.073,388.064l38.783,3.007,64.192-3.007s-9.54,28.198-46.951,27.392c-37.41-.806-56.024-27.392-56.024-27.392Z"/>
        <path class="cls-5" d="M357.844,407.672c21.619-.187,36.431-11.574,43.204-19.608,1.268,14.862-14.282,30.758-35.186,31.802-25.692,1.284-53.009-11.416-69.182-32.096,0,0-.369-.549,1.394.293,7.817,3.737,34.271,19.829,59.771,19.608Z"/>
        <path class="cls-13" d="M402.056,387.594c3.295-1.589-8.996-6.408-15.421-7.617-7.983-1.502-18.88,2.441-18.88,2.441,0,0-3.524-2.091-9.178-2.745-26.765-3.097-60.751,4.216-61.898,8.097,0,0,27.456,5.993,49.601,6.289,22.596.302,40.783.764,55.776-6.465Z"/>
        <path class="cls-22" d="M426.398,241.441c-13.679-.863-12.784-20.444-16.154-30.966-2.25-7.027-14.525-9.679-13.738-20.468-3.047.497-1.357,6.2-3.056,9.141-6.462,11.189-33.607-6.397-27.411-21.154-7.02,5.014-16.185-.725-18.518-8.476-2.35-7.806,2.263-13.777-10.334-12.081,7.02,9.112,2.894,18.552-8.024,18.862,5.079,10.163,5.175,17.674-2.519,20.982-1.669.718-5.102,1.252-7.778.447-3.391-1.019-6.189-1.788-8.447-4.649-5.12-6.487-6.257-9.612-5.322-18.515l-6.398,1.732c8.012,8.056-1.616,15.806-1.32,19.402.422,5.141,5.95,8.519,4.618,19.236-.756,6.086-6.486,9.412-6.482,10.207.006,1.018.432,14.236-12.37,21.327-5.449,3.018-18.577-5.727-22.748-10.252-2.586-2.806-10.159-10.651-12.935-11.444-1.737,7.215-14.647,19.521-14.933,25.674-.186,3.994,6.185,7.88,6.468,12.235.235,3.625-4.706,8.372-4.692,13.899.029,11.329-4.924,7.395-10.191,9.524-1.752.708-1.248,3.95-5.54,4.711-13.478,2.39-7.998-8.294-10.471-13.018-.398-.76-3.181-1.271-4.276-3.045-2.651-4.293-5.7-3.11-7.245-9.146-3.506-13.696-5.364-23.568-3.338-14.21.888,4.101.268,35.407-.238,38.147-.336,1.816,1.696.791,0,5.484-8.633,23.887-20.129,12.546,1.304,3.636l-14.178,13.888c5.96,20.504,5.028,15.812,7.868,26.464,1.639,6.149,9.997,28.587,7.391,34.332-2.885,6.36-5.484,11.888-18.137,12.874-13.648,1.064-13.811-4.768-19.89-9.119-28.983,7.073-27.083-16.567-27.083-16.567-9.729,1.149-13.557-3.358-14.443-13.722-.594-6.945,1.129-12.685,1.129-12.685-10.967-2.027-11.843-18.423.98-19.615-14.496-7.033-7.068-17.419-7.068-17.419-1.023-.832-11.554,8.955-18.245-2.489-4.332-7.409.634-9.831.341-13.505-.216-2.7-3.809-6.179-4.272-9.298-.599-4.036,1.628-6.85,1.442-9.636-.05-.753-7.412-2.679-4.227-13.168,2.329-7.669,12.802-7.183,14.619-10.135,1.532-2.49-7.349-13.132-4.939-18.429,1.795-3.945,11.156-11.8,11.192-13.318.02-.826-4.813-8.173-4.574-15.475.266-8.104,6.145-12.711,6.156-13.666.024-2.087-5.45-5.554-1.622-14.214,3.073-6.952,17.289-9.971,17.841-10.915.858-1.468-.224-7.591,2.027-12.41,3.792-8.12,11.475-6.64,14.983-11.232,3.338-4.369,3.412-13.765,8.498-19.204,4.429-4.737,10.5-4.325,13.83-6.645,4.51-3.143,3.287-14.538,14.399-17.23,8.304-2.012,9.966,2.852,13.621,2.837.952-.004,1.42-3.773,3.088-5.425,1.441-1.427,2.899-3.099,8.029-3.517,2.645-.215,5.798,1.199,6.97,1.927,11.19,6.948,14.446-3.532,26.118,1.736,0,0,1.495-2.577,2.423-3.694,12.911-16.135,32.146-15.747,43.301,1.988l2.362-.003c1.281-10.1,4.262-10.45,9.669-15.331,3.209-2.896,1.458-9.146,3.513-14.841,4.516-12.517,28.056-11.131,34.969-1.515,1.466,2.039,3.066,4.878,5.909,5.606,2.297.589,3.765-2.695,10.016-3.224,8.752-.74,12.988-.462,20.483,4.879,4.516,3.219,5.631,7.272,8.694,15.654,1.3,3.556,18.915-6.717,28.736,2.692,1.928,1.847,3.497,6.262,4.653,6.954,1.18.707,4.419-1.033,6.807-.513,17.384,3.788,20.207,14.473,18.927,32.23,18.764-3.358,35.611,9.588,33.694,30.852,15.662-5.323,29.884,3.489,24.717,22.371,11.576,2.638,23.816,10.508,17.387,25.226-2.78,6.366-11.642,2.952-8.241,13.932,15.03.73,11.314,25.828-1.795,20.777-4.081-1.572-4.796,1.702-4.796,1.702.598,5.511,5.544,6.774,6.348,12.997.72,5.57-1.463,9.098-1.623,13.655-.142,4.023,2.298,7.93,1.44,11.529-1.659,6.956-14.266,7.786-14.241,9.022l2.467,5.967c1.886,3.971,2.22,7.548.791,11.987l-4.815,6.862c5.48,17.104-2.743,30.853-16.976,25.637,6.706,27.031-23.863,4.476-23.863,4.476,0,0,5.326-20.142,1.824-72.352-1.149-17.131-11.712-50.845-11.712-50.845,0,0,2.413,33.914-10.819,33.08Z"/>
        <path class="cls-12" d="M206.265,272.748c5.815,25.477,10.374,63.751-2.857,66.771-13.231,3.02-28.671-15.185-34.486-40.662s-3.192-49.98,10.039-53c13.231-3.02,21.489,1.414,27.305,26.891Z"/>
        <path class="cls-26" d="M457.508,259.232c-3.27-.747-6.154-.913-8.714-.172.491,8.149.942,16.082.751,24.64-.411,18.375-1.459,31.616-3.073,45.246,7.767-4.3,15.608-13.39,18.94-27.986,4.578-20.059,2.513-39.35-7.904-41.728Z"/>
        <g>
          <ellipse class="cls-17" cx="300.228" cy="289.789" rx="43.809" ry="33.484"/>
          <ellipse class="cls-24" cx="406.474" cy="289.79" rx="38.534" ry="32.113"/>
          <path class="cls-21" d="M406.187,255.982c-21.095,0-38.383,14.2-39.482,32.008-10.031-2.867-18.012-1.128-21.368-.081-1.272-18.348-21.017-32.974-45.109-32.974-24.489,0-45.178,15.962-45.178,34.855,0,19.219,20.267,34.855,45.178,34.855,24.482,0,44.465-15.106,45.145-33.871,2.492-.852,10.823-3.13,21.306.053.645,18.163,18.113,32.77,39.508,32.77,21.802,0,39.539-15.166,39.539-33.807s-17.737-33.808-39.539-33.808ZM300.228,321.903c-23.493,0-42.606-14.406-42.606-32.113,0-17.407,19.512-32.113,42.606-32.113,23.493,0,42.605,14.406,42.605,32.113s-19.112,32.113-42.605,32.113ZM406.187,320.855c-20.384,0-36.967-13.936-36.967-31.066s16.583-31.066,36.967-31.066,36.967,13.937,36.967,31.066-16.583,31.066-36.967,31.066Z"/>
        </g>
        <circle class="cls-27" cx="193.449" cy="339.846" r="10.729"/>
        <path class="cls-18" d="M448.199,324.645c-.423,0-.835.041-1.242.101-.627,5.712-1.352,11.11-2.157,16.231,1.042.454,2.19.709,3.399.709,4.705,0,8.52-3.815,8.52-8.52s-3.815-8.52-8.52-8.52Z"/>
        <path class="cls-2" d="M387.38,330.6c-.007-.007-.015-.014-.022-.021-1.975-1.931-4.412-3.377-7.119-3.927-1.779-.362-3.65-.468-5.575-.277-8.913.884-16.037,8.216-16.673,17.15-.466,6.54,2.465,12.407,7.192,16.064,3.624,1.558,7.264,3.281,16.443,2.177,9.794-1.178,18.432-18.774,5.754-31.165Z"/>
      </g>
      <path class="cls-3" d="M350.267,529.471c-.67,1.274-1.364,2.555-2.101,3.848-3.203-4.871-6.802-10.374-10.328-16.257,2.579,9.136,14.32,50.772,24.875,88.831,2.924-.553,5.833-1.147,8.726-1.782-9.246-34.334-17.68-62.974-21.171-74.64Z"/>
    </g>
  </g>
</svg>