<?xml version="1.0" encoding="UTF-8"?>
<svg id="Layer_2" data-name="Layer 2" xmlns="http://www.w3.org/2000/svg" xmlns:xlink="http://www.w3.org/1999/xlink" viewBox="0 0 332.631 413.54">
  <defs>
    <style>
      .cls-1 {
        fill: url(#linear-gradient-2);
      }

      .cls-2 {
        fill: #231f20;
      }

      .cls-3 {
        fill: url(#radial-gradient);
      }

      .cls-4 {
        fill: #971c1f;
      }

      .cls-5 {
        fill: url(#linear-gradient-3);
      }

      .cls-6 {
        fill: #1b1b1b;
      }

      .cls-7 {
        fill: url(#linear-gradient);
      }

      .cls-8 {
        fill: #414042;
      }

      .cls-9 {
        fill: #7f1717;
      }
    </style>
    <linearGradient id="linear-gradient" x1="255.622" y1="18.837" x2="67.323" y2="382.753" gradientUnits="userSpaceOnUse">
      <stop offset="0" stop-color="#1c75bc"/>
      <stop offset="1" stop-color="#2e3192"/>
    </linearGradient>
    <radialGradient id="radial-gradient" cx="49.211" cy="56.757" fx="49.211" fy="56.757" r="480.019" gradientTransform="translate(123.05) scale(.935 1)" gradientUnits="userSpaceOnUse">
      <stop offset="0" stop-color="#d29571"/>
      <stop offset="1" stop-color="#c19776"/>
    </radialGradient>
    <linearGradient id="linear-gradient-2" x1="166.315" y1="188.587" x2="166.315" y2="417.653" gradientUnits="userSpaceOnUse">
      <stop offset="0" stop-color="#d19878"/>
      <stop offset=".886" stop-color="#996955"/>
    </linearGradient>
    <linearGradient id="linear-gradient-3" x1="216.406" y1="326.087" x2="111.636" y2="326.087" gradientUnits="userSpaceOnUse">
      <stop offset="0" stop-color="#fff"/>
      <stop offset="1" stop-color="#d1d3d4"/>
    </linearGradient>
  </defs>
  <g id="Bitmojis">
    <g id="Ethic_Front_Happy">
      <path class="cls-7" d="M323.246,261.93c-7.78,51.08-43.25,151.61-156.93,151.61S17.165,313.01,9.385,261.93c-6.04-39.63-21.01-96.78,7.29-178.44C40.556,14.55,121.616,0,166.315,0s125.76,14.55,149.64,83.49c28.3,81.66,13.33,138.81,7.29,178.44Z"/>
      <path class="cls-3" d="M222.916,384.098c-16.689,17.39-36.47,21.53-56.6,21.53s-39.92-4.14-56.609-21.53c-23.29-24.26-69.097-61.979-69.097-190.73-3.609-104.31,49.16-126,125.706-126s129.305,21.69,125.696,126c0,128.751-45.797,166.47-69.097,190.73Z"/>
      <path class="cls-8" d="M290.015,242.8c.319-2.37-.564-8.11-1.597-14.65-9.739-61.48-12.717-84.13-50.284-118.95-20.821-19.31-47.043-25.11-71.819-25.11s-50.997,5.8-71.819,25.11c-37.576,34.82-40.545,57.47-50.284,118.95-1.033,6.54-1.925,12.28-1.597,14.65-5.832-42.54-4.865-75.25,2.066-108.31,12.641-60.39,62.737-94.92,121.633-94.92s108.992,34.53,121.633,94.92c6.922,33.06,7.899,65.77,2.066,108.31Z"/>
      <path class="cls-6" d="M109.058,174.268c-14.876-1.014-28.026,5.087-42.426,9.533-.866-1.129,5.694-6.437,6.718-7.259,23.694-19.039,41.939-18.48,70.854-11.71,5.68,1.33,5.901,4.984,4.861,9.319-.585,2.441-1.968,4.121-4.363,4.329s-3.913-.204-9.567-.767-11.2-2.431-26.076-3.445Z"/>
      <circle class="cls-2" cx="118.509" cy="203.309" r="13.844"/>
      <circle class="cls-2" cx="214.122" cy="203.309" r="13.844"/>
      <path class="cls-6" d="M223.569,174.268c14.876-1.014,28.026,5.087,42.426,9.533.866-1.129-5.694-6.437-6.718-7.259-23.694-19.039-41.939-18.48-70.854-11.71-5.68,1.33-5.901,4.984-4.861,9.319.585,2.441,1.968,4.121,4.363,4.329,2.391.208,3.913-.204,9.567-.767,5.654-.562,11.2-2.431,26.076-3.445Z"/>
      <path class="cls-1" d="M185.435,283.171c-7.534,2.423-11.098,4.595-19.122,4.595s-11.588-2.172-19.122-4.595c-11.07-3.548-12.05-17.825-.999-25.871,7.326-5.349,6.223-8.22,7.194-22.355.735-10.785,1.245-16.101,2.122-29.025.311-4.585,2.338-8.885,5.695-11.352,1.443-1.059,3.159-1.801,5.111-1.801s3.668.742,5.12,1.801c3.347,2.467,5.375,6.768,5.686,11.352.877,12.924,1.395,18.24,2.131,29.025.962,14.136-.141,17.007,7.194,22.355,11.041,8.045,10.07,22.323-1.009,25.871Z"/>
      <path class="cls-5" d="M107.362,313.097s29.544,2.747,58.95,2.747,58.977-1.82,58.977-1.82c0,0-27.573,25.053-58.963,25.053s-58.963-25.981-58.963-25.981Z"/>
      <path class="cls-4" d="M226.387,314.02s-18.225,31.75-60.08,31.75-60.07-32.75-60.07-32.75c0,0,.27-.38,1.34.18,8.271,3.63,23.619,22.24,58.73,22.02,35.111.22,50.47-17.39,58.73-21.02,1.07-.56,1.35-.18,1.35-.18Z"/>
      <path class="cls-9" d="M226.387,314.02s-36.65,7.81-60.08,8.1c-23.42-.29-60.07-9.1-60.07-9.1,4.8-4.68,27.76-7.16,50.37-4.86,5.98.6,9.7,2.66,9.7,2.66,0,0,3.73-2.06,9.71-2.66,22.61-2.3,45.56,1.18,50.37,5.86Z"/>
    </g>
  </g>
</svg>