<?xml version="1.0" encoding="UTF-8"?>
<svg id="Layer_2" xmlns="http://www.w3.org/2000/svg" xmlns:xlink="http://www.w3.org/1999/xlink" viewBox="0 0 323.76 406.19">
  <defs>
    <style>
      .cls-1 {
        fill: url(#linear-gradient-2);
      }

      .cls-2 {
        fill: #231f20;
      }

      .cls-3 {
        fill: url(#radial-gradient);
      }

      .cls-4 {
        fill: #971c1f;
      }

      .cls-5 {
        fill: #1b1b1b;
      }

      .cls-6 {
        fill: url(#linear-gradient);
      }

      .cls-7 {
        fill: #414042;
      }

      .cls-8 {
        fill: #7f1717;
      }
    </style>
    <linearGradient id="linear-gradient" x1="297.45" y1="-88.9" x2="70.88" y2="348.97" gradientUnits="userSpaceOnUse">
      <stop offset="0" stop-color="#1c75bc"/>
      <stop offset="1" stop-color="#2e3192"/>
    </linearGradient>
    <radialGradient id="radial-gradient" cx="221.71" cy="144.57" fx="205.22" fy="131.92" r="313.83" gradientUnits="userSpaceOnUse">
      <stop offset="0" stop-color="#d29571"/>
      <stop offset="1" stop-color="#c19776"/>
    </radialGradient>
    <linearGradient id="linear-gradient-2" x1="263.59" y1="204.83" x2="200.98" y2="339.44" gradientUnits="userSpaceOnUse">
      <stop offset="0" stop-color="#d19878"/>
      <stop offset=".89" stop-color="#996955"/>
    </linearGradient>
  </defs>
  <g id="Bitmojis">
    <g id="Ethic_x5F_Side">
      <g id="Ethic_x5F_Side_x5F_Happy">
        <path class="cls-6" d="M308.28,92.16C286.6,17.85,245.02,4.15,212.57,1.03,173.7-2.71,69.07.02,30.46,74.11-8.15,148.2-1.5,212,4.93,251.63c8.29,51.08,45.31,126.78,147.77,148.43,41.06,8.68,71.5,5.59,71.5,5.59"/>
        <path class="cls-3" d="M317.95,202.37c20.23,114.42-15.9,150.84-54.64,187.47-14.35,13.57-46.69,26.5-86.17,2.48-49.72-30.26-102.76-81.26-98.71-207.31,2.3-71.75,32.28-103.36,110.71-103.36s141.07-17.44,128.81,120.72Z"/>
        <path class="cls-1" d="M213.1,268.48c1.09,6.18,5.35,8.48,13.05,7.94,16.73-1.17,18.12,4.86,36.4,1.26,14.17-2.8,17.6-12.59,6.12-24.33-6.43-6.57-5.5-4.93-12.51-13.3-5.48-6.56-10.64-14.34-16.57-35.74-2.87-10.37-18.11-9.93-17.59,4.89,1.53,44.41-10.73,48.98-8.9,59.28Z"/>
        <circle class="cls-2" cx="181.15" cy="202.37" r="13.84"/>
        <circle class="cls-2" cx="272.76" cy="202.37" r="13.84"/>
        <path class="cls-7" d="M249.16,43.65c48.9,7.1,68.53,56.75,71.41,95.53.22,2.97.48,26.69-1.09,29.3-16.74-59.83-71.02-102.13-140.26-72.04-67.98,29.54-86.22,69.8-96.59,131.28-1.1,6.54-2.04,12.28-1.7,14.65-6.21-42.54-5.18-75.25,2.2-108.31C99.36,61.25,168.35,31.91,249.16,43.65Z"/>
        <path class="cls-5" d="M168.76,168.64c-16.94-1.1-31.92,5.53-48.32,10.37-.99-1.23,6.48-7,7.65-7.89,26.98-20.71,47.76-20.1,80.69-12.74,6.47,1.45,6.72,5.42,5.54,10.14-.67,2.65-2.24,4.48-4.97,4.71-2.72.23-4.46-.22-10.9-.83-6.44-.61-12.75-2.64-29.7-3.75Z"/>
        <path class="cls-5" d="M255.45,160.13c-5.66.87-5.63,4.95-4.53,9.24.53,2.07,2.28,3.58,4.33,3.72,2.13.14,3.67-.24,8.84-.75,5.38-.53,10.67-2.3,24.83-3.27,8.89-.6,15.92,1.45,24.04,4.1.97.32,3.32,1.13,3.23.07-.17-1.82-6.05-10.49-16.19-13.73-12.03-3.85-26.37-2.17-44.56.62Z"/>
      </g>
      <g>
        <path class="cls-4" d="M181,319.23c16.1,15.95,38.2,19.59,61.69,18.93,19.12-.54,31.55-7.57,27.4-20.63-7.22.62-26.55-1.23-34.12-1.72-15.13-.98-36.1-3.75-54.44,3.08l-.52.34"/>
        <path class="cls-8" d="M271.66,318.05c3.36-.39-4.39-10.38-9.47-12.62-6.81-2.99-17.28-.56-17.28-.56,0,0-3.17-2.11-8.32-2.87-24.37-3.61-54.45,13.49-55.59,17.23,0,0,20.35-5.57,38.68-3.87,18.03,1.68,37.26,4.37,51.98,2.68Z"/>
      </g>
    </g>
  </g>
</svg>