<?xml version="1.0" encoding="UTF-8"?>
<svg id="Layer_2" data-name="Layer 2" xmlns="http://www.w3.org/2000/svg" xmlns:xlink="http://www.w3.org/1999/xlink" viewBox="0 0 323.76 406.12">
  <defs>
    <style>
      .cls-1 {
        fill: url(#linear-gradient-2);
      }

      .cls-2 {
        fill: #231f20;
      }

      .cls-3 {
        fill: url(#radial-gradient);
      }

      .cls-4 {
        fill: #971c1f;
      }

      .cls-5 {
        fill: #1b1b1b;
      }

      .cls-6 {
        fill: url(#linear-gradient);
      }

      .cls-7 {
        fill: #414042;
      }

      .cls-8 {
        fill: #7f1717;
      }
    </style>
    <linearGradient id="linear-gradient" x1="297.65" y1="-88.86" x2="71.09" y2="349.01" gradientUnits="userSpaceOnUse">
      <stop offset="0" stop-color="#1c75bc"/>
      <stop offset="1" stop-color="#2e3192"/>
    </linearGradient>
    <radialGradient id="radial-gradient" cx="221.71" cy="144.5" fx="205.22" fy="131.86" r="313.83" gradientUnits="userSpaceOnUse">
      <stop offset="0" stop-color="#d29571"/>
      <stop offset="1" stop-color="#c19776"/>
    </radialGradient>
    <linearGradient id="linear-gradient-2" x1="263.59" y1="204.76" x2="200.98" y2="339.37" gradientUnits="userSpaceOnUse">
      <stop offset="0" stop-color="#d19878"/>
      <stop offset=".89" stop-color="#996955"/>
    </linearGradient>
  </defs>
  <g id="Bitmojis">
    <g id="Ethic_Side_Neutral">
      <path class="cls-6" d="M308.28,92.1C286.6,17.78,245.02,4.09,212.57.97c-38.87-3.74-143.5,0-182.11,74.08S-1.5,211.94,4.93,251.56c8.29,51.08,45.31,126.78,147.77,148.43,41.06,8.68,71.5,5.59,71.5,5.59"/>
      <path class="cls-3" d="M317.95,202.3c20.23,114.42-15.9,150.84-54.64,187.47-14.35,13.57-46.69,26.5-86.17,2.48-49.72-30.26-102.76-81.26-98.71-207.31,2.3-71.75,32.28-103.36,110.71-103.36s141.07-17.44,128.81,120.72Z"/>
      <path class="cls-1" d="M213.1,268.41c1.09,6.18,5.35,8.48,13.05,7.94,16.73-1.17,18.12,4.86,36.4,1.26,14.17-2.8,17.6-12.59,6.12-24.33-6.43-6.57-5.5-4.93-12.51-13.3-5.48-6.56-10.64-14.34-16.57-35.74-2.87-10.37-18.11-9.93-17.59,4.89,1.53,44.41-10.73,48.98-8.9,59.28Z"/>
      <circle class="cls-2" cx="181.15" cy="202.3" r="13.84"/>
      <circle class="cls-2" cx="272.76" cy="202.3" r="13.84"/>
      <path class="cls-7" d="M249.16,43.59c48.9,7.1,68.53,56.75,71.41,95.53.22,2.97.48,26.69-1.09,29.3-16.74-59.83-71.02-102.13-140.26-72.04-67.98,29.54-86.22,69.8-96.59,131.28-1.1,6.54-2.04,12.28-1.7,14.65-6.21-42.54-5.18-75.25,2.2-108.31C99.36,61.18,168.35,31.85,249.16,43.59Z"/>
      <path class="cls-4" d="M187.26,312.69c14.57,17.35,36.24,23.01,59.69,24.5,19.08,1.21,32.11-4.64,29.17-18.04-7.24-.04-26.33-3.66-33.82-4.84-14.98-2.36-35.61-7.04-54.5-1.93l-.55.29"/>
      <path class="cls-5" d="M168.45,162.68c-16.94-1.1-31.92,5.53-48.32,10.37-.99-1.23,6.48-7,7.65-7.89,26.98-20.71,47.76-20.1,80.69-12.74,6.47,1.45,6.72,5.42,5.54,10.14-.67,2.65-2.24,4.48-4.97,4.71-2.72.23-4.46-.22-10.9-.83-6.44-.61-12.75-2.64-29.7-3.75Z"/>
      <path class="cls-8" d="M277.64,319.82c3.38-.08-3.42-10.74-8.27-13.43-6.5-3.61-17.16-2.14-17.16-2.14,0,0-2.96-2.39-8.02-3.62-23.93-5.83-55.45,8.44-56.93,12.06,0,0,20.78-3.68,38.87-.3s36.7,7.77,51.51,7.43Z"/>
      <path class="cls-5" d="M255.45,174.32c-5.66.87-5.63,4.95-4.53,9.24.53,2.07,2.28,3.58,4.33,3.72,2.13.14,3.67-.24,8.84-.75,5.38-.53,10.67-2.3,24.83-3.27,8.89-.6,15.92,1.45,24.04,4.1.97.32,3.32,1.13,3.23.07-.17-1.82-6.05-10.49-16.19-13.73-12.03-3.85-26.37-2.17-44.56.62Z"/>
    </g>
  </g>
</svg>