<?xml version="1.0" encoding="UTF-8"?>
<svg id="Layer_2" data-name="Layer 2" xmlns="http://www.w3.org/2000/svg" xmlns:xlink="http://www.w3.org/1999/xlink" viewBox="0 0 430.403 511.88">
  <defs>
    <style>
      .cls-1 {
        fill: url(#linear-gradient-2);
      }

      .cls-2 {
        fill: #231f20;
      }

      .cls-3 {
        fill: url(#radial-gradient-5);
      }

      .cls-4 {
        fill: #8b5e3c;
      }

      .cls-5 {
        fill: url(#radial-gradient);
      }

      .cls-6 {
        fill: url(#radial-gradient-3);
      }

      .cls-7 {
        fill: #971c1f;
      }

      .cls-8 {
        fill: url(#linear-gradient-3);
      }

      .cls-9 {
        fill: url(#radial-gradient-2);
      }

      .cls-10 {
        fill: url(#radial-gradient-4);
      }

      .cls-11 {
        fill: #1b1b1b;
      }

      .cls-12 {
        fill: url(#radial-gradient-6);
      }

      .cls-13 {
        fill: url(#radial-gradient-7);
      }

      .cls-14 {
        fill: url(#linear-gradient);
      }

      .cls-15 {
        fill: #414042;
      }

      .cls-16 {
        fill: #7f1717;
      }
    </style>
    <linearGradient id="linear-gradient" x1="255.622" y1="18.837" x2="67.323" y2="382.753" gradientUnits="userSpaceOnUse">
      <stop offset="0" stop-color="#1c75bc"/>
      <stop offset="1" stop-color="#2e3192"/>
    </linearGradient>
    <radialGradient id="radial-gradient" cx="49.211" cy="56.757" fx="49.211" fy="56.757" r="480.019" gradientTransform="translate(123.05) scale(.935 1)" gradientUnits="userSpaceOnUse">
      <stop offset="0" stop-color="#d29571"/>
      <stop offset="1" stop-color="#c19776"/>
    </radialGradient>
    <linearGradient id="linear-gradient-2" x1="166.315" y1="188.587" x2="166.315" y2="417.653" gradientUnits="userSpaceOnUse">
      <stop offset="0" stop-color="#d19878"/>
      <stop offset=".886" stop-color="#996955"/>
    </linearGradient>
    <linearGradient id="linear-gradient-3" x1="216.406" y1="326.087" x2="111.636" y2="326.087" gradientUnits="userSpaceOnUse">
      <stop offset="0" stop-color="#fff"/>
      <stop offset="1" stop-color="#d1d3d4"/>
    </linearGradient>
    <radialGradient id="radial-gradient-2" cx="-2390.498" cy="1399.729" fx="-2390.498" fy="1399.729" r="204.7" gradientTransform="translate(3027.168 -433.02) rotate(13.477)" gradientUnits="userSpaceOnUse">
      <stop offset="0" stop-color="#d19470"/>
      <stop offset="1" stop-color="#c19776"/>
    </radialGradient>
    <radialGradient id="radial-gradient-3" cx="-2348.714" cy="1441.935" fx="-2348.714" fy="1441.935" r="67.003" xlink:href="#radial-gradient-2"/>
    <radialGradient id="radial-gradient-4" cx="-2353.552" cy="1476.594" fx="-2353.552" fy="1476.594" r="61.509" xlink:href="#radial-gradient-2"/>
    <radialGradient id="radial-gradient-5" cx="-2270.405" cy="1361.858" fx="-2270.405" fy="1361.858" r="50.888" gradientTransform="translate(3053.43 -497.129) rotate(13.477) scale(1.048 1.152)" xlink:href="#radial-gradient-2"/>
    <radialGradient id="radial-gradient-6" cx="-2461.129" cy="1338.864" fx="-2461.129" fy="1338.864" r="137.492" gradientTransform="translate(3027.168 -433.02) rotate(13.477)" gradientUnits="userSpaceOnUse">
      <stop offset="0" stop-color="#d19470"/>
      <stop offset="1" stop-color="#c19776"/>
    </radialGradient>
    <radialGradient id="radial-gradient-7" cx="-2348.749" cy="1396.435" fx="-2348.749" fy="1396.435" r="83.243" xlink:href="#radial-gradient-2"/>
  </defs>
  <g id="Bitmojis">
    <g id="Ethic_Front_Happy">
      <path class="cls-14" d="M323.246,261.93c-7.78,51.08-43.25,151.61-156.93,151.61S17.165,313.01,9.385,261.93c-6.04-39.63-21.01-96.78,7.29-178.44C40.556,14.55,121.616,0,166.315,0s125.76,14.55,149.64,83.49c28.3,81.66,13.33,138.81,7.29,178.44Z"/>
      <path class="cls-5" d="M222.916,384.098c-16.689,17.39-36.47,21.53-56.6,21.53s-39.92-4.14-56.609-21.53c-23.29-24.26-69.097-61.979-69.097-190.73-3.609-104.31,49.16-126,125.706-126s129.305,21.69,125.696,126c0,128.751-45.797,166.47-69.097,190.73Z"/>
      <path class="cls-15" d="M290.015,242.8c.319-2.37-.564-8.11-1.597-14.65-9.739-61.48-12.717-84.13-50.284-118.95-20.821-19.31-47.043-25.11-71.819-25.11s-50.997,5.8-71.819,25.11c-37.576,34.82-40.545,57.47-50.284,118.95-1.033,6.54-1.925,12.28-1.597,14.65-5.832-42.54-4.865-75.25,2.066-108.31,12.641-60.39,62.737-94.92,121.633-94.92s108.992,34.53,121.633,94.92c6.922,33.06,7.899,65.77,2.066,108.31Z"/>
      <path class="cls-11" d="M109.058,174.268c-14.876-1.014-28.026,5.087-42.426,9.533-.866-1.129,5.694-6.437,6.718-7.259,23.694-19.039,41.939-18.48,70.854-11.71,5.68,1.33,5.901,4.984,4.861,9.319-.585,2.441-1.968,4.121-4.363,4.329s-3.913-.204-9.567-.767-11.2-2.431-26.076-3.445Z"/>
      <circle class="cls-2" cx="118.509" cy="203.309" r="13.844"/>
      <circle class="cls-2" cx="214.122" cy="203.309" r="13.844"/>
      <path class="cls-11" d="M223.569,174.268c14.876-1.014,28.026,5.087,42.426,9.533.866-1.129-5.694-6.437-6.718-7.259-23.694-19.039-41.939-18.48-70.854-11.71-5.68,1.33-5.901,4.984-4.861,9.319.585,2.441,1.968,4.121,4.363,4.329,2.391.208,3.913-.204,9.567-.767,5.654-.562,11.2-2.431,26.076-3.445Z"/>
      <path class="cls-1" d="M185.435,283.171c-7.534,2.423-11.098,4.595-19.122,4.595s-11.588-2.172-19.122-4.595c-11.07-3.548-12.05-17.825-.999-25.871,7.326-5.349,6.223-8.22,7.194-22.355.735-10.785,1.245-16.101,2.122-29.025.311-4.585,2.338-8.885,5.695-11.352,1.443-1.059,3.159-1.801,5.111-1.801s3.668.742,5.12,1.801c3.347,2.467,5.375,6.768,5.686,11.352.877,12.924,1.395,18.24,2.131,29.025.962,14.136-.141,17.007,7.194,22.355,11.041,8.045,10.07,22.323-1.009,25.871Z"/>
      <path class="cls-8" d="M107.362,313.097s29.544,2.747,58.95,2.747,58.977-1.82,58.977-1.82c0,0-27.573,25.053-58.963,25.053s-58.963-25.981-58.963-25.981Z"/>
      <path class="cls-7" d="M226.387,314.02s-18.225,31.75-60.08,31.75-60.07-32.75-60.07-32.75c0,0,.27-.38,1.34.18,8.271,3.63,23.619,22.24,58.73,22.02,35.111.22,50.47-17.39,58.73-21.02,1.07-.56,1.35-.18,1.35-.18Z"/>
      <path class="cls-16" d="M226.387,314.02s-36.65,7.81-60.08,8.1c-23.42-.29-60.07-9.1-60.07-9.1,4.8-4.68,27.76-7.16,50.37-4.86,5.98.6,9.7,2.66,9.7,2.66,0,0,3.73-2.06,9.71-2.66,22.61-2.3,45.56,1.18,50.37,5.86Z"/>
    </g>
    <g id="Hand6_ThumbsUp">
      <g>
        <polygon class="cls-4" points="344.527 361.699 364.738 361.249 395.565 366.601 403.799 372.239 390.208 402.775 357.655 412.889 328.853 460.137 325.311 488.914 326.154 496.541 296.512 494.731 273.276 486.355 254.816 473.338 238.747 449.129 237.308 430.87 344.527 361.699"/>
        <path class="cls-4" d="M365.608,457.308c13.106,2.306,26.224,1.941,38.917-4.903,8.42-4.54,14.056-11.907,14.181-23.043.022-1.936-.44-3.89-.925-5.734-.675-2.562-2.113-3.256-4.58-2.202-14.945,6.387-30.018,7.407-45,3.964-4.372-1.005-8.616-2.984-12.572-5.239-4.78-2.726-8.849-1.321-12.322,5.146-4.453,8.293-2.911,16.354,4.457,22.958,5.209,4.668,11.125,7.739,17.845,9.053Z"/>
        <path class="cls-4" d="M361.528,487.665c10.336,1.33,20.46,1.915,30.328-3.754,3.773-2.167,7.388-5.192,10.505-8.544,4.24-4.56,4.913-12.117,1.594-17.083-1.004-1.503-3.828-2.428-5.576-1.944-10.492,2.905-20.911,3.518-31.199,1.686-11.412-2.033-21.326-7.268-28.088-18.272-1.31-2.132-2.752-2.146-4.638-.501-4.674,4.076-6.926,11.042-5.277,17.163,3.084,11.449,9.634,19.498,18.623,24.805,4.367,2.579,9.139,4.323,13.728,6.445Z"/>
        <path class="cls-4" d="M349.688,508.038c7.5,1.796,14.457,1.262,21.392-1.577,5.504-2.253,9.623-7.656,9.75-12.654.079-3.124-.893-4.51-3.921-4.677-5.97-.329-12.059-.559-17.784-2.058-12.888-3.375-23.164-11.208-29.752-24.162-1.657-3.257-2.79-2.699-4.778-.308-5.882,7.073-5.945,19.133-.047,27.878,6.446,9.556,15.338,14.856,25.14,17.558Z"/>
        <path class="cls-4" d="M295.607,421.719c4.682-2.619,9.16-5.587,13.474-8.773,21.11-15.588,32.808-36.943,36.219-63.319,1.742-13.468,1.984-26.828-2.182-39.761-3.142-9.754-8.161-18.069-18.107-21.66-8.935-3.226-16.114.713-18.513,10.343-1.355,5.438-1.975,11.056-3.083,16.561-.897,4.455-1.918,8.894-3.079,13.288-3.528,13.357-11.832,23.129-21.973,31.679-8.905,7.508-17.741,15.157-26.061,23.347-3.364,3.311-5.92,7.954-7.744,12.454-6.929,17.099-9.273,33.856-5.01,49.905,0,0,13.541-4.79,17.922-6.713,13.884-6.094,30.867-13.287,38.137-17.352Z"/>
        <path class="cls-4" d="M390.558,378.953c1.335.013,3.634,1.498,3.7,2.522.192,2.983-2.244,2.024-3.846,2.104-11.903.598-23.492,2.743-34.254,9.215-13.1,7.878-8.688,18.551-.742,24.581,6.463,4.904,14.021,6.445,21.629,7.141,12.794,1.171,25.549.168,37.612-6.232,10.362-5.498,13.602-15.463,8.49-26.25-5.344-11.275-14.619-17.678-24.907-22.755"/>
        <path class="cls-4" d="M406.939,457.725c1.317-3.126,5.336-4.765,7.613-7.316,6.124-5.695,9.257-13.448,7.945-21.519-.291-2.143-.969-4.434-.693-6.57.302-2.831,2.423-4.928,4.035-7.122,1.985-2.622,3.726-5.676,4.302-8.927.792-4.349-.31-8.741-1.92-12.807-4.525-11.62-14.408-19.333-25.185-24.939-12.385-6.966-26.249-9.981-40.38-9.445-3.063-.009-6.169.044-9.272.048-1.356-.013-2.563-.166-3.377-.682-1.242-.673-1.535-2.551-1.426-4.195.109-2.184.272-4.436.49-6.674,2.447-19.344.517-44.581-15.946-57.407-2.618-2.031-5.646-3.808-8.75-4.71-6.342-2.085-14.826.473-19.078,5.638-2.068,2.415-3.196,5.579-3.929,8.667-1.712,7.374-3.059,14.728-4.711,22.09-2.134,9.603-6.548,18.357-12.103,26.372-3.674,5.173-8.401,8.867-13.166,12.723-5.387,4.371-10.494,9.26-15.57,14.043-10.805,9.638-17.036,22.794-19.509,37.033-.893,4.74-1.161,8.946-1.392,13.743-1.202,28.572,16.385,55.29,42.478,65.974,13.268,5.387,27.753,8.566,42.198,7.97,7.896-.889,9.86,1.655,15.936,5.635,10.951,6.657,23.63,8.513,36.018,4.24,15.602-5.63,9.127-15.314,16.389-20.803,9.234-5.901,19.548-8.49,20.047-21.402.418-3.179-1.748-6.615-1.079-9.545l.034-.112ZM320.404,492.854c-1.651,3.145-18.42.054-21.856-.536-17.299-3.437-34.37-10.678-45.474-24.967-15.891-19.678-17.119-43.371-8.5-69.038,3.156-9.398,7.927-14.906,15.294-21.346,28.642-26.039,38.414-27.101,44.621-68.37,1.105-6.528,2.678-14.884,9.542-17.565,9.516-3.224,19.951,4.54,24.149,12.845,12.185,23.501,6.929,59.753-5.732,81.81-7.07,12.473-18.462,23.56-31.267,31.12-1.859,1.16-8.108,4.816-4.845,6.842,1.887.595,4.239-.669,5.955-1.62,13.535-7.97,24.623-18.321,32.575-31.724,2.975-5.008,5.449-10.376,7.51-16.227.716-1.948,1.459-4.017,2.652-5.7,1.912-2.88,5.373-3.529,8.625-3.843,14.528-1.32,28.636.221,42.032,6.116,8.096,3.624,15.952,8.186,21.764,14.989,11.122,13.104,10.461,27.487-6.99,34.04-14.005,5.719-37.228,5.861-50.729-1.297-9.856-5.301-15.214-15.905-5.173-23.265,9.6-6.984,21.714-9.22,33.274-9.94,1.644-.145,5.35-.111,4.946-2.271-2.135-3.514-9.641-1.817-13.185-1.539-8.788,1.343-17.47,3.377-25.135,8.227-6.669,4.024-12.105,11.021-9.392,19.187,1.199,3.503,1.975,6.814-.976,9.664-3.011,3.063-5.554,6.485-6.549,10.768-.601,2.308-.922,4.764-2.099,6.864-1.183,2.187-3.174,3.837-4.752,5.735-2.317,2.726-3.595,5.958-4.152,9.571-.443,3.254-1.103,6.53-3.191,9.175-5.922,6.839-8.109,14.379-5.247,23.219.455,1.486.998,2.909,1.579,4.367.537,1.441,1.405,3.346.769,4.628l-.043.08ZM366.203,454.894c-11.285-2.308-27.785-11.908-23.97-25.389,1.116-3.62,3.725-7.908,7.484-8.975,2.419-.682,5.148.388,7.443,1.454,3.859,1.868,7.758,3.466,11.937,4.377,13.477,3.039,27.277,2.477,40.558-1.898,3.21-1.125,6.477-1.002,7.462,2.832,3.092,14.042-7.223,23.153-19.85,26.759-9.991,3.05-20.662,2.837-30.916.869l-.147-.03ZM362.211,484.392c-12.537-3.952-24.71-11.155-29.755-24.081-2.055-4.665-2.293-10.304.744-14.596,1.029-1.51,2.44-2.855,3.889-3.113,3.629-.429,5.661,4.318,8.183,6.282,12.621,11.826,31.801,13.071,48.12,10.165,7.882-1.797,11.484,4.808,9.151,11.711-.822,2.253-2.406,4.175-4.174,5.779-9.65,9.082-23.453,10.685-36.014,7.89l-.144-.038ZM350.047,505.782c-9.784-2.494-19.074-8.292-24.736-16.868-4.655-7.052-5.428-16.555-.763-22.971,2.683-3.604,4.917-1.698,6.801,1.362,10.1,16.031,25.509,21,43.428,22.004,6.694.826,4.787,8.288,1.152,11.669-6.723,6.322-17.104,6.807-25.735,4.84l-.147-.036Z"/>
      </g>
      <g>
        <polygon class="cls-9" points="344.527 361.699 364.738 361.249 395.565 366.601 403.799 372.239 390.208 402.775 357.655 412.889 328.853 460.137 325.311 488.914 326.154 496.541 296.512 494.731 273.276 486.355 254.816 473.338 238.747 449.129 237.308 430.87 344.527 361.699"/>
        <path class="cls-6" d="M365.608,457.308c13.106,2.306,26.224,1.941,38.917-4.903,8.42-4.54,14.056-11.907,14.181-23.043.022-1.936-.44-3.89-.925-5.734-.675-2.562-2.113-3.256-4.58-2.202-14.945,6.387-30.018,7.407-45,3.964-4.372-1.005-8.616-2.984-12.572-5.239-4.78-2.726-8.849-1.321-12.322,5.146-4.453,8.293-2.911,16.354,4.457,22.958,5.209,4.668,11.125,7.739,17.845,9.053Z"/>
        <path class="cls-10" d="M361.528,487.665c10.336,1.33,20.46,1.915,30.328-3.754,3.773-2.167,7.388-5.192,10.505-8.544,4.24-4.56,4.913-12.117,1.594-17.083-1.004-1.503-3.828-2.428-5.576-1.944-10.492,2.905-20.911,3.518-31.199,1.686-11.412-2.033-21.326-7.268-28.088-18.272-1.31-2.132-2.752-2.146-4.638-.501-4.674,4.076-6.926,11.042-5.277,17.163,3.084,11.449,9.634,19.498,18.623,24.805,4.367,2.579,9.139,4.323,13.728,6.445Z"/>
        <path class="cls-3" d="M349.688,508.038c7.5,1.796,14.457,1.262,21.392-1.577,5.504-2.253,9.623-7.656,9.75-12.654.079-3.124-.893-4.51-3.921-4.677-5.97-.329-12.059-.559-17.784-2.058-12.888-3.375-23.164-11.208-29.752-24.162-1.657-3.257-2.79-2.699-4.778-.308-5.882,7.073-5.945,19.133-.047,27.878,6.446,9.556,15.338,14.856,25.14,17.558Z"/>
        <path class="cls-12" d="M295.607,421.719c4.682-2.619,9.16-5.587,13.474-8.773,21.11-15.588,32.808-36.943,36.219-63.319,1.742-13.468,1.984-26.828-2.182-39.761-3.142-9.754-8.161-18.069-18.107-21.66-8.935-3.226-16.114.713-18.513,10.343-1.355,5.438-1.975,11.056-3.083,16.561-.897,4.455-1.918,8.894-3.079,13.288-3.528,13.357-11.832,23.129-21.973,31.679-8.905,7.508-17.741,15.157-26.061,23.347-3.364,3.311-5.92,7.954-7.744,12.454-6.929,17.099-9.273,33.856-5.01,49.905,0,0,13.541-4.79,17.922-6.713,13.884-6.094,30.867-13.287,38.137-17.352Z"/>
        <path class="cls-13" d="M390.558,378.953c1.335.013,3.634,1.498,3.7,2.522.192,2.983-2.244,2.024-3.846,2.104-11.903.598-23.492,2.743-34.254,9.215-13.1,7.878-8.688,18.551-.742,24.581,6.463,4.904,14.021,6.445,21.629,7.141,12.794,1.171,25.549.168,37.612-6.232,10.362-5.498,13.602-15.463,8.49-26.25-5.344-11.275-14.619-17.678-24.907-22.755"/>
        <path class="cls-4" d="M406.939,457.725c1.317-3.126,5.336-4.765,7.613-7.316,6.124-5.695,9.257-13.448,7.945-21.519-.291-2.143-.969-4.434-.693-6.57.302-2.831,2.423-4.928,4.035-7.122,1.985-2.622,3.726-5.676,4.302-8.927.792-4.349-.31-8.741-1.92-12.807-4.525-11.62-14.408-19.333-25.185-24.939-12.385-6.966-26.249-9.981-40.38-9.445-3.063-.009-6.169.044-9.272.048-1.356-.013-2.563-.166-3.377-.682-1.242-.673-1.535-2.551-1.426-4.195.109-2.184.272-4.436.49-6.674,2.447-19.344.517-44.581-15.946-57.407-2.618-2.031-5.646-3.808-8.75-4.71-6.342-2.085-14.826.473-19.078,5.638-2.068,2.415-3.196,5.579-3.929,8.667-1.712,7.374-3.059,14.728-4.711,22.09-2.134,9.603-6.548,18.357-12.103,26.372-3.674,5.173-8.401,8.867-13.166,12.723-5.387,4.371-10.494,9.26-15.57,14.043-10.805,9.638-17.036,22.794-19.509,37.033-.893,4.74-1.161,8.946-1.392,13.743-1.202,28.572,16.385,55.29,42.478,65.974,13.268,5.387,27.753,8.566,42.198,7.97,7.896-.889,9.86,1.655,15.936,5.635,10.951,6.657,23.63,8.513,36.018,4.24,15.602-5.63,9.127-15.314,16.389-20.803,9.234-5.901,19.548-8.49,20.047-21.402.418-3.179-1.748-6.615-1.079-9.545l.034-.112ZM320.404,492.854c-1.651,3.145-18.42.054-21.856-.536-17.299-3.437-34.37-10.678-45.474-24.967-15.891-19.678-17.119-43.371-8.5-69.038,3.156-9.398,7.927-14.906,15.294-21.346,28.642-26.039,38.414-27.101,44.621-68.37,1.105-6.528,2.678-14.884,9.542-17.565,9.516-3.224,19.951,4.54,24.149,12.845,12.185,23.501,6.929,59.753-5.732,81.81-7.07,12.473-18.462,23.56-31.267,31.12-1.859,1.16-8.108,4.816-4.845,6.842,1.887.595,4.239-.669,5.955-1.62,13.535-7.97,24.623-18.321,32.575-31.724,2.975-5.008,5.449-10.376,7.51-16.227.716-1.948,1.459-4.017,2.652-5.7,1.912-2.88,5.373-3.529,8.625-3.843,14.528-1.32,28.636.221,42.032,6.116,8.096,3.624,15.952,8.186,21.764,14.989,11.122,13.104,10.461,27.487-6.99,34.04-14.005,5.719-37.228,5.861-50.729-1.297-9.856-5.301-15.214-15.905-5.173-23.265,9.6-6.984,21.714-9.22,33.274-9.94,1.644-.145,5.35-.111,4.946-2.271-2.135-3.514-9.641-1.817-13.185-1.539-8.788,1.343-17.47,3.377-25.135,8.227-6.669,4.024-12.105,11.021-9.392,19.187,1.199,3.503,1.975,6.814-.976,9.664-3.011,3.063-5.554,6.485-6.549,10.768-.601,2.308-.922,4.764-2.099,6.864-1.183,2.187-3.174,3.837-4.752,5.735-2.317,2.726-3.595,5.958-4.152,9.571-.443,3.254-1.103,6.53-3.191,9.175-5.922,6.839-8.109,14.379-5.247,23.219.455,1.486.998,2.909,1.579,4.367.537,1.441,1.405,3.346.769,4.628l-.043.08ZM366.203,454.894c-11.285-2.308-27.785-11.908-23.97-25.389,1.116-3.62,3.725-7.908,7.484-8.975,2.419-.682,5.148.388,7.443,1.454,3.859,1.868,7.758,3.466,11.937,4.377,13.477,3.039,27.277,2.477,40.558-1.898,3.21-1.125,6.477-1.002,7.462,2.832,3.092,14.042-7.223,23.153-19.85,26.759-9.991,3.05-20.662,2.837-30.916.869l-.147-.03ZM362.211,484.392c-12.537-3.952-24.71-11.155-29.755-24.081-2.055-4.665-2.293-10.304.744-14.596,1.029-1.51,2.44-2.855,3.889-3.113,3.629-.429,5.661,4.318,8.183,6.282,12.621,11.826,31.801,13.071,48.12,10.165,7.882-1.797,11.484,4.808,9.151,11.711-.822,2.253-2.406,4.175-4.174,5.779-9.65,9.082-23.453,10.685-36.014,7.89l-.144-.038ZM350.047,505.782c-9.784-2.494-19.074-8.292-24.736-16.868-4.655-7.052-5.428-16.555-.763-22.971,2.683-3.604,4.917-1.698,6.801,1.362,10.1,16.031,25.509,21,43.428,22.004,6.694.826,4.787,8.288,1.152,11.669-6.723,6.322-17.104,6.807-25.735,4.84l-.147-.036Z"/>
      </g>
    </g>
  </g>
</svg>