<svg width="256" height="179" viewBox="0 0 256 179" fill="none" xmlns="http://www.w3.org/2000/svg">
<path d="M67.735 152.66C67.3659 152.92 66.9469 153.19 66.5778 153.4C66.897 154.19 67.1564 155.13 67.2561 156.18C69.3013 173.62 35.5517 159.86 35.5517 159.86C35.5517 159.86 45.9769 152.4 54.8856 150.04C48.7004 146.57 40.5298 140.69 33.3968 131.13C33.0776 132.08 32.4491 133.07 31.5612 134.07C20.3479 146.94 8.18693 114.79 7.60831 113.06C8.23681 113.16 19.081 115.69 26.633 120.05C22.9617 112.75 20.0287 103.92 18.5622 93.4201C17.6145 94.6301 16.148 95.5201 14.0529 96.1001C-2.8767 100.72 5.61307 65.2601 5.61307 65.2601C5.61307 65.2601 14.0529 73.9801 17.9237 82.2801C18.243 76.8701 19.6496 66.8401 24.947 56.5901C23.9494 56.6401 22.852 56.4801 21.595 56.0601C4.87482 50.8101 31.1821 25.5401 31.1821 25.5401C31.1821 25.5401 33.3869 36.5201 32.4391 45.4501C36.3698 40.9301 41.3479 36.7301 47.6329 33.3201C42.4453 20.8201 74.7782 16.8301 74.7782 16.8301C74.7782 16.8301 59.2153 49.6601 48.9398 35.5801C41.7569 39.4701 36.3598 44.4601 32.3793 49.7101C39.8215 44.9801 56.5916 45.6101 56.5916 45.6101C56.5916 45.6101 37.2576 73.7101 29.9151 59.0101C29.1769 57.5401 28.8676 56.1701 28.8676 55.0201C28.8178 55.1301 28.708 55.1801 28.6581 55.2301C22.7323 65.3201 21.0563 75.6101 20.5375 81.4401C25.6254 74.6101 36.5194 68.1501 36.5194 68.1501C36.5194 68.1501 35.422 101.35 21.6848 93.2101C21.4753 93.1001 21.2658 92.9501 21.1061 92.8401C22.3631 101.98 24.7175 109.7 27.7104 116.32C28.708 107.18 34.2049 95.8901 34.2049 95.8901C34.2049 95.8901 53.2795 126.99 35.7812 127.83C35.2025 127.88 34.6838 127.83 34.155 127.78C40.5997 137.03 48.0918 142.96 54.1175 146.59C50.2367 138.45 48.6704 126.94 48.6704 126.94C48.6704 126.94 81.7416 142.23 67.6951 152.68L67.735 152.66Z" fill="#FFFEFD"/>
<path d="M237.428 93.3988C235.961 103.909 233.028 112.729 229.357 120.029C236.899 115.669 247.753 113.149 248.382 113.039C247.803 114.769 235.642 146.919 224.429 134.049C223.541 133.049 222.912 132.049 222.593 131.109C215.47 140.669 207.29 146.549 201.104 150.019C210.013 152.439 220.388 159.839 220.388 159.839C220.388 159.839 186.689 173.599 188.734 156.159C188.834 155.109 189.103 154.159 189.412 153.379C189.043 153.169 188.624 152.909 188.255 152.639C174.208 142.189 207.28 126.899 207.28 126.899C207.28 126.899 205.703 138.399 201.833 146.549C207.858 142.929 215.35 136.989 221.795 127.739C221.266 127.789 220.748 127.849 220.169 127.789C202.661 126.949 221.745 95.8488 221.745 95.8488C221.745 95.8488 227.192 107.199 228.19 116.339C231.233 109.719 233.587 101.949 234.844 92.8088C234.684 92.9188 234.475 93.0688 234.265 93.1788C220.538 101.319 219.431 68.1188 219.431 68.1188C219.431 68.1188 230.335 74.5788 235.413 81.4088C234.884 75.5788 233.158 65.2788 227.292 55.1988C227.242 55.1488 227.132 55.0888 227.082 54.9888C227.082 56.1488 226.763 57.5088 226.035 58.9788C218.702 73.6888 199.359 45.5788 199.359 45.5788C199.359 45.5788 216.129 44.9488 223.571 49.6288C219.54 44.3788 214.193 39.4388 207.01 35.5488C196.735 49.6288 181.172 16.7988 181.172 16.7988C181.172 16.7988 213.505 20.7888 208.317 33.2888C214.602 36.6988 219.58 40.9088 223.511 45.4188C222.563 36.4888 224.768 25.5088 224.768 25.5088C224.768 25.5088 251.025 50.7788 234.355 56.0288C233.098 56.4488 231.941 56.6088 230.953 56.4988C236.3 66.7388 237.717 76.8288 238.026 82.2388C241.907 73.9388 250.347 65.2188 250.347 65.2188C250.347 65.2188 258.837 100.679 241.907 96.0588C239.812 95.4788 238.346 94.5888 237.398 93.3788L237.428 93.3988Z" fill="#FFFEFD"/>
<path d="M127.472 35.7695C96.1362 35.7695 70.7168 61.2495 70.7168 92.6595C70.7168 124.07 96.1362 149.6 127.472 149.6C158.807 149.6 184.276 124.12 184.276 92.6595C184.276 61.1995 158.857 35.7695 127.472 35.7695ZM134.914 124.76V134.79H120.917V124.65C111.958 122.71 104.307 116.98 103.728 106.74H114.004C114.532 112.26 118.303 116.56 127.891 116.56C138.216 116.56 140.52 111.41 140.52 108.16C140.52 103.8 138.166 99.6995 126.524 96.9195C113.475 93.7695 104.566 88.3595 104.566 77.5895C104.566 68.5495 111.849 62.6695 120.917 60.6695V50.5795H134.914V60.8195C144.661 63.1795 149.589 70.5895 149.898 78.6295H139.573C139.313 72.7995 136.221 68.8095 127.891 68.8095C120.029 68.8095 115.311 72.3795 115.311 77.4795C115.311 81.9495 118.712 84.7795 129.307 87.5095C139.892 90.2895 151.265 94.8095 151.265 108.1C151.265 117.71 144.032 123.02 134.914 124.75V124.76Z" fill="#FFFEFD"/>
</svg>
