<svg width="300" height="178" viewBox="0 0 300 178" fill="none" xmlns="http://www.w3.org/2000/svg">
<path d="M103.986 51C85.7736 51 71 66.1172 71 84.7526C71 103.388 85.7736 118.535 103.986 118.535C122.197 118.535 137 103.418 137 84.7526C137 66.0875 122.226 51 103.986 51ZM108.311 103.797V109.748H100.176V103.732C94.9694 102.581 90.5223 99.1816 90.186 93.1062H96.158C96.4653 96.3812 98.657 98.9324 104.229 98.9324C110.23 98.9324 111.569 95.8769 111.569 93.9487C111.569 91.3619 110.201 88.9294 103.435 87.2801C95.8507 85.4112 90.673 82.2014 90.673 75.8116C90.673 70.4482 94.9056 66.9597 100.176 65.7731V59.7867L108.311 59.7867V65.8621C113.976 67.2622 116.84 71.6586 117.02 76.4287H111.019C110.868 72.9698 109.07 70.6025 104.229 70.6025C99.6601 70.6025 96.9176 72.7206 96.9176 75.7464C96.9176 78.3984 98.8948 80.0774 105.052 81.6971C111.204 83.3465 117.814 86.0282 117.814 93.9131C117.814 99.6147 113.61 102.765 108.311 103.791V103.797Z" fill="#FFFEFD"/>
<path d="M77.346 163.161C76.9017 163.473 76.3973 163.797 75.9529 164.05C76.3372 164.998 76.6495 166.127 76.7696 167.388C79.2315 188.333 38.6032 171.808 38.6032 171.808C38.6032 171.808 51.1532 162.849 61.8777 160.014C54.4318 155.847 44.596 148.785 36.0091 137.304C35.6248 138.445 34.8682 139.634 33.7994 140.835C20.3007 156.291 5.66102 117.681 4.96446 115.603C5.72107 115.723 18.7754 118.762 27.8667 123.998C23.4472 115.231 19.9164 104.626 18.1509 92.0163C17.01 93.4695 15.2446 94.5383 12.7226 95.2349C-7.65757 100.783 2.56255 58.1974 2.56255 58.1974C2.56255 58.1974 12.7226 68.6697 17.3823 78.6377C17.7666 72.1405 19.46 60.0949 25.8371 47.7851C24.6361 47.8452 23.3151 47.653 21.8019 47.1486C1.67385 40.8436 33.343 10.4955 33.343 10.4955C33.343 10.4955 35.9971 23.682 34.8562 34.4065C39.588 28.9782 45.5808 23.9342 53.1468 19.8389C46.9018 4.82696 85.8248 0.0351562 85.8248 0.0351562C85.8248 0.0351562 67.0899 39.4625 54.72 22.5531C46.0732 27.2248 39.576 33.2175 34.7842 39.5226C43.7433 33.842 63.9314 34.5986 63.9314 34.5986C63.9314 34.5986 40.6568 68.3455 31.8178 50.6914C30.9291 48.926 30.5568 47.2807 30.5568 45.8996C30.4968 46.0317 30.3647 46.0918 30.3046 46.1518C23.1709 58.2695 21.1533 70.6273 20.5288 77.6289C26.6537 69.4263 39.7681 61.6682 39.7681 61.6682C39.7681 61.6682 38.4471 101.54 21.9099 91.7641C21.6577 91.632 21.4055 91.4519 21.2134 91.3197C22.7266 102.296 25.5608 111.568 29.1637 119.518C30.3647 108.541 36.9819 94.9827 36.9819 94.9827C36.9819 94.9827 59.9442 132.332 38.8794 133.341C38.1829 133.401 37.5584 133.341 36.9219 133.281C44.68 144.39 53.6992 151.512 60.953 155.871C56.2813 146.095 54.3958 132.272 54.3958 132.272C54.3958 132.272 94.2074 150.635 77.298 163.185L77.346 163.161Z" fill="#FFFEFD"/>
<path d="M281.63 91.9932C279.865 104.615 276.334 115.208 271.914 123.975C280.994 118.738 294.06 115.712 294.817 115.58C294.12 117.658 279.48 156.268 265.982 140.812C264.913 139.611 264.156 138.41 263.772 137.281C255.197 148.762 245.349 155.824 237.903 159.991C248.628 162.898 261.118 171.785 261.118 171.785C261.118 171.785 220.549 188.31 223.011 167.365C223.132 166.104 223.456 164.963 223.828 164.026C223.384 163.774 222.879 163.462 222.435 163.138C205.526 150.588 245.337 132.225 245.337 132.225C245.337 132.225 243.44 146.036 238.78 155.824C246.034 151.476 255.053 144.343 262.811 133.234C262.175 133.294 261.55 133.366 260.854 133.294C239.777 132.285 262.751 94.9355 262.751 94.9355C262.751 94.9355 269.308 108.566 270.509 119.543C274.172 111.593 277.006 102.261 278.52 91.2846C278.327 91.4167 278.075 91.5968 277.823 91.7289C261.298 101.505 259.965 61.633 259.965 61.633C259.965 61.633 273.091 69.3912 279.204 77.5937C278.568 70.5921 276.49 58.2223 269.428 46.1167C269.368 46.0566 269.236 45.9846 269.176 45.8645C269.176 47.2576 268.792 48.8909 267.915 50.6563C259.088 68.3223 235.802 34.5635 235.802 34.5635C235.802 34.5635 255.99 33.8069 264.949 39.4274C260.097 33.1223 253.66 27.1896 245.013 22.5179C232.643 39.4274 213.908 0 213.908 0C213.908 0 252.831 4.79181 246.586 19.8038C254.152 23.899 260.145 28.955 264.877 34.3713C263.736 23.6468 266.39 10.4603 266.39 10.4603C266.39 10.4603 297.999 40.8085 277.931 47.1135C276.418 47.6179 275.025 47.81 273.836 47.6779C280.273 59.9757 281.978 72.0933 282.351 78.5905C287.022 68.6226 297.182 58.1502 297.182 58.1502C297.182 58.1502 307.403 100.736 287.022 95.1877C284.5 94.4911 282.735 93.4223 281.594 91.9691L281.63 91.9932Z" fill="#FFFEFD"/>
<path d="M192.467 51C173.422 51 158 66.4548 158 85.5C158 104.545 173.422 120 192.467 120C211.512 120 227 104.545 227 85.5C227 66.4548 211.545 51 192.467 51ZM216.373 71.6989H206.196C205.091 67.3871 203.504 63.2473 201.434 59.4183C207.783 61.5936 213.06 66.0053 216.373 71.6989ZM192.5 58.0365C195.363 62.1763 197.605 66.7656 199.087 71.6989H185.907C187.389 66.7656 189.631 62.1763 192.494 58.0365H192.5ZM165.797 92.3978C165.247 90.1892 164.898 87.8806 164.898 85.5C164.898 83.1194 165.242 80.8108 165.797 78.6022H177.456C177.178 80.8774 176.973 83.1582 176.973 85.5C176.973 87.8418 177.178 90.1226 177.456 92.3978H165.797ZM168.627 99.2956H178.804C179.909 103.607 181.496 107.747 183.566 111.576C177.217 109.401 171.94 105.022 168.627 99.2956ZM178.804 71.6989H168.627C171.94 65.972 177.217 61.5881 183.566 59.4183C181.496 63.2473 179.909 67.3871 178.804 71.6989ZM192.5 112.958C189.637 108.818 187.395 104.229 185.913 99.2956H199.093C197.611 104.229 195.369 108.818 192.506 112.958H192.5ZM200.574 92.3978H184.431C184.121 90.1226 183.882 87.8418 183.882 85.5C183.882 83.1582 184.126 80.8441 184.431 78.6022H200.574C200.885 80.8441 201.124 83.1582 201.124 85.5C201.124 87.8418 200.879 90.1226 200.574 92.3978ZM201.434 111.582C203.504 107.753 205.091 103.613 206.196 99.3011H216.373C213.06 104.995 207.783 109.412 201.434 111.582ZM207.539 92.3978C207.816 90.1226 208.021 87.8418 208.021 85.5C208.021 83.1582 207.816 80.8774 207.539 78.6022H219.198C219.747 80.8108 220.097 83.1194 220.097 85.5C220.097 87.8806 219.753 90.1892 219.198 92.3978H207.539Z" fill="#FFFEFD"/>
</svg>
