<svg width="300" height="178" viewBox="0 0 300 178" fill="none" xmlns="http://www.w3.org/2000/svg">
<path d="M147.986 40C129.774 40 115 55.1172 115 73.7526C115 92.388 129.774 107.535 147.986 107.535C166.197 107.535 181 92.4177 181 73.7526C181 55.0875 166.226 40 147.986 40ZM152.311 92.7974V98.7482H144.176V92.7321C138.969 91.5812 134.522 88.1816 134.186 82.1062H140.158C140.465 85.3812 142.657 87.9324 148.229 87.9324C154.23 87.9324 155.569 84.8769 155.569 82.9487C155.569 80.3619 154.201 77.9294 147.435 76.2801C139.851 74.4112 134.673 71.2014 134.673 64.8116C134.673 59.4482 138.906 55.9597 144.176 54.7731V48.7867L152.311 48.7867V54.8621C157.976 56.2622 160.84 60.6586 161.02 65.4287H155.019C154.868 61.9698 153.07 59.6025 148.229 59.6025C143.66 59.6025 140.918 61.7206 140.918 64.7464C140.918 67.3984 142.895 69.0774 149.052 70.6971C155.204 72.3465 161.814 75.0282 161.814 82.9131C161.814 88.6147 157.61 91.7651 152.311 92.7915V92.7974Z" fill="#FFFEFD"/>
<path d="M77.346 163.161C76.9017 163.473 76.3973 163.797 75.9529 164.05C76.3372 164.998 76.6495 166.127 76.7696 167.388C79.2315 188.333 38.6032 171.808 38.6032 171.808C38.6032 171.808 51.1532 162.849 61.8777 160.014C54.4318 155.847 44.596 148.785 36.0091 137.304C35.6248 138.445 34.8682 139.634 33.7994 140.835C20.3007 156.291 5.66102 117.681 4.96446 115.603C5.72107 115.723 18.7754 118.762 27.8667 123.998C23.4472 115.231 19.9164 104.626 18.1509 92.0163C17.01 93.4695 15.2446 94.5383 12.7226 95.2349C-7.65757 100.783 2.56255 58.1974 2.56255 58.1974C2.56255 58.1974 12.7226 68.6697 17.3823 78.6377C17.7666 72.1405 19.46 60.0949 25.8371 47.7851C24.6361 47.8452 23.3151 47.653 21.8019 47.1486C1.67385 40.8436 33.343 10.4955 33.343 10.4955C33.343 10.4955 35.9971 23.682 34.8562 34.4065C39.588 28.9782 45.5808 23.9342 53.1468 19.8389C46.9018 4.82696 85.8248 0.0351562 85.8248 0.0351562C85.8248 0.0351562 67.0899 39.4625 54.72 22.5531C46.0732 27.2248 39.576 33.2175 34.7842 39.5226C43.7433 33.842 63.9314 34.5986 63.9314 34.5986C63.9314 34.5986 40.6568 68.3455 31.8178 50.6914C30.9291 48.926 30.5568 47.2807 30.5568 45.8996C30.4968 46.0317 30.3647 46.0918 30.3046 46.1518C23.1709 58.2695 21.1533 70.6273 20.5288 77.6289C26.6537 69.4263 39.7681 61.6682 39.7681 61.6682C39.7681 61.6682 38.4471 101.54 21.9099 91.7641C21.6577 91.632 21.4055 91.4519 21.2134 91.3197C22.7266 102.296 25.5608 111.568 29.1637 119.518C30.3647 108.541 36.9819 94.9827 36.9819 94.9827C36.9819 94.9827 59.9442 132.332 38.8794 133.341C38.1829 133.401 37.5584 133.341 36.9219 133.281C44.68 144.39 53.6992 151.512 60.953 155.871C56.2813 146.095 54.3958 132.272 54.3958 132.272C54.3958 132.272 94.2074 150.635 77.298 163.185L77.346 163.161Z" fill="#FFFEFD"/>
<path d="M281.63 91.9932C279.865 104.615 276.334 115.208 271.914 123.975C280.994 118.738 294.06 115.712 294.817 115.58C294.12 117.658 279.48 156.268 265.982 140.812C264.913 139.611 264.156 138.41 263.772 137.281C255.197 148.762 245.349 155.824 237.903 159.991C248.628 162.898 261.118 171.785 261.118 171.785C261.118 171.785 220.549 188.31 223.011 167.365C223.132 166.104 223.456 164.963 223.828 164.026C223.384 163.774 222.879 163.462 222.435 163.138C205.526 150.588 245.337 132.225 245.337 132.225C245.337 132.225 243.44 146.036 238.78 155.824C246.034 151.476 255.053 144.343 262.811 133.234C262.175 133.294 261.55 133.366 260.854 133.294C239.777 132.285 262.751 94.9355 262.751 94.9355C262.751 94.9355 269.308 108.566 270.509 119.543C274.172 111.593 277.006 102.261 278.52 91.2846C278.327 91.4167 278.075 91.5968 277.823 91.7289C261.298 101.505 259.965 61.633 259.965 61.633C259.965 61.633 273.091 69.3912 279.204 77.5937C278.568 70.5921 276.49 58.2223 269.428 46.1167C269.368 46.0566 269.236 45.9846 269.176 45.8645C269.176 47.2576 268.792 48.8909 267.915 50.6563C259.088 68.3223 235.802 34.5635 235.802 34.5635C235.802 34.5635 255.99 33.8069 264.949 39.4274C260.097 33.1223 253.66 27.1896 245.013 22.5179C232.643 39.4274 213.908 0 213.908 0C213.908 0 252.831 4.79181 246.586 19.8038C254.152 23.899 260.145 28.955 264.877 34.3713C263.736 23.6468 266.39 10.4603 266.39 10.4603C266.39 10.4603 297.999 40.8085 277.931 47.1135C276.418 47.6179 275.025 47.81 273.836 47.6779C280.273 59.9757 281.978 72.0933 282.351 78.5905C287.022 68.6226 297.182 58.1502 297.182 58.1502C297.182 58.1502 307.403 100.736 287.022 95.1877C284.5 94.4911 282.735 93.4223 281.594 91.9691L281.63 91.9932Z" fill="#FFFEFD"/>
<path d="M81.6652 102.216C86.8719 108.522 96.1893 109.412 102.49 104.248C95.6188 100.463 90.1604 94.3651 87.2548 87.1307C91.6315 93.4432 98.1314 98.1918 105.819 100.374C108.936 95.1414 108.633 88.3014 104.535 83.3368C97.8986 75.2985 75.9424 71.9849 75.9424 71.9849C75.9424 71.9849 75.0315 94.1713 81.6675 102.21L81.6652 102.216Z" fill="#FFFEFD"/>
<path d="M212.026 102.216C206.82 108.522 197.502 109.412 191.201 104.248C198.073 100.463 203.531 94.3651 206.437 87.1307C202.06 93.4432 195.56 98.1918 187.873 100.374C184.755 95.1414 185.058 88.3014 189.157 83.3368C195.793 75.2985 217.749 71.9849 217.749 71.9849C217.749 71.9849 218.66 94.1713 212.024 102.21L212.026 102.216Z" fill="#FFFEFD"/>
</svg>
