<svg width="255" height="178" viewBox="0 0 255 178" fill="none" xmlns="http://www.w3.org/2000/svg">
<path d="M139.154 109.076C133.386 119.04 136.793 131.768 146.714 137.546C148.328 126.627 153.697 116.425 161.825 109.046C155.639 117.916 152.561 128.825 153.468 140.032C161.915 141.573 170.8 137.814 175.342 129.968C182.693 117.27 176.268 86.6816 176.268 86.6816C176.268 86.6816 146.505 96.3871 139.154 109.086V109.076Z" fill="#FFFEFD"/>
<path d="M73.392 102.505C78.0737 119.42 95.5751 129.324 112.469 124.73C102.309 111.295 96.9497 94.5691 97.5971 77.8531C100.645 94.052 109.232 109.048 122.4 120.056C133.108 112.538 138.517 98.875 134.831 85.5598C128.865 64.0009 88.6921 38.2754 88.6921 38.2754C88.6921 38.2754 67.4354 80.9357 73.402 102.495L73.392 102.505Z" fill="#FFFEFD"/>
<path d="M67.5546 147.671C67.186 147.93 66.7776 148.188 66.409 148.397C66.7178 149.173 66.9868 150.117 67.0864 151.152C69.1184 168.425 35.56 154.791 35.56 154.791C35.56 154.791 45.9294 147.403 54.7946 145.066C48.6487 141.635 40.5106 135.808 33.4284 126.331C33.1196 127.266 32.4921 128.26 31.6055 129.245C20.4493 141.993 8.35671 110.152 7.78894 108.432C8.41647 108.531 19.2042 111.037 26.7048 115.353C23.0591 108.123 20.1405 99.3825 18.6762 88.971C17.7399 90.1643 16.2757 91.0494 14.1938 91.6261C-2.64017 96.2004 5.80671 61.0877 5.80671 61.0877C5.80671 61.0877 14.1938 69.7291 18.0587 77.943C18.3675 72.5831 19.7819 62.6489 25.0413 52.5059C24.0551 52.5556 22.9594 52.4065 21.7044 51.9888C5.07956 46.788 31.237 21.7586 31.237 21.7586C31.237 21.7586 33.4284 32.6375 32.4921 41.4779C36.3967 37.003 41.3473 32.8364 47.6028 29.4554C42.443 17.075 74.5969 13.1172 74.5969 13.1172C74.5969 13.1172 59.1176 45.6345 48.9077 31.6928C41.7657 35.5412 36.3967 40.4834 32.4423 45.6842C39.8432 41.0005 56.5178 41.627 56.5178 41.627C56.5178 41.627 37.2833 69.4606 29.9919 54.8925C29.2647 53.4406 28.946 52.0783 28.946 50.9347C28.8962 51.0342 28.7866 51.0938 28.7368 51.1436C22.8499 61.1374 21.1764 71.3301 20.6585 77.1077C25.7186 70.3457 36.5561 63.9417 36.5561 63.9417C36.5561 63.9417 35.4604 96.8269 21.804 88.7622C21.5948 88.6628 21.3856 88.5037 21.2262 88.3943C22.4813 97.4434 24.8221 105.1 27.7905 111.654C28.7766 102.604 34.2551 91.4173 34.2551 91.4173C34.2551 91.4173 53.2208 122.214 35.819 123.05C35.2413 123.099 34.7233 123.05 34.2053 123C40.6202 132.158 48.071 138.035 54.0575 141.625C50.2026 133.561 48.6387 122.165 48.6387 122.165C48.6387 122.165 81.5198 137.309 67.5546 147.661V147.671Z" fill="#FFFEFD"/>
<path d="M236.313 88.9804C234.858 99.382 231.94 108.123 228.284 115.362C235.785 111.046 246.572 108.551 247.2 108.441C246.622 110.161 234.539 142.003 223.383 129.254C222.497 128.27 221.869 127.275 221.56 126.341C214.468 135.807 206.34 141.635 200.194 145.075C209.049 147.472 219.369 154.801 219.369 154.801C219.369 154.801 185.86 168.434 187.892 151.161C187.992 150.117 188.261 149.182 188.57 148.407C188.201 148.198 187.793 147.939 187.424 147.681C173.459 137.329 206.34 122.184 206.34 122.184C206.34 122.184 204.776 133.58 200.921 141.645C206.918 138.055 214.369 132.178 220.773 123.019C220.255 123.069 219.728 123.119 219.16 123.069C201.748 122.234 220.724 91.4367 220.724 91.4367C220.724 91.4367 226.142 102.674 227.138 111.733C230.157 105.179 232.507 97.4727 233.753 88.4236C233.593 88.523 233.384 88.6821 233.175 88.7915C219.518 96.8562 218.423 63.971 218.423 63.971C218.423 63.971 229.26 70.375 234.32 77.137C233.802 71.3594 232.079 61.1667 226.242 51.1729C226.192 51.1231 226.083 51.0734 226.033 50.964C226.033 52.1076 225.724 53.46 224.987 54.9218C217.686 69.49 198.461 41.6563 198.461 41.6563C198.461 41.6563 215.136 41.0298 222.537 45.6638C218.522 40.463 213.203 35.5705 206.071 31.7221C195.851 45.6638 180.382 13.1465 180.382 13.1465C180.382 13.1465 212.536 17.1043 207.376 29.4847C213.631 32.8657 218.582 37.0323 222.487 41.5072C221.55 32.6668 223.742 21.7879 223.742 21.7879C223.742 21.7879 249.849 46.8173 233.274 52.0181C232.019 52.4358 230.874 52.5949 229.888 52.4855C235.207 62.6285 236.611 72.6223 236.92 77.9822C240.775 69.7584 249.172 61.1269 249.172 61.1269C249.172 61.1269 257.619 96.2496 240.785 91.6654C238.703 91.0886 237.239 90.2135 236.303 89.0103L236.313 88.9804Z" fill="#FFFEFD"/>
</svg>
