<svg width="258" height="179" viewBox="0 0 258 179" fill="none" xmlns="http://www.w3.org/2000/svg">
<path d="M131.14 27.3301C96.8044 27.3301 69.002 55.1801 69.002 89.5001C69.002 123.82 96.8044 151.67 131.14 151.67C165.475 151.67 193.398 123.82 193.398 89.5001C193.398 55.1801 165.535 27.3301 131.14 27.3301ZM174.239 64.6301H155.891C153.9 56.8601 151.039 49.4001 147.307 42.5001C158.752 46.4201 168.267 54.3701 174.239 64.6301ZM131.2 40.0101C136.362 47.4701 140.404 55.7401 143.075 64.6301H119.315C121.986 55.7401 126.028 47.4701 131.19 40.0101H131.2ZM83.0583 101.93C82.0678 97.9501 81.4375 93.7901 81.4375 89.5001C81.4375 85.2101 82.0578 81.0501 83.0583 77.0701H104.078C103.577 81.1701 103.207 85.2801 103.207 89.5001C103.207 93.7201 103.577 97.8301 104.078 101.93H83.0583ZM88.1606 114.36H106.509C108.5 122.13 111.361 129.59 115.093 136.49C103.648 132.57 94.1332 124.68 88.1606 114.36ZM106.509 64.6301H88.1606C94.1332 54.3101 103.648 46.4101 115.093 42.5001C111.361 49.4001 108.5 56.8601 106.509 64.6301ZM131.2 138.98C126.038 131.52 121.996 123.25 119.325 114.36H143.085C140.414 123.25 136.372 131.52 131.21 138.98H131.2ZM145.756 101.93H116.653C116.093 97.8301 115.663 93.7201 115.663 89.5001C115.663 85.2801 116.103 81.1101 116.653 77.0701H145.756C146.317 81.1101 146.747 85.2801 146.747 89.5001C146.747 93.7201 146.307 97.8301 145.756 101.93ZM147.307 136.5C151.039 129.6 153.9 122.14 155.891 114.37H174.239C168.267 124.63 158.752 132.59 147.307 136.5ZM158.312 101.93C158.812 97.8301 159.182 93.7201 159.182 89.5001C159.182 85.2801 158.812 81.1701 158.312 77.0701H179.332C180.322 81.0501 180.952 85.2101 180.952 89.5001C180.952 93.7901 180.332 97.9501 179.332 101.93H158.312Z" fill="#FFFEFD"/>
<path d="M70.3031 150.373C69.9429 150.633 69.5227 150.893 69.1626 151.103C69.4727 151.883 69.7328 152.813 69.8329 153.843C71.8538 171.033 38.4888 157.473 38.4888 157.473C38.4888 157.473 48.8034 150.123 57.6074 147.793C51.4946 144.373 43.411 138.573 36.3678 129.153C36.0577 130.083 35.4374 131.073 34.557 132.053C23.472 144.743 11.4466 113.043 10.8764 111.333C11.4967 111.433 22.2215 113.923 29.6848 118.223C26.0532 111.023 23.1519 102.323 21.7012 91.9629C20.7708 93.1529 19.3202 94.0329 17.2492 94.6029C0.511719 99.1629 8.90549 64.2029 8.90549 64.2029C8.90549 64.2029 17.2492 72.8029 21.081 80.9829C21.3911 75.6529 22.7917 65.7529 28.0241 55.6629C27.0436 55.7129 25.9532 55.5629 24.7126 55.1429C8.18517 49.9629 34.1969 25.0529 34.1969 25.0529C34.1969 25.0529 36.3778 35.8729 35.4374 44.6829C39.3192 40.2329 44.2414 36.0829 50.4642 32.7229C45.3319 20.3929 77.3062 16.4629 77.3062 16.4629C77.3062 16.4629 61.9193 48.8329 51.7648 34.9529C44.6616 38.7829 39.3292 43.7029 35.3874 48.8829C42.7407 44.2229 59.3282 44.8429 59.3282 44.8429C59.3282 44.8429 40.2096 72.5529 32.9563 58.0529C32.226 56.6029 31.9158 55.2529 31.9158 54.1129C31.8658 54.2129 31.7558 54.2729 31.7057 54.3229C25.8531 64.2629 24.1924 74.4129 23.6721 80.1629C28.6944 73.4329 39.4792 67.0629 39.4792 67.0629C39.4792 67.0629 38.3887 99.7929 24.8126 91.7629C24.6025 91.6629 24.4025 91.5029 24.2424 91.4029C25.4829 100.413 27.814 108.023 30.7753 114.553C31.7558 105.543 37.1982 94.4029 37.1982 94.4029C37.1982 94.4029 56.0567 125.063 38.7489 125.893C38.1786 125.943 37.6584 125.893 37.1382 125.843C43.511 134.953 50.9244 140.813 56.8771 144.383C53.0453 136.353 51.4846 125.013 51.4846 125.013C51.4846 125.013 84.1793 140.083 70.2931 150.393L70.3031 150.373Z" fill="#FFFEFD"/>
<path d="M238.068 91.9595C236.617 102.319 233.716 111.019 230.085 118.219C237.548 113.919 248.273 111.439 248.893 111.329C248.323 113.039 236.307 144.729 225.212 132.049C224.332 131.069 223.712 130.079 223.402 129.149C216.358 138.579 208.275 144.379 202.162 147.789C210.966 150.169 221.231 157.469 221.231 157.469C221.231 157.469 187.916 171.039 189.936 153.839C190.037 152.799 190.297 151.869 190.607 151.099C190.247 150.889 189.826 150.629 189.466 150.369C175.58 140.059 208.275 124.989 208.275 124.989C208.275 124.989 206.724 136.329 202.882 144.359C208.845 140.789 216.248 134.929 222.621 125.819C222.101 125.869 221.581 125.919 221.01 125.869C203.703 125.039 222.561 94.3795 222.561 94.3795C222.561 94.3795 227.954 105.569 228.934 114.579C231.935 108.049 234.266 100.389 235.517 91.3795C235.357 91.4795 235.157 91.6395 234.947 91.7395C221.371 99.7695 220.28 67.0395 220.28 67.0395C220.28 67.0395 231.055 73.4095 236.087 80.1395C235.567 74.3895 233.856 64.2395 228.054 54.2995C228.004 54.2495 227.894 54.1995 227.844 54.0895C227.844 55.2295 227.533 56.5795 226.803 58.0295C219.55 72.5295 200.431 44.8195 200.431 44.8195C200.431 44.8195 217.009 44.1995 224.372 48.8095C220.38 43.6295 215.098 38.7595 207.995 34.9295C197.84 48.8095 182.453 16.4395 182.453 16.4395C182.453 16.4395 214.417 20.3795 209.295 32.6995C215.508 36.0695 220.43 40.2095 224.322 44.6595C223.392 35.8595 225.563 25.0295 225.563 25.0295C225.563 25.0295 251.524 49.9395 235.047 55.1195C233.806 55.5295 232.666 55.6894 231.675 55.5895C236.958 65.6895 238.358 75.6295 238.668 80.9695C242.5 72.7895 250.844 64.1895 250.844 64.1895C250.844 64.1895 259.238 99.1494 242.5 94.5894C240.429 94.0194 238.979 93.1395 238.048 91.9494L238.068 91.9595Z" fill="#FFFEFD"/>
</svg>
