<svg width="301" height="179" viewBox="0 0 301 179" fill="none" xmlns="http://www.w3.org/2000/svg">
<path d="M102.725 43.082C88.4755 43.082 76.916 54.9103 76.916 69.4914C76.916 84.0726 88.4755 95.9241 102.725 95.9241C116.975 95.9241 128.557 84.0958 128.557 69.4914C128.557 54.8871 116.998 43.082 102.725 43.082ZM106.11 84.3929V89.049H99.7446V84.3418C95.6707 83.4412 92.191 80.7812 91.9279 76.0276H96.6007C96.8411 78.5901 98.556 80.5863 102.916 80.5863C107.611 80.5863 108.659 78.1955 108.659 76.6868C108.659 74.6628 107.589 72.7595 102.294 71.469C96.3602 70.0067 92.309 67.4953 92.309 62.4957C92.309 58.2991 95.6208 55.5695 99.7446 54.6411V49.9571H106.11V54.7107C110.542 55.8063 112.783 59.2461 112.924 62.9784H108.228C108.11 60.2721 106.704 58.4198 102.916 58.4198C99.3408 58.4198 97.195 60.0771 97.195 62.4446C97.195 64.5197 98.742 65.8334 103.56 67.1007C108.373 68.3912 113.545 70.4895 113.545 76.659C113.545 81.1201 110.256 83.5851 106.11 84.3882V84.3929Z" fill="#FFFEFD"/>
<path d="M77.6234 164.11C77.179 164.422 76.6746 164.747 76.2303 164.999C76.6146 165.948 76.9268 167.076 77.0469 168.337C79.5089 189.282 38.8806 172.757 38.8806 172.757C38.8806 172.757 51.4305 163.798 62.1551 160.964C54.7091 156.796 44.8733 149.735 36.2865 138.254C35.9022 139.394 35.1456 140.583 34.0767 141.784C20.578 157.241 5.93836 118.63 5.24181 116.552C5.99841 116.672 19.0528 119.711 28.144 124.947C23.7245 116.18 20.1937 105.576 18.4283 92.9655C17.2874 94.4187 15.522 95.4875 13 96.1841C-7.38023 101.733 2.8399 59.1466 2.8399 59.1466C2.8399 59.1466 13 69.619 17.6597 79.5869C18.044 73.0897 19.7373 61.0441 26.1144 48.7343C24.9135 48.7944 23.5924 48.6022 22.0792 48.0978C1.95119 41.7928 33.6204 11.4447 33.6204 11.4447C33.6204 11.4447 36.2745 24.6312 35.1336 35.3557C39.8653 29.9274 45.8581 24.8834 53.4241 20.7881C47.1792 5.77618 86.1021 0.984375 86.1021 0.984375C86.1021 0.984375 67.3672 40.4117 54.9974 23.5023C46.3505 28.174 39.8533 34.1668 35.0615 40.4718C44.0206 34.7913 64.2087 35.5479 64.2087 35.5479C64.2087 35.5479 40.9342 69.2947 32.0952 51.6407C31.2065 49.8753 30.8342 48.2299 30.8342 46.8488C30.7741 46.9809 30.642 47.041 30.582 47.1011C23.4483 59.2187 21.4307 71.5765 20.8062 78.5781C26.9311 70.3756 40.0455 62.6174 40.0455 62.6174C40.0455 62.6174 38.7244 102.489 22.1873 92.7133C21.9351 92.5812 21.6829 92.4011 21.4907 92.269C23.0039 103.246 25.8382 112.517 29.441 120.467C30.642 109.491 37.2593 95.9319 37.2593 95.9319C37.2593 95.9319 60.2215 133.282 39.1568 134.29C38.4602 134.35 37.8357 134.29 37.1992 134.23C44.9574 145.339 53.9766 152.461 61.2303 156.82C56.5586 147.045 54.6731 133.222 54.6731 133.222C54.6731 133.222 94.4848 151.584 77.5753 164.134L77.6234 164.11Z" fill="#FFFEFD"/>
<path d="M281.907 92.9424C280.142 105.564 276.611 116.157 272.192 124.924C281.271 119.688 294.337 116.661 295.094 116.529C294.397 118.607 279.758 157.217 266.259 141.761C265.19 140.56 264.434 139.359 264.049 138.23C255.474 149.712 245.627 156.773 238.181 160.94C248.905 163.847 261.395 172.734 261.395 172.734C261.395 172.734 220.827 189.259 223.289 168.314C223.409 167.053 223.733 165.912 224.105 164.976C223.661 164.723 223.157 164.411 222.712 164.087C205.803 151.537 245.615 133.174 245.615 133.174C245.615 133.174 243.717 146.985 239.057 156.773C246.311 152.426 255.33 145.292 263.088 134.183C262.452 134.243 261.827 134.315 261.131 134.243C240.054 133.234 263.028 95.8847 263.028 95.8847C263.028 95.8847 269.586 109.516 270.787 120.492C274.449 112.542 277.284 103.211 278.797 92.2338C278.605 92.3659 278.353 92.5461 278.1 92.6782C261.575 102.454 260.242 62.5822 260.242 62.5822C260.242 62.5822 273.369 70.3404 279.481 78.5429C278.845 71.5414 276.767 59.1715 269.706 47.0659C269.646 47.0058 269.514 46.9338 269.454 46.8137C269.454 48.2068 269.069 49.8401 268.192 51.6055C259.365 69.2716 236.079 35.5127 236.079 35.5127C236.079 35.5127 256.267 34.7561 265.226 40.3766C260.374 34.0716 253.937 28.1388 245.29 23.4671C232.92 40.3766 214.186 0.949219 214.186 0.949219C214.186 0.949219 253.108 5.74103 246.864 20.753C254.43 24.8482 260.422 29.9042 265.154 35.3206C264.013 24.596 266.667 11.4095 266.667 11.4095C266.667 11.4095 298.276 41.7577 278.208 48.0627C276.695 48.5671 275.302 48.7592 274.113 48.6271C280.55 60.9249 282.256 73.0426 282.628 79.5397C287.3 69.5718 297.46 59.0995 297.46 59.0995C297.46 59.0995 307.68 101.685 287.3 96.1369C284.778 95.4404 283.012 94.3715 281.871 92.9184L281.907 92.9424Z" fill="#FFFEFD"/>
<path d="M186.169 62.9212C181.324 69.6604 182.854 79.0389 189.549 83.894C191.487 76.173 196.063 69.2341 202.415 64.5192C197.348 70.4434 194.363 78.0527 194.21 86.1606C200.152 87.8702 206.787 85.8071 210.603 80.5006C216.778 71.9119 214.364 49.5 214.364 49.5C214.364 49.5 192.344 54.3397 186.169 62.9283L186.169 62.9212Z" fill="#FFFEFD"/>
<path d="M139.523 53.5056C141.667 65.9798 153.498 74.3382 165.931 72.2477C159.613 61.8801 156.97 49.4931 158.63 37.5423C159.654 49.386 164.734 60.7616 173.381 69.6027C181.591 64.9721 186.444 55.5524 184.756 45.7329C182.023 29.8341 155.081 8.50158 155.081 8.50158C155.081 8.50158 136.799 37.6003 139.531 53.4992L139.523 53.5056Z" fill="#FFFEFD"/>
<path d="M159.145 89.918C138.262 89.918 121.352 106.865 121.352 127.748C121.352 148.632 138.262 165.578 159.145 165.578C180.029 165.578 197.012 148.632 197.012 127.748C197.012 106.865 180.065 89.918 159.145 89.918ZM185.359 112.615H174.199C172.988 107.887 171.248 103.347 168.978 99.1488C175.94 101.534 181.726 106.372 185.359 112.615ZM159.182 97.6337C162.321 102.173 164.78 107.205 166.404 112.615H151.953C153.577 107.205 156.036 102.173 159.176 97.6337H159.182ZM129.901 135.312C129.298 132.89 128.915 130.358 128.915 127.748C128.915 125.138 129.292 122.606 129.901 120.184H142.685C142.381 122.679 142.156 125.18 142.156 127.748C142.156 130.316 142.381 132.817 142.685 135.312H129.901ZM133.004 142.875H144.164C145.375 147.603 147.115 152.143 149.385 156.341C142.424 153.956 136.637 149.155 133.004 142.875ZM144.164 112.615H133.004C136.637 106.335 142.424 101.528 149.385 99.1488C147.115 103.347 145.375 107.887 144.164 112.615ZM159.182 157.856C156.042 153.317 153.584 148.285 151.959 142.875H166.411C164.786 148.285 162.328 153.317 159.188 157.856H159.182ZM168.035 135.312H150.334C149.993 132.817 149.732 130.316 149.732 127.748C149.732 125.18 149.999 122.643 150.334 120.184H168.035C168.376 122.643 168.638 125.18 168.638 127.748C168.638 130.316 168.37 132.817 168.035 135.312ZM168.978 156.347C171.248 152.149 172.988 147.609 174.199 142.881H185.359C181.726 149.124 175.94 153.968 168.978 156.347ZM175.672 135.312C175.976 132.817 176.201 130.316 176.201 127.748C176.201 125.18 175.976 122.679 175.672 120.184L188.456 120.184C189.059 122.606 189.442 125.138 189.442 127.748C189.442 130.358 189.065 132.89 188.456 135.312H175.672Z" fill="#FFFEFD"/>
</svg>
