{
  "accessors": [
    {
      "bufferView": 2,
      "componentType": 5126,
      "count": 65532,
      "max": [
        11.980360984802246,
        15.12442684173584,
        14.852495193481445
      ],
      "min": [
        -11.567117691040039,
        -15.098983764648438,
        -15.289152145385742
      ],
      "type": "VEC3"
    },
    {
      "bufferView": 2,
      "byteOffset": 786384,
      "componentType": 5126,
      "count": 65532,
      "max": [
        0.9999511241912842,
        0.9998168349266052,
        0.9995678067207336
      ],
      "min": [
        -0.9999949336051941,
        -0.9996381998062134,
        -0.9999929070472717
      ],
      "type": "VEC3"
    },
    {
      "bufferView": 1,
      "componentType": 5126,
      "count": 65532,
      "max": [
        15.53111457824707,
        0.29884713888168335
      ],
      "min": [
        0.0,
        -0.2913825809955597
      ],
      "type": "VEC2"
    },
    {
      "bufferView": 0,
      "componentType": 5125,
      "count": 225081,
      "type": "SCALAR"
    },
    {
      "bufferView": 2,
      "byteOffset": 1572768,
      "componentType": 5126,
      "count": 65532,
      "max": [
        8.410908699035645,
        15.12442684173584,
        14.852495193481445
      ],
      "min": [
        1.9607601165771484,
        -15.098983764648438,
        -15.289152145385742
      ],
      "type": "VEC3"
    },
    {
      "bufferView": 2,
      "byteOffset": 2359152,
      "componentType": 5126,
      "count": 65532,
      "max": [
        0.9999510645866394,
        0.99981689453125,
        0.9995678067207336
      ],
      "min": [
        -0.9999949336051941,
        -0.9996381998062134,
        -0.9999929070472717
      ],
      "type": "VEC3"
    },
    {
      "bufferView": 1,
      "byteOffset": 524256,
      "componentType": 5126,
      "count": 65532,
      "max": [
        15.53111457824707,
        0.29884713888168335
      ],
      "min": [
        0.0,
        -0.2913825809955597
      ],
      "type": "VEC2"
    },
    {
      "bufferView": 0,
      "byteOffset": 900324,
      "componentType": 5125,
      "count": 225693,
      "type": "SCALAR"
    },
    {
      "bufferView": 2,
      "byteOffset": 3145536,
      "componentType": 5126,
      "count": 65532,
      "max": [
        3.5632667541503906,
        15.12442684173584,
        14.852495193481445
      ],
      "min": [
        -10.818456649780273,
        -15.098983764648438,
        -15.289152145385742
      ],
      "type": "VEC3"
    },
    {
      "bufferView": 2,
      "byteOffset": 3931920,
      "componentType": 5126,
      "count": 65532,
      "max": [
        0.9999511241912842,
        0.9998168349266052,
        0.9995678067207336
      ],
      "min": [
        -0.9999949336051941,
        -0.9996382594108582,
        -0.9999929070472717
      ],
      "type": "VEC3"
    },
    {
      "bufferView": 1,
      "byteOffset": 1048512,
      "componentType": 5126,
      "count": 65532,
      "max": [
        15.53111457824707,
        0.29884713888168335
      ],
      "min": [
        0.0,
        -0.2913825809955597
      ],
      "type": "VEC2"
    },
    {
      "bufferView": 0,
      "byteOffset": 1803096,
      "componentType": 5125,
      "count": 229716,
      "type": "SCALAR"
    },
    {
      "bufferView": 2,
      "byteOffset": 4718304,
      "componentType": 5126,
      "count": 65532,
      "max": [
        -2.0224475860595703,
        15.12442684173584,
        14.852495193481445
      ],
      "min": [
        -11.977718353271484,
        -15.098983764648438,
        -15.289152145385742
      ],
      "type": "VEC3"
    },
    {
      "bufferView": 2,
      "byteOffset": 5504688,
      "componentType": 5126,
      "count": 65532,
      "max": [
        0.9999511241912842,
        0.99981689453125,
        0.9995678067207336
      ],
      "min": [
        -0.9999948740005493,
        -0.9996382594108582,
        -0.9999929070472717
      ],
      "type": "VEC3"
    },
    {
      "bufferView": 1,
      "byteOffset": 1572768,
      "componentType": 5126,
      "count": 65532,
      "max": [
        15.53111457824707,
        0.9999008178710938
      ],
      "min": [
        0.0,
        -0.2913825809955597
      ],
      "type": "VEC2"
    },
    {
      "bufferView": 0,
      "byteOffset": 2721960,
      "componentType": 5125,
      "count": 223809,
      "type": "SCALAR"
    },
    {
      "bufferView": 2,
      "byteOffset": 6291072,
      "componentType": 5126,
      "count": 65532,
      "max": [
        1.5470056533813477,
        15.12442684173584,
        14.852495193481445
      ],
      "min": [
        -3.8628830909729004,
        -15.098983764648438,
        -15.289152145385742
      ],
      "type": "VEC3"
    },
    {
      "bufferView": 2,
      "byteOffset": 7077456,
      "componentType": 5126,
      "count": 65532,
      "max": [
        0.9999510645866394,
        0.99981689453125,
        0.9995677471160889
      ],
      "min": [
        -0.9999949336051941,
        -0.9996381998062134,
        -0.9999929070472717
      ],
      "type": "VEC3"
    },
    {
      "bufferView": 1,
      "byteOffset": 2097024,
      "componentType": 5126,
      "count": 65532,
      "max": [
        15.53111457824707,
        0.29884713888168335
      ],
      "min": [
        0.0,
        -0.2913825809955597
      ],
      "type": "VEC2"
    },
    {
      "bufferView": 0,
      "byteOffset": 3617196,
      "componentType": 5125,
      "count": 225735,
      "type": "SCALAR"
    },
    {
      "bufferView": 2,
      "byteOffset": 7863840,
      "componentType": 5126,
      "count": 27748,
      "max": [
        3.8240299224853516,
        15.12442684173584,
        14.852495193481445
      ],
      "min": [
        -0.33263587951660156,
        -15.098983764648438,
        -15.289152145385742
      ],
      "type": "VEC3"
    },
    {
      "bufferView": 2,
      "byteOffset": 8196816,
      "componentType": 5126,
      "count": 27748,
      "max": [
        0.9999510645866394,
        0.99981689453125,
        0.9995678067207336
      ],
      "min": [
        -0.9999949336051941,
        -0.9996381998062134,
        -0.9999929070472717
      ],
      "type": "VEC3"
    },
    {
      "bufferView": 1,
      "byteOffset": 2621280,
      "componentType": 5126,
      "count": 27748,
      "max": [
        15.53111457824707,
        0.29884713888168335
      ],
      "min": [
        0.0,
        -0.2913825809955597
      ],
      "type": "VEC2"
    },
    {
      "bufferView": 0,
      "byteOffset": 4520136,
      "componentType": 5125,
      "count": 95493,
      "type": "SCALAR"
    },
    {
      "bufferView": 2,
      "byteOffset": 8529792,
      "componentType": 5126,
      "count": 1535,
      "max": [
        11.839999198913574,
        7.359999656677246,
        11.839999198913574
      ],
      "min": [
        -11.839999198913574,
        -7.359999656677246,
        -11.839999198913574
      ],
      "type": "VEC3"
    },
    {
      "bufferView": 2,
      "byteOffset": 8548212,
      "componentType": 5126,
      "count": 1535,
      "max": [
        0.999985933303833,
        0.9946202039718628,
        0.999985933303833
      ],
      "min": [
        -0.9999859929084778,
        -0.9946202039718628,
        -0.9999859929084778
      ],
      "type": "VEC3"
    },
    {
      "bufferView": 1,
      "byteOffset": 2843264,
      "componentType": 5126,
      "count": 1535,
      "max": [
        1.0,
        1.0
      ],
      "min": [
        0.0,
        0.00012241696822457016
      ],
      "type": "VEC2"
    },
    {
      "bufferView": 0,
      "byteOffset": 4902108,
      "componentType": 5125,
      "count": 4800,
      "type": "SCALAR"
    },
    {
      "bufferView": 2,
      "byteOffset": 8566632,
      "componentType": 5126,
      "count": 66,
      "max": [
        1.859999656677246,
        7.359999656677246,
        1.859999656677246
      ],
      "min": [
        -1.859999656677246,
        -7.359999656677246,
        -1.859999656677246
      ],
      "type": "VEC3"
    },
    {
      "bufferView": 2,
      "byteOffset": 8567424,
      "componentType": 5126,
      "count": 66,
      "max": [
        0.727887749671936,
        0.7298487424850464,
        0.727887749671936
      ],
      "min": [
        -0.7278876900672913,
        -0.7298486232757568,
        -0.727887749671936
      ],
      "type": "VEC3"
    },
    {
      "bufferView": 1,
      "byteOffset": 2855544,
      "componentType": 5126,
      "count": 66,
      "max": [
        1.0,
        0.9450185894966125
      ],
      "min": [
        0.0,
        0.5549814701080322
      ],
      "type": "VEC2"
    },
    {
      "bufferView": 0,
      "byteOffset": 4921308,
      "componentType": 5125,
      "count": 192,
      "type": "SCALAR"
    },
    {
      "bufferView": 2,
      "byteOffset": 8568216,
      "componentType": 5126,
      "count": 4,
      "max": [
        1.0,
        0.0,
        1.0
      ],
      "min": [
        -1.0,
        0.0,
        -1.0
      ],
      "type": "VEC3"
    },
    {
      "bufferView": 2,
      "byteOffset": 8568264,
      "componentType": 5126,
      "count": 4,
      "max": [
        0.0,
        1.0,
        -0.0
      ],
      "min": [
        0.0,
        1.0,
        -0.0
      ],
      "type": "VEC3"
    },
    {
      "bufferView": 1,
      "byteOffset": 2856072,
      "componentType": 5126,
      "count": 4,
      "max": [
        1.0,
        1.0
      ],
      "min": [
        0.0,
        0.0
      ],
      "type": "VEC2"
    },
    {
      "bufferView": 0,
      "byteOffset": 4922076,
      "componentType": 5125,
      "count": 6,
      "type": "SCALAR"
    }
  ],
  "asset": {
    "extras": {
      "author": "Tedbend (https://sketchfab.com/Tedbend)",
      "license": "CC-BY-4.0 (http://creativecommons.org/licenses/by/4.0/)",
      "source": "https://sketchfab.com/3d-models/thread-or-rope-33e0463907734648ade9016f833bca50",
      "title": "Thread or rope"
    },
    "generator": "Sketchfab-15.19.0",
    "version": "2.0"
  },
  "bufferViews": [
    {
      "buffer": 0,
      "byteLength": 4922100,
      "name": "floatBufferViews",
      "target": 34963
    },
    {
      "buffer": 0,
      "byteLength": 2856104,
      "byteOffset": 4922100,
      "byteStride": 8,
      "name": "floatBufferViews",
      "target": 34962
    },
    {
      "buffer": 0,
      "byteLength": 8568312,
      "byteOffset": 7778204,
      "byteStride": 12,
      "name": "floatBufferViews",
      "target": 34962
    }
  ],
  "buffers": [
    {
      "byteLength": 16346516,
      "uri": "scene.bin"
    }
  ],
  "extensionsUsed": [
    "KHR_materials_specular"
  ],
  "images": [
    {
      "uri": "textures/Material.002_baseColor.jpeg"
    },
    {
      "uri": "textures/Material.002_metallicRoughness.png"
    },
    {
      "uri": "textures/Material.001_baseColor.jpeg"
    }
  ],
  "materials": [
    {
      "doubleSided": true,
      "extensions": {
        "KHR_materials_specular": {
          "specularColorFactor": [
            1.0,
            1.0,
            1.0
          ],
          "specularFactor": 0.1630481159561629
        }
      },
      "name": "material_0",
      "pbrMetallicRoughness": {
        "baseColorFactor": [
          0.0,
          0.0,
          0.0,
          1.0
        ],
        "metallicFactor": 0.8091453231095561
      }
    },
    {
      "doubleSided": true,
      "extensions": {
        "KHR_materials_specular": {
          "specularColorFactor": [
            1.0,
            1.0,
            1.0
          ],
          "specularFactor": 0.0
        }
      },
      "name": "Material.002",
      "pbrMetallicRoughness": {
        "baseColorTexture": {
          "index": 0
        },
        "metallicFactor": 0.4556204361765674,
        "metallicRoughnessTexture": {
          "index": 1
        }
      }
    },
    {
      "doubleSided": true,
      "extensions": {
        "KHR_materials_specular": {
          "specularColorFactor": [
            1.0,
            1.0,
            1.0
          ],
          "specularFactor": 0.0
        }
      },
      "name": "Material.001",
      "pbrMetallicRoughness": {
        "baseColorTexture": {
          "index": 2
        },
        "metallicFactor": 0.0,
        "roughnessFactor": 0.0
      }
    }
  ],
  "meshes": [
    {
      "name": "Object_0",
      "primitives": [
        {
          "attributes": {
            "NORMAL": 1,
            "POSITION": 0,
            "TEXCOORD_0": 2
          },
          "indices": 3,
          "material": 1,
          "mode": 4
        }
      ]
    },
    {
      "name": "Object_1",
      "primitives": [
        {
          "attributes": {
            "NORMAL": 5,
            "POSITION": 4,
            "TEXCOORD_0": 6
          },
          "indices": 7,
          "material": 1,
          "mode": 4
        }
      ]
    },
    {
      "name": "Object_2",
      "primitives": [
        {
          "attributes": {
            "NORMAL": 9,
            "POSITION": 8,
            "TEXCOORD_0": 10
          },
          "indices": 11,
          "material": 1,
          "mode": 4
        }
      ]
    },
    {
      "name": "Object_3",
      "primitives": [
        {
          "attributes": {
            "NORMAL": 13,
            "POSITION": 12,
            "TEXCOORD_0": 14
          },
          "indices": 15,
          "material": 1,
          "mode": 4
        }
      ]
    },
    {
      "name": "Object_4",
      "primitives": [
        {
          "attributes": {
            "NORMAL": 17,
            "POSITION": 16,
            "TEXCOORD_0": 18
          },
          "indices": 19,
          "material": 1,
          "mode": 4
        }
      ]
    },
    {
      "name": "Object_5",
      "primitives": [
        {
          "attributes": {
            "NORMAL": 21,
            "POSITION": 20,
            "TEXCOORD_0": 22
          },
          "indices": 23,
          "material": 1,
          "mode": 4
        }
      ]
    },
    {
      "name": "Object_6",
      "primitives": [
        {
          "attributes": {
            "NORMAL": 25,
            "POSITION": 24,
            "TEXCOORD_0": 26
          },
          "indices": 27,
          "material": 2,
          "mode": 4
        }
      ]
    },
    {
      "name": "Object_7",
      "primitives": [
        {
          "attributes": {
            "NORMAL": 29,
            "POSITION": 28,
            "TEXCOORD_0": 30
          },
          "indices": 31,
          "material": 0,
          "mode": 4
        }
      ]
    },
    {
      "name": "Object_8",
      "primitives": [
        {
          "attributes": {
            "NORMAL": 33,
            "POSITION": 32,
            "TEXCOORD_0": 34
          },
          "indices": 35,
          "material": 0,
          "mode": 4
        }
      ]
    }
  ],
  "nodes": [
    {
      "children": [
        1
      ],
      "matrix": [
        1.0,
        -1.6081226229577292e-16,
        -5.356124287284811e-32,
        0.0,
        8.006836424271825e-33,
        3.828568672208042e-16,
        -1.0,
        0.0,
        1.6081226229577292e-16,
        1.0,
        3.828568672208042e-16,
        0.0,
        0.0,
        0.0,
        0.0,
        1.0
      ],
      "name": "Sketchfab_model"
    },
    {
      "children": [
        2
      ],
      "name": "root"
    },
    {
      "children": [
        3,
        10,
        13
      ],
      "matrix": [
        1.0,
        0.0,
        0.0,
        0.0,
        0.0,
        2.220446049250313e-16,
        1.0,
        0.0,
        0.0,
        -1.0,
        2.220446049250313e-16,
        0.0,
        0.0,
        0.0,
        0.0,
        1.0
      ],
      "name": "GLTF_SceneRootNode"
    },
    {
      "children": [
        4,
        5,
        6,
        7,
        8,
        9
      ],
      "matrix": [
        0.5910689830780029,
        0.0,
        0.0,
        0.0,
        0.0,
        0.25979321547495066,
        0.5309143320254694,
        0.0,
        0.0,
        -0.5309143320254694,
        0.25979321547495066,
        0.0,
        0.8552365303039551,
        0.022821033373475075,
        0.10872793197631836,
        1.0
      ],
      "name": "Circle_0"
    },
    {
      "mesh": 0,
      "name": "Object_4"
    },
    {
      "mesh": 1,
      "name": "Object_5"
    },
    {
      "mesh": 2,
      "name": "Object_6"
    },
    {
      "mesh": 3,
      "name": "Object_7"
    },
    {
      "mesh": 4,
      "name": "Object_8"
    },
    {
      "mesh": 5,
      "name": "Object_9"
    },
    {
      "children": [
        11,
        12
      ],
      "matrix": [
        0.0,
        -1.0,
        -0.0,
        0.0,
        1.161287546157837,
        0.0,
        0.0,
        0.0,
        0.0,
        -0.0,
        1.0,
        0.0,
        0.7073675394058228,
        0.0,
        0.0,
        1.0
      ],
      "name": "Cylinder_2"
    },
    {
      "mesh": 6,
      "name": "Object_11"
    },
    {
      "mesh": 7,
      "name": "Object_12"
    },
    {
      "children": [
        14
      ],
      "matrix": [
        553.022216796875,
        0.0,
        0.0,
        0.0,
        0.0,
        553.022216796875,
        0.0,
        0.0,
        0.0,
        0.0,
        553.022216796875,
        0.0,
        0.0,
        -11.78812313079834,
        0.0,
        1.0
      ],
      "name": "Plane_4"
    },
    {
      "mesh": 8,
      "name": "Object_14"
    }
  ],
  "samplers": [
    {
      "magFilter": 9729,
      "minFilter": 9987,
      "wrapS": 10497,
      "wrapT": 10497
    }
  ],
  "scene": 0,
  "scenes": [
    {
      "name": "Sketchfab_Scene",
      "nodes": [
        0
      ]
    }
  ],
  "textures": [
    {
      "sampler": 0,
      "source": 0
    },
    {
      "sampler": 0,
      "source": 1
    },
    {
      "sampler": 0,
      "source": 2
    }
  ]
}
