<?xml version="1.0" encoding="UTF-8"?>
<svg id="Layer_2" xmlns="http://www.w3.org/2000/svg" xmlns:xlink="http://www.w3.org/1999/xlink" viewBox="0 0 469.48 464.45">
  <defs>
    <style>
      .cls-1 {
        fill: url(#linear-gradient-2);
      }

      .cls-2 {
        fill: #231f20;
      }

      .cls-3 {
        fill: #d97c80;
      }

      .cls-4 {
        fill: url(#radial-gradient-5);
      }

      .cls-5 {
        fill: #ea979f;
      }

      .cls-6 {
        fill: url(#radial-gradient-3);
      }

      .cls-7 {
        fill: url(#linear-gradient-3);
      }

      .cls-8 {
        fill: url(#radial-gradient-2);
      }

      .cls-9 {
        fill: #d1d3d4;
      }

      .cls-10 {
        fill: url(#radial-gradient-4);
      }

      .cls-11 {
        fill: url(#radial-gradient-6);
      }

      .cls-12 {
        fill: url(#radial-gradient);
        fill-rule: evenodd;
      }

      .cls-13 {
        fill: url(#radial-gradient-7);
      }

      .cls-14 {
        fill: url(#linear-gradient);
      }
    </style>
    <radialGradient id="radial-gradient" cx="295.77" cy="244.11" fx="295.77" fy="244.11" r="328.1" gradientUnits="userSpaceOnUse">
      <stop offset="0" stop-color="#d09072"/>
      <stop offset="1" stop-color="#805848"/>
    </radialGradient>
    <linearGradient id="linear-gradient" x1="195.66" y1="443.94" x2="172.67" y2="486.27" gradientTransform="translate(102.68 -204.64) rotate(.23) scale(1.1) skewX(.47)" gradientUnits="userSpaceOnUse">
      <stop offset="0" stop-color="#d19878"/>
      <stop offset=".89" stop-color="#996955"/>
    </linearGradient>
    <radialGradient id="radial-gradient-2" cx="249.41" cy="196.97" fx="249.41" fy="196.97" r="273.91" gradientUnits="userSpaceOnUse">
      <stop offset="0" stop-color="#231f20"/>
      <stop offset="1" stop-color="#414042"/>
    </radialGradient>
    <radialGradient id="radial-gradient-3" cx="-209.86" cy="2008.49" fx="-196.53" fy="1973.34" r="37.6" gradientTransform="translate(-1032.03 -3008.6) rotate(-29.7) scale(.92 1.7) skewX(-13.38)" xlink:href="#radial-gradient"/>
    <radialGradient id="radial-gradient-4" cx="407.01" cy="274.66" fx="417.3" fy="247.5" r="29.04" gradientTransform="translate(0 -120.97) scale(1 1.44)" xlink:href="#radial-gradient"/>
    <linearGradient id="linear-gradient-2" x1="208.63" y1="330.97" x2="240.71" y2="258.19" gradientUnits="userSpaceOnUse">
      <stop offset="0" stop-color="#fcfcfc" stop-opacity=".3"/>
      <stop offset="1" stop-color="#f1f2f2" stop-opacity=".1"/>
    </linearGradient>
    <linearGradient id="linear-gradient-3" x1="326.49" y1="327.33" x2="356.64" y2="258.92" xlink:href="#linear-gradient-2"/>
    <radialGradient id="radial-gradient-5" cx="121.89" cy="319.21" fx="121.89" fy="319.21" r="17.8" gradientUnits="userSpaceOnUse">
      <stop offset="0" stop-color="#f1f2f2"/>
      <stop offset="1" stop-color="#00aeef"/>
    </radialGradient>
    <radialGradient id="radial-gradient-6" cx="401.94" cy="313.11" fx="401.94" fy="313.11" r="13.45" xlink:href="#radial-gradient-5"/>
    <radialGradient id="radial-gradient-7" cx="326.89" cy="322.19" fx="326.89" fy="322.19" r="36.51" gradientUnits="userSpaceOnUse">
      <stop offset="0" stop-color="#d19878"/>
      <stop offset="1" stop-color="#996955" stop-opacity=".5"/>
    </radialGradient>
  </defs>
  <g id="Bitmojis">
    <g id="Eco_x5F_Side">
      <g id="Eco_x5F_Side_x5F_Happy">
        <path class="cls-12" d="M399.25,263.65c-2.63,117.81-36.7,147.05-50.78,172.41-20.52,36.94-90.73,34.3-119.03,12.26-17.27-13.45-83.91-50.29-101.22-77.74-21.46-34.04-19.5-52.53-19.5-106.93,0-109.72,50.62-168.31,139.27-168.31s153.71,58.62,151.26,168.31Z"/>
        <circle class="cls-2" cx="235.78" cy="269.68" r="13.84"/>
        <circle class="cls-2" cx="348.47" cy="269.68" r="13.84"/>
        <path d="M177.26,254.49s8.78-12.56,13.96-16.11c5.5-3.77,9.66-7.86,23.61-8.33,18.55-.63,41.79,4.06,41.79,4.06,0,0,12.56,2.46,15.98,9.23,3.43,6.77-2,7.7-4.22,7.85-4.05.27-11.79-2.6-16.77-3.28-6.66-.91-15.33-2.92-21.9-3.44-6.88-.55-16.1-1.59-27.02-.4-6.83.75-25.44,10.43-25.44,10.43Z"/>
        <path d="M395.89,254.31s-7.34-11.79-11.68-15.12c-4.61-3.53-8.1-7.36-19.83-7.75-15.6-.52-35.16,3.97-35.16,3.97,0,0-10.57,2.36-13.48,8.75-2.91,6.39,1.66,7.24,3.52,7.37,3.4.24,9.93-2.5,14.12-3.15,5.61-.88,12.9-2.8,18.43-3.32,5.79-.54,13.54-1.56,22.72-.47,5.74.68,21.36,9.72,21.36,9.72Z"/>
        <path class="cls-14" d="M330.73,314.97c13.87,13.56,4.42,32.81-6.3,34.1-20.29,2.44-15.84-7.75-36.5-3.55-8.34,1.69-15.67-13.36-13.97-20.97,2.53-11.34,15.48-16.41,13.78-45.46-.96-16.49,17-12.82,18.89-.83,1.87,11.91,12.69,25.55,24.1,36.71Z"/>
        <path class="cls-8" d="M373.42,217.41c-14.97-.94-13.99-22.37-17.68-33.88-2.46-7.69-15.89-10.59-15.03-22.4-3.33.54-1.48,6.78-3.34,10-7.07,12.24-36.77-7-29.99-23.15-7.68,5.49-17.71-.79-20.26-9.27-2.57-8.54,2.48-15.07-11.31-13.22,7.68,9.97,3.17,20.3-8.78,20.64,5.56,11.12,5.66,19.34-2.76,22.96-1.83.79-5.58,1.37-8.51.49-3.71-1.12-6.77-1.96-9.24-5.09-5.6-7.1-6.85-10.52-5.82-20.26l-7,1.9c8.77,8.82-1.77,17.29-1.44,21.23.46,5.63,6.51,9.32,5.05,21.05-.83,6.66-7.1,10.3-7.09,11.17,0,1.11.47,15.58-13.54,23.34-5.96,3.3-20.33-6.27-24.89-11.22-2.83-3.07-11.12-11.65-14.15-12.52-1.9,7.89-16.03,21.36-16.34,28.09-.2,4.37,6.77,8.62,7.08,13.39.26,3.97-5.15,9.16-5.13,15.21.03,12.4-5.39,8.09-11.15,10.42-1.92.78-1.37,4.32-6.06,5.15-14.75,2.61-8.75-9.08-11.46-14.24-.44-.83-3.48-1.39-4.68-3.33-2.9-4.7-6.24-3.4-7.93-10.01-3.84-14.99-5.87-25.79-3.65-15.55.97,4.49.29,38.74-.26,41.74-.37,1.99,1.86.87,0,6-9.45,26.14-22.02,13.73,1.43,3.98l-15.51,15.2c6.52,22.43,5.5,17.3,8.61,28.96,1.79,6.73,10.94,31.28,8.09,37.57-3.16,6.96-6,13.01-19.84,14.09-14.93,1.16-15.11-5.22-21.76-9.98-31.71,7.74-29.63-18.13-29.63-18.13-10.64,1.26-14.83-3.67-15.8-15.01-.65-7.6,1.24-13.88,1.24-13.88-12-2.22-12.96-20.16,1.07-21.46-15.86-7.7-7.73-19.06-7.73-19.06-1.12-.91-12.64,9.8-19.96-2.72-4.74-8.11.69-10.76.37-14.78-.24-2.95-4.17-6.76-4.67-10.17-.66-4.42,1.78-7.5,1.58-10.54-.06-.82-8.11-2.93-4.63-14.41,2.55-8.39,14.01-7.86,16-11.09,1.68-2.72-8.04-14.37-5.4-20.16,1.96-4.32,12.21-12.91,12.25-14.57.02-.9-5.27-8.94-5-16.93.29-8.87,6.72-13.91,6.74-14.95.03-2.28-5.96-6.08-1.77-15.55,3.36-7.61,18.92-10.91,19.52-11.94.94-1.61-.24-8.31,2.22-13.58,4.15-8.88,12.56-7.26,16.39-12.29,3.65-4.78,3.73-15.06,9.3-21.01,4.85-5.18,11.49-4.73,15.13-7.27,4.93-3.44,3.6-15.91,15.75-18.85,9.09-2.2,10.9,3.12,14.9,3.1,1.04,0,1.55-4.13,3.38-5.94,1.58-1.56,3.17-3.39,8.78-3.85,2.89-.24,6.34,1.31,7.63,2.11,12.24,7.6,15.81-3.87,28.58,1.9,0,0,1.64-2.82,2.65-4.04,14.13-17.65,35.17-17.23,47.38,2.18h2.58c1.4-11.05,4.66-11.44,10.58-16.78,3.51-3.17,1.59-10.01,3.84-16.24,4.94-13.7,30.7-12.18,38.26-1.66,1.6,2.23,3.36,5.34,6.47,6.13,2.51.64,4.12-2.95,10.96-3.53,9.58-.81,14.21-.51,22.41,5.34,4.94,3.52,6.16,7.96,9.51,17.13,1.42,3.89,20.7-7.35,31.44,2.95,2.11,2.02,3.83,6.85,5.09,7.61,1.29.77,4.84-1.13,7.45-.56,19.02,4.14,22.11,15.84,20.71,35.27,20.53-3.67,38.96,10.49,36.87,33.76,17.14-5.82,32.7,3.82,27.05,24.48,12.67,2.89,26.06,11.5,19.02,27.6-3.04,6.97-12.74,3.23-9.02,15.24,16.45.8,12.38,28.26-1.96,22.73-4.47-1.72-5.25,1.86-5.25,1.86.65,6.03,6.07,7.41,6.95,14.22.79,6.09-1.6,9.95-1.78,14.94-.15,4.4,2.51,8.68,1.58,12.61-1.82,7.61-15.61,8.52-15.58,9.87l2.7,6.53c2.06,4.35,2.43,8.26.87,13.12l-5.27,7.51c6,18.71-3,33.76-18.58,28.05,7.34,29.58-26.11,4.9-26.11,4.9,0,0,5.83-22.04,2-79.17-1.26-18.74-12.82-55.63-12.82-55.63,0,0,2.64,37.11-11.84,36.2Z"/>
        <path class="cls-6" d="M132.56,251.66c6.36,27.88,11.35,69.75-3.13,73.06-14.48,3.3-31.37-16.62-37.73-44.49-6.36-27.88-3.49-54.69,10.98-57.99,14.48-3.3,23.51,1.55,29.88,29.42Z"/>
        <path class="cls-10" d="M407.46,236.88c-3.58-.82-6.73-1-9.54-.19.54,8.92,1.03,17.6.82,26.96-.45,20.11-1.6,34.59-3.36,49.51,8.5-4.71,17.08-14.65,20.72-30.62,5.01-21.95,2.75-43.06-8.65-45.66Z"/>
        <g>
          <ellipse class="cls-1" cx="235.37" cy="270.31" rx="47.93" ry="36.64"/>
          <ellipse class="cls-7" cx="351.62" cy="270.31" rx="42.16" ry="35.14"/>
          <path class="cls-9" d="M351.31,233.32c-23.08,0-42,15.54-43.2,35.02-10.98-3.14-19.71-1.23-23.38-.09-1.39-20.08-23-36.08-49.36-36.08s-49.43,17.46-49.43,38.14,22.18,38.14,49.43,38.14,48.65-16.53,49.4-37.06c2.73-.93,11.84-3.42,23.31.06.71,19.87,19.82,35.86,43.23,35.86s43.26-16.59,43.26-36.99-19.41-36.99-43.26-36.99ZM235.37,305.45c-25.71,0-46.62-15.76-46.62-35.14s21.35-35.14,46.62-35.14,46.62,15.76,46.62,35.14-20.91,35.14-46.62,35.14ZM351.31,304.3c-22.3,0-40.45-15.25-40.45-33.99s18.15-33.99,40.45-33.99,40.45,15.25,40.45,33.99-18.15,33.99-40.45,33.99Z"/>
        </g>
        <circle class="cls-4" cx="118.54" cy="325.08" r="11.74"/>
        <path class="cls-11" d="M397.28,308.45c-.46,0-.91.04-1.36.11-.69,6.25-1.48,12.16-2.36,17.76,1.14.5,2.4.78,3.72.78,5.15,0,9.32-4.17,9.32-9.32s-4.17-9.32-9.32-9.32Z"/>
        <path class="cls-13" d="M330.73,314.97s-.02-.02-.02-.02c-2.16-2.11-4.83-3.69-7.79-4.3-1.95-.4-3.99-.51-6.1-.3-9.75.97-17.55,8.99-18.24,18.76-.51,7.16,2.7,13.58,7.87,17.58,3.97,1.7,7.95,3.59,17.99,2.38,10.72-1.29,20.17-20.54,6.3-34.1Z"/>
      </g>
      <g>
        <path class="cls-3" d="M228.65,386.79c20.51,17.47,47.63,21.31,76.21,20.39,23.26-.75,38-8.6,32.21-22.99-8.76.74-32.41-1.14-41.66-1.62-18.49-.96-44.19-3.85-66.15,3.83l-.61.38"/>
        <path class="cls-5" d="M339.01,384.76c4.07-.45-5.93-11.42-12.24-13.85-8.46-3.25-21.08-.48-21.08-.48,0,0-3.98-2.3-10.29-3.1-29.89-3.79-65.56,15.32-66.74,19.45,0,0,24.48-6.31,46.9-4.57s45.63,4.52,63.46,2.55Z"/>
      </g>
    </g>
  </g>
</svg>