<?xml version="1.0" encoding="UTF-8"?>
<svg id="Layer_2" data-name="Layer 2" xmlns="http://www.w3.org/2000/svg" xmlns:xlink="http://www.w3.org/1999/xlink" viewBox="0 0 385.533 491.668">
  <defs>
    <style>
      .cls-1 {
        fill: url(#linear-gradient-2);
      }

      .cls-2 {
        fill: #231f20;
      }

      .cls-3 {
        fill: url(#linear-gradient-4);
      }

      .cls-4 {
        fill: #8b5e3c;
      }

      .cls-5 {
        fill: url(#radial-gradient);
      }

      .cls-6 {
        fill: url(#radial-gradient-3);
      }

      .cls-7 {
        fill: #971c1f;
      }

      .cls-8 {
        fill: url(#linear-gradient-3);
      }

      .cls-9 {
        fill: url(#linear-gradient-5);
      }

      .cls-10 {
        fill: url(#radial-gradient-2);
      }

      .cls-11 {
        fill: #1b1b1b;
      }

      .cls-12 {
        fill: url(#linear-gradient);
      }

      .cls-13 {
        fill: #414042;
      }

      .cls-14 {
        fill: #7f1717;
      }
    </style>
    <linearGradient id="linear-gradient" x1="255.622" y1="18.837" x2="67.323" y2="382.753" gradientUnits="userSpaceOnUse">
      <stop offset="0" stop-color="#1c75bc"/>
      <stop offset="1" stop-color="#2e3192"/>
    </linearGradient>
    <radialGradient id="radial-gradient" cx="90.158" cy="56.757" fx="90.158" fy="56.757" r="480.019" gradientTransform="translate(84.767) scale(.935 1)" gradientUnits="userSpaceOnUse">
      <stop offset="0" stop-color="#d29571"/>
      <stop offset="1" stop-color="#c19776"/>
    </radialGradient>
    <linearGradient id="linear-gradient-2" x1="166.315" y1="188.587" x2="166.315" y2="417.653" gradientUnits="userSpaceOnUse">
      <stop offset="0" stop-color="#d19878"/>
      <stop offset=".886" stop-color="#996955"/>
    </linearGradient>
    <radialGradient id="radial-gradient-2" cx="-1199.711" cy="2327.538" fx="-1199.711" fy="2327.538" r="198.083" gradientTransform="translate(-1737.937 -1401.277) rotate(-77.281)" gradientUnits="userSpaceOnUse">
      <stop offset="0" stop-color="#d19470"/>
      <stop offset="1" stop-color="#c19776"/>
    </radialGradient>
    <linearGradient id="linear-gradient-3" x1="-1223.737" y1="2373.644" x2="-1279.563" y2="2392.166" gradientTransform="translate(-1737.937 -1401.277) rotate(-77.281)" gradientUnits="userSpaceOnUse">
      <stop offset="0" stop-color="#d19470"/>
      <stop offset="1" stop-color="#c19776"/>
    </linearGradient>
    <linearGradient id="linear-gradient-4" x1="-3682.223" y1="2471.981" x2="-3736.588" y2="2490.018" gradientTransform="translate(-1167.227 -3844.519) rotate(-75.908)" xlink:href="#linear-gradient-3"/>
    <linearGradient id="linear-gradient-5" x1="-3597.73" y1="2235.011" x2="-3638.016" y2="2248.377" gradientTransform="translate(-1178.587 -3883.759) rotate(-75.908) scale(1.038 1.127)" xlink:href="#linear-gradient-3"/>
    <radialGradient id="radial-gradient-3" cx="-3794.732" cy="2329.971" fx="-3794.732" fy="2329.971" r="137.492" gradientTransform="translate(-1167.227 -3844.519) rotate(-75.908)" gradientUnits="userSpaceOnUse">
      <stop offset="0" stop-color="#d19470"/>
      <stop offset="1" stop-color="#c19776"/>
    </radialGradient>
  </defs>
  <g id="Bitmojis">
    <g id="Ethic_Front_Neutral">
      <path class="cls-12" d="M323.246,261.93c-7.78,51.08-43.25,151.61-156.93,151.61S17.165,313.01,9.385,261.93c-6.04-39.63-21.01-96.78,7.29-178.44C40.556,14.55,121.616,0,166.315,0s125.76,14.55,149.64,83.49c28.3,81.66,13.33,138.81,7.29,178.44Z"/>
      <path class="cls-5" d="M222.916,384.098c-16.689,17.39-36.47,21.53-56.6,21.53s-39.92-4.14-56.609-21.53c-23.29-24.26-69.097-61.979-69.097-190.73-3.609-104.31,49.16-126,125.706-126s129.305,21.69,125.696,126c0,128.751-45.797,166.47-69.097,190.73Z"/>
      <path class="cls-13" d="M290.015,242.8c.319-2.37-.564-8.11-1.597-14.65-9.739-61.48-12.717-84.13-50.284-118.95-20.821-19.31-47.043-25.11-71.819-25.11s-50.997,5.8-71.819,25.11c-37.576,34.82-40.545,57.47-50.284,118.95-1.033,6.54-1.925,12.28-1.597,14.65-5.832-42.54-4.865-75.25,2.066-108.31,12.641-60.39,62.737-94.92,121.633-94.92s108.992,34.53,121.633,94.92c6.922,33.06,7.899,65.77,2.066,108.31Z"/>
      <path class="cls-11" d="M109.058,164.268c-14.876-1.014-28.026,5.087-42.426,9.533-.866-1.129,5.694-6.437,6.718-7.259,23.694-19.039,41.939-18.48,70.854-11.71,5.68,1.33,5.901,4.984,4.861,9.319-.585,2.441-1.968,4.121-4.363,4.329-2.391.208-3.913-.204-9.567-.767-5.654-.562-11.2-2.431-26.076-3.445Z"/>
      <circle class="cls-2" cx="118.509" cy="203.309" r="13.844"/>
      <circle class="cls-2" cx="214.122" cy="203.309" r="13.844"/>
      <path class="cls-11" d="M224.443,185.97c14.757-2.134,28.33,2.956,43.024,6.303.779-1.191-6.164-5.989-7.246-6.731-25.064-17.196-43.215-15.261-71.535-6.328-5.564,1.755-5.507,5.415-4.143,9.659.768,2.39,2.274,3.96,4.678,3.988s3.887-.499,9.482-1.487c5.596-.987,10.984-3.269,25.741-5.404Z"/>
      <path class="cls-1" d="M185.435,283.171c-7.534,2.423-11.098,4.595-19.122,4.595s-11.588-2.172-19.122-4.595c-11.07-3.548-12.05-17.825-.999-25.871,7.326-5.349,6.223-8.22,7.194-22.355.735-10.785,1.245-16.101,2.122-29.025.311-4.585,2.338-8.885,5.695-11.352,1.443-1.059,3.159-1.801,5.111-1.801s3.668.742,5.12,1.801c3.347,2.467,5.375,6.768,5.686,11.352.877,12.924,1.395,18.24,2.131,29.025.962,14.136-.141,17.007,7.194,22.355,11.041,8.045,10.07,22.323-1.009,25.871Z"/>
      <path class="cls-7" d="M93.645,316.974c14.374,16.02,35.616,23.08,58.579,26.873,18.685,3.086,52.206.521,56.776-11.303-7.089-.823-48.531-10.702-55.884-12.436-39.993-9.431-44.056-7.22-58.937-3.32l-.534.185"/>
      <path class="cls-14" d="M209,332.544c.328-3.062-19.159-13.016-34.866-15.629-7.266-1.209-16.983.101-16.983.101,0,0-4.345-3.88-12.147-6.698-30.114-10.878-49.935,3.806-51.359,6.656,0,0,22.074-6.146,38.1,2.905,17.722,10.008,62.764,11.33,77.255,12.666Z"/>
    </g>
    <g id="Hand7_Point">
      <g>
        <polygon class="cls-4" points="243.311 382.062 244.735 363.273 248.467 332.065 267.221 248.976 278.57 241.398 291.422 242.07 298.551 248.818 288.184 311.549 297.546 320.539 333.478 398.016 362.214 401.866 369.85 401.106 367.721 430.726 359.097 453.871 345.882 472.19 321.503 487.998 303.228 489.241 243.311 382.062"/>
        <path class="cls-4" d="M331.043,361.232c2.446-13.081,2.223-26.201-4.485-38.967-4.45-8.468-11.755-14.183-22.889-14.427-1.936-.043-3.895.398-5.743.864-2.569.647-3.278,2.078-2.251,4.556,6.226,15.013,7.084,30.095,3.48,45.04-1.052,4.361-3.076,8.584-5.374,12.515-2.777,4.751-1.416,8.835,5.014,12.377,8.244,4.542,16.321,3.087,23.005-4.21,4.724-5.158,7.858-11.041,9.244-17.746Z"/>
        <path class="cls-4" d="M361.354,365.638c1.441-10.321,2.135-20.438-3.428-30.367-2.127-3.796-5.112-7.443-8.431-10.596-4.514-4.289-12.064-5.043-17.064-1.778-1.513.988-2.469,3.802-2.004,5.555,2.792,10.523,3.293,20.947,1.35,31.215-2.155,11.389-7.497,21.247-18.573,27.89-2.146,1.287-2.176,2.729-.551,4.633,4.026,4.718,10.967,7.044,17.105,5.461,11.481-2.961,19.6-9.424,25.004-18.355,2.625-4.339,4.421-9.092,6.592-13.658Z"/>
        <path class="cls-4" d="M381.158,377.631c1.859-7.411,1.43-14.303-1.256-21.19-2.132-5.466-7.365-9.586-12.257-9.749-3.057-.102-4.427.849-4.631,3.846-.403,5.908-.709,11.934-2.254,17.59-3.477,12.733-11.284,22.846-24.054,29.269-3.211,1.615-2.679,2.741-.366,4.728,6.845,5.878,18.651,6.033,27.291.261,9.442-6.308,14.75-15.071,17.526-24.754Z"/>
        <path class="cls-4" d="M294.704,430.847c-2.568-4.71-5.489-9.219-8.628-13.568-15.36-21.276-36.588-33.203-62.926-36.897-13.449-1.886-26.805-2.272-39.782,1.755-9.787,3.037-18.156,7.966-21.853,17.874-3.321,8.9.54,16.121,10.144,18.623,5.423,1.413,11.034,2.093,16.527,3.261,4.445.945,8.873,2.014,13.254,3.222,13.319,3.671,23.001,12.08,31.442,22.312,7.412,8.985,14.966,17.902,23.066,26.31,3.275,3.399,7.89,6.005,12.371,7.877,17.023,7.113,33.754,9.636,49.849,5.546,0,0-4.644-13.591-6.52-17.993-5.945-13.949-12.954-31.008-16.942-38.321Z"/>
        <path class="cls-4" d="M265.211,248.5c-5.889,15.371-14.128,52.644-16.956,64.457-4.709,19.677-6.097,38.238-5.712,52.374-.041,3.063-.023,6.169-.052,9.271-.028,1.356-.193,2.562-.718,3.369-.687,1.235-2.568,1.508-4.21,1.381-2.182-.132-14.187-2.522-16.423-2.764-19.317-2.655-44.573-.995-57.575,15.329-2.059,2.597-3.868,5.605-4.804,8.699-2.153,6.319.314,14.831,5.433,19.137,2.393,2.094,5.544,3.256,8.624,4.022,7.355,1.791,14.694,3.217,22.038,4.948,9.579,2.237,18.285,6.745,26.24,12.386,5.133,3.729,8.777,8.495,12.581,13.301,4.313,5.435,9.147,10.593,13.875,15.72,9.522,10.908,22.61,17.279,36.821,19.905,4.73.944,8.933,1.257,13.727,1.539,28.558,1.509,55.462-15.79,66.426-41.767,5.529-13.21,8.864-27.659,8.423-42.11-.804-7.905,1.76-9.842,5.805-15.875,6.774-10.879,8.766-23.538,4.626-35.971-5.462-15.661-15.215-9.291-20.626-16.612-5.801-9.297-8.28-19.638-21.185-20.275-3.175-.453-6.633,1.676-9.556.976l-.111-.036c-3.112-1.35-4.707-5.386-7.234-7.692-5.629-6.185-13.471-9.723-21.433-8.175-2.582.502-7.859,1.33-9.345,6.136-.678,2.192-4.89,6.596-1.65-10.424,2.41-12.66,7.017-37.265,7.321-38.618,2.672-11.903-.807-16.466-4.026-19.031-2.572-2.049-5.952-3.364-9.175-4.077-7.164-1.584-17.191.139-21.151,10.473ZM374.821,351.381c6.249,6.79,6.623,17.176,4.564,25.785l-.038.147c-2.599,9.757-8.496,18.984-17.133,24.553-7.102,4.579-16.613,5.25-22.978.516-3.575-2.722-1.646-4.935,1.435-6.786,16.138-9.927,21.272-25.282,22.469-43.188.897-6.685,8.339-4.697,11.681-1.027ZM344.892,324.443c2.244.846,4.149,2.451,5.734,4.236,8.978,9.747,10.433,23.567,7.503,36.097l-.04.144c-4.087,12.494-11.419,24.589-24.399,29.494-4.687,2.005-10.328,2.182-14.587-.9-1.499-1.045-2.829-2.471-3.071-3.923-.39-3.633,4.378-5.614,6.37-8.115,11.961-12.494,13.412-31.658,10.681-48.008-1.712-7.901,4.931-11.432,11.809-9.025ZM301.586,309.405c14.074-2.941,23.074,7.471,26.544,20.136,2.943,10.023,2.615,20.691.537,30.924l-.032.146c-2.43,11.26-12.206,27.656-25.645,23.696-3.607-1.156-7.867-3.81-8.894-7.58-.656-2.426.443-5.143,1.534-7.427,1.91-3.838,3.549-7.721,4.505-11.889,3.184-13.444,2.77-27.249-1.463-40.576-1.091-3.222-.932-6.487,2.912-7.431ZM296.304,253.1c.076,4.697-3.221,19.531-4.735,28.015-.829,4.647-2.074,11.092-2.431,13.161-.356,2.069-1.557,8.91-1.751,10.077s-1.129,6.78-1.926,11.658c-.796,4.878-2.499,15.31-2.499,15.31-1.698,9.349-2.473,18.837-2.067,28.383.246,2.979,4.608,2.707,4.509-.256-.369-6.793-.196-13.821.602-20.618.36-2.846,1.895-12.783,3.235-21.43,1.748,1.01,3.925,1.649,5.19,5.981,4.24,14.521,4.928,29.89-2.374,43.313l-3.011,7.353c.271,3.693.089,5.306,2.907,8.287,3.03,3.044,6.425,5.623,10.696,6.664,2.301.625,4.754.973,6.842,2.172,2.174,1.207,3.803,3.215,5.684,4.813,2.701,2.346,5.919,3.659,9.526,4.255,3.249.478,6.517,1.173,9.14,3.289,6.775,5.995,14.291,8.263,23.162,5.496,1.491-.439,2.92-.967,4.383-1.532,1.447-.522,3.361-1.369,4.636-.719l.079.043c3.127,1.684-.144,18.419-.771,21.848-3.623,17.261-11.047,34.254-25.453,45.203-19.848,15.679-43.552,16.652-69.125,7.758-9.364-3.256-14.82-8.086-21.18-15.522-25.73-28.92-26.687-38.703-67.887-45.352-6.515-1.175-14.855-2.837-17.462-9.73-3.121-9.55,4.755-19.901,13.104-24.009,23.631-11.932,59.824-6.288,81.743,6.61,12.397,7.204,23.36,18.714,30.782,31.6,1.14,1.872,4.728,8.159,6.79,4.918.615-1.881-.623-4.246-1.556-5.972-7.824-13.62-18.055-24.818-31.372-32.914-4.976-3.028-7.577-5.361-13.406-7.484-1.941-.737-2.649-1.033-2.611-3.096.049-2.629.036-6.741.135-11.144.329-14.584.644-20.604,2.418-37.986,1.002-9.817,3.361-20.048,8.128-39.835,2.802-11.629,4.504-20.846,6.674-28.68,2.14-7.727,3.152-17.173,12.786-20.314,7.404-2.413,18.332,2.208,18.465,10.386Z"/>
      </g>
      <g>
        <polygon class="cls-10" points="243.311 382.062 244.735 363.273 248.467 332.065 267.221 248.976 278.57 241.398 291.422 242.07 298.551 248.818 288.184 311.549 297.546 320.539 333.478 398.016 362.214 401.866 369.85 401.106 367.721 430.726 359.097 453.871 345.882 472.19 321.503 487.998 303.228 489.241 243.311 382.062"/>
        <path class="cls-8" d="M331.043,361.232c2.446-13.081,2.223-26.201-4.485-38.967-4.45-8.468-11.755-14.183-22.889-14.427-1.936-.043-3.895.398-5.743.864-2.569.647-3.278,2.078-2.251,4.556,6.226,15.013,7.084,30.095,3.48,45.04-1.052,4.361-3.076,8.584-5.374,12.515-2.777,4.751-1.416,8.835,5.014,12.377,8.244,4.542,16.321,3.087,23.005-4.21,4.724-5.158,7.858-11.041,9.244-17.746Z"/>
        <path class="cls-3" d="M361.354,365.638c1.441-10.321,2.135-20.438-3.428-30.367-2.127-3.796-5.112-7.443-8.431-10.596-4.514-4.289-12.064-5.043-17.064-1.778-1.513.988-2.469,3.802-2.004,5.555,2.792,10.523,3.293,20.947,1.35,31.215-2.155,11.389-7.497,21.247-18.573,27.89-2.146,1.287-2.176,2.729-.551,4.633,4.026,4.718,10.967,7.044,17.105,5.461,11.481-2.961,19.6-9.424,25.004-18.355,2.625-4.339,4.421-9.092,6.592-13.658Z"/>
        <path class="cls-9" d="M381.158,377.631c1.859-7.411,1.43-14.303-1.256-21.19-2.132-5.466-7.365-9.586-12.257-9.749-3.057-.102-4.427.849-4.631,3.846-.403,5.908-.709,11.934-2.254,17.59-3.477,12.733-11.284,22.846-24.054,29.269-3.211,1.615-2.679,2.741-.366,4.728,6.845,5.878,18.651,6.033,27.291.261,9.442-6.308,14.75-15.071,17.526-24.754Z"/>
        <path class="cls-6" d="M294.704,430.847c-2.568-4.71-5.489-9.219-8.628-13.568-15.36-21.276-36.588-33.203-62.926-36.897-13.449-1.886-26.805-2.272-39.782,1.755-9.787,3.037-18.156,7.966-21.853,17.874-3.321,8.9.54,16.121,10.144,18.623,5.423,1.413,11.034,2.093,16.527,3.261,4.445.945,8.873,2.014,13.254,3.222,13.319,3.671,23.001,12.08,31.442,22.312,7.412,8.985,14.966,17.902,23.066,26.31,3.275,3.399,7.89,6.005,12.371,7.877,17.023,7.113,33.754,9.636,49.849,5.546,0,0-4.644-13.591-6.52-17.993-5.945-13.949-12.954-31.008-16.942-38.321Z"/>
        <path class="cls-4" d="M265.211,248.5c-5.889,15.371-14.128,52.644-16.956,64.457-4.709,19.677-6.097,38.238-5.712,52.374-.041,3.063-.023,6.169-.052,9.271-.028,1.356-.193,2.562-.718,3.369-.687,1.235-2.568,1.508-4.21,1.381-2.182-.132-14.187-2.522-16.423-2.764-19.317-2.655-44.573-.995-57.575,15.329-2.059,2.597-3.868,5.605-4.804,8.699-2.153,6.319.314,14.831,5.433,19.137,2.393,2.094,5.544,3.256,8.624,4.022,7.355,1.791,14.694,3.217,22.038,4.948,9.579,2.237,18.285,6.745,26.24,12.386,5.133,3.729,8.777,8.495,12.581,13.301,4.313,5.435,9.147,10.593,13.875,15.72,9.522,10.908,22.61,17.279,36.821,19.905,4.73.944,8.933,1.257,13.727,1.539,28.558,1.509,55.462-15.79,66.426-41.767,5.529-13.21,8.864-27.659,8.423-42.11-.804-7.905,1.76-9.842,5.805-15.875,6.774-10.879,8.766-23.538,4.626-35.971-5.462-15.661-15.215-9.291-20.626-16.612-5.801-9.297-8.28-19.638-21.185-20.275-3.175-.453-6.633,1.676-9.556.976l-.111-.036c-3.112-1.35-4.707-5.386-7.234-7.692-5.629-6.185-13.471-9.723-21.433-8.175-2.582.502-7.859,1.33-9.345,6.136-.678,2.192-4.89,6.596-1.65-10.424,2.41-12.66,7.017-37.265,7.321-38.618,2.672-11.903-.807-16.466-4.026-19.031-2.572-2.049-5.952-3.364-9.175-4.077-7.164-1.584-17.191.139-21.151,10.473ZM374.821,351.381c6.249,6.79,6.623,17.176,4.564,25.785l-.038.147c-2.599,9.757-8.496,18.984-17.133,24.553-7.102,4.579-16.613,5.25-22.978.516-3.575-2.722-1.646-4.935,1.435-6.786,16.138-9.927,21.272-25.282,22.469-43.188.897-6.685,8.339-4.697,11.681-1.027ZM344.892,324.443c2.244.846,4.149,2.451,5.734,4.236,8.978,9.747,10.433,23.567,7.503,36.097l-.04.144c-4.087,12.494-11.419,24.589-24.399,29.494-4.687,2.005-10.328,2.182-14.587-.9-1.499-1.045-2.829-2.471-3.071-3.923-.39-3.633,4.378-5.614,6.37-8.115,11.961-12.494,13.412-31.658,10.681-48.008-1.712-7.901,4.931-11.432,11.809-9.025ZM301.586,309.405c14.074-2.941,23.074,7.471,26.544,20.136,2.943,10.023,2.615,20.691.537,30.924l-.032.146c-2.43,11.26-12.206,27.656-25.645,23.696-3.607-1.156-7.867-3.81-8.894-7.58-.656-2.426.443-5.143,1.534-7.427,1.91-3.838,3.549-7.721,4.505-11.889,3.184-13.444,2.77-27.249-1.463-40.576-1.091-3.222-.932-6.487,2.912-7.431ZM296.304,253.1c.076,4.697-3.221,19.531-4.735,28.015-.829,4.647-2.074,11.092-2.431,13.161-.356,2.069-1.557,8.91-1.751,10.077s-1.129,6.78-1.926,11.658c-.796,4.878-2.499,15.31-2.499,15.31-1.698,9.349-2.473,18.837-2.067,28.383.246,2.979,4.608,2.707,4.509-.256-.369-6.793-.196-13.821.602-20.618.36-2.846,1.895-12.783,3.235-21.43,1.748,1.01,3.925,1.649,5.19,5.981,4.24,14.521,4.928,29.89-2.374,43.313l-3.011,7.353c.271,3.693.089,5.306,2.907,8.287,3.03,3.044,6.425,5.623,10.696,6.664,2.301.625,4.754.973,6.842,2.172,2.174,1.207,3.803,3.215,5.684,4.813,2.701,2.346,5.919,3.659,9.526,4.255,3.249.478,6.517,1.173,9.14,3.289,6.775,5.995,14.291,8.263,23.162,5.496,1.491-.439,2.92-.967,4.383-1.532,1.447-.522,3.361-1.369,4.636-.719l.079.043c3.127,1.684-.144,18.419-.771,21.848-3.623,17.261-11.047,34.254-25.453,45.203-19.848,15.679-43.552,16.652-69.125,7.758-9.364-3.256-14.82-8.086-21.18-15.522-25.73-28.92-26.687-38.703-67.887-45.352-6.515-1.175-14.855-2.837-17.462-9.73-3.121-9.55,4.755-19.901,13.104-24.009,23.631-11.932,59.824-6.288,81.743,6.61,12.397,7.204,23.36,18.714,30.782,31.6,1.14,1.872,4.728,8.159,6.79,4.918.615-1.881-.623-4.246-1.556-5.972-7.824-13.62-18.055-24.818-31.372-32.914-4.976-3.028-7.577-5.361-13.406-7.484-1.941-.737-2.649-1.033-2.611-3.096.049-2.629.036-6.741.135-11.144.329-14.584.644-20.604,2.418-37.986,1.002-9.817,3.361-20.048,8.128-39.835,2.802-11.629,4.504-20.846,6.674-28.68,2.14-7.727,3.152-17.173,12.786-20.314,7.404-2.413,18.332,2.208,18.465,10.386Z"/>
      </g>
    </g>
  </g>
</svg>