<?xml version="1.0" encoding="UTF-8"?>
<svg id="Layer_2" data-name="Layer 2" xmlns="http://www.w3.org/2000/svg" xmlns:xlink="http://www.w3.org/1999/xlink" viewBox="0 0 406.785 485.13">
  <defs>
    <style>
      .cls-1 {
        fill: url(#linear-gradient-2);
      }

      .cls-2 {
        fill: #231f20;
      }

      .cls-3 {
        fill: url(#linear-gradient-4);
      }

      .cls-4 {
        fill: url(#radial-gradient-5);
      }

      .cls-5 {
        fill: url(#radial-gradient);
      }

      .cls-6 {
        fill: url(#radial-gradient-3);
      }

      .cls-7 {
        fill: url(#linear-gradient-3);
      }

      .cls-8 {
        fill: url(#linear-gradient-5);
      }

      .cls-9 {
        fill: url(#linear-gradient-8);
      }

      .cls-10 {
        fill: url(#radial-gradient-2);
      }

      .cls-11 {
        fill: url(#radial-gradient-4);
      }

      .cls-12 {
        fill: url(#linear-gradient-7);
      }

      .cls-13 {
        fill: url(#linear-gradient-9);
      }

      .cls-14 {
        fill: #ce936e;
      }

      .cls-15 {
        fill: url(#linear-gradient-6);
      }

      .cls-16 {
        fill: url(#radial-gradient-6);
      }

      .cls-17 {
        fill: url(#linear-gradient);
      }

      .cls-18 {
        fill: #414042;
      }
    </style>
    <radialGradient id="radial-gradient" cx="348.243" cy="149.708" fx="348.243" fy="149.708" r="116.38" gradientTransform="translate(464.763 -163.67) rotate(77.281)" gradientUnits="userSpaceOnUse">
      <stop offset="0" stop-color="#dead87"/>
      <stop offset="1" stop-color="#fab085"/>
    </radialGradient>
    <radialGradient id="radial-gradient-2" cx="-1894.417" cy="146.48" fx="-1894.417" fy="146.48" r="124.643" gradientTransform="translate(-1753.822 -408.607) rotate(-167.281) scale(1 -1)" gradientUnits="userSpaceOnUse">
      <stop offset="0" stop-color="#dead87"/>
      <stop offset="1" stop-color="#fab085"/>
    </radialGradient>
    <radialGradient id="radial-gradient-3" cx="187.341" cy="143.696" fx="262.442" fy="-30.009" r="266.133" gradientUnits="userSpaceOnUse">
      <stop offset=".071" stop-color="#fcc397"/>
      <stop offset=".372" stop-color="#fcc397"/>
      <stop offset="1" stop-color="#fab085"/>
    </radialGradient>
    <radialGradient id="radial-gradient-4" cx="200.629" cy="107.463" fx="250.439" fy="-28.018" r="144.347" gradientUnits="userSpaceOnUse">
      <stop offset="0" stop-color="#fff" stop-opacity=".9"/>
      <stop offset=".72" stop-color="#fff" stop-opacity="0"/>
    </radialGradient>
    <linearGradient id="linear-gradient" x1="133.885" y1="142.404" x2="112.657" y2="213.053" gradientUnits="userSpaceOnUse">
      <stop offset="0" stop-color="#725341"/>
      <stop offset=".523" stop-color="#583b29"/>
      <stop offset="1" stop-color="#462a19"/>
    </linearGradient>
    <linearGradient id="linear-gradient-2" x1="-2216.2" y1="210.864" x2="-2237.429" y2="281.513" gradientTransform="translate(-1998.775 186.874) rotate(172.862) scale(1 -1)" xlink:href="#linear-gradient"/>
    <linearGradient id="linear-gradient-3" x1="-1488.959" y1="562.247" x2="-1456.536" y2="562.247" gradientTransform="translate(-2231.514 -538.45) rotate(179.487) scale(1.544 -1.271) skewX(.935)" xlink:href="#linear-gradient"/>
    <linearGradient id="linear-gradient-4" x1="113.205" y1="544.808" x2="145.628" y2="544.808" gradientTransform="translate(125.506 -538.45) rotate(.513) scale(1.544 1.271) skewX(.935)" xlink:href="#linear-gradient"/>
    <linearGradient id="linear-gradient-5" x1="195.984" y1="238.474" x2="176.329" y2="321.025" xlink:href="#linear-gradient"/>
    <linearGradient id="linear-gradient-6" x1="179.532" y1="265.358" x2="200.751" y2="179.16" gradientUnits="userSpaceOnUse">
      <stop offset="0" stop-color="#dead87"/>
      <stop offset="1" stop-color="#fab085"/>
    </linearGradient>
    <radialGradient id="radial-gradient-5" cx="-1912.067" cy="76.847" fx="-1912.067" fy="76.847" r="85.028" gradientTransform="translate(681.428 -1612.669) rotate(-75.908)" gradientUnits="userSpaceOnUse">
      <stop offset="0" stop-color="#fdd7bb"/>
      <stop offset="1" stop-color="#fab184"/>
    </radialGradient>
    <linearGradient id="linear-gradient-7" x1="-1974.616" y1="117.362" x2="-1987.88" y2="154.581" gradientTransform="translate(681.428 -1612.669) rotate(-75.908)" gradientUnits="userSpaceOnUse">
      <stop offset="0" stop-color="#fedabe"/>
      <stop offset="1" stop-color="#fab387"/>
    </linearGradient>
    <linearGradient id="linear-gradient-8" x1="-1984.136" y1="149.724" x2="-1991.263" y2="186.25" xlink:href="#linear-gradient-7"/>
    <linearGradient id="linear-gradient-9" x1="-1903.205" y1="281.883" x2="-1913.895" y2="319.002" gradientTransform="translate(543.842 -1628.085) rotate(-75.908) scale(1.038 1.127)" xlink:href="#linear-gradient-7"/>
    <radialGradient id="radial-gradient-6" cx="-2068.647" cy="12.557" fx="-2068.647" fy="12.557" r="137.492" gradientTransform="translate(681.428 -1612.669) rotate(-75.908)" gradientUnits="userSpaceOnUse">
      <stop offset="0" stop-color="#fedabe"/>
      <stop offset="1" stop-color="#fab387"/>
    </radialGradient>
  </defs>
  <g id="Bitmojis">
    <g id="Wealth_Front_Neutral">
      <ellipse class="cls-5" cx="334.746" cy="208.843" rx="46.508" ry="32.394" transform="translate(57.326 489.394) rotate(-77.281)"/>
      <ellipse class="cls-10" cx="33.226" cy="208.843" rx="32.394" ry="46.508" transform="translate(-45.166 12.44) rotate(-12.719)"/>
      <path class="cls-6" d="M344.481,198.657c0,109.715-75.586,200.35-160.514,200.35S23.452,308.373,23.452,198.657,95.316,0,183.966,0s160.514,88.942,160.514,198.657Z"/>
      <path class="cls-11" d="M344.481,198.657c0,109.715-75.586,200.35-160.514,200.35S23.452,308.373,23.452,198.657,95.316,0,183.966,0s160.514,88.942,160.514,198.657Z"/>
      <circle class="cls-2" cx="136.16" cy="188.159" r="13.844"/>
      <circle class="cls-2" cx="231.772" cy="188.159" r="13.844"/>
      <path class="cls-17" d="M102.955,168.642c16.912-5.489,34.565-6.213,51.815-1.816,11.098,2.829,15.832-14.322,4.729-17.153-20.191-5.147-41.433-4.623-61.273,1.816-10.843,3.519-6.204,20.701,4.729,17.153h0Z"/>
      <path class="cls-1" d="M260.402,142.902c-17.463-3.344-35.069-1.87-51.639,4.637-10.66,4.186-17.489-12.244-6.824-16.432,19.395-7.616,40.538-9.736,61.024-5.812,11.196,2.144,8.728,19.769-2.561,17.607h0Z"/>
      <path class="cls-7" d="M54.036,168.942c-2.98,18.56-2.453,37.286-9.512,45.843-7.059,8.557-25.335,6.004-28.335-9.192-1.862-9.431-2.368-23.587-1.618-35.022,1.142-17.425,4.195-36.963,12.957-63.106,7.853-23.433,41.243-19.422,37.245,2.684-4.577,25.309-6.543,32.676-10.736,58.793Z"/>
      <path class="cls-3" d="M313.886,168.942c2.98,18.56,2.453,37.286,9.512,45.843,7.059,8.557,25.335,6.004,28.335-9.192,1.862-9.431,2.368-23.587,1.618-35.022-1.142-17.425-4.195-36.963-12.957-63.106-7.853-23.433-41.243-19.422-37.245,2.684,4.577,25.309,6.543,32.676,10.736,58.793Z"/>
      <path class="cls-18" d="M228.073,312.342c-29.275-7.829-59.702-10.738-89.913-8.271-9.554.78-9.638,15.787,0,15,28.968-2.366,57.85.226,85.926,7.735,9.336,2.497,13.319-11.969,3.988-14.464h0Z"/>
      <path class="cls-8" d="M183.966,241.465c-40.252,0-71.344,16.903-73.982,48.388-.171,2.037,2.065,3.551,4.199,2.809l16.579-5.767c1.49-.518,3.178.065,3.887,1.344l8.126,14.645c.947,1.707,3.507,2.061,4.989.689l13.357-12.364c1.22-1.129,3.25-1.123,4.461.015l16.145,15.168c1.217,1.143,3.26,1.143,4.477,0l16.145-15.168c1.211-1.137,3.241-1.144,4.461-.015l13.357,12.364c1.482,1.372,4.041,1.019,4.989-.689l8.126-14.645c.71-1.279,2.397-1.862,3.887-1.344l16.58,5.767c2.134.742,4.37-.772,4.199-2.809-2.638-31.485-33.73-48.388-73.982-48.388Z"/>
      <path class="cls-15" d="M209.632,258.296c-10.113,2.22-14.897,7.21-25.669,7.21s-15.556-4.99-25.669-7.21c-14.86-3.25-16.176-16.33-1.342-23.7,9.835-4.9,8.354-7.53,9.657-20.48.987-9.88,1.671-14.75,2.848-26.59.418-4.2,3.139-8.14,7.645-10.4,1.936-.97,4.24-1.65,6.86-1.65s4.924.68,6.873,1.65c4.493,2.26,7.215,6.2,7.632,10.4,1.177,11.84,1.873,16.71,2.861,26.59,1.291,12.95-.19,15.58,9.657,20.48,14.821,7.37,13.518,20.45-1.354,23.7Z"/>
    </g>
    <g id="Hand3_Point">
      <polygon class="cls-4" points="264.563 375.524 265.988 356.735 269.719 325.527 288.473 242.438 299.823 234.86 312.675 235.532 319.804 242.28 309.437 305.011 318.798 314.001 354.73 391.478 383.467 395.328 391.103 394.568 388.974 424.188 380.35 447.333 367.135 465.652 342.755 481.46 324.481 482.703 264.563 375.524"/>
      <path class="cls-12" d="M352.296,354.694c2.446-13.081,2.223-26.201-4.485-38.967-4.45-8.468-11.755-14.183-22.889-14.427-1.936-.043-3.895.398-5.743.864-2.569.647-3.278,2.078-2.251,4.556,6.226,15.013,7.084,30.095,3.48,45.04-1.052,4.361-3.076,8.584-5.374,12.515-2.777,4.751-1.416,8.835,5.014,12.377,8.244,4.542,16.321,3.087,23.005-4.21,4.724-5.158,7.858-11.041,9.244-17.746Z"/>
      <path class="cls-9" d="M382.607,359.1c1.441-10.321,2.135-20.438-3.428-30.367-2.127-3.796-5.112-7.443-8.431-10.596-4.514-4.289-12.064-5.043-17.064-1.778-1.513.988-2.469,3.802-2.004,5.555,2.792,10.523,3.293,20.947,1.35,31.215-2.155,11.389-7.497,21.247-18.573,27.89-2.146,1.287-2.176,2.729-.551,4.633,4.026,4.718,10.967,7.044,17.105,5.461,11.481-2.961,19.6-9.424,25.004-18.355,2.625-4.339,4.421-9.092,6.592-13.658Z"/>
      <path class="cls-13" d="M402.411,371.093c1.859-7.411,1.43-14.303-1.256-21.19-2.132-5.466-7.365-9.586-12.257-9.749-3.057-.102-4.427.849-4.631,3.846-.403,5.908-.709,11.934-2.254,17.59-3.477,12.733-11.284,22.846-24.054,29.269-3.211,1.615-2.679,2.741-.366,4.728,6.845,5.878,18.651,6.033,27.291.261,9.442-6.308,14.75-15.071,17.526-24.754Z"/>
      <path class="cls-16" d="M315.957,424.309c-2.568-4.71-5.489-9.219-8.628-13.568-15.36-21.276-36.588-33.203-62.926-36.897-13.449-1.886-26.805-2.272-39.782,1.755-9.787,3.037-18.156,7.966-21.853,17.874-3.321,8.9.54,16.121,10.144,18.623,5.423,1.413,11.034,2.093,16.527,3.261,4.445.945,8.873,2.014,13.254,3.222,13.319,3.671,23.001,12.08,31.442,22.312,7.412,8.985,14.966,17.902,23.066,26.31,3.275,3.399,7.89,6.005,12.371,7.877,17.023,7.113,33.754,9.636,49.849,5.546,0,0-4.644-13.591-6.52-17.993-5.945-13.949-12.954-31.008-16.942-38.321Z"/>
      <path class="cls-14" d="M286.464,241.962c-5.889,15.371-14.128,52.644-16.956,64.457-4.709,19.677-6.097,38.238-5.712,52.374-.041,3.063-.023,6.169-.052,9.271-.028,1.356-.193,2.562-.718,3.369-.687,1.235-2.568,1.508-4.21,1.381-2.182-.132-14.187-2.522-16.423-2.764-19.317-2.655-44.573-.995-57.575,15.329-2.059,2.597-3.868,5.605-4.804,8.699-2.153,6.319.314,14.831,5.433,19.137,2.393,2.094,5.544,3.256,8.624,4.022,7.355,1.791,14.694,3.217,22.038,4.948,9.579,2.237,18.285,6.745,26.24,12.386,5.133,3.729,8.777,8.495,12.581,13.301,4.313,5.435,9.147,10.593,13.875,15.72,9.522,10.908,22.61,17.279,36.821,19.905,4.73.944,8.933,1.257,13.727,1.539,28.558,1.509,55.462-15.79,66.426-41.767,5.529-13.21,8.864-27.659,8.423-42.11-.804-7.905,1.76-9.842,5.805-15.875,6.774-10.879,8.766-23.538,4.626-35.971-5.462-15.661-15.215-9.291-20.626-16.612-5.801-9.297-8.28-19.638-21.185-20.275-3.175-.453-6.633,1.676-9.556.976l-.111-.036c-3.112-1.35-4.707-5.386-7.234-7.692-5.629-6.185-13.471-9.723-21.433-8.175-2.582.502-7.859,1.33-9.345,6.136-.678,2.192-4.89,6.596-1.65-10.424,2.41-12.66,7.017-37.265,7.321-38.618,2.672-11.903-.807-16.466-4.026-19.031-2.572-2.049-5.952-3.364-9.175-4.077-7.164-1.584-17.191.139-21.151,10.473ZM396.074,344.843c6.249,6.79,6.623,17.176,4.564,25.785l-.038.147c-2.599,9.757-8.496,18.984-17.133,24.553-7.102,4.579-16.613,5.25-22.978.516-3.575-2.722-1.646-4.935,1.435-6.786,16.138-9.927,21.272-25.282,22.469-43.188.897-6.685,8.339-4.697,11.681-1.027ZM366.144,317.905c2.244.846,4.149,2.451,5.734,4.236,8.978,9.747,10.433,23.567,7.503,36.097l-.04.144c-4.087,12.494-11.419,24.589-24.399,29.494-4.687,2.005-10.328,2.182-14.587-.9-1.499-1.045-2.829-2.471-3.071-3.923-.39-3.633,4.378-5.614,6.37-8.115,11.961-12.494,13.412-31.658,10.681-48.008-1.712-7.901,4.931-11.432,11.809-9.025ZM322.839,302.867c14.074-2.941,23.074,7.471,26.544,20.136,2.943,10.023,2.615,20.691.537,30.924l-.032.146c-2.43,11.26-12.206,27.656-25.645,23.696-3.607-1.156-7.867-3.81-8.894-7.58-.656-2.426.443-5.143,1.534-7.427,1.91-3.838,3.549-7.721,4.505-11.889,3.184-13.444,2.77-27.249-1.463-40.576-1.091-3.222-.932-6.487,2.912-7.431ZM317.556,246.562c.076,4.697-3.221,19.531-4.735,28.015-.829,4.647-2.074,11.092-2.431,13.161-.356,2.069-1.557,8.91-1.751,10.077s-1.129,6.78-1.926,11.658c-.796,4.878-2.499,15.31-2.499,15.31-1.698,9.349-2.473,18.837-2.067,28.383.246,2.979,4.608,2.707,4.509-.256-.369-6.793-.196-13.821.602-20.618.36-2.846,1.895-12.783,3.235-21.43,1.748,1.01,3.925,1.649,5.19,5.981,4.24,14.521,4.928,29.89-2.374,43.313l-3.011,7.353c.271,3.693.089,5.306,2.907,8.287,3.03,3.044,6.425,5.623,10.696,6.664,2.301.625,4.754.973,6.842,2.172,2.174,1.207,3.803,3.215,5.684,4.813,2.701,2.346,5.919,3.659,9.526,4.255,3.249.478,6.517,1.173,9.14,3.289,6.775,5.995,14.291,8.263,23.162,5.496,1.491-.439,2.92-.967,4.383-1.532,1.447-.522,3.361-1.369,4.636-.719l.079.043c3.127,1.684-.144,18.419-.771,21.848-3.623,17.261-11.047,34.254-25.453,45.203-19.848,15.679-43.552,16.652-69.125,7.758-9.364-3.256-14.82-8.086-21.18-15.522-25.73-28.92-26.687-38.703-67.887-45.352-6.515-1.175-14.855-2.837-17.462-9.73-3.121-9.55,4.755-19.901,13.104-24.009,23.631-11.932,59.824-6.288,81.743,6.61,12.397,7.204,23.36,18.714,30.782,31.6,1.14,1.872,4.728,8.159,6.79,4.918.615-1.881-.623-4.246-1.556-5.972-7.824-13.62-18.055-24.818-31.372-32.914-4.976-3.028-7.577-5.361-13.406-7.484-1.941-.737-2.649-1.033-2.611-3.096.049-2.629.036-6.741.135-11.144.329-14.584.644-20.604,2.418-37.986,1.002-9.817,3.361-20.048,8.128-39.835,2.802-11.629,4.504-20.846,6.674-28.68,2.14-7.727,3.152-17.173,12.786-20.314,7.404-2.413,18.332,2.208,18.465,10.386Z"/>
    </g>
  </g>
</svg>