<?xml version="1.0" encoding="UTF-8"?>
<svg id="Layer_2" data-name="Layer 2" xmlns="http://www.w3.org/2000/svg" xmlns:xlink="http://www.w3.org/1999/xlink" viewBox="0 0 461.541 490.388">
  <defs>
    <style>
      .cls-1 {
        fill: url(#linear-gradient-2);
      }

      .cls-2 {
        fill: url(#linear-gradient-10);
      }

      .cls-3 {
        fill: #231f20;
      }

      .cls-4 {
        fill: url(#linear-gradient-4);
      }

      .cls-5 {
        fill: url(#radial-gradient-5);
      }

      .cls-6 {
        fill: url(#radial-gradient);
      }

      .cls-7 {
        fill: url(#radial-gradient-3);
      }

      .cls-8 {
        fill: url(#linear-gradient-3);
      }

      .cls-9 {
        fill: url(#linear-gradient-5);
      }

      .cls-10 {
        fill: url(#linear-gradient-8);
      }

      .cls-11 {
        fill: url(#radial-gradient-2);
      }

      .cls-12 {
        fill: url(#radial-gradient-4);
      }

      .cls-13 {
        fill: url(#linear-gradient-7);
      }

      .cls-14 {
        fill: url(#linear-gradient-9);
      }

      .cls-15 {
        fill: #ce936e;
      }

      .cls-16 {
        fill: url(#linear-gradient-6);
      }

      .cls-17 {
        fill: url(#radial-gradient-6);
      }

      .cls-18 {
        fill: url(#linear-gradient);
      }

      .cls-19 {
        fill: #414042;
      }
    </style>
    <radialGradient id="radial-gradient" cx="348.243" cy="149.708" fx="348.243" fy="149.708" r="116.38" gradientTransform="translate(464.763 -163.67) rotate(77.281)" gradientUnits="userSpaceOnUse">
      <stop offset="0" stop-color="#dead87"/>
      <stop offset="1" stop-color="#fab085"/>
    </radialGradient>
    <radialGradient id="radial-gradient-2" cx="-1270.507" cy="146.48" fx="-1270.507" fy="146.48" r="124.643" gradientTransform="translate(-1145.222 -271.24) rotate(-167.281) scale(1 -1)" gradientUnits="userSpaceOnUse">
      <stop offset="0" stop-color="#dead87"/>
      <stop offset="1" stop-color="#fab085"/>
    </radialGradient>
    <radialGradient id="radial-gradient-3" cx="187.341" cy="143.696" fx="262.442" fy="-30.009" r="266.133" gradientUnits="userSpaceOnUse">
      <stop offset=".071" stop-color="#fcc397"/>
      <stop offset=".372" stop-color="#fcc397"/>
      <stop offset="1" stop-color="#fab085"/>
    </radialGradient>
    <radialGradient id="radial-gradient-4" cx="200.629" cy="107.463" fx="250.439" fy="-28.018" r="144.347" gradientUnits="userSpaceOnUse">
      <stop offset="0" stop-color="#fff" stop-opacity=".9"/>
      <stop offset=".72" stop-color="#fff" stop-opacity="0"/>
    </radialGradient>
    <linearGradient id="linear-gradient" x1="245.026" y1="178.085" x2="223.797" y2="248.734" gradientTransform="translate(-52.119 -79.174) rotate(15)" gradientUnits="userSpaceOnUse">
      <stop offset="0" stop-color="#725341"/>
      <stop offset=".523" stop-color="#583b29"/>
      <stop offset="1" stop-color="#462a19"/>
    </linearGradient>
    <linearGradient id="linear-gradient-2" x1="-1284.363" y1="102.765" x2="-1305.592" y2="173.415" gradientTransform="translate(-1038.884 390.828) rotate(165) scale(1 -1)" xlink:href="#linear-gradient"/>
    <linearGradient id="linear-gradient-3" x1="195.984" y1="238.474" x2="176.329" y2="321.025" gradientTransform="matrix(1,0,0,1,0,0)" xlink:href="#linear-gradient"/>
    <linearGradient id="linear-gradient-4" x1="179.532" y1="265.358" x2="200.751" y2="179.16" gradientUnits="userSpaceOnUse">
      <stop offset="0" stop-color="#dead87"/>
      <stop offset="1" stop-color="#fab085"/>
    </linearGradient>
    <linearGradient id="linear-gradient-5" x1="-989.946" y1="107.655" x2="-957.523" y2="107.655" gradientTransform="translate(-1467.191 32.353) rotate(179.487) scale(1.544 -1.271) skewX(.935)" xlink:href="#linear-gradient"/>
    <linearGradient id="linear-gradient-6" x1="208.162" y1="94.613" x2="240.585" y2="94.613" gradientTransform="translate(-14.907 32.353) rotate(.513) scale(1.544 1.271) skewX(.935)" xlink:href="#linear-gradient"/>
    <radialGradient id="radial-gradient-5" cx="-2333.849" cy="-1165.9" fx="-2333.849" fy="-1165.9" r="87.292" gradientTransform="translate(2727.934 -776.249) rotate(-.758) scale(1 -1)" gradientUnits="userSpaceOnUse">
      <stop offset="0" stop-color="#fdd7bb"/>
      <stop offset="1" stop-color="#fab184"/>
    </radialGradient>
    <linearGradient id="linear-gradient-7" x1="-2318.894" y1="-1119.692" x2="-2332.158" y2="-1082.474" gradientTransform="translate(2727.934 -776.249) rotate(-.758) scale(1 -1)" gradientUnits="userSpaceOnUse">
      <stop offset="0" stop-color="#fedabe"/>
      <stop offset="1" stop-color="#fab387"/>
    </linearGradient>
    <linearGradient id="linear-gradient-8" x1="-2328.415" y1="-1087.331" x2="-2335.542" y2="-1050.805" xlink:href="#linear-gradient-7"/>
    <linearGradient id="linear-gradient-9" x1="-2190.301" y1="-859.655" x2="-2200.991" y2="-822.535" gradientTransform="translate(2685.307 -709.427) rotate(-.758) scale(1.048 -1.152)" xlink:href="#linear-gradient-7"/>
    <radialGradient id="radial-gradient-6" cx="-2412.925" cy="-1224.498" fx="-2412.925" fy="-1224.498" r="137.492" gradientTransform="translate(2727.934 -776.249) rotate(-.758) scale(1 -1)" gradientUnits="userSpaceOnUse">
      <stop offset="0" stop-color="#fedabe"/>
      <stop offset="1" stop-color="#fab387"/>
    </radialGradient>
    <linearGradient id="linear-gradient-10" x1="-2313.013" y1="-1167.757" x2="-2337.66" y2="-1094.706" xlink:href="#linear-gradient-7"/>
  </defs>
  <g id="Bitmojis">
    <g id="Wealth_Front_Disapprove">
      <ellipse class="cls-6" cx="334.746" cy="208.843" rx="46.508" ry="32.394" transform="translate(57.326 489.394) rotate(-77.281)"/>
      <ellipse class="cls-11" cx="33.226" cy="208.843" rx="32.394" ry="46.508" transform="translate(-45.166 12.44) rotate(-12.719)"/>
      <path class="cls-7" d="M344.481,198.657c0,109.715-75.586,200.35-160.514,200.35S23.452,308.373,23.452,198.657,95.316,0,183.966,0s160.514,88.942,160.514,198.657Z"/>
      <path class="cls-12" d="M344.481,198.657c0,109.715-75.586,200.35-160.514,200.35S23.452,308.373,23.452,198.657,95.316,0,183.966,0s160.514,88.942,160.514,198.657Z"/>
      <circle class="cls-3" cx="136.16" cy="188.159" r="13.844"/>
      <circle class="cls-3" cx="231.772" cy="188.159" r="13.844"/>
      <path class="cls-18" d="M101.798,173.6c17.757-.924,34.995,2.944,50.52,11.657,9.987,5.605,18.999-9.737,9.007-15.344-18.171-10.198-38.825-15.189-59.655-14.105-11.384.593-11.35,18.39.128,17.792h0Z"/>
      <path class="cls-1" d="M264.98,175.013c-17.757-.924-34.995,2.944-50.52,11.657-9.987,5.605-18.999-9.737-9.007-15.344,18.171-10.198,38.825-15.189,59.655-14.105,11.384.593,11.35,18.39-.128,17.792h0Z"/>
      <path class="cls-8" d="M183.966,241.465c-40.252,0-71.344,16.903-73.982,48.388-.171,2.037,2.065,3.551,4.199,2.809l16.579-5.767c1.49-.518,3.178.065,3.887,1.344l8.126,14.645c.947,1.707,3.507,2.061,4.989.689l13.357-12.364c1.22-1.129,3.25-1.123,4.461.015l16.145,15.168c1.217,1.143,3.26,1.143,4.477,0l16.145-15.168c1.211-1.137,3.241-1.144,4.461-.015l13.357,12.364c1.482,1.372,4.041,1.019,4.989-.689l8.126-14.645c.71-1.279,2.397-1.862,3.887-1.344l16.58,5.767c2.134.742,4.37-.772,4.199-2.809-2.638-31.485-33.73-48.388-73.982-48.388Z"/>
      <path class="cls-4" d="M209.632,258.296c-10.113,2.22-14.897,7.21-25.669,7.21s-15.556-4.99-25.669-7.21c-14.86-3.25-16.176-16.33-1.342-23.7,9.835-4.9,8.354-7.53,9.657-20.48.987-9.88,1.671-14.75,2.848-26.59.418-4.2,3.139-8.14,7.645-10.4,1.936-.97,4.24-1.65,6.86-1.65s4.924.68,6.873,1.65c4.493,2.26,7.215,6.2,7.632,10.4,1.177,11.84,1.873,16.71,2.861,26.59,1.291,12.95-.19,15.58,9.657,20.48,14.821,7.37,13.518,20.45-1.354,23.7Z"/>
      <path class="cls-9" d="M54.036,168.942c-2.98,18.56-2.453,37.286-9.512,45.843s-25.335,6.004-28.335-9.192c-1.862-9.431-2.368-23.587-1.618-35.022,1.142-17.425,4.195-36.963,12.957-63.106,7.853-23.433,41.243-19.422,37.245,2.684-4.577,25.309-6.543,32.676-10.736,58.793Z"/>
      <path class="cls-16" d="M313.886,168.942c2.98,18.56,2.453,37.286,9.512,45.843,7.059,8.557,25.335,6.004,28.335-9.192,1.862-9.431,2.368-23.587,1.618-35.022-1.142-17.425-4.195-36.963-12.957-63.106-7.853-23.433-41.243-19.422-37.245,2.684,4.577,25.309,6.543,32.676,10.736,58.793Z"/>
      <path class="cls-19" d="M199.335,148.395c-5.244,5.566-7.427,13.849-6.742,21.355.119,1.299,1.065,2.564,2.5,2.5,1.253-.056,2.627-1.105,2.5-2.5-.163-1.782-.158-3.573.018-5.354.02-.205.045-.409.068-.613.037-.29.034-.272-.009.054.014-.101.03-.203.045-.304.067-.437.145-.873.233-1.306.174-.858.387-1.708.641-2.546.246-.811.5-1.658.864-2.425-.268.565.019-.035.057-.119.079-.176.161-.352.245-.526.193-.403.398-.8.614-1.19.391-.708.821-1.395,1.291-2.053.105-.147.205-.307.325-.441-.429.478-.014.025.058-.062.264-.321.541-.631.827-.934.897-.952,1.015-2.604,0-3.536-.974-.894-2.578-1.017-3.536,0h0Z"/>
      <path class="cls-19" d="M165.102,151.931c.285.303.562.613.827.934l.114.14c.169.214.151.188-.056-.078-.009.022.305.414.325.441.471.658.9,1.345,1.291,2.053.201.363.391.731.572,1.104.098.203.194.407.287.613.056.125.316.664.057.119.364.767.619,1.614.864,2.425.253.838.467,1.688.641,2.546.081.4.153.802.217,1.205.021.135.042.27.061.405-.038-.292-.045-.344-.021-.156.027.238.057.476.08.715.177,1.781.181,3.573.018,5.354-.119,1.306,1.235,2.557,2.5,2.5,1.456-.065,2.372-1.101,2.5-2.5.686-7.506-1.497-15.79-6.742-21.355-.899-.954-2.641-.975-3.536,0-.939,1.022-.959,2.518,0,3.536h0Z"/>
      <path class="cls-19" d="M234.448,316.063c-29.556-21.08-73.808-21.788-102.481,1.173-3.187,2.552-2.611,7.938,0,10.607,3.09,3.159,7.462,2.518,10.607,0,23.575-18.879,60.735-15.637,84.304,1.173,7.873,5.615,15.372-7.388,7.571-12.952h0Z"/>
    </g>
    <g id="Hand1_ThumbsDown">
      <polygon class="cls-5" points="368.2 420.395 387.816 425.283 419.065 426.849 428.338 423.163 421.804 390.384 392.276 373.351 374.584 320.921 377.464 292.071 379.966 284.816 350.653 280.056 326.143 283.11 305.27 291.743 284.265 311.82 278.841 329.315 368.2 420.395"/>
      <path class="cls-13" d="M409.814,331.773c13.292.636,26.008,3.88,36.882,13.351,7.214,6.283,11.089,14.709,8.76,25.6-.405,1.893-1.286,3.698-2.165,5.389-1.222,2.351-2.778,2.71-4.952,1.139-13.172-9.52-27.65-13.834-43.023-13.774-4.486.018-9.062,1.013-13.417,2.343-5.263,1.606-8.923-.66-10.887-7.733-2.518-9.07.761-16.593,9.402-21.413,6.109-3.407,12.556-5.099,19.4-4.902Z"/>
      <path class="cls-10" d="M412.518,301.262c10.375.979,20.38,2.637,28.757,10.339,3.203,2.945,6.063,6.691,8.366,10.648,3.132,5.381,2.125,12.902-2.206,17.014-1.31,1.245-4.268,1.526-5.867.668-9.595-5.144-19.623-8.036-30.062-8.513-11.579-.53-22.403,2.394-31.422,11.64-1.747,1.791-3.157,1.488-4.635-.532-3.662-5.005-4.325-12.296-1.369-17.903,5.529-10.489,13.69-16.898,23.627-20.096,4.827-1.554,9.867-2.205,14.81-3.264Z"/>
      <path class="cls-14" d="M405.454,278.783c7.711-.101,14.38,1.952,20.52,6.248,4.873,3.41,7.702,9.587,6.724,14.49-.611,3.064-1.864,4.202-4.855,3.698-5.896-.993-11.886-2.11-17.8-1.908-13.314.454-25.063,5.833-34.341,17.019-2.333,2.813-3.316,2.018-4.729-.752-4.181-8.195-1.587-19.973,6.092-27.204,8.391-7.903,18.233-11.115,28.389-11.592Z"/>
      <path class="cls-17" d="M333.695,351.077c3.991,3.585,7.705,7.467,11.212,11.525,17.16,19.853,23.869,43.26,21.39,69.74-1.266,13.521-3.971,26.607-10.883,38.305-5.213,8.823-11.939,15.829-22.432,17.142-9.426,1.179-15.562-4.243-15.781-14.165-.124-5.603.508-11.219.639-16.834.106-4.543.087-9.098-.078-13.64-.501-13.806-6.449-25.167-14.459-35.74-7.033-9.284-13.968-18.691-20.281-28.512-2.552-3.971-4.024-9.062-4.812-13.854-2.995-18.205-1.591-35.067,6.101-49.784,0,0,12.154,7.654,16.004,10.494,12.202,9.002,27.185,19.757,33.381,25.323Z"/>
      <path class="cls-2" d="M416.9,413.699c1.306.281,3.875-.662,4.164-1.645.844-2.867-1.743-2.468-3.288-2.899-11.479-3.204-22.312-7.848-31.384-16.53-11.044-10.569-4.39-20.009,4.688-24.141,7.384-3.361,15.096-3.2,22.67-2.204,12.738,1.675,24.959,5.461,35.317,14.36,8.897,7.644,9.864,18.079,2.502,27.475-7.695,9.822-18.152,14.026-29.306,16.713"/>
      <path class="cls-15" d="M450.214,340.35c-.008-3.006,2.862-5.88,3.154-9.073,2.356-12.704-7.135-17.501-14.843-25.29-5.876-6.953,2.572-14.974-11.407-23.901-11.143-6.896-23.92-7.876-36.068-3.794-6.803,2.544-9.279,4.593-16.786,1.988-13.959-3.762-28.789-3.849-42.918-1.516-27.805,4.677-50.843,26.867-55.961,55.003-.831,4.73-1.496,8.892-1.668,13.712-.722,14.434,2.459,28.638,10.877,40.419,3.899,5.783,7.803,11.677,12.096,17.127,3.799,4.81,7.597,9.455,10.042,15.31,3.654,9.041,6.032,18.552,6,28.389-.009,7.545-.314,15.015-.268,22.585.035,3.174.439,6.508,1.924,9.319,3.01,5.974,10.723,10.338,17.368,9.7,3.227-.196,6.571-1.263,9.572-2.668,18.883-8.887,26.322-33.079,28.195-52.488.28-2.232.616-4.464.991-6.618.255-1.627.954-3.395,2.315-3.778.907-.325,2.118-.208,3.444.078,3.026.687,6.044,1.422,9.034,2.088,13.666,3.634,27.854,3.745,41.469-.323,11.746-3.096,23.085-8.444,30.057-18.782,2.465-3.612,4.507-7.654,4.693-12.07.154-3.298-.872-6.66-2.231-9.655-1.089-2.495-2.697-5.008-2.368-7.836.201-2.144,1.367-4.23,2.123-6.256,3.058-7.584,1.708-15.837-3.012-22.74-1.66-2.99-5.22-5.474-5.816-8.813l-.009-.116ZM373.569,287.234c.339,1.39-.928,3.057-1.769,4.345-.887,1.294-1.73,2.563-2.502,3.912-4.738,7.994-4.265,15.83.006,23.805,1.454,3.04,1.376,6.381,1.092,9.652-.252,3.647.283,7.082,1.943,10.251,1.121,2.199,2.7,4.247,3.373,6.641.685,2.308.458,4.775.536,7.158.028,4.397,1.754,8.294,4.017,11.945,2.25,3.43.765,6.488-1.176,9.642-4.444,7.368-.682,15.39,4.937,20.784,6.409,6.419,14.43,10.314,22.706,13.559,3.396,1.051,10.344,4.36,13.2,1.402.869-2.018-2.753-2.8-4.324-3.304-11.118-3.248-22.442-8.096-30.269-17.022-8.174-9.39-.613-18.554,10.168-21.555,14.746-4.009,37.368,1.242,49.77,9.904,15.579,10.234,13.058,24.409-.676,34.743-7.167,5.356-15.835,8.077-24.53,9.829-14.365,2.8-28.467,1.197-42.347-3.288-3.103-1.023-6.336-2.418-7.567-5.648-.793-1.905-1.062-4.086-1.332-6.144-.722-6.161-1.954-11.942-3.753-17.482-4.806-14.825-13.343-27.363-24.791-38.117-1.465-1.306-3.48-3.056-5.452-2.891-3.629,1.258,1.662,6.201,3.22,7.741,10.826,10.193,19.498,23.516,23.648,37.24,7.494,24.303,4.64,60.823-12.421,81.064-5.924,7.177-17.812,12.453-26.384,7.213-6.106-4.127-5.8-12.625-5.44-19.235,3.032-41.622-6.267-44.81-28.473-76.516-5.768-7.904-9.209-14.327-10.219-24.189-2.756-26.935,3.658-49.775,23.491-65.472,13.977-11.493,32.223-14.798,49.855-14.342,3.481.181,20.519.857,21.437,4.289l.024.087ZM410.012,334.261c10.436.339,20.892,2.48,29.966,7.655,11.523,6.298,19.579,17.456,13.471,30.473-1.805,3.523-5.019,2.925-7.902,1.12-11.992-7.192-25.329-10.779-39.145-10.781-4.277-.031-8.432.669-12.608,1.642-2.474.535-5.371.977-7.581-.22-3.431-1.868-5.032-6.626-5.324-10.402-.754-13.99,17.455-19.721,28.972-19.489l.15.003ZM412.612,304.6c12.868.04,25.98,4.642,33.393,15.626,1.372,1.954,2.494,4.178,2.8,6.556.756,7.247-4.212,12.897-11.505,9.409-15.279-6.428-34.262-9.436-49.178-.679-2.892,1.361-5.92,5.544-9.365,4.326-1.357-.571-2.437-2.193-3.108-3.893-2.017-4.855-.544-10.303,2.488-14.401,7.767-11.499,21.227-15.844,34.327-16.939l.149-.006ZM405.459,281.06c8.853-.018,18.872,2.741,24.038,10.388,2.801,4.098,3.018,11.798-3.693,11.129-17.7-2.965-33.825-1.511-47.207,11.903-2.512,2.57-5.11,3.937-6.934-.169-3.138-7.286-.292-16.385,5.801-22.24,7.411-7.12,17.749-10.729,27.843-11.008l.151-.003Z"/>
    </g>
  </g>
</svg>