<?xml version="1.0" encoding="UTF-8"?>
<svg id="Layer_2" data-name="Layer 2" xmlns="http://www.w3.org/2000/svg" xmlns:xlink="http://www.w3.org/1999/xlink" viewBox="0 0 367.027 404.161">
  <defs>
    <style>
      .cls-1 {
        fill: url(#linear-gradient-2);
      }

      .cls-2 {
        fill: url(#linear-gradient-4);
      }

      .cls-3 {
        fill: url(#radial-gradient-5);
      }

      .cls-4 {
        fill: url(#radial-gradient);
      }

      .cls-5 {
        fill: url(#radial-gradient-3);
      }

      .cls-6 {
        fill: url(#linear-gradient-3);
      }

      .cls-7 {
        fill: url(#linear-gradient-5);
      }

      .cls-8 {
        fill: url(#radial-gradient-2);
      }

      .cls-9 {
        fill: url(#radial-gradient-4);
      }

      .cls-10 {
        fill: url(#linear-gradient-7);
      }

      .cls-11 {
        fill: url(#linear-gradient-6);
      }

      .cls-12 {
        fill: url(#radial-gradient-6);
      }

      .cls-13 {
        fill: url(#linear-gradient);
      }
    </style>
    <radialGradient id="radial-gradient" cx="348.796" cy="154.197" fx="348.796" fy="154.197" r="107.545" gradientTransform="translate(465.993 -165.208) rotate(77.281)" gradientUnits="userSpaceOnUse">
      <stop offset="0" stop-color="#dead87"/>
      <stop offset="1" stop-color="#fab085"/>
    </radialGradient>
    <radialGradient id="radial-gradient-2" cx="188.918" cy="145.552" fx="264.723" fy="-29.783" r="268.63" gradientUnits="userSpaceOnUse">
      <stop offset=".071" stop-color="#fcc397"/>
      <stop offset=".372" stop-color="#fcc397"/>
      <stop offset="1" stop-color="#fab085"/>
    </radialGradient>
    <radialGradient id="radial-gradient-3" cx="202.206" cy="108.851" fx="252.533" fy="-28.039" r="145.848" gradientUnits="userSpaceOnUse">
      <stop offset="0" stop-color="#fff" stop-opacity=".9"/>
      <stop offset=".72" stop-color="#fff" stop-opacity="0"/>
    </radialGradient>
    <linearGradient id="linear-gradient" x1="228.163" y1="294.513" x2="97.729" y2="261.122" gradientTransform="translate(33.717 40.553) rotate(-2.297)" gradientUnits="userSpaceOnUse">
      <stop offset="0" stop-color="#fff"/>
      <stop offset="1" stop-color="#d1d3d4"/>
    </linearGradient>
    <linearGradient id="linear-gradient-2" x1="233.249" y1="238.474" x2="213.594" y2="321.025" gradientUnits="userSpaceOnUse">
      <stop offset="0" stop-color="#725341"/>
      <stop offset=".523" stop-color="#583b29"/>
      <stop offset="1" stop-color="#462a19"/>
    </linearGradient>
    <linearGradient id="linear-gradient-3" x1="65.899" y1="128.961" x2="-23.709" y2="287.344" xlink:href="#linear-gradient-2"/>
    <linearGradient id="linear-gradient-4" x1="145.93" y1="-50.031" x2="124.702" y2="20.618" gradientTransform="translate(35.57 175.172)" xlink:href="#linear-gradient-2"/>
    <linearGradient id="linear-gradient-5" x1="160.476" y1="308.518" x2="140.65" y2="364.344" gradientTransform="translate(107.454 -180.625) rotate(-4.656)" xlink:href="#linear-gradient-2"/>
    <linearGradient id="linear-gradient-6" x1="-255.178" y1="-35.472" x2="-260.978" y2="-100.24" gradientTransform="translate(504.349 210.242) rotate(-21.492) scale(1 1.116)" gradientUnits="userSpaceOnUse">
      <stop offset="0" stop-color="#dead87"/>
      <stop offset="1" stop-color="#fab085"/>
    </linearGradient>
    <linearGradient id="linear-gradient-7" x1="331.209" y1="173.789" x2="357.268" y2="173.789" xlink:href="#linear-gradient-2"/>
    <radialGradient id="radial-gradient-4" cx="-554.163" cy="-145.099" fx="-540.833" fy="-180.253" r="37.596" gradientTransform="translate(667.034 156.343) rotate(-27.07) scale(1.08 1.724) skewX(-4.527)" gradientUnits="userSpaceOnUse">
      <stop offset="0" stop-color="#dead87"/>
      <stop offset="1" stop-color="#fab085"/>
    </radialGradient>
    <radialGradient id="radial-gradient-5" cx="198.532" cy="149.729" fx="198.532" fy="149.729" r="107.687" gradientUnits="userSpaceOnUse">
      <stop offset="0" stop-color="#009444"/>
      <stop offset="1" stop-color="#006838"/>
    </radialGradient>
    <radialGradient id="radial-gradient-6" cx="310.175" cy="154.03" fx="310.175" fy="154.03" r="107.687" xlink:href="#radial-gradient-5"/>
  </defs>
  <g id="Bitmojis">
    <g id="Wealth_Side_Love">
      <ellipse class="cls-4" cx="336.323" cy="208.843" rx="42.977" ry="29.935" transform="translate(58.556 490.932) rotate(-77.281)"/>
      <path class="cls-8" d="M346.057,198.657c0,109.715-24.35,232.284-153.072,200.351-113.893-28.254-167.957-90.636-167.957-200.351S96.893,0,185.543,0s160.514,88.942,160.514,198.657Z"/>
      <path class="cls-5" d="M346.057,198.657c0,109.715-24.35,232.284-153.072,200.351-113.893-28.254-167.957-90.636-167.957-200.351S96.893,0,185.543,0s160.514,88.942,160.514,198.657Z"/>
      <path class="cls-13" d="M190.454,296.307c11.135,8.921,24.165,15.541,38.3,17.607,16.4,2.345,32.906-2.533,46.564-12.339,3.978-2.897,9.578-1.976,12.411,2.05,2.531,3.589,2.008,8.414-1.032,11.39-7.046,6.912-15.298,13.002-24.664,17.485-12.256,5.984-26.585,8.702-40.402,8.204-17.739-.793-35.113-6.526-50.448-15.18-8.647-4.639-11.831-15.507-7.025-24.069,5.154-9.416,17.977-11.9,26.296-5.147h0Z"/>
      <path class="cls-1" d="M221.231,241.465c-40.252,0-71.344,16.903-73.982,48.388-.171,2.037,2.065,3.551,4.199,2.809l16.579-5.767c1.49-.518,3.178.065,3.887,1.344l8.126,14.645c.947,1.707,3.507,2.061,4.989.689l13.357-12.364c1.22-1.129,3.25-1.123,4.461.015l16.145,15.168c1.217,1.143,3.26,1.143,4.477,0l16.145-15.168c1.211-1.137,3.241-1.144,4.461-.015l13.357,12.364c1.482,1.372,4.041,1.019,4.989-.689l8.126-14.645c.71-1.279,2.397-1.862,3.887-1.344l16.58,5.767c2.134.742,4.37-.772,4.199-2.809-2.638-31.485-33.73-48.388-73.982-48.388Z"/>
      <path class="cls-6" d="M69.22,110.084c-12.537-9.382-18.529-11.058-30.978-8.141-6.497,1.522-11.241,7.595-14.295,15.27-13.01,32.686-11.921,63.048-8.64,103.751.703,8.726,4.581,16.24,10.924,17.228l2.261.352c17.599,2.74,34.454-10.611,41.481-32.932,11.34-36.017,13.127-85.141-.753-95.528Z"/>
      <path class="cls-2" d="M150.569,151.379c16.912-5.489,34.565-6.213,51.815-1.816,11.098,2.829,15.832-14.322,4.729-17.153-20.191-5.147-41.433-4.623-61.273,1.816-10.843,3.519-6.204,20.701,4.729,17.153h0Z"/>
      <path class="cls-7" d="M259.916,151.252c16.933-5.474,34.625-5.776,51.833-1.368,11.113,2.846,14.362-14.652,3.321-17.48-20.223-5.18-41.427-4.276-61.259,2.136-10.888,3.52-4.796,20.236,6.105,16.712h0Z"/>
      <path class="cls-11" d="M207.14,248.888c6.488,3.565,40.108,19.718,58.673,7.001,11.429-7.486,11.683-19.493,1.666-28.485-6.604-6.393-14.553-11.441-21.384-17.637-8.268-7.2-15.844-16.49-23.247-26.118,0,0-20.224,39.026-15.708,65.239Z"/>
      <path class="cls-10" d="M335.406,181.304c1.799,14.585,3.63,33.045,5.837,36.01,4.535,6.091,11.968,4.191,12.571-3.835.35-4.663.639-9.318.873-13.954,1.131-22.42-1.926-47.349-7.681-67.789-2.457-8.726-18.501-5.251-18.14,3.375.793,18.937,4.007,25.669,6.539,46.193Z"/>
      <path class="cls-9" d="M52.394,177.335c6.363,27.876,10.503,69.948-6.801,73.898-17.304,3.95-36.489-15.447-42.852-43.323-6.363-27.876-1.825-55.068,15.479-59.018s27.811.567,34.174,28.443Z"/>
      <path class="cls-3" d="M193.5,180.253c-2.178-1.437-4.464-2.718-6.771-3.968,1.007-6.56,1.908-13.136,2.754-19.719.208.107.418.212.622.326,1.838,1.028,5.171,3.271,5.52,4.482,4.098,14.222,26.337,8.174,22.218-6.125-3.183-11.048-14.117-19.1-25.648-22.358.443-4.484.856-8.97,1.227-13.46.128-1.546.087-2.878-.812-4.223-.739-1.106-2.118-2.12-3.453-2.341-2.648-.438-6.309,1.18-6.564,4.265-.391,4.727-.828,9.45-1.3,14.17-.824-.003-1.641.016-2.444.072-16.725,1.163-30.199,13.889-31.332,30.819-1.109,16.58,12.333,25.136,24.941,32.369-1.387,7.702-2.9,15.38-4.515,23.037-4.003-2.554-7.693-5.696-11.261-8.691-4.762-3.997-11.623-4.669-16.292,0-4.107,4.107-4.788,12.274,0,16.292,6.834,5.735,14.177,11.683,22.287,15.685-.852,3.505-1.719,7.006-2.619,10.499-.722,2.805,1.404,6.09,4.265,6.564,3.066.508,5.791-1.262,6.564-4.265.771-2.992,1.501-5.994,2.237-8.995,3.097.715,6.3,1.083,9.625.998,14.697-.377,29.607-9.177,32.456-24.488,3.22-17.299-8.027-31.925-21.705-40.946ZM174.458,169.093c-1.646-1.188-3.318-2.953-3.63-3.726-.044-.11-.22-.837-.343-1.349.13.35.023-1.191.023-1.192-.025.255-.235,1.309.005-.093.172-1.001.49-2.18.914-3.091.335-.719,2.267-2.955,3.241-3.615,1.304-.884,2.571-1.348,3.969-1.557-.679,5.279-1.393,10.554-2.176,15.819-.007.05-.016.099-.023.149-.669-.436-1.333-.879-1.98-1.346ZM190.454,220.188c-.991.852-3.521,1.961-6.233,2.396-.929.149-4.163.006-5.945-.366,1.425-6.655,2.79-13.323,4.043-20.012.099-.529.186-1.061.284-1.59,3.572,2.45,6.797,5.358,8.722,9.25,2.23,4.508,1.934,7.913-.871,10.322Z"/>
      <path class="cls-12" d="M305.143,184.554c-2.178-1.437-4.464-2.718-6.771-3.968,1.007-6.56,1.908-13.136,2.754-19.719.208.107.418.212.622.326,1.838,1.028,5.171,3.271,5.52,4.482,4.098,14.222,26.337,8.174,22.218-6.125-3.183-11.048-14.117-19.1-25.648-22.358.443-4.484.856-8.97,1.227-13.46.128-1.546.087-2.878-.812-4.223-.739-1.106-2.118-2.12-3.453-2.341-2.648-.438-6.309,1.18-6.564,4.265-.391,4.727-.828,9.45-1.3,14.17-.824-.003-1.641.016-2.444.072-16.725,1.163-30.199,13.889-31.332,30.819-1.109,16.58,12.333,25.136,24.941,32.369-1.387,7.702-2.9,15.38-4.515,23.037-4.003-2.554-7.693-5.696-11.261-8.691-4.762-3.997-11.623-4.669-16.292,0-4.107,4.107-4.788,12.274,0,16.292,6.834,5.735,14.177,11.683,22.287,15.685-.852,3.505-1.719,7.006-2.619,10.499-.722,2.805,1.404,6.09,4.265,6.564,3.066.508,5.791-1.262,6.564-4.265.771-2.992,1.501-5.994,2.237-8.995,3.097.715,6.3,1.083,9.625.998,14.697-.377,29.607-9.177,32.456-24.488,3.22-17.299-8.027-31.925-21.705-40.946ZM286.101,173.394c-1.646-1.188-3.318-2.953-3.63-3.726-.044-.11-.22-.837-.343-1.349.13.35.023-1.191.023-1.192-.025.255-.235,1.309.005-.093.172-1.001.49-2.18.914-3.091.335-.719,2.267-2.955,3.241-3.615,1.304-.884,2.571-1.348,3.969-1.557-.679,5.279-1.393,10.554-2.176,15.819-.007.05-.016.099-.023.149-.669-.436-1.333-.879-1.98-1.346ZM302.098,224.489c-.991.852-3.521,1.961-6.233,2.396-.929.149-4.163.006-5.945-.366,1.425-6.655,2.79-13.323,4.043-20.012.099-.529.186-1.061.284-1.59,3.572,2.45,6.797,5.358,8.722,9.25,2.23,4.508,1.934,7.913-.871,10.322Z"/>
    </g>
  </g>
</svg>