<?xml version="1.0" encoding="UTF-8"?>
<svg id="Layer_2" data-name="Layer 2" xmlns="http://www.w3.org/2000/svg" xmlns:xlink="http://www.w3.org/1999/xlink" viewBox="0 0 441.115 496.706">
  <defs>
    <style>
      .cls-1 {
        fill: url(#linear-gradient-2);
      }

      .cls-2 {
        fill: url(#linear-gradient-10);
      }

      .cls-3 {
        fill: #231f20;
      }

      .cls-4 {
        fill: url(#linear-gradient-4);
      }

      .cls-5 {
        fill: url(#radial-gradient-5);
      }

      .cls-6 {
        fill: url(#radial-gradient);
      }

      .cls-7 {
        fill: url(#radial-gradient-3);
      }

      .cls-8 {
        fill: url(#linear-gradient-3);
      }

      .cls-9 {
        fill: url(#linear-gradient-5);
      }

      .cls-10 {
        fill: url(#linear-gradient-8);
      }

      .cls-11 {
        fill: url(#radial-gradient-2);
      }

      .cls-12 {
        fill: url(#radial-gradient-4);
      }

      .cls-13 {
        fill: url(#linear-gradient-7);
      }

      .cls-14 {
        fill: url(#linear-gradient-9);
      }

      .cls-15 {
        fill: url(#linear-gradient-11);
      }

      .cls-16 {
        fill: #ce936e;
      }

      .cls-17 {
        fill: url(#linear-gradient-6);
      }

      .cls-18 {
        fill: url(#radial-gradient-6);
      }

      .cls-19 {
        fill: url(#linear-gradient);
      }
    </style>
    <radialGradient id="radial-gradient" cx="348.243" cy="149.708" fx="348.243" fy="149.708" r="116.38" gradientTransform="translate(464.763 -163.67) rotate(77.281)" gradientUnits="userSpaceOnUse">
      <stop offset="0" stop-color="#dead87"/>
      <stop offset="1" stop-color="#fab085"/>
    </radialGradient>
    <radialGradient id="radial-gradient-2" cx="17.95" cy="146.48" fx="17.95" fy="146.48" r="124.643" gradientTransform="translate(46.796 -2.191) rotate(12.719)" gradientUnits="userSpaceOnUse">
      <stop offset="0" stop-color="#dead87"/>
      <stop offset="1" stop-color="#fab085"/>
    </radialGradient>
    <radialGradient id="radial-gradient-3" cx="187.341" cy="143.696" fx="262.442" fy="-30.009" r="266.133" gradientUnits="userSpaceOnUse">
      <stop offset=".071" stop-color="#fcc397"/>
      <stop offset=".372" stop-color="#fcc397"/>
      <stop offset="1" stop-color="#fab085"/>
    </radialGradient>
    <radialGradient id="radial-gradient-4" cx="200.629" cy="107.463" fx="250.439" fy="-28.018" r="144.347" gradientUnits="userSpaceOnUse">
      <stop offset="0" stop-color="#fff" stop-opacity=".9"/>
      <stop offset=".72" stop-color="#fff" stop-opacity="0"/>
    </radialGradient>
    <linearGradient id="linear-gradient" x1="133.885" y1="132.404" x2="112.657" y2="203.053" gradientUnits="userSpaceOnUse">
      <stop offset="0" stop-color="#725341"/>
      <stop offset=".523" stop-color="#583b29"/>
      <stop offset="1" stop-color="#462a19"/>
    </linearGradient>
    <linearGradient id="linear-gradient-2" x1="228.679" y1="320.346" x2="105.543" y2="288.823" gradientUnits="userSpaceOnUse">
      <stop offset="0" stop-color="#fff"/>
      <stop offset="1" stop-color="#d1d3d4"/>
    </linearGradient>
    <linearGradient id="linear-gradient-3" x1="488.024" y1="132.404" x2="466.796" y2="203.053" gradientTransform="translate(722.071) rotate(-180) scale(1 -1)" xlink:href="#linear-gradient"/>
    <linearGradient id="linear-gradient-4" x1="195.984" y1="238.474" x2="176.329" y2="321.025" xlink:href="#linear-gradient"/>
    <linearGradient id="linear-gradient-5" x1="179.532" y1="265.358" x2="200.751" y2="179.16" gradientUnits="userSpaceOnUse">
      <stop offset="0" stop-color="#dead87"/>
      <stop offset="1" stop-color="#fab085"/>
    </linearGradient>
    <linearGradient id="linear-gradient-6" x1="553.55" y1="101.051" x2="585.973" y2="101.051" gradientTransform="translate(916.29 19.395) rotate(179.487) scale(1.544 -1.271) skewX(.935)" xlink:href="#linear-gradient"/>
    <linearGradient id="linear-gradient-7" x1="538.274" y1="101.217" x2="570.697" y2="101.217" gradientTransform="translate(-524.78 19.395) rotate(.513) scale(1.544 1.271) skewX(.935)" xlink:href="#linear-gradient"/>
    <radialGradient id="radial-gradient-5" cx="-2313.151" cy="1862.553" fx="-2313.151" fy="1862.553" r="87.292" gradientTransform="translate(3079.267 -916.536) rotate(13.477)" gradientUnits="userSpaceOnUse">
      <stop offset="0" stop-color="#fdd7bb"/>
      <stop offset="1" stop-color="#fab184"/>
    </radialGradient>
    <linearGradient id="linear-gradient-8" x1="-2298.196" y1="1908.76" x2="-2311.46" y2="1945.979" gradientTransform="translate(3079.267 -916.536) rotate(13.477)" gradientUnits="userSpaceOnUse">
      <stop offset="0" stop-color="#fedabe"/>
      <stop offset="1" stop-color="#fab387"/>
    </linearGradient>
    <linearGradient id="linear-gradient-9" x1="-2307.717" y1="1941.122" x2="-2314.844" y2="1977.648" xlink:href="#linear-gradient-8"/>
    <linearGradient id="linear-gradient-10" x1="-2127.592" y1="1768.691" x2="-2138.282" y2="1805.81" gradientTransform="translate(3008.612 -1001.597) rotate(13.477) scale(1.048 1.152)" xlink:href="#linear-gradient-8"/>
    <radialGradient id="radial-gradient-6" cx="-2392.227" cy="1803.955" fx="-2392.227" fy="1803.955" r="137.492" gradientTransform="translate(3079.267 -916.536) rotate(13.477)" gradientUnits="userSpaceOnUse">
      <stop offset="0" stop-color="#fedabe"/>
      <stop offset="1" stop-color="#fab387"/>
    </radialGradient>
    <linearGradient id="linear-gradient-11" x1="-2292.315" y1="1860.696" x2="-2316.963" y2="1933.747" xlink:href="#linear-gradient-8"/>
  </defs>
  <g id="Bitmojis">
    <g id="Wealth_Front_Happy">
      <ellipse class="cls-6" cx="334.746" cy="208.843" rx="46.508" ry="32.394" transform="translate(57.326 489.394) rotate(-77.281)"/>
      <ellipse class="cls-11" cx="33.226" cy="208.843" rx="32.394" ry="46.508" transform="translate(-45.166 12.44) rotate(-12.719)"/>
      <path class="cls-7" d="M344.481,198.657c0,109.715-75.586,200.35-160.514,200.35S23.452,308.373,23.452,198.657,95.316,0,183.966,0s160.514,88.942,160.514,198.657Z"/>
      <path class="cls-12" d="M344.481,198.657c0,109.715-75.586,200.35-160.514,200.35S23.452,308.373,23.452,198.657,95.316,0,183.966,0s160.514,88.942,160.514,198.657Z"/>
      <circle class="cls-3" cx="136.16" cy="188.159" r="13.844"/>
      <circle class="cls-3" cx="231.772" cy="188.159" r="13.844"/>
      <path class="cls-19" d="M102.955,158.642c16.912-5.489,34.565-6.213,51.815-1.816,11.098,2.829,15.832-14.322,4.729-17.153-20.191-5.147-41.433-4.623-61.273,1.816-10.843,3.519-6.204,20.701,4.729,17.153h0Z"/>
      <path class="cls-1" d="M183.966,333.441c8.914,0,23.798-1.553,33.266-6.176,9.367-4.483,17.619-10.573,24.664-17.485,3.039-2.976,3.563-7.801,1.032-11.39-2.833-4.026-8.433-4.947-12.411-2.05-13.656,9.804-29.547,14.338-46.558,14.338s-32.901-4.534-46.558-14.338c-3.978-2.897-9.578-1.976-12.411,2.05-2.531,3.589-2.008,8.414,1.032,11.39,7.046,6.912,15.298,13.001,24.664,17.485,9.468,4.624,24.353,6.176,33.266,6.176"/>
      <path class="cls-8" d="M264.977,158.642c-16.912-5.489-34.565-6.213-51.815-1.816-11.098,2.829-15.832-14.322-4.729-17.153,20.191-5.147,41.433-4.623,61.273,1.816,10.843,3.519,6.204,20.701-4.729,17.153h0Z"/>
      <path class="cls-4" d="M183.966,241.465c-40.252,0-71.344,16.903-73.982,48.388-.171,2.037,2.065,3.551,4.199,2.809l16.579-5.767c1.49-.518,3.178.065,3.887,1.344l8.126,14.645c.947,1.707,3.507,2.061,4.989.689l13.357-12.364c1.22-1.129,3.25-1.123,4.461.015l16.145,15.168c1.217,1.143,3.26,1.143,4.477,0l16.145-15.168c1.211-1.137,3.241-1.144,4.461-.015l13.357,12.364c1.482,1.372,4.041,1.019,4.989-.689l8.126-14.645c.71-1.279,2.397-1.862,3.887-1.344l16.58,5.767c2.134.742,4.37-.772,4.199-2.809-2.638-31.485-33.73-48.388-73.982-48.388Z"/>
      <path class="cls-9" d="M209.632,258.296c-10.113,2.22-14.897,7.21-25.669,7.21s-15.556-4.99-25.669-7.21c-14.86-3.25-16.176-16.33-1.342-23.7,9.835-4.9,8.354-7.53,9.657-20.48.987-9.88,1.671-14.75,2.848-26.59.418-4.2,3.139-8.14,7.645-10.4,1.936-.97,4.24-1.65,6.86-1.65s4.924.68,6.873,1.65c4.493,2.26,7.215,6.2,7.632,10.4,1.177,11.84,1.873,16.71,2.861,26.59,1.291,12.95-.19,15.58,9.657,20.48,14.821,7.37,13.518,20.45-1.354,23.7Z"/>
      <path class="cls-17" d="M54.036,168.942c-2.98,18.56-2.453,37.286-9.512,45.843s-25.335,6.004-28.335-9.192c-1.862-9.431-2.368-23.587-1.618-35.022,1.142-17.425,4.195-36.963,12.957-63.106,7.853-23.433,41.243-19.422,37.245,2.684-4.577,25.309-6.543,32.676-10.736,58.793Z"/>
      <path class="cls-13" d="M313.886,168.942c2.98,18.56,2.453,37.286,9.512,45.843,7.059,8.557,25.335,6.004,28.335-9.192,1.862-9.431,2.368-23.587,1.618-35.022-1.142-17.425-4.195-36.963-12.957-63.106-7.853-23.433-41.243-19.422-37.245,2.684,4.577,25.309,6.543,32.676,10.736,58.793Z"/>
    </g>
    <g id="Hand2_ThumbsUp">
      <polygon class="cls-5" points="355.24 346.525 375.45 346.075 406.277 351.427 414.512 357.065 400.921 387.601 368.368 397.715 339.566 444.963 336.023 473.74 336.866 481.367 307.225 479.557 283.988 471.181 265.529 458.164 249.46 433.955 248.02 415.696 355.24 346.525"/>
      <path class="cls-10" d="M376.321,442.134c13.106,2.306,26.224,1.941,38.917-4.903,8.42-4.54,14.056-11.907,14.181-23.043.022-1.936-.44-3.89-.925-5.734-.675-2.562-2.113-3.256-4.58-2.202-14.945,6.387-30.018,7.407-45,3.964-4.372-1.005-8.616-2.984-12.572-5.239-4.78-2.726-8.849-1.321-12.322,5.146-4.453,8.293-2.911,16.354,4.457,22.958,5.209,4.668,11.125,7.739,17.845,9.053Z"/>
      <path class="cls-14" d="M372.24,472.491c10.336,1.33,20.46,1.915,30.328-3.754,3.773-2.167,7.388-5.192,10.505-8.544,4.24-4.56,4.913-12.117,1.594-17.083-1.004-1.503-3.828-2.428-5.576-1.944-10.492,2.905-20.911,3.518-31.199,1.686-11.412-2.033-21.326-7.268-28.088-18.272-1.31-2.132-2.752-2.146-4.638-.501-4.674,4.076-6.926,11.042-5.277,17.163,3.084,11.449,9.634,19.498,18.623,24.805,4.367,2.579,9.139,4.323,13.728,6.445Z"/>
      <path class="cls-2" d="M360.401,492.864c7.5,1.796,14.457,1.262,21.392-1.577,5.504-2.253,9.623-7.656,9.75-12.654.079-3.124-.893-4.51-3.921-4.677-5.97-.329-12.059-.559-17.784-2.058-12.888-3.375-23.164-11.208-29.752-24.162-1.657-3.257-2.79-2.699-4.778-.308-5.882,7.073-5.945,19.133-.047,27.878,6.446,9.556,15.338,14.856,25.14,17.558Z"/>
      <path class="cls-18" d="M306.32,406.544c4.682-2.619,9.16-5.587,13.474-8.773,21.11-15.588,32.808-36.943,36.219-63.319,1.742-13.468,1.984-26.828-2.182-39.761-3.142-9.754-8.161-18.069-18.107-21.66-8.935-3.226-16.114.713-18.513,10.343-1.355,5.438-1.975,11.056-3.083,16.561-.897,4.455-1.918,8.894-3.079,13.288-3.528,13.357-11.832,23.129-21.973,31.679-8.905,7.508-17.741,15.157-26.061,23.347-3.364,3.311-5.92,7.954-7.744,12.454-6.929,17.099-9.273,33.856-5.01,49.905,0,0,13.541-4.79,17.922-6.713,13.884-6.094,30.867-13.287,38.137-17.352Z"/>
      <path class="cls-15" d="M401.27,363.779c1.335.013,3.634,1.498,3.7,2.522.192,2.983-2.244,2.024-3.846,2.104-11.903.598-23.492,2.743-34.254,9.215-13.1,7.878-8.688,18.551-.742,24.581,6.463,4.904,14.021,6.445,21.629,7.141,12.794,1.171,25.549.168,37.612-6.232,10.362-5.498,13.602-15.463,8.49-26.25-5.344-11.275-14.619-17.678-24.907-22.755"/>
      <path class="cls-16" d="M417.652,442.551c1.317-3.126,5.336-4.765,7.613-7.316,6.124-5.695,9.257-13.448,7.945-21.519-.291-2.143-.969-4.434-.693-6.57.302-2.831,2.423-4.928,4.035-7.122,1.985-2.622,3.726-5.676,4.302-8.927.792-4.349-.31-8.741-1.92-12.807-4.525-11.62-14.408-19.333-25.185-24.939-12.385-6.966-26.249-9.981-40.38-9.445-3.063-.009-6.169.044-9.272.048-1.356-.013-2.563-.166-3.377-.682-1.242-.673-1.535-2.551-1.426-4.195.109-2.184.272-4.436.49-6.674,2.447-19.344.517-44.581-15.946-57.407-2.618-2.031-5.646-3.808-8.75-4.71-6.342-2.085-14.826.473-19.078,5.638-2.068,2.415-3.196,5.579-3.929,8.667-1.712,7.374-3.059,14.728-4.711,22.09-2.134,9.603-6.548,18.357-12.103,26.372-3.674,5.173-8.401,8.867-13.166,12.723-5.387,4.371-10.494,9.26-15.57,14.043-10.805,9.638-17.036,22.794-19.509,37.033-.893,4.74-1.161,8.946-1.392,13.743-1.202,28.572,16.385,55.29,42.478,65.974,13.268,5.387,27.753,8.566,42.198,7.97,7.896-.889,9.86,1.655,15.936,5.635,10.951,6.657,23.63,8.513,36.018,4.24,15.602-5.63,9.127-15.314,16.389-20.803,9.234-5.901,19.548-8.49,20.047-21.402.418-3.179-1.748-6.615-1.079-9.545l.034-.112ZM331.116,477.68c-1.651,3.145-18.42.054-21.856-.536-17.299-3.437-34.37-10.678-45.474-24.967-15.891-19.678-17.119-43.371-8.5-69.038,3.156-9.398,7.927-14.906,15.294-21.346,28.642-26.039,38.414-27.101,44.621-68.37,1.105-6.528,2.678-14.884,9.542-17.565,9.516-3.224,19.951,4.54,24.149,12.845,12.185,23.501,6.929,59.753-5.732,81.81-7.07,12.473-18.462,23.56-31.267,31.12-1.859,1.16-8.108,4.816-4.845,6.842,1.887.595,4.239-.669,5.955-1.62,13.535-7.97,24.623-18.321,32.575-31.724,2.975-5.008,5.449-10.376,7.51-16.227.716-1.948,1.459-4.017,2.652-5.7,1.912-2.88,5.373-3.529,8.625-3.843,14.528-1.32,28.636.221,42.032,6.116,8.096,3.624,15.952,8.186,21.764,14.989,11.122,13.104,10.461,27.487-6.99,34.04-14.005,5.719-37.228,5.861-50.729-1.297-9.856-5.301-15.214-15.905-5.173-23.265,9.6-6.984,21.714-9.22,33.274-9.94,1.644-.145,5.35-.111,4.946-2.271-2.135-3.514-9.641-1.817-13.185-1.539-8.788,1.343-17.47,3.377-25.135,8.227-6.669,4.024-12.105,11.021-9.392,19.187,1.199,3.503,1.975,6.814-.976,9.664-3.011,3.063-5.554,6.485-6.549,10.768-.601,2.308-.922,4.764-2.099,6.864-1.183,2.187-3.174,3.837-4.752,5.735-2.317,2.726-3.595,5.958-4.152,9.571-.443,3.254-1.103,6.53-3.191,9.175-5.922,6.839-8.109,14.379-5.247,23.219.455,1.486.998,2.909,1.579,4.367.537,1.441,1.405,3.346.769,4.628l-.043.08ZM376.915,439.72c-11.285-2.308-27.785-11.908-23.97-25.389,1.116-3.62,3.725-7.908,7.484-8.975,2.419-.682,5.148.388,7.443,1.454,3.859,1.868,7.758,3.466,11.937,4.377,13.477,3.039,27.277,2.477,40.558-1.898,3.21-1.125,6.477-1.002,7.462,2.832,3.092,14.042-7.223,23.153-19.85,26.759-9.991,3.05-20.662,2.837-30.916.869l-.147-.03ZM372.924,469.218c-12.537-3.952-24.71-11.155-29.755-24.081-2.055-4.665-2.293-10.304.744-14.596,1.029-1.51,2.44-2.855,3.889-3.113,3.629-.429,5.661,4.318,8.183,6.282,12.621,11.826,31.801,13.071,48.12,10.165,7.882-1.797,11.484,4.808,9.151,11.711-.822,2.253-2.406,4.175-4.174,5.779-9.65,9.082-23.453,10.685-36.014,7.89l-.144-.038ZM360.76,490.608c-9.784-2.494-19.074-8.292-24.736-16.868-4.655-7.052-5.428-16.555-.763-22.971,2.683-3.604,4.917-1.698,6.801,1.362,10.1,16.031,25.509,21,43.428,22.004,6.694.826,4.787,8.288,1.152,11.669-6.723,6.322-17.104,6.807-25.735,4.84l-.147-.036Z"/>
    </g>
  </g>
</svg>