<?xml version="1.0" encoding="UTF-8"?>
<svg id="Layer_2" data-name="Layer 2" xmlns="http://www.w3.org/2000/svg" xmlns:xlink="http://www.w3.org/1999/xlink" viewBox="0 0 611.241 611.241">
  <defs>
    <style>
      .cls-1 {
        fill: url(#linear-gradient-2);
      }

      .cls-2 {
        fill: url(#linear-gradient-10);
      }

      .cls-3 {
        fill: #231f20;
      }

      .cls-4 {
        fill: #d19470;
      }

      .cls-5 {
        fill: url(#New_Pattern);
        opacity: .25;
      }

      .cls-6 {
        fill: none;
      }

      .cls-7 {
        fill: url(#linear-gradient-4);
      }

      .cls-8 {
        fill: url(#radial-gradient-5);
      }

      .cls-9 {
        fill: url(#radial-gradient);
      }

      .cls-10 {
        fill: url(#radial-gradient-3);
      }

      .cls-11 {
        fill: url(#linear-gradient-3);
      }

      .cls-12 {
        fill: url(#linear-gradient-5);
      }

      .cls-13 {
        fill: url(#linear-gradient-8);
      }

      .cls-14 {
        fill: url(#radial-gradient-2);
      }

      .cls-15 {
        fill: url(#radial-gradient-4);
      }

      .cls-16 {
        fill: #e6e7e8;
      }

      .cls-17 {
        fill: url(#linear-gradient-7);
      }

      .cls-18 {
        fill: url(#linear-gradient-9);
      }

      .cls-19 {
        fill: url(#linear-gradient-11);
      }

      .cls-20 {
        fill: url(#linear-gradient-6);
      }

      .cls-21 {
        fill: url(#radial-gradient-6);
      }

      .cls-22 {
        fill: url(#radial-gradient-7);
      }

      .cls-23 {
        fill: url(#linear-gradient);
      }

      .cls-24 {
        fill: #bcbec0;
      }
    </style>
    <radialGradient id="radial-gradient" cx="302.979" cy="306.501" fx="302.979" fy="306.501" r="347.521" gradientUnits="userSpaceOnUse">
      <stop offset=".006" stop-color="#00a651"/>
      <stop offset=".964" stop-color="#006838"/>
    </radialGradient>
    <pattern id="New_Pattern" data-name="New Pattern" x="0" y="0" width="98.857" height="127.655" patternTransform="translate(-848.135 -2356.407) scale(1.111)" patternUnits="userSpaceOnUse" viewBox="0 0 98.857 127.655">
      <g>
        <rect class="cls-6" width="98.857" height="127.655"/>
        <path class="cls-16" d="M72.173,111.196c-8.252,13.207-25.348,15.944-39.164,10.919-3.126-1.137-5.973-2.651-8.593-4.449-1.782,2.524-3.56,5.051-5.372,7.553-1.818,2.512-5.001,3.163-7.67,1.569-2.489-1.487-3.267-5.323-1.569-7.669,2.115-2.922,4.203-5.863,6.278-8.813-6.084-6.691-10.743-14.913-15.006-22.751-2.986-5.491.634-12.843,5.959-15.163,6.053-2.638,12.193.497,15.163,5.959,2.225,4.092,4.51,8.367,7.302,12.208,4.304-6.536,8.52-13.129,12.629-19.789-9.089-11.344-18.47-24.224-11.373-39.249,7.247-15.342,24.442-22.258,40.434-17.223.768.242,1.536.522,2.301.827,2.165-4.22,4.3-8.456,6.393-12.713,1.366-2.778,5.365-2.945,7.669-1.569,1.162.694,2.074,2.142,2.358,3.442.345,1.581-.105,2.835-.789,4.228-1.988,4.043-4.013,8.068-6.066,12.079,9.54,7.25,16.771,18.744,15.693,30.19-1.396,14.815-24.307,12.309-22.918-2.426.118-1.255-2.163-4.561-3.498-6.191-.148-.181-.305-.355-.46-.531-3.195,5.818-6.439,11.608-9.776,17.345,1.69,2.007,3.348,4.035,4.85,6.169,9.431,13.399,14.548,31.125,5.224,46.047ZM54.659,49.773c.025-.044.051-.087.076-.13,2.655-4.614,5.248-9.262,7.811-13.927-1.378-.317-2.726-.348-4.263-.002-1.148.258-3.763,1.633-4.338,2.179-.728.692-1.455,1.673-1.982,2.542-.737,1.217-.155.313-.039.084,0,.001-.465,1.474-.458,1.101-.073.521-.176,1.262-.174,1.381.008.833.918,3.088,2.016,4.796.432.671.887,1.326,1.351,1.977ZM54.093,91.914c-.369-4.326-2.306-8.212-4.735-11.799-.285.457-.56.919-.846,1.376-3.613,5.768-7.322,11.474-11.083,17.147,1.522.998,4.48,2.314,5.399,2.515,2.684.588,5.443.48,6.678.05,3.492-1.216,5.013-4.277,4.586-9.288Z"/>
      </g>
    </pattern>
    <radialGradient id="radial-gradient-2" cx="175.961" cy="414.006" fx="175.961" fy="414.006" r="324.369" gradientUnits="userSpaceOnUse">
      <stop offset="0" stop-color="#414042"/>
      <stop offset="1" stop-color="#231f20"/>
    </radialGradient>
    <linearGradient id="linear-gradient" x1="301.567" y1="501.223" x2="309.588" y2="614.025" gradientUnits="userSpaceOnUse">
      <stop offset="0" stop-color="#f1f2f2"/>
      <stop offset="1" stop-color="#d1d3d4"/>
    </linearGradient>
    <linearGradient id="linear-gradient-2" x1="330.7" y1="452.862" x2="373.222" y2="570.253" xlink:href="#linear-gradient"/>
    <radialGradient id="radial-gradient-3" cx="380.006" cy="402.541" fx="380.006" fy="402.541" r="246.385" xlink:href="#radial-gradient-2"/>
    <linearGradient id="linear-gradient-3" x1="253.674" y1="436.654" x2="210.891" y2="479.436" xlink:href="#linear-gradient"/>
    <linearGradient id="linear-gradient-4" x1="370.345" y1="449.612" x2="417.823" y2="498.134" xlink:href="#linear-gradient"/>
    <radialGradient id="radial-gradient-4" cx="467.268" cy="208.075" fx="467.268" fy="208.075" r="107.545" gradientTransform="translate(610.936 -238.758) rotate(77.281)" gradientUnits="userSpaceOnUse">
      <stop offset="0" stop-color="#dead87"/>
      <stop offset="1" stop-color="#fab085"/>
    </radialGradient>
    <radialGradient id="radial-gradient-5" cx="307.39" cy="199.43" fx="383.195" fy="24.094" r="268.63" gradientUnits="userSpaceOnUse">
      <stop offset=".071" stop-color="#fcc397"/>
      <stop offset=".372" stop-color="#fcc397"/>
      <stop offset="1" stop-color="#fab085"/>
    </radialGradient>
    <radialGradient id="radial-gradient-6" cx="320.678" cy="162.729" fx="371.005" fy="25.838" r="145.848" gradientUnits="userSpaceOnUse">
      <stop offset="0" stop-color="#fff" stop-opacity=".9"/>
      <stop offset=".72" stop-color="#fff" stop-opacity="0"/>
    </radialGradient>
    <linearGradient id="linear-gradient-5" x1="184.371" y1="182.838" x2="94.763" y2="341.221" gradientUnits="userSpaceOnUse">
      <stop offset="0" stop-color="#725341"/>
      <stop offset=".523" stop-color="#583b29"/>
      <stop offset="1" stop-color="#462a19"/>
    </linearGradient>
    <linearGradient id="linear-gradient-6" x1="298.382" y1="186.281" x2="277.153" y2="256.93" xlink:href="#linear-gradient-5"/>
    <linearGradient id="linear-gradient-7" x1="328.934" y1="155.844" x2="309.108" y2="211.67" gradientTransform="translate(67.607 52.318) rotate(-5.714)" xlink:href="#linear-gradient-5"/>
    <linearGradient id="linear-gradient-8" x1="449.681" y1="227.666" x2="475.74" y2="227.666" xlink:href="#linear-gradient-5"/>
    <radialGradient id="radial-gradient-7" cx="-158.094" cy="12.569" fx="-144.764" fy="-22.585" r="37.596" gradientTransform="translate(292.787 156.696) rotate(-27.07) scale(1.08 1.724) skewX(-4.527)" gradientUnits="userSpaceOnUse">
      <stop offset="0" stop-color="#dead87"/>
      <stop offset="1" stop-color="#fab085"/>
    </radialGradient>
    <linearGradient id="linear-gradient-9" x1="368.882" y1="342.272" x2="238.447" y2="308.88" gradientTransform="translate(5.342 52.758) rotate(-2.297)" gradientUnits="userSpaceOnUse">
      <stop offset="0" stop-color="#fff"/>
      <stop offset="1" stop-color="#d1d3d4"/>
    </linearGradient>
    <linearGradient id="linear-gradient-10" x1="351.721" y1="292.352" x2="332.066" y2="374.902" xlink:href="#linear-gradient-5"/>
    <linearGradient id="linear-gradient-11" x1="184.565" y1="195.433" x2="178.765" y2="130.665" gradientTransform="translate(144.24 138.222) rotate(-9.242) scale(1 1.116)" gradientUnits="userSpaceOnUse">
      <stop offset="0" stop-color="#dead87"/>
      <stop offset="1" stop-color="#fab085"/>
    </linearGradient>
  </defs>
  <g id="Bitmojis">
    <g id="Wealth_PFP">
      <circle class="cls-9" cx="305.62" cy="305.62" r="305.62"/>
      <circle class="cls-5" cx="305.62" cy="305.62" r="305.62"/>
      <rect class="cls-4" x="182.033" y="386.062" width="228.522" height="100.174"/>
      <path class="cls-14" d="M47.007,468.519c35.803,56.72,89.735,100.852,153.674,124.227l-36.014-185.319s-66.055,41.287-110.477,58.254c-2.407.919-4.802,1.867-7.183,2.837Z"/>
      <path class="cls-23" d="M426.16,586.533c-4.302-67.617-10.356-128.946-18.458-139.93-10.648-14.437-18.847-8.227-24.067.285-8.228,13.412-21.569,22.821-36.967,24.931-17.09,2.342-40.868,1.583-70.021-9.461-62.608-23.719-97.234-10.976-97.234-10.976l75.538,155.654c16.483,2.751,33.405,4.205,50.67,4.205,42.808,0,83.554-8.816,120.54-24.708Z"/>
      <polygon class="cls-24" points="408.045 535.187 376.416 482.969 353.373 497.195 408.045 535.187"/>
      <polygon class="cls-24" points="275.174 551.631 321.386 511.736 303.517 491.388 275.174 551.631"/>
      <path class="cls-3" d="M310.915,506.762l19.291,26.544c3.078,4.236,8.105,6.608,13.332,6.291l16.395-.995c5.879-.357,11.034-4.05,13.264-9.501l9.343-22.85c1.802-4.406,1.455-9.4-.94-13.515l-9.694-16.659c-3.057-5.254-4.443-10.841-10.606-8.645l-34.715,4.54c-5.279.595-9.874,3.88-12.145,8.682l-4.984,10.54c-2.395,5.066-1.836,11.035,1.458,15.568Z"/>
      <path class="cls-1" d="M335.802,476.011c-19.567,0-35.455-8.432-36.488-8.993l2.861-5.273-1.431,2.637,1.429-2.638c.366.198,36.979,19.545,65.56-2.195l3.633,4.775c-11.634,8.85-24.219,11.688-35.563,11.688Z"/>
      <path class="cls-10" d="M400.12,418.149l22.159,170.015c52.104-21.537,96.946-57.06,129.858-101.897-8.861-6.057-18.322-10.01-27.369-14.377-27.716-13.382-124.648-53.741-124.648-53.741Z"/>
      <path class="cls-3" d="M389.31,424.902c13.627,44.937,22.081,104.545,27.255,165.564,27.571-10.747,53.193-25.383,76.202-43.231-36.024-79.696-103.458-122.333-103.458-122.333Z"/>
      <path class="cls-3" d="M399.778,590.454l-34.044-61.304-24.651,3.522-13.305,62.478,2.166,15.128c24.471-1.927,48.125-6.748,70.635-14.101l-.801-5.723Z"/>
      <path class="cls-3" d="M266.76,608.793c-42.132-83.541-74.866-150.404-82.106-170.763-14.613-41.087,17.613-31.435,10.961-49.031-4.694-3.239-89.576,9.603-92.775,145.254,44.827,39.788,101.422,66.609,163.92,74.54Z"/>
      <path class="cls-11" d="M325.919,469.769c-34.957-7.826-88.565-42.913-111-61.174-22.435-18.261-19.304-50.609-19.304-50.609,0,0-27.522,28.826-10.826,82.304,10.084,32.302,62.346,92.527,79.996,112.256,2.9,3.242,8.098,2.781,10.39-.916l50.745-81.862Z"/>
      <path class="cls-7" d="M363.633,463.77l42.47,69.259c2.686,4.311,7.276,7.285,5.87-9.065-4.272-49.663-23.634-103.304-23.634-103.304h-5.421s5.801,19.209-19.124,42.183c-.257.237-.327.619-.162.928Z"/>
      <g>
        <ellipse class="cls-15" cx="454.795" cy="262.72" rx="42.977" ry="29.935" transform="translate(98.389 648.512) rotate(-77.281)"/>
        <path class="cls-8" d="M464.529,252.535c0,109.715-24.35,232.284-153.072,200.351-113.893-28.254-167.957-90.636-167.957-200.351S215.365,53.877,304.015,53.877s160.514,88.942,160.514,198.657Z"/>
        <path class="cls-21" d="M464.529,252.535c0,109.715-24.35,232.284-153.072,200.351-113.893-28.254-167.957-90.636-167.957-200.351S215.365,53.877,304.015,53.877s160.514,88.942,160.514,198.657Z"/>
        <circle class="cls-3" cx="300.486" cy="242.036" r="13.844"/>
        <circle class="cls-3" cx="392.099" cy="242.036" r="13.844"/>
        <path class="cls-12" d="M187.692,163.962c-12.537-9.382-18.529-11.058-30.978-8.141-6.497,1.522-11.241,7.595-14.295,15.27-13.01,32.686-11.921,63.048-8.64,103.751.703,8.726,4.581,16.24,10.924,17.228l2.261.352c17.599,2.74,34.454-10.611,41.481-32.932,11.34-36.017,13.127-85.141-.753-95.528Z"/>
        <path class="cls-20" d="M267.452,212.519c16.912-5.489,34.565-6.213,51.815-1.816,11.098,2.829,15.832-14.322,4.729-17.153-20.191-5.147-41.433-4.623-61.273,1.816-10.843,3.519-6.204,20.701,4.729,17.153h0Z"/>
        <path class="cls-17" d="M378.592,212.634c16.829-5.786,34.512-6.414,51.799-2.325,11.164,2.641,14.089-14.915,2.998-17.538-20.315-4.805-41.499-3.51-61.209,3.267-10.821,3.72-4.421,20.322,6.413,16.597h0Z"/>
        <path class="cls-13" d="M453.878,235.182c1.799,14.585,3.63,33.045,5.837,36.01,4.535,6.091,11.968,4.191,12.571-3.835.35-4.663.639-9.318.873-13.954,1.131-22.42-1.926-47.349-7.681-67.789-2.457-8.726-18.501-5.251-18.14,3.375.793,18.937,4.007,25.669,6.539,46.193Z"/>
        <path class="cls-22" d="M170.866,231.212c6.363,27.876,10.503,69.948-6.801,73.898-17.304,3.95-36.489-15.447-42.852-43.323-6.363-27.876-1.825-55.068,15.479-59.018,17.304-3.95,27.811.567,34.174,28.443Z"/>
        <path class="cls-18" d="M304.598,350.592c11.135,8.921,24.165,15.541,38.3,17.607,16.4,2.345,32.906-2.533,46.564-12.339,3.978-2.897,9.578-1.976,12.411,2.05,2.531,3.589,2.008,8.414-1.032,11.39-7.046,6.912-15.298,13.002-24.664,17.485-12.256,5.984-26.585,8.702-40.402,8.204-17.739-.793-35.113-6.526-50.448-15.18-8.647-4.639-11.831-15.507-7.025-24.069,5.154-9.416,17.977-11.9,26.296-5.147h0Z"/>
        <path class="cls-2" d="M339.703,295.342c-40.252,0-71.344,16.903-73.982,48.388-.171,2.037,2.065,3.551,4.199,2.809l16.579-5.767c1.49-.518,3.178.065,3.887,1.344l8.126,14.645c.947,1.707,3.507,2.061,4.989.689l13.357-12.364c1.22-1.129,3.25-1.123,4.461.015l16.145,15.168c1.217,1.143,3.26,1.143,4.477,0l16.145-15.168c1.211-1.137,3.241-1.144,4.461-.015l13.357,12.364c1.482,1.372,4.041,1.019,4.989-.689l8.126-14.645c.71-1.279,2.397-1.862,3.887-1.344l16.58,5.767c2.134.742,4.37-.772,4.199-2.809-2.638-31.485-33.73-48.388-73.982-48.388Z"/>
        <path class="cls-19" d="M321.021,296.656c5.584,4.86,35.011,27.779,55.851,19.291,12.757-4.89,15.553-16.57,7.672-27.483-5.097-7.649-11.794-14.268-17.154-21.773-6.552-8.79-11.984-19.476-17.176-30.456,0,0-28.044,33.846-29.194,60.42Z"/>
      </g>
    </g>
  </g>
</svg>