<?xml version="1.0" encoding="UTF-8"?>
<svg id="Layer_2" data-name="Layer 2" xmlns="http://www.w3.org/2000/svg" xmlns:xlink="http://www.w3.org/1999/xlink" viewBox="0 0 367.027 404.161">
  <defs>
    <style>
      .cls-1 {
        fill: url(#linear-gradient-2);
      }

      .cls-2 {
        fill: #231f20;
      }

      .cls-3 {
        fill: url(#linear-gradient-4);
      }

      .cls-4 {
        fill: url(#radial-gradient);
      }

      .cls-5 {
        fill: url(#radial-gradient-3);
      }

      .cls-6 {
        fill: url(#linear-gradient-3);
      }

      .cls-7 {
        fill: url(#linear-gradient-5);
      }

      .cls-8 {
        fill: url(#radial-gradient-2);
      }

      .cls-9 {
        fill: url(#radial-gradient-4);
      }

      .cls-10 {
        fill: url(#linear-gradient-6);
      }

      .cls-11 {
        fill: url(#linear-gradient);
      }

      .cls-12 {
        fill: #414042;
      }
    </style>
    <radialGradient id="radial-gradient" cx="348.796" cy="154.197" fx="348.796" fy="154.197" r="107.545" gradientTransform="translate(465.993 -165.208) rotate(77.281)" gradientUnits="userSpaceOnUse">
      <stop offset="0" stop-color="#dead87"/>
      <stop offset="1" stop-color="#fab085"/>
    </radialGradient>
    <radialGradient id="radial-gradient-2" cx="188.918" cy="145.552" fx="264.723" fy="-29.783" r="268.63" gradientUnits="userSpaceOnUse">
      <stop offset=".071" stop-color="#fcc397"/>
      <stop offset=".372" stop-color="#fcc397"/>
      <stop offset="1" stop-color="#fab085"/>
    </radialGradient>
    <radialGradient id="radial-gradient-3" cx="202.206" cy="108.851" fx="252.533" fy="-28.039" r="145.848" gradientUnits="userSpaceOnUse">
      <stop offset="0" stop-color="#fff" stop-opacity=".9"/>
      <stop offset=".72" stop-color="#fff" stop-opacity="0"/>
    </radialGradient>
    <linearGradient id="linear-gradient" x1="233.249" y1="238.474" x2="213.594" y2="321.025" gradientUnits="userSpaceOnUse">
      <stop offset="0" stop-color="#725341"/>
      <stop offset=".523" stop-color="#583b29"/>
      <stop offset="1" stop-color="#462a19"/>
    </linearGradient>
    <linearGradient id="linear-gradient-2" x1="65.899" y1="128.961" x2="-23.709" y2="287.344" xlink:href="#linear-gradient"/>
    <linearGradient id="linear-gradient-3" x1="717.456" y1="395.815" x2="696.228" y2="466.464" gradientTransform="translate(-309.384 -495.559) rotate(24.095)" xlink:href="#linear-gradient"/>
    <linearGradient id="linear-gradient-4" x1="-112.383" y1="-220.283" x2="-132.209" y2="-164.456" gradientTransform="translate(476.788 298.197) rotate(-24.647)" xlink:href="#linear-gradient"/>
    <linearGradient id="linear-gradient-5" x1="-223.436" y1="-185.337" x2="-229.235" y2="-250.105" gradientTransform="translate(536.091 377.498) rotate(-21.492) scale(1 1.116)" gradientUnits="userSpaceOnUse">
      <stop offset="0" stop-color="#dead87"/>
      <stop offset="1" stop-color="#fab085"/>
    </linearGradient>
    <linearGradient id="linear-gradient-6" x1="331.209" y1="173.789" x2="357.268" y2="173.789" xlink:href="#linear-gradient"/>
    <radialGradient id="radial-gradient-4" cx="-483.479" cy="-318.634" fx="-470.149" fy="-353.788" r="37.596" gradientTransform="translate(722.008 464.316) rotate(-27.07) scale(1.08 1.724) skewX(-4.527)" gradientUnits="userSpaceOnUse">
      <stop offset="0" stop-color="#dead87"/>
      <stop offset="1" stop-color="#fab085"/>
    </radialGradient>
  </defs>
  <g id="Bitmojis">
    <g id="Wealth_Side_Disapprove">
      <ellipse class="cls-4" cx="336.323" cy="208.843" rx="42.977" ry="29.935" transform="translate(58.556 490.932) rotate(-77.281)"/>
      <path class="cls-8" d="M346.057,198.657c0,109.715-24.35,232.284-153.072,200.351-113.893-28.254-167.957-90.636-167.957-200.351S96.893,0,185.543,0s160.514,88.942,160.514,198.657Z"/>
      <path class="cls-5" d="M346.057,198.657c0,109.715-24.35,232.284-153.072,200.351-113.893-28.254-167.957-90.636-167.957-200.351S96.893,0,185.543,0s160.514,88.942,160.514,198.657Z"/>
      <path class="cls-12" d="M283.598,297.893c-17.592-4.92-35.836-7.126-53.982-4.374-16.255,2.465-30.99,9.547-43.726,19.82-3.178,2.563-2.618,7.93,0,10.607,3.082,3.15,7.471,2.529,10.607,0,23.866-19.251,54.771-19.515,83.114-11.589,9.311,2.604,13.285-11.864,3.988-14.464h0Z"/>
      <path class="cls-11" d="M221.231,241.465c-40.252,0-71.344,16.903-73.982,48.388-.171,2.037,2.065,3.551,4.199,2.809l16.579-5.767c1.49-.518,3.178.065,3.887,1.344l8.126,14.645c.947,1.707,3.507,2.061,4.989.689l13.357-12.364c1.22-1.129,3.25-1.123,4.461.015l16.145,15.168c1.217,1.143,3.26,1.143,4.477,0l16.145-15.168c1.211-1.137,3.241-1.144,4.461-.015l13.357,12.364c1.482,1.372,4.041,1.019,4.989-.689l8.126-14.645c.71-1.279,2.397-1.862,3.887-1.344l16.58,5.767c2.134.742,4.37-.772,4.199-2.809-2.638-31.485-33.73-48.388-73.982-48.388Z"/>
      <circle class="cls-2" cx="182.014" cy="188.159" r="13.844"/>
      <circle class="cls-2" cx="273.627" cy="188.159" r="13.844"/>
      <path class="cls-1" d="M69.22,110.084c-12.537-9.382-18.529-11.058-30.978-8.141-6.497,1.522-11.241,7.595-14.295,15.27-13.01,32.686-11.921,63.048-8.64,103.751.703,8.726,4.581,16.24,10.924,17.228l2.261.352c17.599,2.74,34.454-10.611,41.481-32.932,11.34-36.017,13.127-85.141-.753-95.528Z"/>
      <path class="cls-6" d="M145.026,169.993c17.68,1.894,34.09,8.439,48.042,19.496,8.976,7.113,20.299-6.611,11.319-13.728-16.331-12.942-35.936-21.135-56.676-23.357-11.334-1.214-14.114,16.364-2.686,17.589h0Z"/>
      <path class="cls-3" d="M265.002,191.117c14.041-10.933,30.564-17.265,48.242-19.006,11.416-1.124,8.488-18.679-2.855-17.562-20.775,2.046-40.393,10.145-56.838,22.95-9.028,7.03,2.411,20.657,11.451,13.618h0Z"/>
      <path class="cls-7" d="M207.14,248.888c6.488,3.565,40.108,19.718,58.673,7.001,11.429-7.486,11.683-19.493,1.666-28.485-6.604-6.393-14.553-11.441-21.384-17.637-8.268-7.2-15.844-16.49-23.247-26.118,0,0-20.224,39.026-15.708,65.239Z"/>
      <path class="cls-10" d="M335.406,181.304c1.799,14.585,3.63,33.045,5.837,36.01,4.535,6.091,11.968,4.191,12.571-3.835.35-4.663.639-9.318.873-13.954,1.131-22.42-1.926-47.349-7.681-67.789-2.457-8.726-18.501-5.251-18.14,3.375.793,18.937,4.007,25.669,6.539,46.193Z"/>
      <path class="cls-9" d="M52.394,177.335c6.363,27.876,10.503,69.948-6.801,73.898-17.304,3.95-36.489-15.447-42.852-43.323-6.363-27.876-1.825-55.068,15.479-59.018,17.304-3.95,27.811.567,34.174,28.443Z"/>
      <path class="cls-12" d="M248.156,148.842c-5.085,4.044-7.93,10.963-7.147,17.415.157,1.294,1.037,2.566,2.5,2.5,1.219-.055,2.669-1.11,2.5-2.5-.088-.723-.134-1.449-.128-2.178.003-.348.016-.695.04-1.042.013-.189.03-.378.049-.567.008-.08.087-.62.025-.233s.028-.152.041-.231c.032-.187.067-.374.105-.56.076-.372.165-.742.265-1.108.083-.305.175-.609.275-.909.061-.184.222-.97.393-1.07-.156.091-.168.381.009-.015.078-.173.158-.346.241-.517.152-.313.314-.622.484-.926.342-.609.728-1.185,1.128-1.757.367-.524-.333.399.07-.097.12-.147.239-.294.363-.438.206-.24.418-.475.637-.703.526-.549,1.091-1.056,1.686-1.529,1.028-.818.918-2.693,0-3.536-1.091-1.002-2.439-.873-3.536,0h0Z"/>
      <path class="cls-12" d="M213.119,152.862c-.503-.387.007.013.082.075.145.12.289.241.431.365.261.228.517.462.766.703.504.485.983.996,1.437,1.528.104.122.207.245.308.369.154.189.373.403.087.099.259.275.469.632.682.942.406.591.784,1.201,1.136,1.826.355.631.682,1.279.98,1.939.036.079.326.689.064.132.07.15.126.308.186.462.133.341.259.685.378,1.031.499,1.463.857,2.968,1.086,4.496.194,1.298,1.898,2.127,3.075,1.746,1.416-.458,1.954-1.685,1.746-3.075-.999-6.692-4.561-12.835-9.92-16.955-1.041-.8-2.844-.194-3.42.897-.7,1.324-.215,2.566.897,3.42h0Z"/>
    </g>
  </g>
</svg>