<?xml version="1.0" encoding="UTF-8"?>
<svg id="Layer_2" data-name="Layer 2" xmlns="http://www.w3.org/2000/svg" xmlns:xlink="http://www.w3.org/1999/xlink" viewBox="0 0 367.972 539.354">
  <defs>
    <style>
      .cls-1 {
        fill: url(#linear-gradient-2);
      }

      .cls-2 {
        fill: #231f20;
      }

      .cls-3 {
        fill: url(#linear-gradient-4);
      }

      .cls-4 {
        fill: url(#radial-gradient-5);
      }

      .cls-5 {
        fill: url(#radial-gradient);
      }

      .cls-6 {
        fill: url(#radial-gradient-3);
      }

      .cls-7 {
        fill: url(#linear-gradient-3);
      }

      .cls-8 {
        fill: url(#linear-gradient-5);
      }

      .cls-9 {
        fill: url(#radial-gradient-2);
      }

      .cls-10 {
        fill: url(#radial-gradient-4);
      }

      .cls-11 {
        fill: url(#linear-gradient-7);
      }

      .cls-12 {
        fill: url(#linear-gradient-6);
      }

      .cls-13 {
        fill: none;
        stroke: #ce936e;
        stroke-miterlimit: 10;
        stroke-width: 12px;
      }

      .cls-14 {
        fill: url(#linear-gradient);
      }

      .cls-15 {
        fill: #414042;
      }
    </style>
    <radialGradient id="radial-gradient" cx="348.243" cy="149.708" fx="348.243" fy="149.708" r="116.38" gradientTransform="translate(464.763 -163.67) rotate(77.281)" gradientUnits="userSpaceOnUse">
      <stop offset="0" stop-color="#dead87"/>
      <stop offset="1" stop-color="#fab085"/>
    </radialGradient>
    <radialGradient id="radial-gradient-2" cx="-346.299" cy="146.48" fx="-346.299" fy="146.48" r="124.643" gradientTransform="translate(-243.694 -67.757) rotate(-167.281) scale(1 -1)" gradientUnits="userSpaceOnUse">
      <stop offset="0" stop-color="#dead87"/>
      <stop offset="1" stop-color="#fab085"/>
    </radialGradient>
    <radialGradient id="radial-gradient-3" cx="187.341" cy="143.696" fx="262.442" fy="-30.009" r="266.133" gradientUnits="userSpaceOnUse">
      <stop offset=".071" stop-color="#fcc397"/>
      <stop offset=".372" stop-color="#fcc397"/>
      <stop offset="1" stop-color="#fab085"/>
    </radialGradient>
    <radialGradient id="radial-gradient-4" cx="200.629" cy="107.463" fx="250.439" fy="-28.018" r="144.347" gradientUnits="userSpaceOnUse">
      <stop offset="0" stop-color="#fff" stop-opacity=".9"/>
      <stop offset=".72" stop-color="#fff" stop-opacity="0"/>
    </radialGradient>
    <linearGradient id="linear-gradient" x1="133.885" y1="142.404" x2="112.657" y2="213.053" gradientUnits="userSpaceOnUse">
      <stop offset="0" stop-color="#725341"/>
      <stop offset=".523" stop-color="#583b29"/>
      <stop offset="1" stop-color="#462a19"/>
    </linearGradient>
    <linearGradient id="linear-gradient-2" x1="-410.195" y1="98.217" x2="-431.423" y2="168.867" gradientTransform="translate(-192.769 74.227) rotate(172.862) scale(1 -1)" xlink:href="#linear-gradient"/>
    <linearGradient id="linear-gradient-3" x1="-228.575" y1="104.397" x2="-196.152" y2="104.397" gradientTransform="translate(-291.476 25.961) rotate(179.487) scale(1.544 -1.271) skewX(.935)" xlink:href="#linear-gradient"/>
    <linearGradient id="linear-gradient-4" x1="370.999" y1="97.871" x2="403.422" y2="97.871" gradientTransform="translate(-266.415 25.961) rotate(.513) scale(1.544 1.271) skewX(.935)" xlink:href="#linear-gradient"/>
    <linearGradient id="linear-gradient-5" x1="195.984" y1="238.474" x2="176.329" y2="321.025" xlink:href="#linear-gradient"/>
    <linearGradient id="linear-gradient-6" x1="179.532" y1="265.358" x2="200.751" y2="179.16" gradientUnits="userSpaceOnUse">
      <stop offset="0" stop-color="#dead87"/>
      <stop offset="1" stop-color="#fab085"/>
    </linearGradient>
    <linearGradient id="linear-gradient-7" x1="37.569" y1="-488.444" x2="-81.909" y2="-432.096" gradientTransform="translate(420.476 834.384) rotate(-26.461)" gradientUnits="userSpaceOnUse">
      <stop offset="0" stop-color="#fedabe"/>
      <stop offset="1" stop-color="#fab387"/>
    </linearGradient>
    <radialGradient id="radial-gradient-5" cx="-2575.866" cy="-485.625" fx="-2575.866" fy="-485.625" r="137.738" gradientTransform="translate(2626.215 -301.162) rotate(-25.088)" gradientUnits="userSpaceOnUse">
      <stop offset="0" stop-color="#fedabe"/>
      <stop offset="1" stop-color="#fab387"/>
    </radialGradient>
  </defs>
  <g id="Bitmojis">
    <g id="Wealth_Front_Neutral">
      <ellipse class="cls-5" cx="334.746" cy="208.843" rx="46.508" ry="32.394" transform="translate(57.326 489.394) rotate(-77.281)"/>
      <ellipse class="cls-9" cx="33.226" cy="208.843" rx="32.394" ry="46.508" transform="translate(-45.166 12.44) rotate(-12.719)"/>
      <path class="cls-6" d="M344.481,198.657c0,109.715-75.586,200.35-160.514,200.35S23.452,308.373,23.452,198.657,95.316,0,183.966,0s160.514,88.942,160.514,198.657Z"/>
      <path class="cls-10" d="M344.481,198.657c0,109.715-75.586,200.35-160.514,200.35S23.452,308.373,23.452,198.657,95.316,0,183.966,0s160.514,88.942,160.514,198.657Z"/>
      <circle class="cls-2" cx="136.16" cy="188.159" r="13.844"/>
      <circle class="cls-2" cx="231.772" cy="188.159" r="13.844"/>
      <path class="cls-14" d="M102.955,168.642c16.912-5.489,34.565-6.213,51.815-1.816,11.098,2.829,15.832-14.322,4.729-17.153-20.191-5.147-41.433-4.623-61.273,1.816-10.843,3.519-6.204,20.701,4.729,17.153h0Z"/>
      <path class="cls-1" d="M260.402,142.902c-17.463-3.344-35.069-1.87-51.639,4.637-10.66,4.186-17.489-12.244-6.824-16.432,19.395-7.616,40.538-9.736,61.024-5.812,11.196,2.144,8.728,19.769-2.561,17.607h0Z"/>
      <path class="cls-7" d="M54.036,168.942c-2.98,18.56-2.453,37.286-9.512,45.843-7.059,8.557-25.335,6.004-28.335-9.192-1.862-9.431-2.368-23.587-1.618-35.022,1.142-17.425,4.195-36.963,12.957-63.106,7.853-23.433,41.243-19.422,37.245,2.684-4.577,25.309-6.543,32.676-10.736,58.793Z"/>
      <path class="cls-3" d="M313.886,168.942c2.98,18.56,2.453,37.286,9.512,45.843,7.059,8.557,25.335,6.004,28.335-9.192,1.862-9.431,2.368-23.587,1.618-35.022-1.142-17.425-4.195-36.963-12.957-63.106-7.853-23.433-41.243-19.422-37.245,2.684,4.577,25.309,6.543,32.676,10.736,58.793Z"/>
      <path class="cls-15" d="M228.073,312.342c-29.275-7.829-59.702-10.738-89.913-8.271-9.554.78-9.638,15.787,0,15,28.968-2.366,57.85.226,85.926,7.735,9.336,2.497,13.319-11.969,3.988-14.464h0Z"/>
      <path class="cls-8" d="M183.966,241.465c-40.252,0-71.344,16.903-73.982,48.388-.171,2.037,2.065,3.551,4.199,2.809l16.579-5.767c1.49-.518,3.178.065,3.887,1.344l8.126,14.645c.947,1.707,3.507,2.061,4.989.689l13.357-12.364c1.22-1.129,3.25-1.123,4.461.015l16.145,15.168c1.217,1.143,3.26,1.143,4.477,0l16.145-15.168c1.211-1.137,3.241-1.144,4.461-.015l13.357,12.364c1.482,1.372,4.041,1.019,4.989-.689l8.126-14.645c.71-1.279,2.397-1.862,3.887-1.344l16.58,5.767c2.134.742,4.37-.772,4.199-2.809-2.638-31.485-33.73-48.388-73.982-48.388Z"/>
      <path class="cls-12" d="M209.632,258.296c-10.113,2.22-14.897,7.21-25.669,7.21s-15.556-4.99-25.669-7.21c-14.86-3.25-16.176-16.33-1.342-23.7,9.835-4.9,8.354-7.53,9.657-20.48.987-9.88,1.671-14.75,2.848-26.59.418-4.2,3.139-8.14,7.645-10.4,1.936-.97,4.24-1.65,6.86-1.65s4.924.68,6.873,1.65c4.493,2.26,7.215,6.2,7.632,10.4,1.177,11.84,1.873,16.71,2.861,26.59,1.291,12.95-.19,15.58,9.657,20.48,14.821,7.37,13.518,20.45-1.354,23.7Z"/>
    </g>
    <g id="Hand4_Think">
      <path class="cls-13" d="M281.744,328.605c-6.398-2.088-13.294.628-19.695,3.4-4.782,2.077-9.885,4.536-14.679,6.754-11.694,5.31-22.269,10.841-33.813,16.997-8.836,4.702-17.319,8.982-25.626,14.232-8.616,5.146-17.918,9.497-27.064,14.477-3.53,1.922-9.853,5.451-11.689,4.616-3.204-1.456-3.497-2.009-4.795-4.078-1.767-3.792-3.735-7.479-5.883-11.026-7.034-11.617-12.945-17.738-24.266-25.252-8.538-5.668-17.645-9.041-27.661-5.648-8.997,3.048-12.155,10.603-8.027,19.628,2.331,5.097,5.348,9.876,7.914,14.871,2.076,4.043,4.044,8.15,5.876,12.309,5.568,12.643,5.167,25.461,2.568,38.468-2.282,11.422-4.422,22.911-5.822,34.501-.566,4.686-.847,13.771.533,18.427,5.121,17.285,11.986,29.196,24.741,38.96,3.422,2.757,7.423,4.973,10.817,6.542,15.112,6.846,31.688,8.467,47.768,4.275,13.321-3.252,26.974-9.262,36.986-19.104,4.327-4.367,9.276-7.381,17.834-11.848,1.79-.799,3.534-1.702,5.231-2.695.022-.011.042-.021.064-.033.008-.004.009-.009.017-.013,1.199-.704,2.376-1.449,3.528-2.237,6.458-4.713,10.831-10.402,13.493-17.453,2.112-5.596.96-12.009-2.631-15.098-.604-.52-1.167-.893-1.711-1.135,2.094-3.566,3.683-7.514,4.526-12.047.865-4.648.909-9.77.331-14.71-.785-6.72-6.564-12.6-13.009-13.352-.043-.005-.091.003-.134,0,.009-.044.022-.085.031-.129,2.175-10.165.05-20.016-9.075-27.964-.778-.677-1.642-1.26-2.539-1.785,5.554-4.342,12.332-8.128,18.272-11.789,11.734-7.117,26.682-15.093,38.283-22.775,5.309-3.619,9.275-9.056,8.725-15.899-.033-5.707-4.135-10.75-9.418-12.388Z"/>
      <path class="cls-11" d="M281.744,328.605c-6.398-2.088-13.294.628-19.695,3.4-4.782,2.077-9.885,4.536-14.679,6.754-11.694,5.31-22.269,10.841-33.813,16.997-8.836,4.702-17.319,8.982-25.626,14.232-8.616,5.146-17.918,9.497-27.064,14.477-3.53,1.922-9.853,5.451-11.689,4.616-4.357-1.981-3.323-2.279-6.768-7.012l-.287,2.084c-5.064.399-2.495,8.665-4.508,14.71-.798,2.779-1.592,5.495-2.411,8.353-8.354,28.985-19.139,66.24-27.554,95.46-.541,1.955-.982,3.358-1.063,5.149.448,8.776,11.029,15.465,18.586,18.96,15.112,6.846,31.688,8.467,47.768,4.275,13.321-3.252,26.974-9.262,36.986-19.104,4.327-4.367,9.276-7.381,17.834-11.848,1.79-.799,3.534-1.702,5.231-2.695.022-.011.042-.021.064-.033.008-.004.009-.009.017-.013,1.199-.704,2.376-1.449,3.528-2.237,6.458-4.713,10.831-10.402,13.493-17.453,2.112-5.596.96-12.009-2.631-15.098-.604-.52-1.167-.893-1.711-1.135,2.094-3.566,3.683-7.514,4.526-12.047.865-4.648.909-9.77.331-14.71-.785-6.72-6.564-12.6-13.009-13.352-.043-.005-.091.003-.134,0,.009-.044.022-.085.031-.129,2.175-10.165.05-20.016-9.075-27.964-.778-.677-1.642-1.26-2.539-1.785,5.554-4.342,12.332-8.128,18.272-11.789,11.734-7.117,26.682-15.093,38.283-22.775,5.309-3.619,9.275-9.056,8.725-15.899-.033-5.707-4.135-10.75-9.418-12.388Z"/>
      <path class="cls-4" d="M146.815,465.8c2.029-4.967,3.679-10.079,5.066-15.26,6.788-25.348.394-53.814-13.381-76.565-7.034-11.617-12.945-17.738-24.265-25.253-8.538-5.668-17.645-9.041-27.661-5.648-8.997,3.048-12.155,10.603-8.027,19.628,2.331,5.097,5.348,9.875,7.914,14.871,2.076,4.043,4.044,8.15,5.876,12.309,5.568,12.643,5.167,25.461,2.568,38.468-2.282,11.422-4.423,22.911-5.822,34.501-.566,4.686-.847,13.771.533,18.427,5.241,17.689,12.29,29.756,25.628,39.648,0,0,10.343-13.551,12.57-17.786,7.057-13.421,15.852-29.632,19.002-37.342Z"/>
    </g>
  </g>
</svg>